<svg width="400" height="400" viewBox="0 0 400 400" fill="none" xmlns="http://www.w3.org/2000/svg">
<rect width="400" height="400" fill="white"/>
<path d="M167.954 53.7443C167.156 53.7443 166.419 53.6446 165.741 53.4452C165.064 53.2504 164.487 52.9536 164.009 52.5548C163.532 52.1606 163.172 51.6643 162.931 51.0661C162.736 50.5977 162.639 50.0667 162.639 49.473C162.639 49.3154 162.646 49.153 162.66 48.9861C162.688 48.6661 162.725 48.3391 162.771 48.0052C162.822 47.6713 162.889 47.3212 162.973 46.9548C163.061 46.5838 163.172 46.1919 163.307 45.7791C163.441 45.3664 163.608 44.9212 163.808 44.4435L165.241 45.1043C165.05 45.5774 164.893 46.0157 164.768 46.4191C164.642 46.818 164.543 47.189 164.468 47.5322C164.399 47.8754 164.35 48.1977 164.322 48.4991C164.294 48.8006 164.281 49.0904 164.281 49.3687C164.281 49.7026 164.322 50.0017 164.406 50.2661C164.494 50.5304 164.605 50.767 164.74 50.9757C164.921 51.2214 165.148 51.4093 165.421 51.5391C165.695 51.6736 165.983 51.771 166.284 51.8313C166.59 51.8916 166.889 51.9264 167.181 51.9357C167.478 51.9496 167.736 51.9565 167.954 51.9565C168.083 51.9565 168.271 51.9472 168.517 51.9287C168.768 51.9101 169.039 51.8777 169.331 51.8313C169.628 51.7849 169.932 51.7246 170.242 51.6504C170.553 51.5762 170.834 51.4835 171.084 51.3722C171.339 51.2609 171.545 51.131 171.703 50.9826C171.865 50.8342 171.947 50.6603 171.947 50.4609C171.947 50.4284 171.905 50.3774 171.821 50.3078C171.743 50.2429 171.631 50.1687 171.488 50.0852C171.348 50.0017 171.184 49.9136 170.994 49.8209C170.803 49.7328 170.599 49.647 170.381 49.5635C170.061 49.4568 169.744 49.378 169.428 49.327C169.113 49.2759 168.8 49.2226 168.489 49.167L168.726 47.4278H174.249V49.2087H172.948C173.134 49.4359 173.257 49.6586 173.317 49.8765C173.382 50.0991 173.417 50.2939 173.421 50.4609C173.403 50.869 173.299 51.233 173.108 51.553C172.918 51.8777 172.672 52.1606 172.371 52.4017C172.074 52.6475 171.736 52.8539 171.355 53.0209C170.975 53.1925 170.585 53.3316 170.187 53.4383C169.788 53.5449 169.394 53.6214 169.004 53.6678C168.619 53.7188 168.269 53.7443 167.954 53.7443ZM180.183 47.4278V49.2087H180.044C179.594 49.2087 179.214 49.1368 178.903 48.993C178.593 48.8493 178.328 48.6638 178.11 48.4365C177.957 48.6313 177.73 48.782 177.428 48.8887C177.132 48.9907 176.8 49.0649 176.434 49.1113C176.067 49.1623 175.689 49.1901 175.3 49.1948C174.915 49.2041 174.56 49.2087 174.235 49.2087H173.978V47.4278H174.235C174.778 47.4278 175.235 47.3977 175.606 47.3374C175.977 47.2725 176.276 47.1797 176.503 47.0591C176.735 46.9386 176.902 46.7878 177.004 46.607C177.106 46.4214 177.157 46.2081 177.157 45.967C177.157 45.8093 177.127 45.6006 177.067 45.3409C177.006 45.0765 176.916 44.738 176.795 44.3252L178.507 43.8452C178.567 44.0493 178.613 44.2301 178.646 44.3878C178.683 44.5409 178.711 44.6962 178.729 44.8539C178.753 45.007 178.771 45.1739 178.785 45.3548C178.804 45.531 178.822 45.742 178.841 45.9878C178.855 46.1362 178.889 46.2962 178.945 46.4678C179.001 46.6348 179.077 46.7901 179.175 46.9339C179.277 47.073 179.4 47.1913 179.543 47.2887C179.687 47.3814 179.854 47.4278 180.044 47.4278H180.183ZM177.095 41.2643L175.912 42.447L174.715 41.2574L175.898 40.0678L177.095 41.2643ZM179.724 41.2713L178.542 42.4609L177.345 41.2643L178.528 40.0817L179.724 41.2713ZM180.192 47.4278C180.429 47.4278 180.651 47.3814 180.86 47.2887C181.073 47.1913 181.275 47.0197 181.465 46.7739C181.66 46.5235 181.841 46.1826 182.008 45.7513C182.179 45.32 182.342 44.7681 182.495 44.0957L184.199 44.5757C184.088 44.9606 183.988 45.3316 183.9 45.6887C183.812 46.0412 183.763 46.3449 183.754 46.6C183.754 46.6232 183.754 46.6441 183.754 46.6626C183.754 46.7461 183.761 46.8342 183.775 46.927C183.793 47.0197 183.823 47.1055 183.865 47.1843C183.907 47.2632 183.963 47.3258 184.032 47.3722C184.097 47.4139 184.169 47.4348 184.248 47.4348C184.257 47.4348 184.266 47.4348 184.276 47.4348C184.447 47.4301 184.609 47.3675 184.763 47.247C184.916 47.1264 185.057 46.971 185.187 46.7809C185.321 46.5907 185.442 46.3751 185.549 46.1339C185.66 45.8928 185.757 45.6493 185.841 45.4035C185.929 45.153 186.003 44.9096 186.063 44.673C186.124 44.4365 186.17 44.2278 186.203 44.047L187.844 44.3809C187.784 44.6591 187.735 44.9165 187.698 45.153C187.661 45.3849 187.638 45.6191 187.629 45.8557C187.624 45.9159 187.622 45.9762 187.622 46.0365C187.622 46.1525 187.629 46.2893 187.643 46.447C187.661 46.6 187.701 46.7507 187.761 46.8991C187.821 47.0475 187.905 47.1704 188.011 47.2678C188.123 47.3606 188.266 47.407 188.443 47.407C188.642 47.407 188.802 47.3304 188.923 47.1774C189.048 47.0197 189.143 46.8203 189.208 46.5791C189.273 46.338 189.314 46.0713 189.333 45.7791C189.356 45.4823 189.368 45.1948 189.368 44.9165C189.368 44.8284 189.365 44.7588 189.361 44.7078C189.361 44.6522 189.361 44.6012 189.361 44.5548C189.361 44.5084 189.358 44.4574 189.354 44.4017C189.354 44.3414 189.354 44.2603 189.354 44.1583L191.114 44.0191C191.128 44.1722 191.142 44.3229 191.156 44.4713C191.169 44.6151 191.183 44.7658 191.197 44.9235C191.211 45.0765 191.227 45.2412 191.246 45.4174C191.269 45.589 191.295 45.7768 191.323 45.9809C191.355 46.222 191.422 46.433 191.524 46.6139C191.631 46.7948 191.754 46.9455 191.893 47.0661C192.032 47.1867 192.181 47.2771 192.338 47.3374C192.501 47.3977 192.654 47.4278 192.797 47.4278H193.055V49.2087H192.832C192.605 49.2087 192.38 49.1855 192.157 49.1391C191.939 49.0928 191.731 49.0209 191.531 48.9235C191.332 48.8261 191.144 48.7032 190.968 48.5548C190.796 48.4017 190.645 48.2209 190.516 48.0122C190.293 48.3739 190.001 48.6638 189.639 48.8817C189.277 49.0997 188.878 49.2087 188.443 49.2087C188.007 49.2087 187.61 49.1043 187.253 48.8957C186.901 48.687 186.62 48.4087 186.411 48.0609C186.277 48.2325 186.131 48.3901 185.973 48.5339C185.82 48.673 185.653 48.7959 185.472 48.9026C185.296 49.0046 185.108 49.0835 184.909 49.1391C184.709 49.1994 184.501 49.2296 184.283 49.2296C184.074 49.2296 183.872 49.2017 183.677 49.1461C183.483 49.0951 183.302 49.0186 183.135 48.9165C182.968 48.8145 182.817 48.6916 182.683 48.5478C182.548 48.3994 182.437 48.2348 182.349 48.0539C182.117 48.462 181.832 48.7565 181.493 48.9374C181.154 49.1183 180.723 49.2087 180.199 49.2087H179.9V47.4278H180.192ZM186.856 41.4313L185.674 42.6139L184.477 41.4243L185.66 40.2348L186.856 41.4313ZM189.486 41.4383L188.303 42.6278L187.107 41.4313L188.289 40.2487L189.486 41.4383ZM185.896 39.4209L186.982 38.3357L188.074 39.4278L186.989 40.513L185.896 39.4209ZM192.775 47.4278H194.284C194.86 47.4278 195.444 47.3745 196.038 47.2678C196.636 47.1565 197.229 47.0128 197.818 46.8365C198.407 46.6557 198.982 46.4493 199.544 46.2174C200.105 45.9855 200.636 45.7467 201.137 45.5009C200.738 45.4128 200.367 45.2968 200.024 45.153C199.68 45.0046 199.356 44.8609 199.05 44.7217C198.744 44.5826 198.449 44.462 198.166 44.36C197.883 44.258 197.603 44.207 197.324 44.207C197.162 44.207 197.009 44.2371 196.865 44.2974C196.726 44.353 196.596 44.4249 196.476 44.513C196.355 44.6012 196.246 44.6986 196.149 44.8052C196.056 44.9119 195.973 45.0162 195.898 45.1183C195.829 45.2157 195.771 45.3038 195.724 45.3826C195.678 45.4614 195.646 45.5171 195.627 45.5496L194.18 44.6104C194.338 44.3322 194.526 44.0632 194.744 43.8035C194.962 43.5391 195.203 43.3049 195.467 43.1009C195.736 42.8922 196.026 42.7275 196.337 42.607C196.647 42.4817 196.977 42.4191 197.324 42.4191C197.682 42.4191 198.036 42.4678 198.389 42.5652C198.741 42.658 199.089 42.7786 199.432 42.927C199.78 43.0707 200.128 43.2261 200.476 43.393C200.824 43.56 201.174 43.7177 201.526 43.8661C201.883 44.0099 202.243 44.1328 202.604 44.2348C202.966 44.3322 203.337 44.3832 203.718 44.3878L203.571 46.1826C202.922 46.4933 202.245 46.8226 201.54 47.1704C200.835 47.5183 200.098 47.8406 199.328 48.1374C198.558 48.4296 197.753 48.6777 196.914 48.8817C196.079 49.0812 195.203 49.1901 194.284 49.2087H192.775V47.4278ZM198.611 40.2L197.276 41.5357L195.947 40.2L197.276 38.8713L198.611 40.2ZM213.493 52.8748C213.762 52.9212 214.034 52.9443 214.307 52.9443C214.377 52.9443 214.514 52.9397 214.718 52.9304C214.922 52.9212 215.184 52.8794 215.504 52.8052C215.824 52.731 216.13 52.6313 216.422 52.5061C216.719 52.3809 216.99 52.2371 217.236 52.0748L218.175 53.633C217.906 53.7954 217.628 53.9438 217.34 54.0783C217.057 54.2174 216.763 54.3357 216.457 54.433C216.155 54.5304 215.842 54.6046 215.518 54.6557C215.235 54.702 214.945 54.7252 214.648 54.7252C214.602 54.7252 214.553 54.7252 214.502 54.7252C214.066 54.7159 213.63 54.6696 213.194 54.5861C212.763 54.5026 212.35 54.382 211.956 54.2243C211.566 54.0667 211.202 53.8696 210.864 53.633C210.53 53.4012 210.238 53.1299 209.987 52.8191C209.741 52.513 209.547 52.1675 209.403 51.7826C209.259 51.4023 209.185 50.9803 209.18 50.5165C209.194 50.0203 209.287 49.5565 209.459 49.1252C209.63 48.6986 209.857 48.309 210.14 47.9565C210.428 47.5994 210.757 47.2817 211.128 47.0035C211.504 46.7252 211.9 46.4864 212.318 46.287C212.169 46.1478 212.016 46.011 211.859 45.8765C211.706 45.7374 211.557 45.6075 211.413 45.487C211.27 45.3617 211.135 45.2481 211.01 45.1461C210.885 45.0394 210.78 44.949 210.697 44.8748L210.565 43.3861C211.172 42.8574 211.826 42.4609 212.526 42.1965C213.231 41.9275 213.966 41.793 214.732 41.793C214.959 41.793 215.193 41.8093 215.434 41.8417C215.68 41.8742 215.919 41.9252 216.151 41.9948C216.383 42.0643 216.601 42.1548 216.805 42.2661C217.009 42.3774 217.187 42.5142 217.34 42.6765C217.493 42.8342 217.614 43.0174 217.702 43.2261C217.781 43.4301 217.82 43.6574 217.82 43.9078C217.82 43.9217 217.82 43.9357 217.82 43.9496C217.802 44.302 217.732 44.6174 217.612 44.8957C217.496 45.1739 217.343 45.4243 217.153 45.647C216.962 45.8696 216.742 46.069 216.492 46.2452C216.246 46.4214 215.984 46.5838 215.706 46.7322C216.081 46.9409 216.48 47.1101 216.902 47.24C217.329 47.3652 217.744 47.4278 218.147 47.4278H218.384V49.2087H218.147C217.762 49.2087 217.389 49.1693 217.027 49.0904C216.666 49.0116 216.308 48.9003 215.956 48.7565C215.604 48.6081 215.253 48.4342 214.906 48.2348C214.558 48.0307 214.208 47.8058 213.855 47.56C213.517 47.6945 213.173 47.8522 212.826 48.033C212.478 48.2093 212.16 48.418 211.873 48.6591C211.59 48.8957 211.358 49.1646 211.177 49.4661C210.996 49.7675 210.906 50.1084 210.906 50.4887C210.906 50.702 210.947 50.9061 211.031 51.1009C211.119 51.2957 211.233 51.4765 211.372 51.6435C211.511 51.8151 211.671 51.9704 211.852 52.1096C212.033 52.2533 212.218 52.3762 212.408 52.4783C212.603 52.5849 212.793 52.6707 212.979 52.7357C213.169 52.8052 213.34 52.8516 213.493 52.8748ZM214.739 43.4904C214.553 43.4904 214.358 43.5043 214.154 43.5322C213.95 43.5554 213.748 43.5901 213.549 43.6365C213.35 43.6783 213.157 43.7316 212.972 43.7965C212.791 43.8568 212.631 43.9241 212.492 43.9983C212.589 44.1003 212.698 44.2186 212.819 44.353C212.939 44.4829 213.067 44.6197 213.201 44.7635C213.34 44.9072 213.482 45.051 213.626 45.1948C213.769 45.3339 213.911 45.4638 214.05 45.5843C214.356 45.4545 214.641 45.3223 214.906 45.1878C215.17 45.0533 215.399 44.9165 215.594 44.7774C215.794 44.6336 215.951 44.4852 216.067 44.3322C216.183 44.1791 216.244 44.0214 216.248 43.8591C216.244 43.8406 216.213 43.8128 216.158 43.7757C216.102 43.7386 216.012 43.7014 215.886 43.6643C215.766 43.6226 215.61 43.5855 215.42 43.553C215.235 43.5206 215.008 43.4997 214.739 43.4904ZM218.103 47.4278H219.16L219.209 47.3374C219.288 47.1983 219.399 47.0151 219.543 46.7878C219.691 46.5559 219.877 46.2939 220.1 46.0017C220.141 45.7096 220.176 45.3409 220.204 44.8957C220.232 44.4504 220.248 43.9681 220.253 43.4487C220.253 43.1658 220.248 42.8759 220.239 42.5791C220.229 42.2777 220.211 41.9322 220.183 41.5426C220.155 41.153 220.116 40.6986 220.065 40.1791C220.018 39.6551 219.958 39.0313 219.884 38.3078L221.713 37.8348C221.834 38.7252 221.925 39.6388 221.985 40.5757C222.05 41.5125 222.082 42.44 222.082 43.3583V43.9217C222.333 43.7084 222.592 43.5043 222.861 43.3096C223.135 43.1148 223.418 42.9432 223.71 42.7948C224.007 42.6464 224.315 42.5281 224.635 42.44C224.955 42.3519 225.289 42.3078 225.637 42.3078C225.989 42.3078 226.323 42.3635 226.639 42.4748C226.954 42.5861 227.232 42.7484 227.473 42.9617C227.719 43.1704 227.921 43.4255 228.079 43.727C228.236 44.0284 228.334 44.367 228.371 44.7426C228.376 44.8122 228.378 44.8794 228.378 44.9443C228.378 45.4267 228.297 45.8765 228.134 46.2939C227.977 46.7113 227.742 47.0893 227.432 47.4278H229.393V49.2087H227.543C227.177 49.2087 226.769 49.1925 226.319 49.16C225.869 49.1275 225.37 49.0417 224.823 48.9026C224.429 49.0093 224.028 49.0858 223.62 49.1322C223.216 49.1832 222.81 49.2087 222.402 49.2087H218.103V47.4278ZM221.755 47.4278C222.038 47.4278 222.363 47.4209 222.729 47.407C223.1 47.393 223.48 47.3606 223.87 47.3096C224.26 47.2586 224.638 47.182 225.004 47.08C225.375 46.978 225.704 46.8412 225.992 46.6696C226.279 46.498 226.507 46.2823 226.673 46.0226C226.817 45.8 226.889 45.5357 226.889 45.2296C226.889 45.1878 226.887 45.1438 226.882 45.0974C226.873 44.9583 226.827 44.8284 226.743 44.7078C226.664 44.5872 226.553 44.4852 226.409 44.4017C226.27 44.3136 226.103 44.2441 225.908 44.193C225.741 44.1559 225.56 44.1374 225.366 44.1374C225.329 44.1374 225.289 44.1374 225.247 44.1374C225.016 44.1467 224.74 44.207 224.42 44.3183C224.1 44.4249 223.756 44.6058 223.39 44.8609C223.024 45.1159 222.643 45.4522 222.249 45.8696C221.855 46.287 221.47 46.8064 221.094 47.4278H221.755ZM229.286 47.4278C229.773 47.4278 230.241 47.4139 230.691 47.3861C231.141 47.3536 231.551 47.3096 231.922 47.2539C232.293 47.1983 232.613 47.131 232.882 47.0522C233.151 46.9733 233.353 46.8852 233.487 46.7878H232.778C232.37 46.7878 231.98 46.7368 231.609 46.6348C231.243 46.5281 230.92 46.3704 230.642 46.1617C230.364 45.953 230.141 45.6933 229.974 45.3826C229.812 45.0672 229.731 44.7009 229.731 44.2835C229.731 44.0377 229.756 43.7849 229.807 43.5252C229.858 43.2655 229.935 43.0128 230.037 42.767C230.139 42.5212 230.262 42.2893 230.406 42.0713C230.549 41.8533 230.714 41.6632 230.9 41.5009C231.085 41.3339 231.289 41.2041 231.512 41.1113C231.734 41.0139 231.975 40.9652 232.235 40.9652C232.555 40.9652 232.854 41.0325 233.133 41.167C233.411 41.3014 233.664 41.4846 233.891 41.7165C234.118 41.9438 234.32 42.2081 234.496 42.5096C234.672 42.811 234.821 43.1287 234.941 43.4626C235.062 43.7965 235.152 44.1374 235.213 44.4852C235.278 44.8284 235.31 45.1554 235.31 45.4661C235.31 45.9948 235.236 46.4539 235.087 46.8435C234.944 47.233 234.74 47.567 234.475 47.8452C234.215 48.1235 233.902 48.3507 233.536 48.527C233.174 48.7032 232.773 48.8423 232.333 48.9443C231.892 49.0464 231.419 49.1159 230.913 49.153C230.413 49.1901 229.893 49.2087 229.355 49.2087H229.119V47.4278H229.286ZM232.235 42.76C232.212 42.7554 232.189 42.753 232.166 42.753C232.073 42.753 231.966 42.7901 231.846 42.8643C231.725 42.9386 231.609 43.0452 231.498 43.1843C231.387 43.3235 231.296 43.4812 231.227 43.6574C231.157 43.829 231.122 43.9983 231.122 44.1652C231.122 44.1745 231.122 44.1838 231.122 44.193C231.122 44.36 231.159 44.4968 231.233 44.6035C231.308 44.7055 231.407 44.7843 231.533 44.84C231.662 44.8957 231.811 44.9351 231.978 44.9583C232.149 44.9814 232.33 44.9977 232.52 45.007C232.646 45.0116 232.775 45.0139 232.91 45.0139C232.975 45.0139 233.075 45.0139 233.209 45.0139C233.348 45.0093 233.49 45.0023 233.633 44.993C233.592 44.8261 233.531 44.6197 233.453 44.3739C233.378 44.1235 233.283 43.8823 233.167 43.6504C233.056 43.4139 232.922 43.2099 232.764 43.0383C232.611 42.8667 232.435 42.7739 232.235 42.76ZM232.068 38.8713L230.886 40.0539L229.689 38.8643L230.872 37.6748L232.068 38.8713ZM234.698 38.8783L233.515 40.0678L232.319 38.8713L233.501 37.6887L234.698 38.8783Z" fill="black"/>
<path d="M278.165 129.521C278.165 129.535 278.174 129.61 278.191 129.747C278.208 129.877 278.226 130.048 278.243 130.262C278.26 130.468 278.275 130.7 278.286 130.958C278.292 131.136 278.295 131.316 278.295 131.496V131.768C278.272 133.359 277.957 134.38 277.349 134.831V134.82C276.758 135.282 275.957 135.176 274.944 134.5C274.666 134.315 274.414 134.127 274.188 133.934C273.968 133.739 273.748 133.516 273.529 133.265L273.598 133.885C273.667 134.585 273.722 135.297 273.763 136.019C273.809 136.739 273.844 137.454 273.867 138.165C273.896 138.873 273.913 139.567 273.919 140.245C273.931 140.921 273.937 141.561 273.937 142.166L272.209 141.015C272.209 139.909 272.2 138.804 272.183 137.7C272.165 136.589 272.119 135.494 272.044 134.414C271.969 133.327 271.856 132.264 271.705 131.225C271.561 130.182 271.358 129.178 271.098 128.211C270.976 127.754 270.846 127.309 270.707 126.876C270.568 126.442 270.412 125.987 270.238 125.509L271.688 125.37C271.781 125.613 271.864 125.853 271.94 126.091C272.021 126.326 272.099 126.569 272.174 126.821C272.255 127.07 272.336 127.333 272.417 127.609C272.498 127.886 272.588 128.186 272.686 128.509C272.819 128.966 272.95 129.387 273.077 129.771C273.21 130.152 273.361 130.506 273.529 130.834C273.702 131.165 273.899 131.463 274.119 131.728C274.345 131.99 274.62 132.229 274.944 132.445C275.424 132.765 275.786 132.829 276.029 132.636C276.139 132.556 276.229 132.439 276.298 132.283C276.368 132.121 276.423 131.939 276.463 131.736C276.509 131.537 276.541 131.322 276.559 131.09C276.576 130.858 276.585 130.627 276.585 130.398C276.585 130.099 276.57 129.8 276.541 129.503C276.518 129.209 276.492 128.962 276.463 128.762L278.165 129.521ZM280.991 141.005C280.991 140.518 281.066 140.113 281.217 139.789C281.373 139.462 281.584 139.227 281.851 139.084C282.117 138.935 282.427 138.884 282.78 138.931C283.139 138.983 283.523 139.146 283.934 139.419C284.34 139.69 284.719 140.036 285.072 140.459C285.431 140.887 285.743 141.352 286.01 141.857C286.282 142.358 286.496 142.877 286.652 143.412C286.808 143.941 286.886 144.448 286.886 144.935C286.886 145.429 286.808 145.84 286.652 146.167C286.496 146.487 286.282 146.716 286.01 146.855C285.743 146.998 285.431 147.043 285.072 146.992C284.719 146.937 284.34 146.775 283.934 146.505C283.523 146.231 283.139 145.884 282.78 145.464C282.427 145.04 282.117 144.58 281.851 144.082C281.584 143.585 281.373 143.072 281.217 142.543C281.066 142.012 280.991 141.499 280.991 141.005ZM282.406 141.949C282.406 142.199 282.447 142.463 282.528 142.739C282.609 143.016 282.719 143.284 282.858 143.543C282.997 143.803 283.159 144.043 283.344 144.264C283.529 144.485 283.726 144.665 283.934 144.804C284.143 144.943 284.34 145.025 284.525 145.051C284.716 145.081 284.881 145.059 285.02 144.985C285.159 144.91 285.269 144.789 285.35 144.62C285.431 144.452 285.471 144.242 285.471 143.992C285.471 143.741 285.431 143.478 285.35 143.201C285.269 142.918 285.159 142.646 285.02 142.386C284.881 142.127 284.716 141.885 284.525 141.66C284.34 141.439 284.143 141.259 283.934 141.12C283.726 140.981 283.529 140.899 283.344 140.873C283.159 140.847 282.997 140.871 282.858 140.945C282.719 141.02 282.609 141.145 282.528 141.32C282.447 141.489 282.406 141.698 282.406 141.949Z" fill="black"/>
<path d="M104.165 111.476C104.165 111.49 104.174 111.554 104.191 111.668C104.208 111.774 104.226 111.923 104.243 112.113C104.26 112.296 104.275 112.509 104.286 112.752C104.292 112.922 104.295 113.097 104.295 113.278V113.549C104.272 115.172 103.957 116.613 103.349 117.874V117.864C102.758 119.113 101.957 120.075 100.944 120.751C100.666 120.936 100.414 121.083 100.188 121.192C99.9684 121.29 99.7485 121.36 99.5285 121.402L99.598 121.93C99.6675 122.537 99.7225 123.175 99.763 123.844C99.8093 124.502 99.844 125.171 99.8672 125.851C99.8961 126.52 99.9135 127.191 99.9192 127.862C99.9308 128.522 99.9366 129.154 99.9366 129.759L98.2088 130.911C98.2088 129.805 98.2002 128.712 98.1828 127.631C98.1654 126.544 98.1191 125.51 98.0439 124.531C97.9686 123.545 97.8558 122.632 97.7053 121.793C97.5606 120.944 97.358 120.209 97.0975 119.59C96.976 119.295 96.8457 119.024 96.7068 118.775C96.5679 118.527 96.4116 118.28 96.238 118.034L97.6879 115.961C97.7805 116.08 97.8644 116.209 97.9397 116.346C98.0207 116.473 98.0989 116.612 98.1741 116.764C98.2551 116.905 98.3362 117.059 98.4172 117.228C98.4983 117.397 98.588 117.577 98.6864 117.769C98.8195 118.049 98.9497 118.296 99.0771 118.51C99.2102 118.713 99.3607 118.867 99.5285 118.971C99.7022 119.071 99.899 119.106 100.119 119.078C100.345 119.039 100.62 118.911 100.944 118.695C101.424 118.375 101.786 117.956 102.029 117.439C102.139 117.213 102.229 116.976 102.298 116.728C102.368 116.473 102.423 116.217 102.463 115.96C102.509 115.7 102.541 115.442 102.559 115.187C102.576 114.932 102.585 114.69 102.585 114.46C102.585 114.161 102.57 113.882 102.541 113.623C102.518 113.36 102.492 113.148 102.463 112.986L104.165 111.476ZM106.991 119.192C106.991 118.705 107.066 118.199 107.217 117.675C107.373 117.139 107.584 116.623 107.851 116.125C108.117 115.621 108.427 115.157 108.78 114.734C109.139 114.307 109.523 113.956 109.934 113.682C110.34 113.412 110.719 113.253 111.072 113.206C111.431 113.154 111.743 113.203 112.01 113.353C112.282 113.491 112.496 113.724 112.652 114.051C112.808 114.371 112.886 114.775 112.886 115.262C112.886 115.756 112.808 116.271 112.652 116.806C112.496 117.335 112.282 117.85 112.01 118.351C111.743 118.848 111.431 119.311 111.072 119.738C110.719 120.154 110.34 120.497 109.934 120.767C109.523 121.041 109.139 121.207 108.78 121.266C108.427 121.313 108.117 121.266 107.851 121.123C107.584 120.981 107.373 120.75 107.217 120.429C107.066 120.098 106.991 119.686 106.991 119.192ZM108.406 118.249C108.406 118.499 108.447 118.709 108.528 118.877C108.609 119.046 108.719 119.167 108.858 119.242C108.997 119.316 109.159 119.34 109.344 119.314C109.529 119.288 109.726 119.205 109.934 119.066C110.143 118.928 110.34 118.748 110.525 118.527C110.716 118.302 110.881 118.06 111.02 117.8C111.159 117.541 111.269 117.273 111.35 116.996C111.431 116.719 111.471 116.456 111.471 116.205C111.471 115.955 111.431 115.745 111.35 115.577C111.269 115.401 111.159 115.276 111.02 115.202C110.881 115.128 110.716 115.106 110.525 115.135C110.34 115.162 110.143 115.244 109.934 115.383C109.726 115.522 109.529 115.702 109.344 115.923C109.159 116.144 108.997 116.384 108.858 116.643C108.719 116.903 108.609 117.174 108.528 117.458C108.447 117.735 108.406 117.998 108.406 118.249Z" fill="black"/>
<path d="M361.95 217.165L361.95 223.956L228.197 314.064L40.6004 190.834L40.6004 184.662L175.329 94.1729L361.95 217.165Z" fill="#E7E7E7" stroke="black"/>
<path d="M362.614 216.95L362.614 223.338L228.789 313.546L228.789 306.662L362.614 216.95Z" fill="#A3A3A3" stroke="black"/>
<path d="M40.5388 184.496L175.706 94.0533L362.558 216.382L228.237 306.598L40.5388 184.496Z" fill="#E7E7E7" stroke="black"/>
<path d="M354.219 210.818L362.646 216.436L228.229 306.716L220.422 301.511L354.219 210.818Z" fill="#A3A3A3" stroke="black"/>
<path d="M181.312 185.513C180.553 185.008 179.954 184.415 179.513 183.735C179.079 183.058 178.872 182.299 178.894 181.455L182.674 181.019C182.698 181.383 182.759 181.71 182.858 182C182.963 182.286 183.09 182.541 183.241 182.765C183.392 182.989 183.557 183.184 183.736 183.35C183.922 183.52 184.11 183.669 184.301 183.796C184.457 183.9 184.633 184.006 184.83 184.114C185.033 184.219 185.244 184.313 185.464 184.398C185.689 184.486 185.915 184.559 186.141 184.617C186.366 184.675 186.589 184.707 186.809 184.715C187.12 184.211 187.431 183.681 187.742 183.123C188.065 182.565 188.385 182.006 188.702 181.444C189.025 180.879 189.345 180.319 189.662 179.765C189.979 179.212 190.29 178.685 190.596 178.185L194.188 179.166L190.149 185.713C189.999 185.953 189.872 186.166 189.769 186.352C189.665 186.538 189.607 186.712 189.596 186.874C189.591 187.041 189.637 187.199 189.736 187.35C189.846 187.501 190.031 187.663 190.292 187.836L190.543 188.004L187.806 189.843L187.554 189.675C187.201 189.44 186.912 189.216 186.686 189.003C186.466 188.795 186.292 188.59 186.164 188.389C186.037 188.196 185.947 188.004 185.895 187.815C185.854 187.625 185.833 187.434 185.833 187.241C185.388 187.183 184.971 187.107 184.584 187.011C184.19 186.918 183.812 186.801 183.447 186.659C183.083 186.516 182.727 186.348 182.379 186.156C182.032 185.97 181.676 185.756 181.312 185.513ZM190.199 187.775L190.763 188.151C191.023 188.324 191.284 188.444 191.544 188.509C191.816 188.575 192.085 188.595 192.351 188.572C192.628 188.548 192.897 188.484 193.157 188.379C193.423 188.278 193.68 188.144 193.928 187.977C194.275 187.752 194.69 187.477 195.176 187.151C195.666 186.821 196.189 186.466 196.743 186.086C197.304 185.702 197.878 185.305 198.467 184.894C199.062 184.479 199.636 184.073 200.191 183.678C200.751 183.278 201.279 182.9 201.776 182.543C202.278 182.183 202.714 181.867 203.084 181.595L206.347 183.098L196.057 190.138C195.699 190.378 195.505 190.628 195.477 190.888C195.46 191.147 195.631 191.396 195.99 191.635L196.181 191.763L193.443 193.601L193.252 193.474C193.009 193.319 192.789 193.146 192.592 192.953C192.401 192.763 192.242 192.568 192.114 192.367C191.981 192.17 191.888 191.977 191.836 191.787C191.784 191.598 191.778 191.428 191.818 191.277C191.546 191.297 191.271 191.291 190.994 191.261C190.716 191.23 190.424 191.163 190.118 191.059C189.811 190.963 189.484 190.826 189.137 190.649C188.79 190.472 188.414 190.248 188.008 189.978L187.461 189.613L190.199 187.775ZM195.835 191.532L197.666 192.753C198.604 193.378 199.519 193.914 200.41 194.362C201.312 194.809 202.201 195.196 203.074 195.523C203.948 195.851 204.812 196.134 205.669 196.372C206.536 196.61 207.401 196.835 208.263 197.047C207.979 196.71 207.718 196.355 207.48 195.98C207.249 195.609 207.008 195.24 206.759 194.873C206.515 194.51 206.249 194.162 205.959 193.83C205.675 193.494 205.339 193.196 204.952 192.938C204.685 192.76 204.35 192.633 203.945 192.557C203.546 192.484 203.15 192.44 202.757 192.425C202.363 192.41 202.008 192.417 201.69 192.444C201.378 192.468 201.173 192.49 201.074 192.509L200.359 190.305C200.966 190.192 201.605 190.112 202.276 190.064C202.946 190.017 203.602 190.017 204.244 190.067C204.898 190.116 205.519 190.221 206.109 190.382C206.705 190.548 207.234 190.785 207.697 191.094C208.039 191.321 208.343 191.574 208.609 191.852C208.882 192.126 209.128 192.414 209.348 192.716C209.574 193.021 209.777 193.334 209.957 193.655C210.142 193.972 210.322 194.288 210.496 194.605C210.658 194.907 210.824 195.21 210.992 195.516C211.166 195.817 211.357 196.119 211.566 196.42C211.78 196.717 212.026 197.009 212.304 197.295C212.582 197.581 212.915 197.857 213.303 198.123L210.427 199.764L208.605 199.338C207.859 199.165 207.107 199 206.349 198.843C205.597 198.682 204.843 198.511 204.085 198.33C203.333 198.146 202.572 197.944 201.803 197.725C201.039 197.502 200.276 197.244 199.512 196.951C198.754 196.655 197.993 196.314 197.23 195.928C196.46 195.546 195.693 195.101 194.929 194.592L193.097 193.37L195.835 191.532ZM195.53 201.322L195.526 198.746L199.377 198.739L199.381 201.315L195.53 201.322Z" fill="black"/>
<path d="M190.706 85.1575C190.543 84.8539 190.543 84.5373 190.706 84.4504L193.353 83.0334C193.516 82.9465 193.779 83.1221 193.941 83.4257C194.104 83.7292 194.104 84.0458 193.941 84.1328L191.588 85.3923L193.941 89.7896C194.104 90.0932 194.104 90.4098 193.941 90.4967C193.779 90.5837 193.516 90.4081 193.353 90.1045L190.706 85.1575ZM245.083 121.556L191 85.5V84.5L245.083 120.556V121.556Z" fill="black"/>
<path d="M40.7057 164.613C40.5433 164.526 40.5433 164.209 40.7057 163.906L43.3533 158.959C43.5158 158.655 43.7792 158.48 43.9416 158.567C44.1041 158.653 44.1041 158.97 43.9416 159.274L41.5883 163.671L43.9416 164.93C44.1041 165.017 44.1041 165.334 43.9416 165.638C43.7792 165.941 43.5158 166.117 43.3533 166.03L40.7057 164.613ZM87.5947 133.5L40.9999 164.563V163.563L87.5947 132.5V133.5Z" fill="black"/>
<path d="M168.889 80.4503C169.051 80.5373 169.051 80.8539 168.889 81.1574L166.241 86.1045C166.079 86.408 165.815 86.5836 165.653 86.4967C165.491 86.4097 165.491 86.0932 165.653 85.7896L168.006 81.3922L165.653 80.1327C165.491 80.0458 165.491 79.7292 165.653 79.4256C165.815 79.1221 166.079 78.9464 166.241 79.0334L168.889 80.4503ZM168.595 81.5L122 112.563V111.563L168.595 80.5V81.5Z" fill="black"/>
<path d="M365.377 199.954C365.54 200.257 365.54 200.574 365.377 200.661L362.73 202.078C362.567 202.165 362.304 201.989 362.141 201.685C361.979 201.382 361.979 201.065 362.141 200.978L364.495 199.719L362.141 195.321C361.979 195.018 361.979 194.701 362.141 194.614C362.304 194.527 362.567 194.703 362.73 195.007L365.377 199.954ZM365.083 200.611L311 164.556V163.556L365.083 199.611V200.611Z" fill="black"/>
<path d="M168.993 359.744C168.195 359.744 167.458 359.645 166.78 359.445C166.103 359.25 165.526 358.954 165.048 358.555C164.571 358.161 164.211 357.664 163.97 357.066C163.775 356.598 163.678 356.067 163.678 355.473C163.678 355.315 163.685 355.153 163.699 354.986C163.727 354.666 163.764 354.339 163.81 354.005C163.861 353.671 163.928 353.321 164.012 352.955C164.1 352.584 164.211 352.192 164.346 351.779C164.48 351.366 164.647 350.921 164.847 350.443L166.28 351.104C166.089 351.577 165.932 352.016 165.807 352.419C165.681 352.818 165.582 353.189 165.507 353.532C165.438 353.875 165.389 354.198 165.361 354.499C165.334 354.801 165.32 355.09 165.32 355.369C165.32 355.703 165.361 356.002 165.445 356.266C165.533 356.53 165.644 356.767 165.779 356.976C165.96 357.221 166.187 357.409 166.46 357.539C166.734 357.674 167.022 357.771 167.323 357.831C167.629 357.892 167.928 357.926 168.22 357.936C168.517 357.95 168.775 357.957 168.993 357.957C169.123 357.957 169.31 357.947 169.556 357.929C169.807 357.91 170.078 357.878 170.37 357.831C170.667 357.785 170.971 357.725 171.281 357.65C171.592 357.576 171.873 357.483 172.123 357.372C172.378 357.261 172.585 357.131 172.742 356.983C172.905 356.834 172.986 356.66 172.986 356.461C172.986 356.428 172.944 356.377 172.86 356.308C172.782 356.243 172.67 356.169 172.527 356.085C172.387 356.002 172.223 355.914 172.033 355.821C171.843 355.733 171.638 355.647 171.42 355.563C171.1 355.457 170.783 355.378 170.467 355.327C170.152 355.276 169.839 355.223 169.528 355.167L169.765 353.428H175.288V355.209H173.987C174.173 355.436 174.296 355.659 174.356 355.877C174.421 356.099 174.456 356.294 174.46 356.461C174.442 356.869 174.338 357.233 174.147 357.553C173.957 357.878 173.712 358.161 173.41 358.402C173.113 358.648 172.775 358.854 172.394 359.021C172.014 359.192 171.625 359.332 171.226 359.438C170.827 359.545 170.433 359.621 170.043 359.668C169.658 359.719 169.308 359.744 168.993 359.744ZM175.017 353.428H175.156C175.458 353.428 175.757 353.428 176.054 353.428C176.355 353.428 176.61 353.416 176.819 353.393C176.726 353.333 176.624 353.247 176.513 353.136C176.401 353.02 176.297 352.885 176.2 352.732C176.107 352.574 176.026 352.398 175.956 352.203C175.891 352.004 175.857 351.786 175.852 351.55C175.847 351.489 175.845 351.429 175.845 351.369C175.845 351.179 175.87 350.968 175.921 350.736C175.977 350.499 176.065 350.258 176.186 350.012C176.311 349.766 176.462 349.537 176.638 349.323C176.814 349.106 177.009 348.918 177.222 348.76C177.436 348.598 177.665 348.472 177.911 348.384C178.129 348.306 178.354 348.266 178.586 348.266C178.614 348.266 178.639 348.266 178.662 348.266C179.038 348.28 179.386 348.377 179.706 348.558C180.03 348.734 180.311 348.964 180.548 349.247C180.784 349.53 180.97 349.852 181.104 350.214C181.239 350.571 181.306 350.937 181.306 351.313C181.306 351.675 181.239 352.025 181.104 352.363C180.974 352.697 180.805 353.01 180.596 353.303C180.819 353.34 181.06 353.37 181.32 353.393C181.584 353.416 181.835 353.428 182.071 353.428H182.259V355.209H182.12C181.763 355.209 181.417 355.202 181.083 355.188C180.754 355.179 180.443 355.153 180.151 355.111C179.859 355.07 179.585 355.012 179.33 354.937C179.08 354.859 178.857 354.752 178.662 354.617C178.523 354.719 178.324 354.808 178.064 354.882C177.809 354.956 177.521 355.016 177.201 355.063C176.881 355.114 176.543 355.151 176.186 355.174C175.833 355.197 175.49 355.209 175.156 355.209H175.017V353.428ZM178.641 350.026C178.521 350.049 178.382 350.098 178.224 350.172C178.071 350.242 177.925 350.341 177.786 350.471C177.651 350.597 177.535 350.752 177.438 350.937C177.345 351.123 177.299 351.343 177.299 351.598C177.299 351.682 177.338 351.791 177.417 351.925C177.496 352.055 177.6 352.187 177.73 352.322C177.86 352.452 178.008 352.574 178.175 352.69C178.342 352.802 178.514 352.881 178.69 352.927C178.829 352.857 178.964 352.767 179.094 352.656C179.228 352.544 179.346 352.424 179.448 352.294C179.55 352.159 179.632 352.023 179.692 351.883C179.757 351.74 179.789 351.603 179.789 351.473C179.789 351.292 179.75 351.121 179.671 350.958C179.597 350.791 179.502 350.643 179.386 350.513C179.27 350.383 179.145 350.277 179.01 350.193C178.88 350.105 178.757 350.049 178.641 350.026ZM178.468 346.04L177.285 347.223L176.088 346.033L177.271 344.843L178.468 346.04ZM181.097 346.047L179.915 347.237L178.718 346.04L179.901 344.857L181.097 346.047ZM182.153 353.428C182.64 353.428 183.108 353.414 183.558 353.386C184.008 353.354 184.418 353.31 184.789 353.254C185.16 353.198 185.48 353.131 185.749 353.052C186.018 352.973 186.22 352.885 186.355 352.788H185.645C185.237 352.788 184.847 352.737 184.476 352.635C184.11 352.528 183.788 352.37 183.509 352.162C183.231 351.953 183.008 351.693 182.842 351.383C182.679 351.067 182.598 350.701 182.598 350.283C182.598 350.038 182.624 349.785 182.675 349.525C182.726 349.266 182.802 349.013 182.904 348.767C183.006 348.521 183.129 348.289 183.273 348.071C183.417 347.853 183.581 347.663 183.767 347.501C183.952 347.334 184.156 347.204 184.379 347.111C184.602 347.014 184.843 346.965 185.102 346.965C185.422 346.965 185.722 347.032 186 347.167C186.278 347.301 186.531 347.485 186.758 347.717C186.985 347.944 187.187 348.208 187.363 348.51C187.539 348.811 187.688 349.129 187.808 349.463C187.929 349.797 188.019 350.137 188.08 350.485C188.145 350.828 188.177 351.155 188.177 351.466C188.177 351.995 188.103 352.454 187.955 352.843C187.811 353.233 187.607 353.567 187.342 353.845C187.083 354.123 186.77 354.351 186.403 354.527C186.042 354.703 185.64 354.842 185.2 354.944C184.759 355.046 184.286 355.116 183.781 355.153C183.28 355.19 182.76 355.209 182.222 355.209H181.986V353.428H182.153ZM185.102 348.76C185.079 348.755 185.056 348.753 185.033 348.753C184.94 348.753 184.833 348.79 184.713 348.864C184.592 348.939 184.476 349.045 184.365 349.184C184.254 349.323 184.163 349.481 184.094 349.657C184.024 349.829 183.989 349.998 183.989 350.165C183.989 350.174 183.989 350.184 183.989 350.193C183.989 350.36 184.026 350.497 184.101 350.603C184.175 350.706 184.275 350.784 184.4 350.84C184.53 350.896 184.678 350.935 184.845 350.958C185.017 350.981 185.197 350.998 185.388 351.007C185.513 351.012 185.643 351.014 185.777 351.014C185.842 351.014 185.942 351.014 186.076 351.014C186.215 351.009 186.357 351.002 186.501 350.993C186.459 350.826 186.399 350.62 186.32 350.374C186.246 350.123 186.151 349.882 186.035 349.65C185.923 349.414 185.789 349.21 185.631 349.038C185.478 348.867 185.302 348.774 185.102 348.76ZM186.382 344.704L185.047 346.04L183.718 344.704L185.047 343.376L186.382 344.704ZM191.414 344.141C191.53 345.027 191.612 345.873 191.658 346.68C191.704 347.482 191.732 348.268 191.741 349.038C191.751 349.692 191.753 350.297 191.748 350.854C191.748 351.41 191.744 351.93 191.734 352.412C191.725 352.89 191.711 353.337 191.693 353.755C191.674 354.168 191.656 354.555 191.637 354.917L189.814 355.195C189.912 353.664 189.961 352.312 189.961 351.139C189.961 350.666 189.954 350.223 189.94 349.81C189.903 348.86 189.861 347.967 189.814 347.132C189.768 346.293 189.705 345.49 189.627 344.725L191.414 344.141ZM203.04 359.744C202.242 359.744 201.504 359.645 200.827 359.445C200.15 359.25 199.573 358.954 199.095 358.555C198.618 358.161 198.258 357.664 198.017 357.066C197.822 356.598 197.725 356.067 197.725 355.473C197.725 355.315 197.732 355.153 197.746 354.986C197.773 354.666 197.811 354.339 197.857 354.005C197.908 353.671 197.975 353.321 198.059 352.955C198.147 352.584 198.258 352.192 198.393 351.779C198.527 351.366 198.694 350.921 198.893 350.443L200.326 351.104C200.136 351.577 199.979 352.016 199.853 352.419C199.728 352.818 199.629 353.189 199.554 353.532C199.485 353.875 199.436 354.198 199.408 354.499C199.38 354.801 199.366 355.09 199.366 355.369C199.366 355.703 199.408 356.002 199.492 356.266C199.58 356.53 199.691 356.767 199.826 356.976C200.006 357.221 200.234 357.409 200.507 357.539C200.781 357.674 201.069 357.771 201.37 357.831C201.676 357.892 201.975 357.926 202.267 357.936C202.564 357.95 202.822 357.957 203.04 357.957C203.169 357.957 203.357 357.947 203.603 357.929C203.853 357.91 204.125 357.878 204.417 357.831C204.714 357.785 205.018 357.725 205.328 357.65C205.639 357.576 205.92 357.483 206.17 357.372C206.425 357.261 206.631 357.131 206.789 356.983C206.951 356.834 207.033 356.66 207.033 356.461C207.033 356.428 206.991 356.377 206.907 356.308C206.829 356.243 206.717 356.169 206.573 356.085C206.434 356.002 206.27 355.914 206.08 355.821C205.889 355.733 205.685 355.647 205.467 355.563C205.147 355.457 204.83 355.378 204.514 355.327C204.199 355.276 203.886 355.223 203.575 355.167L203.812 353.428H209.335V355.209H208.034C208.22 355.436 208.343 355.659 208.403 355.877C208.468 356.099 208.503 356.294 208.507 356.461C208.489 356.869 208.384 357.233 208.194 357.553C208.004 357.878 207.758 358.161 207.457 358.402C207.16 358.648 206.822 358.854 206.441 359.021C206.061 359.192 205.671 359.332 205.273 359.438C204.874 359.545 204.48 359.621 204.09 359.668C203.705 359.719 203.355 359.744 203.04 359.744ZM209.342 353.428C209.597 353.428 209.825 353.372 210.024 353.261C210.228 353.15 210.407 353.001 210.56 352.816C210.717 352.63 210.854 352.419 210.97 352.183C211.091 351.946 211.195 351.703 211.283 351.452C211.371 351.202 211.448 350.956 211.513 350.715C211.578 350.469 211.636 350.249 211.687 350.054L213.426 350.437C213.384 350.566 213.328 350.733 213.259 350.937C213.189 351.137 213.122 351.35 213.057 351.577C212.997 351.8 212.946 352.025 212.904 352.252C212.872 352.424 212.855 352.584 212.855 352.732C212.855 352.779 212.86 352.86 212.869 352.976C212.878 353.092 212.925 353.208 213.008 353.323C213.096 353.435 213.238 353.49 213.433 353.49C213.641 353.49 213.829 353.432 213.996 353.317C214.163 353.196 214.312 353.041 214.441 352.85C214.576 352.656 214.692 352.435 214.789 352.19C214.891 351.944 214.977 351.693 215.047 351.438C215.121 351.179 215.181 350.926 215.227 350.68C215.278 350.434 215.318 350.214 215.346 350.019L216.974 350.332C216.96 350.443 216.939 350.576 216.911 350.729C216.888 350.882 216.862 351.049 216.834 351.23C216.807 351.406 216.779 351.591 216.751 351.786C216.728 351.981 216.709 352.176 216.695 352.37C216.695 352.408 216.695 352.445 216.695 352.482C216.695 352.593 216.707 352.709 216.73 352.83C216.753 352.946 216.802 353.057 216.876 353.163C216.95 353.266 217.048 353.349 217.168 353.414C217.289 353.474 217.437 353.507 217.614 353.511C217.943 353.511 218.212 353.428 218.421 353.261C218.629 353.094 218.734 352.839 218.734 352.496C218.734 352.245 218.699 351.974 218.629 351.682C218.564 351.39 218.483 351.104 218.386 350.826C218.293 350.548 218.193 350.286 218.087 350.04C217.98 349.794 217.887 349.59 217.808 349.428L219.304 348.593C219.332 348.644 219.376 348.737 219.436 348.871C219.501 349.006 219.573 349.173 219.652 349.372C219.735 349.567 219.819 349.787 219.902 350.033C219.986 350.279 220.062 350.539 220.132 350.812C220.206 351.081 220.264 351.357 220.306 351.64C220.352 351.923 220.375 352.201 220.375 352.475C220.375 352.906 220.308 353.296 220.174 353.643C220.044 353.991 219.849 354.288 219.589 354.534C219.334 354.78 219.019 354.968 218.643 355.097C218.281 355.227 217.866 355.292 217.398 355.292C217.384 355.292 217.368 355.292 217.349 355.292C217.331 355.292 217.314 355.292 217.301 355.292C217.083 355.292 216.883 355.262 216.702 355.202C216.521 355.146 216.354 355.067 216.201 354.965C216.053 354.859 215.918 354.738 215.798 354.603C215.682 354.469 215.578 354.332 215.485 354.193C215.378 354.346 215.262 354.49 215.137 354.624C215.012 354.754 214.866 354.868 214.699 354.965C214.536 355.063 214.351 355.139 214.142 355.195C213.938 355.255 213.702 355.288 213.433 355.292C213.419 355.292 213.403 355.292 213.384 355.292C213.175 355.292 212.981 355.264 212.8 355.209C212.623 355.153 212.459 355.077 212.306 354.979C212.157 354.877 212.021 354.759 211.895 354.624C211.775 354.49 211.663 354.348 211.561 354.2C211.473 354.33 211.367 354.455 211.241 354.576C211.121 354.696 210.97 354.805 210.789 354.903C210.613 354.995 210.404 355.07 210.163 355.125C209.922 355.181 209.639 355.209 209.314 355.209H209.064V353.428H209.342ZM224.602 350.583C224.695 350.875 224.79 351.181 224.887 351.501C224.989 351.816 225.08 352.136 225.159 352.461C225.242 352.786 225.309 353.11 225.36 353.435C225.411 353.755 225.437 354.068 225.437 354.374C225.437 354.791 225.372 355.197 225.242 355.591C225.117 355.99 224.941 356.373 224.714 356.739C224.491 357.11 224.224 357.463 223.914 357.797C223.607 358.13 223.274 358.446 222.912 358.743C222.55 359.039 222.167 359.315 221.764 359.57C221.36 359.826 220.952 360.055 220.54 360.259L219.747 358.666C220.076 358.504 220.4 358.323 220.72 358.123C221.04 357.929 221.344 357.72 221.632 357.497C221.924 357.275 222.193 357.041 222.439 356.795C222.689 356.549 222.902 356.294 223.079 356.03C223.26 355.765 223.401 355.494 223.503 355.216C223.605 354.937 223.656 354.657 223.656 354.374C223.656 354.11 223.626 353.831 223.566 353.539C223.505 353.247 223.431 352.959 223.343 352.677C223.26 352.389 223.171 352.113 223.079 351.849C222.991 351.584 222.916 351.35 222.856 351.146L224.602 350.583ZM230.355 355.209H230.077C229.135 355.209 228.421 354.972 227.934 354.499C227.447 354.026 227.201 353.312 227.197 352.357C227.197 352.208 227.201 351.965 227.211 351.626C227.22 351.283 227.225 350.866 227.225 350.374C227.225 350.082 227.222 349.769 227.218 349.435C227.213 349.096 227.206 348.753 227.197 348.405C227.187 348.053 227.174 347.703 227.155 347.355C227.141 347.002 227.123 346.664 227.099 346.339C227.076 346.01 227.048 345.704 227.016 345.421C226.983 345.133 226.946 344.881 226.905 344.663L228.651 344.141C228.702 344.41 228.748 344.739 228.79 345.129C228.832 345.514 228.869 345.926 228.901 346.367C228.934 346.808 228.957 347.257 228.971 347.717C228.989 348.171 228.998 348.6 228.998 349.003C228.998 349.249 229.001 349.511 229.005 349.79C229.01 350.063 229.012 350.304 229.012 350.513C229.012 350.689 229.01 350.856 229.005 351.014C229.005 351.167 229.003 351.315 228.998 351.459C228.998 351.603 228.996 351.744 228.992 351.883C228.992 352.023 228.992 352.164 228.992 352.308C228.992 352.345 228.992 352.382 228.992 352.419C228.992 352.586 229.008 352.734 229.04 352.864C229.077 352.994 229.14 353.103 229.228 353.191C229.316 353.275 229.427 353.335 229.562 353.372C229.701 353.409 229.861 353.428 230.042 353.428H230.355V355.209ZM230.247 353.428C230.734 353.428 231.202 353.414 231.652 353.386C232.102 353.354 232.512 353.31 232.883 353.254C233.254 353.198 233.574 353.131 233.843 353.052C234.112 352.973 234.314 352.885 234.448 352.788H233.739C233.331 352.788 232.941 352.737 232.57 352.635C232.204 352.528 231.881 352.37 231.603 352.162C231.325 351.953 231.102 351.693 230.935 351.383C230.773 351.067 230.692 350.701 230.692 350.283C230.692 350.038 230.717 349.785 230.768 349.525C230.819 349.266 230.896 349.013 230.998 348.767C231.1 348.521 231.223 348.289 231.367 348.071C231.51 347.853 231.675 347.663 231.86 347.501C232.046 347.334 232.25 347.204 232.473 347.111C232.695 347.014 232.936 346.965 233.196 346.965C233.516 346.965 233.815 347.032 234.094 347.167C234.372 347.301 234.625 347.485 234.852 347.717C235.079 347.944 235.281 348.208 235.457 348.51C235.633 348.811 235.782 349.129 235.902 349.463C236.023 349.797 236.113 350.137 236.174 350.485C236.238 350.828 236.271 351.155 236.271 351.466C236.271 351.995 236.197 352.454 236.048 352.843C235.905 353.233 235.7 353.567 235.436 353.845C235.176 354.123 234.863 354.351 234.497 354.527C234.135 354.703 233.734 354.842 233.294 354.944C232.853 355.046 232.38 355.116 231.874 355.153C231.374 355.19 230.854 355.209 230.316 355.209H230.08V353.428H230.247ZM233.196 348.76C233.173 348.755 233.15 348.753 233.127 348.753C233.034 348.753 232.927 348.79 232.807 348.864C232.686 348.939 232.57 349.045 232.459 349.184C232.347 349.323 232.257 349.481 232.187 349.657C232.118 349.829 232.083 349.998 232.083 350.165C232.083 350.174 232.083 350.184 232.083 350.193C232.083 350.36 232.12 350.497 232.194 350.603C232.269 350.706 232.368 350.784 232.494 350.84C232.623 350.896 232.772 350.935 232.939 350.958C233.11 350.981 233.291 350.998 233.481 351.007C233.607 351.012 233.736 351.014 233.871 351.014C233.936 351.014 234.036 351.014 234.17 351.014C234.309 351.009 234.451 351.002 234.594 350.993C234.553 350.826 234.492 350.62 234.414 350.374C234.339 350.123 234.244 349.882 234.128 349.65C234.017 349.414 233.883 349.21 233.725 349.038C233.572 348.867 233.396 348.774 233.196 348.76ZM234.476 344.704L233.14 346.04L231.812 344.704L233.14 343.376L234.476 344.704Z" fill="black"/>
</svg>
