<svg width="400" height="400" viewBox="0 0 400 400" fill="none" xmlns="http://www.w3.org/2000/svg">
<rect width="400" height="400" fill="white"/>
<path d="M161.666 43.0104C161.875 42.9641 162.088 42.9362 162.306 42.927C162.366 42.9223 162.427 42.92 162.487 42.92C162.64 42.92 162.807 42.9316 162.988 42.9548C163.173 42.978 163.368 43.022 163.572 43.087C163.781 43.1519 163.98 43.2354 164.17 43.3374L163.537 45.007C163.296 44.9003 163.046 44.8284 162.786 44.7913C162.675 44.7774 162.566 44.7704 162.459 44.7704C162.306 44.7704 162.153 44.7843 162 44.8122C161.842 44.8261 161.673 44.8725 161.492 44.9513C161.311 45.0301 161.13 45.1322 160.949 45.2574C160.773 45.378 160.602 45.5194 160.435 45.6817C160.272 45.8394 160.129 46.0087 160.003 46.1896C159.878 46.3658 159.776 46.549 159.697 46.7391C159.623 46.9246 159.586 47.1055 159.586 47.2817C159.586 47.4812 159.632 47.6388 159.725 47.7548C159.822 47.8661 159.95 47.9588 160.108 48.033C160.27 48.1026 160.455 48.1606 160.664 48.207C160.873 48.2487 161.091 48.2997 161.318 48.36C161.596 48.4249 161.877 48.4991 162.16 48.5826C162.443 48.6661 162.698 48.782 162.925 48.9304C163.152 49.0742 163.333 49.2643 163.468 49.5009C163.584 49.7096 163.642 49.967 163.642 50.273C163.642 50.3148 163.639 50.3588 163.635 50.4052C163.607 50.8922 163.495 51.3212 163.301 51.6922C163.106 52.0678 162.853 52.3925 162.542 52.6661C162.232 52.9397 161.877 53.167 161.478 53.3478C161.079 53.5333 160.662 53.6817 160.226 53.793C159.79 53.9043 159.349 53.9832 158.904 54.0296C158.459 54.0759 158.035 54.0991 157.631 54.0991C156.815 54.0991 156.068 53.9901 155.391 53.7722C154.719 53.5542 154.151 53.2296 153.687 52.7983C153.223 52.3716 152.887 51.8383 152.678 51.1983C152.539 50.7809 152.469 50.3194 152.469 49.8139C152.469 49.5449 152.488 49.2667 152.525 48.9791C152.562 48.673 152.613 48.3623 152.678 48.047C152.743 47.7316 152.813 47.4278 152.887 47.1357C152.961 46.8388 153.038 46.5583 153.116 46.2939C153.195 46.0296 153.267 45.7977 153.332 45.5983C153.397 45.3988 153.453 45.2365 153.499 45.1113C153.545 44.9861 153.573 44.9142 153.582 44.8957L155.113 45.5148C155.002 45.8626 154.9 46.1896 154.807 46.4957C154.714 46.7971 154.631 47.0939 154.556 47.3861C154.482 47.6783 154.415 47.9728 154.355 48.2696C154.299 48.5617 154.25 48.8725 154.209 49.2017C154.19 49.3548 154.181 49.5032 154.181 49.647C154.181 49.9762 154.243 50.3032 154.369 50.6278C154.498 50.9571 154.719 51.247 155.029 51.4974C155.345 51.7525 155.725 51.9426 156.17 52.0678C156.615 52.193 157.102 52.2557 157.631 52.2557C158.248 52.2557 158.821 52.207 159.349 52.1096C159.883 52.0168 160.344 51.8916 160.734 51.7339C161.128 51.5762 161.441 51.3977 161.673 51.1983C161.909 51.0035 162.042 50.8017 162.069 50.593C162.065 50.5513 162.021 50.5119 161.937 50.4748C161.854 50.4377 161.749 50.4006 161.624 50.3635C161.499 50.331 161.36 50.2962 161.207 50.2591C161.058 50.2267 160.915 50.1919 160.775 50.1548C160.386 50.0574 160.024 49.9461 159.69 49.8209C159.356 49.7003 159.067 49.5403 158.821 49.3409C158.575 49.1414 158.382 48.8887 158.243 48.5826C158.104 48.2765 158.035 47.8916 158.035 47.4278C158.058 46.9177 158.164 46.4214 158.355 45.9391C158.545 45.4568 158.8 45.0186 159.12 44.6243C159.444 44.2255 159.822 43.8846 160.254 43.6017C160.685 43.3188 161.156 43.1217 161.666 43.0104ZM170.949 49.2087H170.734C170.613 49.2087 170.46 49.1948 170.275 49.167C170.094 49.1391 169.894 49.0557 169.676 48.9165C169.616 49.5009 169.437 50.0597 169.141 50.593C168.844 51.131 168.47 51.6342 168.021 52.1026C167.575 52.571 167.072 53 166.511 53.3896C165.955 53.7791 165.382 54.12 164.793 54.4122L164.014 52.8052C164.338 52.6383 164.665 52.4574 164.995 52.2626C165.319 52.0678 165.63 51.8591 165.927 51.6365C166.224 51.4139 166.499 51.182 166.755 50.9409C167.014 50.6997 167.237 50.447 167.422 50.1826C167.613 49.9183 167.761 49.647 167.868 49.3687C167.979 49.0904 168.035 48.8052 168.035 48.513C168.035 48.3043 168.004 48.0748 167.944 47.8243C167.884 47.5693 167.807 47.3049 167.715 47.0313C167.622 46.7577 167.522 46.4817 167.415 46.2035C167.309 45.9206 167.211 45.647 167.123 45.3826L168.793 44.687C168.974 45.2296 169.138 45.6794 169.287 46.0365C169.44 46.389 169.588 46.6696 169.732 46.8783C169.88 47.0823 170.033 47.2261 170.191 47.3096C170.353 47.3884 170.537 47.4278 170.741 47.4278H170.956L170.949 49.2087ZM170.673 47.4278H172.155C172.373 47.4278 172.607 47.4162 172.858 47.393C173.113 47.3652 173.347 47.3119 173.56 47.233C173.778 47.1496 173.957 47.0313 174.096 46.8783C174.24 46.7252 174.312 46.5212 174.312 46.2661C174.312 46.1455 174.286 45.9762 174.235 45.7583C174.184 45.5403 174.117 45.2991 174.033 45.0348C173.95 44.7704 173.85 44.4968 173.734 44.2139C173.623 43.931 173.505 43.6667 173.379 43.4209L174.986 42.6278C175.102 42.8922 175.218 43.1728 175.334 43.4696C175.45 43.7664 175.552 44.0725 175.64 44.3878C175.733 44.6986 175.807 45.0116 175.863 45.327C175.919 45.6423 175.946 45.9507 175.946 46.2522C175.946 46.7901 175.847 47.247 175.647 47.6226C175.448 47.9983 175.174 48.3043 174.826 48.5409C174.483 48.7728 174.08 48.942 173.616 49.0487C173.157 49.1554 172.665 49.2087 172.141 49.2087H170.673V47.4278ZM173.261 51.2678L172.079 52.4504L170.882 51.2609L172.065 50.0713L173.261 51.2678ZM175.891 51.2748L174.708 52.4643L173.512 51.2678L174.694 50.0852L175.891 51.2748ZM181.555 44.5826C181.648 44.8748 181.743 45.1809 181.841 45.5009C181.943 45.8162 182.033 46.1362 182.112 46.4609C182.195 46.7855 182.263 47.1101 182.314 47.4348C182.365 47.7548 182.39 48.0678 182.39 48.3739C182.39 48.7913 182.325 49.1971 182.195 49.5913C182.07 49.9901 181.894 50.3728 181.667 50.7391C181.444 51.1101 181.177 51.4626 180.867 51.7965C180.561 52.1304 180.227 52.4458 179.865 52.7426C179.503 53.0394 179.121 53.3154 178.717 53.5704C178.314 53.8255 177.905 54.0551 177.493 54.2591L176.7 52.6661C177.029 52.5038 177.354 52.3229 177.674 52.1235C177.994 51.9287 178.297 51.72 178.585 51.4974C178.877 51.2748 179.146 51.0406 179.392 50.7948C179.642 50.549 179.856 50.2939 180.032 50.0296C180.213 49.7652 180.354 49.4939 180.456 49.2157C180.558 48.9374 180.609 48.6568 180.609 48.3739C180.609 48.1096 180.579 47.8313 180.519 47.5391C180.459 47.247 180.384 46.9594 180.296 46.6765C180.213 46.389 180.125 46.113 180.032 45.8487C179.944 45.5843 179.87 45.3501 179.809 45.1461L181.555 44.5826ZM181.771 41.6191L180.435 42.9548L179.107 41.6191L180.435 40.2904L181.771 41.6191ZM186.432 44.687C186.311 44.687 186.181 44.738 186.042 44.84C185.903 44.942 185.775 45.0742 185.659 45.2365C185.543 45.3942 185.446 45.5704 185.367 45.7652C185.293 45.96 185.256 46.1501 185.256 46.3357C185.256 46.5304 185.3 46.6928 185.388 46.8226C185.481 46.9478 185.597 47.0499 185.736 47.1287C185.88 47.2075 186.04 47.2678 186.216 47.3096C186.397 47.3467 186.575 47.3745 186.752 47.393C186.849 47.3977 186.956 47.4023 187.072 47.407C187.188 47.4116 187.306 47.4162 187.426 47.4209C187.552 47.4209 187.675 47.4232 187.795 47.4278C187.916 47.4278 188.029 47.4278 188.136 47.4278C188.122 47.2562 188.087 47.0707 188.032 46.8713C187.981 46.6672 187.913 46.4632 187.83 46.2591C187.746 46.0551 187.651 45.8603 187.545 45.6748C187.438 45.4846 187.322 45.3177 187.197 45.1739C187.076 45.0255 186.951 44.9072 186.821 44.8191C186.691 44.731 186.561 44.687 186.432 44.687ZM183.273 52.3391C183.955 52.2046 184.57 52.0238 185.117 51.7965C185.669 51.5739 186.146 51.3235 186.55 51.0452C186.953 50.767 187.28 50.4701 187.531 50.1548C187.786 49.8394 187.955 49.5241 188.039 49.2087C187.663 49.2087 187.297 49.1971 186.939 49.1739C186.582 49.1507 186.244 49.1043 185.924 49.0348C185.608 48.9699 185.316 48.8771 185.047 48.7565C184.783 48.6313 184.553 48.469 184.359 48.2696C184.168 48.0655 184.02 47.8197 183.913 47.5322C183.807 47.2446 183.753 46.9014 183.753 46.5026C183.753 46.2475 183.781 45.9809 183.837 45.7026C183.892 45.4243 183.971 45.153 184.073 44.8887C184.18 44.6197 184.31 44.367 184.463 44.1304C184.616 43.8893 184.792 43.6783 184.992 43.4974C185.191 43.3119 185.411 43.1658 185.652 43.0591C185.894 42.9525 186.153 42.8991 186.432 42.8991C187.15 42.8991 187.807 43.2191 188.4 43.8591C188.614 44.0957 188.804 44.3646 188.971 44.6661C189.142 44.9629 189.286 45.2829 189.402 45.6261C189.523 45.9646 189.613 46.3194 189.673 46.6904C189.738 47.0614 189.771 47.4371 189.771 47.8174C189.771 48.411 189.694 48.9652 189.541 49.48C189.393 49.9994 189.182 50.4771 188.908 50.913C188.639 51.349 188.317 51.7409 187.941 52.0887C187.566 52.4412 187.153 52.7496 186.703 53.0139C186.253 53.2783 185.773 53.4986 185.263 53.6748C184.753 53.8557 184.229 53.9901 183.691 54.0783L183.273 52.3391ZM194.112 48.2348C193.867 48.2348 193.619 48.2186 193.368 48.1861C193.122 48.1536 192.886 48.1003 192.659 48.0261C192.431 47.9519 192.218 47.8591 192.019 47.7478C191.824 47.6319 191.652 47.4928 191.504 47.3304C191.36 47.1681 191.246 46.9803 191.163 46.767C191.079 46.5536 191.038 46.3125 191.038 46.0435C191.038 45.7559 191.089 45.4823 191.191 45.2226C191.293 44.9629 191.43 44.7194 191.601 44.4922C191.773 44.2649 191.972 44.0539 192.199 43.8591C192.427 43.6643 192.666 43.4881 192.916 43.3304C193.166 43.1681 193.419 43.0243 193.674 42.8991C193.934 42.7693 194.18 42.658 194.412 42.5652L194.321 41.5078L196.081 41.1322C196.086 41.1739 196.095 41.2667 196.109 41.4104C196.123 41.5496 196.139 41.7165 196.158 41.9113C196.181 42.1061 196.204 42.3148 196.227 42.5374C196.25 42.7554 196.271 42.9617 196.29 43.1565C196.313 43.3467 196.332 43.5136 196.346 43.6574C196.359 43.7965 196.369 43.8823 196.373 43.9148C196.443 44.5084 196.506 44.993 196.561 45.3687C196.621 45.7443 196.672 46.0435 196.714 46.2661C196.756 46.4841 196.791 46.6394 196.819 46.7322C196.851 46.8203 196.874 46.8783 196.888 46.9061C196.935 47.0081 196.988 47.0939 197.048 47.1635C197.108 47.2284 197.178 47.2817 197.257 47.3235C197.336 47.3606 197.428 47.3884 197.535 47.407C197.642 47.4209 197.767 47.4278 197.911 47.4278H198.05V49.2087H197.911C197.665 49.2041 197.433 49.1948 197.215 49.1809C197.002 49.1716 196.795 49.1322 196.596 49.0626C196.401 48.9977 196.216 48.8933 196.039 48.7496C195.863 48.6058 195.696 48.3971 195.539 48.1235C195.274 48.1606 195.026 48.1884 194.794 48.207C194.562 48.2255 194.335 48.2348 194.112 48.2348ZM194.919 46.4052C194.896 46.28 194.873 46.1316 194.85 45.96C194.827 45.7884 194.803 45.6029 194.78 45.4035C194.757 45.1994 194.732 44.9884 194.704 44.7704C194.681 44.5525 194.655 44.3345 194.627 44.1165C194.507 44.1675 194.372 44.2325 194.224 44.3113C194.075 44.3901 193.922 44.4783 193.765 44.5757C193.607 44.673 193.452 44.7797 193.299 44.8957C193.15 45.007 193.018 45.1229 192.902 45.2435C192.786 45.3594 192.691 45.4777 192.617 45.5983C192.547 45.7188 192.512 45.8348 192.512 45.9461C192.512 46.0481 192.563 46.1339 192.666 46.2035C192.768 46.2684 192.895 46.3217 193.048 46.3635C193.206 46.4006 193.375 46.4284 193.556 46.447C193.737 46.4609 193.908 46.4678 194.071 46.4678C194.219 46.4678 194.368 46.4632 194.516 46.4539C194.664 46.44 194.799 46.4238 194.919 46.4052ZM201.252 46.4887C201.405 46.5536 201.602 46.6348 201.844 46.7322C202.085 46.8296 202.345 46.927 202.623 47.0243C202.901 47.1217 203.182 47.2099 203.465 47.2887C203.752 47.3629 204.014 47.4093 204.251 47.4278C204.204 47.233 204.156 47.0313 204.105 46.8226C204.058 46.6093 204.005 46.4029 203.945 46.2035C203.884 46.0041 203.817 45.8162 203.743 45.64C203.669 45.4591 203.58 45.3014 203.478 45.167C203.381 45.0325 203.267 44.9258 203.138 44.847C203.008 44.7681 202.862 44.7287 202.699 44.7287C202.514 44.7287 202.347 44.789 202.198 44.9096C202.055 45.0301 201.922 45.1809 201.802 45.3617C201.686 45.538 201.582 45.7281 201.489 45.9322C201.401 46.1362 201.322 46.3217 201.252 46.4887ZM203.896 49.1878C203.655 49.1832 203.372 49.1484 203.047 49.0835C202.722 49.0232 202.391 48.942 202.052 48.84C201.718 48.738 201.396 48.622 201.085 48.4922C200.779 48.3623 200.52 48.2255 200.306 48.0817C200.125 48.2626 199.949 48.4226 199.778 48.5617C199.606 48.7009 199.427 48.8191 199.242 48.9165C199.056 49.0093 198.855 49.0812 198.637 49.1322C198.423 49.1832 198.18 49.2087 197.906 49.2087H197.767V47.4278H197.906C198.245 47.4278 198.528 47.3652 198.755 47.24C198.982 47.1101 199.177 46.9432 199.339 46.7391C199.502 46.5351 199.643 46.3055 199.764 46.0504C199.889 45.7954 200.016 45.5403 200.146 45.2852C200.276 45.0162 200.425 44.7472 200.591 44.4783C200.758 44.2093 200.946 43.9681 201.155 43.7548C201.368 43.5368 201.607 43.3606 201.871 43.2261C202.136 43.0916 202.433 43.0243 202.762 43.0243C203.193 43.0243 203.555 43.1009 203.847 43.2539C204.144 43.4023 204.39 43.6087 204.585 43.873C204.784 44.1328 204.942 44.4388 205.058 44.7913C205.173 45.1438 205.271 45.5241 205.35 45.9322C205.396 46.1687 205.44 46.3797 205.482 46.5652C205.524 46.7461 205.57 46.9014 205.621 47.0313C205.677 47.1612 205.735 47.2609 205.795 47.3304C205.86 47.3954 205.936 47.4278 206.025 47.4278H206.24V49.2087H205.976C205.721 49.2041 205.493 49.1345 205.294 49C205.099 48.8609 204.918 48.6777 204.751 48.4504C204.7 48.4968 204.64 48.5594 204.571 48.6383C204.506 48.7171 204.434 48.7959 204.355 48.8748C204.281 48.949 204.204 49.0162 204.125 49.0765C204.047 49.1368 203.97 49.1739 203.896 49.1878ZM212.16 47.4278V49.2087H212.021C211.571 49.2087 211.191 49.1368 210.88 48.993C210.569 48.8493 210.305 48.6638 210.087 48.4365C209.934 48.6313 209.707 48.782 209.405 48.8887C209.108 48.9907 208.777 49.0649 208.41 49.1113C208.044 49.1623 207.666 49.1901 207.276 49.1948C206.891 49.2041 206.537 49.2087 206.212 49.2087H205.955V47.4278H206.212C206.755 47.4278 207.211 47.3977 207.582 47.3374C207.953 47.2725 208.253 47.1797 208.48 47.0591C208.712 46.9386 208.879 46.7878 208.981 46.607C209.083 46.4214 209.134 46.2081 209.134 45.967C209.134 45.8093 209.104 45.6006 209.043 45.3409C208.983 45.0765 208.893 44.738 208.772 44.3252L210.483 43.8452C210.544 44.0493 210.59 44.2301 210.622 44.3878C210.66 44.5409 210.687 44.6962 210.706 44.8539C210.729 45.007 210.748 45.1739 210.762 45.3548C210.78 45.531 210.799 45.742 210.817 45.9878C210.831 46.1362 210.866 46.2962 210.922 46.4678C210.977 46.6348 211.054 46.7901 211.151 46.9339C211.253 47.073 211.376 47.1913 211.52 47.2887C211.664 47.3814 211.831 47.4278 212.021 47.4278H212.16ZM208.542 51.2678L207.36 52.4504L206.163 51.2609L207.346 50.0713L208.542 51.2678ZM211.172 51.2748L209.989 52.4643L208.793 51.2678L209.975 50.0852L211.172 51.2748ZM211.876 47.4278H212.996C213.214 47.4278 213.437 47.4162 213.664 47.393C213.896 47.3652 214.105 47.3119 214.29 47.233C214.476 47.1496 214.627 47.0313 214.743 46.8783C214.863 46.7252 214.923 46.5212 214.923 46.2661C214.923 46.1455 214.898 45.9762 214.847 45.7583C214.796 45.5403 214.729 45.2991 214.645 45.0348C214.562 44.7704 214.462 44.4968 214.346 44.2139C214.235 43.931 214.116 43.6667 213.991 43.4209L215.598 42.6278C215.714 42.8922 215.83 43.1728 215.946 43.4696C216.062 43.7664 216.164 44.0725 216.252 44.3878C216.345 44.6986 216.419 45.0116 216.475 45.327C216.53 45.6423 216.558 45.9507 216.558 46.2522C216.558 46.7716 216.47 47.2191 216.294 47.5948C216.118 47.9658 215.872 48.2719 215.556 48.513C215.241 48.7496 214.863 48.9235 214.423 49.0348C213.987 49.1507 213.507 49.2087 212.983 49.2087H211.876V47.4278ZM215.431 40.2696L214.096 41.6052L212.767 40.2696L214.096 38.9409L215.431 40.2696ZM226.579 52.8748C226.848 52.9212 227.12 52.9443 227.393 52.9443C227.463 52.9443 227.6 52.9397 227.804 52.9304C228.008 52.9212 228.27 52.8794 228.59 52.8052C228.91 52.731 229.216 52.6313 229.508 52.5061C229.805 52.3809 230.076 52.2371 230.322 52.0748L231.261 53.633C230.992 53.7954 230.714 53.9438 230.426 54.0783C230.143 54.2174 229.849 54.3357 229.543 54.433C229.241 54.5304 228.928 54.6046 228.604 54.6557C228.321 54.702 228.031 54.7252 227.734 54.7252C227.688 54.7252 227.639 54.7252 227.588 54.7252C227.152 54.7159 226.716 54.6696 226.28 54.5861C225.849 54.5026 225.436 54.382 225.042 54.2243C224.652 54.0667 224.288 53.8696 223.95 53.633C223.616 53.4012 223.324 53.1299 223.073 52.8191C222.827 52.513 222.633 52.1675 222.489 51.7826C222.345 51.4023 222.271 50.9803 222.266 50.5165C222.28 50.0203 222.373 49.5565 222.545 49.1252C222.716 48.6986 222.943 48.309 223.226 47.9565C223.514 47.5994 223.843 47.2817 224.214 47.0035C224.59 46.7252 224.986 46.4864 225.404 46.287C225.255 46.1478 225.102 46.011 224.945 45.8765C224.791 45.7374 224.643 45.6075 224.499 45.487C224.356 45.3617 224.221 45.2481 224.096 45.1461C223.971 45.0394 223.866 44.949 223.783 44.8748L223.651 43.3861C224.258 42.8574 224.912 42.4609 225.612 42.1965C226.317 41.9275 227.052 41.793 227.818 41.793C228.045 41.793 228.279 41.8093 228.52 41.8417C228.766 41.8742 229.005 41.9252 229.237 41.9948C229.469 42.0643 229.687 42.1548 229.891 42.2661C230.095 42.3774 230.273 42.5142 230.426 42.6765C230.579 42.8342 230.7 43.0174 230.788 43.2261C230.867 43.4301 230.906 43.6574 230.906 43.9078C230.906 43.9217 230.906 43.9357 230.906 43.9496C230.888 44.302 230.818 44.6174 230.698 44.8957C230.582 45.1739 230.429 45.4243 230.238 45.647C230.048 45.8696 229.828 46.069 229.578 46.2452C229.332 46.4214 229.07 46.5838 228.791 46.7322C229.167 46.9409 229.566 47.1101 229.988 47.24C230.415 47.3652 230.83 47.4278 231.233 47.4278H231.47V49.2087H231.233C230.848 49.2087 230.475 49.1693 230.113 49.0904C229.751 49.0116 229.394 48.9003 229.042 48.7565C228.689 48.6081 228.339 48.4342 227.991 48.2348C227.644 48.0307 227.294 47.8058 226.941 47.56C226.603 47.6945 226.259 47.8522 225.911 48.033C225.564 48.2093 225.246 48.418 224.958 48.6591C224.676 48.8957 224.444 49.1646 224.263 49.4661C224.082 49.7675 223.991 50.1084 223.991 50.4887C223.991 50.702 224.033 50.9061 224.117 51.1009C224.205 51.2957 224.318 51.4765 224.458 51.6435C224.597 51.8151 224.757 51.9704 224.938 52.1096C225.118 52.2533 225.304 52.3762 225.494 52.4783C225.689 52.5849 225.879 52.6707 226.065 52.7357C226.255 52.8052 226.426 52.8516 226.579 52.8748ZM227.825 43.4904C227.639 43.4904 227.444 43.5043 227.24 43.5322C227.036 43.5554 226.834 43.5901 226.635 43.6365C226.436 43.6783 226.243 43.7316 226.058 43.7965C225.877 43.8568 225.717 43.9241 225.578 43.9983C225.675 44.1003 225.784 44.2186 225.905 44.353C226.025 44.4829 226.153 44.6197 226.287 44.7635C226.426 44.9072 226.568 45.051 226.711 45.1948C226.855 45.3339 226.997 45.4638 227.136 45.5843C227.442 45.4545 227.727 45.3223 227.991 45.1878C228.256 45.0533 228.485 44.9165 228.68 44.7774C228.88 44.6336 229.037 44.4852 229.153 44.3322C229.269 44.1791 229.329 44.0214 229.334 43.8591C229.329 43.8406 229.299 43.8128 229.244 43.7757C229.188 43.7386 229.098 43.7014 228.972 43.6643C228.852 43.6226 228.696 43.5855 228.506 43.553C228.321 43.5206 228.094 43.4997 227.825 43.4904ZM231.189 47.4278H232.246L232.295 47.3374C232.374 47.1983 232.485 47.0151 232.629 46.7878C232.777 46.5559 232.963 46.2939 233.186 46.0017C233.227 45.7096 233.262 45.3409 233.29 44.8957C233.318 44.4504 233.334 43.9681 233.339 43.4487C233.339 43.1658 233.334 42.8759 233.325 42.5791C233.315 42.2777 233.297 41.9322 233.269 41.5426C233.241 41.153 233.202 40.6986 233.151 40.1791C233.104 39.6551 233.044 39.0313 232.97 38.3078L234.799 37.8348C234.92 38.7252 235.01 39.6388 235.071 40.5757C235.136 41.5125 235.168 42.44 235.168 43.3583V43.9217C235.419 43.7084 235.678 43.5043 235.947 43.3096C236.221 43.1148 236.504 42.9432 236.796 42.7948C237.093 42.6464 237.401 42.5281 237.721 42.44C238.041 42.3519 238.375 42.3078 238.723 42.3078C239.075 42.3078 239.409 42.3635 239.725 42.4748C240.04 42.5861 240.318 42.7484 240.559 42.9617C240.805 43.1704 241.007 43.4255 241.165 43.727C241.322 44.0284 241.42 44.367 241.457 44.7426C241.461 44.8122 241.464 44.8794 241.464 44.9443C241.464 45.4267 241.383 45.8765 241.22 46.2939C241.063 46.7113 240.828 47.0893 240.518 47.4278H242.479V49.2087H240.629C240.263 49.2087 239.855 49.1925 239.405 49.16C238.955 49.1275 238.456 49.0417 237.909 48.9026C237.515 49.0093 237.114 49.0858 236.706 49.1322C236.302 49.1832 235.896 49.2087 235.488 49.2087H231.189V47.4278ZM234.841 47.4278C235.124 47.4278 235.449 47.4209 235.815 47.407C236.186 47.393 236.566 47.3606 236.956 47.3096C237.346 47.2586 237.723 47.182 238.09 47.08C238.461 46.978 238.79 46.8412 239.078 46.6696C239.365 46.498 239.592 46.2823 239.759 46.0226C239.903 45.8 239.975 45.5357 239.975 45.2296C239.975 45.1878 239.973 45.1438 239.968 45.0974C239.959 44.9583 239.912 44.8284 239.829 44.7078C239.75 44.5872 239.639 44.4852 239.495 44.4017C239.356 44.3136 239.189 44.2441 238.994 44.193C238.827 44.1559 238.646 44.1374 238.452 44.1374C238.415 44.1374 238.375 44.1374 238.333 44.1374C238.101 44.1467 237.826 44.207 237.506 44.3183C237.186 44.4249 236.842 44.6058 236.476 44.8609C236.11 45.1159 235.729 45.4522 235.335 45.8696C234.941 46.287 234.556 46.8064 234.18 47.4278H234.841ZM242.372 47.4278C242.859 47.4278 243.327 47.4139 243.777 47.3861C244.227 47.3536 244.637 47.3096 245.008 47.2539C245.379 47.1983 245.699 47.131 245.968 47.0522C246.237 46.9733 246.439 46.8852 246.573 46.7878H245.864C245.456 46.7878 245.066 46.7368 244.695 46.6348C244.329 46.5281 244.006 46.3704 243.728 46.1617C243.45 45.953 243.227 45.6933 243.06 45.3826C242.898 45.0672 242.817 44.7009 242.817 44.2835C242.817 44.0377 242.842 43.7849 242.893 43.5252C242.944 43.2655 243.021 43.0128 243.123 42.767C243.225 42.5212 243.348 42.2893 243.492 42.0713C243.635 41.8533 243.8 41.6632 243.985 41.5009C244.171 41.3339 244.375 41.2041 244.598 41.1113C244.82 41.0139 245.061 40.9652 245.321 40.9652C245.641 40.9652 245.94 41.0325 246.219 41.167C246.497 41.3014 246.75 41.4846 246.977 41.7165C247.204 41.9438 247.406 42.2081 247.582 42.5096C247.758 42.811 247.907 43.1287 248.027 43.4626C248.148 43.7965 248.238 44.1374 248.299 44.4852C248.363 44.8284 248.396 45.1554 248.396 45.4661C248.396 45.9948 248.322 46.4539 248.173 46.8435C248.03 47.233 247.825 47.567 247.561 47.8452C247.301 48.1235 246.988 48.3507 246.622 48.527C246.26 48.7032 245.859 48.8423 245.419 48.9443C244.978 49.0464 244.505 49.1159 243.999 49.153C243.499 49.1901 242.979 49.2087 242.441 49.2087H242.205V47.4278H242.372ZM245.321 42.76C245.298 42.7554 245.275 42.753 245.252 42.753C245.159 42.753 245.052 42.7901 244.932 42.8643C244.811 42.9386 244.695 43.0452 244.584 43.1843C244.472 43.3235 244.382 43.4812 244.312 43.6574C244.243 43.829 244.208 43.9983 244.208 44.1652C244.208 44.1745 244.208 44.1838 244.208 44.193C244.208 44.36 244.245 44.4968 244.319 44.6035C244.394 44.7055 244.493 44.7843 244.619 44.84C244.748 44.8957 244.897 44.9351 245.064 44.9583C245.235 44.9814 245.416 44.9977 245.606 45.007C245.732 45.0116 245.861 45.0139 245.996 45.0139C246.061 45.0139 246.161 45.0139 246.295 45.0139C246.434 45.0093 246.576 45.0023 246.719 44.993C246.678 44.8261 246.617 44.6197 246.539 44.3739C246.464 44.1235 246.369 43.8823 246.253 43.6504C246.142 43.4139 246.008 43.2099 245.85 43.0383C245.697 42.8667 245.521 42.7739 245.321 42.76ZM245.154 38.8713L243.972 40.0539L242.775 38.8643L243.958 37.6748L245.154 38.8713ZM247.784 38.8783L246.601 40.0678L245.405 38.8713L246.587 37.6887L247.784 38.8783Z" fill="black"/>
<path d="M364.162 219.172L176.072 103.544L44.0781 191.54L231.943 317.718L364.162 229.572L364.162 219.172Z" fill="#E7E7E7" stroke="black"/>
<path d="M43.8371 180.697L43.8346 191.376L231.417 317.364L232.151 306.869L44.1934 180.519L43.8371 180.697Z" fill="#A3A3A3" stroke="black"/>
<rect x="-0.000955552" y="0.556128" width="158.615" height="226.305" transform="matrix(-0.83205 0.5547 0.830139 0.557556 175.591 92.2466)" fill="#E7E7E7" stroke="black"/>
<path d="M231.943 306.718L240.15 301.247L52.2852 175.069L44.078 180.54L231.943 306.718Z" fill="#A3A3A3" stroke="black"/>
<path d="M265.962 136.912C265.962 135.556 265.941 134.196 265.901 132.834C265.86 131.464 265.771 130.117 265.632 128.793C265.493 127.469 265.293 126.185 265.033 124.94C264.778 123.699 264.434 122.523 263.999 121.413L265.441 121.268C265.915 122.495 266.309 123.812 266.622 125.217C266.94 126.618 267.183 128.141 267.351 129.783C267.42 130.483 267.475 131.195 267.516 131.917C267.562 132.644 267.597 133.363 267.62 134.074C267.649 134.782 267.666 135.471 267.672 136.143C267.684 136.819 267.689 137.459 267.689 138.064L265.962 136.912ZM269.579 138.583C269.608 138.491 269.663 138.34 269.744 138.129C269.825 137.919 269.938 137.671 270.082 137.385C270.227 137.099 270.406 136.787 270.621 136.45C270.835 136.105 271.089 135.757 271.385 135.404C271.68 135.058 271.995 134.747 272.331 134.47C272.667 134.193 273.008 133.972 273.355 133.807C272.921 133.448 272.522 133.056 272.157 132.632C271.798 132.205 271.486 131.757 271.22 131.287C270.953 130.818 270.745 130.331 270.595 129.827C270.45 129.32 270.377 128.809 270.377 128.295C270.377 127.856 270.432 127.482 270.542 127.173C270.652 126.864 270.803 126.613 270.994 126.42C271.191 126.225 271.419 126.085 271.68 126.001C271.946 125.921 272.23 125.895 272.531 125.921C272.832 125.941 273.144 126.014 273.468 126.139C273.792 126.258 274.117 126.426 274.441 126.642C275.292 127.209 276.131 128.061 276.959 129.197L276.082 130.407C275.786 129.988 275.5 129.64 275.222 129.364C274.95 129.093 274.69 128.874 274.441 128.708C274.157 128.519 273.874 128.389 273.59 128.318C273.312 128.244 273.063 128.235 272.843 128.29C272.623 128.345 272.444 128.469 272.305 128.661C272.166 128.847 272.097 129.11 272.097 129.451C272.097 129.715 272.149 129.976 272.253 130.233C272.363 130.495 272.502 130.74 272.67 130.97C272.837 131.201 273.02 131.409 273.217 131.596C273.419 131.787 273.613 131.944 273.798 132.067L273.911 132.142C274.143 132.297 274.389 132.443 274.649 132.582C274.91 132.714 275.173 132.838 275.439 132.953C275.705 133.067 275.954 133.164 276.186 133.242C276.417 133.319 276.617 133.383 276.785 133.432C276.947 133.478 277.08 133.514 277.184 133.542C277.294 133.574 277.381 133.6 277.445 133.622L277.948 135.93L277.323 135.763C276.785 135.62 276.284 135.575 275.821 135.628C275.364 135.678 274.941 135.796 274.554 135.983C274.172 136.167 273.824 136.401 273.512 136.687C273.199 136.972 272.918 137.272 272.67 137.586C272.426 137.904 272.215 138.226 272.036 138.551C271.856 138.87 271.706 139.159 271.584 139.419C271.469 139.676 271.379 139.887 271.315 140.054C271.257 140.217 271.225 140.3 271.22 140.303L269.579 138.583ZM280.223 149.55L279.207 148.028C279.815 147.41 280.133 146.569 280.162 145.503V143.541L281.924 144.716V146.417C281.924 147.203 281.762 147.881 281.438 148.451C281.12 149.032 280.715 149.398 280.223 149.55ZM290.863 153.565C290.44 153.283 290.052 152.903 289.699 152.424C289.352 151.942 289.057 151.387 288.814 150.759L288.787 150.7C288.539 150.986 288.226 151.136 287.85 151.15C287.479 151.167 287.068 151.025 286.617 150.724C286.113 150.389 285.688 149.994 285.341 149.54C284.999 149.089 284.721 148.612 284.507 148.107C284.293 147.596 284.134 147.069 284.03 146.526C283.925 145.984 283.862 145.454 283.839 144.938C283.827 144.722 283.821 144.513 283.821 144.311C283.821 144.026 283.836 143.701 283.865 143.338C283.899 142.972 283.951 142.617 284.021 142.274C284.125 141.78 284.258 141.298 284.42 140.829C284.588 140.363 284.791 139.896 285.028 139.429C285.271 138.958 285.555 138.479 285.879 137.992C286.209 137.51 286.585 137.006 287.008 136.48L286.686 135.88L287.902 135.23C288.486 136.259 289.06 137.295 289.621 138.337C290.188 139.376 290.718 140.432 291.21 141.505C292.344 144 293.166 146.384 293.676 148.658C293.843 149.438 293.927 150.189 293.927 150.913C293.927 151.49 293.864 152.015 293.736 152.486C293.609 152.958 293.418 153.331 293.163 153.607C292.914 153.879 292.596 154.025 292.208 154.045C291.826 154.062 291.381 153.904 290.871 153.571L290.863 153.565ZM289.586 146.829C289.586 147.017 289.592 147.243 289.604 147.508C289.615 147.774 289.635 148.055 289.664 148.352C289.699 148.647 289.745 148.949 289.803 149.259C289.867 149.573 289.945 149.872 290.038 150.156C290.136 150.437 290.252 150.695 290.385 150.93C290.524 151.169 290.686 151.364 290.871 151.515C291.143 151.676 291.366 151.723 291.54 151.658C291.713 151.593 291.849 151.465 291.948 151.273C292.046 151.074 292.113 150.837 292.148 150.561C292.188 150.282 292.208 150.014 292.208 149.756C292.208 149.52 292.194 149.267 292.165 148.997C292.136 148.727 292.09 148.453 292.026 148.174C291.818 147.263 291.566 146.371 291.271 145.5C290.975 144.628 290.66 143.792 290.324 142.991C289.989 142.182 289.644 141.421 289.291 140.705C288.938 139.99 288.599 139.336 288.275 138.745C287.911 139.211 287.589 139.658 287.311 140.085C287.034 140.512 286.791 140.931 286.582 141.341C286.374 141.752 286.197 142.163 286.053 142.574C285.914 142.982 285.798 143.399 285.705 143.824C285.671 143.975 285.636 144.175 285.601 144.423C285.566 144.671 285.543 144.948 285.532 145.253C285.526 145.353 285.523 145.456 285.523 145.56C285.523 145.769 285.532 146.011 285.549 146.287C285.572 146.567 285.621 146.861 285.697 147.168C285.778 147.48 285.89 147.764 286.035 148.02C286.186 148.28 286.38 148.49 286.617 148.648C286.825 148.78 287.005 148.823 287.155 148.777C287.306 148.731 287.433 148.632 287.537 148.479C287.647 148.322 287.737 148.128 287.806 147.896C287.882 147.661 287.942 147.42 287.989 147.173C288.035 146.925 288.073 146.686 288.102 146.455C288.136 146.221 288.165 146.028 288.188 145.876L289.586 146.829Z" fill="black"/>
<path d="M97.0839 131.724C97.0839 130.367 97.0636 129.035 97.0231 127.726C96.9826 126.411 96.8929 125.183 96.754 124.045C96.6151 122.906 96.4154 121.888 96.1549 120.99C95.9002 120.089 95.5558 119.372 95.1217 118.841L96.563 116.774C97.0376 117.369 97.4312 118.16 97.7438 119.148C98.0621 120.126 98.3052 121.324 98.4731 122.742C98.5425 123.35 98.5975 123.988 98.638 124.657C98.6843 125.321 98.7191 125.994 98.7422 126.674C98.7712 127.343 98.7885 128.01 98.7943 128.674C98.8059 129.334 98.8117 129.967 98.8117 130.572L97.0839 131.724ZM108.341 108.692C108.341 108.706 108.35 108.77 108.367 108.883C108.385 108.99 108.402 109.138 108.419 109.329C108.437 109.512 108.451 109.725 108.463 109.968C108.469 110.138 108.472 110.313 108.472 110.494V110.765C108.448 112.388 108.133 113.829 107.525 115.09V115.08C106.935 116.329 106.133 117.291 105.12 117.966C104.842 118.152 104.591 118.299 104.365 118.407C104.145 118.505 103.925 118.575 103.705 118.618L103.774 119.145C103.844 119.753 103.899 120.391 103.939 121.06C103.986 121.717 104.02 122.387 104.044 123.067C104.073 123.736 104.09 124.406 104.096 125.077C104.107 125.737 104.113 126.37 104.113 126.975L102.385 128.127C102.385 127.021 102.377 125.928 102.359 124.847C102.342 123.759 102.296 122.726 102.22 121.747C102.145 120.76 102.032 119.848 101.882 119.009C101.737 118.159 101.534 117.425 101.274 116.805C101.152 116.511 101.022 116.239 100.883 115.991C100.744 115.743 100.588 115.496 100.414 115.25L101.864 113.177C101.957 113.296 102.041 113.424 102.116 113.562C102.197 113.689 102.275 113.828 102.351 113.98C102.432 114.121 102.513 114.275 102.594 114.444C102.675 114.612 102.764 114.793 102.863 114.984C102.996 115.264 103.126 115.511 103.254 115.726C103.387 115.929 103.537 116.083 103.705 116.186C103.879 116.286 104.075 116.322 104.295 116.294C104.521 116.254 104.796 116.127 105.12 115.911C105.601 115.59 105.962 115.172 106.205 114.655C106.315 114.429 106.405 114.191 106.475 113.943C106.544 113.688 106.599 113.433 106.64 113.176C106.686 112.916 106.718 112.658 106.735 112.403C106.752 112.148 106.761 111.905 106.761 111.676C106.761 111.377 106.747 111.098 106.718 110.839C106.695 110.576 106.669 110.364 106.64 110.202L108.341 108.692Z" fill="black"/>
<path d="M183.815 201.747C185.23 202.844 185.867 204.027 185.726 205.296C185.579 206.561 184.675 207.747 183.014 208.854C181.191 210.07 179.149 210.616 176.889 210.492C174.622 210.364 172.424 209.585 170.293 208.154L169.427 207.572C168.064 206.656 167.103 205.69 166.544 204.671C165.985 203.653 165.874 202.66 166.211 201.694C166.553 200.723 167.315 199.844 168.496 199.057C170.134 197.965 171.893 197.38 173.772 197.302C175.651 197.224 177.46 197.664 179.198 198.623L176.273 200.573C175.285 200.003 174.366 199.727 173.516 199.745C172.666 199.763 171.793 200.071 170.896 200.669C169.923 201.317 169.543 202.038 169.756 202.831C169.963 203.621 170.794 204.512 172.249 205.505L173.314 206.221C174.845 207.248 176.196 207.847 177.37 208.015C178.543 208.176 179.631 207.922 180.632 207.254C181.535 206.653 182.001 206.067 182.031 205.499C182.067 204.926 181.686 204.326 180.89 203.698L183.815 201.747ZM184.467 200.455C183.422 199.753 182.692 198.995 182.277 198.182C181.862 197.361 181.811 196.549 182.125 195.744C182.433 194.936 183.087 194.199 184.089 193.531C185.513 192.582 187.109 192.101 188.878 192.088C190.647 192.068 192.332 192.526 193.932 193.461L194.668 193.932C196.279 195.014 197.122 196.184 197.195 197.442C197.268 198.699 196.543 199.835 195.021 200.85C193.498 201.865 191.798 202.349 189.919 202.304C188.046 202.254 186.272 201.667 184.597 200.542L184.467 200.455ZM187.497 198.713C188.496 199.384 189.449 199.773 190.357 199.879C191.258 199.981 192.059 199.798 192.76 199.332C193.443 198.876 193.715 198.347 193.578 197.743C193.44 197.131 192.796 196.44 191.647 195.668C190.671 195.012 189.721 194.634 188.796 194.531C187.871 194.421 187.061 194.598 186.367 195.061C185.678 195.52 185.414 196.056 185.575 196.667C185.73 197.275 186.371 197.957 187.497 198.713ZM202.074 191.302L196.942 185.229L199.886 183.266L206.851 192.708L204.168 194.497L190.083 189.801L193.027 187.839L202.074 191.302ZM216.689 186.404C215.144 187.435 213.414 187.958 211.5 187.974C209.581 187.986 207.833 187.463 206.256 186.404L205.979 186.218C204.922 185.508 204.181 184.739 203.754 183.91C203.334 183.078 203.274 182.259 203.576 181.455C203.873 180.647 204.501 179.923 205.462 179.282C206.903 178.321 208.494 177.871 210.234 177.932C211.974 177.986 213.676 178.571 215.339 179.688L216.491 180.462L209.771 184.942C210.551 185.342 211.377 185.529 212.25 185.503C213.123 185.478 213.91 185.231 214.611 184.764C215.699 184.039 216.154 183.21 215.976 182.277L218.907 182.387C219.085 183.072 218.98 183.768 218.592 184.475C218.203 185.175 217.569 185.818 216.689 186.404ZM207.731 180.818C207.17 181.192 206.903 181.621 206.931 182.105C206.96 182.589 207.277 183.1 207.883 183.639L211.807 181.022L211.582 180.871C210.947 180.46 210.294 180.25 209.623 180.241C208.958 180.228 208.328 180.421 207.731 180.818ZM220.459 173.075C220.025 173.295 219.664 173.501 219.374 173.694C218.303 174.408 217.964 175.117 218.356 175.822L225.242 180.447L222.429 182.323L211.905 175.254L214.561 173.483L215.895 174.274C215.493 173.244 215.792 172.396 216.793 171.728C217.106 171.52 217.441 171.354 217.8 171.231L220.459 173.075Z" fill="black"/>
<path d="M190.706 85.1575C190.543 84.8539 190.543 84.5373 190.706 84.4504L193.353 83.0334C193.516 82.9465 193.779 83.1221 193.941 83.4257C194.104 83.7292 194.104 84.0458 193.941 84.1328L191.588 85.3923L193.941 89.7896C194.104 90.0932 194.104 90.4098 193.941 90.4967C193.779 90.5837 193.516 90.4081 193.353 90.1045L190.706 85.1575ZM245.083 121.556L191 85.5V84.5L245.083 120.556V121.556Z" fill="black"/>
<path d="M40.7057 164.613C40.5433 164.526 40.5433 164.209 40.7057 163.906L43.3533 158.959C43.5158 158.655 43.7792 158.48 43.9416 158.567C44.1041 158.653 44.1041 158.97 43.9416 159.274L41.5883 163.671L43.9416 164.93C44.1041 165.017 44.1041 165.334 43.9416 165.638C43.7792 165.941 43.5158 166.117 43.3533 166.03L40.7057 164.613ZM87.5947 133.5L40.9999 164.563V163.563L87.5947 132.5V133.5Z" fill="black"/>
<path d="M162.889 84.4503C163.051 84.5373 163.051 84.8539 162.889 85.1574L160.241 90.1045C160.079 90.408 159.815 90.5836 159.653 90.4967C159.491 90.4097 159.491 90.0932 159.653 89.7896L162.006 85.3922L159.653 84.1327C159.491 84.0458 159.491 83.7292 159.653 83.4256C159.815 83.1221 160.079 82.9464 160.241 83.0334L162.889 84.4503ZM162.595 85.5L116 116.563V115.563L162.595 84.5V85.5Z" fill="black"/>
<path d="M365.377 199.954C365.54 200.257 365.54 200.574 365.377 200.661L362.73 202.078C362.567 202.165 362.304 201.989 362.141 201.685C361.979 201.382 361.979 201.065 362.141 200.978L364.495 199.719L362.141 195.321C361.979 195.018 361.979 194.701 362.141 194.614C362.304 194.527 362.567 194.703 362.73 195.007L365.377 199.954ZM365.083 200.611L311 164.556V163.556L365.083 199.611V200.611Z" fill="black"/>
<path d="M158.736 349.01C158.945 348.964 159.158 348.936 159.376 348.927C159.437 348.922 159.497 348.92 159.557 348.92C159.71 348.92 159.877 348.932 160.058 348.955C160.243 348.978 160.438 349.022 160.642 349.087C160.851 349.152 161.05 349.235 161.241 349.337L160.608 351.007C160.366 350.9 160.116 350.828 159.856 350.791C159.745 350.777 159.636 350.77 159.529 350.77C159.376 350.77 159.223 350.784 159.07 350.812C158.912 350.826 158.743 350.872 158.562 350.951C158.381 351.03 158.201 351.132 158.02 351.257C157.843 351.378 157.672 351.519 157.505 351.682C157.343 351.839 157.199 352.009 157.074 352.19C156.948 352.366 156.846 352.549 156.768 352.739C156.693 352.925 156.656 353.106 156.656 353.282C156.656 353.481 156.703 353.639 156.795 353.755C156.893 353.866 157.02 353.959 157.178 354.033C157.34 354.103 157.526 354.161 157.734 354.207C157.943 354.249 158.161 354.3 158.388 354.36C158.667 354.425 158.947 354.499 159.23 354.583C159.513 354.666 159.768 354.782 159.995 354.93C160.223 355.074 160.403 355.264 160.538 355.501C160.654 355.71 160.712 355.967 160.712 356.273C160.712 356.315 160.71 356.359 160.705 356.405C160.677 356.892 160.566 357.321 160.371 357.692C160.176 358.068 159.923 358.392 159.613 358.666C159.302 358.94 158.947 359.167 158.548 359.348C158.15 359.533 157.732 359.682 157.296 359.793C156.86 359.904 156.42 359.983 155.974 360.03C155.529 360.076 155.105 360.099 154.701 360.099C153.885 360.099 153.139 359.99 152.461 359.772C151.789 359.554 151.221 359.23 150.757 358.798C150.293 358.372 149.957 357.838 149.748 357.198C149.609 356.781 149.54 356.319 149.54 355.814C149.54 355.545 149.558 355.267 149.595 354.979C149.632 354.673 149.683 354.362 149.748 354.047C149.813 353.732 149.883 353.428 149.957 353.136C150.031 352.839 150.108 352.558 150.187 352.294C150.266 352.03 150.337 351.798 150.402 351.598C150.467 351.399 150.523 351.237 150.569 351.111C150.616 350.986 150.643 350.914 150.653 350.896L152.183 351.515C152.072 351.863 151.97 352.19 151.877 352.496C151.784 352.797 151.701 353.094 151.627 353.386C151.552 353.678 151.485 353.973 151.425 354.27C151.369 354.562 151.321 354.872 151.279 355.202C151.26 355.355 151.251 355.503 151.251 355.647C151.251 355.976 151.314 356.303 151.439 356.628C151.569 356.957 151.789 357.247 152.1 357.497C152.415 357.752 152.795 357.943 153.241 358.068C153.686 358.193 154.173 358.256 154.701 358.256C155.318 358.256 155.891 358.207 156.42 358.11C156.953 358.017 157.414 357.892 157.804 357.734C158.198 357.576 158.511 357.398 158.743 357.198C158.98 357.003 159.112 356.802 159.14 356.593C159.135 356.551 159.091 356.512 159.008 356.475C158.924 356.438 158.82 356.401 158.694 356.363C158.569 356.331 158.43 356.296 158.277 356.259C158.129 356.227 157.985 356.192 157.846 356.155C157.456 356.057 157.094 355.946 156.761 355.821C156.427 355.7 156.137 355.54 155.891 355.341C155.645 355.141 155.453 354.889 155.314 354.583C155.174 354.277 155.105 353.892 155.105 353.428C155.128 352.918 155.235 352.421 155.425 351.939C155.615 351.457 155.87 351.019 156.19 350.624C156.515 350.226 156.893 349.885 157.324 349.602C157.755 349.319 158.226 349.122 158.736 349.01ZM162.697 352.475C162.874 352.586 163.085 352.7 163.33 352.816C163.581 352.932 163.838 353.036 164.103 353.129C164.372 353.221 164.634 353.298 164.889 353.358C165.148 353.419 165.376 353.449 165.57 353.449C165.649 353.449 165.747 353.446 165.863 353.442C165.979 353.437 166.101 353.428 166.231 353.414C166.361 353.395 166.491 353.37 166.621 353.337C166.751 353.3 166.867 353.252 166.969 353.191C167.075 353.126 167.161 353.048 167.226 352.955C167.291 352.857 167.326 352.739 167.33 352.6C167.33 352.591 167.33 352.584 167.33 352.579C167.33 352.394 167.277 352.185 167.17 351.953C167.068 351.717 166.927 351.471 166.746 351.216C166.565 350.956 166.357 350.696 166.12 350.437C165.883 350.177 165.638 349.929 165.383 349.692C165.128 349.451 164.87 349.231 164.61 349.031C164.355 348.827 164.117 348.656 163.894 348.517L164.93 346.979C165.357 347.271 165.777 347.601 166.19 347.967C166.607 348.333 166.99 348.725 167.337 349.143C167.69 349.555 167.994 349.987 168.249 350.437C168.508 350.886 168.694 351.341 168.805 351.8C168.865 352.064 168.896 352.317 168.896 352.558C168.896 352.79 168.852 353.068 168.763 353.393C168.68 353.718 168.488 354.038 168.186 354.353C167.885 354.664 167.502 354.903 167.038 355.07C166.639 355.213 166.201 355.285 165.723 355.285C165.645 355.285 165.563 355.283 165.48 355.278C165.174 355.278 164.863 355.248 164.548 355.188C164.232 355.132 163.922 355.053 163.616 354.951C163.314 354.849 163.022 354.733 162.739 354.603C162.461 354.469 162.201 354.328 161.96 354.179L162.697 352.475ZM169.797 358.339C170.479 358.205 171.093 358.024 171.64 357.797C172.192 357.574 172.67 357.323 173.073 357.045C173.477 356.767 173.804 356.47 174.054 356.155C174.309 355.839 174.479 355.524 174.562 355.209C174.186 355.209 173.82 355.197 173.463 355.174C173.106 355.151 172.767 355.104 172.447 355.035C172.132 354.97 171.84 354.877 171.571 354.757C171.306 354.631 171.077 354.469 170.882 354.27C170.692 354.066 170.543 353.82 170.437 353.532C170.33 353.245 170.277 352.901 170.277 352.503C170.277 352.248 170.305 351.981 170.36 351.703C170.416 351.424 170.495 351.153 170.597 350.889C170.703 350.62 170.833 350.367 170.986 350.13C171.139 349.889 171.316 349.678 171.515 349.497C171.714 349.312 171.935 349.166 172.176 349.059C172.417 348.952 172.677 348.899 172.955 348.899C173.674 348.899 174.33 349.219 174.924 349.859C175.119 350.077 175.295 350.321 175.452 350.59C175.61 350.859 175.747 351.146 175.863 351.452C175.979 351.758 176.072 352.078 176.141 352.412C176.215 352.741 176.262 353.08 176.28 353.428H176.746V355.209H176.134C175.976 355.895 175.71 356.512 175.334 357.059C174.959 357.611 174.506 358.091 173.978 358.499C173.454 358.907 172.869 359.243 172.225 359.508C171.58 359.772 170.91 359.962 170.214 360.078L169.797 358.339ZM172.955 350.687C172.834 350.687 172.705 350.738 172.565 350.84C172.426 350.942 172.299 351.074 172.183 351.237C172.067 351.394 171.97 351.57 171.891 351.765C171.816 351.96 171.779 352.15 171.779 352.336C171.779 352.53 171.823 352.693 171.912 352.823C172.004 352.952 172.12 353.057 172.259 353.136C172.403 353.214 172.563 353.275 172.739 353.317C172.92 353.354 173.099 353.379 173.275 353.393C173.372 353.402 173.479 353.409 173.595 353.414C173.711 353.414 173.829 353.416 173.95 353.421C174.075 353.426 174.198 353.428 174.319 353.428C174.439 353.428 174.553 353.428 174.659 353.428C174.645 353.256 174.611 353.071 174.555 352.871C174.504 352.667 174.437 352.463 174.353 352.259C174.27 352.055 174.175 351.86 174.068 351.675C173.961 351.485 173.845 351.318 173.72 351.174C173.6 351.026 173.474 350.907 173.345 350.819C173.215 350.731 173.085 350.687 172.955 350.687ZM179.948 352.489C180.101 352.554 180.298 352.635 180.539 352.732C180.78 352.83 181.04 352.927 181.318 353.024C181.596 353.122 181.877 353.21 182.16 353.289C182.447 353.363 182.709 353.409 182.946 353.428C182.9 353.233 182.851 353.031 182.8 352.823C182.753 352.609 182.7 352.403 182.64 352.203C182.58 352.004 182.512 351.816 182.438 351.64C182.364 351.459 182.276 351.301 182.174 351.167C182.076 351.032 181.963 350.926 181.833 350.847C181.703 350.768 181.557 350.729 181.395 350.729C181.209 350.729 181.042 350.789 180.894 350.91C180.75 351.03 180.618 351.181 180.497 351.362C180.381 351.538 180.277 351.728 180.184 351.932C180.096 352.136 180.017 352.322 179.948 352.489ZM182.591 355.188C182.35 355.183 182.067 355.148 181.742 355.083C181.418 355.023 181.086 354.942 180.748 354.84C180.414 354.738 180.091 354.622 179.781 354.492C179.475 354.362 179.215 354.226 179.002 354.082C178.821 354.263 178.644 354.423 178.473 354.562C178.301 354.701 178.123 354.819 177.937 354.917C177.752 355.009 177.55 355.081 177.332 355.132C177.119 355.183 176.875 355.209 176.602 355.209H176.462V353.428H176.602C176.94 353.428 177.223 353.365 177.45 353.24C177.678 353.11 177.872 352.943 178.035 352.739C178.197 352.535 178.338 352.306 178.459 352.05C178.584 351.795 178.712 351.54 178.842 351.285C178.971 351.016 179.12 350.747 179.287 350.478C179.454 350.209 179.642 349.968 179.85 349.755C180.064 349.537 180.302 349.361 180.567 349.226C180.831 349.092 181.128 349.024 181.457 349.024C181.889 349.024 182.25 349.101 182.542 349.254C182.839 349.402 183.085 349.609 183.28 349.873C183.479 350.133 183.637 350.439 183.753 350.791C183.869 351.144 183.966 351.524 184.045 351.932C184.091 352.169 184.135 352.38 184.177 352.565C184.219 352.746 184.265 352.901 184.316 353.031C184.372 353.161 184.43 353.261 184.49 353.33C184.555 353.395 184.632 353.428 184.72 353.428H184.935V355.209H184.671C184.416 355.204 184.189 355.134 183.989 355C183.795 354.861 183.614 354.678 183.447 354.45C183.396 354.497 183.335 354.559 183.266 354.638C183.201 354.717 183.129 354.796 183.05 354.875C182.976 354.949 182.9 355.016 182.821 355.077C182.742 355.137 182.665 355.174 182.591 355.188ZM190.883 351.125C190.716 350.93 190.521 350.754 190.299 350.597C190.113 350.462 189.897 350.341 189.652 350.235C189.406 350.123 189.137 350.068 188.845 350.068C188.608 350.068 188.399 350.105 188.219 350.179C188.038 350.249 187.885 350.346 187.759 350.471C187.634 350.592 187.537 350.733 187.467 350.896C187.398 351.058 187.356 351.232 187.342 351.417C187.337 351.45 187.335 351.482 187.335 351.515C187.335 351.733 187.393 351.946 187.509 352.155C187.625 352.359 187.787 352.542 187.996 352.704C188.205 352.862 188.446 352.983 188.719 353.066C188.942 353.136 189.167 353.17 189.394 353.17C189.445 353.17 189.496 353.168 189.547 353.163C189.816 353.145 190.085 353.117 190.354 353.08C190.628 353.038 190.876 352.999 191.099 352.962L191.843 352.816L192.059 354.548C191.771 354.622 191.449 354.699 191.092 354.777C190.735 354.856 190.324 354.928 189.86 354.993C189.401 355.053 188.879 355.104 188.295 355.146C187.711 355.188 187.048 355.209 186.306 355.209H184.65V353.428H184.956L186.285 353.421C186.034 353.129 185.863 352.83 185.77 352.523C185.682 352.213 185.638 351.872 185.638 351.501C185.638 351.065 185.719 350.652 185.881 350.263C186.044 349.873 186.266 349.532 186.549 349.24C186.837 348.948 187.175 348.716 187.565 348.544C187.959 348.373 188.386 348.287 188.845 348.287C189.072 348.287 189.29 348.308 189.499 348.35C189.712 348.391 189.914 348.447 190.104 348.517C190.294 348.586 190.473 348.665 190.639 348.753C190.811 348.841 190.966 348.929 191.106 349.017C191.268 349.124 191.426 349.238 191.579 349.358C191.732 349.479 191.875 349.606 192.01 349.741L190.883 351.125ZM203.329 359.744C202.531 359.744 201.794 359.645 201.116 359.445C200.439 359.25 199.862 358.954 199.384 358.555C198.907 358.161 198.547 357.664 198.306 357.066C198.111 356.598 198.014 356.067 198.014 355.473C198.014 355.315 198.021 355.153 198.035 354.986C198.063 354.666 198.1 354.339 198.146 354.005C198.197 353.671 198.264 353.321 198.348 352.955C198.436 352.584 198.547 352.192 198.682 351.779C198.816 351.366 198.983 350.921 199.183 350.443L200.616 351.104C200.425 351.577 200.268 352.016 200.143 352.419C200.017 352.818 199.918 353.189 199.843 353.532C199.774 353.875 199.725 354.198 199.697 354.499C199.669 354.801 199.656 355.09 199.656 355.369C199.656 355.703 199.697 356.002 199.781 356.266C199.869 356.53 199.98 356.767 200.115 356.976C200.296 357.221 200.523 357.409 200.796 357.539C201.07 357.674 201.358 357.771 201.659 357.831C201.965 357.892 202.264 357.926 202.556 357.936C202.853 357.95 203.111 357.957 203.329 357.957C203.458 357.957 203.646 357.947 203.892 357.929C204.143 357.91 204.414 357.878 204.706 357.831C205.003 357.785 205.307 357.725 205.617 357.65C205.928 357.576 206.209 357.483 206.459 357.372C206.714 357.261 206.92 357.131 207.078 356.983C207.24 356.834 207.322 356.66 207.322 356.461C207.322 356.428 207.28 356.377 207.196 356.308C207.118 356.243 207.006 356.169 206.863 356.085C206.723 356.002 206.559 355.914 206.369 355.821C206.178 355.733 205.974 355.647 205.756 355.563C205.436 355.457 205.119 355.378 204.803 355.327C204.488 355.276 204.175 355.223 203.864 355.167L204.101 353.428H209.624V355.209H208.323C208.509 355.436 208.632 355.659 208.692 355.877C208.757 356.099 208.792 356.294 208.796 356.461C208.778 356.869 208.674 357.233 208.483 357.553C208.293 357.878 208.047 358.161 207.746 358.402C207.449 358.648 207.111 358.854 206.73 359.021C206.35 359.192 205.96 359.332 205.562 359.438C205.163 359.545 204.769 359.621 204.379 359.668C203.994 359.719 203.644 359.744 203.329 359.744ZM209.645 353.428C209.882 353.428 210.104 353.381 210.313 353.289C210.526 353.191 210.728 353.02 210.918 352.774C211.113 352.523 211.294 352.183 211.461 351.751C211.632 351.32 211.795 350.768 211.948 350.096L213.652 350.576C213.541 350.961 213.441 351.332 213.353 351.689C213.265 352.041 213.216 352.345 213.207 352.6C213.207 352.623 213.207 352.644 213.207 352.663C213.207 352.746 213.214 352.834 213.228 352.927C213.246 353.02 213.277 353.106 213.318 353.184C213.36 353.263 213.416 353.326 213.485 353.372C213.55 353.414 213.622 353.435 213.701 353.435C213.71 353.435 213.719 353.435 213.729 353.435C213.9 353.43 214.063 353.368 214.216 353.247C214.369 353.126 214.51 352.971 214.64 352.781C214.775 352.591 214.895 352.375 215.002 352.134C215.113 351.893 215.21 351.649 215.294 351.403C215.382 351.153 215.456 350.91 215.517 350.673C215.577 350.437 215.623 350.228 215.656 350.047L217.297 350.381C217.237 350.659 217.188 350.917 217.151 351.153C217.114 351.385 217.091 351.619 217.082 351.856C217.077 351.916 217.075 351.976 217.075 352.037C217.075 352.152 217.082 352.289 217.096 352.447C217.114 352.6 217.154 352.751 217.214 352.899C217.274 353.048 217.358 353.17 217.464 353.268C217.576 353.361 217.719 353.407 217.896 353.407C218.095 353.407 218.255 353.33 218.376 353.177C218.501 353.02 218.596 352.82 218.661 352.579C218.726 352.338 218.768 352.071 218.786 351.779C218.809 351.482 218.821 351.195 218.821 350.917C218.821 350.828 218.819 350.759 218.814 350.708C218.814 350.652 218.814 350.601 218.814 350.555C218.814 350.508 218.812 350.457 218.807 350.402C218.807 350.341 218.807 350.26 218.807 350.158L220.567 350.019C220.581 350.172 220.595 350.323 220.609 350.471C220.623 350.615 220.637 350.766 220.65 350.923C220.664 351.077 220.681 351.241 220.699 351.417C220.722 351.589 220.748 351.777 220.776 351.981C220.808 352.222 220.875 352.433 220.977 352.614C221.084 352.795 221.207 352.946 221.346 353.066C221.485 353.187 221.634 353.277 221.791 353.337C221.954 353.398 222.107 353.428 222.25 353.428H222.508V355.209H222.285C222.058 355.209 221.833 355.186 221.61 355.139C221.392 355.093 221.184 355.021 220.984 354.923C220.785 354.826 220.597 354.703 220.421 354.555C220.249 354.402 220.099 354.221 219.969 354.012C219.746 354.374 219.454 354.664 219.092 354.882C218.73 355.1 218.332 355.209 217.896 355.209C217.46 355.209 217.063 355.104 216.706 354.896C216.354 354.687 216.073 354.409 215.864 354.061C215.73 354.232 215.584 354.39 215.426 354.534C215.273 354.673 215.106 354.796 214.925 354.903C214.749 355.005 214.561 355.083 214.362 355.139C214.162 355.199 213.954 355.23 213.736 355.23C213.527 355.23 213.325 355.202 213.13 355.146C212.936 355.095 212.755 355.019 212.588 354.917C212.421 354.814 212.27 354.692 212.136 354.548C212.001 354.399 211.89 354.235 211.802 354.054C211.57 354.462 211.285 354.757 210.946 354.937C210.608 355.118 210.176 355.209 209.652 355.209H209.353V353.428H209.645ZM228.433 353.428V355.209H228.294C227.844 355.209 227.464 355.137 227.153 354.993C226.843 354.849 226.578 354.664 226.36 354.437C226.207 354.631 225.98 354.782 225.678 354.889C225.382 354.991 225.05 355.065 224.684 355.111C224.317 355.162 223.939 355.19 223.55 355.195C223.165 355.204 222.81 355.209 222.485 355.209H222.228V353.428H222.485C223.028 353.428 223.485 353.398 223.856 353.337C224.227 353.272 224.526 353.18 224.753 353.059C224.985 352.939 225.152 352.788 225.254 352.607C225.356 352.421 225.407 352.208 225.407 351.967C225.407 351.809 225.377 351.601 225.317 351.341C225.256 351.077 225.166 350.738 225.045 350.325L226.757 349.845C226.817 350.049 226.863 350.23 226.896 350.388C226.933 350.541 226.961 350.696 226.979 350.854C227.003 351.007 227.021 351.174 227.035 351.355C227.054 351.531 227.072 351.742 227.091 351.988C227.105 352.136 227.139 352.296 227.195 352.468C227.251 352.635 227.327 352.79 227.425 352.934C227.527 353.073 227.65 353.191 227.793 353.289C227.937 353.381 228.104 353.428 228.294 353.428H228.433ZM224.816 357.268L223.633 358.45L222.437 357.261L223.619 356.071L224.816 357.268ZM227.445 357.275L226.263 358.464L225.066 357.268L226.249 356.085L227.445 357.275ZM228.15 353.428H228.658C228.825 353.428 228.98 353.414 229.124 353.386C229.268 353.358 229.395 353.3 229.506 353.212C229.618 353.119 229.708 352.992 229.778 352.83C229.847 352.667 229.891 352.449 229.91 352.176C229.91 352.069 229.912 351.883 229.917 351.619C229.926 351.35 229.933 351.032 229.938 350.666C229.942 350.295 229.947 349.889 229.952 349.449C229.956 349.008 229.959 348.558 229.959 348.099C229.959 347.742 229.956 347.392 229.952 347.049C229.952 346.701 229.947 346.367 229.938 346.047C229.933 345.727 229.922 345.426 229.903 345.143C229.889 344.86 229.868 344.602 229.84 344.37L231.614 344.141C231.647 344.391 231.672 344.674 231.691 344.99C231.709 345.305 231.723 345.641 231.733 345.998C231.746 346.351 231.753 346.722 231.753 347.111C231.758 347.496 231.76 347.886 231.76 348.28C231.76 349.157 231.751 349.919 231.733 350.569C231.719 351.218 231.712 351.793 231.712 352.294C231.712 352.646 231.802 352.925 231.983 353.129C232.164 353.328 232.433 353.428 232.79 353.428H232.943V355.209H232.79C232.762 355.209 232.737 355.209 232.713 355.209C232.533 355.209 232.354 355.192 232.178 355.16C232.006 355.132 231.839 355.088 231.677 355.028C231.519 354.972 231.373 354.905 231.239 354.826C231.104 354.747 230.986 354.666 230.884 354.583C230.749 354.712 230.601 354.819 230.439 354.903C230.281 354.981 230.119 355.044 229.952 355.09C229.785 355.137 229.62 355.167 229.458 355.181C229.295 355.199 229.149 355.209 229.019 355.209H228.15V353.428ZM232.666 353.428H234.829C235.098 353.428 235.339 353.395 235.553 353.33C235.77 353.266 235.954 353.182 236.102 353.08C236.25 352.973 236.364 352.853 236.443 352.718C236.526 352.579 236.568 352.438 236.568 352.294C236.568 352.071 236.524 351.83 236.436 351.57C236.348 351.306 236.23 351.039 236.081 350.77C235.937 350.497 235.766 350.223 235.566 349.95C235.372 349.671 235.165 349.407 234.947 349.157C234.729 348.901 234.504 348.665 234.273 348.447C234.045 348.229 233.827 348.037 233.619 347.87L233.786 345.908L239.873 343.334L240.519 344.927L235.267 347.083C235.624 347.394 235.935 347.703 236.199 348.009C236.468 348.31 236.707 348.614 236.916 348.92C237.129 349.221 237.322 349.525 237.493 349.831C237.665 350.137 237.832 350.446 237.994 350.757C238.11 350.979 238.226 351.197 238.342 351.41C238.458 351.624 238.583 351.842 238.718 352.064V352.057C238.843 352.266 238.975 352.454 239.114 352.621C239.258 352.788 239.411 352.932 239.573 353.052C239.74 353.173 239.921 353.266 240.116 353.33C240.315 353.395 240.533 353.428 240.77 353.428H241.208V355.209H241.006C240.635 355.209 240.299 355.183 239.998 355.132C239.696 355.081 239.416 355 239.156 354.889C238.901 354.777 238.66 354.636 238.433 354.464C238.21 354.288 237.99 354.077 237.772 353.831C237.609 354.072 237.426 354.279 237.222 354.45C237.018 354.617 236.798 354.757 236.561 354.868C236.325 354.974 236.074 355.053 235.81 355.104C235.55 355.16 235.281 355.195 235.003 355.209H232.666V353.428ZM239.657 342.68L233.786 345.073L233.834 344.176L239.316 341.97L239.657 342.68ZM240.931 353.428H242.051C242.269 353.428 242.492 353.416 242.719 353.393C242.951 353.365 243.16 353.312 243.345 353.233C243.531 353.15 243.681 353.031 243.797 352.878C243.918 352.725 243.978 352.521 243.978 352.266C243.978 352.146 243.953 351.976 243.902 351.758C243.851 351.54 243.783 351.299 243.7 351.035C243.616 350.77 243.517 350.497 243.401 350.214C243.289 349.931 243.171 349.667 243.046 349.421L244.653 348.628C244.769 348.892 244.885 349.173 245.001 349.47C245.117 349.766 245.219 350.072 245.307 350.388C245.4 350.699 245.474 351.012 245.529 351.327C245.585 351.642 245.613 351.951 245.613 352.252C245.613 352.772 245.525 353.219 245.349 353.595C245.172 353.966 244.927 354.272 244.611 354.513C244.296 354.75 243.918 354.923 243.477 355.035C243.041 355.151 242.561 355.209 242.037 355.209H240.931V353.428ZM244.486 346.27L243.15 347.605L241.822 346.27L243.15 344.941L244.486 346.27ZM248.829 344.141C248.944 345.027 249.026 345.873 249.072 346.68C249.118 347.482 249.146 348.268 249.155 349.038C249.165 349.692 249.167 350.297 249.162 350.854C249.162 351.41 249.158 351.93 249.149 352.412C249.139 352.89 249.125 353.337 249.107 353.755C249.088 354.168 249.07 354.555 249.051 354.917L247.229 355.195C247.326 353.664 247.375 352.312 247.375 351.139C247.375 350.666 247.368 350.223 247.354 349.81C247.317 348.86 247.275 347.967 247.229 347.132C247.182 346.293 247.12 345.49 247.041 344.725L248.829 344.141Z" fill="black"/>
</svg>
