<svg width="400" height="400" viewBox="0 0 400 400" fill="none" xmlns="http://www.w3.org/2000/svg">
<rect width="400" height="400" fill="white"/>
<path d="M174.024 53.7443C173.226 53.7443 172.489 53.6446 171.812 53.4452C171.135 53.2504 170.557 52.9536 170.08 52.5548C169.602 52.1606 169.242 51.6643 169.001 51.0661C168.807 50.5977 168.709 50.0667 168.709 49.473C168.709 49.3154 168.716 49.153 168.73 48.9861C168.758 48.6661 168.795 48.3391 168.841 48.0052C168.892 47.6713 168.96 47.3212 169.043 46.9548C169.131 46.5838 169.242 46.1919 169.377 45.7791C169.511 45.3664 169.678 44.9212 169.878 44.4435L171.311 45.1043C171.121 45.5774 170.963 46.0157 170.838 46.4191C170.713 46.818 170.613 47.189 170.539 47.5322C170.469 47.8754 170.42 48.1977 170.393 48.4991C170.365 48.8006 170.351 49.0904 170.351 49.3687C170.351 49.7026 170.393 50.0017 170.476 50.2661C170.564 50.5304 170.676 50.767 170.81 50.9757C170.991 51.2214 171.218 51.4093 171.492 51.5391C171.765 51.6736 172.053 51.771 172.354 51.8313C172.66 51.8916 172.96 51.9264 173.252 51.9357C173.549 51.9496 173.806 51.9565 174.024 51.9565C174.154 51.9565 174.342 51.9472 174.587 51.9287C174.838 51.9101 175.109 51.8777 175.401 51.8313C175.698 51.7849 176.002 51.7246 176.313 51.6504C176.623 51.5762 176.904 51.4835 177.154 51.3722C177.409 51.2609 177.616 51.131 177.773 50.9826C177.936 50.8342 178.017 50.6603 178.017 50.4609C178.017 50.4284 177.975 50.3774 177.892 50.3078C177.813 50.2429 177.702 50.1687 177.558 50.0852C177.419 50.0017 177.254 49.9136 177.064 49.8209C176.874 49.7328 176.67 49.647 176.452 49.5635C176.132 49.4568 175.814 49.378 175.499 49.327C175.183 49.2759 174.87 49.2226 174.56 49.167L174.796 47.4278H180.32V49.2087H179.019C179.204 49.4359 179.327 49.6586 179.387 49.8765C179.452 50.0991 179.487 50.2939 179.492 50.4609C179.473 50.869 179.369 51.233 179.179 51.553C178.989 51.8777 178.743 52.1606 178.441 52.4017C178.144 52.6475 177.806 52.8539 177.426 53.0209C177.045 53.1925 176.656 53.3316 176.257 53.4383C175.858 53.5449 175.464 53.6214 175.074 53.6678C174.689 53.7188 174.339 53.7443 174.024 53.7443ZM180.048 47.4278H180.556C180.723 47.4278 180.879 47.4139 181.022 47.3861C181.166 47.3583 181.294 47.3003 181.405 47.2122C181.516 47.1194 181.607 46.9919 181.676 46.8296C181.746 46.6672 181.79 46.4493 181.808 46.1757C181.808 46.069 181.811 45.8835 181.815 45.6191C181.825 45.3501 181.832 45.0325 181.836 44.6661C181.841 44.2951 181.845 43.8893 181.85 43.4487C181.855 43.0081 181.857 42.5583 181.857 42.0991C181.857 41.742 181.855 41.3919 181.85 41.0487C181.85 40.7009 181.845 40.367 181.836 40.047C181.832 39.727 181.82 39.4255 181.801 39.1426C181.788 38.8597 181.767 38.6023 181.739 38.3704L183.513 38.1409C183.545 38.3913 183.571 38.6742 183.589 38.9896C183.608 39.3049 183.622 39.6412 183.631 39.9983C183.645 40.3507 183.652 40.7217 183.652 41.1113C183.656 41.4962 183.659 41.8858 183.659 42.28C183.659 43.1565 183.65 43.9194 183.631 44.5687C183.617 45.218 183.61 45.793 183.61 46.2939C183.61 46.6464 183.701 46.9246 183.881 47.1287C184.062 47.3281 184.331 47.4278 184.688 47.4278H184.841V49.2087H184.688C184.661 49.2087 184.635 49.2087 184.612 49.2087C184.431 49.2087 184.252 49.1925 184.076 49.16C183.905 49.1322 183.738 49.0881 183.575 49.0278C183.418 48.9722 183.272 48.9049 183.137 48.8261C183.003 48.7472 182.884 48.6661 182.782 48.5826C182.648 48.7125 182.499 48.8191 182.337 48.9026C182.179 48.9814 182.017 49.0441 181.85 49.0904C181.683 49.1368 181.519 49.167 181.356 49.1809C181.194 49.1994 181.048 49.2087 180.918 49.2087H180.048V47.4278ZM184.564 47.4278H186.074C186.649 47.4278 187.233 47.3745 187.827 47.2678C188.425 47.1565 189.018 47.0128 189.607 46.8365C190.196 46.6557 190.772 46.4493 191.333 46.2174C191.894 45.9855 192.425 45.7467 192.926 45.5009C192.527 45.4128 192.156 45.2968 191.813 45.153C191.47 45.0046 191.145 44.8609 190.839 44.7217C190.533 44.5826 190.238 44.462 189.955 44.36C189.672 44.258 189.392 44.207 189.114 44.207C188.951 44.207 188.798 44.2371 188.654 44.2974C188.515 44.353 188.385 44.4249 188.265 44.513C188.144 44.6012 188.035 44.6986 187.938 44.8052C187.845 44.9119 187.762 45.0162 187.687 45.1183C187.618 45.2157 187.56 45.3038 187.514 45.3826C187.467 45.4614 187.435 45.5171 187.416 45.5496L185.969 44.6104C186.127 44.3322 186.315 44.0632 186.533 43.8035C186.751 43.5391 186.992 43.3049 187.256 43.1009C187.525 42.8922 187.815 42.7275 188.126 42.607C188.436 42.4817 188.766 42.4191 189.114 42.4191C189.471 42.4191 189.825 42.4678 190.178 42.5652C190.53 42.658 190.878 42.7786 191.221 42.927C191.569 43.0707 191.917 43.2261 192.265 43.393C192.613 43.56 192.963 43.7177 193.315 43.8661C193.672 44.0099 194.032 44.1328 194.394 44.2348C194.755 44.3322 195.126 44.3832 195.507 44.3878L195.361 46.1826C194.711 46.4933 194.034 46.8226 193.329 47.1704C192.624 47.5183 191.887 47.8406 191.117 48.1374C190.347 48.4296 189.543 48.6777 188.703 48.8817C187.868 49.0812 186.992 49.1901 186.074 49.2087H184.564V47.4278ZM199.618 44.5826C199.711 44.8748 199.806 45.1809 199.903 45.5009C200.005 45.8162 200.096 46.1362 200.174 46.4609C200.258 46.7855 200.325 47.1101 200.376 47.4348C200.427 47.7548 200.453 48.0678 200.453 48.3739C200.453 48.7913 200.388 49.1971 200.258 49.5913C200.133 49.9901 199.956 50.3728 199.729 50.7391C199.507 51.1101 199.24 51.4626 198.929 51.7965C198.623 52.1304 198.289 52.4458 197.927 52.7426C197.566 53.0394 197.183 53.3154 196.78 53.5704C196.376 53.8255 195.968 54.0551 195.555 54.2591L194.762 52.6661C195.091 52.5038 195.416 52.3229 195.736 52.1235C196.056 51.9287 196.36 51.72 196.647 51.4974C196.94 51.2748 197.209 51.0406 197.454 50.7948C197.705 50.549 197.918 50.2939 198.094 50.0296C198.275 49.7652 198.417 49.4939 198.519 49.2157C198.621 48.9374 198.672 48.6568 198.672 48.3739C198.672 48.1096 198.642 47.8313 198.581 47.5391C198.521 47.247 198.447 46.9594 198.359 46.6765C198.275 46.389 198.187 46.113 198.094 45.8487C198.006 45.5843 197.932 45.3501 197.872 45.1461L199.618 44.5826ZM210.423 52.8748C210.692 52.9212 210.963 52.9443 211.237 52.9443C211.307 52.9443 211.443 52.9397 211.647 52.9304C211.851 52.9212 212.114 52.8794 212.434 52.8052C212.754 52.731 213.06 52.6313 213.352 52.5061C213.649 52.3809 213.92 52.2371 214.166 52.0748L215.105 53.633C214.836 53.7954 214.558 53.9438 214.27 54.0783C213.987 54.2174 213.693 54.3357 213.387 54.433C213.085 54.5304 212.772 54.6046 212.447 54.6557C212.165 54.702 211.875 54.7252 211.578 54.7252C211.531 54.7252 211.483 54.7252 211.432 54.7252C210.996 54.7159 210.56 54.6696 210.124 54.5861C209.693 54.5026 209.28 54.382 208.886 54.2243C208.496 54.0667 208.132 53.8696 207.794 53.633C207.46 53.4012 207.167 53.1299 206.917 52.8191C206.671 52.513 206.476 52.1675 206.333 51.7826C206.189 51.4023 206.115 50.9803 206.11 50.5165C206.124 50.0203 206.217 49.5565 206.388 49.1252C206.56 48.6986 206.787 48.309 207.07 47.9565C207.358 47.5994 207.687 47.2817 208.058 47.0035C208.434 46.7252 208.83 46.4864 209.247 46.287C209.099 46.1478 208.946 46.011 208.788 45.8765C208.635 45.7374 208.487 45.6075 208.343 45.487C208.199 45.3617 208.065 45.2481 207.94 45.1461C207.814 45.0394 207.71 44.949 207.627 44.8748L207.494 43.3861C208.102 42.8574 208.756 42.4609 209.456 42.1965C210.161 41.9275 210.896 41.793 211.661 41.793C211.889 41.793 212.123 41.8093 212.364 41.8417C212.61 41.8742 212.849 41.9252 213.08 41.9948C213.312 42.0643 213.53 42.1548 213.734 42.2661C213.938 42.3774 214.117 42.5142 214.27 42.6765C214.423 42.8342 214.544 43.0174 214.632 43.2261C214.711 43.4301 214.75 43.6574 214.75 43.9078C214.75 43.9217 214.75 43.9357 214.75 43.9496C214.731 44.302 214.662 44.6174 214.541 44.8957C214.425 45.1739 214.272 45.4243 214.082 45.647C213.892 45.8696 213.672 46.069 213.421 46.2452C213.176 46.4214 212.914 46.5838 212.635 46.7322C213.011 46.9409 213.41 47.1101 213.832 47.24C214.258 47.3652 214.674 47.4278 215.077 47.4278H215.314V49.2087H215.077C214.692 49.2087 214.319 49.1693 213.957 49.0904C213.595 49.0116 213.238 48.9003 212.886 48.7565C212.533 48.6081 212.183 48.4342 211.835 48.2348C211.487 48.0307 211.137 47.8058 210.785 47.56C210.446 47.6945 210.103 47.8522 209.755 48.033C209.407 48.2093 209.09 48.418 208.802 48.6591C208.519 48.8957 208.287 49.1646 208.107 49.4661C207.926 49.7675 207.835 50.1084 207.835 50.4887C207.835 50.702 207.877 50.9061 207.96 51.1009C208.049 51.2957 208.162 51.4765 208.301 51.6435C208.44 51.8151 208.6 51.9704 208.781 52.1096C208.962 52.2533 209.148 52.3762 209.338 52.4783C209.533 52.5849 209.723 52.6707 209.908 52.7357C210.098 52.8052 210.27 52.8516 210.423 52.8748ZM211.668 43.4904C211.483 43.4904 211.288 43.5043 211.084 43.5322C210.88 43.5554 210.678 43.5901 210.479 43.6365C210.279 43.6783 210.087 43.7316 209.901 43.7965C209.72 43.8568 209.56 43.9241 209.421 43.9983C209.519 44.1003 209.628 44.2186 209.748 44.353C209.869 44.4829 209.996 44.6197 210.131 44.7635C210.27 44.9072 210.411 45.051 210.555 45.1948C210.699 45.3339 210.84 45.4638 210.98 45.5843C211.286 45.4545 211.571 45.3223 211.835 45.1878C212.1 45.0533 212.329 44.9165 212.524 44.7774C212.723 44.6336 212.881 44.4852 212.997 44.3322C213.113 44.1791 213.173 44.0214 213.178 43.8591C213.173 43.8406 213.143 43.8128 213.087 43.7757C213.032 43.7386 212.941 43.7014 212.816 43.6643C212.696 43.6226 212.54 43.5855 212.35 43.553C212.165 43.5206 211.937 43.4997 211.668 43.4904ZM215.033 47.4278H216.09L216.139 47.3374C216.218 47.1983 216.329 47.0151 216.473 46.7878C216.621 46.5559 216.807 46.2939 217.029 46.0017C217.071 45.7096 217.106 45.3409 217.134 44.8957C217.161 44.4504 217.178 43.9681 217.182 43.4487C217.182 43.1658 217.178 42.8759 217.168 42.5791C217.159 42.2777 217.141 41.9322 217.113 41.5426C217.085 41.153 217.045 40.6986 216.994 40.1791C216.948 39.6551 216.888 39.0313 216.814 38.3078L218.643 37.8348C218.764 38.7252 218.854 39.6388 218.914 40.5757C218.979 41.5125 219.012 42.44 219.012 43.3583V43.9217C219.262 43.7084 219.522 43.5043 219.791 43.3096C220.065 43.1148 220.348 42.9432 220.64 42.7948C220.937 42.6464 221.245 42.5281 221.565 42.44C221.885 42.3519 222.219 42.3078 222.567 42.3078C222.919 42.3078 223.253 42.3635 223.568 42.4748C223.884 42.5861 224.162 42.7484 224.403 42.9617C224.649 43.1704 224.851 43.4255 225.008 43.727C225.166 44.0284 225.263 44.367 225.301 44.7426C225.305 44.8122 225.308 44.8794 225.308 44.9443C225.308 45.4267 225.226 45.8765 225.064 46.2939C224.906 46.7113 224.672 47.0893 224.361 47.4278H226.323V49.2087H224.473C224.106 49.2087 223.698 49.1925 223.248 49.16C222.799 49.1275 222.3 49.0417 221.753 48.9026C221.359 49.0093 220.957 49.0858 220.549 49.1322C220.146 49.1832 219.74 49.2087 219.332 49.2087H215.033V47.4278ZM218.685 47.4278C218.968 47.4278 219.292 47.4209 219.659 47.407C220.03 47.393 220.41 47.3606 220.8 47.3096C221.189 47.2586 221.567 47.182 221.934 47.08C222.305 46.978 222.634 46.8412 222.921 46.6696C223.209 46.498 223.436 46.2823 223.603 46.0226C223.747 45.8 223.819 45.5357 223.819 45.2296C223.819 45.1878 223.817 45.1438 223.812 45.0974C223.803 44.9583 223.756 44.8284 223.673 44.7078C223.594 44.5872 223.483 44.4852 223.339 44.4017C223.2 44.3136 223.033 44.2441 222.838 44.193C222.671 44.1559 222.49 44.1374 222.295 44.1374C222.258 44.1374 222.219 44.1374 222.177 44.1374C221.945 44.1467 221.669 44.207 221.349 44.3183C221.029 44.4249 220.686 44.6058 220.32 44.8609C219.953 45.1159 219.573 45.4522 219.179 45.8696C218.785 46.287 218.4 46.8064 218.024 47.4278H218.685ZM226.215 47.4278C226.702 47.4278 227.171 47.4139 227.621 47.3861C228.07 47.3536 228.481 47.3096 228.852 47.2539C229.223 47.1983 229.543 47.131 229.812 47.0522C230.081 46.9733 230.283 46.8852 230.417 46.7878H229.707C229.299 46.7878 228.91 46.7368 228.539 46.6348C228.172 46.5281 227.85 46.3704 227.572 46.1617C227.294 45.953 227.071 45.6933 226.904 45.3826C226.742 45.0672 226.661 44.7009 226.661 44.2835C226.661 44.0377 226.686 43.7849 226.737 43.5252C226.788 43.2655 226.865 43.0128 226.967 42.767C227.069 42.5212 227.192 42.2893 227.335 42.0713C227.479 41.8533 227.644 41.6632 227.829 41.5009C228.015 41.3339 228.219 41.2041 228.441 41.1113C228.664 41.0139 228.905 40.9652 229.165 40.9652C229.485 40.9652 229.784 41.0325 230.062 41.167C230.341 41.3014 230.593 41.4846 230.821 41.7165C231.048 41.9438 231.25 42.2081 231.426 42.5096C231.602 42.811 231.75 43.1287 231.871 43.4626C231.992 43.7965 232.082 44.1374 232.142 44.4852C232.207 44.8284 232.24 45.1554 232.24 45.4661C232.24 45.9948 232.165 46.4539 232.017 46.8435C231.873 47.233 231.669 47.567 231.405 47.8452C231.145 48.1235 230.832 48.3507 230.466 48.527C230.104 48.7032 229.703 48.8423 229.262 48.9443C228.822 49.0464 228.349 49.1159 227.843 49.153C227.342 49.1901 226.823 49.2087 226.285 49.2087H226.048V47.4278H226.215ZM229.165 42.76C229.142 42.7554 229.119 42.753 229.095 42.753C229.003 42.753 228.896 42.7901 228.775 42.8643C228.655 42.9386 228.539 43.0452 228.428 43.1843C228.316 43.3235 228.226 43.4812 228.156 43.6574C228.087 43.829 228.052 43.9983 228.052 44.1652C228.052 44.1745 228.052 44.1838 228.052 44.193C228.052 44.36 228.089 44.4968 228.163 44.6035C228.237 44.7055 228.337 44.7843 228.462 44.84C228.592 44.8957 228.741 44.9351 228.908 44.9583C229.079 44.9814 229.26 44.9977 229.45 45.007C229.575 45.0116 229.705 45.0139 229.84 45.0139C229.905 45.0139 230.004 45.0139 230.139 45.0139C230.278 45.0093 230.419 45.0023 230.563 44.993C230.521 44.8261 230.461 44.6197 230.382 44.3739C230.308 44.1235 230.213 43.8823 230.097 43.6504C229.986 43.4139 229.851 43.2099 229.694 43.0383C229.541 42.8667 229.364 42.7739 229.165 42.76ZM228.998 38.8713L227.815 40.0539L226.619 38.8643L227.801 37.6748L228.998 38.8713ZM231.628 38.8783L230.445 40.0678L229.248 38.8713L230.431 37.6887L231.628 38.8783Z" fill="black"/>
<path d="M130.165 130.476C130.165 130.49 130.174 130.554 130.191 130.668C130.208 130.774 130.226 130.923 130.243 131.113C130.26 131.296 130.275 131.509 130.286 131.752C130.292 131.922 130.295 132.097 130.295 132.278V132.549C130.272 134.172 129.957 135.613 129.349 136.874V136.864C128.758 138.113 127.957 139.075 126.944 139.751C126.666 139.936 126.414 140.083 126.188 140.192C125.968 140.29 125.748 140.36 125.529 140.402L125.598 140.93C125.667 141.537 125.722 142.175 125.763 142.844C125.809 143.502 125.844 144.171 125.867 144.851C125.896 145.52 125.913 146.191 125.919 146.862C125.931 147.522 125.937 148.154 125.937 148.759L124.209 149.911C124.209 148.805 124.2 147.712 124.183 146.631C124.165 145.544 124.119 144.51 124.044 143.531C123.969 142.545 123.856 141.632 123.705 140.793C123.561 139.944 123.358 139.209 123.098 138.59C122.976 138.295 122.846 138.024 122.707 137.775C122.568 137.527 122.412 137.28 122.238 137.034L123.688 134.961C123.781 135.08 123.864 135.209 123.94 135.346C124.021 135.473 124.099 135.612 124.174 135.764C124.255 135.905 124.336 136.059 124.417 136.228C124.498 136.397 124.588 136.577 124.686 136.769C124.819 137.049 124.95 137.296 125.077 137.51C125.21 137.713 125.361 137.867 125.529 137.971C125.702 138.071 125.899 138.106 126.119 138.078C126.345 138.039 126.62 137.911 126.944 137.695C127.424 137.375 127.786 136.956 128.029 136.439C128.139 136.213 128.229 135.976 128.298 135.728C128.368 135.473 128.423 135.217 128.463 134.96C128.509 134.7 128.541 134.442 128.559 134.187C128.576 133.932 128.585 133.69 128.585 133.46C128.585 133.161 128.57 132.882 128.541 132.623C128.518 132.36 128.492 132.148 128.463 131.986L130.165 130.476ZM132.991 138.192C132.991 137.705 133.066 137.199 133.217 136.675C133.373 136.139 133.584 135.623 133.851 135.125C134.117 134.621 134.427 134.157 134.78 133.734C135.139 133.307 135.523 132.956 135.934 132.682C136.34 132.412 136.719 132.253 137.072 132.206C137.431 132.154 137.743 132.203 138.01 132.353C138.282 132.491 138.496 132.724 138.652 133.051C138.808 133.371 138.886 133.775 138.886 134.262C138.886 134.756 138.808 135.271 138.652 135.806C138.496 136.335 138.282 136.85 138.01 137.351C137.743 137.848 137.431 138.311 137.072 138.738C136.719 139.154 136.34 139.497 135.934 139.767C135.523 140.041 135.139 140.207 134.78 140.266C134.427 140.313 134.117 140.266 133.851 140.123C133.584 139.981 133.373 139.75 133.217 139.429C133.066 139.098 132.991 138.686 132.991 138.192ZM134.406 137.249C134.406 137.499 134.447 137.709 134.528 137.877C134.609 138.046 134.719 138.167 134.858 138.242C134.997 138.316 135.159 138.34 135.344 138.314C135.529 138.288 135.726 138.205 135.934 138.066C136.143 137.928 136.34 137.748 136.525 137.527C136.716 137.302 136.881 137.06 137.02 136.8C137.159 136.541 137.269 136.273 137.35 135.996C137.431 135.719 137.471 135.456 137.471 135.205C137.471 134.955 137.431 134.745 137.35 134.577C137.269 134.401 137.159 134.276 137.02 134.202C136.881 134.128 136.716 134.106 136.525 134.135C136.34 134.162 136.143 134.244 135.934 134.383C135.726 134.522 135.529 134.702 135.344 134.923C135.159 135.144 134.997 135.384 134.858 135.643C134.719 135.903 134.609 136.174 134.528 136.458C134.447 136.735 134.406 136.998 134.406 137.249Z" fill="black"/>
<path d="M293.863 118.38C293.863 117.024 293.843 115.664 293.802 114.302C293.762 112.932 293.672 111.585 293.533 110.261C293.394 108.937 293.194 107.653 292.934 106.408C292.679 105.167 292.335 103.991 291.901 102.881L293.342 102.736C293.817 103.963 294.21 105.28 294.523 106.685C294.841 108.086 295.084 109.609 295.252 111.251C295.322 111.951 295.377 112.663 295.417 113.385C295.463 114.112 295.498 114.831 295.521 115.542C295.55 116.25 295.568 116.939 295.573 117.611C295.585 118.287 295.591 118.927 295.591 119.532L293.863 118.38ZM303.514 117.072C302.97 116.709 302.438 116.264 301.917 115.736C301.401 115.204 300.95 114.594 300.562 113.904C300.632 114.291 300.689 114.726 300.736 115.209C300.788 115.696 300.828 116.207 300.857 116.741C300.892 117.272 300.918 117.818 300.935 118.379C300.953 118.94 300.964 119.49 300.97 120.03C300.982 120.573 300.988 121.095 300.988 121.596C300.988 122.097 300.988 122.553 300.988 122.963L299.26 121.811C299.26 120.455 299.24 119.095 299.199 117.733C299.159 116.363 299.069 115.016 298.93 113.692C298.791 112.368 298.591 111.084 298.331 109.839C298.076 108.598 297.732 107.422 297.298 106.312L298.739 106.177C298.941 106.709 299.132 107.253 299.312 107.811C299.491 108.369 299.648 108.915 299.781 109.449C299.908 109.117 300.082 108.85 300.302 108.649C300.527 108.451 300.785 108.324 301.074 108.266C301.364 108.202 301.676 108.209 302.012 108.286C302.354 108.368 302.707 108.52 303.071 108.742L303.219 108.84C303.572 109.076 303.948 109.396 304.348 109.802C304.747 110.207 305.155 110.715 305.572 111.327C305.832 111.703 306.046 112.037 306.214 112.329C306.382 112.622 306.524 112.873 306.64 113.083L305.398 113.695L305.311 113.533C305.248 113.421 305.164 113.278 305.06 113.104C304.961 112.934 304.84 112.742 304.695 112.527C304.556 112.316 304.403 112.106 304.235 111.897C304.067 111.687 303.893 111.492 303.714 111.309C303.581 111.179 303.436 111.062 303.28 110.957C303.222 110.919 303.121 110.858 302.976 110.776C302.837 110.697 302.652 110.643 302.42 110.614C302.194 110.589 301.998 110.621 301.83 110.711C301.668 110.804 301.543 110.955 301.456 111.161C301.393 111.32 301.361 111.515 301.361 111.744C301.361 111.821 301.364 111.899 301.37 111.98C301.427 112.338 301.523 112.67 301.656 112.974C301.789 113.272 301.948 113.545 302.134 113.793C302.325 114.039 302.539 114.262 302.776 114.462C302.956 114.616 303.144 114.759 303.34 114.89L303.514 115.006C303.728 115.142 303.948 115.271 304.174 115.394C304.4 115.509 304.62 115.607 304.834 115.687C305.048 115.768 305.253 115.825 305.45 115.858C305.647 115.892 305.829 115.892 305.997 115.858L306.761 118.058C306.263 118.164 305.743 118.123 305.198 117.934C304.654 117.745 304.093 117.458 303.514 117.072ZM308.826 131.486L307.81 129.964C308.418 129.346 308.736 128.505 308.765 127.439V125.477L310.528 126.652V128.353C310.528 129.139 310.366 129.817 310.042 130.387C309.723 130.968 309.318 131.334 308.826 131.486ZM319.961 120.252C319.961 120.266 319.969 120.341 319.987 120.478C320.004 120.608 320.022 120.779 320.039 120.993C320.056 121.199 320.071 121.431 320.082 121.69C320.088 121.867 320.091 122.047 320.091 122.228V122.499C320.068 124.09 319.752 125.111 319.145 125.562V125.551C318.554 126.013 317.753 125.907 316.74 125.232C316.462 125.046 316.21 124.858 315.984 124.665C315.764 124.47 315.544 124.247 315.324 123.996L315.394 124.616C315.463 125.316 315.518 126.028 315.559 126.75C315.605 127.47 315.64 128.185 315.663 128.896C315.692 129.604 315.709 130.298 315.715 130.976C315.727 131.652 315.732 132.292 315.732 132.898L314.005 131.746C314.005 130.64 313.996 129.535 313.979 128.431C313.961 127.32 313.915 126.225 313.84 125.145C313.764 124.059 313.652 122.996 313.501 121.956C313.356 120.913 313.154 119.909 312.893 118.942C312.772 118.485 312.642 118.04 312.503 117.607C312.364 117.173 312.207 116.718 312.034 116.24L313.484 116.101C313.576 116.344 313.66 116.584 313.736 116.822C313.817 117.057 313.895 117.3 313.97 117.552C314.051 117.801 314.132 118.064 314.213 118.34C314.294 118.617 314.384 118.917 314.482 119.24C314.615 119.697 314.746 120.118 314.873 120.502C315.006 120.883 315.157 121.237 315.324 121.565C315.498 121.896 315.695 122.194 315.915 122.459C316.141 122.721 316.415 122.96 316.74 123.176C317.22 123.496 317.582 123.56 317.825 123.367C317.935 123.288 318.025 123.17 318.094 123.015C318.163 122.852 318.218 122.67 318.259 122.467C318.305 122.268 318.337 122.053 318.355 121.821C318.372 121.589 318.381 121.359 318.381 121.129C318.381 120.83 318.366 120.532 318.337 120.234C318.314 119.94 318.288 119.693 318.259 119.493L319.961 120.252Z" fill="black"/>
<path d="M44.9265 217.165L44.9269 223.956L178.68 314.064L366.277 190.834L366.277 184.662L231.548 94.1728L44.9265 217.165Z" fill="#E7E7E7" stroke="black"/>
<path d="M44.2633 216.95L44.2635 223.338L178.088 313.546L178.088 306.662L44.2633 216.95Z" fill="#A3A3A3" stroke="black"/>
<path d="M366.338 184.496L231.171 94.0532L44.3189 216.382L178.64 306.598L366.338 184.496Z" fill="#E7E7E7" stroke="black"/>
<path d="M52.6583 210.818L44.2308 216.436L178.648 306.716L186.455 301.511L52.6583 210.818Z" fill="#A3A3A3" stroke="black"/>
<path d="M194.815 205.747C196.23 206.844 196.867 208.027 196.726 209.296C196.579 210.561 195.675 211.747 194.014 212.855C192.191 214.07 190.149 214.616 187.889 214.492C185.622 214.364 183.424 213.585 181.293 212.154L180.427 211.572C179.064 210.657 178.103 209.69 177.544 208.671C176.985 207.653 176.874 206.66 177.211 205.694C177.553 204.723 178.315 203.844 179.496 203.057C181.134 201.965 182.893 201.38 184.772 201.302C186.651 201.224 188.46 201.664 190.198 202.623L187.273 204.574C186.285 204.003 185.366 203.727 184.516 203.745C183.666 203.763 182.793 204.071 181.896 204.669C180.923 205.317 180.543 206.038 180.756 206.831C180.963 207.621 181.794 208.512 183.249 209.505L184.314 210.221C185.845 211.249 187.196 211.847 188.37 212.015C189.543 212.176 190.631 211.922 191.632 211.255C192.535 210.653 193.001 210.067 193.031 209.499C193.067 208.926 192.686 208.326 191.89 207.698L194.815 205.747ZM195.467 204.455C194.422 203.753 193.692 202.995 193.277 202.182C192.862 201.361 192.811 200.549 193.125 199.745C193.433 198.936 194.087 198.199 195.089 197.531C196.513 196.582 198.109 196.101 199.878 196.089C201.647 196.068 203.332 196.526 204.932 197.461L205.668 197.932C207.279 199.014 208.122 200.184 208.195 201.442C208.268 202.699 207.543 203.835 206.021 204.85C204.498 205.865 202.798 206.35 200.919 206.304C199.046 206.254 197.272 205.667 195.597 204.542L195.467 204.455ZM198.497 202.713C199.496 203.384 200.449 203.773 201.357 203.879C202.258 203.981 203.059 203.799 203.76 203.332C204.443 202.876 204.715 202.347 204.578 201.743C204.44 201.132 203.796 200.44 202.647 199.668C201.671 199.013 200.721 198.634 199.796 198.532C198.871 198.422 198.061 198.598 197.367 199.061C196.678 199.52 196.414 200.056 196.575 200.667C196.73 201.275 197.371 201.957 198.497 202.713ZM213.074 195.302L207.942 189.229L210.886 187.267L217.851 196.709L215.168 198.497L201.083 193.801L204.027 191.839L213.074 195.302ZM227.689 190.405C226.144 191.435 224.414 191.958 222.5 191.974C220.581 191.986 218.833 191.463 217.256 190.404L216.979 190.218C215.922 189.508 215.181 188.739 214.754 187.91C214.334 187.078 214.274 186.259 214.576 185.455C214.873 184.647 215.501 183.923 216.462 183.282C217.903 182.321 219.494 181.872 221.234 181.933C222.974 181.986 224.676 182.571 226.339 183.688L227.491 184.462L220.771 188.942C221.551 189.342 222.377 189.529 223.25 189.503C224.123 189.478 224.91 189.231 225.611 188.764C226.699 188.039 227.154 187.21 226.976 186.277L229.907 186.387C230.085 187.072 229.98 187.768 229.592 188.475C229.203 189.175 228.569 189.818 227.689 190.405ZM218.731 184.818C218.17 185.192 217.903 185.621 217.931 186.105C217.96 186.589 218.277 187.1 218.883 187.639L222.807 185.022L222.582 184.871C221.947 184.46 221.294 184.25 220.623 184.241C219.958 184.228 219.328 184.421 218.731 184.818ZM231.459 177.075C231.025 177.295 230.664 177.501 230.374 177.694C229.303 178.408 228.964 179.117 229.356 179.822L236.242 184.447L233.429 186.323L222.905 179.254L225.561 177.483L226.895 178.274C226.493 177.244 226.792 176.396 227.793 175.728C228.106 175.52 228.441 175.354 228.8 175.231L231.459 177.075Z" fill="black"/>
<path d="M217.377 85.1019C217.54 84.7983 217.54 84.4818 217.377 84.3948L214.73 82.9779C214.567 82.8909 214.304 83.0665 214.142 83.3701C213.979 83.6737 213.979 83.9903 214.142 84.0772L216.495 85.3367L214.142 89.7341C213.979 90.0376 213.979 90.3542 214.142 90.4412C214.304 90.5281 214.567 90.3525 214.73 90.0489L217.377 85.1019ZM163 121.5L217.083 85.4445V84.4445L163 120.5V121.5Z" fill="black"/>
<path d="M368.889 167.613C369.051 167.526 369.051 167.209 368.889 166.906L366.241 161.959C366.079 161.655 365.816 161.48 365.653 161.567C365.491 161.653 365.491 161.97 365.653 162.274L368.006 166.671L365.653 167.93C365.491 168.017 365.491 168.334 365.653 168.638C365.816 168.941 366.079 169.117 366.241 169.03L368.889 167.613ZM322 136.5L368.595 167.563V166.563L322 135.5V136.5Z" fill="black"/>
<path d="M238.706 81.4503C238.543 81.5373 238.543 81.8539 238.706 82.1574L241.353 87.1045C241.516 87.408 241.779 87.5836 241.942 87.4967C242.104 87.4097 242.104 87.0932 241.942 86.7896L239.588 82.3922L241.942 81.1327C242.104 81.0458 242.104 80.7292 241.942 80.4256C241.779 80.1221 241.516 79.9464 241.353 80.0334L238.706 81.4503ZM239 82.5L285.595 113.563V112.563L239 81.5V82.5Z" fill="black"/>
<path d="M42.7058 199.898C42.5434 200.202 42.5434 200.518 42.7058 200.605L45.3534 202.022C45.5159 202.109 45.7793 201.933 45.9417 201.63C46.1042 201.326 46.1042 201.01 45.9417 200.923L43.5883 199.663L45.9417 195.266C46.1042 194.962 46.1042 194.646 45.9417 194.559C45.7793 194.472 45.5159 194.648 45.3534 194.951L42.7058 199.898ZM43 200.556L97.0833 164.5V163.5L43 199.556V200.556Z" fill="black"/>
<path d="M163.11 359.744C162.312 359.744 161.575 359.645 160.898 359.445C160.221 359.25 159.643 358.954 159.166 358.555C158.688 358.161 158.328 357.664 158.087 357.066C157.892 356.598 157.795 356.067 157.795 355.473C157.795 355.315 157.802 355.153 157.816 354.986C157.844 354.666 157.881 354.339 157.927 354.005C157.978 353.671 158.046 353.321 158.129 352.955C158.217 352.584 158.328 352.192 158.463 351.779C158.597 351.366 158.764 350.921 158.964 350.443L160.397 351.104C160.207 351.577 160.049 352.016 159.924 352.419C159.799 352.818 159.699 353.189 159.625 353.532C159.555 353.875 159.506 354.198 159.479 354.499C159.451 354.801 159.437 355.09 159.437 355.369C159.437 355.703 159.479 356.002 159.562 356.266C159.65 356.53 159.761 356.767 159.896 356.976C160.077 357.221 160.304 357.409 160.578 357.539C160.851 357.674 161.139 357.771 161.44 357.831C161.746 357.892 162.046 357.926 162.338 357.936C162.634 357.95 162.892 357.957 163.11 357.957C163.24 357.957 163.428 357.947 163.673 357.929C163.924 357.91 164.195 357.878 164.487 357.831C164.784 357.785 165.088 357.725 165.399 357.65C165.709 357.576 165.99 357.483 166.24 357.372C166.495 357.261 166.702 357.131 166.859 356.983C167.022 356.834 167.103 356.66 167.103 356.461C167.103 356.428 167.061 356.377 166.978 356.308C166.899 356.243 166.788 356.169 166.644 356.085C166.505 356.002 166.34 355.914 166.15 355.821C165.96 355.733 165.756 355.647 165.538 355.563C165.218 355.457 164.9 355.378 164.585 355.327C164.269 355.276 163.956 355.223 163.646 355.167L163.882 353.428H169.406V355.209H168.105C168.29 355.436 168.413 355.659 168.473 355.877C168.538 356.099 168.573 356.294 168.578 356.461C168.559 356.869 168.455 357.233 168.265 357.553C168.074 357.878 167.829 358.161 167.527 358.402C167.23 358.648 166.892 358.854 166.512 359.021C166.131 359.192 165.742 359.332 165.343 359.438C164.944 359.545 164.55 359.621 164.16 359.668C163.775 359.719 163.425 359.744 163.11 359.744ZM169.134 353.428H169.273C169.575 353.428 169.874 353.428 170.171 353.428C170.472 353.428 170.727 353.416 170.936 353.393C170.843 353.333 170.741 353.247 170.63 353.136C170.519 353.02 170.414 352.885 170.317 352.732C170.224 352.574 170.143 352.398 170.073 352.203C170.009 352.004 169.974 351.786 169.969 351.55C169.964 351.489 169.962 351.429 169.962 351.369C169.962 351.179 169.988 350.968 170.039 350.736C170.094 350.499 170.182 350.258 170.303 350.012C170.428 349.766 170.579 349.537 170.755 349.323C170.931 349.106 171.126 348.918 171.34 348.76C171.553 348.598 171.782 348.472 172.028 348.384C172.246 348.306 172.471 348.266 172.703 348.266C172.731 348.266 172.756 348.266 172.78 348.266C173.155 348.28 173.503 348.377 173.823 348.558C174.148 348.734 174.428 348.964 174.665 349.247C174.901 349.53 175.087 349.852 175.221 350.214C175.356 350.571 175.423 350.937 175.423 351.313C175.423 351.675 175.356 352.025 175.221 352.363C175.091 352.697 174.922 353.01 174.713 353.303C174.936 353.34 175.177 353.37 175.437 353.393C175.701 353.416 175.952 353.428 176.188 353.428H176.376V355.209H176.237C175.88 355.209 175.534 355.202 175.2 355.188C174.871 355.179 174.56 355.153 174.268 355.111C173.976 355.07 173.702 355.012 173.447 354.937C173.197 354.859 172.974 354.752 172.78 354.617C172.64 354.719 172.441 354.808 172.181 354.882C171.926 354.956 171.639 355.016 171.319 355.063C170.999 355.114 170.66 355.151 170.303 355.174C169.951 355.197 169.607 355.209 169.273 355.209H169.134V353.428ZM172.759 350.026C172.638 350.049 172.499 350.098 172.341 350.172C172.188 350.242 172.042 350.341 171.903 350.471C171.769 350.597 171.653 350.752 171.555 350.937C171.462 351.123 171.416 351.343 171.416 351.598C171.416 351.682 171.455 351.791 171.534 351.925C171.613 352.055 171.717 352.187 171.847 352.322C171.977 352.452 172.126 352.574 172.293 352.69C172.46 352.802 172.631 352.881 172.807 352.927C172.946 352.857 173.081 352.767 173.211 352.656C173.345 352.544 173.464 352.424 173.566 352.294C173.668 352.159 173.749 352.023 173.809 351.883C173.874 351.74 173.906 351.603 173.906 351.473C173.906 351.292 173.867 351.121 173.788 350.958C173.714 350.791 173.619 350.643 173.503 350.513C173.387 350.383 173.262 350.277 173.127 350.193C172.997 350.105 172.875 350.049 172.759 350.026ZM172.585 346.04L171.402 347.223L170.206 346.033L171.388 344.843L172.585 346.04ZM175.214 346.047L174.032 347.237L172.835 346.04L174.018 344.857L175.214 346.047ZM176.27 353.428C176.757 353.428 177.225 353.414 177.675 353.386C178.125 353.354 178.536 353.31 178.907 353.254C179.278 353.198 179.598 353.131 179.867 353.052C180.136 352.973 180.337 352.885 180.472 352.788H179.762C179.354 352.788 178.965 352.737 178.593 352.635C178.227 352.528 177.905 352.37 177.627 352.162C177.348 351.953 177.126 351.693 176.959 351.383C176.796 351.067 176.715 350.701 176.715 350.283C176.715 350.038 176.741 349.785 176.792 349.525C176.843 349.266 176.919 349.013 177.021 348.767C177.123 348.521 177.246 348.289 177.39 348.071C177.534 347.853 177.698 347.663 177.884 347.501C178.069 347.334 178.273 347.204 178.496 347.111C178.719 347.014 178.96 346.965 179.22 346.965C179.54 346.965 179.839 347.032 180.117 347.167C180.395 347.301 180.648 347.485 180.875 347.717C181.102 347.944 181.304 348.208 181.48 348.51C181.657 348.811 181.805 349.129 181.926 349.463C182.046 349.797 182.137 350.137 182.197 350.485C182.262 350.828 182.294 351.155 182.294 351.466C182.294 351.995 182.22 352.454 182.072 352.843C181.928 353.233 181.724 353.567 181.46 353.845C181.2 354.123 180.887 354.351 180.52 354.527C180.159 354.703 179.758 354.842 179.317 354.944C178.876 355.046 178.403 355.116 177.898 355.153C177.397 355.19 176.878 355.209 176.34 355.209H176.103V353.428H176.27ZM179.22 348.76C179.196 348.755 179.173 348.753 179.15 348.753C179.057 348.753 178.951 348.79 178.83 348.864C178.709 348.939 178.593 349.045 178.482 349.184C178.371 349.323 178.28 349.481 178.211 349.657C178.141 349.829 178.107 349.998 178.107 350.165C178.107 350.174 178.107 350.184 178.107 350.193C178.107 350.36 178.144 350.497 178.218 350.603C178.292 350.706 178.392 350.784 178.517 350.84C178.647 350.896 178.795 350.935 178.962 350.958C179.134 350.981 179.315 350.998 179.505 351.007C179.63 351.012 179.76 351.014 179.894 351.014C179.959 351.014 180.059 351.014 180.193 351.014C180.333 351.009 180.474 351.002 180.618 350.993C180.576 350.826 180.516 350.62 180.437 350.374C180.363 350.123 180.268 349.882 180.152 349.65C180.04 349.414 179.906 349.21 179.748 349.038C179.595 348.867 179.419 348.774 179.22 348.76ZM180.5 344.704L179.164 346.04L177.835 344.704L179.164 343.376L180.5 344.704ZM185.532 344.141C185.648 345.027 185.729 345.873 185.775 346.68C185.821 347.482 185.849 348.268 185.859 349.038C185.868 349.692 185.87 350.297 185.866 350.854C185.866 351.41 185.861 351.93 185.852 352.412C185.842 352.89 185.828 353.337 185.81 353.755C185.791 354.168 185.773 354.555 185.754 354.917L183.932 355.195C184.029 353.664 184.078 352.312 184.078 351.139C184.078 350.666 184.071 350.223 184.057 349.81C184.02 348.86 183.978 347.967 183.932 347.132C183.885 346.293 183.823 345.49 183.744 344.725L185.532 344.141ZM197.157 359.744C196.359 359.744 195.622 359.645 194.945 359.445C194.267 359.25 193.69 358.954 193.212 358.555C192.735 358.161 192.375 357.664 192.134 357.066C191.939 356.598 191.842 356.067 191.842 355.473C191.842 355.315 191.849 355.153 191.863 354.986C191.891 354.666 191.928 354.339 191.974 354.005C192.025 353.671 192.092 353.321 192.176 352.955C192.264 352.584 192.375 352.192 192.51 351.779C192.644 351.366 192.811 350.921 193.011 350.443L194.444 351.104C194.254 351.577 194.096 352.016 193.971 352.419C193.845 352.818 193.746 353.189 193.672 353.532C193.602 353.875 193.553 354.198 193.525 354.499C193.498 354.801 193.484 355.09 193.484 355.369C193.484 355.703 193.525 356.002 193.609 356.266C193.697 356.53 193.808 356.767 193.943 356.976C194.124 357.221 194.351 357.409 194.625 357.539C194.898 357.674 195.186 357.771 195.487 357.831C195.793 357.892 196.092 357.926 196.385 357.936C196.681 357.95 196.939 357.957 197.157 357.957C197.287 357.957 197.474 357.947 197.72 357.929C197.971 357.91 198.242 357.878 198.534 357.831C198.831 357.785 199.135 357.725 199.445 357.65C199.756 357.576 200.037 357.483 200.287 357.372C200.542 357.261 200.749 357.131 200.906 356.983C201.069 356.834 201.15 356.66 201.15 356.461C201.15 356.428 201.108 356.377 201.025 356.308C200.946 356.243 200.834 356.169 200.691 356.085C200.552 356.002 200.387 355.914 200.197 355.821C200.007 355.733 199.803 355.647 199.585 355.563C199.265 355.457 198.947 355.378 198.632 355.327C198.316 355.276 198.003 355.223 197.692 355.167L197.929 353.428H203.452V355.209H202.152C202.337 355.436 202.46 355.659 202.52 355.877C202.585 356.099 202.62 356.294 202.625 356.461C202.606 356.869 202.502 357.233 202.312 357.553C202.121 357.878 201.876 358.161 201.574 358.402C201.277 358.648 200.939 358.854 200.558 359.021C200.178 359.192 199.789 359.332 199.39 359.438C198.991 359.545 198.597 359.621 198.207 359.668C197.822 359.719 197.472 359.744 197.157 359.744ZM203.473 353.428C203.71 353.428 203.932 353.381 204.141 353.289C204.355 353.191 204.556 353.02 204.746 352.774C204.941 352.523 205.122 352.183 205.289 351.751C205.461 351.32 205.623 350.768 205.776 350.096L207.48 350.576C207.369 350.961 207.269 351.332 207.181 351.689C207.093 352.041 207.044 352.345 207.035 352.6C207.035 352.623 207.035 352.644 207.035 352.663C207.035 352.746 207.042 352.834 207.056 352.927C207.075 353.02 207.105 353.106 207.146 353.184C207.188 353.263 207.244 353.326 207.313 353.372C207.378 353.414 207.45 353.435 207.529 353.435C207.538 353.435 207.548 353.435 207.557 353.435C207.728 353.43 207.891 353.368 208.044 353.247C208.197 353.126 208.338 352.971 208.468 352.781C208.603 352.591 208.723 352.375 208.83 352.134C208.941 351.893 209.039 351.649 209.122 351.403C209.21 351.153 209.284 350.91 209.345 350.673C209.405 350.437 209.451 350.228 209.484 350.047L211.126 350.381C211.065 350.659 211.017 350.917 210.979 351.153C210.942 351.385 210.919 351.619 210.91 351.856C210.905 351.916 210.903 351.976 210.903 352.037C210.903 352.152 210.91 352.289 210.924 352.447C210.942 352.6 210.982 352.751 211.042 352.899C211.102 353.048 211.186 353.17 211.292 353.268C211.404 353.361 211.548 353.407 211.724 353.407C211.923 353.407 212.083 353.33 212.204 353.177C212.329 353.02 212.424 352.82 212.489 352.579C212.554 352.338 212.596 352.071 212.614 351.779C212.637 351.482 212.649 351.195 212.649 350.917C212.649 350.828 212.647 350.759 212.642 350.708C212.642 350.652 212.642 350.601 212.642 350.555C212.642 350.508 212.64 350.457 212.635 350.402C212.635 350.341 212.635 350.26 212.635 350.158L214.395 350.019C214.409 350.172 214.423 350.323 214.437 350.471C214.451 350.615 214.465 350.766 214.479 350.923C214.492 351.077 214.509 351.241 214.527 351.417C214.55 351.589 214.576 351.777 214.604 351.981C214.636 352.222 214.704 352.433 214.806 352.614C214.912 352.795 215.035 352.946 215.174 353.066C215.313 353.187 215.462 353.277 215.619 353.337C215.782 353.398 215.935 353.428 216.079 353.428H216.336V355.209H216.113C215.886 355.209 215.661 355.186 215.439 355.139C215.221 355.093 215.012 355.021 214.812 354.923C214.613 354.826 214.425 354.703 214.249 354.555C214.077 354.402 213.927 354.221 213.797 354.012C213.574 354.374 213.282 354.664 212.92 354.882C212.559 355.1 212.16 355.209 211.724 355.209C211.288 355.209 210.891 355.104 210.534 354.896C210.182 354.687 209.901 354.409 209.692 354.061C209.558 354.232 209.412 354.39 209.254 354.534C209.101 354.673 208.934 354.796 208.753 354.903C208.577 355.005 208.389 355.083 208.19 355.139C207.99 355.199 207.782 355.23 207.564 355.23C207.355 355.23 207.153 355.202 206.959 355.146C206.764 355.095 206.583 355.019 206.416 354.917C206.249 354.814 206.098 354.692 205.964 354.548C205.829 354.399 205.718 354.235 205.63 354.054C205.398 354.462 205.113 354.757 204.774 354.937C204.436 355.118 204.004 355.209 203.48 355.209H203.181V353.428H203.473ZM222.261 353.428V355.209H222.122C221.672 355.209 221.292 355.137 220.981 354.993C220.671 354.849 220.406 354.664 220.188 354.437C220.035 354.631 219.808 354.782 219.507 354.889C219.21 354.991 218.878 355.065 218.512 355.111C218.145 355.162 217.767 355.19 217.378 355.195C216.993 355.204 216.638 355.209 216.314 355.209H216.056V353.428H216.314C216.856 353.428 217.313 353.398 217.684 353.337C218.055 353.272 218.354 353.18 218.581 353.059C218.813 352.939 218.98 352.788 219.082 352.607C219.184 352.421 219.235 352.208 219.235 351.967C219.235 351.809 219.205 351.601 219.145 351.341C219.085 351.077 218.994 350.738 218.874 350.325L220.585 349.845C220.645 350.049 220.692 350.23 220.724 350.388C220.761 350.541 220.789 350.696 220.807 350.854C220.831 351.007 220.849 351.174 220.863 351.355C220.882 351.531 220.9 351.742 220.919 351.988C220.933 352.136 220.967 352.296 221.023 352.468C221.079 352.635 221.155 352.79 221.253 352.934C221.355 353.073 221.478 353.191 221.621 353.289C221.765 353.381 221.932 353.428 222.122 353.428H222.261ZM218.644 357.268L217.461 358.45L216.265 357.261L217.447 356.071L218.644 357.268ZM221.274 357.275L220.091 358.464L218.894 357.268L220.077 356.085L221.274 357.275ZM221.978 353.428H222.486C222.653 353.428 222.808 353.414 222.952 353.386C223.096 353.358 223.223 353.3 223.335 353.212C223.446 353.119 223.536 352.992 223.606 352.83C223.675 352.667 223.72 352.449 223.738 352.176C223.738 352.069 223.74 351.883 223.745 351.619C223.754 351.35 223.761 351.032 223.766 350.666C223.771 350.295 223.775 349.889 223.78 349.449C223.784 349.008 223.787 348.558 223.787 348.099C223.787 347.742 223.784 347.392 223.78 347.049C223.78 346.701 223.775 346.367 223.766 346.047C223.761 345.727 223.75 345.426 223.731 345.143C223.717 344.86 223.696 344.602 223.668 344.37L225.442 344.141C225.475 344.391 225.5 344.674 225.519 344.99C225.537 345.305 225.551 345.641 225.561 345.998C225.575 346.351 225.582 346.722 225.582 347.111C225.586 347.496 225.588 347.886 225.588 348.28C225.588 349.157 225.579 349.919 225.561 350.569C225.547 351.218 225.54 351.793 225.54 352.294C225.54 352.646 225.63 352.925 225.811 353.129C225.992 353.328 226.261 353.428 226.618 353.428H226.771V355.209H226.618C226.59 355.209 226.565 355.209 226.542 355.209C226.361 355.209 226.182 355.192 226.006 355.16C225.834 355.132 225.667 355.088 225.505 355.028C225.347 354.972 225.201 354.905 225.067 354.826C224.932 354.747 224.814 354.666 224.712 354.583C224.577 354.712 224.429 354.819 224.267 354.903C224.109 354.981 223.947 355.044 223.78 355.09C223.613 355.137 223.448 355.167 223.286 355.181C223.124 355.199 222.977 355.209 222.848 355.209H221.978V353.428ZM226.494 353.428H228.657C228.926 353.428 229.167 353.395 229.381 353.33C229.599 353.266 229.782 353.182 229.93 353.08C230.079 352.973 230.192 352.853 230.271 352.718C230.355 352.579 230.396 352.438 230.396 352.294C230.396 352.071 230.352 351.83 230.264 351.57C230.176 351.306 230.058 351.039 229.909 350.77C229.766 350.497 229.594 350.223 229.395 349.95C229.2 349.671 228.993 349.407 228.775 349.157C228.557 348.901 228.333 348.665 228.101 348.447C227.873 348.229 227.655 348.037 227.447 347.87L227.614 345.908L233.701 343.334L234.348 344.927L229.095 347.083C229.453 347.394 229.763 347.703 230.028 348.009C230.297 348.31 230.535 348.614 230.744 348.92C230.957 349.221 231.15 349.525 231.322 349.831C231.493 350.137 231.66 350.446 231.822 350.757C231.938 350.979 232.054 351.197 232.17 351.41C232.286 351.624 232.411 351.842 232.546 352.064V352.057C232.671 352.266 232.803 352.454 232.942 352.621C233.086 352.788 233.239 352.932 233.402 353.052C233.568 353.173 233.749 353.266 233.944 353.33C234.144 353.395 234.362 353.428 234.598 353.428H235.036V355.209H234.835C234.464 355.209 234.127 355.183 233.826 355.132C233.524 355.081 233.244 355 232.984 354.889C232.729 354.777 232.488 354.636 232.261 354.464C232.038 354.288 231.818 354.077 231.6 353.831C231.437 354.072 231.254 354.279 231.05 354.45C230.846 354.617 230.626 354.757 230.389 354.868C230.153 354.974 229.902 355.053 229.638 355.104C229.378 355.16 229.109 355.195 228.831 355.209H226.494V353.428ZM233.485 342.68L227.614 345.073L227.662 344.176L233.144 341.97L233.485 342.68ZM234.759 353.428H235.879C236.097 353.428 236.32 353.416 236.547 353.393C236.779 353.365 236.988 353.312 237.173 353.233C237.359 353.15 237.509 353.031 237.625 352.878C237.746 352.725 237.806 352.521 237.806 352.266C237.806 352.146 237.781 351.976 237.73 351.758C237.679 351.54 237.611 351.299 237.528 351.035C237.445 350.77 237.345 350.497 237.229 350.214C237.118 349.931 236.999 349.667 236.874 349.421L238.481 348.628C238.597 348.892 238.713 349.173 238.829 349.47C238.945 349.766 239.047 350.072 239.135 350.388C239.228 350.699 239.302 351.012 239.358 351.327C239.413 351.642 239.441 351.951 239.441 352.252C239.441 352.772 239.353 353.219 239.177 353.595C239 353.966 238.755 354.272 238.439 354.513C238.124 354.75 237.746 354.923 237.305 355.035C236.869 355.151 236.389 355.209 235.865 355.209H234.759V353.428ZM238.314 346.27L236.978 347.605L235.65 346.27L236.978 344.941L238.314 346.27ZM242.657 344.141C242.773 345.027 242.854 345.873 242.9 346.68C242.946 347.482 242.974 348.268 242.984 349.038C242.993 349.692 242.995 350.297 242.991 350.854C242.991 351.41 242.986 351.93 242.977 352.412C242.967 352.89 242.953 353.337 242.935 353.755C242.916 354.168 242.898 354.555 242.879 354.917L241.057 355.195C241.154 353.664 241.203 352.312 241.203 351.139C241.203 350.666 241.196 350.223 241.182 349.81C241.145 348.86 241.103 347.967 241.057 347.132C241.01 346.293 240.948 345.49 240.869 344.725L242.657 344.141Z" fill="black"/>
</svg>
