<svg width="400" height="400" viewBox="0 0 400 400" fill="none" xmlns="http://www.w3.org/2000/svg">
<rect width="400" height="400" fill="white"/>
<path d="M150.86 53.7443C150.062 53.7443 149.325 53.6446 148.648 53.4452C147.971 53.2504 147.393 52.9536 146.916 52.5548C146.438 52.1606 146.078 51.6643 145.837 51.0661C145.642 50.5977 145.545 50.0667 145.545 49.473C145.545 49.3154 145.552 49.153 145.566 48.9861C145.594 48.6661 145.631 48.3391 145.677 48.0052C145.728 47.6713 145.796 47.3212 145.879 46.9548C145.967 46.5838 146.078 46.1919 146.213 45.7791C146.347 45.3664 146.514 44.9212 146.714 44.4435L148.147 45.1043C147.957 45.5774 147.799 46.0157 147.674 46.4191C147.549 46.818 147.449 47.189 147.375 47.5322C147.305 47.8754 147.256 48.1977 147.229 48.4991C147.201 48.8006 147.187 49.0904 147.187 49.3687C147.187 49.7026 147.229 50.0017 147.312 50.2661C147.4 50.5304 147.511 50.767 147.646 50.9757C147.827 51.2214 148.054 51.4093 148.328 51.5391C148.601 51.6736 148.889 51.771 149.19 51.8313C149.496 51.8916 149.796 51.9264 150.088 51.9357C150.384 51.9496 150.642 51.9565 150.86 51.9565C150.99 51.9565 151.178 51.9472 151.423 51.9287C151.674 51.9101 151.945 51.8777 152.237 51.8313C152.534 51.7849 152.838 51.7246 153.149 51.6504C153.459 51.5762 153.74 51.4835 153.99 51.3722C154.245 51.2609 154.452 51.131 154.609 50.9826C154.772 50.8342 154.853 50.6603 154.853 50.4609C154.853 50.4284 154.811 50.3774 154.728 50.3078C154.649 50.2429 154.538 50.1687 154.394 50.0852C154.255 50.0017 154.09 49.9136 153.9 49.8209C153.71 49.7328 153.506 49.647 153.288 49.5635C152.968 49.4568 152.65 49.378 152.335 49.327C152.019 49.2759 151.706 49.2226 151.396 49.167L151.632 47.4278H157.156V49.2087H155.855C156.04 49.4359 156.163 49.6586 156.223 49.8765C156.288 50.0991 156.323 50.2939 156.328 50.4609C156.309 50.869 156.205 51.233 156.015 51.553C155.824 51.8777 155.579 52.1606 155.277 52.4017C154.98 52.6475 154.642 52.8539 154.262 53.0209C153.881 53.1925 153.492 53.3316 153.093 53.4383C152.694 53.5449 152.3 53.6214 151.91 53.6678C151.525 53.7188 151.175 53.7443 150.86 53.7443ZM157.121 47.4278C157.371 47.4278 157.582 47.407 157.754 47.3652C157.925 47.3235 158.067 47.2725 158.178 47.2122C158.29 47.1472 158.378 47.08 158.443 47.0104C158.512 46.9409 158.57 46.8759 158.616 46.8157C158.774 46.5838 158.899 46.3519 158.992 46.12C159.09 45.8835 159.171 45.6516 159.236 45.4243C159.301 45.1925 159.356 44.9652 159.403 44.7426C159.449 44.52 159.5 44.2997 159.556 44.0817L161.058 44.5617C161.007 44.7797 160.961 44.9838 160.919 45.1739C160.882 45.3594 160.859 45.5426 160.85 45.7235C160.85 45.7652 160.85 45.8046 160.85 45.8417C160.85 45.9809 160.863 46.1316 160.891 46.2939C160.919 46.4516 160.982 46.6255 161.079 46.8157C161.158 46.658 161.255 46.4794 161.371 46.28C161.492 46.0759 161.629 45.8649 161.782 45.647C161.939 45.4243 162.113 45.1971 162.303 44.9652C162.498 44.7333 162.707 44.5084 162.93 44.2904C163.194 44.0493 163.472 43.8313 163.764 43.6365C164.056 43.4371 164.358 43.2655 164.669 43.1217C164.984 42.978 165.306 42.8667 165.636 42.7878C165.97 42.709 166.308 42.6696 166.651 42.6696C167.083 42.6696 167.498 42.7507 167.896 42.913C168.295 43.0754 168.643 43.298 168.94 43.5809C169.241 43.8591 169.476 44.1838 169.643 44.5548C169.777 44.8609 169.844 45.1832 169.844 45.5217C169.844 45.5959 169.842 45.6725 169.837 45.7513C169.796 46.2475 169.673 46.6835 169.469 47.0591C169.269 47.4301 169.014 47.7501 168.703 48.0191C168.397 48.2835 168.045 48.5014 167.646 48.673C167.252 48.8446 166.839 48.9791 166.408 49.0765C165.976 49.1786 165.538 49.2481 165.093 49.2852C164.648 49.327 164.221 49.3478 163.813 49.3478C163.354 49.3478 162.941 49.3316 162.575 49.2991C162.208 49.2713 161.87 49.2133 161.559 49.1252C161.248 49.0417 160.954 48.9212 160.676 48.7635C160.402 48.6058 160.124 48.3994 159.841 48.1443C159.521 48.5061 159.145 48.7751 158.714 48.9513C158.287 49.1229 157.761 49.2087 157.135 49.2087H156.884V47.4278H157.121ZM164.126 45.5009C163.936 45.6539 163.755 45.8162 163.583 45.9878C163.412 46.1594 163.254 46.331 163.11 46.5026C162.967 46.6742 162.839 46.8412 162.728 47.0035C162.616 47.1612 162.526 47.3026 162.456 47.4278C162.767 47.4417 163.117 47.4533 163.507 47.4626C163.674 47.4672 163.843 47.4696 164.015 47.4696C164.242 47.4696 164.516 47.4626 164.836 47.4487C165.156 47.4348 165.513 47.3954 165.907 47.3304C166.306 47.2655 166.67 47.1658 166.999 47.0313C167.333 46.8922 167.618 46.709 167.855 46.4817C168.091 46.2545 168.251 45.9693 168.335 45.6261C168.312 45.3896 168.228 45.1901 168.084 45.0278C167.945 44.8655 167.771 44.7403 167.563 44.6522C167.359 44.5594 167.136 44.5014 166.895 44.4783C166.802 44.469 166.709 44.4643 166.616 44.4643C166.468 44.4643 166.324 44.4759 166.185 44.4991C166.009 44.527 165.828 44.5757 165.643 44.6452C165.462 44.7101 165.281 44.789 165.1 44.8817C164.919 44.9699 164.745 45.0672 164.578 45.1739C164.416 45.2806 164.265 45.3896 164.126 45.5009ZM168.189 40.2557L166.853 41.5913L165.524 40.2557L166.853 38.927L168.189 40.2557ZM174.816 49.2087H174.538C173.596 49.2087 172.882 48.9722 172.395 48.4991C171.908 48.0261 171.662 47.3119 171.658 46.3565C171.658 46.2081 171.662 45.9646 171.672 45.6261C171.681 45.2829 171.686 44.8655 171.686 44.3739C171.686 44.0817 171.683 43.7687 171.679 43.4348C171.674 43.0962 171.667 42.753 171.658 42.4052C171.648 42.0528 171.634 41.7026 171.616 41.3548C171.602 41.0023 171.583 40.6638 171.56 40.3391C171.537 40.0099 171.509 39.7038 171.477 39.4209C171.444 39.1333 171.407 38.8806 171.366 38.6626L173.112 38.1409C173.163 38.4099 173.209 38.7391 173.251 39.1287C173.292 39.5136 173.33 39.9264 173.362 40.367C173.394 40.8075 173.418 41.2574 173.432 41.7165C173.45 42.171 173.459 42.6 173.459 43.0035C173.459 43.2493 173.462 43.5113 173.466 43.7896C173.471 44.0632 173.473 44.3043 173.473 44.513C173.473 44.6893 173.471 44.8562 173.466 45.0139C173.466 45.167 173.464 45.3154 173.459 45.4591C173.459 45.6029 173.457 45.7443 173.452 45.8835C173.452 46.0226 173.452 46.1641 173.452 46.3078C173.452 46.3449 173.452 46.382 173.452 46.4191C173.452 46.5861 173.469 46.7345 173.501 46.8643C173.538 46.9942 173.601 47.1032 173.689 47.1913C173.777 47.2748 173.888 47.3351 174.023 47.3722C174.162 47.4093 174.322 47.4278 174.503 47.4278H174.816V49.2087ZM180.746 47.4278V49.2087H180.607C180.157 49.2087 179.776 49.1368 179.466 48.993C179.155 48.8493 178.891 48.6638 178.673 48.4365C178.52 48.6313 178.292 48.782 177.991 48.8887C177.694 48.9907 177.363 49.0649 176.996 49.1113C176.63 49.1623 176.252 49.1901 175.862 49.1948C175.477 49.2041 175.123 49.2087 174.798 49.2087H174.541V47.4278H174.798C175.341 47.4278 175.797 47.3977 176.168 47.3374C176.539 47.2725 176.839 47.1797 177.066 47.0591C177.298 46.9386 177.465 46.7878 177.567 46.607C177.669 46.4214 177.72 46.2081 177.72 45.967C177.72 45.8093 177.69 45.6006 177.629 45.3409C177.569 45.0765 177.479 44.738 177.358 44.3252L179.069 43.8452C179.13 44.0493 179.176 44.2301 179.208 44.3878C179.245 44.5409 179.273 44.6962 179.292 44.8539C179.315 45.007 179.334 45.1739 179.348 45.3548C179.366 45.531 179.385 45.742 179.403 45.9878C179.417 46.1362 179.452 46.2962 179.508 46.4678C179.563 46.6348 179.64 46.7901 179.737 46.9339C179.839 47.073 179.962 47.1913 180.106 47.2887C180.25 47.3814 180.416 47.4278 180.607 47.4278H180.746ZM177.128 51.2678L175.946 52.4504L174.749 51.2609L175.932 50.0713L177.128 51.2678ZM179.758 51.2748L178.575 52.4643L177.379 51.2678L178.561 50.0852L179.758 51.2748ZM180.462 47.4278H181.582C181.8 47.4278 182.023 47.4162 182.25 47.393C182.482 47.3652 182.691 47.3119 182.876 47.233C183.062 47.1496 183.213 47.0313 183.329 46.8783C183.449 46.7252 183.509 46.5212 183.509 46.2661C183.509 46.1455 183.484 45.9762 183.433 45.7583C183.382 45.5403 183.315 45.2991 183.231 45.0348C183.148 44.7704 183.048 44.4968 182.932 44.2139C182.821 43.931 182.702 43.6667 182.577 43.4209L184.184 42.6278C184.3 42.8922 184.416 43.1728 184.532 43.4696C184.648 43.7664 184.75 44.0725 184.838 44.3878C184.931 44.6986 185.005 45.0116 185.061 45.327C185.116 45.6423 185.144 45.9507 185.144 46.2522C185.144 46.7716 185.056 47.2191 184.88 47.5948C184.704 47.9658 184.458 48.2719 184.142 48.513C183.827 48.7496 183.449 48.9235 183.009 49.0348C182.573 49.1507 182.093 49.2087 181.569 49.2087H180.462V47.4278ZM184.045 51.4696L182.709 52.8052L181.381 51.4696L182.709 50.1409L184.045 51.4696ZM196.188 53.7443C195.39 53.7443 194.653 53.6446 193.976 53.4452C193.299 53.2504 192.721 52.9536 192.244 52.5548C191.766 52.1606 191.407 51.6643 191.165 51.0661C190.971 50.5977 190.873 50.0667 190.873 49.473C190.873 49.3154 190.88 49.153 190.894 48.9861C190.922 48.6661 190.959 48.3391 191.005 48.0052C191.056 47.6713 191.124 47.3212 191.207 46.9548C191.295 46.5838 191.407 46.1919 191.541 45.7791C191.676 45.3664 191.842 44.9212 192.042 44.4435L193.475 45.1043C193.285 45.5774 193.127 46.0157 193.002 46.4191C192.877 46.818 192.777 47.189 192.703 47.5322C192.633 47.8754 192.584 48.1977 192.557 48.4991C192.529 48.8006 192.515 49.0904 192.515 49.3687C192.515 49.7026 192.557 50.0017 192.64 50.2661C192.728 50.5304 192.84 50.767 192.974 50.9757C193.155 51.2214 193.382 51.4093 193.656 51.5391C193.929 51.6736 194.217 51.771 194.518 51.8313C194.824 51.8916 195.124 51.9264 195.416 51.9357C195.713 51.9496 195.97 51.9565 196.188 51.9565C196.318 51.9565 196.506 51.9472 196.751 51.9287C197.002 51.9101 197.273 51.8777 197.565 51.8313C197.862 51.7849 198.166 51.7246 198.477 51.6504C198.787 51.5762 199.068 51.4835 199.318 51.3722C199.573 51.2609 199.78 51.131 199.938 50.9826C200.1 50.8342 200.181 50.6603 200.181 50.4609C200.181 50.4284 200.139 50.3774 200.056 50.3078C199.977 50.2429 199.866 50.1687 199.722 50.0852C199.583 50.0017 199.418 49.9136 199.228 49.8209C199.038 49.7328 198.834 49.647 198.616 49.5635C198.296 49.4568 197.978 49.378 197.663 49.327C197.347 49.2759 197.034 49.2226 196.724 49.167L196.96 47.4278H202.484V49.2087H201.183C201.368 49.4359 201.491 49.6586 201.551 49.8765C201.616 50.0991 201.651 50.2939 201.656 50.4609C201.637 50.869 201.533 51.233 201.343 51.553C201.153 51.8777 200.907 52.1606 200.605 52.4017C200.309 52.6475 199.97 52.8539 199.59 53.0209C199.209 53.1925 198.82 53.3316 198.421 53.4383C198.022 53.5449 197.628 53.6214 197.238 53.6678C196.853 53.7188 196.503 53.7443 196.188 53.7443ZM202.212 47.4278H202.72C202.887 47.4278 203.043 47.4139 203.186 47.3861C203.33 47.3583 203.458 47.3003 203.569 47.2122C203.68 47.1194 203.771 46.9919 203.84 46.8296C203.91 46.6672 203.954 46.4493 203.972 46.1757C203.972 46.069 203.975 45.8835 203.979 45.6191C203.989 45.3501 203.996 45.0325 204 44.6661C204.005 44.2951 204.01 43.8893 204.014 43.4487C204.019 43.0081 204.021 42.5583 204.021 42.0991C204.021 41.742 204.019 41.3919 204.014 41.0487C204.014 40.7009 204.01 40.367 204 40.047C203.996 39.727 203.984 39.4255 203.965 39.1426C203.952 38.8597 203.931 38.6023 203.903 38.3704L205.677 38.1409C205.709 38.3913 205.735 38.6742 205.753 38.9896C205.772 39.3049 205.786 39.6412 205.795 39.9983C205.809 40.3507 205.816 40.7217 205.816 41.1113C205.821 41.4962 205.823 41.8858 205.823 42.28C205.823 43.1565 205.814 43.9194 205.795 44.5687C205.781 45.218 205.774 45.793 205.774 46.2939C205.774 46.6464 205.865 46.9246 206.045 47.1287C206.226 47.3281 206.495 47.4278 206.852 47.4278H207.005V49.2087H206.852C206.825 49.2087 206.799 49.2087 206.776 49.2087C206.595 49.2087 206.416 49.1925 206.24 49.16C206.069 49.1322 205.902 49.0881 205.739 49.0278C205.582 48.9722 205.436 48.9049 205.301 48.8261C205.167 48.7472 205.048 48.6661 204.946 48.5826C204.812 48.7125 204.663 48.8191 204.501 48.9026C204.343 48.9814 204.181 49.0441 204.014 49.0904C203.847 49.1368 203.683 49.167 203.52 49.1809C203.358 49.1994 203.212 49.2087 203.082 49.2087H202.212V47.4278ZM206.728 47.4278H208.238C208.813 47.4278 209.397 47.3745 209.991 47.2678C210.589 47.1565 211.183 47.0128 211.772 46.8365C212.361 46.6557 212.936 46.4493 213.497 46.2174C214.058 45.9855 214.589 45.7467 215.09 45.5009C214.691 45.4128 214.32 45.2968 213.977 45.153C213.634 45.0046 213.309 44.8609 213.003 44.7217C212.697 44.5826 212.402 44.462 212.119 44.36C211.836 44.258 211.556 44.207 211.278 44.207C211.115 44.207 210.962 44.2371 210.818 44.2974C210.679 44.353 210.55 44.4249 210.429 44.513C210.308 44.6012 210.199 44.6986 210.102 44.8052C210.009 44.9119 209.926 45.0162 209.852 45.1183C209.782 45.2157 209.724 45.3038 209.678 45.3826C209.631 45.4614 209.599 45.5171 209.58 45.5496L208.133 44.6104C208.291 44.3322 208.479 44.0632 208.697 43.8035C208.915 43.5391 209.156 43.3049 209.42 43.1009C209.689 42.8922 209.979 42.7275 210.29 42.607C210.601 42.4817 210.93 42.4191 211.278 42.4191C211.635 42.4191 211.99 42.4678 212.342 42.5652C212.694 42.658 213.042 42.7786 213.385 42.927C213.733 43.0707 214.081 43.2261 214.429 43.393C214.777 43.56 215.127 43.7177 215.479 43.8661C215.836 44.0099 216.196 44.1328 216.558 44.2348C216.919 44.3322 217.29 44.3832 217.671 44.3878L217.525 46.1826C216.875 46.4933 216.198 46.8226 215.493 47.1704C214.788 47.5183 214.051 47.8406 213.281 48.1374C212.511 48.4296 211.707 48.6777 210.867 48.8817C210.032 49.0812 209.156 49.1901 208.238 49.2087H206.728V47.4278ZM221.782 44.5826C221.875 44.8748 221.97 45.1809 222.067 45.5009C222.169 45.8162 222.26 46.1362 222.338 46.4609C222.422 46.7855 222.489 47.1101 222.54 47.4348C222.591 47.7548 222.617 48.0678 222.617 48.3739C222.617 48.7913 222.552 49.1971 222.422 49.5913C222.297 49.9901 222.12 50.3728 221.893 50.7391C221.671 51.1101 221.404 51.4626 221.093 51.7965C220.787 52.1304 220.453 52.4458 220.091 52.7426C219.73 53.0394 219.347 53.3154 218.944 53.5704C218.54 53.8255 218.132 54.0551 217.719 54.2591L216.926 52.6661C217.256 52.5038 217.58 52.3229 217.9 52.1235C218.22 51.9287 218.524 51.72 218.811 51.4974C219.104 51.2748 219.373 51.0406 219.618 50.7948C219.869 50.549 220.082 50.2939 220.258 50.0296C220.439 49.7652 220.581 49.4939 220.683 49.2157C220.785 48.9374 220.836 48.6568 220.836 48.3739C220.836 48.1096 220.806 47.8313 220.745 47.5391C220.685 47.247 220.611 46.9594 220.523 46.6765C220.439 46.389 220.351 46.113 220.258 45.8487C220.17 45.5843 220.096 45.3501 220.036 45.1461L221.782 44.5826ZM232.587 52.8748C232.856 52.9212 233.127 52.9443 233.401 52.9443C233.471 52.9443 233.607 52.9397 233.811 52.9304C234.016 52.9212 234.278 52.8794 234.598 52.8052C234.918 52.731 235.224 52.6313 235.516 52.5061C235.813 52.3809 236.084 52.2371 236.33 52.0748L237.269 53.633C237 53.7954 236.722 53.9438 236.434 54.0783C236.151 54.2174 235.857 54.3357 235.551 54.433C235.249 54.5304 234.936 54.6046 234.611 54.6557C234.329 54.702 234.039 54.7252 233.742 54.7252C233.696 54.7252 233.647 54.7252 233.596 54.7252C233.16 54.7159 232.724 54.6696 232.288 54.5861C231.857 54.5026 231.444 54.382 231.05 54.2243C230.66 54.0667 230.296 53.8696 229.958 53.633C229.624 53.4012 229.331 53.1299 229.081 52.8191C228.835 52.513 228.64 52.1675 228.497 51.7826C228.353 51.4023 228.279 50.9803 228.274 50.5165C228.288 50.0203 228.381 49.5565 228.552 49.1252C228.724 48.6986 228.951 48.309 229.234 47.9565C229.522 47.5994 229.851 47.2817 230.222 47.0035C230.598 46.7252 230.994 46.4864 231.411 46.287C231.263 46.1478 231.11 46.011 230.952 45.8765C230.799 45.7374 230.651 45.6075 230.507 45.487C230.363 45.3617 230.229 45.2481 230.104 45.1461C229.978 45.0394 229.874 44.949 229.791 44.8748L229.658 43.3861C230.266 42.8574 230.92 42.4609 231.62 42.1965C232.325 41.9275 233.06 41.793 233.825 41.793C234.053 41.793 234.287 41.8093 234.528 41.8417C234.774 41.8742 235.013 41.9252 235.245 41.9948C235.476 42.0643 235.694 42.1548 235.898 42.2661C236.102 42.3774 236.281 42.5142 236.434 42.6765C236.587 42.8342 236.708 43.0174 236.796 43.2261C236.875 43.4301 236.914 43.6574 236.914 43.9078C236.914 43.9217 236.914 43.9357 236.914 43.9496C236.896 44.302 236.826 44.6174 236.705 44.8957C236.589 45.1739 236.436 45.4243 236.246 45.647C236.056 45.8696 235.836 46.069 235.585 46.2452C235.34 46.4214 235.078 46.5838 234.799 46.7322C235.175 46.9409 235.574 47.1101 235.996 47.24C236.422 47.3652 236.838 47.4278 237.241 47.4278H237.478V49.2087H237.241C236.856 49.2087 236.483 49.1693 236.121 49.0904C235.759 49.0116 235.402 48.9003 235.05 48.7565C234.697 48.6081 234.347 48.4342 233.999 48.2348C233.651 48.0307 233.301 47.8058 232.949 47.56C232.61 47.6945 232.267 47.8522 231.919 48.033C231.571 48.2093 231.254 48.418 230.966 48.6591C230.683 48.8957 230.451 49.1646 230.271 49.4661C230.09 49.7675 229.999 50.1084 229.999 50.4887C229.999 50.702 230.041 50.9061 230.125 51.1009C230.213 51.2957 230.326 51.4765 230.465 51.6435C230.605 51.8151 230.765 51.9704 230.945 52.1096C231.126 52.2533 231.312 52.3762 231.502 52.4783C231.697 52.5849 231.887 52.6707 232.072 52.7357C232.262 52.8052 232.434 52.8516 232.587 52.8748ZM233.832 43.4904C233.647 43.4904 233.452 43.5043 233.248 43.5322C233.044 43.5554 232.842 43.5901 232.643 43.6365C232.443 43.6783 232.251 43.7316 232.065 43.7965C231.885 43.8568 231.725 43.9241 231.585 43.9983C231.683 44.1003 231.792 44.2186 231.912 44.353C232.033 44.4829 232.16 44.6197 232.295 44.7635C232.434 44.9072 232.576 45.051 232.719 45.1948C232.863 45.3339 233.005 45.4638 233.144 45.5843C233.45 45.4545 233.735 45.3223 233.999 45.1878C234.264 45.0533 234.493 44.9165 234.688 44.7774C234.887 44.6336 235.045 44.4852 235.161 44.3322C235.277 44.1791 235.337 44.0214 235.342 43.8591C235.337 43.8406 235.307 43.8128 235.251 43.7757C235.196 43.7386 235.105 43.7014 234.98 43.6643C234.86 43.6226 234.704 43.5855 234.514 43.553C234.329 43.5206 234.101 43.4997 233.832 43.4904ZM237.197 47.4278H238.254L238.303 47.3374C238.382 47.1983 238.493 47.0151 238.637 46.7878C238.785 46.5559 238.971 46.2939 239.193 46.0017C239.235 45.7096 239.27 45.3409 239.298 44.8957C239.326 44.4504 239.342 43.9681 239.346 43.4487C239.346 43.1658 239.342 42.8759 239.332 42.5791C239.323 42.2777 239.305 41.9322 239.277 41.5426C239.249 41.153 239.21 40.6986 239.159 40.1791C239.112 39.6551 239.052 39.0313 238.978 38.3078L240.807 37.8348C240.928 38.7252 241.018 39.6388 241.079 40.5757C241.143 41.5125 241.176 42.44 241.176 43.3583V43.9217C241.426 43.7084 241.686 43.5043 241.955 43.3096C242.229 43.1148 242.512 42.9432 242.804 42.7948C243.101 42.6464 243.409 42.5281 243.729 42.44C244.049 42.3519 244.383 42.3078 244.731 42.3078C245.083 42.3078 245.417 42.3635 245.732 42.4748C246.048 42.5861 246.326 42.7484 246.567 42.9617C246.813 43.1704 247.015 43.4255 247.172 43.727C247.33 44.0284 247.428 44.367 247.465 44.7426C247.469 44.8122 247.472 44.8794 247.472 44.9443C247.472 45.4267 247.39 45.8765 247.228 46.2939C247.07 46.7113 246.836 47.0893 246.526 47.4278H248.487V49.2087H246.637C246.27 49.2087 245.862 49.1925 245.412 49.16C244.963 49.1275 244.464 49.0417 243.917 48.9026C243.523 49.0093 243.121 49.0858 242.713 49.1322C242.31 49.1832 241.904 49.2087 241.496 49.2087H237.197V47.4278ZM240.849 47.4278C241.132 47.4278 241.457 47.4209 241.823 47.407C242.194 47.393 242.574 47.3606 242.964 47.3096C243.353 47.2586 243.731 47.182 244.098 47.08C244.469 46.978 244.798 46.8412 245.086 46.6696C245.373 46.498 245.6 46.2823 245.767 46.0226C245.911 45.8 245.983 45.5357 245.983 45.2296C245.983 45.1878 245.981 45.1438 245.976 45.0974C245.967 44.9583 245.92 44.8284 245.837 44.7078C245.758 44.5872 245.647 44.4852 245.503 44.4017C245.364 44.3136 245.197 44.2441 245.002 44.193C244.835 44.1559 244.654 44.1374 244.459 44.1374C244.422 44.1374 244.383 44.1374 244.341 44.1374C244.109 44.1467 243.833 44.207 243.513 44.3183C243.193 44.4249 242.85 44.6058 242.484 44.8609C242.117 45.1159 241.737 45.4522 241.343 45.8696C240.949 46.287 240.564 46.8064 240.188 47.4278H240.849ZM248.379 47.4278C248.866 47.4278 249.335 47.4139 249.785 47.3861C250.234 47.3536 250.645 47.3096 251.016 47.2539C251.387 47.1983 251.707 47.131 251.976 47.0522C252.245 46.9733 252.447 46.8852 252.581 46.7878H251.872C251.463 46.7878 251.074 46.7368 250.703 46.6348C250.336 46.5281 250.014 46.3704 249.736 46.1617C249.458 45.953 249.235 45.6933 249.068 45.3826C248.906 45.0672 248.825 44.7009 248.825 44.2835C248.825 44.0377 248.85 43.7849 248.901 43.5252C248.952 43.2655 249.029 43.0128 249.131 42.767C249.233 42.5212 249.356 42.2893 249.499 42.0713C249.643 41.8533 249.808 41.6632 249.993 41.5009C250.179 41.3339 250.383 41.2041 250.605 41.1113C250.828 41.0139 251.069 40.9652 251.329 40.9652C251.649 40.9652 251.948 41.0325 252.226 41.167C252.505 41.3014 252.757 41.4846 252.985 41.7165C253.212 41.9438 253.414 42.2081 253.59 42.5096C253.766 42.811 253.914 43.1287 254.035 43.4626C254.156 43.7965 254.246 44.1374 254.306 44.4852C254.371 44.8284 254.404 45.1554 254.404 45.4661C254.404 45.9948 254.33 46.4539 254.181 46.8435C254.037 47.233 253.833 47.567 253.569 47.8452C253.309 48.1235 252.996 48.3507 252.63 48.527C252.268 48.7032 251.867 48.8423 251.426 48.9443C250.986 49.0464 250.513 49.1159 250.007 49.153C249.506 49.1901 248.987 49.2087 248.449 49.2087H248.212V47.4278H248.379ZM251.329 42.76C251.306 42.7554 251.283 42.753 251.259 42.753C251.167 42.753 251.06 42.7901 250.939 42.8643C250.819 42.9386 250.703 43.0452 250.592 43.1843C250.48 43.3235 250.39 43.4812 250.32 43.6574C250.251 43.829 250.216 43.9983 250.216 44.1652C250.216 44.1745 250.216 44.1838 250.216 44.193C250.216 44.36 250.253 44.4968 250.327 44.6035C250.401 44.7055 250.501 44.7843 250.626 44.84C250.756 44.8957 250.905 44.9351 251.072 44.9583C251.243 44.9814 251.424 44.9977 251.614 45.007C251.739 45.0116 251.869 45.0139 252.004 45.0139C252.069 45.0139 252.168 45.0139 252.303 45.0139C252.442 45.0093 252.583 45.0023 252.727 44.993C252.685 44.8261 252.625 44.6197 252.546 44.3739C252.472 44.1235 252.377 43.8823 252.261 43.6504C252.15 43.4139 252.015 43.2099 251.858 43.0383C251.705 42.8667 251.528 42.7739 251.329 42.76ZM251.162 38.8713L249.979 40.0539L248.783 38.8643L249.965 37.6748L251.162 38.8713ZM253.792 38.8783L252.609 40.0678L251.412 38.8713L252.595 37.6887L253.792 38.8783Z" fill="black"/>
<path d="M274.697 129.209C274.697 129.223 274.706 129.298 274.723 129.435C274.74 129.565 274.758 129.736 274.775 129.95C274.792 130.156 274.807 130.388 274.818 130.646C274.824 130.824 274.827 131.004 274.827 131.184V131.456C274.804 133.047 274.488 134.068 273.881 134.519V134.508C273.29 134.97 272.489 134.864 271.476 134.188C271.198 134.003 270.946 133.815 270.72 133.622C270.5 133.427 270.28 133.204 270.061 132.953L270.13 133.573C270.199 134.273 270.254 134.985 270.295 135.707C270.341 136.427 270.376 137.142 270.399 137.853C270.428 138.561 270.445 139.255 270.451 139.933C270.463 140.609 270.469 141.249 270.469 141.854L268.741 140.703C268.741 139.596 268.732 138.492 268.715 137.388C268.697 136.277 268.651 135.182 268.576 134.102C268.501 133.015 268.388 131.952 268.237 130.913C268.093 129.87 267.89 128.866 267.629 127.899C267.508 127.442 267.378 126.997 267.239 126.564C267.1 126.13 266.944 125.675 266.77 125.197L268.22 125.058C268.312 125.301 268.396 125.541 268.472 125.779C268.553 126.014 268.631 126.257 268.706 126.509C268.787 126.758 268.868 127.021 268.949 127.297C269.03 127.574 269.12 127.874 269.218 128.197C269.351 128.654 269.482 129.075 269.609 129.459C269.742 129.84 269.893 130.194 270.061 130.522C270.234 130.853 270.431 131.151 270.651 131.416C270.877 131.678 271.152 131.917 271.476 132.133C271.956 132.453 272.318 132.517 272.561 132.324C272.671 132.244 272.761 132.127 272.83 131.971C272.9 131.809 272.955 131.627 272.995 131.424C273.041 131.225 273.073 131.01 273.091 130.778C273.108 130.546 273.117 130.315 273.117 130.086C273.117 129.787 273.102 129.488 273.073 129.191C273.05 128.897 273.024 128.65 272.995 128.45L274.697 129.209ZM278.461 135.245C278.455 135.311 278.452 135.379 278.452 135.448C278.452 136.325 278.99 137.188 280.067 138.038C280.2 138.14 280.336 138.238 280.475 138.331C280.817 138.558 281.178 138.751 281.56 138.908C281.549 138.476 281.523 138.066 281.482 137.677C281.448 137.285 281.401 136.913 281.343 136.562C281.303 136.333 281.245 136.082 281.17 135.809C281.1 135.533 281.011 135.265 280.901 135.004C280.791 134.736 280.66 134.489 280.51 134.263C280.365 134.042 280.2 133.869 280.015 133.746C279.766 133.58 279.549 133.525 279.364 133.583C279.179 133.64 279.022 133.759 278.895 133.938C278.768 134.118 278.666 134.328 278.591 134.57C278.522 134.816 278.478 135.041 278.461 135.245ZM282.151 146.523C281.954 145.494 281.806 144.523 281.708 143.608C281.615 142.691 281.566 141.82 281.56 140.995C281.213 140.833 280.869 140.638 280.527 140.411C280.475 140.376 280.333 140.278 280.102 140.117C279.876 139.959 279.584 139.705 279.225 139.355C278.872 139.001 278.548 138.618 278.252 138.205C277.957 137.786 277.708 137.349 277.506 136.894C277.309 136.436 277.167 135.962 277.08 135.473C277.028 135.181 277.002 134.888 277.002 134.596C277.002 134.395 277.014 134.194 277.037 133.993C277.077 133.652 277.144 133.331 277.237 133.031C277.335 132.728 277.457 132.457 277.601 132.22C277.752 131.986 277.928 131.795 278.131 131.644C278.333 131.494 278.562 131.403 278.817 131.371C279.228 131.325 279.668 131.458 280.136 131.771C280.241 131.84 280.345 131.917 280.449 132C281.045 132.495 281.546 133.131 281.951 133.909C282.507 134.969 282.869 136.319 283.036 137.962C283.1 138.581 283.135 139.269 283.141 140.024V140.535C283.141 141.036 283.146 141.527 283.158 142.008C283.175 142.493 283.201 142.972 283.236 143.448C283.277 143.92 283.326 144.374 283.384 144.809C283.442 145.244 283.508 145.699 283.583 146.173C283.884 148.071 284.165 149.295 284.426 149.844L283.375 150.772C282.929 149.897 282.521 148.481 282.151 146.523Z" fill="black"/>
<path d="M106.165 111.476C106.165 111.49 106.174 111.554 106.191 111.668C106.208 111.774 106.226 111.923 106.243 112.113C106.26 112.296 106.275 112.509 106.286 112.752C106.292 112.922 106.295 113.097 106.295 113.278V113.549C106.272 115.172 105.957 116.613 105.349 117.874V117.864C104.758 119.113 103.957 120.075 102.944 120.751C102.666 120.936 102.414 121.083 102.188 121.192C101.968 121.29 101.748 121.36 101.529 121.402L101.598 121.93C101.667 122.537 101.722 123.175 101.763 123.844C101.809 124.502 101.844 125.171 101.867 125.851C101.896 126.52 101.913 127.191 101.919 127.862C101.931 128.522 101.937 129.154 101.937 129.759L100.209 130.911C100.209 129.805 100.2 128.712 100.183 127.631C100.165 126.544 100.119 125.51 100.044 124.531C99.9686 123.545 99.8558 122.632 99.7053 121.793C99.5606 120.944 99.358 120.209 99.0975 119.59C98.976 119.295 98.8457 119.024 98.7068 118.775C98.5679 118.527 98.4116 118.28 98.238 118.034L99.6879 115.961C99.7805 116.08 99.8644 116.209 99.9397 116.346C100.021 116.473 100.099 116.612 100.174 116.764C100.255 116.905 100.336 117.059 100.417 117.228C100.498 117.397 100.588 117.577 100.686 117.769C100.819 118.049 100.95 118.296 101.077 118.51C101.21 118.713 101.361 118.867 101.529 118.971C101.702 119.071 101.899 119.106 102.119 119.078C102.345 119.039 102.62 118.911 102.944 118.695C103.424 118.375 103.786 117.956 104.029 117.439C104.139 117.213 104.229 116.976 104.298 116.728C104.368 116.473 104.423 116.217 104.463 115.96C104.509 115.7 104.541 115.442 104.559 115.187C104.576 114.932 104.585 114.69 104.585 114.46C104.585 114.161 104.57 113.882 104.541 113.623C104.518 113.36 104.492 113.148 104.463 112.986L106.165 111.476ZM108.991 119.192C108.991 118.705 109.066 118.199 109.217 117.675C109.373 117.139 109.584 116.623 109.851 116.125C110.117 115.621 110.427 115.157 110.78 114.734C111.139 114.307 111.523 113.956 111.934 113.682C112.34 113.412 112.719 113.253 113.072 113.206C113.431 113.154 113.743 113.203 114.01 113.353C114.282 113.491 114.496 113.724 114.652 114.051C114.808 114.371 114.886 114.775 114.886 115.262C114.886 115.756 114.808 116.271 114.652 116.806C114.496 117.335 114.282 117.85 114.01 118.351C113.743 118.848 113.431 119.311 113.072 119.738C112.719 120.154 112.34 120.497 111.934 120.767C111.523 121.041 111.139 121.207 110.78 121.266C110.427 121.313 110.117 121.266 109.851 121.123C109.584 120.981 109.373 120.75 109.217 120.429C109.066 120.098 108.991 119.686 108.991 119.192ZM110.406 118.249C110.406 118.499 110.447 118.709 110.528 118.877C110.609 119.046 110.719 119.167 110.858 119.242C110.997 119.316 111.159 119.34 111.344 119.314C111.529 119.288 111.726 119.205 111.934 119.066C112.143 118.928 112.34 118.748 112.525 118.527C112.716 118.302 112.881 118.06 113.02 117.8C113.159 117.541 113.269 117.273 113.35 116.996C113.431 116.719 113.471 116.456 113.471 116.205C113.471 115.955 113.431 115.745 113.35 115.577C113.269 115.401 113.159 115.276 113.02 115.202C112.881 115.128 112.716 115.106 112.525 115.135C112.34 115.162 112.143 115.244 111.934 115.383C111.726 115.522 111.529 115.702 111.344 115.923C111.159 116.144 110.997 116.384 110.858 116.643C110.719 116.903 110.609 117.174 110.528 117.458C110.447 117.735 110.406 117.998 110.406 118.249Z" fill="black"/>
<path d="M361.95 217.165L361.95 223.956L228.197 314.064L40.6004 190.834L40.6004 184.662L175.329 94.1729L361.95 217.165Z" fill="#E7E7E7" stroke="black"/>
<path d="M362.614 216.95L362.614 223.338L228.789 313.546L228.789 306.662L362.614 216.95Z" fill="#A3A3A3" stroke="black"/>
<path d="M40.5388 184.496L175.706 94.0533L362.558 216.382L228.237 306.598L40.5388 184.496Z" fill="#E7E7E7" stroke="black"/>
<path d="M354.219 210.818L362.646 216.436L228.229 306.716L220.422 301.511L354.219 210.818Z" fill="#A3A3A3" stroke="black"/>
<path d="M181.312 185.513C180.553 185.008 179.954 184.415 179.513 183.735C179.079 183.058 178.872 182.299 178.894 181.455L182.674 181.019C182.698 181.383 182.759 181.71 182.858 182C182.963 182.286 183.09 182.541 183.241 182.765C183.392 182.989 183.557 183.184 183.736 183.35C183.922 183.52 184.11 183.669 184.301 183.796C184.457 183.9 184.633 184.006 184.83 184.114C185.033 184.219 185.244 184.313 185.464 184.398C185.689 184.486 185.915 184.559 186.141 184.617C186.366 184.675 186.589 184.707 186.809 184.715C187.12 184.211 187.431 183.681 187.742 183.123C188.065 182.565 188.385 182.006 188.702 181.444C189.025 180.879 189.345 180.319 189.662 179.765C189.979 179.212 190.29 178.685 190.596 178.185L194.188 179.166L190.149 185.713C189.999 185.953 189.872 186.166 189.769 186.352C189.665 186.538 189.607 186.712 189.596 186.874C189.591 187.041 189.637 187.199 189.736 187.35C189.846 187.501 190.031 187.663 190.292 187.836L190.543 188.004L187.806 189.843L187.554 189.675C187.201 189.44 186.912 189.216 186.686 189.003C186.466 188.795 186.292 188.59 186.164 188.389C186.037 188.196 185.947 188.004 185.895 187.815C185.854 187.625 185.833 187.434 185.833 187.241C185.388 187.183 184.971 187.107 184.584 187.011C184.19 186.918 183.812 186.801 183.447 186.659C183.083 186.516 182.727 186.348 182.379 186.156C182.032 185.97 181.676 185.756 181.312 185.513ZM190.199 187.775L190.763 188.151C191.023 188.324 191.284 188.444 191.544 188.509C191.816 188.575 192.085 188.595 192.351 188.572C192.628 188.548 192.897 188.484 193.157 188.379C193.423 188.278 193.68 188.144 193.928 187.977C194.275 187.752 194.69 187.477 195.176 187.151C195.666 186.821 196.189 186.466 196.743 186.086C197.304 185.702 197.878 185.305 198.467 184.894C199.062 184.479 199.636 184.073 200.191 183.678C200.751 183.278 201.279 182.9 201.776 182.543C202.278 182.183 202.714 181.867 203.084 181.595L206.347 183.098L196.057 190.138C195.699 190.378 195.505 190.628 195.477 190.888C195.46 191.147 195.631 191.396 195.99 191.635L196.181 191.763L193.443 193.601L193.252 193.474C193.009 193.319 192.789 193.146 192.592 192.953C192.401 192.763 192.242 192.568 192.114 192.367C191.981 192.17 191.888 191.977 191.836 191.787C191.784 191.598 191.778 191.428 191.818 191.277C191.546 191.297 191.271 191.291 190.994 191.261C190.716 191.23 190.424 191.163 190.118 191.059C189.811 190.963 189.484 190.826 189.137 190.649C188.79 190.472 188.414 190.248 188.008 189.978L187.461 189.613L190.199 187.775ZM195.835 191.532L197.666 192.753C198.604 193.378 199.519 193.914 200.41 194.362C201.312 194.809 202.201 195.196 203.074 195.523C203.948 195.851 204.812 196.134 205.669 196.372C206.536 196.61 207.401 196.835 208.263 197.047C207.979 196.71 207.718 196.355 207.48 195.98C207.249 195.609 207.008 195.24 206.759 194.873C206.515 194.51 206.249 194.162 205.959 193.83C205.675 193.494 205.339 193.196 204.952 192.938C204.685 192.76 204.35 192.633 203.945 192.557C203.546 192.484 203.15 192.44 202.757 192.425C202.363 192.41 202.008 192.417 201.69 192.444C201.378 192.468 201.173 192.49 201.074 192.509L200.359 190.305C200.966 190.192 201.605 190.112 202.276 190.064C202.946 190.017 203.602 190.017 204.244 190.067C204.898 190.116 205.519 190.221 206.109 190.382C206.705 190.548 207.234 190.785 207.697 191.094C208.039 191.321 208.343 191.574 208.609 191.852C208.882 192.126 209.128 192.414 209.348 192.716C209.574 193.021 209.777 193.334 209.957 193.655C210.142 193.972 210.322 194.288 210.496 194.605C210.658 194.907 210.824 195.21 210.992 195.516C211.166 195.817 211.357 196.119 211.566 196.42C211.78 196.717 212.026 197.009 212.304 197.295C212.582 197.581 212.915 197.857 213.303 198.123L210.427 199.764L208.605 199.338C207.859 199.165 207.107 199 206.349 198.843C205.597 198.682 204.843 198.511 204.085 198.33C203.333 198.146 202.572 197.944 201.803 197.725C201.039 197.502 200.276 197.244 199.512 196.951C198.754 196.655 197.993 196.314 197.23 195.928C196.46 195.546 195.693 195.101 194.929 194.592L193.097 193.37L195.835 191.532ZM195.53 201.322L195.526 198.746L199.377 198.739L199.381 201.315L195.53 201.322Z" fill="black"/>
<path d="M190.706 85.1575C190.543 84.8539 190.543 84.5373 190.706 84.4504L193.353 83.0334C193.516 82.9465 193.779 83.1221 193.941 83.4257C194.104 83.7292 194.104 84.0458 193.941 84.1328L191.588 85.3923L193.941 89.7896C194.104 90.0932 194.104 90.4098 193.941 90.4967C193.779 90.5837 193.516 90.4081 193.353 90.1045L190.706 85.1575ZM245.083 121.556L191 85.5V84.5L245.083 120.556V121.556Z" fill="black"/>
<path d="M38.7057 168.613C38.5433 168.526 38.5433 168.209 38.7057 167.906L41.3533 162.959C41.5158 162.655 41.7792 162.48 41.9416 162.567C42.1041 162.653 42.1041 162.97 41.9416 163.274L39.5883 167.671L41.9416 168.93C42.1041 169.017 42.1041 169.334 41.9416 169.638C41.7792 169.941 41.5158 170.117 41.3533 170.03L38.7057 168.613ZM85.5947 137.5L38.9999 168.563V167.563L85.5947 136.5V137.5Z" fill="black"/>
<path d="M171.889 80.4503C172.051 80.5373 172.051 80.8539 171.889 81.1574L169.241 86.1045C169.079 86.408 168.815 86.5836 168.653 86.4967C168.491 86.4097 168.491 86.0932 168.653 85.7896L171.006 81.3922L168.653 80.1327C168.491 80.0458 168.491 79.7292 168.653 79.4256C168.815 79.1221 169.079 78.9464 169.241 79.0334L171.889 80.4503ZM171.595 81.5L125 112.563V111.563L171.595 80.5V81.5Z" fill="black"/>
<path d="M365.377 199.954C365.54 200.257 365.54 200.574 365.377 200.661L362.73 202.078C362.567 202.165 362.304 201.989 362.141 201.685C361.979 201.382 361.979 201.065 362.141 200.978L364.495 199.719L362.141 195.321C361.979 195.018 361.979 194.701 362.141 194.614C362.304 194.527 362.567 194.703 362.73 195.007L365.377 199.954ZM365.083 200.611L311 164.556V163.556L365.083 199.611V200.611Z" fill="black"/>
<path d="M168.993 359.744C168.195 359.744 167.458 359.645 166.78 359.445C166.103 359.25 165.526 358.954 165.048 358.555C164.571 358.161 164.211 357.664 163.97 357.066C163.775 356.598 163.678 356.067 163.678 355.473C163.678 355.315 163.685 355.153 163.699 354.986C163.727 354.666 163.764 354.339 163.81 354.005C163.861 353.671 163.928 353.321 164.012 352.955C164.1 352.584 164.211 352.192 164.346 351.779C164.48 351.366 164.647 350.921 164.847 350.443L166.28 351.104C166.089 351.577 165.932 352.016 165.807 352.419C165.681 352.818 165.582 353.189 165.507 353.532C165.438 353.875 165.389 354.198 165.361 354.499C165.334 354.801 165.32 355.09 165.32 355.369C165.32 355.703 165.361 356.002 165.445 356.266C165.533 356.53 165.644 356.767 165.779 356.976C165.96 357.221 166.187 357.409 166.46 357.539C166.734 357.674 167.022 357.771 167.323 357.831C167.629 357.892 167.928 357.926 168.22 357.936C168.517 357.95 168.775 357.957 168.993 357.957C169.123 357.957 169.31 357.947 169.556 357.929C169.807 357.91 170.078 357.878 170.37 357.831C170.667 357.785 170.971 357.725 171.281 357.65C171.592 357.576 171.873 357.483 172.123 357.372C172.378 357.261 172.585 357.131 172.742 356.983C172.905 356.834 172.986 356.66 172.986 356.461C172.986 356.428 172.944 356.377 172.86 356.308C172.782 356.243 172.67 356.169 172.527 356.085C172.387 356.002 172.223 355.914 172.033 355.821C171.843 355.733 171.638 355.647 171.42 355.563C171.1 355.457 170.783 355.378 170.467 355.327C170.152 355.276 169.839 355.223 169.528 355.167L169.765 353.428H175.288V355.209H173.987C174.173 355.436 174.296 355.659 174.356 355.877C174.421 356.099 174.456 356.294 174.46 356.461C174.442 356.869 174.338 357.233 174.147 357.553C173.957 357.878 173.712 358.161 173.41 358.402C173.113 358.648 172.775 358.854 172.394 359.021C172.014 359.192 171.625 359.332 171.226 359.438C170.827 359.545 170.433 359.621 170.043 359.668C169.658 359.719 169.308 359.744 168.993 359.744ZM175.017 353.428H175.156C175.458 353.428 175.757 353.428 176.054 353.428C176.355 353.428 176.61 353.416 176.819 353.393C176.726 353.333 176.624 353.247 176.513 353.136C176.401 353.02 176.297 352.885 176.2 352.732C176.107 352.574 176.026 352.398 175.956 352.203C175.891 352.004 175.857 351.786 175.852 351.55C175.847 351.489 175.845 351.429 175.845 351.369C175.845 351.179 175.87 350.968 175.921 350.736C175.977 350.499 176.065 350.258 176.186 350.012C176.311 349.766 176.462 349.537 176.638 349.323C176.814 349.106 177.009 348.918 177.222 348.76C177.436 348.598 177.665 348.472 177.911 348.384C178.129 348.306 178.354 348.266 178.586 348.266C178.614 348.266 178.639 348.266 178.662 348.266C179.038 348.28 179.386 348.377 179.706 348.558C180.03 348.734 180.311 348.964 180.548 349.247C180.784 349.53 180.97 349.852 181.104 350.214C181.239 350.571 181.306 350.937 181.306 351.313C181.306 351.675 181.239 352.025 181.104 352.363C180.974 352.697 180.805 353.01 180.596 353.303C180.819 353.34 181.06 353.37 181.32 353.393C181.584 353.416 181.835 353.428 182.071 353.428H182.259V355.209H182.12C181.763 355.209 181.417 355.202 181.083 355.188C180.754 355.179 180.443 355.153 180.151 355.111C179.859 355.07 179.585 355.012 179.33 354.937C179.08 354.859 178.857 354.752 178.662 354.617C178.523 354.719 178.324 354.808 178.064 354.882C177.809 354.956 177.521 355.016 177.201 355.063C176.881 355.114 176.543 355.151 176.186 355.174C175.833 355.197 175.49 355.209 175.156 355.209H175.017V353.428ZM178.641 350.026C178.521 350.049 178.382 350.098 178.224 350.172C178.071 350.242 177.925 350.341 177.786 350.471C177.651 350.597 177.535 350.752 177.438 350.937C177.345 351.123 177.299 351.343 177.299 351.598C177.299 351.682 177.338 351.791 177.417 351.925C177.496 352.055 177.6 352.187 177.73 352.322C177.86 352.452 178.008 352.574 178.175 352.69C178.342 352.802 178.514 352.881 178.69 352.927C178.829 352.857 178.964 352.767 179.094 352.656C179.228 352.544 179.346 352.424 179.448 352.294C179.55 352.159 179.632 352.023 179.692 351.883C179.757 351.74 179.789 351.603 179.789 351.473C179.789 351.292 179.75 351.121 179.671 350.958C179.597 350.791 179.502 350.643 179.386 350.513C179.27 350.383 179.145 350.277 179.01 350.193C178.88 350.105 178.757 350.049 178.641 350.026ZM178.468 346.04L177.285 347.223L176.088 346.033L177.271 344.843L178.468 346.04ZM181.097 346.047L179.915 347.237L178.718 346.04L179.901 344.857L181.097 346.047ZM182.153 353.428C182.64 353.428 183.108 353.414 183.558 353.386C184.008 353.354 184.418 353.31 184.789 353.254C185.16 353.198 185.48 353.131 185.749 353.052C186.018 352.973 186.22 352.885 186.355 352.788H185.645C185.237 352.788 184.847 352.737 184.476 352.635C184.11 352.528 183.788 352.37 183.509 352.162C183.231 351.953 183.008 351.693 182.842 351.383C182.679 351.067 182.598 350.701 182.598 350.283C182.598 350.038 182.624 349.785 182.675 349.525C182.726 349.266 182.802 349.013 182.904 348.767C183.006 348.521 183.129 348.289 183.273 348.071C183.417 347.853 183.581 347.663 183.767 347.501C183.952 347.334 184.156 347.204 184.379 347.111C184.602 347.014 184.843 346.965 185.102 346.965C185.422 346.965 185.722 347.032 186 347.167C186.278 347.301 186.531 347.485 186.758 347.717C186.985 347.944 187.187 348.208 187.363 348.51C187.539 348.811 187.688 349.129 187.808 349.463C187.929 349.797 188.019 350.137 188.08 350.485C188.145 350.828 188.177 351.155 188.177 351.466C188.177 351.995 188.103 352.454 187.955 352.843C187.811 353.233 187.607 353.567 187.342 353.845C187.083 354.123 186.77 354.351 186.403 354.527C186.042 354.703 185.64 354.842 185.2 354.944C184.759 355.046 184.286 355.116 183.781 355.153C183.28 355.19 182.76 355.209 182.222 355.209H181.986V353.428H182.153ZM185.102 348.76C185.079 348.755 185.056 348.753 185.033 348.753C184.94 348.753 184.833 348.79 184.713 348.864C184.592 348.939 184.476 349.045 184.365 349.184C184.254 349.323 184.163 349.481 184.094 349.657C184.024 349.829 183.989 349.998 183.989 350.165C183.989 350.174 183.989 350.184 183.989 350.193C183.989 350.36 184.026 350.497 184.101 350.603C184.175 350.706 184.275 350.784 184.4 350.84C184.53 350.896 184.678 350.935 184.845 350.958C185.017 350.981 185.197 350.998 185.388 351.007C185.513 351.012 185.643 351.014 185.777 351.014C185.842 351.014 185.942 351.014 186.076 351.014C186.215 351.009 186.357 351.002 186.501 350.993C186.459 350.826 186.399 350.62 186.32 350.374C186.246 350.123 186.151 349.882 186.035 349.65C185.923 349.414 185.789 349.21 185.631 349.038C185.478 348.867 185.302 348.774 185.102 348.76ZM186.382 344.704L185.047 346.04L183.718 344.704L185.047 343.376L186.382 344.704ZM191.414 344.141C191.53 345.027 191.612 345.873 191.658 346.68C191.704 347.482 191.732 348.268 191.741 349.038C191.751 349.692 191.753 350.297 191.748 350.854C191.748 351.41 191.744 351.93 191.734 352.412C191.725 352.89 191.711 353.337 191.693 353.755C191.674 354.168 191.656 354.555 191.637 354.917L189.814 355.195C189.912 353.664 189.961 352.312 189.961 351.139C189.961 350.666 189.954 350.223 189.94 349.81C189.903 348.86 189.861 347.967 189.814 347.132C189.768 346.293 189.705 345.49 189.627 344.725L191.414 344.141ZM203.04 359.744C202.242 359.744 201.504 359.645 200.827 359.445C200.15 359.25 199.573 358.954 199.095 358.555C198.618 358.161 198.258 357.664 198.017 357.066C197.822 356.598 197.725 356.067 197.725 355.473C197.725 355.315 197.732 355.153 197.746 354.986C197.773 354.666 197.811 354.339 197.857 354.005C197.908 353.671 197.975 353.321 198.059 352.955C198.147 352.584 198.258 352.192 198.393 351.779C198.527 351.366 198.694 350.921 198.893 350.443L200.326 351.104C200.136 351.577 199.979 352.016 199.853 352.419C199.728 352.818 199.629 353.189 199.554 353.532C199.485 353.875 199.436 354.198 199.408 354.499C199.38 354.801 199.366 355.09 199.366 355.369C199.366 355.703 199.408 356.002 199.492 356.266C199.58 356.53 199.691 356.767 199.826 356.976C200.006 357.221 200.234 357.409 200.507 357.539C200.781 357.674 201.069 357.771 201.37 357.831C201.676 357.892 201.975 357.926 202.267 357.936C202.564 357.95 202.822 357.957 203.04 357.957C203.169 357.957 203.357 357.947 203.603 357.929C203.853 357.91 204.125 357.878 204.417 357.831C204.714 357.785 205.018 357.725 205.328 357.65C205.639 357.576 205.92 357.483 206.17 357.372C206.425 357.261 206.631 357.131 206.789 356.983C206.951 356.834 207.033 356.66 207.033 356.461C207.033 356.428 206.991 356.377 206.907 356.308C206.829 356.243 206.717 356.169 206.573 356.085C206.434 356.002 206.27 355.914 206.08 355.821C205.889 355.733 205.685 355.647 205.467 355.563C205.147 355.457 204.83 355.378 204.514 355.327C204.199 355.276 203.886 355.223 203.575 355.167L203.812 353.428H209.335V355.209H208.034C208.22 355.436 208.343 355.659 208.403 355.877C208.468 356.099 208.503 356.294 208.507 356.461C208.489 356.869 208.384 357.233 208.194 357.553C208.004 357.878 207.758 358.161 207.457 358.402C207.16 358.648 206.822 358.854 206.441 359.021C206.061 359.192 205.671 359.332 205.273 359.438C204.874 359.545 204.48 359.621 204.09 359.668C203.705 359.719 203.355 359.744 203.04 359.744ZM209.342 353.428C209.597 353.428 209.825 353.372 210.024 353.261C210.228 353.15 210.407 353.001 210.56 352.816C210.717 352.63 210.854 352.419 210.97 352.183C211.091 351.946 211.195 351.703 211.283 351.452C211.371 351.202 211.448 350.956 211.513 350.715C211.578 350.469 211.636 350.249 211.687 350.054L213.426 350.437C213.384 350.566 213.328 350.733 213.259 350.937C213.189 351.137 213.122 351.35 213.057 351.577C212.997 351.8 212.946 352.025 212.904 352.252C212.872 352.424 212.855 352.584 212.855 352.732C212.855 352.779 212.86 352.86 212.869 352.976C212.878 353.092 212.925 353.208 213.008 353.323C213.096 353.435 213.238 353.49 213.433 353.49C213.641 353.49 213.829 353.432 213.996 353.317C214.163 353.196 214.312 353.041 214.441 352.85C214.576 352.656 214.692 352.435 214.789 352.19C214.891 351.944 214.977 351.693 215.047 351.438C215.121 351.179 215.181 350.926 215.227 350.68C215.278 350.434 215.318 350.214 215.346 350.019L216.974 350.332C216.96 350.443 216.939 350.576 216.911 350.729C216.888 350.882 216.862 351.049 216.834 351.23C216.807 351.406 216.779 351.591 216.751 351.786C216.728 351.981 216.709 352.176 216.695 352.37C216.695 352.408 216.695 352.445 216.695 352.482C216.695 352.593 216.707 352.709 216.73 352.83C216.753 352.946 216.802 353.057 216.876 353.163C216.95 353.266 217.048 353.349 217.168 353.414C217.289 353.474 217.437 353.507 217.614 353.511C217.943 353.511 218.212 353.428 218.421 353.261C218.629 353.094 218.734 352.839 218.734 352.496C218.734 352.245 218.699 351.974 218.629 351.682C218.564 351.39 218.483 351.104 218.386 350.826C218.293 350.548 218.193 350.286 218.087 350.04C217.98 349.794 217.887 349.59 217.808 349.428L219.304 348.593C219.332 348.644 219.376 348.737 219.436 348.871C219.501 349.006 219.573 349.173 219.652 349.372C219.735 349.567 219.819 349.787 219.902 350.033C219.986 350.279 220.062 350.539 220.132 350.812C220.206 351.081 220.264 351.357 220.306 351.64C220.352 351.923 220.375 352.201 220.375 352.475C220.375 352.906 220.308 353.296 220.174 353.643C220.044 353.991 219.849 354.288 219.589 354.534C219.334 354.78 219.019 354.968 218.643 355.097C218.281 355.227 217.866 355.292 217.398 355.292C217.384 355.292 217.368 355.292 217.349 355.292C217.331 355.292 217.314 355.292 217.301 355.292C217.083 355.292 216.883 355.262 216.702 355.202C216.521 355.146 216.354 355.067 216.201 354.965C216.053 354.859 215.918 354.738 215.798 354.603C215.682 354.469 215.578 354.332 215.485 354.193C215.378 354.346 215.262 354.49 215.137 354.624C215.012 354.754 214.866 354.868 214.699 354.965C214.536 355.063 214.351 355.139 214.142 355.195C213.938 355.255 213.702 355.288 213.433 355.292C213.419 355.292 213.403 355.292 213.384 355.292C213.175 355.292 212.981 355.264 212.8 355.209C212.623 355.153 212.459 355.077 212.306 354.979C212.157 354.877 212.021 354.759 211.895 354.624C211.775 354.49 211.663 354.348 211.561 354.2C211.473 354.33 211.367 354.455 211.241 354.576C211.121 354.696 210.97 354.805 210.789 354.903C210.613 354.995 210.404 355.07 210.163 355.125C209.922 355.181 209.639 355.209 209.314 355.209H209.064V353.428H209.342ZM224.602 350.583C224.695 350.875 224.79 351.181 224.887 351.501C224.989 351.816 225.08 352.136 225.159 352.461C225.242 352.786 225.309 353.11 225.36 353.435C225.411 353.755 225.437 354.068 225.437 354.374C225.437 354.791 225.372 355.197 225.242 355.591C225.117 355.99 224.941 356.373 224.714 356.739C224.491 357.11 224.224 357.463 223.914 357.797C223.607 358.13 223.274 358.446 222.912 358.743C222.55 359.039 222.167 359.315 221.764 359.57C221.36 359.826 220.952 360.055 220.54 360.259L219.747 358.666C220.076 358.504 220.4 358.323 220.72 358.123C221.04 357.929 221.344 357.72 221.632 357.497C221.924 357.275 222.193 357.041 222.439 356.795C222.689 356.549 222.902 356.294 223.079 356.03C223.26 355.765 223.401 355.494 223.503 355.216C223.605 354.937 223.656 354.657 223.656 354.374C223.656 354.11 223.626 353.831 223.566 353.539C223.505 353.247 223.431 352.959 223.343 352.677C223.26 352.389 223.171 352.113 223.079 351.849C222.991 351.584 222.916 351.35 222.856 351.146L224.602 350.583ZM230.355 355.209H230.077C229.135 355.209 228.421 354.972 227.934 354.499C227.447 354.026 227.201 353.312 227.197 352.357C227.197 352.208 227.201 351.965 227.211 351.626C227.22 351.283 227.225 350.866 227.225 350.374C227.225 350.082 227.222 349.769 227.218 349.435C227.213 349.096 227.206 348.753 227.197 348.405C227.187 348.053 227.174 347.703 227.155 347.355C227.141 347.002 227.123 346.664 227.099 346.339C227.076 346.01 227.048 345.704 227.016 345.421C226.983 345.133 226.946 344.881 226.905 344.663L228.651 344.141C228.702 344.41 228.748 344.739 228.79 345.129C228.832 345.514 228.869 345.926 228.901 346.367C228.934 346.808 228.957 347.257 228.971 347.717C228.989 348.171 228.998 348.6 228.998 349.003C228.998 349.249 229.001 349.511 229.005 349.79C229.01 350.063 229.012 350.304 229.012 350.513C229.012 350.689 229.01 350.856 229.005 351.014C229.005 351.167 229.003 351.315 228.998 351.459C228.998 351.603 228.996 351.744 228.992 351.883C228.992 352.023 228.992 352.164 228.992 352.308C228.992 352.345 228.992 352.382 228.992 352.419C228.992 352.586 229.008 352.734 229.04 352.864C229.077 352.994 229.14 353.103 229.228 353.191C229.316 353.275 229.427 353.335 229.562 353.372C229.701 353.409 229.861 353.428 230.042 353.428H230.355V355.209ZM230.247 353.428C230.734 353.428 231.202 353.414 231.652 353.386C232.102 353.354 232.512 353.31 232.883 353.254C233.254 353.198 233.574 353.131 233.843 353.052C234.112 352.973 234.314 352.885 234.448 352.788H233.739C233.331 352.788 232.941 352.737 232.57 352.635C232.204 352.528 231.881 352.37 231.603 352.162C231.325 351.953 231.102 351.693 230.935 351.383C230.773 351.067 230.692 350.701 230.692 350.283C230.692 350.038 230.717 349.785 230.768 349.525C230.819 349.266 230.896 349.013 230.998 348.767C231.1 348.521 231.223 348.289 231.367 348.071C231.51 347.853 231.675 347.663 231.86 347.501C232.046 347.334 232.25 347.204 232.473 347.111C232.695 347.014 232.936 346.965 233.196 346.965C233.516 346.965 233.815 347.032 234.094 347.167C234.372 347.301 234.625 347.485 234.852 347.717C235.079 347.944 235.281 348.208 235.457 348.51C235.633 348.811 235.782 349.129 235.902 349.463C236.023 349.797 236.113 350.137 236.174 350.485C236.238 350.828 236.271 351.155 236.271 351.466C236.271 351.995 236.197 352.454 236.048 352.843C235.905 353.233 235.7 353.567 235.436 353.845C235.176 354.123 234.863 354.351 234.497 354.527C234.135 354.703 233.734 354.842 233.294 354.944C232.853 355.046 232.38 355.116 231.874 355.153C231.374 355.19 230.854 355.209 230.316 355.209H230.08V353.428H230.247ZM233.196 348.76C233.173 348.755 233.15 348.753 233.127 348.753C233.034 348.753 232.927 348.79 232.807 348.864C232.686 348.939 232.57 349.045 232.459 349.184C232.347 349.323 232.257 349.481 232.187 349.657C232.118 349.829 232.083 349.998 232.083 350.165C232.083 350.174 232.083 350.184 232.083 350.193C232.083 350.36 232.12 350.497 232.194 350.603C232.269 350.706 232.368 350.784 232.494 350.84C232.623 350.896 232.772 350.935 232.939 350.958C233.11 350.981 233.291 350.998 233.481 351.007C233.607 351.012 233.736 351.014 233.871 351.014C233.936 351.014 234.036 351.014 234.17 351.014C234.309 351.009 234.451 351.002 234.594 350.993C234.553 350.826 234.492 350.62 234.414 350.374C234.339 350.123 234.244 349.882 234.128 349.65C234.017 349.414 233.883 349.21 233.725 349.038C233.572 348.867 233.396 348.774 233.196 348.76ZM234.476 344.704L233.14 346.04L231.812 344.704L233.14 343.376L234.476 344.704Z" fill="black"/>
</svg>
