<svg width="400" height="400" viewBox="0 0 400 400" fill="none" xmlns="http://www.w3.org/2000/svg">
<rect width="400" height="400" fill="white"/>
<path d="M150.86 53.7443C150.062 53.7443 149.325 53.6446 148.648 53.4452C147.971 53.2504 147.393 52.9536 146.916 52.5548C146.438 52.1606 146.078 51.6643 145.837 51.0661C145.642 50.5977 145.545 50.0667 145.545 49.473C145.545 49.3154 145.552 49.153 145.566 48.9861C145.594 48.6661 145.631 48.3391 145.677 48.0052C145.728 47.6713 145.796 47.3212 145.879 46.9548C145.967 46.5838 146.078 46.1919 146.213 45.7791C146.347 45.3664 146.514 44.9212 146.714 44.4435L148.147 45.1043C147.957 45.5774 147.799 46.0157 147.674 46.4191C147.549 46.818 147.449 47.189 147.375 47.5322C147.305 47.8754 147.256 48.1977 147.229 48.4991C147.201 48.8006 147.187 49.0904 147.187 49.3687C147.187 49.7026 147.229 50.0017 147.312 50.2661C147.4 50.5304 147.511 50.767 147.646 50.9757C147.827 51.2214 148.054 51.4093 148.328 51.5391C148.601 51.6736 148.889 51.771 149.19 51.8313C149.496 51.8916 149.796 51.9264 150.088 51.9357C150.384 51.9496 150.642 51.9565 150.86 51.9565C150.99 51.9565 151.178 51.9472 151.423 51.9287C151.674 51.9101 151.945 51.8777 152.237 51.8313C152.534 51.7849 152.838 51.7246 153.149 51.6504C153.459 51.5762 153.74 51.4835 153.99 51.3722C154.245 51.2609 154.452 51.131 154.609 50.9826C154.772 50.8342 154.853 50.6603 154.853 50.4609C154.853 50.4284 154.811 50.3774 154.728 50.3078C154.649 50.2429 154.538 50.1687 154.394 50.0852C154.255 50.0017 154.09 49.9136 153.9 49.8209C153.71 49.7328 153.506 49.647 153.288 49.5635C152.968 49.4568 152.65 49.378 152.335 49.327C152.019 49.2759 151.706 49.2226 151.396 49.167L151.632 47.4278H157.156V49.2087H155.855C156.04 49.4359 156.163 49.6586 156.223 49.8765C156.288 50.0991 156.323 50.2939 156.328 50.4609C156.309 50.869 156.205 51.233 156.015 51.553C155.824 51.8777 155.579 52.1606 155.277 52.4017C154.98 52.6475 154.642 52.8539 154.262 53.0209C153.881 53.1925 153.492 53.3316 153.093 53.4383C152.694 53.5449 152.3 53.6214 151.91 53.6678C151.525 53.7188 151.175 53.7443 150.86 53.7443ZM157.121 47.4278C157.371 47.4278 157.582 47.407 157.754 47.3652C157.925 47.3235 158.067 47.2725 158.178 47.2122C158.29 47.1472 158.378 47.08 158.443 47.0104C158.512 46.9409 158.57 46.8759 158.616 46.8157C158.774 46.5838 158.899 46.3519 158.992 46.12C159.09 45.8835 159.171 45.6516 159.236 45.4243C159.301 45.1925 159.356 44.9652 159.403 44.7426C159.449 44.52 159.5 44.2997 159.556 44.0817L161.058 44.5617C161.007 44.7797 160.961 44.9838 160.919 45.1739C160.882 45.3594 160.859 45.5426 160.85 45.7235C160.85 45.7652 160.85 45.8046 160.85 45.8417C160.85 45.9809 160.863 46.1316 160.891 46.2939C160.919 46.4516 160.982 46.6255 161.079 46.8157C161.158 46.658 161.255 46.4794 161.371 46.28C161.492 46.0759 161.629 45.8649 161.782 45.647C161.939 45.4243 162.113 45.1971 162.303 44.9652C162.498 44.7333 162.707 44.5084 162.93 44.2904C163.194 44.0493 163.472 43.8313 163.764 43.6365C164.056 43.4371 164.358 43.2655 164.669 43.1217C164.984 42.978 165.306 42.8667 165.636 42.7878C165.97 42.709 166.308 42.6696 166.651 42.6696C167.083 42.6696 167.498 42.7507 167.896 42.913C168.295 43.0754 168.643 43.298 168.94 43.5809C169.241 43.8591 169.476 44.1838 169.643 44.5548C169.777 44.8609 169.844 45.1832 169.844 45.5217C169.844 45.5959 169.842 45.6725 169.837 45.7513C169.796 46.2475 169.673 46.6835 169.469 47.0591C169.269 47.4301 169.014 47.7501 168.703 48.0191C168.397 48.2835 168.045 48.5014 167.646 48.673C167.252 48.8446 166.839 48.9791 166.408 49.0765C165.976 49.1786 165.538 49.2481 165.093 49.2852C164.648 49.327 164.221 49.3478 163.813 49.3478C163.354 49.3478 162.941 49.3316 162.575 49.2991C162.208 49.2713 161.87 49.2133 161.559 49.1252C161.248 49.0417 160.954 48.9212 160.676 48.7635C160.402 48.6058 160.124 48.3994 159.841 48.1443C159.521 48.5061 159.145 48.7751 158.714 48.9513C158.287 49.1229 157.761 49.2087 157.135 49.2087H156.884V47.4278H157.121ZM164.126 45.5009C163.936 45.6539 163.755 45.8162 163.583 45.9878C163.412 46.1594 163.254 46.331 163.11 46.5026C162.967 46.6742 162.839 46.8412 162.728 47.0035C162.616 47.1612 162.526 47.3026 162.456 47.4278C162.767 47.4417 163.117 47.4533 163.507 47.4626C163.674 47.4672 163.843 47.4696 164.015 47.4696C164.242 47.4696 164.516 47.4626 164.836 47.4487C165.156 47.4348 165.513 47.3954 165.907 47.3304C166.306 47.2655 166.67 47.1658 166.999 47.0313C167.333 46.8922 167.618 46.709 167.855 46.4817C168.091 46.2545 168.251 45.9693 168.335 45.6261C168.312 45.3896 168.228 45.1901 168.084 45.0278C167.945 44.8655 167.771 44.7403 167.563 44.6522C167.359 44.5594 167.136 44.5014 166.895 44.4783C166.802 44.469 166.709 44.4643 166.616 44.4643C166.468 44.4643 166.324 44.4759 166.185 44.4991C166.009 44.527 165.828 44.5757 165.643 44.6452C165.462 44.7101 165.281 44.789 165.1 44.8817C164.919 44.9699 164.745 45.0672 164.578 45.1739C164.416 45.2806 164.265 45.3896 164.126 45.5009ZM168.189 40.2557L166.853 41.5913L165.524 40.2557L166.853 38.927L168.189 40.2557ZM174.816 49.2087H174.538C173.596 49.2087 172.882 48.9722 172.395 48.4991C171.908 48.0261 171.662 47.3119 171.658 46.3565C171.658 46.2081 171.662 45.9646 171.672 45.6261C171.681 45.2829 171.686 44.8655 171.686 44.3739C171.686 44.0817 171.683 43.7687 171.679 43.4348C171.674 43.0962 171.667 42.753 171.658 42.4052C171.648 42.0528 171.634 41.7026 171.616 41.3548C171.602 41.0023 171.583 40.6638 171.56 40.3391C171.537 40.0099 171.509 39.7038 171.477 39.4209C171.444 39.1333 171.407 38.8806 171.366 38.6626L173.112 38.1409C173.163 38.4099 173.209 38.7391 173.251 39.1287C173.292 39.5136 173.33 39.9264 173.362 40.367C173.394 40.8075 173.418 41.2574 173.432 41.7165C173.45 42.171 173.459 42.6 173.459 43.0035C173.459 43.2493 173.462 43.5113 173.466 43.7896C173.471 44.0632 173.473 44.3043 173.473 44.513C173.473 44.6893 173.471 44.8562 173.466 45.0139C173.466 45.167 173.464 45.3154 173.459 45.4591C173.459 45.6029 173.457 45.7443 173.452 45.8835C173.452 46.0226 173.452 46.1641 173.452 46.3078C173.452 46.3449 173.452 46.382 173.452 46.4191C173.452 46.5861 173.469 46.7345 173.501 46.8643C173.538 46.9942 173.601 47.1032 173.689 47.1913C173.777 47.2748 173.888 47.3351 174.023 47.3722C174.162 47.4093 174.322 47.4278 174.503 47.4278H174.816V49.2087ZM180.746 47.4278V49.2087H180.607C180.157 49.2087 179.776 49.1368 179.466 48.993C179.155 48.8493 178.891 48.6638 178.673 48.4365C178.52 48.6313 178.292 48.782 177.991 48.8887C177.694 48.9907 177.363 49.0649 176.996 49.1113C176.63 49.1623 176.252 49.1901 175.862 49.1948C175.477 49.2041 175.123 49.2087 174.798 49.2087H174.541V47.4278H174.798C175.341 47.4278 175.797 47.3977 176.168 47.3374C176.539 47.2725 176.839 47.1797 177.066 47.0591C177.298 46.9386 177.465 46.7878 177.567 46.607C177.669 46.4214 177.72 46.2081 177.72 45.967C177.72 45.8093 177.69 45.6006 177.629 45.3409C177.569 45.0765 177.479 44.738 177.358 44.3252L179.069 43.8452C179.13 44.0493 179.176 44.2301 179.208 44.3878C179.245 44.5409 179.273 44.6962 179.292 44.8539C179.315 45.007 179.334 45.1739 179.348 45.3548C179.366 45.531 179.385 45.742 179.403 45.9878C179.417 46.1362 179.452 46.2962 179.508 46.4678C179.563 46.6348 179.64 46.7901 179.737 46.9339C179.839 47.073 179.962 47.1913 180.106 47.2887C180.25 47.3814 180.416 47.4278 180.607 47.4278H180.746ZM177.128 51.2678L175.946 52.4504L174.749 51.2609L175.932 50.0713L177.128 51.2678ZM179.758 51.2748L178.575 52.4643L177.379 51.2678L178.561 50.0852L179.758 51.2748ZM180.462 47.4278H181.582C181.8 47.4278 182.023 47.4162 182.25 47.393C182.482 47.3652 182.691 47.3119 182.876 47.233C183.062 47.1496 183.213 47.0313 183.329 46.8783C183.449 46.7252 183.509 46.5212 183.509 46.2661C183.509 46.1455 183.484 45.9762 183.433 45.7583C183.382 45.5403 183.315 45.2991 183.231 45.0348C183.148 44.7704 183.048 44.4968 182.932 44.2139C182.821 43.931 182.702 43.6667 182.577 43.4209L184.184 42.6278C184.3 42.8922 184.416 43.1728 184.532 43.4696C184.648 43.7664 184.75 44.0725 184.838 44.3878C184.931 44.6986 185.005 45.0116 185.061 45.327C185.116 45.6423 185.144 45.9507 185.144 46.2522C185.144 46.7716 185.056 47.2191 184.88 47.5948C184.704 47.9658 184.458 48.2719 184.142 48.513C183.827 48.7496 183.449 48.9235 183.009 49.0348C182.573 49.1507 182.093 49.2087 181.569 49.2087H180.462V47.4278ZM184.045 51.4696L182.709 52.8052L181.381 51.4696L182.709 50.1409L184.045 51.4696ZM196.188 53.7443C195.39 53.7443 194.653 53.6446 193.976 53.4452C193.299 53.2504 192.721 52.9536 192.244 52.5548C191.766 52.1606 191.407 51.6643 191.165 51.0661C190.971 50.5977 190.873 50.0667 190.873 49.473C190.873 49.3154 190.88 49.153 190.894 48.9861C190.922 48.6661 190.959 48.3391 191.005 48.0052C191.056 47.6713 191.124 47.3212 191.207 46.9548C191.295 46.5838 191.407 46.1919 191.541 45.7791C191.676 45.3664 191.842 44.9212 192.042 44.4435L193.475 45.1043C193.285 45.5774 193.127 46.0157 193.002 46.4191C192.877 46.818 192.777 47.189 192.703 47.5322C192.633 47.8754 192.584 48.1977 192.557 48.4991C192.529 48.8006 192.515 49.0904 192.515 49.3687C192.515 49.7026 192.557 50.0017 192.64 50.2661C192.728 50.5304 192.84 50.767 192.974 50.9757C193.155 51.2214 193.382 51.4093 193.656 51.5391C193.929 51.6736 194.217 51.771 194.518 51.8313C194.824 51.8916 195.124 51.9264 195.416 51.9357C195.713 51.9496 195.97 51.9565 196.188 51.9565C196.318 51.9565 196.506 51.9472 196.751 51.9287C197.002 51.9101 197.273 51.8777 197.565 51.8313C197.862 51.7849 198.166 51.7246 198.477 51.6504C198.787 51.5762 199.068 51.4835 199.318 51.3722C199.573 51.2609 199.78 51.131 199.938 50.9826C200.1 50.8342 200.181 50.6603 200.181 50.4609C200.181 50.4284 200.139 50.3774 200.056 50.3078C199.977 50.2429 199.866 50.1687 199.722 50.0852C199.583 50.0017 199.418 49.9136 199.228 49.8209C199.038 49.7328 198.834 49.647 198.616 49.5635C198.296 49.4568 197.978 49.378 197.663 49.327C197.347 49.2759 197.034 49.2226 196.724 49.167L196.96 47.4278H202.484V49.2087H201.183C201.368 49.4359 201.491 49.6586 201.551 49.8765C201.616 50.0991 201.651 50.2939 201.656 50.4609C201.637 50.869 201.533 51.233 201.343 51.553C201.153 51.8777 200.907 52.1606 200.605 52.4017C200.309 52.6475 199.97 52.8539 199.59 53.0209C199.209 53.1925 198.82 53.3316 198.421 53.4383C198.022 53.5449 197.628 53.6214 197.238 53.6678C196.853 53.7188 196.503 53.7443 196.188 53.7443ZM202.212 47.4278H202.72C202.887 47.4278 203.043 47.4139 203.186 47.3861C203.33 47.3583 203.458 47.3003 203.569 47.2122C203.68 47.1194 203.771 46.9919 203.84 46.8296C203.91 46.6672 203.954 46.4493 203.972 46.1757C203.972 46.069 203.975 45.8835 203.979 45.6191C203.989 45.3501 203.996 45.0325 204 44.6661C204.005 44.2951 204.01 43.8893 204.014 43.4487C204.019 43.0081 204.021 42.5583 204.021 42.0991C204.021 41.742 204.019 41.3919 204.014 41.0487C204.014 40.7009 204.01 40.367 204 40.047C203.996 39.727 203.984 39.4255 203.965 39.1426C203.952 38.8597 203.931 38.6023 203.903 38.3704L205.677 38.1409C205.709 38.3913 205.735 38.6742 205.753 38.9896C205.772 39.3049 205.786 39.6412 205.795 39.9983C205.809 40.3507 205.816 40.7217 205.816 41.1113C205.821 41.4962 205.823 41.8858 205.823 42.28C205.823 43.1565 205.814 43.9194 205.795 44.5687C205.781 45.218 205.774 45.793 205.774 46.2939C205.774 46.6464 205.865 46.9246 206.045 47.1287C206.226 47.3281 206.495 47.4278 206.852 47.4278H207.005V49.2087H206.852C206.825 49.2087 206.799 49.2087 206.776 49.2087C206.595 49.2087 206.416 49.1925 206.24 49.16C206.069 49.1322 205.902 49.0881 205.739 49.0278C205.582 48.9722 205.436 48.9049 205.301 48.8261C205.167 48.7472 205.048 48.6661 204.946 48.5826C204.812 48.7125 204.663 48.8191 204.501 48.9026C204.343 48.9814 204.181 49.0441 204.014 49.0904C203.847 49.1368 203.683 49.167 203.52 49.1809C203.358 49.1994 203.212 49.2087 203.082 49.2087H202.212V47.4278ZM206.728 47.4278H208.238C208.813 47.4278 209.397 47.3745 209.991 47.2678C210.589 47.1565 211.183 47.0128 211.772 46.8365C212.361 46.6557 212.936 46.4493 213.497 46.2174C214.058 45.9855 214.589 45.7467 215.09 45.5009C214.691 45.4128 214.32 45.2968 213.977 45.153C213.634 45.0046 213.309 44.8609 213.003 44.7217C212.697 44.5826 212.402 44.462 212.119 44.36C211.836 44.258 211.556 44.207 211.278 44.207C211.115 44.207 210.962 44.2371 210.818 44.2974C210.679 44.353 210.55 44.4249 210.429 44.513C210.308 44.6012 210.199 44.6986 210.102 44.8052C210.009 44.9119 209.926 45.0162 209.852 45.1183C209.782 45.2157 209.724 45.3038 209.678 45.3826C209.631 45.4614 209.599 45.5171 209.58 45.5496L208.133 44.6104C208.291 44.3322 208.479 44.0632 208.697 43.8035C208.915 43.5391 209.156 43.3049 209.42 43.1009C209.689 42.8922 209.979 42.7275 210.29 42.607C210.601 42.4817 210.93 42.4191 211.278 42.4191C211.635 42.4191 211.99 42.4678 212.342 42.5652C212.694 42.658 213.042 42.7786 213.385 42.927C213.733 43.0707 214.081 43.2261 214.429 43.393C214.777 43.56 215.127 43.7177 215.479 43.8661C215.836 44.0099 216.196 44.1328 216.558 44.2348C216.919 44.3322 217.29 44.3832 217.671 44.3878L217.525 46.1826C216.875 46.4933 216.198 46.8226 215.493 47.1704C214.788 47.5183 214.051 47.8406 213.281 48.1374C212.511 48.4296 211.707 48.6777 210.867 48.8817C210.032 49.0812 209.156 49.1901 208.238 49.2087H206.728V47.4278ZM221.782 44.5826C221.875 44.8748 221.97 45.1809 222.067 45.5009C222.169 45.8162 222.26 46.1362 222.338 46.4609C222.422 46.7855 222.489 47.1101 222.54 47.4348C222.591 47.7548 222.617 48.0678 222.617 48.3739C222.617 48.7913 222.552 49.1971 222.422 49.5913C222.297 49.9901 222.12 50.3728 221.893 50.7391C221.671 51.1101 221.404 51.4626 221.093 51.7965C220.787 52.1304 220.453 52.4458 220.091 52.7426C219.73 53.0394 219.347 53.3154 218.944 53.5704C218.54 53.8255 218.132 54.0551 217.719 54.2591L216.926 52.6661C217.256 52.5038 217.58 52.3229 217.9 52.1235C218.22 51.9287 218.524 51.72 218.811 51.4974C219.104 51.2748 219.373 51.0406 219.618 50.7948C219.869 50.549 220.082 50.2939 220.258 50.0296C220.439 49.7652 220.581 49.4939 220.683 49.2157C220.785 48.9374 220.836 48.6568 220.836 48.3739C220.836 48.1096 220.806 47.8313 220.745 47.5391C220.685 47.247 220.611 46.9594 220.523 46.6765C220.439 46.389 220.351 46.113 220.258 45.8487C220.17 45.5843 220.096 45.3501 220.036 45.1461L221.782 44.5826ZM232.587 52.8748C232.856 52.9212 233.127 52.9443 233.401 52.9443C233.471 52.9443 233.607 52.9397 233.811 52.9304C234.016 52.9212 234.278 52.8794 234.598 52.8052C234.918 52.731 235.224 52.6313 235.516 52.5061C235.813 52.3809 236.084 52.2371 236.33 52.0748L237.269 53.633C237 53.7954 236.722 53.9438 236.434 54.0783C236.151 54.2174 235.857 54.3357 235.551 54.433C235.249 54.5304 234.936 54.6046 234.611 54.6557C234.329 54.702 234.039 54.7252 233.742 54.7252C233.696 54.7252 233.647 54.7252 233.596 54.7252C233.16 54.7159 232.724 54.6696 232.288 54.5861C231.857 54.5026 231.444 54.382 231.05 54.2243C230.66 54.0667 230.296 53.8696 229.958 53.633C229.624 53.4012 229.331 53.1299 229.081 52.8191C228.835 52.513 228.64 52.1675 228.497 51.7826C228.353 51.4023 228.279 50.9803 228.274 50.5165C228.288 50.0203 228.381 49.5565 228.552 49.1252C228.724 48.6986 228.951 48.309 229.234 47.9565C229.522 47.5994 229.851 47.2817 230.222 47.0035C230.598 46.7252 230.994 46.4864 231.411 46.287C231.263 46.1478 231.11 46.011 230.952 45.8765C230.799 45.7374 230.651 45.6075 230.507 45.487C230.363 45.3617 230.229 45.2481 230.104 45.1461C229.978 45.0394 229.874 44.949 229.791 44.8748L229.658 43.3861C230.266 42.8574 230.92 42.4609 231.62 42.1965C232.325 41.9275 233.06 41.793 233.825 41.793C234.053 41.793 234.287 41.8093 234.528 41.8417C234.774 41.8742 235.013 41.9252 235.245 41.9948C235.476 42.0643 235.694 42.1548 235.898 42.2661C236.102 42.3774 236.281 42.5142 236.434 42.6765C236.587 42.8342 236.708 43.0174 236.796 43.2261C236.875 43.4301 236.914 43.6574 236.914 43.9078C236.914 43.9217 236.914 43.9357 236.914 43.9496C236.896 44.302 236.826 44.6174 236.705 44.8957C236.589 45.1739 236.436 45.4243 236.246 45.647C236.056 45.8696 235.836 46.069 235.585 46.2452C235.34 46.4214 235.078 46.5838 234.799 46.7322C235.175 46.9409 235.574 47.1101 235.996 47.24C236.422 47.3652 236.838 47.4278 237.241 47.4278H237.478V49.2087H237.241C236.856 49.2087 236.483 49.1693 236.121 49.0904C235.759 49.0116 235.402 48.9003 235.05 48.7565C234.697 48.6081 234.347 48.4342 233.999 48.2348C233.651 48.0307 233.301 47.8058 232.949 47.56C232.61 47.6945 232.267 47.8522 231.919 48.033C231.571 48.2093 231.254 48.418 230.966 48.6591C230.683 48.8957 230.451 49.1646 230.271 49.4661C230.09 49.7675 229.999 50.1084 229.999 50.4887C229.999 50.702 230.041 50.9061 230.125 51.1009C230.213 51.2957 230.326 51.4765 230.465 51.6435C230.605 51.8151 230.765 51.9704 230.945 52.1096C231.126 52.2533 231.312 52.3762 231.502 52.4783C231.697 52.5849 231.887 52.6707 232.072 52.7357C232.262 52.8052 232.434 52.8516 232.587 52.8748ZM233.832 43.4904C233.647 43.4904 233.452 43.5043 233.248 43.5322C233.044 43.5554 232.842 43.5901 232.643 43.6365C232.443 43.6783 232.251 43.7316 232.065 43.7965C231.885 43.8568 231.725 43.9241 231.585 43.9983C231.683 44.1003 231.792 44.2186 231.912 44.353C232.033 44.4829 232.16 44.6197 232.295 44.7635C232.434 44.9072 232.576 45.051 232.719 45.1948C232.863 45.3339 233.005 45.4638 233.144 45.5843C233.45 45.4545 233.735 45.3223 233.999 45.1878C234.264 45.0533 234.493 44.9165 234.688 44.7774C234.887 44.6336 235.045 44.4852 235.161 44.3322C235.277 44.1791 235.337 44.0214 235.342 43.8591C235.337 43.8406 235.307 43.8128 235.251 43.7757C235.196 43.7386 235.105 43.7014 234.98 43.6643C234.86 43.6226 234.704 43.5855 234.514 43.553C234.329 43.5206 234.101 43.4997 233.832 43.4904ZM237.197 47.4278H238.254L238.303 47.3374C238.382 47.1983 238.493 47.0151 238.637 46.7878C238.785 46.5559 238.971 46.2939 239.193 46.0017C239.235 45.7096 239.27 45.3409 239.298 44.8957C239.326 44.4504 239.342 43.9681 239.346 43.4487C239.346 43.1658 239.342 42.8759 239.332 42.5791C239.323 42.2777 239.305 41.9322 239.277 41.5426C239.249 41.153 239.21 40.6986 239.159 40.1791C239.112 39.6551 239.052 39.0313 238.978 38.3078L240.807 37.8348C240.928 38.7252 241.018 39.6388 241.079 40.5757C241.143 41.5125 241.176 42.44 241.176 43.3583V43.9217C241.426 43.7084 241.686 43.5043 241.955 43.3096C242.229 43.1148 242.512 42.9432 242.804 42.7948C243.101 42.6464 243.409 42.5281 243.729 42.44C244.049 42.3519 244.383 42.3078 244.731 42.3078C245.083 42.3078 245.417 42.3635 245.732 42.4748C246.048 42.5861 246.326 42.7484 246.567 42.9617C246.813 43.1704 247.015 43.4255 247.172 43.727C247.33 44.0284 247.428 44.367 247.465 44.7426C247.469 44.8122 247.472 44.8794 247.472 44.9443C247.472 45.4267 247.39 45.8765 247.228 46.2939C247.07 46.7113 246.836 47.0893 246.526 47.4278H248.487V49.2087H246.637C246.27 49.2087 245.862 49.1925 245.412 49.16C244.963 49.1275 244.464 49.0417 243.917 48.9026C243.523 49.0093 243.121 49.0858 242.713 49.1322C242.31 49.1832 241.904 49.2087 241.496 49.2087H237.197V47.4278ZM240.849 47.4278C241.132 47.4278 241.457 47.4209 241.823 47.407C242.194 47.393 242.574 47.3606 242.964 47.3096C243.353 47.2586 243.731 47.182 244.098 47.08C244.469 46.978 244.798 46.8412 245.086 46.6696C245.373 46.498 245.6 46.2823 245.767 46.0226C245.911 45.8 245.983 45.5357 245.983 45.2296C245.983 45.1878 245.981 45.1438 245.976 45.0974C245.967 44.9583 245.92 44.8284 245.837 44.7078C245.758 44.5872 245.647 44.4852 245.503 44.4017C245.364 44.3136 245.197 44.2441 245.002 44.193C244.835 44.1559 244.654 44.1374 244.459 44.1374C244.422 44.1374 244.383 44.1374 244.341 44.1374C244.109 44.1467 243.833 44.207 243.513 44.3183C243.193 44.4249 242.85 44.6058 242.484 44.8609C242.117 45.1159 241.737 45.4522 241.343 45.8696C240.949 46.287 240.564 46.8064 240.188 47.4278H240.849ZM248.379 47.4278C248.866 47.4278 249.335 47.4139 249.785 47.3861C250.234 47.3536 250.645 47.3096 251.016 47.2539C251.387 47.1983 251.707 47.131 251.976 47.0522C252.245 46.9733 252.447 46.8852 252.581 46.7878H251.872C251.463 46.7878 251.074 46.7368 250.703 46.6348C250.336 46.5281 250.014 46.3704 249.736 46.1617C249.458 45.953 249.235 45.6933 249.068 45.3826C248.906 45.0672 248.825 44.7009 248.825 44.2835C248.825 44.0377 248.85 43.7849 248.901 43.5252C248.952 43.2655 249.029 43.0128 249.131 42.767C249.233 42.5212 249.356 42.2893 249.499 42.0713C249.643 41.8533 249.808 41.6632 249.993 41.5009C250.179 41.3339 250.383 41.2041 250.605 41.1113C250.828 41.0139 251.069 40.9652 251.329 40.9652C251.649 40.9652 251.948 41.0325 252.226 41.167C252.505 41.3014 252.757 41.4846 252.985 41.7165C253.212 41.9438 253.414 42.2081 253.59 42.5096C253.766 42.811 253.914 43.1287 254.035 43.4626C254.156 43.7965 254.246 44.1374 254.306 44.4852C254.371 44.8284 254.404 45.1554 254.404 45.4661C254.404 45.9948 254.33 46.4539 254.181 46.8435C254.037 47.233 253.833 47.567 253.569 47.8452C253.309 48.1235 252.996 48.3507 252.63 48.527C252.268 48.7032 251.867 48.8423 251.426 48.9443C250.986 49.0464 250.513 49.1159 250.007 49.153C249.506 49.1901 248.987 49.2087 248.449 49.2087H248.212V47.4278H248.379ZM251.329 42.76C251.306 42.7554 251.283 42.753 251.259 42.753C251.167 42.753 251.06 42.7901 250.939 42.8643C250.819 42.9386 250.703 43.0452 250.592 43.1843C250.48 43.3235 250.39 43.4812 250.32 43.6574C250.251 43.829 250.216 43.9983 250.216 44.1652C250.216 44.1745 250.216 44.1838 250.216 44.193C250.216 44.36 250.253 44.4968 250.327 44.6035C250.401 44.7055 250.501 44.7843 250.626 44.84C250.756 44.8957 250.905 44.9351 251.072 44.9583C251.243 44.9814 251.424 44.9977 251.614 45.007C251.739 45.0116 251.869 45.0139 252.004 45.0139C252.069 45.0139 252.168 45.0139 252.303 45.0139C252.442 45.0093 252.583 45.0023 252.727 44.993C252.685 44.8261 252.625 44.6197 252.546 44.3739C252.472 44.1235 252.377 43.8823 252.261 43.6504C252.15 43.4139 252.015 43.2099 251.858 43.0383C251.705 42.8667 251.528 42.7739 251.329 42.76ZM251.162 38.8713L249.979 40.0539L248.783 38.8643L249.965 37.6748L251.162 38.8713ZM253.792 38.8783L252.609 40.0678L251.412 38.8713L252.595 37.6887L253.792 38.8783Z" fill="black"/>
<path d="M130.697 127.788C130.697 127.802 130.706 127.866 130.723 127.98C130.74 128.086 130.758 128.235 130.775 128.425C130.792 128.608 130.807 128.821 130.818 129.064C130.824 129.234 130.827 129.409 130.827 129.59V129.862C130.804 131.484 130.488 132.926 129.881 134.186V134.176C129.29 135.425 128.489 136.387 127.476 137.063C127.198 137.248 126.946 137.395 126.72 137.504C126.5 137.602 126.28 137.672 126.061 137.714L126.13 138.242C126.199 138.849 126.254 139.487 126.295 140.156C126.341 140.814 126.376 141.483 126.399 142.163C126.428 142.832 126.445 143.503 126.451 144.174C126.463 144.834 126.469 145.466 126.469 146.072L124.741 147.223C124.741 146.117 124.732 145.024 124.715 143.943C124.697 142.856 124.651 141.822 124.576 140.843C124.501 139.857 124.388 138.944 124.237 138.105C124.093 137.256 123.89 136.521 123.629 135.902C123.508 135.607 123.378 135.336 123.239 135.087C123.1 134.839 122.944 134.592 122.77 134.346L124.22 132.273C124.312 132.392 124.396 132.521 124.472 132.658C124.553 132.785 124.631 132.925 124.706 133.076C124.787 133.217 124.868 133.372 124.949 133.54C125.03 133.709 125.12 133.889 125.218 134.081C125.351 134.361 125.482 134.608 125.609 134.822C125.742 135.025 125.893 135.179 126.061 135.283C126.234 135.383 126.431 135.418 126.651 135.39C126.877 135.351 127.152 135.223 127.476 135.007C127.956 134.687 128.318 134.268 128.561 133.751C128.671 133.525 128.761 133.288 128.83 133.04C128.9 132.785 128.955 132.529 128.995 132.272C129.041 132.012 129.073 131.754 129.091 131.499C129.108 131.244 129.117 131.002 129.117 130.772C129.117 130.473 129.102 130.194 129.073 129.935C129.05 129.672 129.024 129.46 128.995 129.298L130.697 127.788ZM134.461 128.806C134.455 128.879 134.452 128.951 134.452 129.02C134.452 129.897 134.99 130.042 136.067 129.457C136.2 129.382 136.336 129.298 136.475 129.206C136.817 128.978 137.178 128.688 137.56 128.336C137.549 127.919 137.523 127.544 137.482 127.209C137.448 126.864 137.401 126.554 137.343 126.279C137.303 126.104 137.245 125.931 137.17 125.758C137.1 125.575 137.011 125.426 136.901 125.312C136.791 125.19 136.66 125.117 136.51 125.092C136.365 125.063 136.2 125.111 136.015 125.234C135.766 125.4 135.549 125.635 135.364 125.94C135.179 126.244 135.022 126.571 134.895 126.92C134.768 127.269 134.666 127.615 134.591 127.957C134.522 128.296 134.478 128.579 134.461 128.806ZM138.151 135.163C137.954 134.397 137.806 133.623 137.708 132.839C137.615 132.046 137.566 131.24 137.56 130.423C137.213 130.724 136.869 130.989 136.527 131.216C136.475 131.251 136.333 131.342 136.102 131.489C135.876 131.633 135.584 131.769 135.225 131.897C134.872 132.014 134.548 132.063 134.252 132.044C133.957 132.018 133.708 131.913 133.506 131.728C133.309 131.532 133.167 131.248 133.08 130.874C133.028 130.651 133.002 130.394 133.002 130.102C133.002 129.9 133.014 129.684 133.037 129.453C133.077 129.057 133.144 128.647 133.237 128.224C133.335 127.79 133.457 127.357 133.601 126.927C133.752 126.493 133.928 126.065 134.131 125.645C134.333 125.225 134.562 124.829 134.817 124.457C135.228 123.863 135.668 123.41 136.136 123.098C136.241 123.028 136.345 122.966 136.449 122.91C137.045 122.61 137.546 122.579 137.951 122.817C138.507 123.135 138.869 124.003 139.036 125.422C139.1 125.957 139.135 126.598 139.141 127.345V127.857C139.141 128.357 139.146 128.841 139.158 129.306C139.175 129.767 139.201 130.213 139.236 130.642C139.277 131.06 139.326 131.448 139.384 131.806C139.442 132.164 139.508 132.53 139.583 132.904C139.884 134.401 140.165 135.25 140.426 135.452L139.375 137.78C138.929 137.5 138.521 136.628 138.151 135.163Z" fill="black"/>
<path d="M305.364 110.521C305.364 110.535 305.373 110.61 305.39 110.747C305.408 110.877 305.425 111.048 305.442 111.262C305.46 111.468 305.474 111.7 305.486 111.958C305.491 112.136 305.494 112.316 305.494 112.496V112.768C305.471 114.359 305.156 115.38 304.548 115.831V115.82C303.958 116.282 303.156 116.176 302.143 115.5C301.865 115.315 301.613 115.127 301.388 114.934C301.168 114.739 300.948 114.516 300.728 114.265L300.797 114.885C300.867 115.585 300.922 116.297 300.962 117.019C301.008 117.739 301.043 118.454 301.066 119.165C301.095 119.873 301.113 120.567 301.118 121.245C301.13 121.921 301.136 122.561 301.136 123.166L299.408 122.015C299.408 120.909 299.399 119.804 299.382 118.7C299.365 117.589 299.318 116.494 299.243 115.414C299.168 114.327 299.055 113.264 298.904 112.225C298.76 111.182 298.557 110.178 298.297 109.211C298.175 108.754 298.045 108.309 297.906 107.876C297.767 107.442 297.611 106.987 297.437 106.509L298.887 106.37C298.98 106.613 299.064 106.853 299.139 107.091C299.22 107.326 299.298 107.569 299.373 107.821C299.454 108.07 299.535 108.333 299.616 108.609C299.697 108.886 299.787 109.186 299.886 109.509C300.019 109.966 300.149 110.387 300.276 110.771C300.409 111.152 300.56 111.506 300.728 111.834C300.901 112.165 301.098 112.463 301.318 112.728C301.544 112.99 301.819 113.229 302.143 113.445C302.623 113.765 302.985 113.829 303.228 113.636C303.338 113.556 303.428 113.439 303.497 113.283C303.567 113.121 303.622 112.939 303.662 112.736C303.709 112.537 303.741 112.322 303.758 112.09C303.775 111.858 303.784 111.627 303.784 111.398C303.784 111.099 303.769 110.8 303.741 110.503C303.717 110.209 303.691 109.962 303.662 109.762L305.364 110.521ZM308.19 122.005C308.19 121.518 308.266 121.113 308.416 120.789C308.572 120.462 308.784 120.227 309.05 120.084C309.316 119.935 309.626 119.884 309.979 119.931C310.338 119.983 310.723 120.146 311.134 120.419C311.539 120.69 311.918 121.036 312.271 121.459C312.63 121.887 312.942 122.352 313.209 122.857C313.481 123.358 313.695 123.877 313.851 124.412C314.007 124.941 314.086 125.448 314.086 125.935C314.086 126.429 314.007 126.84 313.851 127.167C313.695 127.487 313.481 127.716 313.209 127.855C312.942 127.998 312.63 128.043 312.271 127.992C311.918 127.937 311.539 127.775 311.134 127.505C310.723 127.231 310.338 126.884 309.979 126.464C309.626 126.04 309.316 125.58 309.05 125.082C308.784 124.585 308.572 124.072 308.416 123.543C308.266 123.012 308.19 122.499 308.19 122.005ZM309.606 122.949C309.606 123.199 309.646 123.463 309.727 123.739C309.808 124.016 309.918 124.284 310.057 124.543C310.196 124.803 310.358 125.043 310.543 125.264C310.728 125.485 310.925 125.665 311.134 125.804C311.342 125.943 311.539 126.025 311.724 126.051C311.915 126.081 312.08 126.059 312.219 125.985C312.358 125.91 312.468 125.789 312.549 125.62C312.63 125.452 312.67 125.242 312.67 124.992C312.67 124.741 312.63 124.478 312.549 124.201C312.468 123.918 312.358 123.646 312.219 123.386C312.08 123.127 311.915 122.885 311.724 122.66C311.539 122.439 311.342 122.259 311.134 122.12C310.925 121.981 310.728 121.899 310.543 121.873C310.358 121.847 310.196 121.871 310.057 121.945C309.918 122.02 309.808 122.145 309.727 122.32C309.646 122.489 309.606 122.698 309.606 122.949Z" fill="black"/>
<path d="M44.9265 217.165L44.9269 223.956L178.68 314.064L366.277 190.834L366.277 184.662L231.548 94.1728L44.9265 217.165Z" fill="#E7E7E7" stroke="black"/>
<path d="M44.2633 216.95L44.2635 223.338L178.088 313.546L178.088 306.662L44.2633 216.95Z" fill="#A3A3A3" stroke="black"/>
<path d="M366.338 184.496L231.171 94.0532L44.3189 216.382L178.64 306.598L366.338 184.496Z" fill="#E7E7E7" stroke="black"/>
<path d="M52.6583 210.818L44.2308 216.436L178.648 306.716L186.455 301.511L52.6583 210.818Z" fill="#A3A3A3" stroke="black"/>
<path d="M194.815 205.747C196.23 206.844 196.867 208.027 196.726 209.296C196.579 210.561 195.675 211.747 194.014 212.855C192.191 214.07 190.149 214.616 187.889 214.492C185.622 214.364 183.424 213.585 181.293 212.154L180.427 211.572C179.064 210.657 178.103 209.69 177.544 208.671C176.985 207.653 176.874 206.66 177.211 205.694C177.553 204.723 178.315 203.844 179.496 203.057C181.134 201.965 182.893 201.38 184.772 201.302C186.651 201.224 188.46 201.664 190.198 202.623L187.273 204.574C186.285 204.003 185.366 203.727 184.516 203.745C183.666 203.763 182.793 204.071 181.896 204.669C180.923 205.317 180.543 206.038 180.756 206.831C180.963 207.621 181.794 208.512 183.249 209.505L184.314 210.221C185.845 211.249 187.196 211.847 188.37 212.015C189.543 212.176 190.631 211.922 191.632 211.255C192.535 210.653 193.001 210.067 193.031 209.499C193.067 208.926 192.686 208.326 191.89 207.698L194.815 205.747ZM195.467 204.455C194.422 203.753 193.692 202.995 193.277 202.182C192.862 201.361 192.811 200.549 193.125 199.745C193.433 198.936 194.087 198.199 195.089 197.531C196.513 196.582 198.109 196.101 199.878 196.089C201.647 196.068 203.332 196.526 204.932 197.461L205.668 197.932C207.279 199.014 208.122 200.184 208.195 201.442C208.268 202.699 207.543 203.835 206.021 204.85C204.498 205.865 202.798 206.35 200.919 206.304C199.046 206.254 197.272 205.667 195.597 204.542L195.467 204.455ZM198.497 202.713C199.496 203.384 200.449 203.773 201.357 203.879C202.258 203.981 203.059 203.799 203.76 203.332C204.443 202.876 204.715 202.347 204.578 201.743C204.44 201.132 203.796 200.44 202.647 199.668C201.671 199.013 200.721 198.634 199.796 198.532C198.871 198.422 198.061 198.598 197.367 199.061C196.678 199.52 196.414 200.056 196.575 200.667C196.73 201.275 197.371 201.957 198.497 202.713ZM213.074 195.302L207.942 189.229L210.886 187.267L217.851 196.709L215.168 198.497L201.083 193.801L204.027 191.839L213.074 195.302ZM227.689 190.405C226.144 191.435 224.414 191.958 222.5 191.974C220.581 191.986 218.833 191.463 217.256 190.404L216.979 190.218C215.922 189.508 215.181 188.739 214.754 187.91C214.334 187.078 214.274 186.259 214.576 185.455C214.873 184.647 215.501 183.923 216.462 183.282C217.903 182.321 219.494 181.872 221.234 181.933C222.974 181.986 224.676 182.571 226.339 183.688L227.491 184.462L220.771 188.942C221.551 189.342 222.377 189.529 223.25 189.503C224.123 189.478 224.91 189.231 225.611 188.764C226.699 188.039 227.154 187.21 226.976 186.277L229.907 186.387C230.085 187.072 229.98 187.768 229.592 188.475C229.203 189.175 228.569 189.818 227.689 190.405ZM218.731 184.818C218.17 185.192 217.903 185.621 217.931 186.105C217.96 186.589 218.277 187.1 218.883 187.639L222.807 185.022L222.582 184.871C221.947 184.46 221.294 184.25 220.623 184.241C219.958 184.228 219.328 184.421 218.731 184.818ZM231.459 177.075C231.025 177.295 230.664 177.501 230.374 177.694C229.303 178.408 228.964 179.117 229.356 179.822L236.242 184.447L233.429 186.323L222.905 179.254L225.561 177.483L226.895 178.274C226.493 177.244 226.792 176.396 227.793 175.728C228.106 175.52 228.441 175.354 228.8 175.231L231.459 177.075Z" fill="black"/>
<path d="M217.377 85.1019C217.54 84.7983 217.54 84.4818 217.377 84.3948L214.73 82.9779C214.567 82.8909 214.304 83.0665 214.142 83.3701C213.979 83.6737 213.979 83.9903 214.142 84.0772L216.495 85.3367L214.142 89.7341C213.979 90.0376 213.979 90.3542 214.142 90.4412C214.304 90.5281 214.567 90.3525 214.73 90.0489L217.377 85.1019ZM163 121.5L217.083 85.4445V84.4445L163 120.5V121.5Z" fill="black"/>
<path d="M364.889 164.613C365.051 164.526 365.051 164.209 364.889 163.906L362.241 158.959C362.079 158.655 361.816 158.48 361.653 158.567C361.491 158.653 361.491 158.97 361.653 159.274L364.006 163.671L361.653 164.93C361.491 165.017 361.491 165.334 361.653 165.638C361.816 165.941 362.079 166.117 362.241 166.03L364.889 164.613ZM318 133.5L364.595 164.563V163.563L318 132.5V133.5Z" fill="black"/>
<path d="M242.706 84.4503C242.543 84.5373 242.543 84.8539 242.706 85.1574L245.353 90.1045C245.516 90.408 245.779 90.5836 245.942 90.4967C246.104 90.4097 246.104 90.0932 245.942 89.7896L243.588 85.3922L245.942 84.1327C246.104 84.0458 246.104 83.7292 245.942 83.4256C245.779 83.1221 245.516 82.9464 245.353 83.0334L242.706 84.4503ZM243 85.5L289.595 116.563V115.563L243 84.5V85.5Z" fill="black"/>
<path d="M42.7058 199.898C42.5434 200.202 42.5434 200.518 42.7058 200.605L45.3534 202.022C45.5159 202.109 45.7793 201.933 45.9417 201.63C46.1042 201.326 46.1042 201.01 45.9417 200.923L43.5883 199.663L45.9417 195.266C46.1042 194.962 46.1042 194.646 45.9417 194.559C45.7793 194.472 45.5159 194.648 45.3534 194.951L42.7058 199.898ZM43 200.556L97.0833 164.5V163.5L43 199.556V200.556Z" fill="black"/>
<path d="M163.11 359.744C162.312 359.744 161.575 359.645 160.898 359.445C160.221 359.25 159.643 358.954 159.166 358.555C158.688 358.161 158.328 357.664 158.087 357.066C157.892 356.598 157.795 356.067 157.795 355.473C157.795 355.315 157.802 355.153 157.816 354.986C157.844 354.666 157.881 354.339 157.927 354.005C157.978 353.671 158.046 353.321 158.129 352.955C158.217 352.584 158.328 352.192 158.463 351.779C158.597 351.366 158.764 350.921 158.964 350.443L160.397 351.104C160.207 351.577 160.049 352.016 159.924 352.419C159.799 352.818 159.699 353.189 159.625 353.532C159.555 353.875 159.506 354.198 159.479 354.499C159.451 354.801 159.437 355.09 159.437 355.369C159.437 355.703 159.479 356.002 159.562 356.266C159.65 356.53 159.761 356.767 159.896 356.976C160.077 357.221 160.304 357.409 160.578 357.539C160.851 357.674 161.139 357.771 161.44 357.831C161.746 357.892 162.046 357.926 162.338 357.936C162.634 357.95 162.892 357.957 163.11 357.957C163.24 357.957 163.428 357.947 163.673 357.929C163.924 357.91 164.195 357.878 164.487 357.831C164.784 357.785 165.088 357.725 165.399 357.65C165.709 357.576 165.99 357.483 166.24 357.372C166.495 357.261 166.702 357.131 166.859 356.983C167.022 356.834 167.103 356.66 167.103 356.461C167.103 356.428 167.061 356.377 166.978 356.308C166.899 356.243 166.788 356.169 166.644 356.085C166.505 356.002 166.34 355.914 166.15 355.821C165.96 355.733 165.756 355.647 165.538 355.563C165.218 355.457 164.9 355.378 164.585 355.327C164.269 355.276 163.956 355.223 163.646 355.167L163.882 353.428H169.406V355.209H168.105C168.29 355.436 168.413 355.659 168.473 355.877C168.538 356.099 168.573 356.294 168.578 356.461C168.559 356.869 168.455 357.233 168.265 357.553C168.074 357.878 167.829 358.161 167.527 358.402C167.23 358.648 166.892 358.854 166.512 359.021C166.131 359.192 165.742 359.332 165.343 359.438C164.944 359.545 164.55 359.621 164.16 359.668C163.775 359.719 163.425 359.744 163.11 359.744ZM169.134 353.428H169.273C169.575 353.428 169.874 353.428 170.171 353.428C170.472 353.428 170.727 353.416 170.936 353.393C170.843 353.333 170.741 353.247 170.63 353.136C170.519 353.02 170.414 352.885 170.317 352.732C170.224 352.574 170.143 352.398 170.073 352.203C170.009 352.004 169.974 351.786 169.969 351.55C169.964 351.489 169.962 351.429 169.962 351.369C169.962 351.179 169.988 350.968 170.039 350.736C170.094 350.499 170.182 350.258 170.303 350.012C170.428 349.766 170.579 349.537 170.755 349.323C170.931 349.106 171.126 348.918 171.34 348.76C171.553 348.598 171.782 348.472 172.028 348.384C172.246 348.306 172.471 348.266 172.703 348.266C172.731 348.266 172.756 348.266 172.78 348.266C173.155 348.28 173.503 348.377 173.823 348.558C174.148 348.734 174.428 348.964 174.665 349.247C174.901 349.53 175.087 349.852 175.221 350.214C175.356 350.571 175.423 350.937 175.423 351.313C175.423 351.675 175.356 352.025 175.221 352.363C175.091 352.697 174.922 353.01 174.713 353.303C174.936 353.34 175.177 353.37 175.437 353.393C175.701 353.416 175.952 353.428 176.188 353.428H176.376V355.209H176.237C175.88 355.209 175.534 355.202 175.2 355.188C174.871 355.179 174.56 355.153 174.268 355.111C173.976 355.07 173.702 355.012 173.447 354.937C173.197 354.859 172.974 354.752 172.78 354.617C172.64 354.719 172.441 354.808 172.181 354.882C171.926 354.956 171.639 355.016 171.319 355.063C170.999 355.114 170.66 355.151 170.303 355.174C169.951 355.197 169.607 355.209 169.273 355.209H169.134V353.428ZM172.759 350.026C172.638 350.049 172.499 350.098 172.341 350.172C172.188 350.242 172.042 350.341 171.903 350.471C171.769 350.597 171.653 350.752 171.555 350.937C171.462 351.123 171.416 351.343 171.416 351.598C171.416 351.682 171.455 351.791 171.534 351.925C171.613 352.055 171.717 352.187 171.847 352.322C171.977 352.452 172.126 352.574 172.293 352.69C172.46 352.802 172.631 352.881 172.807 352.927C172.946 352.857 173.081 352.767 173.211 352.656C173.345 352.544 173.464 352.424 173.566 352.294C173.668 352.159 173.749 352.023 173.809 351.883C173.874 351.74 173.906 351.603 173.906 351.473C173.906 351.292 173.867 351.121 173.788 350.958C173.714 350.791 173.619 350.643 173.503 350.513C173.387 350.383 173.262 350.277 173.127 350.193C172.997 350.105 172.875 350.049 172.759 350.026ZM172.585 346.04L171.402 347.223L170.206 346.033L171.388 344.843L172.585 346.04ZM175.214 346.047L174.032 347.237L172.835 346.04L174.018 344.857L175.214 346.047ZM176.27 353.428C176.757 353.428 177.225 353.414 177.675 353.386C178.125 353.354 178.536 353.31 178.907 353.254C179.278 353.198 179.598 353.131 179.867 353.052C180.136 352.973 180.337 352.885 180.472 352.788H179.762C179.354 352.788 178.965 352.737 178.593 352.635C178.227 352.528 177.905 352.37 177.627 352.162C177.348 351.953 177.126 351.693 176.959 351.383C176.796 351.067 176.715 350.701 176.715 350.283C176.715 350.038 176.741 349.785 176.792 349.525C176.843 349.266 176.919 349.013 177.021 348.767C177.123 348.521 177.246 348.289 177.39 348.071C177.534 347.853 177.698 347.663 177.884 347.501C178.069 347.334 178.273 347.204 178.496 347.111C178.719 347.014 178.96 346.965 179.22 346.965C179.54 346.965 179.839 347.032 180.117 347.167C180.395 347.301 180.648 347.485 180.875 347.717C181.102 347.944 181.304 348.208 181.48 348.51C181.657 348.811 181.805 349.129 181.926 349.463C182.046 349.797 182.137 350.137 182.197 350.485C182.262 350.828 182.294 351.155 182.294 351.466C182.294 351.995 182.22 352.454 182.072 352.843C181.928 353.233 181.724 353.567 181.46 353.845C181.2 354.123 180.887 354.351 180.52 354.527C180.159 354.703 179.758 354.842 179.317 354.944C178.876 355.046 178.403 355.116 177.898 355.153C177.397 355.19 176.878 355.209 176.34 355.209H176.103V353.428H176.27ZM179.22 348.76C179.196 348.755 179.173 348.753 179.15 348.753C179.057 348.753 178.951 348.79 178.83 348.864C178.709 348.939 178.593 349.045 178.482 349.184C178.371 349.323 178.28 349.481 178.211 349.657C178.141 349.829 178.107 349.998 178.107 350.165C178.107 350.174 178.107 350.184 178.107 350.193C178.107 350.36 178.144 350.497 178.218 350.603C178.292 350.706 178.392 350.784 178.517 350.84C178.647 350.896 178.795 350.935 178.962 350.958C179.134 350.981 179.315 350.998 179.505 351.007C179.63 351.012 179.76 351.014 179.894 351.014C179.959 351.014 180.059 351.014 180.193 351.014C180.333 351.009 180.474 351.002 180.618 350.993C180.576 350.826 180.516 350.62 180.437 350.374C180.363 350.123 180.268 349.882 180.152 349.65C180.04 349.414 179.906 349.21 179.748 349.038C179.595 348.867 179.419 348.774 179.22 348.76ZM180.5 344.704L179.164 346.04L177.835 344.704L179.164 343.376L180.5 344.704ZM185.532 344.141C185.648 345.027 185.729 345.873 185.775 346.68C185.821 347.482 185.849 348.268 185.859 349.038C185.868 349.692 185.87 350.297 185.866 350.854C185.866 351.41 185.861 351.93 185.852 352.412C185.842 352.89 185.828 353.337 185.81 353.755C185.791 354.168 185.773 354.555 185.754 354.917L183.932 355.195C184.029 353.664 184.078 352.312 184.078 351.139C184.078 350.666 184.071 350.223 184.057 349.81C184.02 348.86 183.978 347.967 183.932 347.132C183.885 346.293 183.823 345.49 183.744 344.725L185.532 344.141ZM197.157 359.744C196.359 359.744 195.622 359.645 194.945 359.445C194.267 359.25 193.69 358.954 193.212 358.555C192.735 358.161 192.375 357.664 192.134 357.066C191.939 356.598 191.842 356.067 191.842 355.473C191.842 355.315 191.849 355.153 191.863 354.986C191.891 354.666 191.928 354.339 191.974 354.005C192.025 353.671 192.092 353.321 192.176 352.955C192.264 352.584 192.375 352.192 192.51 351.779C192.644 351.366 192.811 350.921 193.011 350.443L194.444 351.104C194.254 351.577 194.096 352.016 193.971 352.419C193.845 352.818 193.746 353.189 193.672 353.532C193.602 353.875 193.553 354.198 193.525 354.499C193.498 354.801 193.484 355.09 193.484 355.369C193.484 355.703 193.525 356.002 193.609 356.266C193.697 356.53 193.808 356.767 193.943 356.976C194.124 357.221 194.351 357.409 194.625 357.539C194.898 357.674 195.186 357.771 195.487 357.831C195.793 357.892 196.092 357.926 196.385 357.936C196.681 357.95 196.939 357.957 197.157 357.957C197.287 357.957 197.474 357.947 197.72 357.929C197.971 357.91 198.242 357.878 198.534 357.831C198.831 357.785 199.135 357.725 199.445 357.65C199.756 357.576 200.037 357.483 200.287 357.372C200.542 357.261 200.749 357.131 200.906 356.983C201.069 356.834 201.15 356.66 201.15 356.461C201.15 356.428 201.108 356.377 201.025 356.308C200.946 356.243 200.834 356.169 200.691 356.085C200.552 356.002 200.387 355.914 200.197 355.821C200.007 355.733 199.803 355.647 199.585 355.563C199.265 355.457 198.947 355.378 198.632 355.327C198.316 355.276 198.003 355.223 197.692 355.167L197.929 353.428H203.452V355.209H202.152C202.337 355.436 202.46 355.659 202.52 355.877C202.585 356.099 202.62 356.294 202.625 356.461C202.606 356.869 202.502 357.233 202.312 357.553C202.121 357.878 201.876 358.161 201.574 358.402C201.277 358.648 200.939 358.854 200.558 359.021C200.178 359.192 199.789 359.332 199.39 359.438C198.991 359.545 198.597 359.621 198.207 359.668C197.822 359.719 197.472 359.744 197.157 359.744ZM203.473 353.428C203.71 353.428 203.932 353.381 204.141 353.289C204.355 353.191 204.556 353.02 204.746 352.774C204.941 352.523 205.122 352.183 205.289 351.751C205.461 351.32 205.623 350.768 205.776 350.096L207.48 350.576C207.369 350.961 207.269 351.332 207.181 351.689C207.093 352.041 207.044 352.345 207.035 352.6C207.035 352.623 207.035 352.644 207.035 352.663C207.035 352.746 207.042 352.834 207.056 352.927C207.075 353.02 207.105 353.106 207.146 353.184C207.188 353.263 207.244 353.326 207.313 353.372C207.378 353.414 207.45 353.435 207.529 353.435C207.538 353.435 207.548 353.435 207.557 353.435C207.728 353.43 207.891 353.368 208.044 353.247C208.197 353.126 208.338 352.971 208.468 352.781C208.603 352.591 208.723 352.375 208.83 352.134C208.941 351.893 209.039 351.649 209.122 351.403C209.21 351.153 209.284 350.91 209.345 350.673C209.405 350.437 209.451 350.228 209.484 350.047L211.126 350.381C211.065 350.659 211.017 350.917 210.979 351.153C210.942 351.385 210.919 351.619 210.91 351.856C210.905 351.916 210.903 351.976 210.903 352.037C210.903 352.152 210.91 352.289 210.924 352.447C210.942 352.6 210.982 352.751 211.042 352.899C211.102 353.048 211.186 353.17 211.292 353.268C211.404 353.361 211.548 353.407 211.724 353.407C211.923 353.407 212.083 353.33 212.204 353.177C212.329 353.02 212.424 352.82 212.489 352.579C212.554 352.338 212.596 352.071 212.614 351.779C212.637 351.482 212.649 351.195 212.649 350.917C212.649 350.828 212.647 350.759 212.642 350.708C212.642 350.652 212.642 350.601 212.642 350.555C212.642 350.508 212.64 350.457 212.635 350.402C212.635 350.341 212.635 350.26 212.635 350.158L214.395 350.019C214.409 350.172 214.423 350.323 214.437 350.471C214.451 350.615 214.465 350.766 214.479 350.923C214.492 351.077 214.509 351.241 214.527 351.417C214.55 351.589 214.576 351.777 214.604 351.981C214.636 352.222 214.704 352.433 214.806 352.614C214.912 352.795 215.035 352.946 215.174 353.066C215.313 353.187 215.462 353.277 215.619 353.337C215.782 353.398 215.935 353.428 216.079 353.428H216.336V355.209H216.113C215.886 355.209 215.661 355.186 215.439 355.139C215.221 355.093 215.012 355.021 214.812 354.923C214.613 354.826 214.425 354.703 214.249 354.555C214.077 354.402 213.927 354.221 213.797 354.012C213.574 354.374 213.282 354.664 212.92 354.882C212.559 355.1 212.16 355.209 211.724 355.209C211.288 355.209 210.891 355.104 210.534 354.896C210.182 354.687 209.901 354.409 209.692 354.061C209.558 354.232 209.412 354.39 209.254 354.534C209.101 354.673 208.934 354.796 208.753 354.903C208.577 355.005 208.389 355.083 208.19 355.139C207.99 355.199 207.782 355.23 207.564 355.23C207.355 355.23 207.153 355.202 206.959 355.146C206.764 355.095 206.583 355.019 206.416 354.917C206.249 354.814 206.098 354.692 205.964 354.548C205.829 354.399 205.718 354.235 205.63 354.054C205.398 354.462 205.113 354.757 204.774 354.937C204.436 355.118 204.004 355.209 203.48 355.209H203.181V353.428H203.473ZM222.261 353.428V355.209H222.122C221.672 355.209 221.292 355.137 220.981 354.993C220.671 354.849 220.406 354.664 220.188 354.437C220.035 354.631 219.808 354.782 219.507 354.889C219.21 354.991 218.878 355.065 218.512 355.111C218.145 355.162 217.767 355.19 217.378 355.195C216.993 355.204 216.638 355.209 216.314 355.209H216.056V353.428H216.314C216.856 353.428 217.313 353.398 217.684 353.337C218.055 353.272 218.354 353.18 218.581 353.059C218.813 352.939 218.98 352.788 219.082 352.607C219.184 352.421 219.235 352.208 219.235 351.967C219.235 351.809 219.205 351.601 219.145 351.341C219.085 351.077 218.994 350.738 218.874 350.325L220.585 349.845C220.645 350.049 220.692 350.23 220.724 350.388C220.761 350.541 220.789 350.696 220.807 350.854C220.831 351.007 220.849 351.174 220.863 351.355C220.882 351.531 220.9 351.742 220.919 351.988C220.933 352.136 220.967 352.296 221.023 352.468C221.079 352.635 221.155 352.79 221.253 352.934C221.355 353.073 221.478 353.191 221.621 353.289C221.765 353.381 221.932 353.428 222.122 353.428H222.261ZM218.644 357.268L217.461 358.45L216.265 357.261L217.447 356.071L218.644 357.268ZM221.274 357.275L220.091 358.464L218.894 357.268L220.077 356.085L221.274 357.275ZM221.978 353.428H222.486C222.653 353.428 222.808 353.414 222.952 353.386C223.096 353.358 223.223 353.3 223.335 353.212C223.446 353.119 223.536 352.992 223.606 352.83C223.675 352.667 223.72 352.449 223.738 352.176C223.738 352.069 223.74 351.883 223.745 351.619C223.754 351.35 223.761 351.032 223.766 350.666C223.771 350.295 223.775 349.889 223.78 349.449C223.784 349.008 223.787 348.558 223.787 348.099C223.787 347.742 223.784 347.392 223.78 347.049C223.78 346.701 223.775 346.367 223.766 346.047C223.761 345.727 223.75 345.426 223.731 345.143C223.717 344.86 223.696 344.602 223.668 344.37L225.442 344.141C225.475 344.391 225.5 344.674 225.519 344.99C225.537 345.305 225.551 345.641 225.561 345.998C225.575 346.351 225.582 346.722 225.582 347.111C225.586 347.496 225.588 347.886 225.588 348.28C225.588 349.157 225.579 349.919 225.561 350.569C225.547 351.218 225.54 351.793 225.54 352.294C225.54 352.646 225.63 352.925 225.811 353.129C225.992 353.328 226.261 353.428 226.618 353.428H226.771V355.209H226.618C226.59 355.209 226.565 355.209 226.542 355.209C226.361 355.209 226.182 355.192 226.006 355.16C225.834 355.132 225.667 355.088 225.505 355.028C225.347 354.972 225.201 354.905 225.067 354.826C224.932 354.747 224.814 354.666 224.712 354.583C224.577 354.712 224.429 354.819 224.267 354.903C224.109 354.981 223.947 355.044 223.78 355.09C223.613 355.137 223.448 355.167 223.286 355.181C223.124 355.199 222.977 355.209 222.848 355.209H221.978V353.428ZM226.494 353.428H228.657C228.926 353.428 229.167 353.395 229.381 353.33C229.599 353.266 229.782 353.182 229.93 353.08C230.079 352.973 230.192 352.853 230.271 352.718C230.355 352.579 230.396 352.438 230.396 352.294C230.396 352.071 230.352 351.83 230.264 351.57C230.176 351.306 230.058 351.039 229.909 350.77C229.766 350.497 229.594 350.223 229.395 349.95C229.2 349.671 228.993 349.407 228.775 349.157C228.557 348.901 228.333 348.665 228.101 348.447C227.873 348.229 227.655 348.037 227.447 347.87L227.614 345.908L233.701 343.334L234.348 344.927L229.095 347.083C229.453 347.394 229.763 347.703 230.028 348.009C230.297 348.31 230.535 348.614 230.744 348.92C230.957 349.221 231.15 349.525 231.322 349.831C231.493 350.137 231.66 350.446 231.822 350.757C231.938 350.979 232.054 351.197 232.17 351.41C232.286 351.624 232.411 351.842 232.546 352.064V352.057C232.671 352.266 232.803 352.454 232.942 352.621C233.086 352.788 233.239 352.932 233.402 353.052C233.568 353.173 233.749 353.266 233.944 353.33C234.144 353.395 234.362 353.428 234.598 353.428H235.036V355.209H234.835C234.464 355.209 234.127 355.183 233.826 355.132C233.524 355.081 233.244 355 232.984 354.889C232.729 354.777 232.488 354.636 232.261 354.464C232.038 354.288 231.818 354.077 231.6 353.831C231.437 354.072 231.254 354.279 231.05 354.45C230.846 354.617 230.626 354.757 230.389 354.868C230.153 354.974 229.902 355.053 229.638 355.104C229.378 355.16 229.109 355.195 228.831 355.209H226.494V353.428ZM233.485 342.68L227.614 345.073L227.662 344.176L233.144 341.97L233.485 342.68ZM234.759 353.428H235.879C236.097 353.428 236.32 353.416 236.547 353.393C236.779 353.365 236.988 353.312 237.173 353.233C237.359 353.15 237.509 353.031 237.625 352.878C237.746 352.725 237.806 352.521 237.806 352.266C237.806 352.146 237.781 351.976 237.73 351.758C237.679 351.54 237.611 351.299 237.528 351.035C237.445 350.77 237.345 350.497 237.229 350.214C237.118 349.931 236.999 349.667 236.874 349.421L238.481 348.628C238.597 348.892 238.713 349.173 238.829 349.47C238.945 349.766 239.047 350.072 239.135 350.388C239.228 350.699 239.302 351.012 239.358 351.327C239.413 351.642 239.441 351.951 239.441 352.252C239.441 352.772 239.353 353.219 239.177 353.595C239 353.966 238.755 354.272 238.439 354.513C238.124 354.75 237.746 354.923 237.305 355.035C236.869 355.151 236.389 355.209 235.865 355.209H234.759V353.428ZM238.314 346.27L236.978 347.605L235.65 346.27L236.978 344.941L238.314 346.27ZM242.657 344.141C242.773 345.027 242.854 345.873 242.9 346.68C242.946 347.482 242.974 348.268 242.984 349.038C242.993 349.692 242.995 350.297 242.991 350.854C242.991 351.41 242.986 351.93 242.977 352.412C242.967 352.89 242.953 353.337 242.935 353.755C242.916 354.168 242.898 354.555 242.879 354.917L241.057 355.195C241.154 353.664 241.203 352.312 241.203 351.139C241.203 350.666 241.196 350.223 241.182 349.81C241.145 348.86 241.103 347.967 241.057 347.132C241.01 346.293 240.948 345.49 240.869 344.725L242.657 344.141Z" fill="black"/>
</svg>
