<svg width="400" height="400" viewBox="0 0 400 400" fill="none" xmlns="http://www.w3.org/2000/svg">
<rect width="400" height="400" fill="white"/>
<path d="M174.025 43.0104C174.234 42.9641 174.447 42.9362 174.665 42.927C174.726 42.9223 174.786 42.92 174.846 42.92C174.999 42.92 175.166 42.9316 175.347 42.9548C175.533 42.978 175.727 43.022 175.931 43.087C176.14 43.1519 176.34 43.2354 176.53 43.3374L175.897 45.007C175.655 44.9003 175.405 44.8284 175.145 44.7913C175.034 44.7774 174.925 44.7704 174.818 44.7704C174.665 44.7704 174.512 44.7843 174.359 44.8122C174.202 44.8261 174.032 44.8725 173.851 44.9513C173.671 45.0301 173.49 45.1322 173.309 45.2574C173.133 45.378 172.961 45.5194 172.794 45.6817C172.632 45.8394 172.488 46.0087 172.363 46.1896C172.237 46.3658 172.135 46.549 172.057 46.7391C171.982 46.9246 171.945 47.1055 171.945 47.2817C171.945 47.4812 171.992 47.6388 172.084 47.7548C172.182 47.8661 172.309 47.9588 172.467 48.033C172.629 48.1026 172.815 48.1606 173.024 48.207C173.232 48.2487 173.45 48.2997 173.677 48.36C173.956 48.4249 174.236 48.4991 174.519 48.5826C174.802 48.6661 175.057 48.782 175.284 48.9304C175.512 49.0742 175.693 49.2643 175.827 49.5009C175.943 49.7096 176.001 49.967 176.001 50.273C176.001 50.3148 175.999 50.3588 175.994 50.4052C175.966 50.8922 175.855 51.3212 175.66 51.6922C175.465 52.0678 175.213 52.3925 174.902 52.6661C174.591 52.9397 174.236 53.167 173.837 53.3478C173.439 53.5333 173.021 53.6817 172.585 53.793C172.149 53.9043 171.709 53.9832 171.264 54.0296C170.818 54.0759 170.394 54.0991 169.991 54.0991C169.174 54.0991 168.428 53.9901 167.751 53.7722C167.078 53.5542 166.51 53.2296 166.046 52.7983C165.582 52.3716 165.246 51.8383 165.037 51.1983C164.898 50.7809 164.829 50.3194 164.829 49.8139C164.829 49.5449 164.847 49.2667 164.884 48.9791C164.922 48.673 164.973 48.3623 165.037 48.047C165.102 47.7316 165.172 47.4278 165.246 47.1357C165.32 46.8388 165.397 46.5583 165.476 46.2939C165.555 46.0296 165.626 45.7977 165.691 45.5983C165.756 45.3988 165.812 45.2365 165.858 45.1113C165.905 44.9861 165.933 44.9142 165.942 44.8957L167.472 45.5148C167.361 45.8626 167.259 46.1896 167.166 46.4957C167.073 46.7971 166.99 47.0939 166.916 47.3861C166.842 47.6783 166.774 47.9728 166.714 48.2696C166.658 48.5617 166.61 48.8725 166.568 49.2017C166.549 49.3548 166.54 49.5032 166.54 49.647C166.54 49.9762 166.603 50.3032 166.728 50.6278C166.858 50.9571 167.078 51.247 167.389 51.4974C167.704 51.7525 168.084 51.9426 168.53 52.0678C168.975 52.193 169.462 52.2557 169.991 52.2557C170.607 52.2557 171.18 52.207 171.709 52.1096C172.242 52.0168 172.704 51.8916 173.093 51.7339C173.487 51.5762 173.8 51.3977 174.032 51.1983C174.269 51.0035 174.401 50.8017 174.429 50.593C174.424 50.5513 174.38 50.5119 174.297 50.4748C174.213 50.4377 174.109 50.4006 173.984 50.3635C173.858 50.331 173.719 50.2962 173.566 50.2591C173.418 50.2267 173.274 50.1919 173.135 50.1548C172.745 50.0574 172.384 49.9461 172.05 49.8209C171.716 49.7003 171.426 49.5403 171.18 49.3409C170.934 49.1414 170.742 48.8887 170.603 48.5826C170.464 48.2765 170.394 47.8916 170.394 47.4278C170.417 46.9177 170.524 46.4214 170.714 45.9391C170.904 45.4568 171.159 45.0186 171.479 44.6243C171.804 44.2255 172.182 43.8846 172.613 43.6017C173.044 43.3188 173.515 43.1217 174.025 43.0104ZM183.309 49.2087H183.093C182.972 49.2087 182.819 49.1948 182.634 49.167C182.453 49.1391 182.254 49.0557 182.036 48.9165C181.975 49.5009 181.797 50.0597 181.5 50.593C181.203 51.131 180.83 51.6342 180.38 52.1026C179.935 52.571 179.432 53 178.87 53.3896C178.314 53.7791 177.741 54.12 177.152 54.4122L176.373 52.8052C176.698 52.6383 177.025 52.4574 177.354 52.2626C177.679 52.0678 177.989 51.8591 178.286 51.6365C178.583 51.4139 178.859 51.182 179.114 50.9409C179.374 50.6997 179.596 50.447 179.782 50.1826C179.972 49.9183 180.12 49.647 180.227 49.3687C180.338 49.0904 180.394 48.8052 180.394 48.513C180.394 48.3043 180.364 48.0748 180.303 47.8243C180.243 47.5693 180.167 47.3049 180.074 47.0313C179.981 46.7577 179.881 46.4817 179.775 46.2035C179.668 45.9206 179.571 45.647 179.483 45.3826L181.152 44.687C181.333 45.2296 181.498 45.6794 181.646 46.0365C181.799 46.389 181.948 46.6696 182.091 46.8783C182.24 47.0823 182.393 47.2261 182.55 47.3096C182.713 47.3884 182.896 47.4278 183.1 47.4278H183.316L183.309 49.2087ZM183.033 47.4278H184.514C184.732 47.4278 184.967 47.4162 185.217 47.393C185.472 47.3652 185.706 47.3119 185.92 47.233C186.138 47.1496 186.316 47.0313 186.455 46.8783C186.599 46.7252 186.671 46.5212 186.671 46.2661C186.671 46.1455 186.645 45.9762 186.594 45.7583C186.543 45.5403 186.476 45.2991 186.393 45.0348C186.309 44.7704 186.21 44.4968 186.094 44.2139C185.982 43.931 185.864 43.6667 185.739 43.4209L187.346 42.6278C187.462 42.8922 187.578 43.1728 187.694 43.4696C187.81 43.7664 187.912 44.0725 188 44.3878C188.092 44.6986 188.167 45.0116 188.222 45.327C188.278 45.6423 188.306 45.9507 188.306 46.2522C188.306 46.7901 188.206 47.247 188.007 47.6226C187.807 47.9983 187.534 48.3043 187.186 48.5409C186.843 48.7728 186.439 48.942 185.975 49.0487C185.516 49.1554 185.025 49.2087 184.501 49.2087H183.033V47.4278ZM185.621 51.2678L184.438 52.4504L183.241 51.2609L184.424 50.0713L185.621 51.2678ZM188.25 51.2748L187.068 52.4643L185.871 51.2678L187.054 50.0852L188.25 51.2748ZM193.915 44.5826C194.007 44.8748 194.103 45.1809 194.2 45.5009C194.302 45.8162 194.392 46.1362 194.471 46.4609C194.555 46.7855 194.622 47.1101 194.673 47.4348C194.724 47.7548 194.749 48.0678 194.749 48.3739C194.749 48.7913 194.685 49.1971 194.555 49.5913C194.429 49.9901 194.253 50.3728 194.026 50.7391C193.803 51.1101 193.537 51.4626 193.226 51.7965C192.92 52.1304 192.586 52.4458 192.224 52.7426C191.863 53.0394 191.48 53.3154 191.076 53.5704C190.673 53.8255 190.265 54.0551 189.852 54.2591L189.059 52.6661C189.388 52.5038 189.713 52.3229 190.033 52.1235C190.353 51.9287 190.657 51.72 190.944 51.4974C191.236 51.2748 191.505 51.0406 191.751 50.7948C192.002 50.549 192.215 50.2939 192.391 50.0296C192.572 49.7652 192.714 49.4939 192.816 49.2157C192.918 48.9374 192.969 48.6568 192.969 48.3739C192.969 48.1096 192.938 47.8313 192.878 47.5391C192.818 47.247 192.744 46.9594 192.656 46.6765C192.572 46.389 192.484 46.113 192.391 45.8487C192.303 45.5843 192.229 45.3501 192.169 45.1461L193.915 44.5826ZM194.13 41.6191L192.795 42.9548L191.466 41.6191L192.795 40.2904L194.13 41.6191ZM198.791 44.687C198.67 44.687 198.541 44.738 198.401 44.84C198.262 44.942 198.135 45.0742 198.019 45.2365C197.903 45.3942 197.805 45.5704 197.727 45.7652C197.652 45.96 197.615 46.1501 197.615 46.3357C197.615 46.5304 197.659 46.6928 197.747 46.8226C197.84 46.9478 197.956 47.0499 198.095 47.1287C198.239 47.2075 198.399 47.2678 198.575 47.3096C198.756 47.3467 198.935 47.3745 199.111 47.393C199.208 47.3977 199.315 47.4023 199.431 47.407C199.547 47.4116 199.665 47.4162 199.786 47.4209C199.911 47.4209 200.034 47.4232 200.154 47.4278C200.275 47.4278 200.389 47.4278 200.495 47.4278C200.481 47.2562 200.447 47.0707 200.391 46.8713C200.34 46.6672 200.273 46.4632 200.189 46.2591C200.106 46.0551 200.011 45.8603 199.904 45.6748C199.797 45.4846 199.681 45.3177 199.556 45.1739C199.436 45.0255 199.31 44.9072 199.181 44.8191C199.051 44.731 198.921 44.687 198.791 44.687ZM195.633 52.3391C196.314 52.2046 196.929 52.0238 197.476 51.7965C198.028 51.5739 198.506 51.3235 198.909 51.0452C199.313 50.767 199.64 50.4701 199.89 50.1548C200.145 49.8394 200.314 49.5241 200.398 49.2087C200.022 49.2087 199.656 49.1971 199.299 49.1739C198.942 49.1507 198.603 49.1043 198.283 49.0348C197.968 48.9699 197.676 48.8771 197.407 48.7565C197.142 48.6313 196.913 48.469 196.718 48.2696C196.528 48.0655 196.379 47.8197 196.273 47.5322C196.166 47.2446 196.113 46.9014 196.113 46.5026C196.113 46.2475 196.141 45.9809 196.196 45.7026C196.252 45.4243 196.331 45.153 196.433 44.8887C196.539 44.6197 196.669 44.367 196.822 44.1304C196.975 43.8893 197.152 43.6783 197.351 43.4974C197.55 43.3119 197.771 43.1658 198.012 43.0591C198.253 42.9525 198.513 42.8991 198.791 42.8991C199.51 42.8991 200.166 43.2191 200.76 43.8591C200.973 44.0957 201.163 44.3646 201.33 44.6661C201.502 44.9629 201.645 45.2829 201.761 45.6261C201.882 45.9646 201.972 46.3194 202.033 46.6904C202.098 47.0614 202.13 47.4371 202.13 47.8174C202.13 48.411 202.054 48.9652 201.901 49.48C201.752 49.9994 201.541 50.4771 201.267 50.913C200.999 51.349 200.676 51.7409 200.301 52.0887C199.925 52.4412 199.512 52.7496 199.062 53.0139C198.612 53.2783 198.132 53.4986 197.622 53.6748C197.112 53.8557 196.588 53.9901 196.05 54.0783L195.633 52.3391ZM212.22 52.8748C212.489 52.9212 212.76 52.9443 213.034 52.9443C213.103 52.9443 213.24 52.9397 213.444 52.9304C213.648 52.9212 213.91 52.8794 214.23 52.8052C214.55 52.731 214.856 52.6313 215.149 52.5061C215.445 52.3809 215.717 52.2371 215.963 52.0748L216.902 53.633C216.633 53.7954 216.354 53.9438 216.067 54.0783C215.784 54.2174 215.49 54.3357 215.183 54.433C214.882 54.5304 214.569 54.6046 214.244 54.6557C213.961 54.702 213.672 54.7252 213.375 54.7252C213.328 54.7252 213.28 54.7252 213.229 54.7252C212.793 54.7159 212.357 54.6696 211.921 54.5861C211.49 54.5026 211.077 54.382 210.683 54.2243C210.293 54.0667 209.929 53.8696 209.59 53.633C209.256 53.4012 208.964 53.1299 208.714 52.8191C208.468 52.513 208.273 52.1675 208.13 51.7826C207.986 51.4023 207.912 50.9803 207.907 50.5165C207.921 50.0203 208.014 49.5565 208.185 49.1252C208.357 48.6986 208.584 48.309 208.867 47.9565C209.154 47.5994 209.484 47.2817 209.855 47.0035C210.23 46.7252 210.627 46.4864 211.044 46.287C210.896 46.1478 210.743 46.011 210.585 45.8765C210.432 45.7374 210.284 45.6075 210.14 45.487C209.996 45.3617 209.862 45.2481 209.736 45.1461C209.611 45.0394 209.507 44.949 209.423 44.8748L209.291 43.3861C209.899 42.8574 210.553 42.4609 211.253 42.1965C211.958 41.9275 212.693 41.793 213.458 41.793C213.685 41.793 213.92 41.8093 214.161 41.8417C214.407 41.8742 214.645 41.9252 214.877 41.9948C215.109 42.0643 215.327 42.1548 215.531 42.2661C215.735 42.3774 215.914 42.5142 216.067 42.6765C216.22 42.8342 216.341 43.0174 216.429 43.2261C216.507 43.4301 216.547 43.6574 216.547 43.9078C216.547 43.9217 216.547 43.9357 216.547 43.9496C216.528 44.302 216.459 44.6174 216.338 44.8957C216.222 45.1739 216.069 45.4243 215.879 45.647C215.689 45.8696 215.469 46.069 215.218 46.2452C214.972 46.4214 214.71 46.5838 214.432 46.7322C214.808 46.9409 215.207 47.1101 215.629 47.24C216.055 47.3652 216.47 47.4278 216.874 47.4278H217.11V49.2087H216.874C216.489 49.2087 216.116 49.1693 215.754 49.0904C215.392 49.0116 215.035 48.9003 214.683 48.7565C214.33 48.6081 213.98 48.4342 213.632 48.2348C213.284 48.0307 212.934 47.8058 212.582 47.56C212.243 47.6945 211.9 47.8522 211.552 48.033C211.204 48.2093 210.887 48.418 210.599 48.6591C210.316 48.8957 210.084 49.1646 209.903 49.4661C209.723 49.7675 209.632 50.1084 209.632 50.4887C209.632 50.702 209.674 50.9061 209.757 51.1009C209.845 51.2957 209.959 51.4765 210.098 51.6435C210.237 51.8151 210.397 51.9704 210.578 52.1096C210.759 52.2533 210.945 52.3762 211.135 52.4783C211.33 52.5849 211.52 52.6707 211.705 52.7357C211.895 52.8052 212.067 52.8516 212.22 52.8748ZM213.465 43.4904C213.28 43.4904 213.085 43.5043 212.881 43.5322C212.677 43.5554 212.475 43.5901 212.276 43.6365C212.076 43.6783 211.884 43.7316 211.698 43.7965C211.517 43.8568 211.357 43.9241 211.218 43.9983C211.316 44.1003 211.425 44.2186 211.545 44.353C211.666 44.4829 211.793 44.6197 211.928 44.7635C212.067 44.9072 212.208 45.051 212.352 45.1948C212.496 45.3339 212.637 45.4638 212.776 45.5843C213.083 45.4545 213.368 45.3223 213.632 45.1878C213.896 45.0533 214.126 44.9165 214.321 44.7774C214.52 44.6336 214.678 44.4852 214.794 44.3322C214.91 44.1791 214.97 44.0214 214.975 43.8591C214.97 43.8406 214.94 43.8128 214.884 43.7757C214.829 43.7386 214.738 43.7014 214.613 43.6643C214.492 43.6226 214.337 43.5855 214.147 43.553C213.961 43.5206 213.734 43.4997 213.465 43.4904ZM216.83 47.4278H217.887L217.936 47.3374C218.015 47.1983 218.126 47.0151 218.27 46.7878C218.418 46.5559 218.604 46.2939 218.826 46.0017C218.868 45.7096 218.903 45.3409 218.93 44.8957C218.958 44.4504 218.975 43.9681 218.979 43.4487C218.979 43.1658 218.975 42.8759 218.965 42.5791C218.956 42.2777 218.937 41.9322 218.91 41.5426C218.882 41.153 218.842 40.6986 218.791 40.1791C218.745 39.6551 218.685 39.0313 218.61 38.3078L220.44 37.8348C220.561 38.7252 220.651 39.6388 220.711 40.5757C220.776 41.5125 220.809 42.44 220.809 43.3583V43.9217C221.059 43.7084 221.319 43.5043 221.588 43.3096C221.862 43.1148 222.144 42.9432 222.437 42.7948C222.733 42.6464 223.042 42.5281 223.362 42.44C223.682 42.3519 224.016 42.3078 224.364 42.3078C224.716 42.3078 225.05 42.3635 225.365 42.4748C225.681 42.5861 225.959 42.7484 226.2 42.9617C226.446 43.1704 226.648 43.4255 226.805 43.727C226.963 44.0284 227.06 44.367 227.097 44.7426C227.102 44.8122 227.104 44.8794 227.104 44.9443C227.104 45.4267 227.023 45.8765 226.861 46.2939C226.703 46.7113 226.469 47.0893 226.158 47.4278H228.12V49.2087H226.27C225.903 49.2087 225.495 49.1925 225.045 49.16C224.595 49.1275 224.097 49.0417 223.55 48.9026C223.155 49.0093 222.754 49.0858 222.346 49.1322C221.943 49.1832 221.537 49.2087 221.129 49.2087H216.83V47.4278ZM220.482 47.4278C220.765 47.4278 221.089 47.4209 221.456 47.407C221.827 47.393 222.207 47.3606 222.597 47.3096C222.986 47.2586 223.364 47.182 223.73 47.08C224.102 46.978 224.431 46.8412 224.718 46.6696C225.006 46.498 225.233 46.2823 225.4 46.0226C225.544 45.8 225.616 45.5357 225.616 45.2296C225.616 45.1878 225.613 45.1438 225.609 45.0974C225.599 44.9583 225.553 44.8284 225.47 44.7078C225.391 44.5872 225.279 44.4852 225.136 44.4017C224.997 44.3136 224.83 44.2441 224.635 44.193C224.468 44.1559 224.287 44.1374 224.092 44.1374C224.055 44.1374 224.016 44.1374 223.974 44.1374C223.742 44.1467 223.466 44.207 223.146 44.3183C222.826 44.4249 222.483 44.6058 222.117 44.8609C221.75 45.1159 221.37 45.4522 220.976 45.8696C220.582 46.287 220.197 46.8064 219.821 47.4278H220.482ZM228.012 47.4278C228.499 47.4278 228.968 47.4139 229.417 47.3861C229.867 47.3536 230.278 47.3096 230.649 47.2539C231.02 47.1983 231.34 47.131 231.609 47.0522C231.878 46.9733 232.079 46.8852 232.214 46.7878H231.504C231.096 46.7878 230.707 46.7368 230.336 46.6348C229.969 46.5281 229.647 46.3704 229.369 46.1617C229.09 45.953 228.868 45.6933 228.701 45.3826C228.539 45.0672 228.457 44.7009 228.457 44.2835C228.457 44.0377 228.483 43.7849 228.534 43.5252C228.585 43.2655 228.661 43.0128 228.764 42.767C228.866 42.5212 228.988 42.2893 229.132 42.0713C229.276 41.8533 229.441 41.6632 229.626 41.5009C229.812 41.3339 230.016 41.2041 230.238 41.1113C230.461 41.0139 230.702 40.9652 230.962 40.9652C231.282 40.9652 231.581 41.0325 231.859 41.167C232.137 41.3014 232.39 41.4846 232.617 41.7165C232.845 41.9438 233.046 42.2081 233.223 42.5096C233.399 42.811 233.547 43.1287 233.668 43.4626C233.788 43.7965 233.879 44.1374 233.939 44.4852C234.004 44.8284 234.037 45.1554 234.037 45.4661C234.037 45.9948 233.962 46.4539 233.814 46.8435C233.67 47.233 233.466 47.567 233.202 47.8452C232.942 48.1235 232.629 48.3507 232.263 48.527C231.901 48.7032 231.5 48.8423 231.059 48.9443C230.619 49.0464 230.146 49.1159 229.64 49.153C229.139 49.1901 228.62 49.2087 228.082 49.2087H227.845V47.4278H228.012ZM230.962 42.76C230.939 42.7554 230.915 42.753 230.892 42.753C230.799 42.753 230.693 42.7901 230.572 42.8643C230.452 42.9386 230.336 43.0452 230.224 43.1843C230.113 43.3235 230.023 43.4812 229.953 43.6574C229.884 43.829 229.849 43.9983 229.849 44.1652C229.849 44.1745 229.849 44.1838 229.849 44.193C229.849 44.36 229.886 44.4968 229.96 44.6035C230.034 44.7055 230.134 44.7843 230.259 44.84C230.389 44.8957 230.537 44.9351 230.704 44.9583C230.876 44.9814 231.057 44.9977 231.247 45.007C231.372 45.0116 231.502 45.0139 231.637 45.0139C231.701 45.0139 231.801 45.0139 231.936 45.0139C232.075 45.0093 232.216 45.0023 232.36 44.993C232.318 44.8261 232.258 44.6197 232.179 44.3739C232.105 44.1235 232.01 43.8823 231.894 43.6504C231.783 43.4139 231.648 43.2099 231.49 43.0383C231.337 42.8667 231.161 42.7739 230.962 42.76ZM230.795 38.8713L229.612 40.0539L228.416 38.8643L229.598 37.6748L230.795 38.8713ZM233.424 38.8783L232.242 40.0678L231.045 38.8713L232.228 37.6887L233.424 38.8783Z" fill="black"/>
<path d="M158.736 349.01C158.945 348.964 159.158 348.936 159.376 348.927C159.437 348.922 159.497 348.92 159.557 348.92C159.71 348.92 159.877 348.932 160.058 348.955C160.243 348.978 160.438 349.022 160.642 349.087C160.851 349.152 161.05 349.235 161.241 349.337L160.608 351.007C160.366 350.9 160.116 350.828 159.856 350.791C159.745 350.777 159.636 350.77 159.529 350.77C159.376 350.77 159.223 350.784 159.07 350.812C158.912 350.826 158.743 350.872 158.562 350.951C158.381 351.03 158.201 351.132 158.02 351.257C157.843 351.378 157.672 351.519 157.505 351.682C157.343 351.839 157.199 352.009 157.074 352.19C156.948 352.366 156.846 352.549 156.768 352.739C156.693 352.925 156.656 353.106 156.656 353.282C156.656 353.481 156.703 353.639 156.795 353.755C156.893 353.866 157.02 353.959 157.178 354.033C157.34 354.103 157.526 354.161 157.734 354.207C157.943 354.249 158.161 354.3 158.388 354.36C158.667 354.425 158.947 354.499 159.23 354.583C159.513 354.666 159.768 354.782 159.995 354.93C160.223 355.074 160.403 355.264 160.538 355.501C160.654 355.71 160.712 355.967 160.712 356.273C160.712 356.315 160.71 356.359 160.705 356.405C160.677 356.892 160.566 357.321 160.371 357.692C160.176 358.068 159.923 358.392 159.613 358.666C159.302 358.94 158.947 359.167 158.548 359.348C158.15 359.533 157.732 359.682 157.296 359.793C156.86 359.904 156.42 359.983 155.974 360.03C155.529 360.076 155.105 360.099 154.701 360.099C153.885 360.099 153.139 359.99 152.461 359.772C151.789 359.554 151.221 359.23 150.757 358.798C150.293 358.372 149.957 357.838 149.748 357.198C149.609 356.781 149.54 356.319 149.54 355.814C149.54 355.545 149.558 355.267 149.595 354.979C149.632 354.673 149.683 354.362 149.748 354.047C149.813 353.732 149.883 353.428 149.957 353.136C150.031 352.839 150.108 352.558 150.187 352.294C150.266 352.03 150.337 351.798 150.402 351.598C150.467 351.399 150.523 351.237 150.569 351.111C150.616 350.986 150.643 350.914 150.653 350.896L152.183 351.515C152.072 351.863 151.97 352.19 151.877 352.496C151.784 352.797 151.701 353.094 151.627 353.386C151.552 353.678 151.485 353.973 151.425 354.27C151.369 354.562 151.321 354.872 151.279 355.202C151.26 355.355 151.251 355.503 151.251 355.647C151.251 355.976 151.314 356.303 151.439 356.628C151.569 356.957 151.789 357.247 152.1 357.497C152.415 357.752 152.795 357.943 153.241 358.068C153.686 358.193 154.173 358.256 154.701 358.256C155.318 358.256 155.891 358.207 156.42 358.11C156.953 358.017 157.414 357.892 157.804 357.734C158.198 357.576 158.511 357.398 158.743 357.198C158.98 357.003 159.112 356.802 159.14 356.593C159.135 356.551 159.091 356.512 159.008 356.475C158.924 356.438 158.82 356.401 158.694 356.363C158.569 356.331 158.43 356.296 158.277 356.259C158.129 356.227 157.985 356.192 157.846 356.155C157.456 356.057 157.094 355.946 156.761 355.821C156.427 355.7 156.137 355.54 155.891 355.341C155.645 355.141 155.453 354.889 155.314 354.583C155.174 354.277 155.105 353.892 155.105 353.428C155.128 352.918 155.235 352.421 155.425 351.939C155.615 351.457 155.87 351.019 156.19 350.624C156.515 350.226 156.893 349.885 157.324 349.602C157.755 349.319 158.226 349.122 158.736 349.01ZM162.697 352.475C162.874 352.586 163.085 352.7 163.33 352.816C163.581 352.932 163.838 353.036 164.103 353.129C164.372 353.221 164.634 353.298 164.889 353.358C165.148 353.419 165.376 353.449 165.57 353.449C165.649 353.449 165.747 353.446 165.863 353.442C165.979 353.437 166.101 353.428 166.231 353.414C166.361 353.395 166.491 353.37 166.621 353.337C166.751 353.3 166.867 353.252 166.969 353.191C167.075 353.126 167.161 353.048 167.226 352.955C167.291 352.857 167.326 352.739 167.33 352.6C167.33 352.591 167.33 352.584 167.33 352.579C167.33 352.394 167.277 352.185 167.17 351.953C167.068 351.717 166.927 351.471 166.746 351.216C166.565 350.956 166.357 350.696 166.12 350.437C165.883 350.177 165.638 349.929 165.383 349.692C165.128 349.451 164.87 349.231 164.61 349.031C164.355 348.827 164.117 348.656 163.894 348.517L164.93 346.979C165.357 347.271 165.777 347.601 166.19 347.967C166.607 348.333 166.99 348.725 167.337 349.143C167.69 349.555 167.994 349.987 168.249 350.437C168.508 350.886 168.694 351.341 168.805 351.8C168.865 352.064 168.896 352.317 168.896 352.558C168.896 352.79 168.852 353.068 168.763 353.393C168.68 353.718 168.488 354.038 168.186 354.353C167.885 354.664 167.502 354.903 167.038 355.07C166.639 355.213 166.201 355.285 165.723 355.285C165.645 355.285 165.563 355.283 165.48 355.278C165.174 355.278 164.863 355.248 164.548 355.188C164.232 355.132 163.922 355.053 163.616 354.951C163.314 354.849 163.022 354.733 162.739 354.603C162.461 354.469 162.201 354.328 161.96 354.179L162.697 352.475ZM169.797 358.339C170.479 358.205 171.093 358.024 171.64 357.797C172.192 357.574 172.67 357.323 173.073 357.045C173.477 356.767 173.804 356.47 174.054 356.155C174.309 355.839 174.479 355.524 174.562 355.209C174.186 355.209 173.82 355.197 173.463 355.174C173.106 355.151 172.767 355.104 172.447 355.035C172.132 354.97 171.84 354.877 171.571 354.757C171.306 354.631 171.077 354.469 170.882 354.27C170.692 354.066 170.543 353.82 170.437 353.532C170.33 353.245 170.277 352.901 170.277 352.503C170.277 352.248 170.305 351.981 170.36 351.703C170.416 351.424 170.495 351.153 170.597 350.889C170.703 350.62 170.833 350.367 170.986 350.13C171.139 349.889 171.316 349.678 171.515 349.497C171.714 349.312 171.935 349.166 172.176 349.059C172.417 348.952 172.677 348.899 172.955 348.899C173.674 348.899 174.33 349.219 174.924 349.859C175.119 350.077 175.295 350.321 175.452 350.59C175.61 350.859 175.747 351.146 175.863 351.452C175.979 351.758 176.072 352.078 176.141 352.412C176.215 352.741 176.262 353.08 176.28 353.428H176.746V355.209H176.134C175.976 355.895 175.71 356.512 175.334 357.059C174.959 357.611 174.506 358.091 173.978 358.499C173.454 358.907 172.869 359.243 172.225 359.508C171.58 359.772 170.91 359.962 170.214 360.078L169.797 358.339ZM172.955 350.687C172.834 350.687 172.705 350.738 172.565 350.84C172.426 350.942 172.299 351.074 172.183 351.237C172.067 351.394 171.97 351.57 171.891 351.765C171.816 351.96 171.779 352.15 171.779 352.336C171.779 352.53 171.823 352.693 171.912 352.823C172.004 352.952 172.12 353.057 172.259 353.136C172.403 353.214 172.563 353.275 172.739 353.317C172.92 353.354 173.099 353.379 173.275 353.393C173.372 353.402 173.479 353.409 173.595 353.414C173.711 353.414 173.829 353.416 173.95 353.421C174.075 353.426 174.198 353.428 174.319 353.428C174.439 353.428 174.553 353.428 174.659 353.428C174.645 353.256 174.611 353.071 174.555 352.871C174.504 352.667 174.437 352.463 174.353 352.259C174.27 352.055 174.175 351.86 174.068 351.675C173.961 351.485 173.845 351.318 173.72 351.174C173.6 351.026 173.474 350.907 173.345 350.819C173.215 350.731 173.085 350.687 172.955 350.687ZM179.948 352.489C180.101 352.554 180.298 352.635 180.539 352.732C180.78 352.83 181.04 352.927 181.318 353.024C181.596 353.122 181.877 353.21 182.16 353.289C182.447 353.363 182.709 353.409 182.946 353.428C182.9 353.233 182.851 353.031 182.8 352.823C182.753 352.609 182.7 352.403 182.64 352.203C182.58 352.004 182.512 351.816 182.438 351.64C182.364 351.459 182.276 351.301 182.174 351.167C182.076 351.032 181.963 350.926 181.833 350.847C181.703 350.768 181.557 350.729 181.395 350.729C181.209 350.729 181.042 350.789 180.894 350.91C180.75 351.03 180.618 351.181 180.497 351.362C180.381 351.538 180.277 351.728 180.184 351.932C180.096 352.136 180.017 352.322 179.948 352.489ZM182.591 355.188C182.35 355.183 182.067 355.148 181.742 355.083C181.418 355.023 181.086 354.942 180.748 354.84C180.414 354.738 180.091 354.622 179.781 354.492C179.475 354.362 179.215 354.226 179.002 354.082C178.821 354.263 178.644 354.423 178.473 354.562C178.301 354.701 178.123 354.819 177.937 354.917C177.752 355.009 177.55 355.081 177.332 355.132C177.119 355.183 176.875 355.209 176.602 355.209H176.462V353.428H176.602C176.94 353.428 177.223 353.365 177.45 353.24C177.678 353.11 177.872 352.943 178.035 352.739C178.197 352.535 178.338 352.306 178.459 352.05C178.584 351.795 178.712 351.54 178.842 351.285C178.971 351.016 179.12 350.747 179.287 350.478C179.454 350.209 179.642 349.968 179.85 349.755C180.064 349.537 180.302 349.361 180.567 349.226C180.831 349.092 181.128 349.024 181.457 349.024C181.889 349.024 182.25 349.101 182.542 349.254C182.839 349.402 183.085 349.609 183.28 349.873C183.479 350.133 183.637 350.439 183.753 350.791C183.869 351.144 183.966 351.524 184.045 351.932C184.091 352.169 184.135 352.38 184.177 352.565C184.219 352.746 184.265 352.901 184.316 353.031C184.372 353.161 184.43 353.261 184.49 353.33C184.555 353.395 184.632 353.428 184.72 353.428H184.935V355.209H184.671C184.416 355.204 184.189 355.134 183.989 355C183.795 354.861 183.614 354.678 183.447 354.45C183.396 354.497 183.335 354.559 183.266 354.638C183.201 354.717 183.129 354.796 183.05 354.875C182.976 354.949 182.9 355.016 182.821 355.077C182.742 355.137 182.665 355.174 182.591 355.188ZM190.883 351.125C190.716 350.93 190.521 350.754 190.299 350.597C190.113 350.462 189.897 350.341 189.652 350.235C189.406 350.123 189.137 350.068 188.845 350.068C188.608 350.068 188.399 350.105 188.219 350.179C188.038 350.249 187.885 350.346 187.759 350.471C187.634 350.592 187.537 350.733 187.467 350.896C187.398 351.058 187.356 351.232 187.342 351.417C187.337 351.45 187.335 351.482 187.335 351.515C187.335 351.733 187.393 351.946 187.509 352.155C187.625 352.359 187.787 352.542 187.996 352.704C188.205 352.862 188.446 352.983 188.719 353.066C188.942 353.136 189.167 353.17 189.394 353.17C189.445 353.17 189.496 353.168 189.547 353.163C189.816 353.145 190.085 353.117 190.354 353.08C190.628 353.038 190.876 352.999 191.099 352.962L191.843 352.816L192.059 354.548C191.771 354.622 191.449 354.699 191.092 354.777C190.735 354.856 190.324 354.928 189.86 354.993C189.401 355.053 188.879 355.104 188.295 355.146C187.711 355.188 187.048 355.209 186.306 355.209H184.65V353.428H184.956L186.285 353.421C186.034 353.129 185.863 352.83 185.77 352.523C185.682 352.213 185.638 351.872 185.638 351.501C185.638 351.065 185.719 350.652 185.881 350.263C186.044 349.873 186.266 349.532 186.549 349.24C186.837 348.948 187.175 348.716 187.565 348.544C187.959 348.373 188.386 348.287 188.845 348.287C189.072 348.287 189.29 348.308 189.499 348.35C189.712 348.391 189.914 348.447 190.104 348.517C190.294 348.586 190.473 348.665 190.639 348.753C190.811 348.841 190.966 348.929 191.106 349.017C191.268 349.124 191.426 349.238 191.579 349.358C191.732 349.479 191.875 349.606 192.01 349.741L190.883 351.125ZM203.329 359.744C202.531 359.744 201.794 359.645 201.116 359.445C200.439 359.25 199.862 358.954 199.384 358.555C198.907 358.161 198.547 357.664 198.306 357.066C198.111 356.598 198.014 356.067 198.014 355.473C198.014 355.315 198.021 355.153 198.035 354.986C198.063 354.666 198.1 354.339 198.146 354.005C198.197 353.671 198.264 353.321 198.348 352.955C198.436 352.584 198.547 352.192 198.682 351.779C198.816 351.366 198.983 350.921 199.183 350.443L200.616 351.104C200.425 351.577 200.268 352.016 200.143 352.419C200.017 352.818 199.918 353.189 199.843 353.532C199.774 353.875 199.725 354.198 199.697 354.499C199.669 354.801 199.656 355.09 199.656 355.369C199.656 355.703 199.697 356.002 199.781 356.266C199.869 356.53 199.98 356.767 200.115 356.976C200.296 357.221 200.523 357.409 200.796 357.539C201.07 357.674 201.358 357.771 201.659 357.831C201.965 357.892 202.264 357.926 202.556 357.936C202.853 357.95 203.111 357.957 203.329 357.957C203.458 357.957 203.646 357.947 203.892 357.929C204.143 357.91 204.414 357.878 204.706 357.831C205.003 357.785 205.307 357.725 205.617 357.65C205.928 357.576 206.209 357.483 206.459 357.372C206.714 357.261 206.92 357.131 207.078 356.983C207.24 356.834 207.322 356.66 207.322 356.461C207.322 356.428 207.28 356.377 207.196 356.308C207.118 356.243 207.006 356.169 206.863 356.085C206.723 356.002 206.559 355.914 206.369 355.821C206.178 355.733 205.974 355.647 205.756 355.563C205.436 355.457 205.119 355.378 204.803 355.327C204.488 355.276 204.175 355.223 203.864 355.167L204.101 353.428H209.624V355.209H208.323C208.509 355.436 208.632 355.659 208.692 355.877C208.757 356.099 208.792 356.294 208.796 356.461C208.778 356.869 208.674 357.233 208.483 357.553C208.293 357.878 208.047 358.161 207.746 358.402C207.449 358.648 207.111 358.854 206.73 359.021C206.35 359.192 205.96 359.332 205.562 359.438C205.163 359.545 204.769 359.621 204.379 359.668C203.994 359.719 203.644 359.744 203.329 359.744ZM209.645 353.428C209.882 353.428 210.104 353.381 210.313 353.289C210.526 353.191 210.728 353.02 210.918 352.774C211.113 352.523 211.294 352.183 211.461 351.751C211.632 351.32 211.795 350.768 211.948 350.096L213.652 350.576C213.541 350.961 213.441 351.332 213.353 351.689C213.265 352.041 213.216 352.345 213.207 352.6C213.207 352.623 213.207 352.644 213.207 352.663C213.207 352.746 213.214 352.834 213.228 352.927C213.246 353.02 213.277 353.106 213.318 353.184C213.36 353.263 213.416 353.326 213.485 353.372C213.55 353.414 213.622 353.435 213.701 353.435C213.71 353.435 213.719 353.435 213.729 353.435C213.9 353.43 214.063 353.368 214.216 353.247C214.369 353.126 214.51 352.971 214.64 352.781C214.775 352.591 214.895 352.375 215.002 352.134C215.113 351.893 215.21 351.649 215.294 351.403C215.382 351.153 215.456 350.91 215.517 350.673C215.577 350.437 215.623 350.228 215.656 350.047L217.297 350.381C217.237 350.659 217.188 350.917 217.151 351.153C217.114 351.385 217.091 351.619 217.082 351.856C217.077 351.916 217.075 351.976 217.075 352.037C217.075 352.152 217.082 352.289 217.096 352.447C217.114 352.6 217.154 352.751 217.214 352.899C217.274 353.048 217.358 353.17 217.464 353.268C217.576 353.361 217.719 353.407 217.896 353.407C218.095 353.407 218.255 353.33 218.376 353.177C218.501 353.02 218.596 352.82 218.661 352.579C218.726 352.338 218.768 352.071 218.786 351.779C218.809 351.482 218.821 351.195 218.821 350.917C218.821 350.828 218.819 350.759 218.814 350.708C218.814 350.652 218.814 350.601 218.814 350.555C218.814 350.508 218.812 350.457 218.807 350.402C218.807 350.341 218.807 350.26 218.807 350.158L220.567 350.019C220.581 350.172 220.595 350.323 220.609 350.471C220.623 350.615 220.637 350.766 220.65 350.923C220.664 351.077 220.681 351.241 220.699 351.417C220.722 351.589 220.748 351.777 220.776 351.981C220.808 352.222 220.875 352.433 220.977 352.614C221.084 352.795 221.207 352.946 221.346 353.066C221.485 353.187 221.634 353.277 221.791 353.337C221.954 353.398 222.107 353.428 222.25 353.428H222.508V355.209H222.285C222.058 355.209 221.833 355.186 221.61 355.139C221.392 355.093 221.184 355.021 220.984 354.923C220.785 354.826 220.597 354.703 220.421 354.555C220.249 354.402 220.099 354.221 219.969 354.012C219.746 354.374 219.454 354.664 219.092 354.882C218.73 355.1 218.332 355.209 217.896 355.209C217.46 355.209 217.063 355.104 216.706 354.896C216.354 354.687 216.073 354.409 215.864 354.061C215.73 354.232 215.584 354.39 215.426 354.534C215.273 354.673 215.106 354.796 214.925 354.903C214.749 355.005 214.561 355.083 214.362 355.139C214.162 355.199 213.954 355.23 213.736 355.23C213.527 355.23 213.325 355.202 213.13 355.146C212.936 355.095 212.755 355.019 212.588 354.917C212.421 354.814 212.27 354.692 212.136 354.548C212.001 354.399 211.89 354.235 211.802 354.054C211.57 354.462 211.285 354.757 210.946 354.937C210.608 355.118 210.176 355.209 209.652 355.209H209.353V353.428H209.645ZM228.433 353.428V355.209H228.294C227.844 355.209 227.464 355.137 227.153 354.993C226.843 354.849 226.578 354.664 226.36 354.437C226.207 354.631 225.98 354.782 225.678 354.889C225.382 354.991 225.05 355.065 224.684 355.111C224.317 355.162 223.939 355.19 223.55 355.195C223.165 355.204 222.81 355.209 222.485 355.209H222.228V353.428H222.485C223.028 353.428 223.485 353.398 223.856 353.337C224.227 353.272 224.526 353.18 224.753 353.059C224.985 352.939 225.152 352.788 225.254 352.607C225.356 352.421 225.407 352.208 225.407 351.967C225.407 351.809 225.377 351.601 225.317 351.341C225.256 351.077 225.166 350.738 225.045 350.325L226.757 349.845C226.817 350.049 226.863 350.23 226.896 350.388C226.933 350.541 226.961 350.696 226.979 350.854C227.003 351.007 227.021 351.174 227.035 351.355C227.054 351.531 227.072 351.742 227.091 351.988C227.105 352.136 227.139 352.296 227.195 352.468C227.251 352.635 227.327 352.79 227.425 352.934C227.527 353.073 227.65 353.191 227.793 353.289C227.937 353.381 228.104 353.428 228.294 353.428H228.433ZM224.816 357.268L223.633 358.45L222.437 357.261L223.619 356.071L224.816 357.268ZM227.445 357.275L226.263 358.464L225.066 357.268L226.249 356.085L227.445 357.275ZM228.15 353.428H228.658C228.825 353.428 228.98 353.414 229.124 353.386C229.268 353.358 229.395 353.3 229.506 353.212C229.618 353.119 229.708 352.992 229.778 352.83C229.847 352.667 229.891 352.449 229.91 352.176C229.91 352.069 229.912 351.883 229.917 351.619C229.926 351.35 229.933 351.032 229.938 350.666C229.942 350.295 229.947 349.889 229.952 349.449C229.956 349.008 229.959 348.558 229.959 348.099C229.959 347.742 229.956 347.392 229.952 347.049C229.952 346.701 229.947 346.367 229.938 346.047C229.933 345.727 229.922 345.426 229.903 345.143C229.889 344.86 229.868 344.602 229.84 344.37L231.614 344.141C231.647 344.391 231.672 344.674 231.691 344.99C231.709 345.305 231.723 345.641 231.733 345.998C231.746 346.351 231.753 346.722 231.753 347.111C231.758 347.496 231.76 347.886 231.76 348.28C231.76 349.157 231.751 349.919 231.733 350.569C231.719 351.218 231.712 351.793 231.712 352.294C231.712 352.646 231.802 352.925 231.983 353.129C232.164 353.328 232.433 353.428 232.79 353.428H232.943V355.209H232.79C232.762 355.209 232.737 355.209 232.713 355.209C232.533 355.209 232.354 355.192 232.178 355.16C232.006 355.132 231.839 355.088 231.677 355.028C231.519 354.972 231.373 354.905 231.239 354.826C231.104 354.747 230.986 354.666 230.884 354.583C230.749 354.712 230.601 354.819 230.439 354.903C230.281 354.981 230.119 355.044 229.952 355.09C229.785 355.137 229.62 355.167 229.458 355.181C229.295 355.199 229.149 355.209 229.019 355.209H228.15V353.428ZM232.666 353.428H234.829C235.098 353.428 235.339 353.395 235.553 353.33C235.77 353.266 235.954 353.182 236.102 353.08C236.25 352.973 236.364 352.853 236.443 352.718C236.526 352.579 236.568 352.438 236.568 352.294C236.568 352.071 236.524 351.83 236.436 351.57C236.348 351.306 236.23 351.039 236.081 350.77C235.937 350.497 235.766 350.223 235.566 349.95C235.372 349.671 235.165 349.407 234.947 349.157C234.729 348.901 234.504 348.665 234.273 348.447C234.045 348.229 233.827 348.037 233.619 347.87L233.786 345.908L239.873 343.334L240.519 344.927L235.267 347.083C235.624 347.394 235.935 347.703 236.199 348.009C236.468 348.31 236.707 348.614 236.916 348.92C237.129 349.221 237.322 349.525 237.493 349.831C237.665 350.137 237.832 350.446 237.994 350.757C238.11 350.979 238.226 351.197 238.342 351.41C238.458 351.624 238.583 351.842 238.718 352.064V352.057C238.843 352.266 238.975 352.454 239.114 352.621C239.258 352.788 239.411 352.932 239.573 353.052C239.74 353.173 239.921 353.266 240.116 353.33C240.315 353.395 240.533 353.428 240.77 353.428H241.208V355.209H241.006C240.635 355.209 240.299 355.183 239.998 355.132C239.696 355.081 239.416 355 239.156 354.889C238.901 354.777 238.66 354.636 238.433 354.464C238.21 354.288 237.99 354.077 237.772 353.831C237.609 354.072 237.426 354.279 237.222 354.45C237.018 354.617 236.798 354.757 236.561 354.868C236.325 354.974 236.074 355.053 235.81 355.104C235.55 355.16 235.281 355.195 235.003 355.209H232.666V353.428ZM239.657 342.68L233.786 345.073L233.834 344.176L239.316 341.97L239.657 342.68ZM240.931 353.428H242.051C242.269 353.428 242.492 353.416 242.719 353.393C242.951 353.365 243.16 353.312 243.345 353.233C243.531 353.15 243.681 353.031 243.797 352.878C243.918 352.725 243.978 352.521 243.978 352.266C243.978 352.146 243.953 351.976 243.902 351.758C243.851 351.54 243.783 351.299 243.7 351.035C243.616 350.77 243.517 350.497 243.401 350.214C243.289 349.931 243.171 349.667 243.046 349.421L244.653 348.628C244.769 348.892 244.885 349.173 245.001 349.47C245.117 349.766 245.219 350.072 245.307 350.388C245.4 350.699 245.474 351.012 245.529 351.327C245.585 351.642 245.613 351.951 245.613 352.252C245.613 352.772 245.525 353.219 245.349 353.595C245.172 353.966 244.927 354.272 244.611 354.513C244.296 354.75 243.918 354.923 243.477 355.035C243.041 355.151 242.561 355.209 242.037 355.209H240.931V353.428ZM244.486 346.27L243.15 347.605L241.822 346.27L243.15 344.941L244.486 346.27ZM248.829 344.141C248.944 345.027 249.026 345.873 249.072 346.68C249.118 347.482 249.146 348.268 249.155 349.038C249.165 349.692 249.167 350.297 249.162 350.854C249.162 351.41 249.158 351.93 249.149 352.412C249.139 352.89 249.125 353.337 249.107 353.755C249.088 354.168 249.07 354.555 249.051 354.917L247.229 355.195C247.326 353.664 247.375 352.312 247.375 351.139C247.375 350.666 247.368 350.223 247.354 349.81C247.317 348.86 247.275 347.967 247.229 347.132C247.182 346.293 247.12 345.49 247.041 344.725L248.829 344.141Z" fill="black"/>
<path d="M364.162 219.172L176.072 103.544L44.0781 191.54L231.943 317.718L364.162 229.572L364.162 219.172Z" fill="#E7E7E7" stroke="black"/>
<path d="M43.8371 180.697L43.8346 191.376L231.417 317.364L232.151 306.869L44.1934 180.519L43.8371 180.697Z" fill="#A3A3A3" stroke="black"/>
<rect x="-0.000955552" y="0.556128" width="158.615" height="226.305" transform="matrix(-0.83205 0.5547 0.830139 0.557556 175.591 92.2466)" fill="#E7E7E7" stroke="black"/>
<path d="M231.943 306.718L240.15 301.247L52.2852 175.069L44.078 180.54L231.943 306.718Z" fill="#A3A3A3" stroke="black"/>
<path d="M268.268 122.923C268.268 122.937 268.277 123.012 268.294 123.149C268.311 123.279 268.329 123.451 268.346 123.664C268.364 123.87 268.378 124.102 268.39 124.361C268.395 124.538 268.398 124.718 268.398 124.899V125.17C268.375 126.761 268.06 127.782 267.452 128.233V128.222C266.862 128.684 266.06 128.578 265.047 127.903C264.769 127.717 264.517 127.529 264.292 127.336C264.072 127.141 263.852 126.918 263.632 126.667L263.701 127.287C263.771 127.987 263.826 128.699 263.866 129.421C263.912 130.141 263.947 130.856 263.97 131.567C263.999 132.275 264.017 132.969 264.022 133.647C264.034 134.323 264.04 134.963 264.04 135.569L262.312 134.417C262.312 133.311 262.303 132.206 262.286 131.102C262.269 129.991 262.222 128.896 262.147 127.816C262.072 126.73 261.959 125.667 261.808 124.627C261.664 123.585 261.461 122.58 261.201 121.613C261.079 121.157 260.949 120.711 260.81 120.278C260.671 119.844 260.515 119.389 260.341 118.911L261.791 118.772C261.884 119.015 261.968 119.255 262.043 119.493C262.124 119.728 262.202 119.971 262.277 120.223C262.358 120.472 262.439 120.735 262.52 121.011C262.601 121.288 262.691 121.588 262.79 121.911C262.923 122.368 263.053 122.789 263.18 123.173C263.313 123.554 263.464 123.908 263.632 124.236C263.805 124.567 264.002 124.865 264.222 125.13C264.448 125.392 264.723 125.631 265.047 125.847C265.527 126.167 265.889 126.231 266.132 126.038C266.242 125.959 266.332 125.841 266.401 125.686C266.471 125.523 266.526 125.341 266.566 125.138C266.613 124.939 266.644 124.724 266.662 124.492C266.679 124.26 266.688 124.03 266.688 123.8C266.688 123.501 266.673 123.203 266.644 122.905C266.621 122.611 266.595 122.364 266.566 122.164L268.268 122.923ZM280.914 131.239C281.007 131.906 281.073 132.507 281.114 133.042C281.154 133.569 281.183 134.051 281.2 134.487C281.206 134.609 281.209 134.73 281.209 134.848C281.209 135.279 281.169 135.683 281.088 136.061C281.012 136.442 280.873 136.746 280.671 136.972C280.468 137.199 280.202 137.307 279.872 137.296C279.548 137.281 279.157 137.122 278.7 136.817C278.555 136.72 278.402 136.601 278.24 136.458C278.078 136.308 277.913 136.132 277.745 135.93C277.577 135.72 277.412 135.478 277.25 135.203C277.088 134.928 276.935 134.617 276.79 134.27C276.668 134.468 276.524 134.604 276.356 134.68C276.194 134.76 276.017 134.792 275.826 134.776C275.635 134.76 275.433 134.705 275.218 134.611C275.004 134.516 274.784 134.394 274.559 134.244C274.339 134.097 274.148 133.956 273.986 133.82C273.823 133.677 273.653 133.508 273.473 133.311C273.664 134.858 273.777 136.356 273.812 137.805C273.852 139.258 273.873 140.694 273.873 142.113L272.145 140.962C272.156 140.677 272.162 140.382 272.162 140.076C272.168 139.773 272.171 139.483 272.171 139.205C272.171 137.181 272.058 135.189 271.832 133.23C271.607 131.27 271.259 129.411 270.79 127.652C270.657 127.18 270.533 126.767 270.417 126.411C270.307 126.06 270.186 125.714 270.052 125.375L271.624 125.306C271.664 125.417 271.711 125.552 271.763 125.712C271.815 125.865 271.87 126.03 271.928 126.208C271.986 126.386 272.044 126.567 272.101 126.752C272.165 126.94 272.226 127.123 272.284 127.301L272.692 128.627C272.848 129.163 272.984 129.615 273.1 129.984C273.216 130.354 273.337 130.671 273.465 130.937C273.598 131.207 273.748 131.439 273.916 131.634C274.084 131.823 274.298 132.004 274.559 132.178C274.831 132.359 275.048 132.399 275.21 132.299C275.378 132.195 275.508 132.024 275.6 131.787C275.693 131.543 275.754 131.27 275.783 130.969C275.817 130.666 275.838 130.401 275.844 130.175C275.844 130.099 275.841 129.964 275.835 129.773C275.829 129.574 275.82 129.367 275.809 129.15C275.803 128.938 275.794 128.741 275.783 128.559C275.771 128.37 275.762 128.253 275.757 128.208L277.476 129.103C277.482 129.323 277.493 129.536 277.511 129.742C277.534 129.945 277.551 130.141 277.563 130.33C277.574 130.484 277.589 130.685 277.606 130.933C277.629 131.185 277.658 131.458 277.693 131.752C277.733 132.051 277.78 132.356 277.832 132.669C277.89 132.979 277.959 133.272 278.04 133.549C278.121 133.826 278.214 134.068 278.318 134.277C278.428 134.489 278.555 134.644 278.7 134.74C278.891 134.868 279.039 134.896 279.143 134.827C279.253 134.754 279.331 134.632 279.377 134.461C279.429 134.294 279.461 134.107 279.473 133.899C279.484 133.684 279.49 133.497 279.49 133.337C279.49 133.024 279.478 132.647 279.455 132.207C279.438 131.764 279.383 131.21 279.29 130.543L280.914 131.239ZM283.421 151.682L282.405 150.16C283.013 149.542 283.331 148.701 283.36 147.635V145.673L285.123 146.848V148.549C285.123 149.335 284.961 150.013 284.636 150.583C284.318 151.164 283.913 151.53 283.421 151.682ZM294.061 155.697C293.638 155.416 293.25 155.035 292.897 154.556C292.55 154.075 292.255 153.519 292.012 152.891L291.986 152.832C291.737 153.118 291.424 153.268 291.048 153.282C290.678 153.299 290.267 153.157 289.815 152.856C289.312 152.521 288.886 152.126 288.539 151.672C288.197 151.221 287.919 150.744 287.705 150.239C287.491 149.728 287.332 149.201 287.228 148.659C287.124 148.116 287.06 147.587 287.037 147.07C287.025 146.854 287.019 146.645 287.019 146.443C287.019 146.158 287.034 145.834 287.063 145.47C287.098 145.104 287.15 144.749 287.219 144.406C287.323 143.912 287.456 143.43 287.618 142.961C287.786 142.495 287.989 142.029 288.226 141.561C288.469 141.09 288.753 140.611 289.077 140.124C289.407 139.642 289.783 139.138 290.206 138.613L289.885 138.012L291.1 137.362C291.685 138.392 292.258 139.427 292.819 140.47C293.386 141.509 293.916 142.564 294.408 143.637C295.543 146.132 296.364 148.517 296.874 150.79C297.042 151.57 297.126 152.321 297.126 153.045C297.126 153.622 297.062 154.147 296.935 154.618C296.807 155.09 296.616 155.464 296.362 155.739C296.113 156.011 295.794 156.157 295.406 156.177C295.024 156.194 294.579 156.036 294.069 155.703L294.061 155.697ZM292.784 148.961C292.784 149.149 292.79 149.376 292.802 149.641C292.813 149.906 292.834 150.187 292.863 150.485C292.897 150.779 292.944 151.081 293.001 151.391C293.065 151.705 293.143 152.004 293.236 152.288C293.334 152.57 293.45 152.828 293.583 153.062C293.722 153.301 293.884 153.496 294.069 153.647C294.341 153.808 294.564 153.856 294.738 153.791C294.912 153.725 295.048 153.597 295.146 153.405C295.244 153.206 295.311 152.969 295.346 152.693C295.386 152.414 295.406 152.146 295.406 151.888C295.406 151.652 295.392 151.399 295.363 151.129C295.334 150.859 295.288 150.585 295.224 150.306C295.016 149.395 294.764 148.504 294.469 147.632C294.174 146.76 293.858 145.924 293.522 145.123C293.187 144.315 292.842 143.553 292.489 142.837C292.136 142.122 291.798 141.469 291.473 140.877C291.109 141.343 290.788 141.79 290.51 142.217C290.232 142.644 289.989 143.063 289.78 143.473C289.572 143.884 289.395 144.295 289.251 144.706C289.112 145.115 288.996 145.531 288.903 145.957C288.869 146.107 288.834 146.307 288.799 146.555C288.765 146.803 288.741 147.08 288.73 147.385C288.724 147.486 288.721 147.588 288.721 147.692C288.721 147.901 288.73 148.143 288.747 148.419C288.77 148.699 288.82 148.993 288.895 149.3C288.976 149.612 289.089 149.896 289.233 150.152C289.384 150.412 289.578 150.622 289.815 150.78C290.023 150.912 290.203 150.955 290.353 150.909C290.504 150.863 290.631 150.764 290.735 150.611C290.845 150.455 290.935 150.261 291.005 150.029C291.08 149.794 291.141 149.552 291.187 149.305C291.233 149.057 291.271 148.818 291.3 148.587C291.334 148.353 291.363 148.16 291.387 148.008L292.784 148.961Z" fill="black"/>
<path d="M96.4111 132.172C96.4111 130.816 96.3909 129.483 96.3503 128.175C96.3098 126.859 96.2201 125.632 96.0812 124.493C95.9423 123.355 95.7426 122.336 95.4821 121.439C95.2274 120.537 94.883 119.821 94.4489 119.289L95.8902 117.222C96.3648 117.817 96.7584 118.609 97.071 119.597C97.3893 120.574 97.6324 121.772 97.8003 123.191C97.8697 123.798 97.9247 124.436 97.9652 125.105C98.0115 125.77 98.0463 126.442 98.0694 127.123C98.0984 127.792 98.1157 128.459 98.1215 129.123C98.1331 129.783 98.1389 130.415 98.1389 131.021L96.4111 132.172ZM104.083 127.027C104.083 125.482 103.958 124.115 103.709 122.924C103.466 121.73 103.145 120.667 102.746 119.737C102.352 118.796 101.906 117.966 101.409 117.248C100.917 116.518 100.422 115.85 99.9239 115.243L101.357 113.213C101.715 113.641 102.045 114.065 102.346 114.483C102.647 114.902 102.925 115.325 103.18 115.754C103.434 116.175 103.666 116.602 103.874 117.033C104.083 117.465 104.274 117.908 104.447 118.363C104.505 118.526 104.557 118.672 104.604 118.801C104.656 118.926 104.702 119.052 104.743 119.178C104.783 119.304 104.824 119.437 104.864 119.577C104.905 119.71 104.945 119.864 104.986 120.039C105.223 118.969 105.486 117.882 105.776 116.778C106.065 115.667 106.357 114.606 106.653 113.595C106.948 112.577 107.237 111.637 107.521 110.773C107.81 109.905 108.071 109.175 108.302 108.582L109.735 108.702C109.469 109.506 109.188 110.35 108.893 111.236C108.598 112.121 108.308 113.031 108.024 113.964C107.741 114.898 107.469 115.855 107.208 116.835C106.948 117.816 106.716 118.808 106.514 119.813C106.311 120.818 106.146 121.828 106.019 122.846C105.892 123.863 105.819 124.874 105.802 125.881L104.083 127.027Z" fill="black"/>
<path d="M183.815 201.747C185.23 202.844 185.867 204.027 185.726 205.296C185.579 206.561 184.675 207.747 183.014 208.854C181.191 210.07 179.149 210.616 176.889 210.492C174.622 210.364 172.424 209.585 170.293 208.154L169.427 207.572C168.064 206.656 167.103 205.69 166.544 204.671C165.985 203.653 165.874 202.66 166.211 201.694C166.553 200.723 167.315 199.844 168.496 199.057C170.134 197.965 171.893 197.38 173.772 197.302C175.651 197.224 177.46 197.664 179.198 198.623L176.273 200.573C175.285 200.003 174.366 199.727 173.516 199.745C172.666 199.763 171.793 200.071 170.896 200.669C169.923 201.317 169.543 202.038 169.756 202.831C169.963 203.621 170.794 204.512 172.249 205.505L173.314 206.221C174.845 207.248 176.196 207.847 177.37 208.015C178.543 208.176 179.631 207.922 180.632 207.254C181.535 206.653 182.001 206.067 182.031 205.499C182.067 204.926 181.686 204.326 180.89 203.698L183.815 201.747ZM184.467 200.455C183.422 199.753 182.692 198.995 182.277 198.182C181.862 197.361 181.811 196.549 182.125 195.744C182.433 194.936 183.087 194.199 184.089 193.531C185.513 192.582 187.109 192.101 188.878 192.088C190.647 192.068 192.332 192.526 193.932 193.461L194.668 193.932C196.279 195.014 197.122 196.184 197.195 197.442C197.268 198.699 196.543 199.835 195.021 200.85C193.498 201.865 191.798 202.349 189.919 202.304C188.046 202.254 186.272 201.667 184.597 200.542L184.467 200.455ZM187.497 198.713C188.496 199.384 189.449 199.773 190.357 199.879C191.258 199.981 192.059 199.798 192.76 199.332C193.443 198.876 193.715 198.347 193.578 197.743C193.44 197.131 192.796 196.44 191.647 195.668C190.671 195.012 189.721 194.634 188.796 194.531C187.871 194.421 187.061 194.598 186.367 195.061C185.678 195.52 185.414 196.056 185.575 196.667C185.73 197.275 186.371 197.957 187.497 198.713ZM202.074 191.302L196.942 185.229L199.886 183.266L206.851 192.708L204.168 194.497L190.083 189.801L193.027 187.839L202.074 191.302ZM216.689 186.404C215.144 187.435 213.414 187.958 211.5 187.974C209.581 187.986 207.833 187.463 206.256 186.404L205.979 186.218C204.922 185.508 204.181 184.739 203.754 183.91C203.334 183.078 203.274 182.259 203.576 181.455C203.873 180.647 204.501 179.923 205.462 179.282C206.903 178.321 208.494 177.871 210.234 177.932C211.974 177.986 213.676 178.571 215.339 179.688L216.491 180.462L209.771 184.942C210.551 185.342 211.377 185.529 212.25 185.503C213.123 185.478 213.91 185.231 214.611 184.764C215.699 184.039 216.154 183.21 215.976 182.277L218.907 182.387C219.085 183.072 218.98 183.768 218.592 184.475C218.203 185.175 217.569 185.818 216.689 186.404ZM207.731 180.818C207.17 181.192 206.903 181.621 206.931 182.105C206.96 182.589 207.277 183.1 207.883 183.639L211.807 181.022L211.582 180.871C210.947 180.46 210.294 180.25 209.623 180.241C208.958 180.228 208.328 180.421 207.731 180.818ZM220.459 173.075C220.025 173.295 219.664 173.501 219.374 173.694C218.303 174.408 217.964 175.117 218.356 175.822L225.242 180.447L222.429 182.323L211.905 175.254L214.561 173.483L215.895 174.274C215.493 173.244 215.792 172.396 216.793 171.728C217.106 171.52 217.441 171.354 217.8 171.231L220.459 173.075Z" fill="black"/>
<path d="M190.706 85.1575C190.543 84.8539 190.543 84.5373 190.706 84.4504L193.353 83.0334C193.516 82.9465 193.779 83.1221 193.941 83.4257C194.104 83.7292 194.104 84.0458 193.941 84.1328L191.588 85.3923L193.941 89.7896C194.104 90.0932 194.104 90.4098 193.941 90.4967C193.779 90.5837 193.516 90.4081 193.353 90.1045L190.706 85.1575ZM245.083 121.556L191 85.5V84.5L245.083 120.556V121.556Z" fill="black"/>
<path d="M40.7057 164.613C40.5433 164.526 40.5433 164.209 40.7057 163.906L43.3533 158.959C43.5158 158.655 43.7792 158.48 43.9416 158.567C44.1041 158.653 44.1041 158.97 43.9416 159.274L41.5883 163.671L43.9416 164.93C44.1041 165.017 44.1041 165.334 43.9416 165.638C43.7792 165.941 43.5158 166.117 43.3533 166.03L40.7057 164.613ZM87.5947 133.5L40.9999 164.563V163.563L87.5947 132.5V133.5Z" fill="black"/>
<path d="M162.889 84.4503C163.051 84.5373 163.051 84.8539 162.889 85.1574L160.241 90.1045C160.079 90.408 159.815 90.5836 159.653 90.4967C159.491 90.4097 159.491 90.0932 159.653 89.7896L162.006 85.3922L159.653 84.1327C159.491 84.0458 159.491 83.7292 159.653 83.4256C159.815 83.1221 160.079 82.9464 160.241 83.0334L162.889 84.4503ZM162.595 85.5L116 116.563V115.563L162.595 84.5V85.5Z" fill="black"/>
<path d="M365.377 199.954C365.54 200.257 365.54 200.574 365.377 200.661L362.73 202.078C362.567 202.165 362.304 201.989 362.141 201.685C361.979 201.382 361.979 201.065 362.141 200.978L364.495 199.719L362.141 195.321C361.979 195.018 361.979 194.701 362.141 194.614C362.304 194.527 362.567 194.703 362.73 195.007L365.377 199.954ZM365.083 200.611L311 164.556V163.556L365.083 199.611V200.611Z" fill="black"/>
</svg>
