<svg width="400" height="400" viewBox="0 0 400 400" fill="none" xmlns="http://www.w3.org/2000/svg">
<rect width="400" height="400" fill="white"/>
<path d="M174.025 43.0104C174.234 42.9641 174.447 42.9362 174.665 42.927C174.726 42.9223 174.786 42.92 174.846 42.92C174.999 42.92 175.166 42.9316 175.347 42.9548C175.533 42.978 175.727 43.022 175.931 43.087C176.14 43.1519 176.34 43.2354 176.53 43.3374L175.897 45.007C175.655 44.9003 175.405 44.8284 175.145 44.7913C175.034 44.7774 174.925 44.7704 174.818 44.7704C174.665 44.7704 174.512 44.7843 174.359 44.8122C174.202 44.8261 174.032 44.8725 173.851 44.9513C173.671 45.0301 173.49 45.1322 173.309 45.2574C173.133 45.378 172.961 45.5194 172.794 45.6817C172.632 45.8394 172.488 46.0087 172.363 46.1896C172.237 46.3658 172.135 46.549 172.057 46.7391C171.982 46.9246 171.945 47.1055 171.945 47.2817C171.945 47.4812 171.992 47.6388 172.084 47.7548C172.182 47.8661 172.309 47.9588 172.467 48.033C172.629 48.1026 172.815 48.1606 173.024 48.207C173.232 48.2487 173.45 48.2997 173.677 48.36C173.956 48.4249 174.236 48.4991 174.519 48.5826C174.802 48.6661 175.057 48.782 175.284 48.9304C175.512 49.0742 175.693 49.2643 175.827 49.5009C175.943 49.7096 176.001 49.967 176.001 50.273C176.001 50.3148 175.999 50.3588 175.994 50.4052C175.966 50.8922 175.855 51.3212 175.66 51.6922C175.465 52.0678 175.213 52.3925 174.902 52.6661C174.591 52.9397 174.236 53.167 173.837 53.3478C173.439 53.5333 173.021 53.6817 172.585 53.793C172.149 53.9043 171.709 53.9832 171.264 54.0296C170.818 54.0759 170.394 54.0991 169.991 54.0991C169.174 54.0991 168.428 53.9901 167.751 53.7722C167.078 53.5542 166.51 53.2296 166.046 52.7983C165.582 52.3716 165.246 51.8383 165.037 51.1983C164.898 50.7809 164.829 50.3194 164.829 49.8139C164.829 49.5449 164.847 49.2667 164.884 48.9791C164.922 48.673 164.973 48.3623 165.037 48.047C165.102 47.7316 165.172 47.4278 165.246 47.1357C165.32 46.8388 165.397 46.5583 165.476 46.2939C165.555 46.0296 165.626 45.7977 165.691 45.5983C165.756 45.3988 165.812 45.2365 165.858 45.1113C165.905 44.9861 165.933 44.9142 165.942 44.8957L167.472 45.5148C167.361 45.8626 167.259 46.1896 167.166 46.4957C167.073 46.7971 166.99 47.0939 166.916 47.3861C166.842 47.6783 166.774 47.9728 166.714 48.2696C166.658 48.5617 166.61 48.8725 166.568 49.2017C166.549 49.3548 166.54 49.5032 166.54 49.647C166.54 49.9762 166.603 50.3032 166.728 50.6278C166.858 50.9571 167.078 51.247 167.389 51.4974C167.704 51.7525 168.084 51.9426 168.53 52.0678C168.975 52.193 169.462 52.2557 169.991 52.2557C170.607 52.2557 171.18 52.207 171.709 52.1096C172.242 52.0168 172.704 51.8916 173.093 51.7339C173.487 51.5762 173.8 51.3977 174.032 51.1983C174.269 51.0035 174.401 50.8017 174.429 50.593C174.424 50.5513 174.38 50.5119 174.297 50.4748C174.213 50.4377 174.109 50.4006 173.984 50.3635C173.858 50.331 173.719 50.2962 173.566 50.2591C173.418 50.2267 173.274 50.1919 173.135 50.1548C172.745 50.0574 172.384 49.9461 172.05 49.8209C171.716 49.7003 171.426 49.5403 171.18 49.3409C170.934 49.1414 170.742 48.8887 170.603 48.5826C170.464 48.2765 170.394 47.8916 170.394 47.4278C170.417 46.9177 170.524 46.4214 170.714 45.9391C170.904 45.4568 171.159 45.0186 171.479 44.6243C171.804 44.2255 172.182 43.8846 172.613 43.6017C173.044 43.3188 173.515 43.1217 174.025 43.0104ZM183.309 49.2087H183.093C182.972 49.2087 182.819 49.1948 182.634 49.167C182.453 49.1391 182.254 49.0557 182.036 48.9165C181.975 49.5009 181.797 50.0597 181.5 50.593C181.203 51.131 180.83 51.6342 180.38 52.1026C179.935 52.571 179.432 53 178.87 53.3896C178.314 53.7791 177.741 54.12 177.152 54.4122L176.373 52.8052C176.698 52.6383 177.025 52.4574 177.354 52.2626C177.679 52.0678 177.989 51.8591 178.286 51.6365C178.583 51.4139 178.859 51.182 179.114 50.9409C179.374 50.6997 179.596 50.447 179.782 50.1826C179.972 49.9183 180.12 49.647 180.227 49.3687C180.338 49.0904 180.394 48.8052 180.394 48.513C180.394 48.3043 180.364 48.0748 180.303 47.8243C180.243 47.5693 180.167 47.3049 180.074 47.0313C179.981 46.7577 179.881 46.4817 179.775 46.2035C179.668 45.9206 179.571 45.647 179.483 45.3826L181.152 44.687C181.333 45.2296 181.498 45.6794 181.646 46.0365C181.799 46.389 181.948 46.6696 182.091 46.8783C182.24 47.0823 182.393 47.2261 182.55 47.3096C182.713 47.3884 182.896 47.4278 183.1 47.4278H183.316L183.309 49.2087ZM183.033 47.4278H184.514C184.732 47.4278 184.967 47.4162 185.217 47.393C185.472 47.3652 185.706 47.3119 185.92 47.233C186.138 47.1496 186.316 47.0313 186.455 46.8783C186.599 46.7252 186.671 46.5212 186.671 46.2661C186.671 46.1455 186.645 45.9762 186.594 45.7583C186.543 45.5403 186.476 45.2991 186.393 45.0348C186.309 44.7704 186.21 44.4968 186.094 44.2139C185.982 43.931 185.864 43.6667 185.739 43.4209L187.346 42.6278C187.462 42.8922 187.578 43.1728 187.694 43.4696C187.81 43.7664 187.912 44.0725 188 44.3878C188.092 44.6986 188.167 45.0116 188.222 45.327C188.278 45.6423 188.306 45.9507 188.306 46.2522C188.306 46.7901 188.206 47.247 188.007 47.6226C187.807 47.9983 187.534 48.3043 187.186 48.5409C186.843 48.7728 186.439 48.942 185.975 49.0487C185.516 49.1554 185.025 49.2087 184.501 49.2087H183.033V47.4278ZM185.621 51.2678L184.438 52.4504L183.241 51.2609L184.424 50.0713L185.621 51.2678ZM188.25 51.2748L187.068 52.4643L185.871 51.2678L187.054 50.0852L188.25 51.2748ZM193.915 44.5826C194.007 44.8748 194.103 45.1809 194.2 45.5009C194.302 45.8162 194.392 46.1362 194.471 46.4609C194.555 46.7855 194.622 47.1101 194.673 47.4348C194.724 47.7548 194.749 48.0678 194.749 48.3739C194.749 48.7913 194.685 49.1971 194.555 49.5913C194.429 49.9901 194.253 50.3728 194.026 50.7391C193.803 51.1101 193.537 51.4626 193.226 51.7965C192.92 52.1304 192.586 52.4458 192.224 52.7426C191.863 53.0394 191.48 53.3154 191.076 53.5704C190.673 53.8255 190.265 54.0551 189.852 54.2591L189.059 52.6661C189.388 52.5038 189.713 52.3229 190.033 52.1235C190.353 51.9287 190.657 51.72 190.944 51.4974C191.236 51.2748 191.505 51.0406 191.751 50.7948C192.002 50.549 192.215 50.2939 192.391 50.0296C192.572 49.7652 192.714 49.4939 192.816 49.2157C192.918 48.9374 192.969 48.6568 192.969 48.3739C192.969 48.1096 192.938 47.8313 192.878 47.5391C192.818 47.247 192.744 46.9594 192.656 46.6765C192.572 46.389 192.484 46.113 192.391 45.8487C192.303 45.5843 192.229 45.3501 192.169 45.1461L193.915 44.5826ZM194.13 41.6191L192.795 42.9548L191.466 41.6191L192.795 40.2904L194.13 41.6191ZM198.791 44.687C198.67 44.687 198.541 44.738 198.401 44.84C198.262 44.942 198.135 45.0742 198.019 45.2365C197.903 45.3942 197.805 45.5704 197.727 45.7652C197.652 45.96 197.615 46.1501 197.615 46.3357C197.615 46.5304 197.659 46.6928 197.747 46.8226C197.84 46.9478 197.956 47.0499 198.095 47.1287C198.239 47.2075 198.399 47.2678 198.575 47.3096C198.756 47.3467 198.935 47.3745 199.111 47.393C199.208 47.3977 199.315 47.4023 199.431 47.407C199.547 47.4116 199.665 47.4162 199.786 47.4209C199.911 47.4209 200.034 47.4232 200.154 47.4278C200.275 47.4278 200.389 47.4278 200.495 47.4278C200.481 47.2562 200.447 47.0707 200.391 46.8713C200.34 46.6672 200.273 46.4632 200.189 46.2591C200.106 46.0551 200.011 45.8603 199.904 45.6748C199.797 45.4846 199.681 45.3177 199.556 45.1739C199.436 45.0255 199.31 44.9072 199.181 44.8191C199.051 44.731 198.921 44.687 198.791 44.687ZM195.633 52.3391C196.314 52.2046 196.929 52.0238 197.476 51.7965C198.028 51.5739 198.506 51.3235 198.909 51.0452C199.313 50.767 199.64 50.4701 199.89 50.1548C200.145 49.8394 200.314 49.5241 200.398 49.2087C200.022 49.2087 199.656 49.1971 199.299 49.1739C198.942 49.1507 198.603 49.1043 198.283 49.0348C197.968 48.9699 197.676 48.8771 197.407 48.7565C197.142 48.6313 196.913 48.469 196.718 48.2696C196.528 48.0655 196.379 47.8197 196.273 47.5322C196.166 47.2446 196.113 46.9014 196.113 46.5026C196.113 46.2475 196.141 45.9809 196.196 45.7026C196.252 45.4243 196.331 45.153 196.433 44.8887C196.539 44.6197 196.669 44.367 196.822 44.1304C196.975 43.8893 197.152 43.6783 197.351 43.4974C197.55 43.3119 197.771 43.1658 198.012 43.0591C198.253 42.9525 198.513 42.8991 198.791 42.8991C199.51 42.8991 200.166 43.2191 200.76 43.8591C200.973 44.0957 201.163 44.3646 201.33 44.6661C201.502 44.9629 201.645 45.2829 201.761 45.6261C201.882 45.9646 201.972 46.3194 202.033 46.6904C202.098 47.0614 202.13 47.4371 202.13 47.8174C202.13 48.411 202.054 48.9652 201.901 49.48C201.752 49.9994 201.541 50.4771 201.267 50.913C200.999 51.349 200.676 51.7409 200.301 52.0887C199.925 52.4412 199.512 52.7496 199.062 53.0139C198.612 53.2783 198.132 53.4986 197.622 53.6748C197.112 53.8557 196.588 53.9901 196.05 54.0783L195.633 52.3391ZM212.22 52.8748C212.489 52.9212 212.76 52.9443 213.034 52.9443C213.103 52.9443 213.24 52.9397 213.444 52.9304C213.648 52.9212 213.91 52.8794 214.23 52.8052C214.55 52.731 214.856 52.6313 215.149 52.5061C215.445 52.3809 215.717 52.2371 215.963 52.0748L216.902 53.633C216.633 53.7954 216.354 53.9438 216.067 54.0783C215.784 54.2174 215.49 54.3357 215.183 54.433C214.882 54.5304 214.569 54.6046 214.244 54.6557C213.961 54.702 213.672 54.7252 213.375 54.7252C213.328 54.7252 213.28 54.7252 213.229 54.7252C212.793 54.7159 212.357 54.6696 211.921 54.5861C211.49 54.5026 211.077 54.382 210.683 54.2243C210.293 54.0667 209.929 53.8696 209.59 53.633C209.256 53.4012 208.964 53.1299 208.714 52.8191C208.468 52.513 208.273 52.1675 208.13 51.7826C207.986 51.4023 207.912 50.9803 207.907 50.5165C207.921 50.0203 208.014 49.5565 208.185 49.1252C208.357 48.6986 208.584 48.309 208.867 47.9565C209.154 47.5994 209.484 47.2817 209.855 47.0035C210.23 46.7252 210.627 46.4864 211.044 46.287C210.896 46.1478 210.743 46.011 210.585 45.8765C210.432 45.7374 210.284 45.6075 210.14 45.487C209.996 45.3617 209.862 45.2481 209.736 45.1461C209.611 45.0394 209.507 44.949 209.423 44.8748L209.291 43.3861C209.899 42.8574 210.553 42.4609 211.253 42.1965C211.958 41.9275 212.693 41.793 213.458 41.793C213.685 41.793 213.92 41.8093 214.161 41.8417C214.407 41.8742 214.645 41.9252 214.877 41.9948C215.109 42.0643 215.327 42.1548 215.531 42.2661C215.735 42.3774 215.914 42.5142 216.067 42.6765C216.22 42.8342 216.341 43.0174 216.429 43.2261C216.507 43.4301 216.547 43.6574 216.547 43.9078C216.547 43.9217 216.547 43.9357 216.547 43.9496C216.528 44.302 216.459 44.6174 216.338 44.8957C216.222 45.1739 216.069 45.4243 215.879 45.647C215.689 45.8696 215.469 46.069 215.218 46.2452C214.972 46.4214 214.71 46.5838 214.432 46.7322C214.808 46.9409 215.207 47.1101 215.629 47.24C216.055 47.3652 216.47 47.4278 216.874 47.4278H217.11V49.2087H216.874C216.489 49.2087 216.116 49.1693 215.754 49.0904C215.392 49.0116 215.035 48.9003 214.683 48.7565C214.33 48.6081 213.98 48.4342 213.632 48.2348C213.284 48.0307 212.934 47.8058 212.582 47.56C212.243 47.6945 211.9 47.8522 211.552 48.033C211.204 48.2093 210.887 48.418 210.599 48.6591C210.316 48.8957 210.084 49.1646 209.903 49.4661C209.723 49.7675 209.632 50.1084 209.632 50.4887C209.632 50.702 209.674 50.9061 209.757 51.1009C209.845 51.2957 209.959 51.4765 210.098 51.6435C210.237 51.8151 210.397 51.9704 210.578 52.1096C210.759 52.2533 210.945 52.3762 211.135 52.4783C211.33 52.5849 211.52 52.6707 211.705 52.7357C211.895 52.8052 212.067 52.8516 212.22 52.8748ZM213.465 43.4904C213.28 43.4904 213.085 43.5043 212.881 43.5322C212.677 43.5554 212.475 43.5901 212.276 43.6365C212.076 43.6783 211.884 43.7316 211.698 43.7965C211.517 43.8568 211.357 43.9241 211.218 43.9983C211.316 44.1003 211.425 44.2186 211.545 44.353C211.666 44.4829 211.793 44.6197 211.928 44.7635C212.067 44.9072 212.208 45.051 212.352 45.1948C212.496 45.3339 212.637 45.4638 212.776 45.5843C213.083 45.4545 213.368 45.3223 213.632 45.1878C213.896 45.0533 214.126 44.9165 214.321 44.7774C214.52 44.6336 214.678 44.4852 214.794 44.3322C214.91 44.1791 214.97 44.0214 214.975 43.8591C214.97 43.8406 214.94 43.8128 214.884 43.7757C214.829 43.7386 214.738 43.7014 214.613 43.6643C214.492 43.6226 214.337 43.5855 214.147 43.553C213.961 43.5206 213.734 43.4997 213.465 43.4904ZM216.83 47.4278H217.887L217.936 47.3374C218.015 47.1983 218.126 47.0151 218.27 46.7878C218.418 46.5559 218.604 46.2939 218.826 46.0017C218.868 45.7096 218.903 45.3409 218.93 44.8957C218.958 44.4504 218.975 43.9681 218.979 43.4487C218.979 43.1658 218.975 42.8759 218.965 42.5791C218.956 42.2777 218.937 41.9322 218.91 41.5426C218.882 41.153 218.842 40.6986 218.791 40.1791C218.745 39.6551 218.685 39.0313 218.61 38.3078L220.44 37.8348C220.561 38.7252 220.651 39.6388 220.711 40.5757C220.776 41.5125 220.809 42.44 220.809 43.3583V43.9217C221.059 43.7084 221.319 43.5043 221.588 43.3096C221.862 43.1148 222.144 42.9432 222.437 42.7948C222.733 42.6464 223.042 42.5281 223.362 42.44C223.682 42.3519 224.016 42.3078 224.364 42.3078C224.716 42.3078 225.05 42.3635 225.365 42.4748C225.681 42.5861 225.959 42.7484 226.2 42.9617C226.446 43.1704 226.648 43.4255 226.805 43.727C226.963 44.0284 227.06 44.367 227.097 44.7426C227.102 44.8122 227.104 44.8794 227.104 44.9443C227.104 45.4267 227.023 45.8765 226.861 46.2939C226.703 46.7113 226.469 47.0893 226.158 47.4278H228.12V49.2087H226.27C225.903 49.2087 225.495 49.1925 225.045 49.16C224.595 49.1275 224.097 49.0417 223.55 48.9026C223.155 49.0093 222.754 49.0858 222.346 49.1322C221.943 49.1832 221.537 49.2087 221.129 49.2087H216.83V47.4278ZM220.482 47.4278C220.765 47.4278 221.089 47.4209 221.456 47.407C221.827 47.393 222.207 47.3606 222.597 47.3096C222.986 47.2586 223.364 47.182 223.73 47.08C224.102 46.978 224.431 46.8412 224.718 46.6696C225.006 46.498 225.233 46.2823 225.4 46.0226C225.544 45.8 225.616 45.5357 225.616 45.2296C225.616 45.1878 225.613 45.1438 225.609 45.0974C225.599 44.9583 225.553 44.8284 225.47 44.7078C225.391 44.5872 225.279 44.4852 225.136 44.4017C224.997 44.3136 224.83 44.2441 224.635 44.193C224.468 44.1559 224.287 44.1374 224.092 44.1374C224.055 44.1374 224.016 44.1374 223.974 44.1374C223.742 44.1467 223.466 44.207 223.146 44.3183C222.826 44.4249 222.483 44.6058 222.117 44.8609C221.75 45.1159 221.37 45.4522 220.976 45.8696C220.582 46.287 220.197 46.8064 219.821 47.4278H220.482ZM228.012 47.4278C228.499 47.4278 228.968 47.4139 229.417 47.3861C229.867 47.3536 230.278 47.3096 230.649 47.2539C231.02 47.1983 231.34 47.131 231.609 47.0522C231.878 46.9733 232.079 46.8852 232.214 46.7878H231.504C231.096 46.7878 230.707 46.7368 230.336 46.6348C229.969 46.5281 229.647 46.3704 229.369 46.1617C229.09 45.953 228.868 45.6933 228.701 45.3826C228.539 45.0672 228.457 44.7009 228.457 44.2835C228.457 44.0377 228.483 43.7849 228.534 43.5252C228.585 43.2655 228.661 43.0128 228.764 42.767C228.866 42.5212 228.988 42.2893 229.132 42.0713C229.276 41.8533 229.441 41.6632 229.626 41.5009C229.812 41.3339 230.016 41.2041 230.238 41.1113C230.461 41.0139 230.702 40.9652 230.962 40.9652C231.282 40.9652 231.581 41.0325 231.859 41.167C232.137 41.3014 232.39 41.4846 232.617 41.7165C232.845 41.9438 233.046 42.2081 233.223 42.5096C233.399 42.811 233.547 43.1287 233.668 43.4626C233.788 43.7965 233.879 44.1374 233.939 44.4852C234.004 44.8284 234.037 45.1554 234.037 45.4661C234.037 45.9948 233.962 46.4539 233.814 46.8435C233.67 47.233 233.466 47.567 233.202 47.8452C232.942 48.1235 232.629 48.3507 232.263 48.527C231.901 48.7032 231.5 48.8423 231.059 48.9443C230.619 49.0464 230.146 49.1159 229.64 49.153C229.139 49.1901 228.62 49.2087 228.082 49.2087H227.845V47.4278H228.012ZM230.962 42.76C230.939 42.7554 230.915 42.753 230.892 42.753C230.799 42.753 230.693 42.7901 230.572 42.8643C230.452 42.9386 230.336 43.0452 230.224 43.1843C230.113 43.3235 230.023 43.4812 229.953 43.6574C229.884 43.829 229.849 43.9983 229.849 44.1652C229.849 44.1745 229.849 44.1838 229.849 44.193C229.849 44.36 229.886 44.4968 229.96 44.6035C230.034 44.7055 230.134 44.7843 230.259 44.84C230.389 44.8957 230.537 44.9351 230.704 44.9583C230.876 44.9814 231.057 44.9977 231.247 45.007C231.372 45.0116 231.502 45.0139 231.637 45.0139C231.701 45.0139 231.801 45.0139 231.936 45.0139C232.075 45.0093 232.216 45.0023 232.36 44.993C232.318 44.8261 232.258 44.6197 232.179 44.3739C232.105 44.1235 232.01 43.8823 231.894 43.6504C231.783 43.4139 231.648 43.2099 231.49 43.0383C231.337 42.8667 231.161 42.7739 230.962 42.76ZM230.795 38.8713L229.612 40.0539L228.416 38.8643L229.598 37.6748L230.795 38.8713ZM233.424 38.8783L232.242 40.0678L231.045 38.8713L232.228 37.6887L233.424 38.8783Z" fill="black"/>
<path d="M121.268 137.074C121.268 137.088 121.277 137.152 121.294 137.266C121.311 137.372 121.329 137.521 121.346 137.711C121.364 137.894 121.378 138.107 121.39 138.35C121.395 138.52 121.398 138.695 121.398 138.876V139.147C121.375 140.77 121.06 142.211 120.452 143.472V143.462C119.862 144.711 119.06 145.673 118.047 146.349C117.769 146.534 117.517 146.681 117.292 146.79C117.072 146.887 116.852 146.958 116.632 147L116.701 147.527C116.771 148.135 116.826 148.773 116.866 149.442C116.912 150.1 116.947 150.769 116.97 151.449C116.999 152.118 117.017 152.788 117.022 153.459C117.034 154.12 117.04 154.752 117.04 155.357L115.312 156.509C115.312 155.403 115.303 154.31 115.286 153.229C115.269 152.142 115.222 151.108 115.147 150.129C115.072 149.142 114.959 148.23 114.808 147.391C114.664 146.541 114.461 145.807 114.201 145.188C114.079 144.893 113.949 144.621 113.81 144.373C113.671 144.125 113.515 143.878 113.341 143.632L114.791 141.559C114.884 141.678 114.968 141.807 115.043 141.944C115.124 142.071 115.202 142.21 115.277 142.362C115.358 142.503 115.439 142.657 115.52 142.826C115.601 142.995 115.691 143.175 115.79 143.367C115.923 143.646 116.053 143.894 116.18 144.108C116.313 144.311 116.464 144.465 116.632 144.569C116.805 144.668 117.002 144.704 117.222 144.676C117.448 144.637 117.723 144.509 118.047 144.293C118.527 143.973 118.889 143.554 119.132 143.037C119.242 142.811 119.332 142.574 119.401 142.326C119.471 142.071 119.526 141.815 119.566 141.558C119.613 141.298 119.644 141.04 119.662 140.785C119.679 140.53 119.688 140.288 119.688 140.058C119.688 139.759 119.673 139.48 119.644 139.221C119.621 138.958 119.595 138.746 119.566 138.584L121.268 137.074ZM133.914 128.529C134.007 129.072 134.073 129.584 134.114 130.065C134.154 130.539 134.183 130.982 134.2 131.395C134.206 131.51 134.209 131.626 134.209 131.744C134.209 132.175 134.169 132.634 134.088 133.119C134.012 133.601 133.873 134.09 133.671 134.587C133.468 135.083 133.202 135.546 132.872 135.975C132.548 136.393 132.157 136.754 131.7 137.059C131.555 137.155 131.402 137.24 131.24 137.313C131.078 137.38 130.913 137.424 130.745 137.445C130.577 137.459 130.412 137.437 130.25 137.378C130.088 137.319 129.935 137.213 129.79 137.059C129.668 137.418 129.524 137.748 129.356 138.048C129.194 138.343 129.017 138.611 128.826 138.849C128.635 139.088 128.433 139.303 128.218 139.495C128.004 139.686 127.784 139.857 127.559 140.007C127.339 140.154 127.148 140.268 126.986 140.348C126.823 140.421 126.653 140.479 126.473 140.522C126.664 141.814 126.777 143.161 126.812 144.564C126.852 145.963 126.873 147.373 126.873 148.792L125.145 149.944C125.156 149.644 125.162 149.341 125.162 149.035C125.168 148.725 125.171 148.431 125.171 148.152C125.171 146.128 125.058 144.287 124.832 142.628C124.607 140.97 124.259 139.574 123.79 138.44C123.657 138.146 123.533 137.898 123.417 137.697C123.307 137.492 123.186 137.309 123.052 137.147L124.624 134.983C124.664 135.039 124.711 135.113 124.763 135.203C124.815 135.287 124.87 135.379 124.928 135.48C124.986 135.58 125.044 135.684 125.101 135.792C125.165 135.895 125.226 135.997 125.284 136.098L125.692 136.88C125.848 137.207 125.984 137.478 126.1 137.693C126.216 137.908 126.337 138.063 126.465 138.159C126.598 138.252 126.748 138.283 126.916 138.255C127.084 138.22 127.298 138.115 127.559 137.941C127.831 137.76 128.048 137.511 128.21 137.194C128.378 136.867 128.508 136.522 128.6 136.162C128.693 135.794 128.754 135.44 128.783 135.101C128.817 134.751 128.838 134.459 128.844 134.226C128.844 134.149 128.841 134.019 128.835 133.835C128.829 133.644 128.82 133.448 128.809 133.247C128.803 133.042 128.794 132.857 128.783 132.69C128.771 132.517 128.762 132.412 128.757 132.374L130.476 130.977C130.482 131.189 130.493 131.387 130.511 131.57C130.534 131.742 130.551 131.915 130.563 132.088C130.574 132.227 130.589 132.408 130.606 132.633C130.629 132.854 130.658 133.089 130.693 133.337C130.733 133.581 130.78 133.825 130.832 134.069C130.89 134.302 130.959 134.502 131.04 134.671C131.121 134.839 131.214 134.958 131.318 135.028C131.428 135.094 131.555 135.079 131.7 134.982C131.891 134.855 132.039 134.687 132.143 134.478C132.253 134.259 132.331 134.033 132.377 133.8C132.429 133.564 132.461 133.334 132.473 133.111C132.484 132.88 132.49 132.685 132.49 132.525C132.49 132.212 132.478 131.851 132.455 131.442C132.438 131.022 132.383 130.541 132.29 129.997L133.914 128.529ZM136.421 145.63L135.405 145.462C136.013 144.034 136.331 142.768 136.36 141.663V139.701L138.123 138.526V140.227C138.123 141.013 137.961 141.908 137.636 142.91C137.318 143.915 136.913 144.822 136.421 145.63ZM147.061 135.458C146.638 135.74 146.25 135.877 145.897 135.869C145.55 135.85 145.255 135.688 145.012 135.384L144.986 135.36C144.737 135.978 144.424 136.545 144.048 137.06C143.678 137.571 143.267 137.977 142.815 138.278C142.312 138.614 141.886 138.786 141.539 138.795C141.197 138.8 140.919 138.693 140.705 138.474C140.491 138.248 140.332 137.934 140.228 137.53C140.124 137.126 140.06 136.682 140.037 136.196C140.025 135.996 140.019 135.794 140.019 135.592C140.019 135.307 140.034 134.964 140.063 134.562C140.098 134.149 140.15 133.725 140.219 133.289C140.323 132.656 140.456 131.997 140.618 131.311C140.786 130.622 140.989 129.885 141.226 129.101C141.469 128.306 141.753 127.449 142.077 126.53C142.407 125.608 142.783 124.602 143.206 123.513L142.885 123.341L144.1 121.07C144.685 121.32 145.258 121.592 145.819 121.886C146.386 122.169 146.916 122.518 147.408 122.935C148.543 123.917 149.364 125.206 149.874 126.8C150.042 127.356 150.126 127.996 150.126 128.719C150.126 129.297 150.062 129.906 149.935 130.548C149.807 131.189 149.616 131.817 149.362 132.432C149.113 133.036 148.794 133.607 148.406 134.144C148.024 134.67 147.579 135.106 147.069 135.452L147.061 135.458ZM145.784 130.424C145.784 130.612 145.79 130.83 145.802 131.08C145.813 131.33 145.834 131.584 145.863 131.843C145.897 132.091 145.944 132.332 146.001 132.564C146.065 132.793 146.143 132.988 146.236 133.149C146.334 133.299 146.45 133.403 146.583 133.46C146.722 133.514 146.884 133.492 147.069 133.397C147.341 133.195 147.564 132.945 147.738 132.648C147.912 132.352 148.048 132.042 148.146 131.719C148.244 131.389 148.311 131.063 148.346 130.741C148.386 130.408 148.406 130.112 148.406 129.855C148.406 129.618 148.392 129.385 148.363 129.153C148.334 128.922 148.288 128.71 148.224 128.516C148.016 127.882 147.764 127.327 147.469 126.849C147.174 126.371 146.858 125.955 146.522 125.601C146.187 125.241 145.842 124.938 145.489 124.694C145.136 124.449 144.798 124.247 144.473 124.087C144.109 125.04 143.788 125.915 143.51 126.713C143.232 127.51 142.989 128.253 142.78 128.941C142.572 129.63 142.395 130.276 142.251 130.881C142.112 131.474 141.996 132.045 141.903 132.594C141.869 132.791 141.834 133.037 141.799 133.331C141.765 133.626 141.741 133.933 141.73 134.254C141.724 134.362 141.721 134.468 141.721 134.573C141.721 134.781 141.73 135.012 141.747 135.265C141.77 135.514 141.82 135.742 141.895 135.949C141.976 136.152 142.089 136.286 142.233 136.349C142.384 136.409 142.578 136.36 142.815 136.202C143.023 136.056 143.203 135.86 143.353 135.613C143.504 135.367 143.631 135.098 143.735 134.806C143.845 134.503 143.935 134.189 144.005 133.864C144.08 133.529 144.141 133.207 144.187 132.898C144.233 132.588 144.271 132.299 144.3 132.029C144.334 131.749 144.363 131.517 144.387 131.335L145.784 130.424Z" fill="black"/>
<path d="M298.411 126.879C298.411 125.522 298.391 124.163 298.35 122.8C298.31 121.43 298.22 120.084 298.081 118.76C297.942 117.436 297.743 116.151 297.482 114.906C297.227 113.665 296.883 112.49 296.449 111.379L297.89 111.234C298.365 112.462 298.758 113.778 299.071 115.183C299.389 116.585 299.632 118.107 299.8 119.749C299.87 120.449 299.925 121.161 299.965 121.883C300.012 122.61 300.046 123.329 300.069 124.04C300.098 124.748 300.116 125.438 300.122 126.109C300.133 126.785 300.139 127.425 300.139 128.031L298.411 126.879ZM306.083 131.962C306.083 130.417 305.958 128.884 305.709 127.362C305.466 125.843 305.145 124.352 304.746 122.89C304.352 121.424 303.906 120 303.409 118.617C302.917 117.232 302.422 115.904 301.924 114.633L303.357 114.513C303.715 115.42 304.045 116.284 304.346 117.103C304.647 117.923 304.925 118.717 305.18 119.485C305.434 120.246 305.666 120.981 305.874 121.691C306.083 122.4 306.274 123.098 306.447 123.784C306.505 124.024 306.557 124.24 306.604 124.431C306.656 124.626 306.702 124.813 306.743 124.993C306.783 125.173 306.824 125.36 306.864 125.554C306.905 125.741 306.945 125.949 306.986 126.178C307.223 125.425 307.486 124.689 307.776 123.971C308.065 123.245 308.357 122.574 308.653 121.957C308.948 121.333 309.237 120.778 309.521 120.292C309.81 119.81 310.071 119.427 310.302 119.144L311.735 121.173C311.469 121.622 311.188 122.092 310.893 122.584C310.598 123.076 310.308 123.6 310.024 124.155C309.741 124.71 309.469 125.304 309.208 125.938C308.948 126.571 308.716 127.255 308.514 127.989C308.311 128.724 308.146 129.515 308.019 130.362C307.892 131.209 307.819 132.125 307.802 133.108L306.083 131.962Z" fill="black"/>
<path d="M44.9265 217.165L44.9269 223.956L178.68 314.064L366.277 190.834L366.277 184.662L231.548 94.1728L44.9265 217.165Z" fill="#E7E7E7" stroke="black"/>
<path d="M44.2633 216.95L44.2635 223.338L178.088 313.546L178.088 306.662L44.2633 216.95Z" fill="#A3A3A3" stroke="black"/>
<path d="M366.338 184.496L231.171 94.0532L44.3189 216.382L178.64 306.598L366.338 184.496Z" fill="#E7E7E7" stroke="black"/>
<path d="M52.6583 210.818L44.2308 216.436L178.648 306.716L186.455 301.511L52.6583 210.818Z" fill="#A3A3A3" stroke="black"/>
<path d="M194.815 205.747C196.23 206.844 196.867 208.027 196.726 209.296C196.579 210.561 195.675 211.747 194.014 212.855C192.191 214.07 190.149 214.616 187.889 214.492C185.622 214.364 183.424 213.585 181.293 212.154L180.427 211.572C179.064 210.657 178.103 209.69 177.544 208.671C176.985 207.653 176.874 206.66 177.211 205.694C177.553 204.723 178.315 203.844 179.496 203.057C181.134 201.965 182.893 201.38 184.772 201.302C186.651 201.224 188.46 201.664 190.198 202.623L187.273 204.574C186.285 204.003 185.366 203.727 184.516 203.745C183.666 203.763 182.793 204.071 181.896 204.669C180.923 205.317 180.543 206.038 180.756 206.831C180.963 207.621 181.794 208.512 183.249 209.505L184.314 210.221C185.845 211.249 187.196 211.847 188.37 212.015C189.543 212.176 190.631 211.922 191.632 211.255C192.535 210.653 193.001 210.067 193.031 209.499C193.067 208.926 192.686 208.326 191.89 207.698L194.815 205.747ZM195.467 204.455C194.422 203.753 193.692 202.995 193.277 202.182C192.862 201.361 192.811 200.549 193.125 199.745C193.433 198.936 194.087 198.199 195.089 197.531C196.513 196.582 198.109 196.101 199.878 196.089C201.647 196.068 203.332 196.526 204.932 197.461L205.668 197.932C207.279 199.014 208.122 200.184 208.195 201.442C208.268 202.699 207.543 203.835 206.021 204.85C204.498 205.865 202.798 206.35 200.919 206.304C199.046 206.254 197.272 205.667 195.597 204.542L195.467 204.455ZM198.497 202.713C199.496 203.384 200.449 203.773 201.357 203.879C202.258 203.981 203.059 203.799 203.76 203.332C204.443 202.876 204.715 202.347 204.578 201.743C204.44 201.132 203.796 200.44 202.647 199.668C201.671 199.013 200.721 198.634 199.796 198.532C198.871 198.422 198.061 198.598 197.367 199.061C196.678 199.52 196.414 200.056 196.575 200.667C196.73 201.275 197.371 201.957 198.497 202.713ZM213.074 195.302L207.942 189.229L210.886 187.267L217.851 196.709L215.168 198.497L201.083 193.801L204.027 191.839L213.074 195.302ZM227.689 190.405C226.144 191.435 224.414 191.958 222.5 191.974C220.581 191.986 218.833 191.463 217.256 190.404L216.979 190.218C215.922 189.508 215.181 188.739 214.754 187.91C214.334 187.078 214.274 186.259 214.576 185.455C214.873 184.647 215.501 183.923 216.462 183.282C217.903 182.321 219.494 181.872 221.234 181.933C222.974 181.986 224.676 182.571 226.339 183.688L227.491 184.462L220.771 188.942C221.551 189.342 222.377 189.529 223.25 189.503C224.123 189.478 224.91 189.231 225.611 188.764C226.699 188.039 227.154 187.21 226.976 186.277L229.907 186.387C230.085 187.072 229.98 187.768 229.592 188.475C229.203 189.175 228.569 189.818 227.689 190.405ZM218.731 184.818C218.17 185.192 217.903 185.621 217.931 186.105C217.96 186.589 218.277 187.1 218.883 187.639L222.807 185.022L222.582 184.871C221.947 184.46 221.294 184.25 220.623 184.241C219.958 184.228 219.328 184.421 218.731 184.818ZM231.459 177.075C231.025 177.295 230.664 177.501 230.374 177.694C229.303 178.408 228.964 179.117 229.356 179.822L236.242 184.447L233.429 186.323L222.905 179.254L225.561 177.483L226.895 178.274C226.493 177.244 226.792 176.396 227.793 175.728C228.106 175.52 228.441 175.354 228.8 175.231L231.459 177.075Z" fill="black"/>
<path d="M217.377 85.1019C217.54 84.7983 217.54 84.4818 217.377 84.3948L214.73 82.9779C214.567 82.8909 214.304 83.0665 214.142 83.3701C213.979 83.6737 213.979 83.9903 214.142 84.0772L216.495 85.3367L214.142 89.7341C213.979 90.0376 213.979 90.3542 214.142 90.4412C214.304 90.5281 214.567 90.3525 214.73 90.0489L217.377 85.1019ZM163 121.5L217.083 85.4445V84.4445L163 120.5V121.5Z" fill="black"/>
<path d="M364.889 164.613C365.051 164.526 365.051 164.209 364.889 163.906L362.241 158.959C362.079 158.655 361.816 158.48 361.653 158.567C361.491 158.653 361.491 158.97 361.653 159.274L364.006 163.671L361.653 164.93C361.491 165.017 361.491 165.334 361.653 165.638C361.816 165.941 362.079 166.117 362.241 166.03L364.889 164.613ZM318 133.5L364.595 164.563V163.563L318 132.5V133.5Z" fill="black"/>
<path d="M242.706 84.4503C242.543 84.5373 242.543 84.8539 242.706 85.1574L245.353 90.1045C245.516 90.408 245.779 90.5836 245.942 90.4967C246.104 90.4097 246.104 90.0932 245.942 89.7896L243.588 85.3922L245.942 84.1327C246.104 84.0458 246.104 83.7292 245.942 83.4256C245.779 83.1221 245.516 82.9464 245.353 83.0334L242.706 84.4503ZM243 85.5L289.595 116.563V115.563L243 84.5V85.5Z" fill="black"/>
<path d="M42.7058 199.898C42.5434 200.202 42.5434 200.518 42.7058 200.605L45.3534 202.022C45.5159 202.109 45.7793 201.933 45.9417 201.63C46.1042 201.326 46.1042 201.01 45.9417 200.923L43.5883 199.663L45.9417 195.266C46.1042 194.962 46.1042 194.646 45.9417 194.559C45.7793 194.472 45.5159 194.648 45.3534 194.951L42.7058 199.898ZM43 200.556L97.0833 164.5V163.5L43 199.556V200.556Z" fill="black"/>
<path d="M163.11 359.744C162.312 359.744 161.575 359.645 160.898 359.445C160.221 359.25 159.643 358.954 159.166 358.555C158.688 358.161 158.328 357.664 158.087 357.066C157.892 356.598 157.795 356.067 157.795 355.473C157.795 355.315 157.802 355.153 157.816 354.986C157.844 354.666 157.881 354.339 157.927 354.005C157.978 353.671 158.046 353.321 158.129 352.955C158.217 352.584 158.328 352.192 158.463 351.779C158.597 351.366 158.764 350.921 158.964 350.443L160.397 351.104C160.207 351.577 160.049 352.016 159.924 352.419C159.799 352.818 159.699 353.189 159.625 353.532C159.555 353.875 159.506 354.198 159.479 354.499C159.451 354.801 159.437 355.09 159.437 355.369C159.437 355.703 159.479 356.002 159.562 356.266C159.65 356.53 159.761 356.767 159.896 356.976C160.077 357.221 160.304 357.409 160.578 357.539C160.851 357.674 161.139 357.771 161.44 357.831C161.746 357.892 162.046 357.926 162.338 357.936C162.634 357.95 162.892 357.957 163.11 357.957C163.24 357.957 163.428 357.947 163.673 357.929C163.924 357.91 164.195 357.878 164.487 357.831C164.784 357.785 165.088 357.725 165.399 357.65C165.709 357.576 165.99 357.483 166.24 357.372C166.495 357.261 166.702 357.131 166.859 356.983C167.022 356.834 167.103 356.66 167.103 356.461C167.103 356.428 167.061 356.377 166.978 356.308C166.899 356.243 166.788 356.169 166.644 356.085C166.505 356.002 166.34 355.914 166.15 355.821C165.96 355.733 165.756 355.647 165.538 355.563C165.218 355.457 164.9 355.378 164.585 355.327C164.269 355.276 163.956 355.223 163.646 355.167L163.882 353.428H169.406V355.209H168.105C168.29 355.436 168.413 355.659 168.473 355.877C168.538 356.099 168.573 356.294 168.578 356.461C168.559 356.869 168.455 357.233 168.265 357.553C168.074 357.878 167.829 358.161 167.527 358.402C167.23 358.648 166.892 358.854 166.512 359.021C166.131 359.192 165.742 359.332 165.343 359.438C164.944 359.545 164.55 359.621 164.16 359.668C163.775 359.719 163.425 359.744 163.11 359.744ZM169.134 353.428H169.273C169.575 353.428 169.874 353.428 170.171 353.428C170.472 353.428 170.727 353.416 170.936 353.393C170.843 353.333 170.741 353.247 170.63 353.136C170.519 353.02 170.414 352.885 170.317 352.732C170.224 352.574 170.143 352.398 170.073 352.203C170.009 352.004 169.974 351.786 169.969 351.55C169.964 351.489 169.962 351.429 169.962 351.369C169.962 351.179 169.988 350.968 170.039 350.736C170.094 350.499 170.182 350.258 170.303 350.012C170.428 349.766 170.579 349.537 170.755 349.323C170.931 349.106 171.126 348.918 171.34 348.76C171.553 348.598 171.782 348.472 172.028 348.384C172.246 348.306 172.471 348.266 172.703 348.266C172.731 348.266 172.756 348.266 172.78 348.266C173.155 348.28 173.503 348.377 173.823 348.558C174.148 348.734 174.428 348.964 174.665 349.247C174.901 349.53 175.087 349.852 175.221 350.214C175.356 350.571 175.423 350.937 175.423 351.313C175.423 351.675 175.356 352.025 175.221 352.363C175.091 352.697 174.922 353.01 174.713 353.303C174.936 353.34 175.177 353.37 175.437 353.393C175.701 353.416 175.952 353.428 176.188 353.428H176.376V355.209H176.237C175.88 355.209 175.534 355.202 175.2 355.188C174.871 355.179 174.56 355.153 174.268 355.111C173.976 355.07 173.702 355.012 173.447 354.937C173.197 354.859 172.974 354.752 172.78 354.617C172.64 354.719 172.441 354.808 172.181 354.882C171.926 354.956 171.639 355.016 171.319 355.063C170.999 355.114 170.66 355.151 170.303 355.174C169.951 355.197 169.607 355.209 169.273 355.209H169.134V353.428ZM172.759 350.026C172.638 350.049 172.499 350.098 172.341 350.172C172.188 350.242 172.042 350.341 171.903 350.471C171.769 350.597 171.653 350.752 171.555 350.937C171.462 351.123 171.416 351.343 171.416 351.598C171.416 351.682 171.455 351.791 171.534 351.925C171.613 352.055 171.717 352.187 171.847 352.322C171.977 352.452 172.126 352.574 172.293 352.69C172.46 352.802 172.631 352.881 172.807 352.927C172.946 352.857 173.081 352.767 173.211 352.656C173.345 352.544 173.464 352.424 173.566 352.294C173.668 352.159 173.749 352.023 173.809 351.883C173.874 351.74 173.906 351.603 173.906 351.473C173.906 351.292 173.867 351.121 173.788 350.958C173.714 350.791 173.619 350.643 173.503 350.513C173.387 350.383 173.262 350.277 173.127 350.193C172.997 350.105 172.875 350.049 172.759 350.026ZM172.585 346.04L171.402 347.223L170.206 346.033L171.388 344.843L172.585 346.04ZM175.214 346.047L174.032 347.237L172.835 346.04L174.018 344.857L175.214 346.047ZM176.27 353.428C176.757 353.428 177.225 353.414 177.675 353.386C178.125 353.354 178.536 353.31 178.907 353.254C179.278 353.198 179.598 353.131 179.867 353.052C180.136 352.973 180.337 352.885 180.472 352.788H179.762C179.354 352.788 178.965 352.737 178.593 352.635C178.227 352.528 177.905 352.37 177.627 352.162C177.348 351.953 177.126 351.693 176.959 351.383C176.796 351.067 176.715 350.701 176.715 350.283C176.715 350.038 176.741 349.785 176.792 349.525C176.843 349.266 176.919 349.013 177.021 348.767C177.123 348.521 177.246 348.289 177.39 348.071C177.534 347.853 177.698 347.663 177.884 347.501C178.069 347.334 178.273 347.204 178.496 347.111C178.719 347.014 178.96 346.965 179.22 346.965C179.54 346.965 179.839 347.032 180.117 347.167C180.395 347.301 180.648 347.485 180.875 347.717C181.102 347.944 181.304 348.208 181.48 348.51C181.657 348.811 181.805 349.129 181.926 349.463C182.046 349.797 182.137 350.137 182.197 350.485C182.262 350.828 182.294 351.155 182.294 351.466C182.294 351.995 182.22 352.454 182.072 352.843C181.928 353.233 181.724 353.567 181.46 353.845C181.2 354.123 180.887 354.351 180.52 354.527C180.159 354.703 179.758 354.842 179.317 354.944C178.876 355.046 178.403 355.116 177.898 355.153C177.397 355.19 176.878 355.209 176.34 355.209H176.103V353.428H176.27ZM179.22 348.76C179.196 348.755 179.173 348.753 179.15 348.753C179.057 348.753 178.951 348.79 178.83 348.864C178.709 348.939 178.593 349.045 178.482 349.184C178.371 349.323 178.28 349.481 178.211 349.657C178.141 349.829 178.107 349.998 178.107 350.165C178.107 350.174 178.107 350.184 178.107 350.193C178.107 350.36 178.144 350.497 178.218 350.603C178.292 350.706 178.392 350.784 178.517 350.84C178.647 350.896 178.795 350.935 178.962 350.958C179.134 350.981 179.315 350.998 179.505 351.007C179.63 351.012 179.76 351.014 179.894 351.014C179.959 351.014 180.059 351.014 180.193 351.014C180.333 351.009 180.474 351.002 180.618 350.993C180.576 350.826 180.516 350.62 180.437 350.374C180.363 350.123 180.268 349.882 180.152 349.65C180.04 349.414 179.906 349.21 179.748 349.038C179.595 348.867 179.419 348.774 179.22 348.76ZM180.5 344.704L179.164 346.04L177.835 344.704L179.164 343.376L180.5 344.704ZM185.532 344.141C185.648 345.027 185.729 345.873 185.775 346.68C185.821 347.482 185.849 348.268 185.859 349.038C185.868 349.692 185.87 350.297 185.866 350.854C185.866 351.41 185.861 351.93 185.852 352.412C185.842 352.89 185.828 353.337 185.81 353.755C185.791 354.168 185.773 354.555 185.754 354.917L183.932 355.195C184.029 353.664 184.078 352.312 184.078 351.139C184.078 350.666 184.071 350.223 184.057 349.81C184.02 348.86 183.978 347.967 183.932 347.132C183.885 346.293 183.823 345.49 183.744 344.725L185.532 344.141ZM197.157 359.744C196.359 359.744 195.622 359.645 194.945 359.445C194.267 359.25 193.69 358.954 193.212 358.555C192.735 358.161 192.375 357.664 192.134 357.066C191.939 356.598 191.842 356.067 191.842 355.473C191.842 355.315 191.849 355.153 191.863 354.986C191.891 354.666 191.928 354.339 191.974 354.005C192.025 353.671 192.092 353.321 192.176 352.955C192.264 352.584 192.375 352.192 192.51 351.779C192.644 351.366 192.811 350.921 193.011 350.443L194.444 351.104C194.254 351.577 194.096 352.016 193.971 352.419C193.845 352.818 193.746 353.189 193.672 353.532C193.602 353.875 193.553 354.198 193.525 354.499C193.498 354.801 193.484 355.09 193.484 355.369C193.484 355.703 193.525 356.002 193.609 356.266C193.697 356.53 193.808 356.767 193.943 356.976C194.124 357.221 194.351 357.409 194.625 357.539C194.898 357.674 195.186 357.771 195.487 357.831C195.793 357.892 196.092 357.926 196.385 357.936C196.681 357.95 196.939 357.957 197.157 357.957C197.287 357.957 197.474 357.947 197.72 357.929C197.971 357.91 198.242 357.878 198.534 357.831C198.831 357.785 199.135 357.725 199.445 357.65C199.756 357.576 200.037 357.483 200.287 357.372C200.542 357.261 200.749 357.131 200.906 356.983C201.069 356.834 201.15 356.66 201.15 356.461C201.15 356.428 201.108 356.377 201.025 356.308C200.946 356.243 200.834 356.169 200.691 356.085C200.552 356.002 200.387 355.914 200.197 355.821C200.007 355.733 199.803 355.647 199.585 355.563C199.265 355.457 198.947 355.378 198.632 355.327C198.316 355.276 198.003 355.223 197.692 355.167L197.929 353.428H203.452V355.209H202.152C202.337 355.436 202.46 355.659 202.52 355.877C202.585 356.099 202.62 356.294 202.625 356.461C202.606 356.869 202.502 357.233 202.312 357.553C202.121 357.878 201.876 358.161 201.574 358.402C201.277 358.648 200.939 358.854 200.558 359.021C200.178 359.192 199.789 359.332 199.39 359.438C198.991 359.545 198.597 359.621 198.207 359.668C197.822 359.719 197.472 359.744 197.157 359.744ZM203.473 353.428C203.71 353.428 203.932 353.381 204.141 353.289C204.355 353.191 204.556 353.02 204.746 352.774C204.941 352.523 205.122 352.183 205.289 351.751C205.461 351.32 205.623 350.768 205.776 350.096L207.48 350.576C207.369 350.961 207.269 351.332 207.181 351.689C207.093 352.041 207.044 352.345 207.035 352.6C207.035 352.623 207.035 352.644 207.035 352.663C207.035 352.746 207.042 352.834 207.056 352.927C207.075 353.02 207.105 353.106 207.146 353.184C207.188 353.263 207.244 353.326 207.313 353.372C207.378 353.414 207.45 353.435 207.529 353.435C207.538 353.435 207.548 353.435 207.557 353.435C207.728 353.43 207.891 353.368 208.044 353.247C208.197 353.126 208.338 352.971 208.468 352.781C208.603 352.591 208.723 352.375 208.83 352.134C208.941 351.893 209.039 351.649 209.122 351.403C209.21 351.153 209.284 350.91 209.345 350.673C209.405 350.437 209.451 350.228 209.484 350.047L211.126 350.381C211.065 350.659 211.017 350.917 210.979 351.153C210.942 351.385 210.919 351.619 210.91 351.856C210.905 351.916 210.903 351.976 210.903 352.037C210.903 352.152 210.91 352.289 210.924 352.447C210.942 352.6 210.982 352.751 211.042 352.899C211.102 353.048 211.186 353.17 211.292 353.268C211.404 353.361 211.548 353.407 211.724 353.407C211.923 353.407 212.083 353.33 212.204 353.177C212.329 353.02 212.424 352.82 212.489 352.579C212.554 352.338 212.596 352.071 212.614 351.779C212.637 351.482 212.649 351.195 212.649 350.917C212.649 350.828 212.647 350.759 212.642 350.708C212.642 350.652 212.642 350.601 212.642 350.555C212.642 350.508 212.64 350.457 212.635 350.402C212.635 350.341 212.635 350.26 212.635 350.158L214.395 350.019C214.409 350.172 214.423 350.323 214.437 350.471C214.451 350.615 214.465 350.766 214.479 350.923C214.492 351.077 214.509 351.241 214.527 351.417C214.55 351.589 214.576 351.777 214.604 351.981C214.636 352.222 214.704 352.433 214.806 352.614C214.912 352.795 215.035 352.946 215.174 353.066C215.313 353.187 215.462 353.277 215.619 353.337C215.782 353.398 215.935 353.428 216.079 353.428H216.336V355.209H216.113C215.886 355.209 215.661 355.186 215.439 355.139C215.221 355.093 215.012 355.021 214.812 354.923C214.613 354.826 214.425 354.703 214.249 354.555C214.077 354.402 213.927 354.221 213.797 354.012C213.574 354.374 213.282 354.664 212.92 354.882C212.559 355.1 212.16 355.209 211.724 355.209C211.288 355.209 210.891 355.104 210.534 354.896C210.182 354.687 209.901 354.409 209.692 354.061C209.558 354.232 209.412 354.39 209.254 354.534C209.101 354.673 208.934 354.796 208.753 354.903C208.577 355.005 208.389 355.083 208.19 355.139C207.99 355.199 207.782 355.23 207.564 355.23C207.355 355.23 207.153 355.202 206.959 355.146C206.764 355.095 206.583 355.019 206.416 354.917C206.249 354.814 206.098 354.692 205.964 354.548C205.829 354.399 205.718 354.235 205.63 354.054C205.398 354.462 205.113 354.757 204.774 354.937C204.436 355.118 204.004 355.209 203.48 355.209H203.181V353.428H203.473ZM222.261 353.428V355.209H222.122C221.672 355.209 221.292 355.137 220.981 354.993C220.671 354.849 220.406 354.664 220.188 354.437C220.035 354.631 219.808 354.782 219.507 354.889C219.21 354.991 218.878 355.065 218.512 355.111C218.145 355.162 217.767 355.19 217.378 355.195C216.993 355.204 216.638 355.209 216.314 355.209H216.056V353.428H216.314C216.856 353.428 217.313 353.398 217.684 353.337C218.055 353.272 218.354 353.18 218.581 353.059C218.813 352.939 218.98 352.788 219.082 352.607C219.184 352.421 219.235 352.208 219.235 351.967C219.235 351.809 219.205 351.601 219.145 351.341C219.085 351.077 218.994 350.738 218.874 350.325L220.585 349.845C220.645 350.049 220.692 350.23 220.724 350.388C220.761 350.541 220.789 350.696 220.807 350.854C220.831 351.007 220.849 351.174 220.863 351.355C220.882 351.531 220.9 351.742 220.919 351.988C220.933 352.136 220.967 352.296 221.023 352.468C221.079 352.635 221.155 352.79 221.253 352.934C221.355 353.073 221.478 353.191 221.621 353.289C221.765 353.381 221.932 353.428 222.122 353.428H222.261ZM218.644 357.268L217.461 358.45L216.265 357.261L217.447 356.071L218.644 357.268ZM221.274 357.275L220.091 358.464L218.894 357.268L220.077 356.085L221.274 357.275ZM221.978 353.428H222.486C222.653 353.428 222.808 353.414 222.952 353.386C223.096 353.358 223.223 353.3 223.335 353.212C223.446 353.119 223.536 352.992 223.606 352.83C223.675 352.667 223.72 352.449 223.738 352.176C223.738 352.069 223.74 351.883 223.745 351.619C223.754 351.35 223.761 351.032 223.766 350.666C223.771 350.295 223.775 349.889 223.78 349.449C223.784 349.008 223.787 348.558 223.787 348.099C223.787 347.742 223.784 347.392 223.78 347.049C223.78 346.701 223.775 346.367 223.766 346.047C223.761 345.727 223.75 345.426 223.731 345.143C223.717 344.86 223.696 344.602 223.668 344.37L225.442 344.141C225.475 344.391 225.5 344.674 225.519 344.99C225.537 345.305 225.551 345.641 225.561 345.998C225.575 346.351 225.582 346.722 225.582 347.111C225.586 347.496 225.588 347.886 225.588 348.28C225.588 349.157 225.579 349.919 225.561 350.569C225.547 351.218 225.54 351.793 225.54 352.294C225.54 352.646 225.63 352.925 225.811 353.129C225.992 353.328 226.261 353.428 226.618 353.428H226.771V355.209H226.618C226.59 355.209 226.565 355.209 226.542 355.209C226.361 355.209 226.182 355.192 226.006 355.16C225.834 355.132 225.667 355.088 225.505 355.028C225.347 354.972 225.201 354.905 225.067 354.826C224.932 354.747 224.814 354.666 224.712 354.583C224.577 354.712 224.429 354.819 224.267 354.903C224.109 354.981 223.947 355.044 223.78 355.09C223.613 355.137 223.448 355.167 223.286 355.181C223.124 355.199 222.977 355.209 222.848 355.209H221.978V353.428ZM226.494 353.428H228.657C228.926 353.428 229.167 353.395 229.381 353.33C229.599 353.266 229.782 353.182 229.93 353.08C230.079 352.973 230.192 352.853 230.271 352.718C230.355 352.579 230.396 352.438 230.396 352.294C230.396 352.071 230.352 351.83 230.264 351.57C230.176 351.306 230.058 351.039 229.909 350.77C229.766 350.497 229.594 350.223 229.395 349.95C229.2 349.671 228.993 349.407 228.775 349.157C228.557 348.901 228.333 348.665 228.101 348.447C227.873 348.229 227.655 348.037 227.447 347.87L227.614 345.908L233.701 343.334L234.348 344.927L229.095 347.083C229.453 347.394 229.763 347.703 230.028 348.009C230.297 348.31 230.535 348.614 230.744 348.92C230.957 349.221 231.15 349.525 231.322 349.831C231.493 350.137 231.66 350.446 231.822 350.757C231.938 350.979 232.054 351.197 232.17 351.41C232.286 351.624 232.411 351.842 232.546 352.064V352.057C232.671 352.266 232.803 352.454 232.942 352.621C233.086 352.788 233.239 352.932 233.402 353.052C233.568 353.173 233.749 353.266 233.944 353.33C234.144 353.395 234.362 353.428 234.598 353.428H235.036V355.209H234.835C234.464 355.209 234.127 355.183 233.826 355.132C233.524 355.081 233.244 355 232.984 354.889C232.729 354.777 232.488 354.636 232.261 354.464C232.038 354.288 231.818 354.077 231.6 353.831C231.437 354.072 231.254 354.279 231.05 354.45C230.846 354.617 230.626 354.757 230.389 354.868C230.153 354.974 229.902 355.053 229.638 355.104C229.378 355.16 229.109 355.195 228.831 355.209H226.494V353.428ZM233.485 342.68L227.614 345.073L227.662 344.176L233.144 341.97L233.485 342.68ZM234.759 353.428H235.879C236.097 353.428 236.32 353.416 236.547 353.393C236.779 353.365 236.988 353.312 237.173 353.233C237.359 353.15 237.509 353.031 237.625 352.878C237.746 352.725 237.806 352.521 237.806 352.266C237.806 352.146 237.781 351.976 237.73 351.758C237.679 351.54 237.611 351.299 237.528 351.035C237.445 350.77 237.345 350.497 237.229 350.214C237.118 349.931 236.999 349.667 236.874 349.421L238.481 348.628C238.597 348.892 238.713 349.173 238.829 349.47C238.945 349.766 239.047 350.072 239.135 350.388C239.228 350.699 239.302 351.012 239.358 351.327C239.413 351.642 239.441 351.951 239.441 352.252C239.441 352.772 239.353 353.219 239.177 353.595C239 353.966 238.755 354.272 238.439 354.513C238.124 354.75 237.746 354.923 237.305 355.035C236.869 355.151 236.389 355.209 235.865 355.209H234.759V353.428ZM238.314 346.27L236.978 347.605L235.65 346.27L236.978 344.941L238.314 346.27ZM242.657 344.141C242.773 345.027 242.854 345.873 242.9 346.68C242.946 347.482 242.974 348.268 242.984 349.038C242.993 349.692 242.995 350.297 242.991 350.854C242.991 351.41 242.986 351.93 242.977 352.412C242.967 352.89 242.953 353.337 242.935 353.755C242.916 354.168 242.898 354.555 242.879 354.917L241.057 355.195C241.154 353.664 241.203 352.312 241.203 351.139C241.203 350.666 241.196 350.223 241.182 349.81C241.145 348.86 241.103 347.967 241.057 347.132C241.01 346.293 240.948 345.49 240.869 344.725L242.657 344.141Z" fill="black"/>
</svg>
