<svg width="400" height="400" viewBox="0 0 400 400" fill="none" xmlns="http://www.w3.org/2000/svg">
<rect width="400" height="400" fill="white"/>
<path d="M168.954 53.7443C168.156 53.7443 167.419 53.6446 166.741 53.4452C166.064 53.2504 165.487 52.9536 165.009 52.5548C164.532 52.1606 164.172 51.6643 163.931 51.0661C163.736 50.5977 163.639 50.0667 163.639 49.473C163.639 49.3154 163.646 49.153 163.66 48.9861C163.688 48.6661 163.725 48.3391 163.771 48.0052C163.822 47.6713 163.889 47.3212 163.973 46.9548C164.061 46.5838 164.172 46.1919 164.307 45.7791C164.441 45.3664 164.608 44.9212 164.808 44.4435L166.241 45.1043C166.05 45.5774 165.893 46.0157 165.768 46.4191C165.642 46.818 165.543 47.189 165.468 47.5322C165.399 47.8754 165.35 48.1977 165.322 48.4991C165.294 48.8006 165.281 49.0904 165.281 49.3687C165.281 49.7026 165.322 50.0017 165.406 50.2661C165.494 50.5304 165.605 50.767 165.74 50.9757C165.921 51.2214 166.148 51.4093 166.421 51.5391C166.695 51.6736 166.983 51.771 167.284 51.8313C167.59 51.8916 167.889 51.9264 168.181 51.9357C168.478 51.9496 168.736 51.9565 168.954 51.9565C169.083 51.9565 169.271 51.9472 169.517 51.9287C169.768 51.9101 170.039 51.8777 170.331 51.8313C170.628 51.7849 170.932 51.7246 171.242 51.6504C171.553 51.5762 171.834 51.4835 172.084 51.3722C172.339 51.2609 172.545 51.131 172.703 50.9826C172.865 50.8342 172.947 50.6603 172.947 50.4609C172.947 50.4284 172.905 50.3774 172.821 50.3078C172.743 50.2429 172.631 50.1687 172.488 50.0852C172.348 50.0017 172.184 49.9136 171.994 49.8209C171.803 49.7328 171.599 49.647 171.381 49.5635C171.061 49.4568 170.744 49.378 170.428 49.327C170.113 49.2759 169.8 49.2226 169.489 49.167L169.726 47.4278H175.249V49.2087H173.948C174.134 49.4359 174.257 49.6586 174.317 49.8765C174.382 50.0991 174.417 50.2939 174.421 50.4609C174.403 50.869 174.299 51.233 174.108 51.553C173.918 51.8777 173.672 52.1606 173.371 52.4017C173.074 52.6475 172.736 52.8539 172.355 53.0209C171.975 53.1925 171.585 53.3316 171.187 53.4383C170.788 53.5449 170.394 53.6214 170.004 53.6678C169.619 53.7188 169.269 53.7443 168.954 53.7443ZM181.183 47.4278V49.2087H181.044C180.594 49.2087 180.214 49.1368 179.903 48.993C179.593 48.8493 179.328 48.6638 179.11 48.4365C178.957 48.6313 178.73 48.782 178.428 48.8887C178.132 48.9907 177.8 49.0649 177.434 49.1113C177.067 49.1623 176.689 49.1901 176.3 49.1948C175.915 49.2041 175.56 49.2087 175.235 49.2087H174.978V47.4278H175.235C175.778 47.4278 176.235 47.3977 176.606 47.3374C176.977 47.2725 177.276 47.1797 177.503 47.0591C177.735 46.9386 177.902 46.7878 178.004 46.607C178.106 46.4214 178.157 46.2081 178.157 45.967C178.157 45.8093 178.127 45.6006 178.067 45.3409C178.006 45.0765 177.916 44.738 177.795 44.3252L179.507 43.8452C179.567 44.0493 179.613 44.2301 179.646 44.3878C179.683 44.5409 179.711 44.6962 179.729 44.8539C179.753 45.007 179.771 45.1739 179.785 45.3548C179.804 45.531 179.822 45.742 179.841 45.9878C179.855 46.1362 179.889 46.2962 179.945 46.4678C180.001 46.6348 180.077 46.7901 180.175 46.9339C180.277 47.073 180.4 47.1913 180.543 47.2887C180.687 47.3814 180.854 47.4278 181.044 47.4278H181.183ZM178.095 41.2643L176.912 42.447L175.715 41.2574L176.898 40.0678L178.095 41.2643ZM180.724 41.2713L179.542 42.4609L178.345 41.2643L179.528 40.0817L180.724 41.2713ZM181.192 47.4278C181.429 47.4278 181.651 47.3814 181.86 47.2887C182.073 47.1913 182.275 47.0197 182.465 46.7739C182.66 46.5235 182.841 46.1826 183.008 45.7513C183.179 45.32 183.342 44.7681 183.495 44.0957L185.199 44.5757C185.088 44.9606 184.988 45.3316 184.9 45.6887C184.812 46.0412 184.763 46.3449 184.754 46.6C184.754 46.6232 184.754 46.6441 184.754 46.6626C184.754 46.7461 184.761 46.8342 184.775 46.927C184.793 47.0197 184.823 47.1055 184.865 47.1843C184.907 47.2632 184.963 47.3258 185.032 47.3722C185.097 47.4139 185.169 47.4348 185.248 47.4348C185.257 47.4348 185.266 47.4348 185.276 47.4348C185.447 47.4301 185.609 47.3675 185.763 47.247C185.916 47.1264 186.057 46.971 186.187 46.7809C186.321 46.5907 186.442 46.3751 186.549 46.1339C186.66 45.8928 186.757 45.6493 186.841 45.4035C186.929 45.153 187.003 44.9096 187.063 44.673C187.124 44.4365 187.17 44.2278 187.203 44.047L188.844 44.3809C188.784 44.6591 188.735 44.9165 188.698 45.153C188.661 45.3849 188.638 45.6191 188.629 45.8557C188.624 45.9159 188.622 45.9762 188.622 46.0365C188.622 46.1525 188.629 46.2893 188.643 46.447C188.661 46.6 188.701 46.7507 188.761 46.8991C188.821 47.0475 188.905 47.1704 189.011 47.2678C189.123 47.3606 189.266 47.407 189.443 47.407C189.642 47.407 189.802 47.3304 189.923 47.1774C190.048 47.0197 190.143 46.8203 190.208 46.5791C190.273 46.338 190.314 46.0713 190.333 45.7791C190.356 45.4823 190.368 45.1948 190.368 44.9165C190.368 44.8284 190.365 44.7588 190.361 44.7078C190.361 44.6522 190.361 44.6012 190.361 44.5548C190.361 44.5084 190.358 44.4574 190.354 44.4017C190.354 44.3414 190.354 44.2603 190.354 44.1583L192.114 44.0191C192.128 44.1722 192.142 44.3229 192.156 44.4713C192.169 44.6151 192.183 44.7658 192.197 44.9235C192.211 45.0765 192.227 45.2412 192.246 45.4174C192.269 45.589 192.295 45.7768 192.323 45.9809C192.355 46.222 192.422 46.433 192.524 46.6139C192.631 46.7948 192.754 46.9455 192.893 47.0661C193.032 47.1867 193.181 47.2771 193.338 47.3374C193.501 47.3977 193.654 47.4278 193.797 47.4278H194.055V49.2087H193.832C193.605 49.2087 193.38 49.1855 193.157 49.1391C192.939 49.0928 192.731 49.0209 192.531 48.9235C192.332 48.8261 192.144 48.7032 191.968 48.5548C191.796 48.4017 191.645 48.2209 191.516 48.0122C191.293 48.3739 191.001 48.6638 190.639 48.8817C190.277 49.0997 189.878 49.2087 189.443 49.2087C189.007 49.2087 188.61 49.1043 188.253 48.8957C187.901 48.687 187.62 48.4087 187.411 48.0609C187.277 48.2325 187.131 48.3901 186.973 48.5339C186.82 48.673 186.653 48.7959 186.472 48.9026C186.296 49.0046 186.108 49.0835 185.909 49.1391C185.709 49.1994 185.501 49.2296 185.283 49.2296C185.074 49.2296 184.872 49.2017 184.677 49.1461C184.483 49.0951 184.302 49.0186 184.135 48.9165C183.968 48.8145 183.817 48.6916 183.683 48.5478C183.548 48.3994 183.437 48.2348 183.349 48.0539C183.117 48.462 182.832 48.7565 182.493 48.9374C182.154 49.1183 181.723 49.2087 181.199 49.2087H180.9V47.4278H181.192ZM187.856 41.4313L186.674 42.6139L185.477 41.4243L186.66 40.2348L187.856 41.4313ZM190.486 41.4383L189.303 42.6278L188.107 41.4313L189.289 40.2487L190.486 41.4383ZM186.896 39.4209L187.982 38.3357L189.074 39.4278L187.989 40.513L186.896 39.4209ZM193.775 47.4278H195.284C195.86 47.4278 196.444 47.3745 197.038 47.2678C197.636 47.1565 198.229 47.0128 198.818 46.8365C199.407 46.6557 199.982 46.4493 200.544 46.2174C201.105 45.9855 201.636 45.7467 202.137 45.5009C201.738 45.4128 201.367 45.2968 201.024 45.153C200.68 45.0046 200.356 44.8609 200.05 44.7217C199.744 44.5826 199.449 44.462 199.166 44.36C198.883 44.258 198.603 44.207 198.324 44.207C198.162 44.207 198.009 44.2371 197.865 44.2974C197.726 44.353 197.596 44.4249 197.476 44.513C197.355 44.6012 197.246 44.6986 197.149 44.8052C197.056 44.9119 196.973 45.0162 196.898 45.1183C196.829 45.2157 196.771 45.3038 196.724 45.3826C196.678 45.4614 196.646 45.5171 196.627 45.5496L195.18 44.6104C195.338 44.3322 195.526 44.0632 195.744 43.8035C195.962 43.5391 196.203 43.3049 196.467 43.1009C196.736 42.8922 197.026 42.7275 197.337 42.607C197.647 42.4817 197.977 42.4191 198.324 42.4191C198.682 42.4191 199.036 42.4678 199.389 42.5652C199.741 42.658 200.089 42.7786 200.432 42.927C200.78 43.0707 201.128 43.2261 201.476 43.393C201.824 43.56 202.174 43.7177 202.526 43.8661C202.883 44.0099 203.243 44.1328 203.604 44.2348C203.966 44.3322 204.337 44.3832 204.718 44.3878L204.571 46.1826C203.922 46.4933 203.245 46.8226 202.54 47.1704C201.835 47.5183 201.098 47.8406 200.328 48.1374C199.558 48.4296 198.753 48.6777 197.914 48.8817C197.079 49.0812 196.203 49.1901 195.284 49.2087H193.775V47.4278ZM199.611 40.2L198.276 41.5357L196.947 40.2L198.276 38.8713L199.611 40.2ZM214.493 52.8748C214.762 52.9212 215.034 52.9443 215.307 52.9443C215.377 52.9443 215.514 52.9397 215.718 52.9304C215.922 52.9212 216.184 52.8794 216.504 52.8052C216.824 52.731 217.13 52.6313 217.422 52.5061C217.719 52.3809 217.99 52.2371 218.236 52.0748L219.175 53.633C218.906 53.7954 218.628 53.9438 218.34 54.0783C218.057 54.2174 217.763 54.3357 217.457 54.433C217.155 54.5304 216.842 54.6046 216.518 54.6557C216.235 54.702 215.945 54.7252 215.648 54.7252C215.602 54.7252 215.553 54.7252 215.502 54.7252C215.066 54.7159 214.63 54.6696 214.194 54.5861C213.763 54.5026 213.35 54.382 212.956 54.2243C212.566 54.0667 212.202 53.8696 211.864 53.633C211.53 53.4012 211.238 53.1299 210.987 52.8191C210.741 52.513 210.547 52.1675 210.403 51.7826C210.259 51.4023 210.185 50.9803 210.18 50.5165C210.194 50.0203 210.287 49.5565 210.459 49.1252C210.63 48.6986 210.857 48.309 211.14 47.9565C211.428 47.5994 211.757 47.2817 212.128 47.0035C212.504 46.7252 212.9 46.4864 213.318 46.287C213.169 46.1478 213.016 46.011 212.859 45.8765C212.706 45.7374 212.557 45.6075 212.413 45.487C212.27 45.3617 212.135 45.2481 212.01 45.1461C211.885 45.0394 211.78 44.949 211.697 44.8748L211.565 43.3861C212.172 42.8574 212.826 42.4609 213.526 42.1965C214.231 41.9275 214.966 41.793 215.732 41.793C215.959 41.793 216.193 41.8093 216.434 41.8417C216.68 41.8742 216.919 41.9252 217.151 41.9948C217.383 42.0643 217.601 42.1548 217.805 42.2661C218.009 42.3774 218.187 42.5142 218.34 42.6765C218.493 42.8342 218.614 43.0174 218.702 43.2261C218.781 43.4301 218.82 43.6574 218.82 43.9078C218.82 43.9217 218.82 43.9357 218.82 43.9496C218.802 44.302 218.732 44.6174 218.612 44.8957C218.496 45.1739 218.343 45.4243 218.153 45.647C217.962 45.8696 217.742 46.069 217.492 46.2452C217.246 46.4214 216.984 46.5838 216.706 46.7322C217.081 46.9409 217.48 47.1101 217.902 47.24C218.329 47.3652 218.744 47.4278 219.147 47.4278H219.384V49.2087H219.147C218.762 49.2087 218.389 49.1693 218.027 49.0904C217.666 49.0116 217.308 48.9003 216.956 48.7565C216.604 48.6081 216.253 48.4342 215.906 48.2348C215.558 48.0307 215.208 47.8058 214.855 47.56C214.517 47.6945 214.173 47.8522 213.826 48.033C213.478 48.2093 213.16 48.418 212.873 48.6591C212.59 48.8957 212.358 49.1646 212.177 49.4661C211.996 49.7675 211.906 50.1084 211.906 50.4887C211.906 50.702 211.947 50.9061 212.031 51.1009C212.119 51.2957 212.233 51.4765 212.372 51.6435C212.511 51.8151 212.671 51.9704 212.852 52.1096C213.033 52.2533 213.218 52.3762 213.408 52.4783C213.603 52.5849 213.793 52.6707 213.979 52.7357C214.169 52.8052 214.34 52.8516 214.493 52.8748ZM215.739 43.4904C215.553 43.4904 215.358 43.5043 215.154 43.5322C214.95 43.5554 214.748 43.5901 214.549 43.6365C214.35 43.6783 214.157 43.7316 213.972 43.7965C213.791 43.8568 213.631 43.9241 213.492 43.9983C213.589 44.1003 213.698 44.2186 213.819 44.353C213.939 44.4829 214.067 44.6197 214.201 44.7635C214.34 44.9072 214.482 45.051 214.626 45.1948C214.769 45.3339 214.911 45.4638 215.05 45.5843C215.356 45.4545 215.641 45.3223 215.906 45.1878C216.17 45.0533 216.399 44.9165 216.594 44.7774C216.794 44.6336 216.951 44.4852 217.067 44.3322C217.183 44.1791 217.244 44.0214 217.248 43.8591C217.244 43.8406 217.213 43.8128 217.158 43.7757C217.102 43.7386 217.012 43.7014 216.886 43.6643C216.766 43.6226 216.61 43.5855 216.42 43.553C216.235 43.5206 216.008 43.4997 215.739 43.4904ZM219.103 47.4278H220.16L220.209 47.3374C220.288 47.1983 220.399 47.0151 220.543 46.7878C220.691 46.5559 220.877 46.2939 221.1 46.0017C221.141 45.7096 221.176 45.3409 221.204 44.8957C221.232 44.4504 221.248 43.9681 221.253 43.4487C221.253 43.1658 221.248 42.8759 221.239 42.5791C221.229 42.2777 221.211 41.9322 221.183 41.5426C221.155 41.153 221.116 40.6986 221.065 40.1791C221.018 39.6551 220.958 39.0313 220.884 38.3078L222.713 37.8348C222.834 38.7252 222.925 39.6388 222.985 40.5757C223.05 41.5125 223.082 42.44 223.082 43.3583V43.9217C223.333 43.7084 223.592 43.5043 223.861 43.3096C224.135 43.1148 224.418 42.9432 224.71 42.7948C225.007 42.6464 225.315 42.5281 225.635 42.44C225.955 42.3519 226.289 42.3078 226.637 42.3078C226.989 42.3078 227.323 42.3635 227.639 42.4748C227.954 42.5861 228.232 42.7484 228.473 42.9617C228.719 43.1704 228.921 43.4255 229.079 43.727C229.236 44.0284 229.334 44.367 229.371 44.7426C229.376 44.8122 229.378 44.8794 229.378 44.9443C229.378 45.4267 229.297 45.8765 229.134 46.2939C228.977 46.7113 228.742 47.0893 228.432 47.4278H230.393V49.2087H228.543C228.177 49.2087 227.769 49.1925 227.319 49.16C226.869 49.1275 226.37 49.0417 225.823 48.9026C225.429 49.0093 225.028 49.0858 224.62 49.1322C224.216 49.1832 223.81 49.2087 223.402 49.2087H219.103V47.4278ZM222.755 47.4278C223.038 47.4278 223.363 47.4209 223.729 47.407C224.1 47.393 224.48 47.3606 224.87 47.3096C225.26 47.2586 225.638 47.182 226.004 47.08C226.375 46.978 226.704 46.8412 226.992 46.6696C227.279 46.498 227.507 46.2823 227.673 46.0226C227.817 45.8 227.889 45.5357 227.889 45.2296C227.889 45.1878 227.887 45.1438 227.882 45.0974C227.873 44.9583 227.827 44.8284 227.743 44.7078C227.664 44.5872 227.553 44.4852 227.409 44.4017C227.27 44.3136 227.103 44.2441 226.908 44.193C226.741 44.1559 226.56 44.1374 226.366 44.1374C226.329 44.1374 226.289 44.1374 226.247 44.1374C226.016 44.1467 225.74 44.207 225.42 44.3183C225.1 44.4249 224.756 44.6058 224.39 44.8609C224.024 45.1159 223.643 45.4522 223.249 45.8696C222.855 46.287 222.47 46.8064 222.094 47.4278H222.755ZM230.286 47.4278C230.773 47.4278 231.241 47.4139 231.691 47.3861C232.141 47.3536 232.551 47.3096 232.922 47.2539C233.293 47.1983 233.613 47.131 233.882 47.0522C234.151 46.9733 234.353 46.8852 234.487 46.7878H233.778C233.37 46.7878 232.98 46.7368 232.609 46.6348C232.243 46.5281 231.92 46.3704 231.642 46.1617C231.364 45.953 231.141 45.6933 230.974 45.3826C230.812 45.0672 230.731 44.7009 230.731 44.2835C230.731 44.0377 230.756 43.7849 230.807 43.5252C230.858 43.2655 230.935 43.0128 231.037 42.767C231.139 42.5212 231.262 42.2893 231.406 42.0713C231.549 41.8533 231.714 41.6632 231.9 41.5009C232.085 41.3339 232.289 41.2041 232.512 41.1113C232.734 41.0139 232.975 40.9652 233.235 40.9652C233.555 40.9652 233.854 41.0325 234.133 41.167C234.411 41.3014 234.664 41.4846 234.891 41.7165C235.118 41.9438 235.32 42.2081 235.496 42.5096C235.672 42.811 235.821 43.1287 235.941 43.4626C236.062 43.7965 236.152 44.1374 236.213 44.4852C236.278 44.8284 236.31 45.1554 236.31 45.4661C236.31 45.9948 236.236 46.4539 236.087 46.8435C235.944 47.233 235.74 47.567 235.475 47.8452C235.215 48.1235 234.902 48.3507 234.536 48.527C234.174 48.7032 233.773 48.8423 233.333 48.9443C232.892 49.0464 232.419 49.1159 231.913 49.153C231.413 49.1901 230.893 49.2087 230.355 49.2087H230.119V47.4278H230.286ZM233.235 42.76C233.212 42.7554 233.189 42.753 233.166 42.753C233.073 42.753 232.966 42.7901 232.846 42.8643C232.725 42.9386 232.609 43.0452 232.498 43.1843C232.387 43.3235 232.296 43.4812 232.227 43.6574C232.157 43.829 232.122 43.9983 232.122 44.1652C232.122 44.1745 232.122 44.1838 232.122 44.193C232.122 44.36 232.159 44.4968 232.233 44.6035C232.308 44.7055 232.407 44.7843 232.533 44.84C232.662 44.8957 232.811 44.9351 232.978 44.9583C233.149 44.9814 233.33 44.9977 233.52 45.007C233.646 45.0116 233.775 45.0139 233.91 45.0139C233.975 45.0139 234.075 45.0139 234.209 45.0139C234.348 45.0093 234.49 45.0023 234.633 44.993C234.592 44.8261 234.531 44.6197 234.453 44.3739C234.378 44.1235 234.283 43.8823 234.167 43.6504C234.056 43.4139 233.922 43.2099 233.764 43.0383C233.611 42.8667 233.435 42.7739 233.235 42.76ZM233.068 38.8713L231.886 40.0539L230.689 38.8643L231.872 37.6748L233.068 38.8713ZM235.698 38.8783L234.515 40.0678L233.319 38.8713L234.501 37.6887L235.698 38.8783Z" fill="black"/>
<path d="M43.7864 219.172L231.876 103.544L363.87 191.54L176.005 317.718L43.7864 229.572L43.7864 219.172Z" fill="#E7E7E7" stroke="black"/>
<path d="M364.111 180.697L364.114 191.376L176.531 317.364L175.797 306.869L363.755 180.519L364.111 180.697Z" fill="#A3A3A3" stroke="black"/>
<rect x="0.000955552" y="0.556128" width="158.615" height="226.305" transform="matrix(0.83205 0.5547 -0.830139 0.557556 232.355 92.2455)" fill="#E7E7E7" stroke="black"/>
<path d="M176.006 306.718L167.798 301.247L355.663 175.069L363.87 180.54L176.006 306.718Z" fill="#A3A3A3" stroke="black"/>
<path d="M135.364 125.477C135.364 125.49 135.373 125.554 135.39 125.668C135.408 125.775 135.425 125.923 135.442 126.113C135.46 126.296 135.474 126.509 135.486 126.752C135.491 126.922 135.494 127.098 135.494 127.278V127.55C135.471 129.172 135.156 130.614 134.548 131.875V131.864C133.958 133.113 133.156 134.076 132.143 134.751C131.865 134.936 131.613 135.083 131.388 135.192C131.168 135.29 130.948 135.36 130.728 135.402L130.797 135.93C130.867 136.537 130.922 137.176 130.962 137.844C131.008 138.502 131.043 139.171 131.066 139.851C131.095 140.521 131.113 141.191 131.118 141.862C131.13 142.522 131.136 143.155 131.136 143.76L129.408 144.912C129.408 143.806 129.399 142.712 129.382 141.632C129.365 140.544 129.318 139.511 129.243 138.531C129.168 137.545 129.055 136.632 128.904 135.793C128.76 134.944 128.557 134.209 128.297 133.59C128.175 133.295 128.045 133.024 127.906 132.776C127.767 132.527 127.611 132.28 127.437 132.034L128.887 129.961C128.98 130.081 129.064 130.209 129.139 130.347C129.22 130.474 129.298 130.613 129.373 130.764C129.454 130.905 129.535 131.06 129.616 131.228C129.697 131.397 129.787 131.577 129.886 131.769C130.019 132.049 130.149 132.296 130.276 132.51C130.409 132.714 130.56 132.867 130.728 132.971C130.901 133.071 131.098 133.107 131.318 133.078C131.544 133.039 131.819 132.911 132.143 132.695C132.623 132.375 132.985 131.956 133.228 131.44C133.338 131.213 133.428 130.976 133.497 130.728C133.567 130.473 133.622 130.217 133.662 129.961C133.709 129.7 133.741 129.442 133.758 129.187C133.775 128.932 133.784 128.69 133.784 128.46C133.784 128.161 133.769 127.882 133.741 127.623C133.717 127.36 133.691 127.148 133.662 126.987L135.364 125.477ZM138.19 133.192C138.19 132.705 138.266 132.2 138.416 131.675C138.572 131.139 138.784 130.623 139.05 130.125C139.316 129.621 139.626 129.157 139.979 128.734C140.338 128.307 140.723 127.956 141.134 127.682C141.539 127.412 141.918 127.253 142.271 127.206C142.63 127.154 142.942 127.203 143.209 127.353C143.481 127.492 143.695 127.724 143.851 128.052C144.007 128.372 144.086 128.775 144.086 129.262C144.086 129.756 144.007 130.271 143.851 130.806C143.695 131.335 143.481 131.85 143.209 132.351C142.942 132.849 142.63 133.311 142.271 133.738C141.918 134.154 141.539 134.497 141.134 134.768C140.723 135.042 140.338 135.208 139.979 135.266C139.626 135.314 139.316 135.266 139.05 135.124C138.784 134.981 138.572 134.75 138.416 134.43C138.266 134.099 138.19 133.686 138.19 133.192ZM139.606 132.249C139.606 132.499 139.646 132.709 139.727 132.877C139.808 133.046 139.918 133.167 140.057 133.242C140.196 133.316 140.358 133.34 140.543 133.314C140.728 133.288 140.925 133.206 141.134 133.067C141.342 132.928 141.539 132.748 141.724 132.527C141.915 132.302 142.08 132.06 142.219 131.801C142.358 131.541 142.468 131.273 142.549 130.996C142.63 130.72 142.67 130.456 142.67 130.206C142.67 129.955 142.63 129.746 142.549 129.577C142.468 129.402 142.358 129.277 142.219 129.202C142.08 129.128 141.915 129.106 141.724 129.136C141.539 129.162 141.342 129.244 141.134 129.383C140.925 129.522 140.728 129.702 140.543 129.923C140.358 130.144 140.196 130.384 140.057 130.644C139.918 130.903 139.808 131.175 139.727 131.458C139.646 131.735 139.606 131.998 139.606 132.249Z" fill="black"/>
<path d="M305.364 110.521C305.364 110.535 305.373 110.61 305.39 110.747C305.408 110.877 305.425 111.048 305.442 111.262C305.46 111.468 305.474 111.7 305.486 111.958C305.491 112.136 305.494 112.316 305.494 112.496V112.768C305.471 114.359 305.156 115.38 304.548 115.831V115.82C303.958 116.282 303.156 116.176 302.143 115.5C301.865 115.315 301.613 115.127 301.388 114.934C301.168 114.739 300.948 114.516 300.728 114.265L300.797 114.885C300.867 115.585 300.922 116.297 300.962 117.019C301.008 117.739 301.043 118.454 301.066 119.165C301.095 119.873 301.113 120.567 301.118 121.245C301.13 121.921 301.136 122.561 301.136 123.166L299.408 122.015C299.408 120.909 299.399 119.804 299.382 118.7C299.365 117.589 299.318 116.494 299.243 115.414C299.168 114.327 299.055 113.264 298.904 112.225C298.76 111.182 298.557 110.178 298.297 109.211C298.175 108.754 298.045 108.309 297.906 107.876C297.767 107.442 297.611 106.987 297.437 106.509L298.887 106.37C298.98 106.613 299.064 106.853 299.139 107.091C299.22 107.326 299.298 107.569 299.373 107.821C299.454 108.07 299.535 108.333 299.616 108.609C299.697 108.886 299.787 109.186 299.886 109.509C300.019 109.966 300.149 110.387 300.276 110.771C300.409 111.152 300.56 111.506 300.728 111.834C300.901 112.165 301.098 112.463 301.318 112.728C301.544 112.99 301.819 113.229 302.143 113.445C302.623 113.765 302.985 113.829 303.228 113.636C303.338 113.556 303.428 113.439 303.497 113.283C303.567 113.121 303.622 112.939 303.662 112.736C303.709 112.537 303.741 112.322 303.758 112.09C303.775 111.858 303.784 111.627 303.784 111.398C303.784 111.099 303.769 110.8 303.741 110.503C303.717 110.209 303.691 109.962 303.662 109.762L305.364 110.521ZM308.19 122.005C308.19 121.518 308.266 121.113 308.416 120.789C308.572 120.462 308.784 120.227 309.05 120.084C309.316 119.935 309.626 119.884 309.979 119.931C310.338 119.983 310.723 120.146 311.134 120.419C311.539 120.69 311.918 121.036 312.271 121.459C312.63 121.887 312.942 122.352 313.209 122.857C313.481 123.358 313.695 123.877 313.851 124.412C314.007 124.941 314.086 125.448 314.086 125.935C314.086 126.429 314.007 126.84 313.851 127.167C313.695 127.487 313.481 127.716 313.209 127.855C312.942 127.998 312.63 128.043 312.271 127.992C311.918 127.937 311.539 127.775 311.134 127.505C310.723 127.231 310.338 126.884 309.979 126.464C309.626 126.04 309.316 125.58 309.05 125.082C308.784 124.585 308.572 124.072 308.416 123.543C308.266 123.012 308.19 122.499 308.19 122.005ZM309.606 122.949C309.606 123.199 309.646 123.463 309.727 123.739C309.808 124.016 309.918 124.284 310.057 124.543C310.196 124.803 310.358 125.043 310.543 125.264C310.728 125.485 310.925 125.665 311.134 125.804C311.342 125.943 311.539 126.025 311.724 126.051C311.915 126.081 312.08 126.059 312.219 125.985C312.358 125.91 312.468 125.789 312.549 125.62C312.63 125.452 312.67 125.242 312.67 124.992C312.67 124.741 312.63 124.478 312.549 124.201C312.468 123.918 312.358 123.646 312.219 123.386C312.08 123.127 311.915 122.885 311.724 122.66C311.539 122.439 311.342 122.259 311.134 122.12C310.925 121.981 310.728 121.899 310.543 121.873C310.358 121.847 310.196 121.871 310.057 121.945C309.918 122.02 309.808 122.145 309.727 122.32C309.646 122.489 309.606 122.698 309.606 122.949Z" fill="black"/>
<path d="M184.11 189.513C183.351 189.008 182.752 188.415 182.311 187.735C181.877 187.058 181.67 186.299 181.692 185.455L185.472 185.019C185.496 185.383 185.557 185.71 185.656 186C185.76 186.286 185.888 186.541 186.039 186.765C186.189 186.989 186.355 187.184 186.534 187.35C186.719 187.52 186.908 187.669 187.099 187.796C187.255 187.9 187.431 188.006 187.628 188.114C187.831 188.219 188.042 188.313 188.262 188.398C188.487 188.486 188.713 188.559 188.938 188.617C189.164 188.675 189.387 188.707 189.606 188.715C189.918 188.211 190.229 187.681 190.54 187.123C190.863 186.565 191.183 186.006 191.5 185.444C191.823 184.879 192.143 184.319 192.46 183.765C192.777 183.212 193.088 182.685 193.394 182.185L196.986 183.166L192.947 189.713C192.797 189.953 192.67 190.166 192.566 190.352C192.463 190.538 192.405 190.712 192.394 190.874C192.388 191.041 192.435 191.199 192.534 191.35C192.644 191.501 192.829 191.663 193.089 191.836L193.341 192.004L190.604 193.843L190.352 193.675C189.999 193.44 189.71 193.216 189.484 193.003C189.264 192.795 189.09 192.59 188.962 192.389C188.835 192.196 188.745 192.004 188.692 191.815C188.652 191.625 188.631 191.434 188.631 191.241C188.186 191.183 187.769 191.107 187.382 191.011C186.988 190.918 186.609 190.801 186.245 190.659C185.88 190.516 185.525 190.348 185.177 190.156C184.83 189.97 184.474 189.756 184.11 189.513ZM192.997 191.775L193.561 192.151C193.821 192.324 194.082 192.444 194.342 192.509C194.614 192.575 194.883 192.595 195.149 192.572C195.426 192.548 195.695 192.484 195.955 192.379C196.221 192.278 196.478 192.144 196.726 191.977C197.072 191.752 197.488 191.477 197.973 191.151C198.464 190.821 198.987 190.466 199.541 190.086C200.101 189.702 200.676 189.305 201.265 188.894C201.86 188.479 202.434 188.073 202.989 187.678C203.549 187.278 204.077 186.9 204.574 186.543C205.076 186.183 205.512 185.867 205.882 185.595L209.145 187.098L198.854 194.138C198.496 194.378 198.303 194.628 198.275 194.888C198.258 195.147 198.429 195.396 198.788 195.635L198.979 195.763L196.241 197.601L196.05 197.474C195.807 197.319 195.587 197.146 195.39 196.953C195.199 196.763 195.04 196.568 194.912 196.367C194.779 196.17 194.686 195.977 194.634 195.787C194.581 195.598 194.575 195.428 194.616 195.277C194.344 195.297 194.069 195.291 193.792 195.261C193.514 195.23 193.222 195.163 192.915 195.059C192.609 194.963 192.282 194.826 191.935 194.649C191.588 194.472 191.211 194.248 190.806 193.978L190.259 193.613L192.997 191.775ZM198.632 195.532L200.464 196.753C201.402 197.378 202.316 197.914 203.208 198.362C204.11 198.809 204.998 199.196 205.872 199.523C206.746 199.851 207.61 200.134 208.466 200.372C209.334 200.61 210.199 200.835 211.061 201.047C210.777 200.71 210.516 200.355 210.278 199.98C210.046 199.609 209.806 199.24 209.557 198.873C209.313 198.51 209.047 198.162 208.757 197.83C208.473 197.494 208.137 197.196 207.749 196.938C207.483 196.76 207.148 196.633 206.743 196.557C206.344 196.484 205.948 196.44 205.554 196.425C205.161 196.41 204.806 196.417 204.488 196.444C204.176 196.468 203.97 196.49 203.872 196.509L203.157 194.305C203.764 194.192 204.403 194.112 205.073 194.064C205.744 194.017 206.4 194.017 207.042 194.067C207.695 194.116 208.317 194.221 208.907 194.382C209.503 194.548 210.032 194.785 210.495 195.094C210.837 195.321 211.141 195.574 211.407 195.852C211.679 196.126 211.926 196.414 212.146 196.716C212.372 197.021 212.575 197.334 212.755 197.655C212.94 197.972 213.12 198.288 213.294 198.605C213.456 198.907 213.622 199.21 213.79 199.516C213.964 199.817 214.155 200.119 214.364 200.42C214.578 200.717 214.824 201.009 215.102 201.295C215.38 201.581 215.713 201.857 216.101 202.123L213.225 203.764L211.403 203.338C210.657 203.165 209.905 203 209.147 202.843C208.395 202.682 207.64 202.511 206.883 202.33C206.131 202.146 205.37 201.944 204.601 201.725C203.837 201.502 203.074 201.244 202.31 200.951C201.552 200.655 200.791 200.314 200.027 199.928C199.258 199.546 198.491 199.101 197.727 198.592L195.895 197.37L198.632 195.532ZM198.328 205.322L198.324 202.746L202.174 202.739L202.179 205.315L198.328 205.322Z" fill="black"/>
<path d="M217.377 85.1019C217.54 84.7983 217.54 84.4818 217.377 84.3948L214.73 82.9779C214.567 82.8909 214.304 83.0665 214.142 83.3701C213.979 83.6737 213.979 83.9903 214.142 84.0772L216.495 85.3367L214.142 89.7341C213.979 90.0376 213.979 90.3542 214.142 90.4412C214.304 90.5281 214.567 90.3525 214.73 90.0489L217.377 85.1019ZM163 121.5L217.083 85.4445V84.4445L163 120.5V121.5Z" fill="black"/>
<path d="M364.889 164.613C365.051 164.526 365.051 164.209 364.889 163.906L362.241 158.959C362.079 158.655 361.816 158.48 361.653 158.567C361.491 158.653 361.491 158.97 361.653 159.274L364.006 163.671L361.653 164.93C361.491 165.017 361.491 165.334 361.653 165.638C361.816 165.941 362.079 166.117 362.241 166.03L364.889 164.613ZM318 133.5L364.595 164.563V163.563L318 132.5V133.5Z" fill="black"/>
<path d="M242.706 84.4503C242.543 84.5373 242.543 84.8539 242.706 85.1574L245.353 90.1045C245.516 90.408 245.779 90.5836 245.942 90.4967C246.104 90.4097 246.104 90.0932 245.942 89.7896L243.588 85.3922L245.942 84.1327C246.104 84.0458 246.104 83.7292 245.942 83.4256C245.779 83.1221 245.516 82.9464 245.353 83.0334L242.706 84.4503ZM243 85.5L289.595 116.563V115.563L243 84.5V85.5Z" fill="black"/>
<path d="M42.7058 199.898C42.5434 200.202 42.5434 200.518 42.7058 200.605L45.3534 202.022C45.5159 202.109 45.7793 201.933 45.9417 201.63C46.1042 201.326 46.1042 201.01 45.9417 200.923L43.5883 199.663L45.9417 195.266C46.1042 194.962 46.1042 194.646 45.9417 194.559C45.7793 194.472 45.5159 194.648 45.3534 194.951L42.7058 199.898ZM43 200.556L97.0833 164.5V163.5L43 199.556V200.556Z" fill="black"/>
<path d="M165.619 349.01C165.828 348.964 166.041 348.936 166.259 348.927C166.319 348.922 166.38 348.92 166.44 348.92C166.593 348.92 166.76 348.932 166.941 348.955C167.126 348.978 167.321 349.022 167.525 349.087C167.734 349.152 167.933 349.235 168.123 349.337L167.49 351.007C167.249 350.9 166.999 350.828 166.739 350.791C166.628 350.777 166.519 350.77 166.412 350.77C166.259 350.77 166.106 350.784 165.953 350.812C165.795 350.826 165.626 350.872 165.445 350.951C165.264 351.03 165.083 351.132 164.903 351.257C164.726 351.378 164.555 351.519 164.388 351.682C164.225 351.839 164.082 352.009 163.956 352.19C163.831 352.366 163.729 352.549 163.65 352.739C163.576 352.925 163.539 353.106 163.539 353.282C163.539 353.481 163.585 353.639 163.678 353.755C163.776 353.866 163.903 353.959 164.061 354.033C164.223 354.103 164.409 354.161 164.617 354.207C164.826 354.249 165.044 354.3 165.271 354.36C165.549 354.425 165.83 354.499 166.113 354.583C166.396 354.666 166.651 354.782 166.878 354.93C167.105 355.074 167.286 355.264 167.421 355.501C167.537 355.71 167.595 355.967 167.595 356.273C167.595 356.315 167.592 356.359 167.588 356.405C167.56 356.892 167.449 357.321 167.254 357.692C167.059 358.068 166.806 358.392 166.496 358.666C166.185 358.94 165.83 359.167 165.431 359.348C165.032 359.533 164.615 359.682 164.179 359.793C163.743 359.904 163.303 359.983 162.857 360.03C162.412 360.076 161.988 360.099 161.584 360.099C160.768 360.099 160.021 359.99 159.344 359.772C158.672 359.554 158.104 359.23 157.64 358.798C157.176 358.372 156.84 357.838 156.631 357.198C156.492 356.781 156.423 356.319 156.423 355.814C156.423 355.545 156.441 355.267 156.478 354.979C156.515 354.673 156.566 354.362 156.631 354.047C156.696 353.732 156.766 353.428 156.84 353.136C156.914 352.839 156.991 352.558 157.069 352.294C157.148 352.03 157.22 351.798 157.285 351.598C157.35 351.399 157.406 351.237 157.452 351.111C157.498 350.986 157.526 350.914 157.536 350.896L159.066 351.515C158.955 351.863 158.853 352.19 158.76 352.496C158.667 352.797 158.584 353.094 158.509 353.386C158.435 353.678 158.368 353.973 158.308 354.27C158.252 354.562 158.203 354.872 158.162 355.202C158.143 355.355 158.134 355.503 158.134 355.647C158.134 355.976 158.196 356.303 158.322 356.628C158.452 356.957 158.672 357.247 158.983 357.497C159.298 357.752 159.678 357.943 160.123 358.068C160.569 358.193 161.056 358.256 161.584 358.256C162.201 358.256 162.774 358.207 163.303 358.11C163.836 358.017 164.297 357.892 164.687 357.734C165.081 357.576 165.394 357.398 165.626 357.198C165.863 357.003 165.995 356.802 166.023 356.593C166.018 356.551 165.974 356.512 165.89 356.475C165.807 356.438 165.703 356.401 165.577 356.363C165.452 356.331 165.313 356.296 165.16 356.259C165.012 356.227 164.868 356.192 164.729 356.155C164.339 356.057 163.977 355.946 163.643 355.821C163.309 355.7 163.02 355.54 162.774 355.341C162.528 355.141 162.336 354.889 162.196 354.583C162.057 354.277 161.988 353.892 161.988 353.428C162.011 352.918 162.118 352.421 162.308 351.939C162.498 351.457 162.753 351.019 163.073 350.624C163.398 350.226 163.776 349.885 164.207 349.602C164.638 349.319 165.109 349.122 165.619 349.01ZM169.58 352.475C169.756 352.586 169.967 352.7 170.213 352.816C170.464 352.932 170.721 353.036 170.985 353.129C171.254 353.221 171.516 353.298 171.771 353.358C172.031 353.419 172.258 353.449 172.453 353.449C172.532 353.449 172.629 353.446 172.745 353.442C172.861 353.437 172.984 353.428 173.114 353.414C173.244 353.395 173.374 353.37 173.504 353.337C173.634 353.3 173.749 353.252 173.851 353.191C173.958 353.126 174.044 353.048 174.109 352.955C174.174 352.857 174.209 352.739 174.213 352.6C174.213 352.591 174.213 352.584 174.213 352.579C174.213 352.394 174.16 352.185 174.053 351.953C173.951 351.717 173.81 351.471 173.629 351.216C173.448 350.956 173.239 350.696 173.003 350.437C172.766 350.177 172.52 349.929 172.265 349.692C172.01 349.451 171.753 349.231 171.493 349.031C171.238 348.827 170.999 348.656 170.777 348.517L171.813 346.979C172.24 347.271 172.66 347.601 173.072 347.967C173.49 348.333 173.872 348.725 174.22 349.143C174.573 349.555 174.876 349.987 175.131 350.437C175.391 350.886 175.577 351.341 175.688 351.8C175.748 352.064 175.778 352.317 175.778 352.558C175.778 352.79 175.734 353.068 175.646 353.393C175.563 353.718 175.37 354.038 175.069 354.353C174.767 354.664 174.385 354.903 173.921 355.07C173.522 355.213 173.084 355.285 172.606 355.285C172.527 355.285 172.446 355.283 172.363 355.278C172.057 355.278 171.746 355.248 171.431 355.188C171.115 355.132 170.805 355.053 170.498 354.951C170.197 354.849 169.905 354.733 169.622 354.603C169.344 354.469 169.084 354.328 168.843 354.179L169.58 352.475ZM176.68 358.339C177.361 358.205 177.976 358.024 178.523 357.797C179.075 357.574 179.553 357.323 179.956 357.045C180.36 356.767 180.687 356.47 180.937 356.155C181.192 355.839 181.361 355.524 181.445 355.209C181.069 355.209 180.703 355.197 180.346 355.174C179.989 355.151 179.65 355.104 179.33 355.035C179.015 354.97 178.722 354.877 178.454 354.757C178.189 354.631 177.96 354.469 177.765 354.27C177.575 354.066 177.426 353.82 177.32 353.532C177.213 353.245 177.16 352.901 177.16 352.503C177.16 352.248 177.187 351.981 177.243 351.703C177.299 351.424 177.378 351.153 177.48 350.889C177.586 350.62 177.716 350.367 177.869 350.13C178.022 349.889 178.198 349.678 178.398 349.497C178.597 349.312 178.818 349.166 179.059 349.059C179.3 348.952 179.56 348.899 179.838 348.899C180.557 348.899 181.213 349.219 181.807 349.859C182.001 350.077 182.178 350.321 182.335 350.59C182.493 350.859 182.63 351.146 182.746 351.452C182.862 351.758 182.954 352.078 183.024 352.412C183.098 352.741 183.145 353.08 183.163 353.428H183.629V355.209H183.017C182.859 355.895 182.593 356.512 182.217 357.059C181.841 357.611 181.389 358.091 180.86 358.499C180.336 358.907 179.752 359.243 179.107 359.508C178.463 359.772 177.793 359.962 177.097 360.078L176.68 358.339ZM179.838 350.687C179.717 350.687 179.587 350.738 179.448 350.84C179.309 350.942 179.182 351.074 179.066 351.237C178.95 351.394 178.852 351.57 178.774 351.765C178.699 351.96 178.662 352.15 178.662 352.336C178.662 352.53 178.706 352.693 178.794 352.823C178.887 352.952 179.003 353.057 179.142 353.136C179.286 353.214 179.446 353.275 179.622 353.317C179.803 353.354 179.982 353.379 180.158 353.393C180.255 353.402 180.362 353.409 180.478 353.414C180.594 353.414 180.712 353.416 180.833 353.421C180.958 353.426 181.081 353.428 181.201 353.428C181.322 353.428 181.436 353.428 181.542 353.428C181.528 353.256 181.494 353.071 181.438 352.871C181.387 352.667 181.32 352.463 181.236 352.259C181.153 352.055 181.058 351.86 180.951 351.675C180.844 351.485 180.728 351.318 180.603 351.174C180.482 351.026 180.357 350.907 180.227 350.819C180.098 350.731 179.968 350.687 179.838 350.687ZM186.83 352.489C186.984 352.554 187.181 352.635 187.422 352.732C187.663 352.83 187.923 352.927 188.201 353.024C188.479 353.122 188.76 353.21 189.043 353.289C189.33 353.363 189.592 353.409 189.829 353.428C189.782 353.233 189.734 353.031 189.683 352.823C189.636 352.609 189.583 352.403 189.523 352.203C189.462 352.004 189.395 351.816 189.321 351.64C189.247 351.459 189.159 351.301 189.057 351.167C188.959 351.032 188.846 350.926 188.716 350.847C188.586 350.768 188.44 350.729 188.277 350.729C188.092 350.729 187.925 350.789 187.777 350.91C187.633 351.03 187.501 351.181 187.38 351.362C187.264 351.538 187.16 351.728 187.067 351.932C186.979 352.136 186.9 352.322 186.83 352.489ZM189.474 355.188C189.233 355.183 188.95 355.148 188.625 355.083C188.301 355.023 187.969 354.942 187.63 354.84C187.297 354.738 186.974 354.622 186.664 354.492C186.357 354.362 186.098 354.226 185.884 354.082C185.704 354.263 185.527 354.423 185.356 354.562C185.184 354.701 185.006 354.819 184.82 354.917C184.635 355.009 184.433 355.081 184.215 355.132C184.001 355.183 183.758 355.209 183.484 355.209H183.345V353.428H183.484C183.823 353.428 184.106 353.365 184.333 353.24C184.56 353.11 184.755 352.943 184.917 352.739C185.08 352.535 185.221 352.306 185.342 352.05C185.467 351.795 185.595 351.54 185.724 351.285C185.854 351.016 186.003 350.747 186.17 350.478C186.337 350.209 186.524 349.968 186.733 349.755C186.946 349.537 187.185 349.361 187.45 349.226C187.714 349.092 188.011 349.024 188.34 349.024C188.771 349.024 189.133 349.101 189.425 349.254C189.722 349.402 189.968 349.609 190.163 349.873C190.362 350.133 190.52 350.439 190.636 350.791C190.752 351.144 190.849 351.524 190.928 351.932C190.974 352.169 191.018 352.38 191.06 352.565C191.102 352.746 191.148 352.901 191.199 353.031C191.255 353.161 191.313 353.261 191.373 353.33C191.438 353.395 191.515 353.428 191.603 353.428H191.818V355.209H191.554C191.299 355.204 191.072 355.134 190.872 355C190.677 354.861 190.497 354.678 190.33 354.45C190.279 354.497 190.218 354.559 190.149 354.638C190.084 354.717 190.012 354.796 189.933 354.875C189.859 354.949 189.782 355.016 189.704 355.077C189.625 355.137 189.548 355.174 189.474 355.188ZM197.766 351.125C197.599 350.93 197.404 350.754 197.181 350.597C196.996 350.462 196.78 350.341 196.534 350.235C196.289 350.123 196.02 350.068 195.728 350.068C195.491 350.068 195.282 350.105 195.101 350.179C194.921 350.249 194.768 350.346 194.642 350.471C194.517 350.592 194.42 350.733 194.35 350.896C194.281 351.058 194.239 351.232 194.225 351.417C194.22 351.45 194.218 351.482 194.218 351.515C194.218 351.733 194.276 351.946 194.392 352.155C194.508 352.359 194.67 352.542 194.879 352.704C195.088 352.862 195.329 352.983 195.602 353.066C195.825 353.136 196.05 353.17 196.277 353.17C196.328 353.17 196.379 353.168 196.43 353.163C196.699 353.145 196.968 353.117 197.237 353.08C197.511 353.038 197.759 352.999 197.981 352.962L198.726 352.816L198.941 354.548C198.654 354.622 198.332 354.699 197.974 354.777C197.617 354.856 197.207 354.928 196.743 354.993C196.284 355.053 195.762 355.104 195.178 355.146C194.594 355.188 193.93 355.209 193.188 355.209H191.533V353.428H191.839L193.168 353.421C192.917 353.129 192.745 352.83 192.653 352.523C192.565 352.213 192.521 351.872 192.521 351.501C192.521 351.065 192.602 350.652 192.764 350.263C192.926 349.873 193.149 349.532 193.432 349.24C193.719 348.948 194.058 348.716 194.448 348.544C194.842 348.373 195.268 348.287 195.728 348.287C195.955 348.287 196.173 348.308 196.381 348.35C196.595 348.391 196.797 348.447 196.987 348.517C197.177 348.586 197.355 348.665 197.522 348.753C197.694 348.841 197.849 348.929 197.988 349.017C198.151 349.124 198.308 349.238 198.461 349.358C198.614 349.479 198.758 349.606 198.893 349.741L197.766 351.125ZM210.211 359.744C209.414 359.744 208.676 359.645 207.999 359.445C207.322 359.25 206.745 358.954 206.267 358.555C205.789 358.161 205.43 357.664 205.189 357.066C204.994 356.598 204.897 356.067 204.897 355.473C204.897 355.315 204.904 355.153 204.918 354.986C204.945 354.666 204.982 354.339 205.029 354.005C205.08 353.671 205.147 353.321 205.231 352.955C205.319 352.584 205.43 352.192 205.564 351.779C205.699 351.366 205.866 350.921 206.065 350.443L207.498 351.104C207.308 351.577 207.151 352.016 207.025 352.419C206.9 352.818 206.8 353.189 206.726 353.532C206.657 353.875 206.608 354.198 206.58 354.499C206.552 354.801 206.538 355.09 206.538 355.369C206.538 355.703 206.58 356.002 206.664 356.266C206.752 356.53 206.863 356.767 206.997 356.976C207.178 357.221 207.406 357.409 207.679 357.539C207.953 357.674 208.24 357.771 208.542 357.831C208.848 357.892 209.147 357.926 209.439 357.936C209.736 357.95 209.993 357.957 210.211 357.957C210.341 357.957 210.529 357.947 210.775 357.929C211.025 357.91 211.297 357.878 211.589 357.831C211.886 357.785 212.189 357.725 212.5 357.65C212.811 357.576 213.091 357.483 213.342 357.372C213.597 357.261 213.803 357.131 213.961 356.983C214.123 356.834 214.204 356.66 214.204 356.461C214.204 356.428 214.163 356.377 214.079 356.308C214 356.243 213.889 356.169 213.745 356.085C213.606 356.002 213.442 355.914 213.251 355.821C213.061 355.733 212.857 355.647 212.639 355.563C212.319 355.457 212.002 355.378 211.686 355.327C211.371 355.276 211.058 355.223 210.747 355.167L210.984 353.428H216.507V355.209H215.206C215.392 355.436 215.515 355.659 215.575 355.877C215.64 356.099 215.675 356.294 215.679 356.461C215.661 356.869 215.556 357.233 215.366 357.553C215.176 357.878 214.93 358.161 214.629 358.402C214.332 358.648 213.993 358.854 213.613 359.021C213.233 359.192 212.843 359.332 212.444 359.438C212.046 359.545 211.651 359.621 211.262 359.668C210.877 359.719 210.527 359.744 210.211 359.744ZM216.514 353.428C216.769 353.428 216.996 353.372 217.196 353.261C217.4 353.15 217.578 353.001 217.732 352.816C217.889 352.63 218.026 352.419 218.142 352.183C218.263 351.946 218.367 351.703 218.455 351.452C218.543 351.202 218.62 350.956 218.685 350.715C218.749 350.469 218.807 350.249 218.858 350.054L220.598 350.437C220.556 350.566 220.5 350.733 220.431 350.937C220.361 351.137 220.294 351.35 220.229 351.577C220.169 351.8 220.118 352.025 220.076 352.252C220.043 352.424 220.027 352.584 220.027 352.732C220.027 352.779 220.032 352.86 220.041 352.976C220.05 353.092 220.097 353.208 220.18 353.323C220.268 353.435 220.41 353.49 220.605 353.49C220.813 353.49 221.001 353.432 221.168 353.317C221.335 353.196 221.483 353.041 221.613 352.85C221.748 352.656 221.864 352.435 221.961 352.19C222.063 351.944 222.149 351.693 222.218 351.438C222.293 351.179 222.353 350.926 222.399 350.68C222.45 350.434 222.49 350.214 222.518 350.019L224.145 350.332C224.132 350.443 224.111 350.576 224.083 350.729C224.06 350.882 224.034 351.049 224.006 351.23C223.978 351.406 223.951 351.591 223.923 351.786C223.9 351.981 223.881 352.176 223.867 352.37C223.867 352.408 223.867 352.445 223.867 352.482C223.867 352.593 223.879 352.709 223.902 352.83C223.925 352.946 223.974 353.057 224.048 353.163C224.122 353.266 224.22 353.349 224.34 353.414C224.461 353.474 224.609 353.507 224.785 353.511C225.115 353.511 225.384 353.428 225.592 353.261C225.801 353.094 225.905 352.839 225.905 352.496C225.905 352.245 225.871 351.974 225.801 351.682C225.736 351.39 225.655 351.104 225.558 350.826C225.465 350.548 225.365 350.286 225.258 350.04C225.152 349.794 225.059 349.59 224.98 349.428L226.476 348.593C226.504 348.644 226.548 348.737 226.608 348.871C226.673 349.006 226.745 349.173 226.824 349.372C226.907 349.567 226.991 349.787 227.074 350.033C227.158 350.279 227.234 350.539 227.304 350.812C227.378 351.081 227.436 351.357 227.478 351.64C227.524 351.923 227.547 352.201 227.547 352.475C227.547 352.906 227.48 353.296 227.345 353.643C227.216 353.991 227.021 354.288 226.761 354.534C226.506 354.78 226.191 354.968 225.815 355.097C225.453 355.227 225.038 355.292 224.57 355.292C224.556 355.292 224.54 355.292 224.521 355.292C224.503 355.292 224.486 355.292 224.472 355.292C224.254 355.292 224.055 355.262 223.874 355.202C223.693 355.146 223.526 355.067 223.373 354.965C223.225 354.859 223.09 354.738 222.97 354.603C222.854 354.469 222.749 354.332 222.657 354.193C222.55 354.346 222.434 354.49 222.309 354.624C222.184 354.754 222.038 354.868 221.871 354.965C221.708 355.063 221.523 355.139 221.314 355.195C221.11 355.255 220.874 355.288 220.605 355.292C220.591 355.292 220.574 355.292 220.556 355.292C220.347 355.292 220.152 355.264 219.972 355.209C219.795 355.153 219.631 355.077 219.478 354.979C219.329 354.877 219.192 354.759 219.067 354.624C218.947 354.49 218.835 354.348 218.733 354.2C218.645 354.33 218.538 354.455 218.413 354.576C218.293 354.696 218.142 354.805 217.961 354.903C217.785 354.995 217.576 355.07 217.335 355.125C217.094 355.181 216.811 355.209 216.486 355.209H216.236V353.428H216.514ZM231.774 350.583C231.867 350.875 231.962 351.181 232.059 351.501C232.161 351.816 232.252 352.136 232.331 352.461C232.414 352.786 232.481 353.11 232.532 353.435C232.583 353.755 232.609 354.068 232.609 354.374C232.609 354.791 232.544 355.197 232.414 355.591C232.289 355.99 232.113 356.373 231.885 356.739C231.663 357.11 231.396 357.463 231.085 357.797C230.779 358.13 230.445 358.446 230.084 358.743C229.722 359.039 229.339 359.315 228.936 359.57C228.532 359.826 228.124 360.055 227.711 360.259L226.918 358.666C227.248 358.504 227.572 358.323 227.892 358.123C228.212 357.929 228.516 357.72 228.804 357.497C229.096 357.275 229.365 357.041 229.611 356.795C229.861 356.549 230.074 356.294 230.251 356.03C230.431 355.765 230.573 355.494 230.675 355.216C230.777 354.937 230.828 354.657 230.828 354.374C230.828 354.11 230.798 353.831 230.738 353.539C230.677 353.247 230.603 352.959 230.515 352.677C230.431 352.389 230.343 352.113 230.251 351.849C230.162 351.584 230.088 351.35 230.028 351.146L231.774 350.583ZM237.527 355.209H237.249C236.307 355.209 235.593 354.972 235.106 354.499C234.619 354.026 234.373 353.312 234.369 352.357C234.369 352.208 234.373 351.965 234.383 351.626C234.392 351.283 234.396 350.866 234.396 350.374C234.396 350.082 234.394 349.769 234.389 349.435C234.385 349.096 234.378 348.753 234.369 348.405C234.359 348.053 234.345 347.703 234.327 347.355C234.313 347.002 234.294 346.664 234.271 346.339C234.248 346.01 234.22 345.704 234.188 345.421C234.155 345.133 234.118 344.881 234.076 344.663L235.823 344.141C235.874 344.41 235.92 344.739 235.962 345.129C236.003 345.514 236.04 345.926 236.073 346.367C236.105 346.808 236.129 347.257 236.143 347.717C236.161 348.171 236.17 348.6 236.17 349.003C236.17 349.249 236.173 349.511 236.177 349.79C236.182 350.063 236.184 350.304 236.184 350.513C236.184 350.689 236.182 350.856 236.177 351.014C236.177 351.167 236.175 351.315 236.17 351.459C236.17 351.603 236.168 351.744 236.163 351.883C236.163 352.023 236.163 352.164 236.163 352.308C236.163 352.345 236.163 352.382 236.163 352.419C236.163 352.586 236.18 352.734 236.212 352.864C236.249 352.994 236.312 353.103 236.4 353.191C236.488 353.275 236.599 353.335 236.734 353.372C236.873 353.409 237.033 353.428 237.214 353.428H237.527V355.209ZM237.418 353.428C237.905 353.428 238.374 353.414 238.824 353.386C239.274 353.354 239.684 353.31 240.055 353.254C240.426 353.198 240.746 353.131 241.015 353.052C241.284 352.973 241.486 352.885 241.62 352.788H240.911C240.503 352.788 240.113 352.737 239.742 352.635C239.376 352.528 239.053 352.37 238.775 352.162C238.497 351.953 238.274 351.693 238.107 351.383C237.945 351.067 237.864 350.701 237.864 350.283C237.864 350.038 237.889 349.785 237.94 349.525C237.991 349.266 238.068 349.013 238.17 348.767C238.272 348.521 238.395 348.289 238.538 348.071C238.682 347.853 238.847 347.663 239.032 347.501C239.218 347.334 239.422 347.204 239.645 347.111C239.867 347.014 240.108 346.965 240.368 346.965C240.688 346.965 240.987 347.032 241.265 347.167C241.544 347.301 241.796 347.485 242.024 347.717C242.251 347.944 242.453 348.208 242.629 348.51C242.805 348.811 242.954 349.129 243.074 349.463C243.195 349.797 243.285 350.137 243.345 350.485C243.41 350.828 243.443 351.155 243.443 351.466C243.443 351.995 243.369 352.454 243.22 352.843C243.076 353.233 242.872 353.567 242.608 353.845C242.348 354.123 242.035 354.351 241.669 354.527C241.307 354.703 240.906 354.842 240.465 354.944C240.025 355.046 239.552 355.116 239.046 355.153C238.545 355.19 238.026 355.209 237.488 355.209H237.251V353.428H237.418ZM240.368 348.76C240.345 348.755 240.322 348.753 240.298 348.753C240.206 348.753 240.099 348.79 239.978 348.864C239.858 348.939 239.742 349.045 239.631 349.184C239.519 349.323 239.429 349.481 239.359 349.657C239.29 349.829 239.255 349.998 239.255 350.165C239.255 350.174 239.255 350.184 239.255 350.193C239.255 350.36 239.292 350.497 239.366 350.603C239.44 350.706 239.54 350.784 239.665 350.84C239.795 350.896 239.944 350.935 240.111 350.958C240.282 350.981 240.463 350.998 240.653 351.007C240.778 351.012 240.908 351.014 241.043 351.014C241.108 351.014 241.207 351.014 241.342 351.014C241.481 351.009 241.623 351.002 241.766 350.993C241.725 350.826 241.664 350.62 241.585 350.374C241.511 350.123 241.416 349.882 241.3 349.65C241.189 349.414 241.054 349.21 240.897 349.038C240.744 348.867 240.567 348.774 240.368 348.76ZM241.648 344.704L240.312 346.04L238.984 344.704L240.312 343.376L241.648 344.704Z" fill="black"/>
</svg>
