<svg width="400" height="400" viewBox="0 0 400 400" fill="none" xmlns="http://www.w3.org/2000/svg">
<rect width="400" height="400" fill="white"/>
<path d="M161.666 43.0104C161.875 42.9641 162.088 42.9362 162.306 42.927C162.366 42.9223 162.427 42.92 162.487 42.92C162.64 42.92 162.807 42.9316 162.988 42.9548C163.173 42.978 163.368 43.022 163.572 43.087C163.781 43.1519 163.98 43.2354 164.17 43.3374L163.537 45.007C163.296 44.9003 163.046 44.8284 162.786 44.7913C162.675 44.7774 162.566 44.7704 162.459 44.7704C162.306 44.7704 162.153 44.7843 162 44.8122C161.842 44.8261 161.673 44.8725 161.492 44.9513C161.311 45.0301 161.13 45.1322 160.949 45.2574C160.773 45.378 160.602 45.5194 160.435 45.6817C160.272 45.8394 160.129 46.0087 160.003 46.1896C159.878 46.3658 159.776 46.549 159.697 46.7391C159.623 46.9246 159.586 47.1055 159.586 47.2817C159.586 47.4812 159.632 47.6388 159.725 47.7548C159.822 47.8661 159.95 47.9588 160.108 48.033C160.27 48.1026 160.455 48.1606 160.664 48.207C160.873 48.2487 161.091 48.2997 161.318 48.36C161.596 48.4249 161.877 48.4991 162.16 48.5826C162.443 48.6661 162.698 48.782 162.925 48.9304C163.152 49.0742 163.333 49.2643 163.468 49.5009C163.584 49.7096 163.642 49.967 163.642 50.273C163.642 50.3148 163.639 50.3588 163.635 50.4052C163.607 50.8922 163.495 51.3212 163.301 51.6922C163.106 52.0678 162.853 52.3925 162.542 52.6661C162.232 52.9397 161.877 53.167 161.478 53.3478C161.079 53.5333 160.662 53.6817 160.226 53.793C159.79 53.9043 159.349 53.9832 158.904 54.0296C158.459 54.0759 158.035 54.0991 157.631 54.0991C156.815 54.0991 156.068 53.9901 155.391 53.7722C154.719 53.5542 154.151 53.2296 153.687 52.7983C153.223 52.3716 152.887 51.8383 152.678 51.1983C152.539 50.7809 152.469 50.3194 152.469 49.8139C152.469 49.5449 152.488 49.2667 152.525 48.9791C152.562 48.673 152.613 48.3623 152.678 48.047C152.743 47.7316 152.813 47.4278 152.887 47.1357C152.961 46.8388 153.038 46.5583 153.116 46.2939C153.195 46.0296 153.267 45.7977 153.332 45.5983C153.397 45.3988 153.453 45.2365 153.499 45.1113C153.545 44.9861 153.573 44.9142 153.582 44.8957L155.113 45.5148C155.002 45.8626 154.9 46.1896 154.807 46.4957C154.714 46.7971 154.631 47.0939 154.556 47.3861C154.482 47.6783 154.415 47.9728 154.355 48.2696C154.299 48.5617 154.25 48.8725 154.209 49.2017C154.19 49.3548 154.181 49.5032 154.181 49.647C154.181 49.9762 154.243 50.3032 154.369 50.6278C154.498 50.9571 154.719 51.247 155.029 51.4974C155.345 51.7525 155.725 51.9426 156.17 52.0678C156.615 52.193 157.102 52.2557 157.631 52.2557C158.248 52.2557 158.821 52.207 159.349 52.1096C159.883 52.0168 160.344 51.8916 160.734 51.7339C161.128 51.5762 161.441 51.3977 161.673 51.1983C161.909 51.0035 162.042 50.8017 162.069 50.593C162.065 50.5513 162.021 50.5119 161.937 50.4748C161.854 50.4377 161.749 50.4006 161.624 50.3635C161.499 50.331 161.36 50.2962 161.207 50.2591C161.058 50.2267 160.915 50.1919 160.775 50.1548C160.386 50.0574 160.024 49.9461 159.69 49.8209C159.356 49.7003 159.067 49.5403 158.821 49.3409C158.575 49.1414 158.382 48.8887 158.243 48.5826C158.104 48.2765 158.035 47.8916 158.035 47.4278C158.058 46.9177 158.164 46.4214 158.355 45.9391C158.545 45.4568 158.8 45.0186 159.12 44.6243C159.444 44.2255 159.822 43.8846 160.254 43.6017C160.685 43.3188 161.156 43.1217 161.666 43.0104ZM170.949 49.2087H170.734C170.613 49.2087 170.46 49.1948 170.275 49.167C170.094 49.1391 169.894 49.0557 169.676 48.9165C169.616 49.5009 169.437 50.0597 169.141 50.593C168.844 51.131 168.47 51.6342 168.021 52.1026C167.575 52.571 167.072 53 166.511 53.3896C165.955 53.7791 165.382 54.12 164.793 54.4122L164.014 52.8052C164.338 52.6383 164.665 52.4574 164.995 52.2626C165.319 52.0678 165.63 51.8591 165.927 51.6365C166.224 51.4139 166.499 51.182 166.755 50.9409C167.014 50.6997 167.237 50.447 167.422 50.1826C167.613 49.9183 167.761 49.647 167.868 49.3687C167.979 49.0904 168.035 48.8052 168.035 48.513C168.035 48.3043 168.004 48.0748 167.944 47.8243C167.884 47.5693 167.807 47.3049 167.715 47.0313C167.622 46.7577 167.522 46.4817 167.415 46.2035C167.309 45.9206 167.211 45.647 167.123 45.3826L168.793 44.687C168.974 45.2296 169.138 45.6794 169.287 46.0365C169.44 46.389 169.588 46.6696 169.732 46.8783C169.88 47.0823 170.033 47.2261 170.191 47.3096C170.353 47.3884 170.537 47.4278 170.741 47.4278H170.956L170.949 49.2087ZM170.673 47.4278H172.155C172.373 47.4278 172.607 47.4162 172.858 47.393C173.113 47.3652 173.347 47.3119 173.56 47.233C173.778 47.1496 173.957 47.0313 174.096 46.8783C174.24 46.7252 174.312 46.5212 174.312 46.2661C174.312 46.1455 174.286 45.9762 174.235 45.7583C174.184 45.5403 174.117 45.2991 174.033 45.0348C173.95 44.7704 173.85 44.4968 173.734 44.2139C173.623 43.931 173.505 43.6667 173.379 43.4209L174.986 42.6278C175.102 42.8922 175.218 43.1728 175.334 43.4696C175.45 43.7664 175.552 44.0725 175.64 44.3878C175.733 44.6986 175.807 45.0116 175.863 45.327C175.919 45.6423 175.946 45.9507 175.946 46.2522C175.946 46.7901 175.847 47.247 175.647 47.6226C175.448 47.9983 175.174 48.3043 174.826 48.5409C174.483 48.7728 174.08 48.942 173.616 49.0487C173.157 49.1554 172.665 49.2087 172.141 49.2087H170.673V47.4278ZM173.261 51.2678L172.079 52.4504L170.882 51.2609L172.065 50.0713L173.261 51.2678ZM175.891 51.2748L174.708 52.4643L173.512 51.2678L174.694 50.0852L175.891 51.2748ZM181.555 44.5826C181.648 44.8748 181.743 45.1809 181.841 45.5009C181.943 45.8162 182.033 46.1362 182.112 46.4609C182.195 46.7855 182.263 47.1101 182.314 47.4348C182.365 47.7548 182.39 48.0678 182.39 48.3739C182.39 48.7913 182.325 49.1971 182.195 49.5913C182.07 49.9901 181.894 50.3728 181.667 50.7391C181.444 51.1101 181.177 51.4626 180.867 51.7965C180.561 52.1304 180.227 52.4458 179.865 52.7426C179.503 53.0394 179.121 53.3154 178.717 53.5704C178.314 53.8255 177.905 54.0551 177.493 54.2591L176.7 52.6661C177.029 52.5038 177.354 52.3229 177.674 52.1235C177.994 51.9287 178.297 51.72 178.585 51.4974C178.877 51.2748 179.146 51.0406 179.392 50.7948C179.642 50.549 179.856 50.2939 180.032 50.0296C180.213 49.7652 180.354 49.4939 180.456 49.2157C180.558 48.9374 180.609 48.6568 180.609 48.3739C180.609 48.1096 180.579 47.8313 180.519 47.5391C180.459 47.247 180.384 46.9594 180.296 46.6765C180.213 46.389 180.125 46.113 180.032 45.8487C179.944 45.5843 179.87 45.3501 179.809 45.1461L181.555 44.5826ZM181.771 41.6191L180.435 42.9548L179.107 41.6191L180.435 40.2904L181.771 41.6191ZM186.432 44.687C186.311 44.687 186.181 44.738 186.042 44.84C185.903 44.942 185.775 45.0742 185.659 45.2365C185.543 45.3942 185.446 45.5704 185.367 45.7652C185.293 45.96 185.256 46.1501 185.256 46.3357C185.256 46.5304 185.3 46.6928 185.388 46.8226C185.481 46.9478 185.597 47.0499 185.736 47.1287C185.88 47.2075 186.04 47.2678 186.216 47.3096C186.397 47.3467 186.575 47.3745 186.752 47.393C186.849 47.3977 186.956 47.4023 187.072 47.407C187.188 47.4116 187.306 47.4162 187.426 47.4209C187.552 47.4209 187.675 47.4232 187.795 47.4278C187.916 47.4278 188.029 47.4278 188.136 47.4278C188.122 47.2562 188.087 47.0707 188.032 46.8713C187.981 46.6672 187.913 46.4632 187.83 46.2591C187.746 46.0551 187.651 45.8603 187.545 45.6748C187.438 45.4846 187.322 45.3177 187.197 45.1739C187.076 45.0255 186.951 44.9072 186.821 44.8191C186.691 44.731 186.561 44.687 186.432 44.687ZM183.273 52.3391C183.955 52.2046 184.57 52.0238 185.117 51.7965C185.669 51.5739 186.146 51.3235 186.55 51.0452C186.953 50.767 187.28 50.4701 187.531 50.1548C187.786 49.8394 187.955 49.5241 188.039 49.2087C187.663 49.2087 187.297 49.1971 186.939 49.1739C186.582 49.1507 186.244 49.1043 185.924 49.0348C185.608 48.9699 185.316 48.8771 185.047 48.7565C184.783 48.6313 184.553 48.469 184.359 48.2696C184.168 48.0655 184.02 47.8197 183.913 47.5322C183.807 47.2446 183.753 46.9014 183.753 46.5026C183.753 46.2475 183.781 45.9809 183.837 45.7026C183.892 45.4243 183.971 45.153 184.073 44.8887C184.18 44.6197 184.31 44.367 184.463 44.1304C184.616 43.8893 184.792 43.6783 184.992 43.4974C185.191 43.3119 185.411 43.1658 185.652 43.0591C185.894 42.9525 186.153 42.8991 186.432 42.8991C187.15 42.8991 187.807 43.2191 188.4 43.8591C188.614 44.0957 188.804 44.3646 188.971 44.6661C189.142 44.9629 189.286 45.2829 189.402 45.6261C189.523 45.9646 189.613 46.3194 189.673 46.6904C189.738 47.0614 189.771 47.4371 189.771 47.8174C189.771 48.411 189.694 48.9652 189.541 49.48C189.393 49.9994 189.182 50.4771 188.908 50.913C188.639 51.349 188.317 51.7409 187.941 52.0887C187.566 52.4412 187.153 52.7496 186.703 53.0139C186.253 53.2783 185.773 53.4986 185.263 53.6748C184.753 53.8557 184.229 53.9901 183.691 54.0783L183.273 52.3391ZM194.112 48.2348C193.867 48.2348 193.619 48.2186 193.368 48.1861C193.122 48.1536 192.886 48.1003 192.659 48.0261C192.431 47.9519 192.218 47.8591 192.019 47.7478C191.824 47.6319 191.652 47.4928 191.504 47.3304C191.36 47.1681 191.246 46.9803 191.163 46.767C191.079 46.5536 191.038 46.3125 191.038 46.0435C191.038 45.7559 191.089 45.4823 191.191 45.2226C191.293 44.9629 191.43 44.7194 191.601 44.4922C191.773 44.2649 191.972 44.0539 192.199 43.8591C192.427 43.6643 192.666 43.4881 192.916 43.3304C193.166 43.1681 193.419 43.0243 193.674 42.8991C193.934 42.7693 194.18 42.658 194.412 42.5652L194.321 41.5078L196.081 41.1322C196.086 41.1739 196.095 41.2667 196.109 41.4104C196.123 41.5496 196.139 41.7165 196.158 41.9113C196.181 42.1061 196.204 42.3148 196.227 42.5374C196.25 42.7554 196.271 42.9617 196.29 43.1565C196.313 43.3467 196.332 43.5136 196.346 43.6574C196.359 43.7965 196.369 43.8823 196.373 43.9148C196.443 44.5084 196.506 44.993 196.561 45.3687C196.621 45.7443 196.672 46.0435 196.714 46.2661C196.756 46.4841 196.791 46.6394 196.819 46.7322C196.851 46.8203 196.874 46.8783 196.888 46.9061C196.935 47.0081 196.988 47.0939 197.048 47.1635C197.108 47.2284 197.178 47.2817 197.257 47.3235C197.336 47.3606 197.428 47.3884 197.535 47.407C197.642 47.4209 197.767 47.4278 197.911 47.4278H198.05V49.2087H197.911C197.665 49.2041 197.433 49.1948 197.215 49.1809C197.002 49.1716 196.795 49.1322 196.596 49.0626C196.401 48.9977 196.216 48.8933 196.039 48.7496C195.863 48.6058 195.696 48.3971 195.539 48.1235C195.274 48.1606 195.026 48.1884 194.794 48.207C194.562 48.2255 194.335 48.2348 194.112 48.2348ZM194.919 46.4052C194.896 46.28 194.873 46.1316 194.85 45.96C194.827 45.7884 194.803 45.6029 194.78 45.4035C194.757 45.1994 194.732 44.9884 194.704 44.7704C194.681 44.5525 194.655 44.3345 194.627 44.1165C194.507 44.1675 194.372 44.2325 194.224 44.3113C194.075 44.3901 193.922 44.4783 193.765 44.5757C193.607 44.673 193.452 44.7797 193.299 44.8957C193.15 45.007 193.018 45.1229 192.902 45.2435C192.786 45.3594 192.691 45.4777 192.617 45.5983C192.547 45.7188 192.512 45.8348 192.512 45.9461C192.512 46.0481 192.563 46.1339 192.666 46.2035C192.768 46.2684 192.895 46.3217 193.048 46.3635C193.206 46.4006 193.375 46.4284 193.556 46.447C193.737 46.4609 193.908 46.4678 194.071 46.4678C194.219 46.4678 194.368 46.4632 194.516 46.4539C194.664 46.44 194.799 46.4238 194.919 46.4052ZM201.252 46.4887C201.405 46.5536 201.602 46.6348 201.844 46.7322C202.085 46.8296 202.345 46.927 202.623 47.0243C202.901 47.1217 203.182 47.2099 203.465 47.2887C203.752 47.3629 204.014 47.4093 204.251 47.4278C204.204 47.233 204.156 47.0313 204.105 46.8226C204.058 46.6093 204.005 46.4029 203.945 46.2035C203.884 46.0041 203.817 45.8162 203.743 45.64C203.669 45.4591 203.58 45.3014 203.478 45.167C203.381 45.0325 203.267 44.9258 203.138 44.847C203.008 44.7681 202.862 44.7287 202.699 44.7287C202.514 44.7287 202.347 44.789 202.198 44.9096C202.055 45.0301 201.922 45.1809 201.802 45.3617C201.686 45.538 201.582 45.7281 201.489 45.9322C201.401 46.1362 201.322 46.3217 201.252 46.4887ZM203.896 49.1878C203.655 49.1832 203.372 49.1484 203.047 49.0835C202.722 49.0232 202.391 48.942 202.052 48.84C201.718 48.738 201.396 48.622 201.085 48.4922C200.779 48.3623 200.52 48.2255 200.306 48.0817C200.125 48.2626 199.949 48.4226 199.778 48.5617C199.606 48.7009 199.427 48.8191 199.242 48.9165C199.056 49.0093 198.855 49.0812 198.637 49.1322C198.423 49.1832 198.18 49.2087 197.906 49.2087H197.767V47.4278H197.906C198.245 47.4278 198.528 47.3652 198.755 47.24C198.982 47.1101 199.177 46.9432 199.339 46.7391C199.502 46.5351 199.643 46.3055 199.764 46.0504C199.889 45.7954 200.016 45.5403 200.146 45.2852C200.276 45.0162 200.425 44.7472 200.591 44.4783C200.758 44.2093 200.946 43.9681 201.155 43.7548C201.368 43.5368 201.607 43.3606 201.871 43.2261C202.136 43.0916 202.433 43.0243 202.762 43.0243C203.193 43.0243 203.555 43.1009 203.847 43.2539C204.144 43.4023 204.39 43.6087 204.585 43.873C204.784 44.1328 204.942 44.4388 205.058 44.7913C205.173 45.1438 205.271 45.5241 205.35 45.9322C205.396 46.1687 205.44 46.3797 205.482 46.5652C205.524 46.7461 205.57 46.9014 205.621 47.0313C205.677 47.1612 205.735 47.2609 205.795 47.3304C205.86 47.3954 205.936 47.4278 206.025 47.4278H206.24V49.2087H205.976C205.721 49.2041 205.493 49.1345 205.294 49C205.099 48.8609 204.918 48.6777 204.751 48.4504C204.7 48.4968 204.64 48.5594 204.571 48.6383C204.506 48.7171 204.434 48.7959 204.355 48.8748C204.281 48.949 204.204 49.0162 204.125 49.0765C204.047 49.1368 203.97 49.1739 203.896 49.1878ZM212.16 47.4278V49.2087H212.021C211.571 49.2087 211.191 49.1368 210.88 48.993C210.569 48.8493 210.305 48.6638 210.087 48.4365C209.934 48.6313 209.707 48.782 209.405 48.8887C209.108 48.9907 208.777 49.0649 208.41 49.1113C208.044 49.1623 207.666 49.1901 207.276 49.1948C206.891 49.2041 206.537 49.2087 206.212 49.2087H205.955V47.4278H206.212C206.755 47.4278 207.211 47.3977 207.582 47.3374C207.953 47.2725 208.253 47.1797 208.48 47.0591C208.712 46.9386 208.879 46.7878 208.981 46.607C209.083 46.4214 209.134 46.2081 209.134 45.967C209.134 45.8093 209.104 45.6006 209.043 45.3409C208.983 45.0765 208.893 44.738 208.772 44.3252L210.483 43.8452C210.544 44.0493 210.59 44.2301 210.622 44.3878C210.66 44.5409 210.687 44.6962 210.706 44.8539C210.729 45.007 210.748 45.1739 210.762 45.3548C210.78 45.531 210.799 45.742 210.817 45.9878C210.831 46.1362 210.866 46.2962 210.922 46.4678C210.977 46.6348 211.054 46.7901 211.151 46.9339C211.253 47.073 211.376 47.1913 211.52 47.2887C211.664 47.3814 211.831 47.4278 212.021 47.4278H212.16ZM208.542 51.2678L207.36 52.4504L206.163 51.2609L207.346 50.0713L208.542 51.2678ZM211.172 51.2748L209.989 52.4643L208.793 51.2678L209.975 50.0852L211.172 51.2748ZM211.876 47.4278H212.996C213.214 47.4278 213.437 47.4162 213.664 47.393C213.896 47.3652 214.105 47.3119 214.29 47.233C214.476 47.1496 214.627 47.0313 214.743 46.8783C214.863 46.7252 214.923 46.5212 214.923 46.2661C214.923 46.1455 214.898 45.9762 214.847 45.7583C214.796 45.5403 214.729 45.2991 214.645 45.0348C214.562 44.7704 214.462 44.4968 214.346 44.2139C214.235 43.931 214.116 43.6667 213.991 43.4209L215.598 42.6278C215.714 42.8922 215.83 43.1728 215.946 43.4696C216.062 43.7664 216.164 44.0725 216.252 44.3878C216.345 44.6986 216.419 45.0116 216.475 45.327C216.53 45.6423 216.558 45.9507 216.558 46.2522C216.558 46.7716 216.47 47.2191 216.294 47.5948C216.118 47.9658 215.872 48.2719 215.556 48.513C215.241 48.7496 214.863 48.9235 214.423 49.0348C213.987 49.1507 213.507 49.2087 212.983 49.2087H211.876V47.4278ZM215.431 40.2696L214.096 41.6052L212.767 40.2696L214.096 38.9409L215.431 40.2696ZM226.579 52.8748C226.848 52.9212 227.12 52.9443 227.393 52.9443C227.463 52.9443 227.6 52.9397 227.804 52.9304C228.008 52.9212 228.27 52.8794 228.59 52.8052C228.91 52.731 229.216 52.6313 229.508 52.5061C229.805 52.3809 230.076 52.2371 230.322 52.0748L231.261 53.633C230.992 53.7954 230.714 53.9438 230.426 54.0783C230.143 54.2174 229.849 54.3357 229.543 54.433C229.241 54.5304 228.928 54.6046 228.604 54.6557C228.321 54.702 228.031 54.7252 227.734 54.7252C227.688 54.7252 227.639 54.7252 227.588 54.7252C227.152 54.7159 226.716 54.6696 226.28 54.5861C225.849 54.5026 225.436 54.382 225.042 54.2243C224.652 54.0667 224.288 53.8696 223.95 53.633C223.616 53.4012 223.324 53.1299 223.073 52.8191C222.827 52.513 222.633 52.1675 222.489 51.7826C222.345 51.4023 222.271 50.9803 222.266 50.5165C222.28 50.0203 222.373 49.5565 222.545 49.1252C222.716 48.6986 222.943 48.309 223.226 47.9565C223.514 47.5994 223.843 47.2817 224.214 47.0035C224.59 46.7252 224.986 46.4864 225.404 46.287C225.255 46.1478 225.102 46.011 224.945 45.8765C224.791 45.7374 224.643 45.6075 224.499 45.487C224.356 45.3617 224.221 45.2481 224.096 45.1461C223.971 45.0394 223.866 44.949 223.783 44.8748L223.651 43.3861C224.258 42.8574 224.912 42.4609 225.612 42.1965C226.317 41.9275 227.052 41.793 227.818 41.793C228.045 41.793 228.279 41.8093 228.52 41.8417C228.766 41.8742 229.005 41.9252 229.237 41.9948C229.469 42.0643 229.687 42.1548 229.891 42.2661C230.095 42.3774 230.273 42.5142 230.426 42.6765C230.579 42.8342 230.7 43.0174 230.788 43.2261C230.867 43.4301 230.906 43.6574 230.906 43.9078C230.906 43.9217 230.906 43.9357 230.906 43.9496C230.888 44.302 230.818 44.6174 230.698 44.8957C230.582 45.1739 230.429 45.4243 230.238 45.647C230.048 45.8696 229.828 46.069 229.578 46.2452C229.332 46.4214 229.07 46.5838 228.791 46.7322C229.167 46.9409 229.566 47.1101 229.988 47.24C230.415 47.3652 230.83 47.4278 231.233 47.4278H231.47V49.2087H231.233C230.848 49.2087 230.475 49.1693 230.113 49.0904C229.751 49.0116 229.394 48.9003 229.042 48.7565C228.689 48.6081 228.339 48.4342 227.991 48.2348C227.644 48.0307 227.294 47.8058 226.941 47.56C226.603 47.6945 226.259 47.8522 225.911 48.033C225.564 48.2093 225.246 48.418 224.958 48.6591C224.676 48.8957 224.444 49.1646 224.263 49.4661C224.082 49.7675 223.991 50.1084 223.991 50.4887C223.991 50.702 224.033 50.9061 224.117 51.1009C224.205 51.2957 224.318 51.4765 224.458 51.6435C224.597 51.8151 224.757 51.9704 224.938 52.1096C225.118 52.2533 225.304 52.3762 225.494 52.4783C225.689 52.5849 225.879 52.6707 226.065 52.7357C226.255 52.8052 226.426 52.8516 226.579 52.8748ZM227.825 43.4904C227.639 43.4904 227.444 43.5043 227.24 43.5322C227.036 43.5554 226.834 43.5901 226.635 43.6365C226.436 43.6783 226.243 43.7316 226.058 43.7965C225.877 43.8568 225.717 43.9241 225.578 43.9983C225.675 44.1003 225.784 44.2186 225.905 44.353C226.025 44.4829 226.153 44.6197 226.287 44.7635C226.426 44.9072 226.568 45.051 226.711 45.1948C226.855 45.3339 226.997 45.4638 227.136 45.5843C227.442 45.4545 227.727 45.3223 227.991 45.1878C228.256 45.0533 228.485 44.9165 228.68 44.7774C228.88 44.6336 229.037 44.4852 229.153 44.3322C229.269 44.1791 229.329 44.0214 229.334 43.8591C229.329 43.8406 229.299 43.8128 229.244 43.7757C229.188 43.7386 229.098 43.7014 228.972 43.6643C228.852 43.6226 228.696 43.5855 228.506 43.553C228.321 43.5206 228.094 43.4997 227.825 43.4904ZM231.189 47.4278H232.246L232.295 47.3374C232.374 47.1983 232.485 47.0151 232.629 46.7878C232.777 46.5559 232.963 46.2939 233.186 46.0017C233.227 45.7096 233.262 45.3409 233.29 44.8957C233.318 44.4504 233.334 43.9681 233.339 43.4487C233.339 43.1658 233.334 42.8759 233.325 42.5791C233.315 42.2777 233.297 41.9322 233.269 41.5426C233.241 41.153 233.202 40.6986 233.151 40.1791C233.104 39.6551 233.044 39.0313 232.97 38.3078L234.799 37.8348C234.92 38.7252 235.01 39.6388 235.071 40.5757C235.136 41.5125 235.168 42.44 235.168 43.3583V43.9217C235.419 43.7084 235.678 43.5043 235.947 43.3096C236.221 43.1148 236.504 42.9432 236.796 42.7948C237.093 42.6464 237.401 42.5281 237.721 42.44C238.041 42.3519 238.375 42.3078 238.723 42.3078C239.075 42.3078 239.409 42.3635 239.725 42.4748C240.04 42.5861 240.318 42.7484 240.559 42.9617C240.805 43.1704 241.007 43.4255 241.165 43.727C241.322 44.0284 241.42 44.367 241.457 44.7426C241.461 44.8122 241.464 44.8794 241.464 44.9443C241.464 45.4267 241.383 45.8765 241.22 46.2939C241.063 46.7113 240.828 47.0893 240.518 47.4278H242.479V49.2087H240.629C240.263 49.2087 239.855 49.1925 239.405 49.16C238.955 49.1275 238.456 49.0417 237.909 48.9026C237.515 49.0093 237.114 49.0858 236.706 49.1322C236.302 49.1832 235.896 49.2087 235.488 49.2087H231.189V47.4278ZM234.841 47.4278C235.124 47.4278 235.449 47.4209 235.815 47.407C236.186 47.393 236.566 47.3606 236.956 47.3096C237.346 47.2586 237.723 47.182 238.09 47.08C238.461 46.978 238.79 46.8412 239.078 46.6696C239.365 46.498 239.592 46.2823 239.759 46.0226C239.903 45.8 239.975 45.5357 239.975 45.2296C239.975 45.1878 239.973 45.1438 239.968 45.0974C239.959 44.9583 239.912 44.8284 239.829 44.7078C239.75 44.5872 239.639 44.4852 239.495 44.4017C239.356 44.3136 239.189 44.2441 238.994 44.193C238.827 44.1559 238.646 44.1374 238.452 44.1374C238.415 44.1374 238.375 44.1374 238.333 44.1374C238.101 44.1467 237.826 44.207 237.506 44.3183C237.186 44.4249 236.842 44.6058 236.476 44.8609C236.11 45.1159 235.729 45.4522 235.335 45.8696C234.941 46.287 234.556 46.8064 234.18 47.4278H234.841ZM242.372 47.4278C242.859 47.4278 243.327 47.4139 243.777 47.3861C244.227 47.3536 244.637 47.3096 245.008 47.2539C245.379 47.1983 245.699 47.131 245.968 47.0522C246.237 46.9733 246.439 46.8852 246.573 46.7878H245.864C245.456 46.7878 245.066 46.7368 244.695 46.6348C244.329 46.5281 244.006 46.3704 243.728 46.1617C243.45 45.953 243.227 45.6933 243.06 45.3826C242.898 45.0672 242.817 44.7009 242.817 44.2835C242.817 44.0377 242.842 43.7849 242.893 43.5252C242.944 43.2655 243.021 43.0128 243.123 42.767C243.225 42.5212 243.348 42.2893 243.492 42.0713C243.635 41.8533 243.8 41.6632 243.985 41.5009C244.171 41.3339 244.375 41.2041 244.598 41.1113C244.82 41.0139 245.061 40.9652 245.321 40.9652C245.641 40.9652 245.94 41.0325 246.219 41.167C246.497 41.3014 246.75 41.4846 246.977 41.7165C247.204 41.9438 247.406 42.2081 247.582 42.5096C247.758 42.811 247.907 43.1287 248.027 43.4626C248.148 43.7965 248.238 44.1374 248.299 44.4852C248.363 44.8284 248.396 45.1554 248.396 45.4661C248.396 45.9948 248.322 46.4539 248.173 46.8435C248.03 47.233 247.825 47.567 247.561 47.8452C247.301 48.1235 246.988 48.3507 246.622 48.527C246.26 48.7032 245.859 48.8423 245.419 48.9443C244.978 49.0464 244.505 49.1159 243.999 49.153C243.499 49.1901 242.979 49.2087 242.441 49.2087H242.205V47.4278H242.372ZM245.321 42.76C245.298 42.7554 245.275 42.753 245.252 42.753C245.159 42.753 245.052 42.7901 244.932 42.8643C244.811 42.9386 244.695 43.0452 244.584 43.1843C244.472 43.3235 244.382 43.4812 244.312 43.6574C244.243 43.829 244.208 43.9983 244.208 44.1652C244.208 44.1745 244.208 44.1838 244.208 44.193C244.208 44.36 244.245 44.4968 244.319 44.6035C244.394 44.7055 244.493 44.7843 244.619 44.84C244.748 44.8957 244.897 44.9351 245.064 44.9583C245.235 44.9814 245.416 44.9977 245.606 45.007C245.732 45.0116 245.861 45.0139 245.996 45.0139C246.061 45.0139 246.161 45.0139 246.295 45.0139C246.434 45.0093 246.576 45.0023 246.719 44.993C246.678 44.8261 246.617 44.6197 246.539 44.3739C246.464 44.1235 246.369 43.8823 246.253 43.6504C246.142 43.4139 246.008 43.2099 245.85 43.0383C245.697 42.8667 245.521 42.7739 245.321 42.76ZM245.154 38.8713L243.972 40.0539L242.775 38.8643L243.958 37.6748L245.154 38.8713ZM247.784 38.8783L246.601 40.0678L245.405 38.8713L246.587 37.6887L247.784 38.8783Z" fill="black"/>
<path d="M43.7864 219.172L231.876 103.544L363.87 191.54L176.005 317.718L43.7864 229.572L43.7864 219.172Z" fill="#E7E7E7" stroke="black"/>
<path d="M364.111 180.697L364.114 191.376L176.531 317.364L175.797 306.869L363.755 180.519L364.111 180.697Z" fill="#A3A3A3" stroke="black"/>
<rect x="0.000955552" y="0.556128" width="158.615" height="226.305" transform="matrix(0.83205 0.5547 -0.830139 0.557556 232.355 92.2455)" fill="#E7E7E7" stroke="black"/>
<path d="M176.006 306.718L167.798 301.247L355.663 175.069L363.87 180.54L176.006 306.718Z" fill="#A3A3A3" stroke="black"/>
<path d="M115.962 154.139C115.962 152.782 115.941 151.45 115.901 150.141C115.86 148.825 115.771 147.598 115.632 146.46C115.493 145.321 115.293 144.303 115.033 143.405C114.778 142.504 114.434 141.787 113.999 141.256L115.441 139.189C115.915 139.784 116.309 140.575 116.622 141.563C116.94 142.541 117.183 143.738 117.351 145.157C117.42 145.765 117.475 146.403 117.516 147.071C117.562 147.736 117.597 148.409 117.62 149.089C117.649 149.758 117.666 150.425 117.672 151.089C117.684 151.749 117.689 152.382 117.689 152.987L115.962 154.139ZM119.579 150.987C119.608 150.856 119.663 150.631 119.744 150.313C119.825 149.995 119.938 149.596 120.082 149.117C120.227 148.638 120.406 148.087 120.621 147.464C120.835 146.834 121.089 146.146 121.385 145.4C121.68 144.661 121.995 143.929 122.331 143.204C122.667 142.479 123.008 141.803 123.355 141.175C122.921 141.395 122.522 141.536 122.157 141.598C121.798 141.649 121.486 141.618 121.22 141.503C120.953 141.388 120.745 141.179 120.595 140.876C120.45 140.562 120.377 140.148 120.377 139.633C120.377 139.195 120.432 138.748 120.542 138.292C120.652 137.836 120.803 137.384 120.994 136.937C121.191 136.479 121.419 136.034 121.68 135.603C121.946 135.168 122.23 134.764 122.531 134.389C122.832 134.007 123.144 133.663 123.468 133.357C123.792 133.043 124.117 132.779 124.441 132.563C125.292 131.995 126.131 131.728 126.959 131.76L126.082 134.14C125.786 134.114 125.5 134.149 125.222 134.243C124.95 134.334 124.69 134.463 124.441 134.629C124.157 134.818 123.874 135.066 123.59 135.373C123.312 135.67 123.063 135.992 122.843 136.341C122.623 136.689 122.444 137.052 122.305 137.43C122.166 137.801 122.097 138.157 122.097 138.498C122.097 138.762 122.149 138.953 122.253 139.072C122.363 139.186 122.502 139.247 122.67 139.253C122.837 139.259 123.02 139.225 123.217 139.149C123.419 139.07 123.613 138.968 123.798 138.845L123.911 138.77C124.143 138.615 124.389 138.434 124.649 138.225C124.91 138.01 125.173 137.782 125.439 137.542C125.705 137.302 125.954 137.067 126.186 136.836C126.417 136.605 126.617 136.402 126.785 136.228C126.947 136.057 127.08 135.916 127.184 135.805C127.294 135.69 127.381 135.601 127.445 135.537L127.948 137.174L127.323 137.841C126.785 138.415 126.284 139.038 125.821 139.708C125.364 140.368 124.941 141.05 124.554 141.753C124.172 142.446 123.824 143.144 123.512 143.846C123.199 144.549 122.918 145.223 122.67 145.869C122.426 146.511 122.215 147.114 122.036 147.679C121.856 148.237 121.706 148.727 121.584 149.149C121.469 149.56 121.379 149.891 121.315 150.142C121.257 150.382 121.225 150.508 121.22 150.519L119.579 150.987ZM130.223 147.762L129.207 147.594C129.815 146.166 130.133 144.9 130.162 143.795V141.834L131.924 140.659V142.359C131.924 143.146 131.762 144.04 131.438 145.042C131.12 146.047 130.715 146.954 130.223 147.762ZM140.863 137.59C140.44 137.872 140.052 138.009 139.699 138.001C139.352 137.982 139.057 137.82 138.814 137.516L138.787 137.492C138.539 138.11 138.226 138.677 137.85 139.192C137.479 139.703 137.068 140.109 136.617 140.41C136.113 140.746 135.688 140.918 135.341 140.927C134.999 140.932 134.721 140.825 134.507 140.606C134.293 140.38 134.134 140.066 134.03 139.662C133.925 139.259 133.862 138.814 133.839 138.329C133.827 138.128 133.821 137.926 133.821 137.725C133.821 137.439 133.836 137.096 133.865 136.694C133.899 136.281 133.951 135.857 134.021 135.421C134.125 134.788 134.258 134.129 134.42 133.443C134.588 132.754 134.791 132.017 135.028 131.233C135.271 130.438 135.555 129.581 135.879 128.662C136.209 127.74 136.585 126.734 137.008 125.646L136.686 125.474L137.902 123.202C138.486 123.453 139.06 123.725 139.621 124.018C140.188 124.301 140.718 124.65 141.21 125.067C142.344 126.049 143.166 127.338 143.676 128.932C143.843 129.488 143.927 130.128 143.927 130.851C143.927 131.429 143.864 132.038 143.736 132.68C143.609 133.321 143.418 133.949 143.163 134.564C142.914 135.168 142.596 135.739 142.208 136.276C141.826 136.802 141.381 137.238 140.871 137.585L140.863 137.59ZM139.586 132.556C139.586 132.744 139.592 132.963 139.604 133.212C139.615 133.462 139.635 133.716 139.664 133.975C139.699 134.223 139.745 134.464 139.803 134.696C139.867 134.925 139.945 135.12 140.038 135.281C140.136 135.431 140.252 135.535 140.385 135.592C140.524 135.646 140.686 135.625 140.871 135.529C141.143 135.327 141.366 135.077 141.54 134.781C141.713 134.484 141.849 134.174 141.948 133.851C142.046 133.521 142.113 133.195 142.148 132.873C142.188 132.54 142.208 132.244 142.208 131.987C142.208 131.751 142.194 131.517 142.165 131.286C142.136 131.054 142.09 130.842 142.026 130.648C141.818 130.015 141.566 129.459 141.271 128.981C140.975 128.503 140.66 128.087 140.324 127.734C139.989 127.373 139.644 127.07 139.291 126.826C138.938 126.581 138.599 126.379 138.275 126.22C137.911 127.172 137.589 128.047 137.311 128.845C137.034 129.642 136.791 130.385 136.582 131.073C136.374 131.762 136.197 132.408 136.053 133.013C135.914 133.606 135.798 134.177 135.705 134.726C135.671 134.923 135.636 135.169 135.601 135.463C135.566 135.758 135.543 136.065 135.532 136.386C135.526 136.494 135.523 136.6 135.523 136.705C135.523 136.914 135.532 137.144 135.549 137.397C135.572 137.646 135.621 137.874 135.697 138.081C135.778 138.285 135.89 138.418 136.035 138.482C136.186 138.541 136.38 138.492 136.617 138.334C136.825 138.188 137.005 137.992 137.155 137.745C137.306 137.499 137.433 137.23 137.537 136.938C137.647 136.635 137.737 136.321 137.806 135.996C137.882 135.661 137.942 135.339 137.989 135.03C138.035 134.721 138.073 134.431 138.102 134.161C138.136 133.881 138.165 133.649 138.188 133.467L139.586 132.556Z" fill="black"/>
<path d="M301.283 123.327C301.283 121.971 301.263 120.611 301.222 119.248C301.182 117.879 301.092 116.532 300.953 115.208C300.814 113.884 300.615 112.6 300.354 111.355C300.099 110.114 299.755 108.938 299.321 107.828L300.762 107.683C301.237 108.91 301.63 110.227 301.943 111.631C302.261 113.033 302.504 114.555 302.672 116.198C302.742 116.898 302.797 117.609 302.837 118.332C302.884 119.059 302.918 119.777 302.941 120.488C302.97 121.196 302.988 121.886 302.994 122.558C303.005 123.233 303.011 123.874 303.011 124.479L301.283 123.327ZM312.541 115.305C312.541 115.319 312.549 115.394 312.567 115.531C312.584 115.661 312.601 115.833 312.619 116.046C312.636 116.252 312.651 116.485 312.662 116.743C312.668 116.921 312.671 117.1 312.671 117.281V117.552C312.648 119.144 312.332 120.165 311.724 120.615V120.605C311.134 121.067 310.332 120.96 309.319 120.285C309.042 120.1 308.79 119.911 308.564 119.719C308.344 119.523 308.124 119.3 307.904 119.049L307.974 119.669C308.043 120.37 308.098 121.081 308.139 121.804C308.185 122.523 308.22 123.239 308.243 123.95C308.272 124.658 308.289 125.351 308.295 126.03C308.306 126.705 308.312 127.346 308.312 127.951L306.584 126.799C306.584 125.693 306.576 124.588 306.558 123.484C306.541 122.373 306.495 121.278 306.42 120.198C306.344 119.112 306.231 118.049 306.081 117.009C305.936 115.967 305.734 114.962 305.473 113.995C305.352 113.539 305.221 113.094 305.082 112.66C304.944 112.227 304.787 111.771 304.614 111.294L306.064 111.154C306.156 111.397 306.24 111.637 306.315 111.875C306.396 112.11 306.475 112.353 306.55 112.605C306.631 112.854 306.712 113.117 306.793 113.393C306.874 113.67 306.964 113.97 307.062 114.293C307.195 114.75 307.325 115.171 307.453 115.555C307.586 115.936 307.736 116.29 307.904 116.618C308.078 116.949 308.275 117.247 308.495 117.512C308.72 117.774 308.995 118.013 309.319 118.229C309.8 118.549 310.162 118.613 310.405 118.42C310.515 118.341 310.604 118.223 310.674 118.068C310.743 117.905 310.798 117.723 310.839 117.52C310.885 117.322 310.917 117.106 310.934 116.874C310.952 116.643 310.96 116.412 310.96 116.182C310.96 115.883 310.946 115.585 310.917 115.287C310.894 114.993 310.868 114.747 310.839 114.546L312.541 115.305Z" fill="black"/>
<path d="M184.11 189.513C183.351 189.008 182.752 188.415 182.311 187.735C181.877 187.058 181.67 186.299 181.692 185.455L185.472 185.019C185.496 185.383 185.557 185.71 185.656 186C185.76 186.286 185.888 186.541 186.039 186.765C186.189 186.989 186.355 187.184 186.534 187.35C186.719 187.52 186.908 187.669 187.099 187.796C187.255 187.9 187.431 188.006 187.628 188.114C187.831 188.219 188.042 188.313 188.262 188.398C188.487 188.486 188.713 188.559 188.938 188.617C189.164 188.675 189.387 188.707 189.606 188.715C189.918 188.211 190.229 187.681 190.54 187.123C190.863 186.565 191.183 186.006 191.5 185.444C191.823 184.879 192.143 184.319 192.46 183.765C192.777 183.212 193.088 182.685 193.394 182.185L196.986 183.166L192.947 189.713C192.797 189.953 192.67 190.166 192.566 190.352C192.463 190.538 192.405 190.712 192.394 190.874C192.388 191.041 192.435 191.199 192.534 191.35C192.644 191.501 192.829 191.663 193.089 191.836L193.341 192.004L190.604 193.843L190.352 193.675C189.999 193.44 189.71 193.216 189.484 193.003C189.264 192.795 189.09 192.59 188.962 192.389C188.835 192.196 188.745 192.004 188.692 191.815C188.652 191.625 188.631 191.434 188.631 191.241C188.186 191.183 187.769 191.107 187.382 191.011C186.988 190.918 186.609 190.801 186.245 190.659C185.88 190.516 185.525 190.348 185.177 190.156C184.83 189.97 184.474 189.756 184.11 189.513ZM192.997 191.775L193.561 192.151C193.821 192.324 194.082 192.444 194.342 192.509C194.614 192.575 194.883 192.595 195.149 192.572C195.426 192.548 195.695 192.484 195.955 192.379C196.221 192.278 196.478 192.144 196.726 191.977C197.072 191.752 197.488 191.477 197.973 191.151C198.464 190.821 198.987 190.466 199.541 190.086C200.101 189.702 200.676 189.305 201.265 188.894C201.86 188.479 202.434 188.073 202.989 187.678C203.549 187.278 204.077 186.9 204.574 186.543C205.076 186.183 205.512 185.867 205.882 185.595L209.145 187.098L198.854 194.138C198.496 194.378 198.303 194.628 198.275 194.888C198.258 195.147 198.429 195.396 198.788 195.635L198.979 195.763L196.241 197.601L196.05 197.474C195.807 197.319 195.587 197.146 195.39 196.953C195.199 196.763 195.04 196.568 194.912 196.367C194.779 196.17 194.686 195.977 194.634 195.787C194.581 195.598 194.575 195.428 194.616 195.277C194.344 195.297 194.069 195.291 193.792 195.261C193.514 195.23 193.222 195.163 192.915 195.059C192.609 194.963 192.282 194.826 191.935 194.649C191.588 194.472 191.211 194.248 190.806 193.978L190.259 193.613L192.997 191.775ZM198.632 195.532L200.464 196.753C201.402 197.378 202.316 197.914 203.208 198.362C204.11 198.809 204.998 199.196 205.872 199.523C206.746 199.851 207.61 200.134 208.466 200.372C209.334 200.61 210.199 200.835 211.061 201.047C210.777 200.71 210.516 200.355 210.278 199.98C210.046 199.609 209.806 199.24 209.557 198.873C209.313 198.51 209.047 198.162 208.757 197.83C208.473 197.494 208.137 197.196 207.749 196.938C207.483 196.76 207.148 196.633 206.743 196.557C206.344 196.484 205.948 196.44 205.554 196.425C205.161 196.41 204.806 196.417 204.488 196.444C204.176 196.468 203.97 196.49 203.872 196.509L203.157 194.305C203.764 194.192 204.403 194.112 205.073 194.064C205.744 194.017 206.4 194.017 207.042 194.067C207.695 194.116 208.317 194.221 208.907 194.382C209.503 194.548 210.032 194.785 210.495 195.094C210.837 195.321 211.141 195.574 211.407 195.852C211.679 196.126 211.926 196.414 212.146 196.716C212.372 197.021 212.575 197.334 212.755 197.655C212.94 197.972 213.12 198.288 213.294 198.605C213.456 198.907 213.622 199.21 213.79 199.516C213.964 199.817 214.155 200.119 214.364 200.42C214.578 200.717 214.824 201.009 215.102 201.295C215.38 201.581 215.713 201.857 216.101 202.123L213.225 203.764L211.403 203.338C210.657 203.165 209.905 203 209.147 202.843C208.395 202.682 207.64 202.511 206.883 202.33C206.131 202.146 205.37 201.944 204.601 201.725C203.837 201.502 203.074 201.244 202.31 200.951C201.552 200.655 200.791 200.314 200.027 199.928C199.258 199.546 198.491 199.101 197.727 198.592L195.895 197.37L198.632 195.532ZM198.328 205.322L198.324 202.746L202.174 202.739L202.179 205.315L198.328 205.322Z" fill="black"/>
<path d="M217.377 85.1019C217.54 84.7983 217.54 84.4818 217.377 84.3948L214.73 82.9779C214.567 82.8909 214.304 83.0665 214.142 83.3701C213.979 83.6737 213.979 83.9903 214.142 84.0772L216.495 85.3367L214.142 89.7341C213.979 90.0376 213.979 90.3542 214.142 90.4412C214.304 90.5281 214.567 90.3525 214.73 90.0489L217.377 85.1019ZM163 121.5L217.083 85.4445V84.4445L163 120.5V121.5Z" fill="black"/>
<path d="M364.889 164.613C365.051 164.526 365.051 164.209 364.889 163.906L362.241 158.959C362.079 158.655 361.816 158.48 361.653 158.567C361.491 158.653 361.491 158.97 361.653 159.274L364.006 163.671L361.653 164.93C361.491 165.017 361.491 165.334 361.653 165.638C361.816 165.941 362.079 166.117 362.241 166.03L364.889 164.613ZM318 133.5L364.595 164.563V163.563L318 132.5V133.5Z" fill="black"/>
<path d="M242.706 84.4503C242.543 84.5373 242.543 84.8539 242.706 85.1574L245.353 90.1045C245.516 90.408 245.779 90.5836 245.942 90.4967C246.104 90.4097 246.104 90.0932 245.942 89.7896L243.588 85.3922L245.942 84.1327C246.104 84.0458 246.104 83.7292 245.942 83.4256C245.779 83.1221 245.516 82.9464 245.353 83.0334L242.706 84.4503ZM243 85.5L289.595 116.563V115.563L243 84.5V85.5Z" fill="black"/>
<path d="M42.7058 199.898C42.5434 200.202 42.5434 200.518 42.7058 200.605L45.3534 202.022C45.5159 202.109 45.7793 201.933 45.9417 201.63C46.1042 201.326 46.1042 201.01 45.9417 200.923L43.5883 199.663L45.9417 195.266C46.1042 194.962 46.1042 194.646 45.9417 194.559C45.7793 194.472 45.5159 194.648 45.3534 194.951L42.7058 199.898ZM43 200.556L97.0833 164.5V163.5L43 199.556V200.556Z" fill="black"/>
<path d="M165.619 349.01C165.828 348.964 166.041 348.936 166.259 348.927C166.319 348.922 166.38 348.92 166.44 348.92C166.593 348.92 166.76 348.932 166.941 348.955C167.126 348.978 167.321 349.022 167.525 349.087C167.734 349.152 167.933 349.235 168.123 349.337L167.49 351.007C167.249 350.9 166.999 350.828 166.739 350.791C166.628 350.777 166.519 350.77 166.412 350.77C166.259 350.77 166.106 350.784 165.953 350.812C165.795 350.826 165.626 350.872 165.445 350.951C165.264 351.03 165.083 351.132 164.903 351.257C164.726 351.378 164.555 351.519 164.388 351.682C164.225 351.839 164.082 352.009 163.956 352.19C163.831 352.366 163.729 352.549 163.65 352.739C163.576 352.925 163.539 353.106 163.539 353.282C163.539 353.481 163.585 353.639 163.678 353.755C163.776 353.866 163.903 353.959 164.061 354.033C164.223 354.103 164.409 354.161 164.617 354.207C164.826 354.249 165.044 354.3 165.271 354.36C165.549 354.425 165.83 354.499 166.113 354.583C166.396 354.666 166.651 354.782 166.878 354.93C167.105 355.074 167.286 355.264 167.421 355.501C167.537 355.71 167.595 355.967 167.595 356.273C167.595 356.315 167.592 356.359 167.588 356.405C167.56 356.892 167.449 357.321 167.254 357.692C167.059 358.068 166.806 358.392 166.496 358.666C166.185 358.94 165.83 359.167 165.431 359.348C165.032 359.533 164.615 359.682 164.179 359.793C163.743 359.904 163.303 359.983 162.857 360.03C162.412 360.076 161.988 360.099 161.584 360.099C160.768 360.099 160.021 359.99 159.344 359.772C158.672 359.554 158.104 359.23 157.64 358.798C157.176 358.372 156.84 357.838 156.631 357.198C156.492 356.781 156.423 356.319 156.423 355.814C156.423 355.545 156.441 355.267 156.478 354.979C156.515 354.673 156.566 354.362 156.631 354.047C156.696 353.732 156.766 353.428 156.84 353.136C156.914 352.839 156.991 352.558 157.069 352.294C157.148 352.03 157.22 351.798 157.285 351.598C157.35 351.399 157.406 351.237 157.452 351.111C157.498 350.986 157.526 350.914 157.536 350.896L159.066 351.515C158.955 351.863 158.853 352.19 158.76 352.496C158.667 352.797 158.584 353.094 158.509 353.386C158.435 353.678 158.368 353.973 158.308 354.27C158.252 354.562 158.203 354.872 158.162 355.202C158.143 355.355 158.134 355.503 158.134 355.647C158.134 355.976 158.196 356.303 158.322 356.628C158.452 356.957 158.672 357.247 158.983 357.497C159.298 357.752 159.678 357.943 160.123 358.068C160.569 358.193 161.056 358.256 161.584 358.256C162.201 358.256 162.774 358.207 163.303 358.11C163.836 358.017 164.297 357.892 164.687 357.734C165.081 357.576 165.394 357.398 165.626 357.198C165.863 357.003 165.995 356.802 166.023 356.593C166.018 356.551 165.974 356.512 165.89 356.475C165.807 356.438 165.703 356.401 165.577 356.363C165.452 356.331 165.313 356.296 165.16 356.259C165.012 356.227 164.868 356.192 164.729 356.155C164.339 356.057 163.977 355.946 163.643 355.821C163.309 355.7 163.02 355.54 162.774 355.341C162.528 355.141 162.336 354.889 162.196 354.583C162.057 354.277 161.988 353.892 161.988 353.428C162.011 352.918 162.118 352.421 162.308 351.939C162.498 351.457 162.753 351.019 163.073 350.624C163.398 350.226 163.776 349.885 164.207 349.602C164.638 349.319 165.109 349.122 165.619 349.01ZM169.58 352.475C169.756 352.586 169.967 352.7 170.213 352.816C170.464 352.932 170.721 353.036 170.985 353.129C171.254 353.221 171.516 353.298 171.771 353.358C172.031 353.419 172.258 353.449 172.453 353.449C172.532 353.449 172.629 353.446 172.745 353.442C172.861 353.437 172.984 353.428 173.114 353.414C173.244 353.395 173.374 353.37 173.504 353.337C173.634 353.3 173.749 353.252 173.851 353.191C173.958 353.126 174.044 353.048 174.109 352.955C174.174 352.857 174.209 352.739 174.213 352.6C174.213 352.591 174.213 352.584 174.213 352.579C174.213 352.394 174.16 352.185 174.053 351.953C173.951 351.717 173.81 351.471 173.629 351.216C173.448 350.956 173.239 350.696 173.003 350.437C172.766 350.177 172.52 349.929 172.265 349.692C172.01 349.451 171.753 349.231 171.493 349.031C171.238 348.827 170.999 348.656 170.777 348.517L171.813 346.979C172.24 347.271 172.66 347.601 173.072 347.967C173.49 348.333 173.872 348.725 174.22 349.143C174.573 349.555 174.876 349.987 175.131 350.437C175.391 350.886 175.577 351.341 175.688 351.8C175.748 352.064 175.778 352.317 175.778 352.558C175.778 352.79 175.734 353.068 175.646 353.393C175.563 353.718 175.37 354.038 175.069 354.353C174.767 354.664 174.385 354.903 173.921 355.07C173.522 355.213 173.084 355.285 172.606 355.285C172.527 355.285 172.446 355.283 172.363 355.278C172.057 355.278 171.746 355.248 171.431 355.188C171.115 355.132 170.805 355.053 170.498 354.951C170.197 354.849 169.905 354.733 169.622 354.603C169.344 354.469 169.084 354.328 168.843 354.179L169.58 352.475ZM176.68 358.339C177.361 358.205 177.976 358.024 178.523 357.797C179.075 357.574 179.553 357.323 179.956 357.045C180.36 356.767 180.687 356.47 180.937 356.155C181.192 355.839 181.361 355.524 181.445 355.209C181.069 355.209 180.703 355.197 180.346 355.174C179.989 355.151 179.65 355.104 179.33 355.035C179.015 354.97 178.722 354.877 178.454 354.757C178.189 354.631 177.96 354.469 177.765 354.27C177.575 354.066 177.426 353.82 177.32 353.532C177.213 353.245 177.16 352.901 177.16 352.503C177.16 352.248 177.187 351.981 177.243 351.703C177.299 351.424 177.378 351.153 177.48 350.889C177.586 350.62 177.716 350.367 177.869 350.13C178.022 349.889 178.198 349.678 178.398 349.497C178.597 349.312 178.818 349.166 179.059 349.059C179.3 348.952 179.56 348.899 179.838 348.899C180.557 348.899 181.213 349.219 181.807 349.859C182.001 350.077 182.178 350.321 182.335 350.59C182.493 350.859 182.63 351.146 182.746 351.452C182.862 351.758 182.954 352.078 183.024 352.412C183.098 352.741 183.145 353.08 183.163 353.428H183.629V355.209H183.017C182.859 355.895 182.593 356.512 182.217 357.059C181.841 357.611 181.389 358.091 180.86 358.499C180.336 358.907 179.752 359.243 179.107 359.508C178.463 359.772 177.793 359.962 177.097 360.078L176.68 358.339ZM179.838 350.687C179.717 350.687 179.587 350.738 179.448 350.84C179.309 350.942 179.182 351.074 179.066 351.237C178.95 351.394 178.852 351.57 178.774 351.765C178.699 351.96 178.662 352.15 178.662 352.336C178.662 352.53 178.706 352.693 178.794 352.823C178.887 352.952 179.003 353.057 179.142 353.136C179.286 353.214 179.446 353.275 179.622 353.317C179.803 353.354 179.982 353.379 180.158 353.393C180.255 353.402 180.362 353.409 180.478 353.414C180.594 353.414 180.712 353.416 180.833 353.421C180.958 353.426 181.081 353.428 181.201 353.428C181.322 353.428 181.436 353.428 181.542 353.428C181.528 353.256 181.494 353.071 181.438 352.871C181.387 352.667 181.32 352.463 181.236 352.259C181.153 352.055 181.058 351.86 180.951 351.675C180.844 351.485 180.728 351.318 180.603 351.174C180.482 351.026 180.357 350.907 180.227 350.819C180.098 350.731 179.968 350.687 179.838 350.687ZM186.83 352.489C186.984 352.554 187.181 352.635 187.422 352.732C187.663 352.83 187.923 352.927 188.201 353.024C188.479 353.122 188.76 353.21 189.043 353.289C189.33 353.363 189.592 353.409 189.829 353.428C189.782 353.233 189.734 353.031 189.683 352.823C189.636 352.609 189.583 352.403 189.523 352.203C189.462 352.004 189.395 351.816 189.321 351.64C189.247 351.459 189.159 351.301 189.057 351.167C188.959 351.032 188.846 350.926 188.716 350.847C188.586 350.768 188.44 350.729 188.277 350.729C188.092 350.729 187.925 350.789 187.777 350.91C187.633 351.03 187.501 351.181 187.38 351.362C187.264 351.538 187.16 351.728 187.067 351.932C186.979 352.136 186.9 352.322 186.83 352.489ZM189.474 355.188C189.233 355.183 188.95 355.148 188.625 355.083C188.301 355.023 187.969 354.942 187.63 354.84C187.297 354.738 186.974 354.622 186.664 354.492C186.357 354.362 186.098 354.226 185.884 354.082C185.704 354.263 185.527 354.423 185.356 354.562C185.184 354.701 185.006 354.819 184.82 354.917C184.635 355.009 184.433 355.081 184.215 355.132C184.001 355.183 183.758 355.209 183.484 355.209H183.345V353.428H183.484C183.823 353.428 184.106 353.365 184.333 353.24C184.56 353.11 184.755 352.943 184.917 352.739C185.08 352.535 185.221 352.306 185.342 352.05C185.467 351.795 185.595 351.54 185.724 351.285C185.854 351.016 186.003 350.747 186.17 350.478C186.337 350.209 186.524 349.968 186.733 349.755C186.946 349.537 187.185 349.361 187.45 349.226C187.714 349.092 188.011 349.024 188.34 349.024C188.771 349.024 189.133 349.101 189.425 349.254C189.722 349.402 189.968 349.609 190.163 349.873C190.362 350.133 190.52 350.439 190.636 350.791C190.752 351.144 190.849 351.524 190.928 351.932C190.974 352.169 191.018 352.38 191.06 352.565C191.102 352.746 191.148 352.901 191.199 353.031C191.255 353.161 191.313 353.261 191.373 353.33C191.438 353.395 191.515 353.428 191.603 353.428H191.818V355.209H191.554C191.299 355.204 191.072 355.134 190.872 355C190.677 354.861 190.497 354.678 190.33 354.45C190.279 354.497 190.218 354.559 190.149 354.638C190.084 354.717 190.012 354.796 189.933 354.875C189.859 354.949 189.782 355.016 189.704 355.077C189.625 355.137 189.548 355.174 189.474 355.188ZM197.766 351.125C197.599 350.93 197.404 350.754 197.181 350.597C196.996 350.462 196.78 350.341 196.534 350.235C196.289 350.123 196.02 350.068 195.728 350.068C195.491 350.068 195.282 350.105 195.101 350.179C194.921 350.249 194.768 350.346 194.642 350.471C194.517 350.592 194.42 350.733 194.35 350.896C194.281 351.058 194.239 351.232 194.225 351.417C194.22 351.45 194.218 351.482 194.218 351.515C194.218 351.733 194.276 351.946 194.392 352.155C194.508 352.359 194.67 352.542 194.879 352.704C195.088 352.862 195.329 352.983 195.602 353.066C195.825 353.136 196.05 353.17 196.277 353.17C196.328 353.17 196.379 353.168 196.43 353.163C196.699 353.145 196.968 353.117 197.237 353.08C197.511 353.038 197.759 352.999 197.981 352.962L198.726 352.816L198.941 354.548C198.654 354.622 198.332 354.699 197.974 354.777C197.617 354.856 197.207 354.928 196.743 354.993C196.284 355.053 195.762 355.104 195.178 355.146C194.594 355.188 193.93 355.209 193.188 355.209H191.533V353.428H191.839L193.168 353.421C192.917 353.129 192.745 352.83 192.653 352.523C192.565 352.213 192.521 351.872 192.521 351.501C192.521 351.065 192.602 350.652 192.764 350.263C192.926 349.873 193.149 349.532 193.432 349.24C193.719 348.948 194.058 348.716 194.448 348.544C194.842 348.373 195.268 348.287 195.728 348.287C195.955 348.287 196.173 348.308 196.381 348.35C196.595 348.391 196.797 348.447 196.987 348.517C197.177 348.586 197.355 348.665 197.522 348.753C197.694 348.841 197.849 348.929 197.988 349.017C198.151 349.124 198.308 349.238 198.461 349.358C198.614 349.479 198.758 349.606 198.893 349.741L197.766 351.125ZM210.211 359.744C209.414 359.744 208.676 359.645 207.999 359.445C207.322 359.25 206.745 358.954 206.267 358.555C205.789 358.161 205.43 357.664 205.189 357.066C204.994 356.598 204.897 356.067 204.897 355.473C204.897 355.315 204.904 355.153 204.918 354.986C204.945 354.666 204.982 354.339 205.029 354.005C205.08 353.671 205.147 353.321 205.231 352.955C205.319 352.584 205.43 352.192 205.564 351.779C205.699 351.366 205.866 350.921 206.065 350.443L207.498 351.104C207.308 351.577 207.151 352.016 207.025 352.419C206.9 352.818 206.8 353.189 206.726 353.532C206.657 353.875 206.608 354.198 206.58 354.499C206.552 354.801 206.538 355.09 206.538 355.369C206.538 355.703 206.58 356.002 206.664 356.266C206.752 356.53 206.863 356.767 206.997 356.976C207.178 357.221 207.406 357.409 207.679 357.539C207.953 357.674 208.24 357.771 208.542 357.831C208.848 357.892 209.147 357.926 209.439 357.936C209.736 357.95 209.993 357.957 210.211 357.957C210.341 357.957 210.529 357.947 210.775 357.929C211.025 357.91 211.297 357.878 211.589 357.831C211.886 357.785 212.189 357.725 212.5 357.65C212.811 357.576 213.091 357.483 213.342 357.372C213.597 357.261 213.803 357.131 213.961 356.983C214.123 356.834 214.204 356.66 214.204 356.461C214.204 356.428 214.163 356.377 214.079 356.308C214 356.243 213.889 356.169 213.745 356.085C213.606 356.002 213.442 355.914 213.251 355.821C213.061 355.733 212.857 355.647 212.639 355.563C212.319 355.457 212.002 355.378 211.686 355.327C211.371 355.276 211.058 355.223 210.747 355.167L210.984 353.428H216.507V355.209H215.206C215.392 355.436 215.515 355.659 215.575 355.877C215.64 356.099 215.675 356.294 215.679 356.461C215.661 356.869 215.556 357.233 215.366 357.553C215.176 357.878 214.93 358.161 214.629 358.402C214.332 358.648 213.993 358.854 213.613 359.021C213.233 359.192 212.843 359.332 212.444 359.438C212.046 359.545 211.651 359.621 211.262 359.668C210.877 359.719 210.527 359.744 210.211 359.744ZM216.514 353.428C216.769 353.428 216.996 353.372 217.196 353.261C217.4 353.15 217.578 353.001 217.732 352.816C217.889 352.63 218.026 352.419 218.142 352.183C218.263 351.946 218.367 351.703 218.455 351.452C218.543 351.202 218.62 350.956 218.685 350.715C218.749 350.469 218.807 350.249 218.858 350.054L220.598 350.437C220.556 350.566 220.5 350.733 220.431 350.937C220.361 351.137 220.294 351.35 220.229 351.577C220.169 351.8 220.118 352.025 220.076 352.252C220.043 352.424 220.027 352.584 220.027 352.732C220.027 352.779 220.032 352.86 220.041 352.976C220.05 353.092 220.097 353.208 220.18 353.323C220.268 353.435 220.41 353.49 220.605 353.49C220.813 353.49 221.001 353.432 221.168 353.317C221.335 353.196 221.483 353.041 221.613 352.85C221.748 352.656 221.864 352.435 221.961 352.19C222.063 351.944 222.149 351.693 222.218 351.438C222.293 351.179 222.353 350.926 222.399 350.68C222.45 350.434 222.49 350.214 222.518 350.019L224.145 350.332C224.132 350.443 224.111 350.576 224.083 350.729C224.06 350.882 224.034 351.049 224.006 351.23C223.978 351.406 223.951 351.591 223.923 351.786C223.9 351.981 223.881 352.176 223.867 352.37C223.867 352.408 223.867 352.445 223.867 352.482C223.867 352.593 223.879 352.709 223.902 352.83C223.925 352.946 223.974 353.057 224.048 353.163C224.122 353.266 224.22 353.349 224.34 353.414C224.461 353.474 224.609 353.507 224.785 353.511C225.115 353.511 225.384 353.428 225.592 353.261C225.801 353.094 225.905 352.839 225.905 352.496C225.905 352.245 225.871 351.974 225.801 351.682C225.736 351.39 225.655 351.104 225.558 350.826C225.465 350.548 225.365 350.286 225.258 350.04C225.152 349.794 225.059 349.59 224.98 349.428L226.476 348.593C226.504 348.644 226.548 348.737 226.608 348.871C226.673 349.006 226.745 349.173 226.824 349.372C226.907 349.567 226.991 349.787 227.074 350.033C227.158 350.279 227.234 350.539 227.304 350.812C227.378 351.081 227.436 351.357 227.478 351.64C227.524 351.923 227.547 352.201 227.547 352.475C227.547 352.906 227.48 353.296 227.345 353.643C227.216 353.991 227.021 354.288 226.761 354.534C226.506 354.78 226.191 354.968 225.815 355.097C225.453 355.227 225.038 355.292 224.57 355.292C224.556 355.292 224.54 355.292 224.521 355.292C224.503 355.292 224.486 355.292 224.472 355.292C224.254 355.292 224.055 355.262 223.874 355.202C223.693 355.146 223.526 355.067 223.373 354.965C223.225 354.859 223.09 354.738 222.97 354.603C222.854 354.469 222.749 354.332 222.657 354.193C222.55 354.346 222.434 354.49 222.309 354.624C222.184 354.754 222.038 354.868 221.871 354.965C221.708 355.063 221.523 355.139 221.314 355.195C221.11 355.255 220.874 355.288 220.605 355.292C220.591 355.292 220.574 355.292 220.556 355.292C220.347 355.292 220.152 355.264 219.972 355.209C219.795 355.153 219.631 355.077 219.478 354.979C219.329 354.877 219.192 354.759 219.067 354.624C218.947 354.49 218.835 354.348 218.733 354.2C218.645 354.33 218.538 354.455 218.413 354.576C218.293 354.696 218.142 354.805 217.961 354.903C217.785 354.995 217.576 355.07 217.335 355.125C217.094 355.181 216.811 355.209 216.486 355.209H216.236V353.428H216.514ZM231.774 350.583C231.867 350.875 231.962 351.181 232.059 351.501C232.161 351.816 232.252 352.136 232.331 352.461C232.414 352.786 232.481 353.11 232.532 353.435C232.583 353.755 232.609 354.068 232.609 354.374C232.609 354.791 232.544 355.197 232.414 355.591C232.289 355.99 232.113 356.373 231.885 356.739C231.663 357.11 231.396 357.463 231.085 357.797C230.779 358.13 230.445 358.446 230.084 358.743C229.722 359.039 229.339 359.315 228.936 359.57C228.532 359.826 228.124 360.055 227.711 360.259L226.918 358.666C227.248 358.504 227.572 358.323 227.892 358.123C228.212 357.929 228.516 357.72 228.804 357.497C229.096 357.275 229.365 357.041 229.611 356.795C229.861 356.549 230.074 356.294 230.251 356.03C230.431 355.765 230.573 355.494 230.675 355.216C230.777 354.937 230.828 354.657 230.828 354.374C230.828 354.11 230.798 353.831 230.738 353.539C230.677 353.247 230.603 352.959 230.515 352.677C230.431 352.389 230.343 352.113 230.251 351.849C230.162 351.584 230.088 351.35 230.028 351.146L231.774 350.583ZM237.527 355.209H237.249C236.307 355.209 235.593 354.972 235.106 354.499C234.619 354.026 234.373 353.312 234.369 352.357C234.369 352.208 234.373 351.965 234.383 351.626C234.392 351.283 234.396 350.866 234.396 350.374C234.396 350.082 234.394 349.769 234.389 349.435C234.385 349.096 234.378 348.753 234.369 348.405C234.359 348.053 234.345 347.703 234.327 347.355C234.313 347.002 234.294 346.664 234.271 346.339C234.248 346.01 234.22 345.704 234.188 345.421C234.155 345.133 234.118 344.881 234.076 344.663L235.823 344.141C235.874 344.41 235.92 344.739 235.962 345.129C236.003 345.514 236.04 345.926 236.073 346.367C236.105 346.808 236.129 347.257 236.143 347.717C236.161 348.171 236.17 348.6 236.17 349.003C236.17 349.249 236.173 349.511 236.177 349.79C236.182 350.063 236.184 350.304 236.184 350.513C236.184 350.689 236.182 350.856 236.177 351.014C236.177 351.167 236.175 351.315 236.17 351.459C236.17 351.603 236.168 351.744 236.163 351.883C236.163 352.023 236.163 352.164 236.163 352.308C236.163 352.345 236.163 352.382 236.163 352.419C236.163 352.586 236.18 352.734 236.212 352.864C236.249 352.994 236.312 353.103 236.4 353.191C236.488 353.275 236.599 353.335 236.734 353.372C236.873 353.409 237.033 353.428 237.214 353.428H237.527V355.209ZM237.418 353.428C237.905 353.428 238.374 353.414 238.824 353.386C239.274 353.354 239.684 353.31 240.055 353.254C240.426 353.198 240.746 353.131 241.015 353.052C241.284 352.973 241.486 352.885 241.62 352.788H240.911C240.503 352.788 240.113 352.737 239.742 352.635C239.376 352.528 239.053 352.37 238.775 352.162C238.497 351.953 238.274 351.693 238.107 351.383C237.945 351.067 237.864 350.701 237.864 350.283C237.864 350.038 237.889 349.785 237.94 349.525C237.991 349.266 238.068 349.013 238.17 348.767C238.272 348.521 238.395 348.289 238.538 348.071C238.682 347.853 238.847 347.663 239.032 347.501C239.218 347.334 239.422 347.204 239.645 347.111C239.867 347.014 240.108 346.965 240.368 346.965C240.688 346.965 240.987 347.032 241.265 347.167C241.544 347.301 241.796 347.485 242.024 347.717C242.251 347.944 242.453 348.208 242.629 348.51C242.805 348.811 242.954 349.129 243.074 349.463C243.195 349.797 243.285 350.137 243.345 350.485C243.41 350.828 243.443 351.155 243.443 351.466C243.443 351.995 243.369 352.454 243.22 352.843C243.076 353.233 242.872 353.567 242.608 353.845C242.348 354.123 242.035 354.351 241.669 354.527C241.307 354.703 240.906 354.842 240.465 354.944C240.025 355.046 239.552 355.116 239.046 355.153C238.545 355.19 238.026 355.209 237.488 355.209H237.251V353.428H237.418ZM240.368 348.76C240.345 348.755 240.322 348.753 240.298 348.753C240.206 348.753 240.099 348.79 239.978 348.864C239.858 348.939 239.742 349.045 239.631 349.184C239.519 349.323 239.429 349.481 239.359 349.657C239.29 349.829 239.255 349.998 239.255 350.165C239.255 350.174 239.255 350.184 239.255 350.193C239.255 350.36 239.292 350.497 239.366 350.603C239.44 350.706 239.54 350.784 239.665 350.84C239.795 350.896 239.944 350.935 240.111 350.958C240.282 350.981 240.463 350.998 240.653 351.007C240.778 351.012 240.908 351.014 241.043 351.014C241.108 351.014 241.207 351.014 241.342 351.014C241.481 351.009 241.623 351.002 241.766 350.993C241.725 350.826 241.664 350.62 241.585 350.374C241.511 350.123 241.416 349.882 241.3 349.65C241.189 349.414 241.054 349.21 240.897 349.038C240.744 348.867 240.567 348.774 240.368 348.76ZM241.648 344.704L240.312 346.04L238.984 344.704L240.312 343.376L241.648 344.704Z" fill="black"/>
</svg>
