<svg width="400" height="400" viewBox="0 0 400 400" fill="none" xmlns="http://www.w3.org/2000/svg">
<rect width="400" height="400" fill="white"/>
<path d="M161.666 43.0104C161.875 42.9641 162.088 42.9362 162.306 42.927C162.366 42.9223 162.427 42.92 162.487 42.92C162.64 42.92 162.807 42.9316 162.988 42.9548C163.173 42.978 163.368 43.022 163.572 43.087C163.781 43.1519 163.98 43.2354 164.17 43.3374L163.537 45.007C163.296 44.9003 163.046 44.8284 162.786 44.7913C162.675 44.7774 162.566 44.7704 162.459 44.7704C162.306 44.7704 162.153 44.7843 162 44.8122C161.842 44.8261 161.673 44.8725 161.492 44.9513C161.311 45.0301 161.13 45.1322 160.949 45.2574C160.773 45.378 160.602 45.5194 160.435 45.6817C160.272 45.8394 160.129 46.0087 160.003 46.1896C159.878 46.3658 159.776 46.549 159.697 46.7391C159.623 46.9246 159.586 47.1055 159.586 47.2817C159.586 47.4812 159.632 47.6388 159.725 47.7548C159.822 47.8661 159.95 47.9588 160.108 48.033C160.27 48.1026 160.455 48.1606 160.664 48.207C160.873 48.2487 161.091 48.2997 161.318 48.36C161.596 48.4249 161.877 48.4991 162.16 48.5826C162.443 48.6661 162.698 48.782 162.925 48.9304C163.152 49.0742 163.333 49.2643 163.468 49.5009C163.584 49.7096 163.642 49.967 163.642 50.273C163.642 50.3148 163.639 50.3588 163.635 50.4052C163.607 50.8922 163.495 51.3212 163.301 51.6922C163.106 52.0678 162.853 52.3925 162.542 52.6661C162.232 52.9397 161.877 53.167 161.478 53.3478C161.079 53.5333 160.662 53.6817 160.226 53.793C159.79 53.9043 159.349 53.9832 158.904 54.0296C158.459 54.0759 158.035 54.0991 157.631 54.0991C156.815 54.0991 156.068 53.9901 155.391 53.7722C154.719 53.5542 154.151 53.2296 153.687 52.7983C153.223 52.3716 152.887 51.8383 152.678 51.1983C152.539 50.7809 152.469 50.3194 152.469 49.8139C152.469 49.5449 152.488 49.2667 152.525 48.9791C152.562 48.673 152.613 48.3623 152.678 48.047C152.743 47.7316 152.813 47.4278 152.887 47.1357C152.961 46.8388 153.038 46.5583 153.116 46.2939C153.195 46.0296 153.267 45.7977 153.332 45.5983C153.397 45.3988 153.453 45.2365 153.499 45.1113C153.545 44.9861 153.573 44.9142 153.582 44.8957L155.113 45.5148C155.002 45.8626 154.9 46.1896 154.807 46.4957C154.714 46.7971 154.631 47.0939 154.556 47.3861C154.482 47.6783 154.415 47.9728 154.355 48.2696C154.299 48.5617 154.25 48.8725 154.209 49.2017C154.19 49.3548 154.181 49.5032 154.181 49.647C154.181 49.9762 154.243 50.3032 154.369 50.6278C154.498 50.9571 154.719 51.247 155.029 51.4974C155.345 51.7525 155.725 51.9426 156.17 52.0678C156.615 52.193 157.102 52.2557 157.631 52.2557C158.248 52.2557 158.821 52.207 159.349 52.1096C159.883 52.0168 160.344 51.8916 160.734 51.7339C161.128 51.5762 161.441 51.3977 161.673 51.1983C161.909 51.0035 162.042 50.8017 162.069 50.593C162.065 50.5513 162.021 50.5119 161.937 50.4748C161.854 50.4377 161.749 50.4006 161.624 50.3635C161.499 50.331 161.36 50.2962 161.207 50.2591C161.058 50.2267 160.915 50.1919 160.775 50.1548C160.386 50.0574 160.024 49.9461 159.69 49.8209C159.356 49.7003 159.067 49.5403 158.821 49.3409C158.575 49.1414 158.382 48.8887 158.243 48.5826C158.104 48.2765 158.035 47.8916 158.035 47.4278C158.058 46.9177 158.164 46.4214 158.355 45.9391C158.545 45.4568 158.8 45.0186 159.12 44.6243C159.444 44.2255 159.822 43.8846 160.254 43.6017C160.685 43.3188 161.156 43.1217 161.666 43.0104ZM170.949 49.2087H170.734C170.613 49.2087 170.46 49.1948 170.275 49.167C170.094 49.1391 169.894 49.0557 169.676 48.9165C169.616 49.5009 169.437 50.0597 169.141 50.593C168.844 51.131 168.47 51.6342 168.021 52.1026C167.575 52.571 167.072 53 166.511 53.3896C165.955 53.7791 165.382 54.12 164.793 54.4122L164.014 52.8052C164.338 52.6383 164.665 52.4574 164.995 52.2626C165.319 52.0678 165.63 51.8591 165.927 51.6365C166.224 51.4139 166.499 51.182 166.755 50.9409C167.014 50.6997 167.237 50.447 167.422 50.1826C167.613 49.9183 167.761 49.647 167.868 49.3687C167.979 49.0904 168.035 48.8052 168.035 48.513C168.035 48.3043 168.004 48.0748 167.944 47.8243C167.884 47.5693 167.807 47.3049 167.715 47.0313C167.622 46.7577 167.522 46.4817 167.415 46.2035C167.309 45.9206 167.211 45.647 167.123 45.3826L168.793 44.687C168.974 45.2296 169.138 45.6794 169.287 46.0365C169.44 46.389 169.588 46.6696 169.732 46.8783C169.88 47.0823 170.033 47.2261 170.191 47.3096C170.353 47.3884 170.537 47.4278 170.741 47.4278H170.956L170.949 49.2087ZM170.673 47.4278H172.155C172.373 47.4278 172.607 47.4162 172.858 47.393C173.113 47.3652 173.347 47.3119 173.56 47.233C173.778 47.1496 173.957 47.0313 174.096 46.8783C174.24 46.7252 174.312 46.5212 174.312 46.2661C174.312 46.1455 174.286 45.9762 174.235 45.7583C174.184 45.5403 174.117 45.2991 174.033 45.0348C173.95 44.7704 173.85 44.4968 173.734 44.2139C173.623 43.931 173.505 43.6667 173.379 43.4209L174.986 42.6278C175.102 42.8922 175.218 43.1728 175.334 43.4696C175.45 43.7664 175.552 44.0725 175.64 44.3878C175.733 44.6986 175.807 45.0116 175.863 45.327C175.919 45.6423 175.946 45.9507 175.946 46.2522C175.946 46.7901 175.847 47.247 175.647 47.6226C175.448 47.9983 175.174 48.3043 174.826 48.5409C174.483 48.7728 174.08 48.942 173.616 49.0487C173.157 49.1554 172.665 49.2087 172.141 49.2087H170.673V47.4278ZM173.261 51.2678L172.079 52.4504L170.882 51.2609L172.065 50.0713L173.261 51.2678ZM175.891 51.2748L174.708 52.4643L173.512 51.2678L174.694 50.0852L175.891 51.2748ZM181.555 44.5826C181.648 44.8748 181.743 45.1809 181.841 45.5009C181.943 45.8162 182.033 46.1362 182.112 46.4609C182.195 46.7855 182.263 47.1101 182.314 47.4348C182.365 47.7548 182.39 48.0678 182.39 48.3739C182.39 48.7913 182.325 49.1971 182.195 49.5913C182.07 49.9901 181.894 50.3728 181.667 50.7391C181.444 51.1101 181.177 51.4626 180.867 51.7965C180.561 52.1304 180.227 52.4458 179.865 52.7426C179.503 53.0394 179.121 53.3154 178.717 53.5704C178.314 53.8255 177.905 54.0551 177.493 54.2591L176.7 52.6661C177.029 52.5038 177.354 52.3229 177.674 52.1235C177.994 51.9287 178.297 51.72 178.585 51.4974C178.877 51.2748 179.146 51.0406 179.392 50.7948C179.642 50.549 179.856 50.2939 180.032 50.0296C180.213 49.7652 180.354 49.4939 180.456 49.2157C180.558 48.9374 180.609 48.6568 180.609 48.3739C180.609 48.1096 180.579 47.8313 180.519 47.5391C180.459 47.247 180.384 46.9594 180.296 46.6765C180.213 46.389 180.125 46.113 180.032 45.8487C179.944 45.5843 179.87 45.3501 179.809 45.1461L181.555 44.5826ZM181.771 41.6191L180.435 42.9548L179.107 41.6191L180.435 40.2904L181.771 41.6191ZM186.432 44.687C186.311 44.687 186.181 44.738 186.042 44.84C185.903 44.942 185.775 45.0742 185.659 45.2365C185.543 45.3942 185.446 45.5704 185.367 45.7652C185.293 45.96 185.256 46.1501 185.256 46.3357C185.256 46.5304 185.3 46.6928 185.388 46.8226C185.481 46.9478 185.597 47.0499 185.736 47.1287C185.88 47.2075 186.04 47.2678 186.216 47.3096C186.397 47.3467 186.575 47.3745 186.752 47.393C186.849 47.3977 186.956 47.4023 187.072 47.407C187.188 47.4116 187.306 47.4162 187.426 47.4209C187.552 47.4209 187.675 47.4232 187.795 47.4278C187.916 47.4278 188.029 47.4278 188.136 47.4278C188.122 47.2562 188.087 47.0707 188.032 46.8713C187.981 46.6672 187.913 46.4632 187.83 46.2591C187.746 46.0551 187.651 45.8603 187.545 45.6748C187.438 45.4846 187.322 45.3177 187.197 45.1739C187.076 45.0255 186.951 44.9072 186.821 44.8191C186.691 44.731 186.561 44.687 186.432 44.687ZM183.273 52.3391C183.955 52.2046 184.57 52.0238 185.117 51.7965C185.669 51.5739 186.146 51.3235 186.55 51.0452C186.953 50.767 187.28 50.4701 187.531 50.1548C187.786 49.8394 187.955 49.5241 188.039 49.2087C187.663 49.2087 187.297 49.1971 186.939 49.1739C186.582 49.1507 186.244 49.1043 185.924 49.0348C185.608 48.9699 185.316 48.8771 185.047 48.7565C184.783 48.6313 184.553 48.469 184.359 48.2696C184.168 48.0655 184.02 47.8197 183.913 47.5322C183.807 47.2446 183.753 46.9014 183.753 46.5026C183.753 46.2475 183.781 45.9809 183.837 45.7026C183.892 45.4243 183.971 45.153 184.073 44.8887C184.18 44.6197 184.31 44.367 184.463 44.1304C184.616 43.8893 184.792 43.6783 184.992 43.4974C185.191 43.3119 185.411 43.1658 185.652 43.0591C185.894 42.9525 186.153 42.8991 186.432 42.8991C187.15 42.8991 187.807 43.2191 188.4 43.8591C188.614 44.0957 188.804 44.3646 188.971 44.6661C189.142 44.9629 189.286 45.2829 189.402 45.6261C189.523 45.9646 189.613 46.3194 189.673 46.6904C189.738 47.0614 189.771 47.4371 189.771 47.8174C189.771 48.411 189.694 48.9652 189.541 49.48C189.393 49.9994 189.182 50.4771 188.908 50.913C188.639 51.349 188.317 51.7409 187.941 52.0887C187.566 52.4412 187.153 52.7496 186.703 53.0139C186.253 53.2783 185.773 53.4986 185.263 53.6748C184.753 53.8557 184.229 53.9901 183.691 54.0783L183.273 52.3391ZM194.112 48.2348C193.867 48.2348 193.619 48.2186 193.368 48.1861C193.122 48.1536 192.886 48.1003 192.659 48.0261C192.431 47.9519 192.218 47.8591 192.019 47.7478C191.824 47.6319 191.652 47.4928 191.504 47.3304C191.36 47.1681 191.246 46.9803 191.163 46.767C191.079 46.5536 191.038 46.3125 191.038 46.0435C191.038 45.7559 191.089 45.4823 191.191 45.2226C191.293 44.9629 191.43 44.7194 191.601 44.4922C191.773 44.2649 191.972 44.0539 192.199 43.8591C192.427 43.6643 192.666 43.4881 192.916 43.3304C193.166 43.1681 193.419 43.0243 193.674 42.8991C193.934 42.7693 194.18 42.658 194.412 42.5652L194.321 41.5078L196.081 41.1322C196.086 41.1739 196.095 41.2667 196.109 41.4104C196.123 41.5496 196.139 41.7165 196.158 41.9113C196.181 42.1061 196.204 42.3148 196.227 42.5374C196.25 42.7554 196.271 42.9617 196.29 43.1565C196.313 43.3467 196.332 43.5136 196.346 43.6574C196.359 43.7965 196.369 43.8823 196.373 43.9148C196.443 44.5084 196.506 44.993 196.561 45.3687C196.621 45.7443 196.672 46.0435 196.714 46.2661C196.756 46.4841 196.791 46.6394 196.819 46.7322C196.851 46.8203 196.874 46.8783 196.888 46.9061C196.935 47.0081 196.988 47.0939 197.048 47.1635C197.108 47.2284 197.178 47.2817 197.257 47.3235C197.336 47.3606 197.428 47.3884 197.535 47.407C197.642 47.4209 197.767 47.4278 197.911 47.4278H198.05V49.2087H197.911C197.665 49.2041 197.433 49.1948 197.215 49.1809C197.002 49.1716 196.795 49.1322 196.596 49.0626C196.401 48.9977 196.216 48.8933 196.039 48.7496C195.863 48.6058 195.696 48.3971 195.539 48.1235C195.274 48.1606 195.026 48.1884 194.794 48.207C194.562 48.2255 194.335 48.2348 194.112 48.2348ZM194.919 46.4052C194.896 46.28 194.873 46.1316 194.85 45.96C194.827 45.7884 194.803 45.6029 194.78 45.4035C194.757 45.1994 194.732 44.9884 194.704 44.7704C194.681 44.5525 194.655 44.3345 194.627 44.1165C194.507 44.1675 194.372 44.2325 194.224 44.3113C194.075 44.3901 193.922 44.4783 193.765 44.5757C193.607 44.673 193.452 44.7797 193.299 44.8957C193.15 45.007 193.018 45.1229 192.902 45.2435C192.786 45.3594 192.691 45.4777 192.617 45.5983C192.547 45.7188 192.512 45.8348 192.512 45.9461C192.512 46.0481 192.563 46.1339 192.666 46.2035C192.768 46.2684 192.895 46.3217 193.048 46.3635C193.206 46.4006 193.375 46.4284 193.556 46.447C193.737 46.4609 193.908 46.4678 194.071 46.4678C194.219 46.4678 194.368 46.4632 194.516 46.4539C194.664 46.44 194.799 46.4238 194.919 46.4052ZM201.252 46.4887C201.405 46.5536 201.602 46.6348 201.844 46.7322C202.085 46.8296 202.345 46.927 202.623 47.0243C202.901 47.1217 203.182 47.2099 203.465 47.2887C203.752 47.3629 204.014 47.4093 204.251 47.4278C204.204 47.233 204.156 47.0313 204.105 46.8226C204.058 46.6093 204.005 46.4029 203.945 46.2035C203.884 46.0041 203.817 45.8162 203.743 45.64C203.669 45.4591 203.58 45.3014 203.478 45.167C203.381 45.0325 203.267 44.9258 203.138 44.847C203.008 44.7681 202.862 44.7287 202.699 44.7287C202.514 44.7287 202.347 44.789 202.198 44.9096C202.055 45.0301 201.922 45.1809 201.802 45.3617C201.686 45.538 201.582 45.7281 201.489 45.9322C201.401 46.1362 201.322 46.3217 201.252 46.4887ZM203.896 49.1878C203.655 49.1832 203.372 49.1484 203.047 49.0835C202.722 49.0232 202.391 48.942 202.052 48.84C201.718 48.738 201.396 48.622 201.085 48.4922C200.779 48.3623 200.52 48.2255 200.306 48.0817C200.125 48.2626 199.949 48.4226 199.778 48.5617C199.606 48.7009 199.427 48.8191 199.242 48.9165C199.056 49.0093 198.855 49.0812 198.637 49.1322C198.423 49.1832 198.18 49.2087 197.906 49.2087H197.767V47.4278H197.906C198.245 47.4278 198.528 47.3652 198.755 47.24C198.982 47.1101 199.177 46.9432 199.339 46.7391C199.502 46.5351 199.643 46.3055 199.764 46.0504C199.889 45.7954 200.016 45.5403 200.146 45.2852C200.276 45.0162 200.425 44.7472 200.591 44.4783C200.758 44.2093 200.946 43.9681 201.155 43.7548C201.368 43.5368 201.607 43.3606 201.871 43.2261C202.136 43.0916 202.433 43.0243 202.762 43.0243C203.193 43.0243 203.555 43.1009 203.847 43.2539C204.144 43.4023 204.39 43.6087 204.585 43.873C204.784 44.1328 204.942 44.4388 205.058 44.7913C205.173 45.1438 205.271 45.5241 205.35 45.9322C205.396 46.1687 205.44 46.3797 205.482 46.5652C205.524 46.7461 205.57 46.9014 205.621 47.0313C205.677 47.1612 205.735 47.2609 205.795 47.3304C205.86 47.3954 205.936 47.4278 206.025 47.4278H206.24V49.2087H205.976C205.721 49.2041 205.493 49.1345 205.294 49C205.099 48.8609 204.918 48.6777 204.751 48.4504C204.7 48.4968 204.64 48.5594 204.571 48.6383C204.506 48.7171 204.434 48.7959 204.355 48.8748C204.281 48.949 204.204 49.0162 204.125 49.0765C204.047 49.1368 203.97 49.1739 203.896 49.1878ZM212.16 47.4278V49.2087H212.021C211.571 49.2087 211.191 49.1368 210.88 48.993C210.569 48.8493 210.305 48.6638 210.087 48.4365C209.934 48.6313 209.707 48.782 209.405 48.8887C209.108 48.9907 208.777 49.0649 208.41 49.1113C208.044 49.1623 207.666 49.1901 207.276 49.1948C206.891 49.2041 206.537 49.2087 206.212 49.2087H205.955V47.4278H206.212C206.755 47.4278 207.211 47.3977 207.582 47.3374C207.953 47.2725 208.253 47.1797 208.48 47.0591C208.712 46.9386 208.879 46.7878 208.981 46.607C209.083 46.4214 209.134 46.2081 209.134 45.967C209.134 45.8093 209.104 45.6006 209.043 45.3409C208.983 45.0765 208.893 44.738 208.772 44.3252L210.483 43.8452C210.544 44.0493 210.59 44.2301 210.622 44.3878C210.66 44.5409 210.687 44.6962 210.706 44.8539C210.729 45.007 210.748 45.1739 210.762 45.3548C210.78 45.531 210.799 45.742 210.817 45.9878C210.831 46.1362 210.866 46.2962 210.922 46.4678C210.977 46.6348 211.054 46.7901 211.151 46.9339C211.253 47.073 211.376 47.1913 211.52 47.2887C211.664 47.3814 211.831 47.4278 212.021 47.4278H212.16ZM208.542 51.2678L207.36 52.4504L206.163 51.2609L207.346 50.0713L208.542 51.2678ZM211.172 51.2748L209.989 52.4643L208.793 51.2678L209.975 50.0852L211.172 51.2748ZM211.876 47.4278H212.996C213.214 47.4278 213.437 47.4162 213.664 47.393C213.896 47.3652 214.105 47.3119 214.29 47.233C214.476 47.1496 214.627 47.0313 214.743 46.8783C214.863 46.7252 214.923 46.5212 214.923 46.2661C214.923 46.1455 214.898 45.9762 214.847 45.7583C214.796 45.5403 214.729 45.2991 214.645 45.0348C214.562 44.7704 214.462 44.4968 214.346 44.2139C214.235 43.931 214.116 43.6667 213.991 43.4209L215.598 42.6278C215.714 42.8922 215.83 43.1728 215.946 43.4696C216.062 43.7664 216.164 44.0725 216.252 44.3878C216.345 44.6986 216.419 45.0116 216.475 45.327C216.53 45.6423 216.558 45.9507 216.558 46.2522C216.558 46.7716 216.47 47.2191 216.294 47.5948C216.118 47.9658 215.872 48.2719 215.556 48.513C215.241 48.7496 214.863 48.9235 214.423 49.0348C213.987 49.1507 213.507 49.2087 212.983 49.2087H211.876V47.4278ZM215.431 40.2696L214.096 41.6052L212.767 40.2696L214.096 38.9409L215.431 40.2696ZM226.579 52.8748C226.848 52.9212 227.12 52.9443 227.393 52.9443C227.463 52.9443 227.6 52.9397 227.804 52.9304C228.008 52.9212 228.27 52.8794 228.59 52.8052C228.91 52.731 229.216 52.6313 229.508 52.5061C229.805 52.3809 230.076 52.2371 230.322 52.0748L231.261 53.633C230.992 53.7954 230.714 53.9438 230.426 54.0783C230.143 54.2174 229.849 54.3357 229.543 54.433C229.241 54.5304 228.928 54.6046 228.604 54.6557C228.321 54.702 228.031 54.7252 227.734 54.7252C227.688 54.7252 227.639 54.7252 227.588 54.7252C227.152 54.7159 226.716 54.6696 226.28 54.5861C225.849 54.5026 225.436 54.382 225.042 54.2243C224.652 54.0667 224.288 53.8696 223.95 53.633C223.616 53.4012 223.324 53.1299 223.073 52.8191C222.827 52.513 222.633 52.1675 222.489 51.7826C222.345 51.4023 222.271 50.9803 222.266 50.5165C222.28 50.0203 222.373 49.5565 222.545 49.1252C222.716 48.6986 222.943 48.309 223.226 47.9565C223.514 47.5994 223.843 47.2817 224.214 47.0035C224.59 46.7252 224.986 46.4864 225.404 46.287C225.255 46.1478 225.102 46.011 224.945 45.8765C224.791 45.7374 224.643 45.6075 224.499 45.487C224.356 45.3617 224.221 45.2481 224.096 45.1461C223.971 45.0394 223.866 44.949 223.783 44.8748L223.651 43.3861C224.258 42.8574 224.912 42.4609 225.612 42.1965C226.317 41.9275 227.052 41.793 227.818 41.793C228.045 41.793 228.279 41.8093 228.52 41.8417C228.766 41.8742 229.005 41.9252 229.237 41.9948C229.469 42.0643 229.687 42.1548 229.891 42.2661C230.095 42.3774 230.273 42.5142 230.426 42.6765C230.579 42.8342 230.7 43.0174 230.788 43.2261C230.867 43.4301 230.906 43.6574 230.906 43.9078C230.906 43.9217 230.906 43.9357 230.906 43.9496C230.888 44.302 230.818 44.6174 230.698 44.8957C230.582 45.1739 230.429 45.4243 230.238 45.647C230.048 45.8696 229.828 46.069 229.578 46.2452C229.332 46.4214 229.07 46.5838 228.791 46.7322C229.167 46.9409 229.566 47.1101 229.988 47.24C230.415 47.3652 230.83 47.4278 231.233 47.4278H231.47V49.2087H231.233C230.848 49.2087 230.475 49.1693 230.113 49.0904C229.751 49.0116 229.394 48.9003 229.042 48.7565C228.689 48.6081 228.339 48.4342 227.991 48.2348C227.644 48.0307 227.294 47.8058 226.941 47.56C226.603 47.6945 226.259 47.8522 225.911 48.033C225.564 48.2093 225.246 48.418 224.958 48.6591C224.676 48.8957 224.444 49.1646 224.263 49.4661C224.082 49.7675 223.991 50.1084 223.991 50.4887C223.991 50.702 224.033 50.9061 224.117 51.1009C224.205 51.2957 224.318 51.4765 224.458 51.6435C224.597 51.8151 224.757 51.9704 224.938 52.1096C225.118 52.2533 225.304 52.3762 225.494 52.4783C225.689 52.5849 225.879 52.6707 226.065 52.7357C226.255 52.8052 226.426 52.8516 226.579 52.8748ZM227.825 43.4904C227.639 43.4904 227.444 43.5043 227.24 43.5322C227.036 43.5554 226.834 43.5901 226.635 43.6365C226.436 43.6783 226.243 43.7316 226.058 43.7965C225.877 43.8568 225.717 43.9241 225.578 43.9983C225.675 44.1003 225.784 44.2186 225.905 44.353C226.025 44.4829 226.153 44.6197 226.287 44.7635C226.426 44.9072 226.568 45.051 226.711 45.1948C226.855 45.3339 226.997 45.4638 227.136 45.5843C227.442 45.4545 227.727 45.3223 227.991 45.1878C228.256 45.0533 228.485 44.9165 228.68 44.7774C228.88 44.6336 229.037 44.4852 229.153 44.3322C229.269 44.1791 229.329 44.0214 229.334 43.8591C229.329 43.8406 229.299 43.8128 229.244 43.7757C229.188 43.7386 229.098 43.7014 228.972 43.6643C228.852 43.6226 228.696 43.5855 228.506 43.553C228.321 43.5206 228.094 43.4997 227.825 43.4904ZM231.189 47.4278H232.246L232.295 47.3374C232.374 47.1983 232.485 47.0151 232.629 46.7878C232.777 46.5559 232.963 46.2939 233.186 46.0017C233.227 45.7096 233.262 45.3409 233.29 44.8957C233.318 44.4504 233.334 43.9681 233.339 43.4487C233.339 43.1658 233.334 42.8759 233.325 42.5791C233.315 42.2777 233.297 41.9322 233.269 41.5426C233.241 41.153 233.202 40.6986 233.151 40.1791C233.104 39.6551 233.044 39.0313 232.97 38.3078L234.799 37.8348C234.92 38.7252 235.01 39.6388 235.071 40.5757C235.136 41.5125 235.168 42.44 235.168 43.3583V43.9217C235.419 43.7084 235.678 43.5043 235.947 43.3096C236.221 43.1148 236.504 42.9432 236.796 42.7948C237.093 42.6464 237.401 42.5281 237.721 42.44C238.041 42.3519 238.375 42.3078 238.723 42.3078C239.075 42.3078 239.409 42.3635 239.725 42.4748C240.04 42.5861 240.318 42.7484 240.559 42.9617C240.805 43.1704 241.007 43.4255 241.165 43.727C241.322 44.0284 241.42 44.367 241.457 44.7426C241.461 44.8122 241.464 44.8794 241.464 44.9443C241.464 45.4267 241.383 45.8765 241.22 46.2939C241.063 46.7113 240.828 47.0893 240.518 47.4278H242.479V49.2087H240.629C240.263 49.2087 239.855 49.1925 239.405 49.16C238.955 49.1275 238.456 49.0417 237.909 48.9026C237.515 49.0093 237.114 49.0858 236.706 49.1322C236.302 49.1832 235.896 49.2087 235.488 49.2087H231.189V47.4278ZM234.841 47.4278C235.124 47.4278 235.449 47.4209 235.815 47.407C236.186 47.393 236.566 47.3606 236.956 47.3096C237.346 47.2586 237.723 47.182 238.09 47.08C238.461 46.978 238.79 46.8412 239.078 46.6696C239.365 46.498 239.592 46.2823 239.759 46.0226C239.903 45.8 239.975 45.5357 239.975 45.2296C239.975 45.1878 239.973 45.1438 239.968 45.0974C239.959 44.9583 239.912 44.8284 239.829 44.7078C239.75 44.5872 239.639 44.4852 239.495 44.4017C239.356 44.3136 239.189 44.2441 238.994 44.193C238.827 44.1559 238.646 44.1374 238.452 44.1374C238.415 44.1374 238.375 44.1374 238.333 44.1374C238.101 44.1467 237.826 44.207 237.506 44.3183C237.186 44.4249 236.842 44.6058 236.476 44.8609C236.11 45.1159 235.729 45.4522 235.335 45.8696C234.941 46.287 234.556 46.8064 234.18 47.4278H234.841ZM242.372 47.4278C242.859 47.4278 243.327 47.4139 243.777 47.3861C244.227 47.3536 244.637 47.3096 245.008 47.2539C245.379 47.1983 245.699 47.131 245.968 47.0522C246.237 46.9733 246.439 46.8852 246.573 46.7878H245.864C245.456 46.7878 245.066 46.7368 244.695 46.6348C244.329 46.5281 244.006 46.3704 243.728 46.1617C243.45 45.953 243.227 45.6933 243.06 45.3826C242.898 45.0672 242.817 44.7009 242.817 44.2835C242.817 44.0377 242.842 43.7849 242.893 43.5252C242.944 43.2655 243.021 43.0128 243.123 42.767C243.225 42.5212 243.348 42.2893 243.492 42.0713C243.635 41.8533 243.8 41.6632 243.985 41.5009C244.171 41.3339 244.375 41.2041 244.598 41.1113C244.82 41.0139 245.061 40.9652 245.321 40.9652C245.641 40.9652 245.94 41.0325 246.219 41.167C246.497 41.3014 246.75 41.4846 246.977 41.7165C247.204 41.9438 247.406 42.2081 247.582 42.5096C247.758 42.811 247.907 43.1287 248.027 43.4626C248.148 43.7965 248.238 44.1374 248.299 44.4852C248.363 44.8284 248.396 45.1554 248.396 45.4661C248.396 45.9948 248.322 46.4539 248.173 46.8435C248.03 47.233 247.825 47.567 247.561 47.8452C247.301 48.1235 246.988 48.3507 246.622 48.527C246.26 48.7032 245.859 48.8423 245.419 48.9443C244.978 49.0464 244.505 49.1159 243.999 49.153C243.499 49.1901 242.979 49.2087 242.441 49.2087H242.205V47.4278H242.372ZM245.321 42.76C245.298 42.7554 245.275 42.753 245.252 42.753C245.159 42.753 245.052 42.7901 244.932 42.8643C244.811 42.9386 244.695 43.0452 244.584 43.1843C244.472 43.3235 244.382 43.4812 244.312 43.6574C244.243 43.829 244.208 43.9983 244.208 44.1652C244.208 44.1745 244.208 44.1838 244.208 44.193C244.208 44.36 244.245 44.4968 244.319 44.6035C244.394 44.7055 244.493 44.7843 244.619 44.84C244.748 44.8957 244.897 44.9351 245.064 44.9583C245.235 44.9814 245.416 44.9977 245.606 45.007C245.732 45.0116 245.861 45.0139 245.996 45.0139C246.061 45.0139 246.161 45.0139 246.295 45.0139C246.434 45.0093 246.576 45.0023 246.719 44.993C246.678 44.8261 246.617 44.6197 246.539 44.3739C246.464 44.1235 246.369 43.8823 246.253 43.6504C246.142 43.4139 246.008 43.2099 245.85 43.0383C245.697 42.8667 245.521 42.7739 245.321 42.76ZM245.154 38.8713L243.972 40.0539L242.775 38.8643L243.958 37.6748L245.154 38.8713ZM247.784 38.8783L246.601 40.0678L245.405 38.8713L246.587 37.6887L247.784 38.8783Z" fill="black"/>
<path d="M115.962 154.139C115.962 152.782 115.941 151.45 115.901 150.141C115.86 148.825 115.771 147.598 115.632 146.46C115.493 145.321 115.293 144.303 115.033 143.405C114.778 142.504 114.434 141.787 113.999 141.256L115.441 139.189C115.915 139.784 116.309 140.575 116.622 141.563C116.94 142.541 117.183 143.738 117.351 145.157C117.42 145.765 117.475 146.403 117.516 147.071C117.562 147.736 117.597 148.409 117.62 149.089C117.649 149.758 117.666 150.425 117.672 151.089C117.684 151.749 117.689 152.382 117.689 152.987L115.962 154.139ZM119.579 150.987C119.608 150.856 119.663 150.631 119.744 150.313C119.825 149.995 119.938 149.596 120.082 149.117C120.227 148.638 120.406 148.087 120.621 147.464C120.835 146.834 121.089 146.146 121.385 145.4C121.68 144.661 121.995 143.929 122.331 143.204C122.667 142.479 123.008 141.803 123.355 141.175C122.921 141.395 122.522 141.536 122.157 141.598C121.798 141.649 121.486 141.618 121.22 141.503C120.953 141.388 120.745 141.179 120.595 140.876C120.45 140.562 120.377 140.148 120.377 139.633C120.377 139.195 120.432 138.748 120.542 138.292C120.652 137.836 120.803 137.384 120.994 136.937C121.191 136.479 121.419 136.034 121.68 135.603C121.946 135.168 122.23 134.764 122.531 134.389C122.832 134.007 123.144 133.663 123.468 133.357C123.792 133.043 124.117 132.779 124.441 132.563C125.292 131.995 126.131 131.728 126.959 131.76L126.082 134.14C125.786 134.114 125.5 134.149 125.222 134.243C124.95 134.334 124.69 134.463 124.441 134.629C124.157 134.818 123.874 135.066 123.59 135.373C123.312 135.67 123.063 135.992 122.843 136.341C122.623 136.689 122.444 137.052 122.305 137.43C122.166 137.801 122.097 138.157 122.097 138.498C122.097 138.762 122.149 138.953 122.253 139.072C122.363 139.186 122.502 139.247 122.67 139.253C122.837 139.259 123.02 139.225 123.217 139.149C123.419 139.07 123.613 138.968 123.798 138.845L123.911 138.77C124.143 138.615 124.389 138.434 124.649 138.225C124.91 138.01 125.173 137.782 125.439 137.542C125.705 137.302 125.954 137.067 126.186 136.836C126.417 136.605 126.617 136.402 126.785 136.228C126.947 136.057 127.08 135.916 127.184 135.805C127.294 135.69 127.381 135.601 127.445 135.537L127.948 137.174L127.323 137.841C126.785 138.415 126.284 139.038 125.821 139.708C125.364 140.368 124.941 141.05 124.554 141.753C124.172 142.446 123.824 143.144 123.512 143.846C123.199 144.549 122.918 145.223 122.67 145.869C122.426 146.511 122.215 147.114 122.036 147.679C121.856 148.237 121.706 148.727 121.584 149.149C121.469 149.56 121.379 149.891 121.315 150.142C121.257 150.382 121.225 150.508 121.22 150.519L119.579 150.987ZM130.223 147.762L129.207 147.594C129.815 146.166 130.133 144.9 130.162 143.795V141.834L131.924 140.659V142.359C131.924 143.146 131.762 144.04 131.438 145.042C131.12 146.047 130.715 146.954 130.223 147.762ZM140.863 137.59C140.44 137.872 140.052 138.009 139.699 138.001C139.352 137.982 139.057 137.82 138.814 137.516L138.787 137.492C138.539 138.11 138.226 138.677 137.85 139.192C137.479 139.703 137.068 140.109 136.617 140.41C136.113 140.746 135.688 140.918 135.341 140.927C134.999 140.932 134.721 140.825 134.507 140.606C134.293 140.38 134.134 140.066 134.03 139.662C133.925 139.259 133.862 138.814 133.839 138.329C133.827 138.128 133.821 137.926 133.821 137.725C133.821 137.439 133.836 137.096 133.865 136.694C133.899 136.281 133.951 135.857 134.021 135.421C134.125 134.788 134.258 134.129 134.42 133.443C134.588 132.754 134.791 132.017 135.028 131.233C135.271 130.438 135.555 129.581 135.879 128.662C136.209 127.74 136.585 126.734 137.008 125.646L136.686 125.474L137.902 123.202C138.486 123.453 139.06 123.725 139.621 124.018C140.188 124.301 140.718 124.65 141.21 125.067C142.344 126.049 143.166 127.338 143.676 128.932C143.843 129.488 143.927 130.128 143.927 130.851C143.927 131.429 143.864 132.038 143.736 132.68C143.609 133.321 143.418 133.949 143.163 134.564C142.914 135.168 142.596 135.739 142.208 136.276C141.826 136.802 141.381 137.238 140.871 137.585L140.863 137.59ZM139.586 132.556C139.586 132.744 139.592 132.963 139.604 133.212C139.615 133.462 139.635 133.716 139.664 133.975C139.699 134.223 139.745 134.464 139.803 134.696C139.867 134.925 139.945 135.12 140.038 135.281C140.136 135.431 140.252 135.535 140.385 135.592C140.524 135.646 140.686 135.625 140.871 135.529C141.143 135.327 141.366 135.077 141.54 134.781C141.713 134.484 141.849 134.174 141.948 133.851C142.046 133.521 142.113 133.195 142.148 132.873C142.188 132.54 142.208 132.244 142.208 131.987C142.208 131.751 142.194 131.517 142.165 131.286C142.136 131.054 142.09 130.842 142.026 130.648C141.818 130.015 141.566 129.459 141.271 128.981C140.975 128.503 140.66 128.087 140.324 127.734C139.989 127.373 139.644 127.07 139.291 126.826C138.938 126.581 138.599 126.379 138.275 126.22C137.911 127.172 137.589 128.047 137.311 128.845C137.034 129.642 136.791 130.385 136.582 131.073C136.374 131.762 136.197 132.408 136.053 133.013C135.914 133.606 135.798 134.177 135.705 134.726C135.671 134.923 135.636 135.169 135.601 135.463C135.566 135.758 135.543 136.065 135.532 136.386C135.526 136.494 135.523 136.6 135.523 136.705C135.523 136.914 135.532 137.144 135.549 137.397C135.572 137.646 135.621 137.874 135.697 138.081C135.778 138.285 135.89 138.418 136.035 138.482C136.186 138.541 136.38 138.492 136.617 138.334C136.825 138.188 137.005 137.992 137.155 137.745C137.306 137.499 137.433 137.23 137.537 136.938C137.647 136.635 137.737 136.321 137.806 135.996C137.882 135.661 137.942 135.339 137.989 135.03C138.035 134.721 138.073 134.431 138.102 134.161C138.136 133.881 138.165 133.649 138.188 133.467L139.586 132.556Z" fill="black"/>
<path d="M301.283 123.327C301.283 121.971 301.263 120.611 301.222 119.248C301.182 117.879 301.092 116.532 300.953 115.208C300.814 113.884 300.615 112.6 300.354 111.355C300.099 110.114 299.755 108.938 299.321 107.828L300.762 107.683C301.237 108.91 301.63 110.227 301.943 111.631C302.261 113.033 302.504 114.555 302.672 116.198C302.742 116.898 302.797 117.609 302.837 118.332C302.884 119.059 302.918 119.777 302.941 120.488C302.97 121.196 302.988 121.886 302.994 122.558C303.005 123.233 303.011 123.874 303.011 124.479L301.283 123.327ZM312.541 115.305C312.541 115.319 312.549 115.394 312.567 115.531C312.584 115.661 312.601 115.833 312.619 116.046C312.636 116.252 312.651 116.485 312.662 116.743C312.668 116.921 312.671 117.1 312.671 117.281V117.552C312.648 119.144 312.332 120.165 311.724 120.615V120.605C311.134 121.067 310.332 120.96 309.319 120.285C309.042 120.1 308.79 119.911 308.564 119.719C308.344 119.523 308.124 119.3 307.904 119.049L307.974 119.669C308.043 120.37 308.098 121.081 308.139 121.804C308.185 122.523 308.22 123.239 308.243 123.95C308.272 124.658 308.289 125.351 308.295 126.03C308.306 126.705 308.312 127.346 308.312 127.951L306.584 126.799C306.584 125.693 306.576 124.588 306.558 123.484C306.541 122.373 306.495 121.278 306.42 120.198C306.344 119.112 306.231 118.049 306.081 117.009C305.936 115.967 305.734 114.962 305.473 113.995C305.352 113.539 305.221 113.094 305.082 112.66C304.944 112.227 304.787 111.771 304.614 111.294L306.064 111.154C306.156 111.397 306.24 111.637 306.315 111.875C306.396 112.11 306.475 112.353 306.55 112.605C306.631 112.854 306.712 113.117 306.793 113.393C306.874 113.67 306.964 113.97 307.062 114.293C307.195 114.75 307.325 115.171 307.453 115.555C307.586 115.936 307.736 116.29 307.904 116.618C308.078 116.949 308.275 117.247 308.495 117.512C308.72 117.774 308.995 118.013 309.319 118.229C309.8 118.549 310.162 118.613 310.405 118.42C310.515 118.341 310.604 118.223 310.674 118.068C310.743 117.905 310.798 117.723 310.839 117.52C310.885 117.322 310.917 117.106 310.934 116.874C310.952 116.643 310.96 116.412 310.96 116.182C310.96 115.883 310.946 115.585 310.917 115.287C310.894 114.993 310.868 114.747 310.839 114.546L312.541 115.305Z" fill="black"/>
<path d="M44.9265 217.165L44.9269 223.956L178.68 314.064L366.277 190.834L366.277 184.662L231.548 94.1728L44.9265 217.165Z" fill="#E7E7E7" stroke="black"/>
<path d="M44.2633 216.95L44.2635 223.338L178.088 313.546L178.088 306.662L44.2633 216.95Z" fill="#A3A3A3" stroke="black"/>
<path d="M366.338 184.496L231.171 94.0532L44.3189 216.382L178.64 306.598L366.338 184.496Z" fill="#E7E7E7" stroke="black"/>
<path d="M52.6583 210.818L44.2308 216.436L178.648 306.716L186.455 301.511L52.6583 210.818Z" fill="#A3A3A3" stroke="black"/>
<path d="M194.815 205.747C196.23 206.844 196.867 208.027 196.726 209.296C196.579 210.561 195.675 211.747 194.014 212.855C192.191 214.07 190.149 214.616 187.889 214.492C185.622 214.364 183.424 213.585 181.293 212.154L180.427 211.572C179.064 210.657 178.103 209.69 177.544 208.671C176.985 207.653 176.874 206.66 177.211 205.694C177.553 204.723 178.315 203.844 179.496 203.057C181.134 201.965 182.893 201.38 184.772 201.302C186.651 201.224 188.46 201.664 190.198 202.623L187.273 204.574C186.285 204.003 185.366 203.727 184.516 203.745C183.666 203.763 182.793 204.071 181.896 204.669C180.923 205.317 180.543 206.038 180.756 206.831C180.963 207.621 181.794 208.512 183.249 209.505L184.314 210.221C185.845 211.249 187.196 211.847 188.37 212.015C189.543 212.176 190.631 211.922 191.632 211.255C192.535 210.653 193.001 210.067 193.031 209.499C193.067 208.926 192.686 208.326 191.89 207.698L194.815 205.747ZM195.467 204.455C194.422 203.753 193.692 202.995 193.277 202.182C192.862 201.361 192.811 200.549 193.125 199.745C193.433 198.936 194.087 198.199 195.089 197.531C196.513 196.582 198.109 196.101 199.878 196.089C201.647 196.068 203.332 196.526 204.932 197.461L205.668 197.932C207.279 199.014 208.122 200.184 208.195 201.442C208.268 202.699 207.543 203.835 206.021 204.85C204.498 205.865 202.798 206.35 200.919 206.304C199.046 206.254 197.272 205.667 195.597 204.542L195.467 204.455ZM198.497 202.713C199.496 203.384 200.449 203.773 201.357 203.879C202.258 203.981 203.059 203.799 203.76 203.332C204.443 202.876 204.715 202.347 204.578 201.743C204.44 201.132 203.796 200.44 202.647 199.668C201.671 199.013 200.721 198.634 199.796 198.532C198.871 198.422 198.061 198.598 197.367 199.061C196.678 199.52 196.414 200.056 196.575 200.667C196.73 201.275 197.371 201.957 198.497 202.713ZM213.074 195.302L207.942 189.229L210.886 187.267L217.851 196.709L215.168 198.497L201.083 193.801L204.027 191.839L213.074 195.302ZM227.689 190.405C226.144 191.435 224.414 191.958 222.5 191.974C220.581 191.986 218.833 191.463 217.256 190.404L216.979 190.218C215.922 189.508 215.181 188.739 214.754 187.91C214.334 187.078 214.274 186.259 214.576 185.455C214.873 184.647 215.501 183.923 216.462 183.282C217.903 182.321 219.494 181.872 221.234 181.933C222.974 181.986 224.676 182.571 226.339 183.688L227.491 184.462L220.771 188.942C221.551 189.342 222.377 189.529 223.25 189.503C224.123 189.478 224.91 189.231 225.611 188.764C226.699 188.039 227.154 187.21 226.976 186.277L229.907 186.387C230.085 187.072 229.98 187.768 229.592 188.475C229.203 189.175 228.569 189.818 227.689 190.405ZM218.731 184.818C218.17 185.192 217.903 185.621 217.931 186.105C217.96 186.589 218.277 187.1 218.883 187.639L222.807 185.022L222.582 184.871C221.947 184.46 221.294 184.25 220.623 184.241C219.958 184.228 219.328 184.421 218.731 184.818ZM231.459 177.075C231.025 177.295 230.664 177.501 230.374 177.694C229.303 178.408 228.964 179.117 229.356 179.822L236.242 184.447L233.429 186.323L222.905 179.254L225.561 177.483L226.895 178.274C226.493 177.244 226.792 176.396 227.793 175.728C228.106 175.52 228.441 175.354 228.8 175.231L231.459 177.075Z" fill="black"/>
<path d="M217.377 85.1019C217.54 84.7983 217.54 84.4818 217.377 84.3948L214.73 82.9779C214.567 82.8909 214.304 83.0665 214.142 83.3701C213.979 83.6737 213.979 83.9903 214.142 84.0772L216.495 85.3367L214.142 89.7341C213.979 90.0376 213.979 90.3542 214.142 90.4412C214.304 90.5281 214.567 90.3525 214.73 90.0489L217.377 85.1019ZM163 121.5L217.083 85.4445V84.4445L163 120.5V121.5Z" fill="black"/>
<path d="M364.889 164.613C365.051 164.526 365.051 164.209 364.889 163.906L362.241 158.959C362.079 158.655 361.816 158.48 361.653 158.567C361.491 158.653 361.491 158.97 361.653 159.274L364.006 163.671L361.653 164.93C361.491 165.017 361.491 165.334 361.653 165.638C361.816 165.941 362.079 166.117 362.241 166.03L364.889 164.613ZM318 133.5L364.595 164.563V163.563L318 132.5V133.5Z" fill="black"/>
<path d="M242.706 84.4503C242.543 84.5373 242.543 84.8539 242.706 85.1574L245.353 90.1045C245.516 90.408 245.779 90.5836 245.942 90.4967C246.104 90.4097 246.104 90.0932 245.942 89.7896L243.588 85.3922L245.942 84.1327C246.104 84.0458 246.104 83.7292 245.942 83.4256C245.779 83.1221 245.516 82.9464 245.353 83.0334L242.706 84.4503ZM243 85.5L289.595 116.563V115.563L243 84.5V85.5Z" fill="black"/>
<path d="M42.7058 199.898C42.5434 200.202 42.5434 200.518 42.7058 200.605L45.3534 202.022C45.5159 202.109 45.7793 201.933 45.9417 201.63C46.1042 201.326 46.1042 201.01 45.9417 200.923L43.5883 199.663L45.9417 195.266C46.1042 194.962 46.1042 194.646 45.9417 194.559C45.7793 194.472 45.5159 194.648 45.3534 194.951L42.7058 199.898ZM43 200.556L97.0833 164.5V163.5L43 199.556V200.556Z" fill="black"/>
<path d="M163.11 359.744C162.312 359.744 161.575 359.645 160.898 359.445C160.221 359.25 159.643 358.954 159.166 358.555C158.688 358.161 158.328 357.664 158.087 357.066C157.892 356.598 157.795 356.067 157.795 355.473C157.795 355.315 157.802 355.153 157.816 354.986C157.844 354.666 157.881 354.339 157.927 354.005C157.978 353.671 158.046 353.321 158.129 352.955C158.217 352.584 158.328 352.192 158.463 351.779C158.597 351.366 158.764 350.921 158.964 350.443L160.397 351.104C160.207 351.577 160.049 352.016 159.924 352.419C159.799 352.818 159.699 353.189 159.625 353.532C159.555 353.875 159.506 354.198 159.479 354.499C159.451 354.801 159.437 355.09 159.437 355.369C159.437 355.703 159.479 356.002 159.562 356.266C159.65 356.53 159.761 356.767 159.896 356.976C160.077 357.221 160.304 357.409 160.578 357.539C160.851 357.674 161.139 357.771 161.44 357.831C161.746 357.892 162.046 357.926 162.338 357.936C162.634 357.95 162.892 357.957 163.11 357.957C163.24 357.957 163.428 357.947 163.673 357.929C163.924 357.91 164.195 357.878 164.487 357.831C164.784 357.785 165.088 357.725 165.399 357.65C165.709 357.576 165.99 357.483 166.24 357.372C166.495 357.261 166.702 357.131 166.859 356.983C167.022 356.834 167.103 356.66 167.103 356.461C167.103 356.428 167.061 356.377 166.978 356.308C166.899 356.243 166.788 356.169 166.644 356.085C166.505 356.002 166.34 355.914 166.15 355.821C165.96 355.733 165.756 355.647 165.538 355.563C165.218 355.457 164.9 355.378 164.585 355.327C164.269 355.276 163.956 355.223 163.646 355.167L163.882 353.428H169.406V355.209H168.105C168.29 355.436 168.413 355.659 168.473 355.877C168.538 356.099 168.573 356.294 168.578 356.461C168.559 356.869 168.455 357.233 168.265 357.553C168.074 357.878 167.829 358.161 167.527 358.402C167.23 358.648 166.892 358.854 166.512 359.021C166.131 359.192 165.742 359.332 165.343 359.438C164.944 359.545 164.55 359.621 164.16 359.668C163.775 359.719 163.425 359.744 163.11 359.744ZM169.134 353.428H169.273C169.575 353.428 169.874 353.428 170.171 353.428C170.472 353.428 170.727 353.416 170.936 353.393C170.843 353.333 170.741 353.247 170.63 353.136C170.519 353.02 170.414 352.885 170.317 352.732C170.224 352.574 170.143 352.398 170.073 352.203C170.009 352.004 169.974 351.786 169.969 351.55C169.964 351.489 169.962 351.429 169.962 351.369C169.962 351.179 169.988 350.968 170.039 350.736C170.094 350.499 170.182 350.258 170.303 350.012C170.428 349.766 170.579 349.537 170.755 349.323C170.931 349.106 171.126 348.918 171.34 348.76C171.553 348.598 171.782 348.472 172.028 348.384C172.246 348.306 172.471 348.266 172.703 348.266C172.731 348.266 172.756 348.266 172.78 348.266C173.155 348.28 173.503 348.377 173.823 348.558C174.148 348.734 174.428 348.964 174.665 349.247C174.901 349.53 175.087 349.852 175.221 350.214C175.356 350.571 175.423 350.937 175.423 351.313C175.423 351.675 175.356 352.025 175.221 352.363C175.091 352.697 174.922 353.01 174.713 353.303C174.936 353.34 175.177 353.37 175.437 353.393C175.701 353.416 175.952 353.428 176.188 353.428H176.376V355.209H176.237C175.88 355.209 175.534 355.202 175.2 355.188C174.871 355.179 174.56 355.153 174.268 355.111C173.976 355.07 173.702 355.012 173.447 354.937C173.197 354.859 172.974 354.752 172.78 354.617C172.64 354.719 172.441 354.808 172.181 354.882C171.926 354.956 171.639 355.016 171.319 355.063C170.999 355.114 170.66 355.151 170.303 355.174C169.951 355.197 169.607 355.209 169.273 355.209H169.134V353.428ZM172.759 350.026C172.638 350.049 172.499 350.098 172.341 350.172C172.188 350.242 172.042 350.341 171.903 350.471C171.769 350.597 171.653 350.752 171.555 350.937C171.462 351.123 171.416 351.343 171.416 351.598C171.416 351.682 171.455 351.791 171.534 351.925C171.613 352.055 171.717 352.187 171.847 352.322C171.977 352.452 172.126 352.574 172.293 352.69C172.46 352.802 172.631 352.881 172.807 352.927C172.946 352.857 173.081 352.767 173.211 352.656C173.345 352.544 173.464 352.424 173.566 352.294C173.668 352.159 173.749 352.023 173.809 351.883C173.874 351.74 173.906 351.603 173.906 351.473C173.906 351.292 173.867 351.121 173.788 350.958C173.714 350.791 173.619 350.643 173.503 350.513C173.387 350.383 173.262 350.277 173.127 350.193C172.997 350.105 172.875 350.049 172.759 350.026ZM172.585 346.04L171.402 347.223L170.206 346.033L171.388 344.843L172.585 346.04ZM175.214 346.047L174.032 347.237L172.835 346.04L174.018 344.857L175.214 346.047ZM176.27 353.428C176.757 353.428 177.225 353.414 177.675 353.386C178.125 353.354 178.536 353.31 178.907 353.254C179.278 353.198 179.598 353.131 179.867 353.052C180.136 352.973 180.337 352.885 180.472 352.788H179.762C179.354 352.788 178.965 352.737 178.593 352.635C178.227 352.528 177.905 352.37 177.627 352.162C177.348 351.953 177.126 351.693 176.959 351.383C176.796 351.067 176.715 350.701 176.715 350.283C176.715 350.038 176.741 349.785 176.792 349.525C176.843 349.266 176.919 349.013 177.021 348.767C177.123 348.521 177.246 348.289 177.39 348.071C177.534 347.853 177.698 347.663 177.884 347.501C178.069 347.334 178.273 347.204 178.496 347.111C178.719 347.014 178.96 346.965 179.22 346.965C179.54 346.965 179.839 347.032 180.117 347.167C180.395 347.301 180.648 347.485 180.875 347.717C181.102 347.944 181.304 348.208 181.48 348.51C181.657 348.811 181.805 349.129 181.926 349.463C182.046 349.797 182.137 350.137 182.197 350.485C182.262 350.828 182.294 351.155 182.294 351.466C182.294 351.995 182.22 352.454 182.072 352.843C181.928 353.233 181.724 353.567 181.46 353.845C181.2 354.123 180.887 354.351 180.52 354.527C180.159 354.703 179.758 354.842 179.317 354.944C178.876 355.046 178.403 355.116 177.898 355.153C177.397 355.19 176.878 355.209 176.34 355.209H176.103V353.428H176.27ZM179.22 348.76C179.196 348.755 179.173 348.753 179.15 348.753C179.057 348.753 178.951 348.79 178.83 348.864C178.709 348.939 178.593 349.045 178.482 349.184C178.371 349.323 178.28 349.481 178.211 349.657C178.141 349.829 178.107 349.998 178.107 350.165C178.107 350.174 178.107 350.184 178.107 350.193C178.107 350.36 178.144 350.497 178.218 350.603C178.292 350.706 178.392 350.784 178.517 350.84C178.647 350.896 178.795 350.935 178.962 350.958C179.134 350.981 179.315 350.998 179.505 351.007C179.63 351.012 179.76 351.014 179.894 351.014C179.959 351.014 180.059 351.014 180.193 351.014C180.333 351.009 180.474 351.002 180.618 350.993C180.576 350.826 180.516 350.62 180.437 350.374C180.363 350.123 180.268 349.882 180.152 349.65C180.04 349.414 179.906 349.21 179.748 349.038C179.595 348.867 179.419 348.774 179.22 348.76ZM180.5 344.704L179.164 346.04L177.835 344.704L179.164 343.376L180.5 344.704ZM185.532 344.141C185.648 345.027 185.729 345.873 185.775 346.68C185.821 347.482 185.849 348.268 185.859 349.038C185.868 349.692 185.87 350.297 185.866 350.854C185.866 351.41 185.861 351.93 185.852 352.412C185.842 352.89 185.828 353.337 185.81 353.755C185.791 354.168 185.773 354.555 185.754 354.917L183.932 355.195C184.029 353.664 184.078 352.312 184.078 351.139C184.078 350.666 184.071 350.223 184.057 349.81C184.02 348.86 183.978 347.967 183.932 347.132C183.885 346.293 183.823 345.49 183.744 344.725L185.532 344.141ZM197.157 359.744C196.359 359.744 195.622 359.645 194.945 359.445C194.267 359.25 193.69 358.954 193.212 358.555C192.735 358.161 192.375 357.664 192.134 357.066C191.939 356.598 191.842 356.067 191.842 355.473C191.842 355.315 191.849 355.153 191.863 354.986C191.891 354.666 191.928 354.339 191.974 354.005C192.025 353.671 192.092 353.321 192.176 352.955C192.264 352.584 192.375 352.192 192.51 351.779C192.644 351.366 192.811 350.921 193.011 350.443L194.444 351.104C194.254 351.577 194.096 352.016 193.971 352.419C193.845 352.818 193.746 353.189 193.672 353.532C193.602 353.875 193.553 354.198 193.525 354.499C193.498 354.801 193.484 355.09 193.484 355.369C193.484 355.703 193.525 356.002 193.609 356.266C193.697 356.53 193.808 356.767 193.943 356.976C194.124 357.221 194.351 357.409 194.625 357.539C194.898 357.674 195.186 357.771 195.487 357.831C195.793 357.892 196.092 357.926 196.385 357.936C196.681 357.95 196.939 357.957 197.157 357.957C197.287 357.957 197.474 357.947 197.72 357.929C197.971 357.91 198.242 357.878 198.534 357.831C198.831 357.785 199.135 357.725 199.445 357.65C199.756 357.576 200.037 357.483 200.287 357.372C200.542 357.261 200.749 357.131 200.906 356.983C201.069 356.834 201.15 356.66 201.15 356.461C201.15 356.428 201.108 356.377 201.025 356.308C200.946 356.243 200.834 356.169 200.691 356.085C200.552 356.002 200.387 355.914 200.197 355.821C200.007 355.733 199.803 355.647 199.585 355.563C199.265 355.457 198.947 355.378 198.632 355.327C198.316 355.276 198.003 355.223 197.692 355.167L197.929 353.428H203.452V355.209H202.152C202.337 355.436 202.46 355.659 202.52 355.877C202.585 356.099 202.62 356.294 202.625 356.461C202.606 356.869 202.502 357.233 202.312 357.553C202.121 357.878 201.876 358.161 201.574 358.402C201.277 358.648 200.939 358.854 200.558 359.021C200.178 359.192 199.789 359.332 199.39 359.438C198.991 359.545 198.597 359.621 198.207 359.668C197.822 359.719 197.472 359.744 197.157 359.744ZM203.473 353.428C203.71 353.428 203.932 353.381 204.141 353.289C204.355 353.191 204.556 353.02 204.746 352.774C204.941 352.523 205.122 352.183 205.289 351.751C205.461 351.32 205.623 350.768 205.776 350.096L207.48 350.576C207.369 350.961 207.269 351.332 207.181 351.689C207.093 352.041 207.044 352.345 207.035 352.6C207.035 352.623 207.035 352.644 207.035 352.663C207.035 352.746 207.042 352.834 207.056 352.927C207.075 353.02 207.105 353.106 207.146 353.184C207.188 353.263 207.244 353.326 207.313 353.372C207.378 353.414 207.45 353.435 207.529 353.435C207.538 353.435 207.548 353.435 207.557 353.435C207.728 353.43 207.891 353.368 208.044 353.247C208.197 353.126 208.338 352.971 208.468 352.781C208.603 352.591 208.723 352.375 208.83 352.134C208.941 351.893 209.039 351.649 209.122 351.403C209.21 351.153 209.284 350.91 209.345 350.673C209.405 350.437 209.451 350.228 209.484 350.047L211.126 350.381C211.065 350.659 211.017 350.917 210.979 351.153C210.942 351.385 210.919 351.619 210.91 351.856C210.905 351.916 210.903 351.976 210.903 352.037C210.903 352.152 210.91 352.289 210.924 352.447C210.942 352.6 210.982 352.751 211.042 352.899C211.102 353.048 211.186 353.17 211.292 353.268C211.404 353.361 211.548 353.407 211.724 353.407C211.923 353.407 212.083 353.33 212.204 353.177C212.329 353.02 212.424 352.82 212.489 352.579C212.554 352.338 212.596 352.071 212.614 351.779C212.637 351.482 212.649 351.195 212.649 350.917C212.649 350.828 212.647 350.759 212.642 350.708C212.642 350.652 212.642 350.601 212.642 350.555C212.642 350.508 212.64 350.457 212.635 350.402C212.635 350.341 212.635 350.26 212.635 350.158L214.395 350.019C214.409 350.172 214.423 350.323 214.437 350.471C214.451 350.615 214.465 350.766 214.479 350.923C214.492 351.077 214.509 351.241 214.527 351.417C214.55 351.589 214.576 351.777 214.604 351.981C214.636 352.222 214.704 352.433 214.806 352.614C214.912 352.795 215.035 352.946 215.174 353.066C215.313 353.187 215.462 353.277 215.619 353.337C215.782 353.398 215.935 353.428 216.079 353.428H216.336V355.209H216.113C215.886 355.209 215.661 355.186 215.439 355.139C215.221 355.093 215.012 355.021 214.812 354.923C214.613 354.826 214.425 354.703 214.249 354.555C214.077 354.402 213.927 354.221 213.797 354.012C213.574 354.374 213.282 354.664 212.92 354.882C212.559 355.1 212.16 355.209 211.724 355.209C211.288 355.209 210.891 355.104 210.534 354.896C210.182 354.687 209.901 354.409 209.692 354.061C209.558 354.232 209.412 354.39 209.254 354.534C209.101 354.673 208.934 354.796 208.753 354.903C208.577 355.005 208.389 355.083 208.19 355.139C207.99 355.199 207.782 355.23 207.564 355.23C207.355 355.23 207.153 355.202 206.959 355.146C206.764 355.095 206.583 355.019 206.416 354.917C206.249 354.814 206.098 354.692 205.964 354.548C205.829 354.399 205.718 354.235 205.63 354.054C205.398 354.462 205.113 354.757 204.774 354.937C204.436 355.118 204.004 355.209 203.48 355.209H203.181V353.428H203.473ZM222.261 353.428V355.209H222.122C221.672 355.209 221.292 355.137 220.981 354.993C220.671 354.849 220.406 354.664 220.188 354.437C220.035 354.631 219.808 354.782 219.507 354.889C219.21 354.991 218.878 355.065 218.512 355.111C218.145 355.162 217.767 355.19 217.378 355.195C216.993 355.204 216.638 355.209 216.314 355.209H216.056V353.428H216.314C216.856 353.428 217.313 353.398 217.684 353.337C218.055 353.272 218.354 353.18 218.581 353.059C218.813 352.939 218.98 352.788 219.082 352.607C219.184 352.421 219.235 352.208 219.235 351.967C219.235 351.809 219.205 351.601 219.145 351.341C219.085 351.077 218.994 350.738 218.874 350.325L220.585 349.845C220.645 350.049 220.692 350.23 220.724 350.388C220.761 350.541 220.789 350.696 220.807 350.854C220.831 351.007 220.849 351.174 220.863 351.355C220.882 351.531 220.9 351.742 220.919 351.988C220.933 352.136 220.967 352.296 221.023 352.468C221.079 352.635 221.155 352.79 221.253 352.934C221.355 353.073 221.478 353.191 221.621 353.289C221.765 353.381 221.932 353.428 222.122 353.428H222.261ZM218.644 357.268L217.461 358.45L216.265 357.261L217.447 356.071L218.644 357.268ZM221.274 357.275L220.091 358.464L218.894 357.268L220.077 356.085L221.274 357.275ZM221.978 353.428H222.486C222.653 353.428 222.808 353.414 222.952 353.386C223.096 353.358 223.223 353.3 223.335 353.212C223.446 353.119 223.536 352.992 223.606 352.83C223.675 352.667 223.72 352.449 223.738 352.176C223.738 352.069 223.74 351.883 223.745 351.619C223.754 351.35 223.761 351.032 223.766 350.666C223.771 350.295 223.775 349.889 223.78 349.449C223.784 349.008 223.787 348.558 223.787 348.099C223.787 347.742 223.784 347.392 223.78 347.049C223.78 346.701 223.775 346.367 223.766 346.047C223.761 345.727 223.75 345.426 223.731 345.143C223.717 344.86 223.696 344.602 223.668 344.37L225.442 344.141C225.475 344.391 225.5 344.674 225.519 344.99C225.537 345.305 225.551 345.641 225.561 345.998C225.575 346.351 225.582 346.722 225.582 347.111C225.586 347.496 225.588 347.886 225.588 348.28C225.588 349.157 225.579 349.919 225.561 350.569C225.547 351.218 225.54 351.793 225.54 352.294C225.54 352.646 225.63 352.925 225.811 353.129C225.992 353.328 226.261 353.428 226.618 353.428H226.771V355.209H226.618C226.59 355.209 226.565 355.209 226.542 355.209C226.361 355.209 226.182 355.192 226.006 355.16C225.834 355.132 225.667 355.088 225.505 355.028C225.347 354.972 225.201 354.905 225.067 354.826C224.932 354.747 224.814 354.666 224.712 354.583C224.577 354.712 224.429 354.819 224.267 354.903C224.109 354.981 223.947 355.044 223.78 355.09C223.613 355.137 223.448 355.167 223.286 355.181C223.124 355.199 222.977 355.209 222.848 355.209H221.978V353.428ZM226.494 353.428H228.657C228.926 353.428 229.167 353.395 229.381 353.33C229.599 353.266 229.782 353.182 229.93 353.08C230.079 352.973 230.192 352.853 230.271 352.718C230.355 352.579 230.396 352.438 230.396 352.294C230.396 352.071 230.352 351.83 230.264 351.57C230.176 351.306 230.058 351.039 229.909 350.77C229.766 350.497 229.594 350.223 229.395 349.95C229.2 349.671 228.993 349.407 228.775 349.157C228.557 348.901 228.333 348.665 228.101 348.447C227.873 348.229 227.655 348.037 227.447 347.87L227.614 345.908L233.701 343.334L234.348 344.927L229.095 347.083C229.453 347.394 229.763 347.703 230.028 348.009C230.297 348.31 230.535 348.614 230.744 348.92C230.957 349.221 231.15 349.525 231.322 349.831C231.493 350.137 231.66 350.446 231.822 350.757C231.938 350.979 232.054 351.197 232.17 351.41C232.286 351.624 232.411 351.842 232.546 352.064V352.057C232.671 352.266 232.803 352.454 232.942 352.621C233.086 352.788 233.239 352.932 233.402 353.052C233.568 353.173 233.749 353.266 233.944 353.33C234.144 353.395 234.362 353.428 234.598 353.428H235.036V355.209H234.835C234.464 355.209 234.127 355.183 233.826 355.132C233.524 355.081 233.244 355 232.984 354.889C232.729 354.777 232.488 354.636 232.261 354.464C232.038 354.288 231.818 354.077 231.6 353.831C231.437 354.072 231.254 354.279 231.05 354.45C230.846 354.617 230.626 354.757 230.389 354.868C230.153 354.974 229.902 355.053 229.638 355.104C229.378 355.16 229.109 355.195 228.831 355.209H226.494V353.428ZM233.485 342.68L227.614 345.073L227.662 344.176L233.144 341.97L233.485 342.68ZM234.759 353.428H235.879C236.097 353.428 236.32 353.416 236.547 353.393C236.779 353.365 236.988 353.312 237.173 353.233C237.359 353.15 237.509 353.031 237.625 352.878C237.746 352.725 237.806 352.521 237.806 352.266C237.806 352.146 237.781 351.976 237.73 351.758C237.679 351.54 237.611 351.299 237.528 351.035C237.445 350.77 237.345 350.497 237.229 350.214C237.118 349.931 236.999 349.667 236.874 349.421L238.481 348.628C238.597 348.892 238.713 349.173 238.829 349.47C238.945 349.766 239.047 350.072 239.135 350.388C239.228 350.699 239.302 351.012 239.358 351.327C239.413 351.642 239.441 351.951 239.441 352.252C239.441 352.772 239.353 353.219 239.177 353.595C239 353.966 238.755 354.272 238.439 354.513C238.124 354.75 237.746 354.923 237.305 355.035C236.869 355.151 236.389 355.209 235.865 355.209H234.759V353.428ZM238.314 346.27L236.978 347.605L235.65 346.27L236.978 344.941L238.314 346.27ZM242.657 344.141C242.773 345.027 242.854 345.873 242.9 346.68C242.946 347.482 242.974 348.268 242.984 349.038C242.993 349.692 242.995 350.297 242.991 350.854C242.991 351.41 242.986 351.93 242.977 352.412C242.967 352.89 242.953 353.337 242.935 353.755C242.916 354.168 242.898 354.555 242.879 354.917L241.057 355.195C241.154 353.664 241.203 352.312 241.203 351.139C241.203 350.666 241.196 350.223 241.182 349.81C241.145 348.86 241.103 347.967 241.057 347.132C241.01 346.293 240.948 345.49 240.869 344.725L242.657 344.141Z" fill="black"/>
</svg>
