<svg width="400" height="400" viewBox="0 0 400 400" fill="none" xmlns="http://www.w3.org/2000/svg">
<rect width="400" height="400" fill="white"/>
<path d="M167.797 53.7443C167 53.7443 166.262 53.6446 165.585 53.4452C164.908 53.2504 164.331 52.9536 163.853 52.5548C163.375 52.1606 163.016 51.6643 162.775 51.0661C162.58 50.5977 162.483 50.0667 162.483 49.473C162.483 49.3154 162.49 49.153 162.503 48.9861C162.531 48.6661 162.568 48.3391 162.615 48.0052C162.666 47.6713 162.733 47.3212 162.816 46.9548C162.905 46.5838 163.016 46.1919 163.15 45.7791C163.285 45.3664 163.452 44.9212 163.651 44.4435L165.084 45.1043C164.894 45.5774 164.736 46.0157 164.611 46.4191C164.486 46.818 164.386 47.189 164.312 47.5322C164.243 47.8754 164.194 48.1977 164.166 48.4991C164.138 48.8006 164.124 49.0904 164.124 49.3687C164.124 49.7026 164.166 50.0017 164.25 50.2661C164.338 50.5304 164.449 50.767 164.583 50.9757C164.764 51.2214 164.992 51.4093 165.265 51.5391C165.539 51.6736 165.826 51.771 166.128 51.8313C166.434 51.8916 166.733 51.9264 167.025 51.9357C167.322 51.9496 167.579 51.9565 167.797 51.9565C167.927 51.9565 168.115 51.9472 168.361 51.9287C168.611 51.9101 168.883 51.8777 169.175 51.8313C169.472 51.7849 169.775 51.7246 170.086 51.6504C170.397 51.5762 170.677 51.4835 170.928 51.3722C171.183 51.2609 171.389 51.131 171.547 50.9826C171.709 50.8342 171.79 50.6603 171.79 50.4609C171.79 50.4284 171.749 50.3774 171.665 50.3078C171.586 50.2429 171.475 50.1687 171.331 50.0852C171.192 50.0017 171.027 49.9136 170.837 49.8209C170.647 49.7328 170.443 49.647 170.225 49.5635C169.905 49.4568 169.587 49.378 169.272 49.327C168.957 49.2759 168.644 49.2226 168.333 49.167L168.57 47.4278H174.093V49.2087H172.792C172.978 49.4359 173.101 49.6586 173.161 49.8765C173.226 50.0991 173.261 50.2939 173.265 50.4609C173.247 50.869 173.142 51.233 172.952 51.553C172.762 51.8777 172.516 52.1606 172.215 52.4017C171.918 52.6475 171.579 52.8539 171.199 53.0209C170.819 53.1925 170.429 53.3316 170.03 53.4383C169.632 53.5449 169.237 53.6214 168.848 53.6678C168.463 53.7188 168.113 53.7443 167.797 53.7443ZM173.822 47.4278H175.304C175.522 47.4278 175.756 47.4162 176.006 47.393C176.261 47.3652 176.495 47.3119 176.709 47.233C176.927 47.1496 177.105 47.0313 177.244 46.8783C177.388 46.7252 177.46 46.5212 177.46 46.2661C177.46 46.1455 177.435 45.9762 177.384 45.7583C177.333 45.5403 177.265 45.2991 177.182 45.0348C177.098 44.7704 176.999 44.4968 176.883 44.2139C176.771 43.931 176.653 43.6667 176.528 43.4209L178.135 42.6278C178.251 42.8922 178.367 43.1728 178.483 43.4696C178.599 43.7664 178.701 44.0725 178.789 44.3878C178.882 44.6986 178.956 45.0116 179.011 45.327C179.067 45.6423 179.095 45.9507 179.095 46.2522C179.095 46.7901 178.995 47.247 178.796 47.6226C178.596 47.9983 178.323 48.3043 177.975 48.5409C177.632 48.7728 177.228 48.942 176.764 49.0487C176.305 49.1554 175.814 49.2087 175.29 49.2087H173.822V47.4278ZM176.41 51.2678L175.227 52.4504L174.031 51.2609L175.213 50.0713L176.41 51.2678ZM179.039 51.2748L177.857 52.4643L176.66 51.2678L177.843 50.0852L179.039 51.2748ZM180.234 52.3391C180.916 52.2046 181.531 52.0238 182.078 51.7965C182.63 51.5739 183.107 51.3235 183.511 51.0452C183.914 50.767 184.241 50.4701 184.492 50.1548C184.747 49.8394 184.916 49.5241 184.999 49.2087C184.624 49.2087 184.257 49.1971 183.9 49.1739C183.543 49.1507 183.205 49.1043 182.885 49.0348C182.569 48.9699 182.277 48.8771 182.008 48.7565C181.744 48.6313 181.514 48.469 181.319 48.2696C181.129 48.0655 180.981 47.8197 180.874 47.5322C180.768 47.2446 180.714 46.9014 180.714 46.5026C180.714 46.2475 180.742 45.9809 180.798 45.7026C180.853 45.4243 180.932 45.153 181.034 44.8887C181.141 44.6197 181.271 44.367 181.424 44.1304C181.577 43.8893 181.753 43.6783 181.953 43.4974C182.152 43.3119 182.372 43.1658 182.613 43.0591C182.855 42.9525 183.114 42.8991 183.393 42.8991C184.111 42.8991 184.768 43.2191 185.361 43.8591C185.556 44.0771 185.732 44.3206 185.89 44.5896C186.048 44.8586 186.184 45.1461 186.3 45.4522C186.416 45.7583 186.509 46.0783 186.579 46.4122C186.653 46.7414 186.699 47.08 186.718 47.4278H187.184V49.2087H186.572C186.414 49.8951 186.147 50.5119 185.772 51.0591C185.396 51.611 184.944 52.091 184.415 52.4991C183.891 52.9072 183.307 53.2435 182.662 53.5078C182.017 53.7722 181.347 53.9623 180.652 54.0783L180.234 52.3391ZM183.393 44.687C183.272 44.687 183.142 44.738 183.003 44.84C182.864 44.942 182.736 45.0742 182.62 45.2365C182.504 45.3942 182.407 45.5704 182.328 45.7652C182.254 45.96 182.217 46.1501 182.217 46.3357C182.217 46.5304 182.261 46.6928 182.349 46.8226C182.442 46.9525 182.558 47.0568 182.697 47.1357C182.841 47.2145 183.001 47.2748 183.177 47.3165C183.358 47.3536 183.536 47.3791 183.713 47.393C183.81 47.4023 183.917 47.4093 184.033 47.4139C184.148 47.4139 184.267 47.4162 184.387 47.4209C184.513 47.4255 184.635 47.4278 184.756 47.4278C184.877 47.4278 184.99 47.4278 185.097 47.4278C185.083 47.2562 185.048 47.0707 184.993 46.8713C184.942 46.6672 184.874 46.4632 184.791 46.2591C184.707 46.0551 184.612 45.8603 184.506 45.6748C184.399 45.4846 184.283 45.3177 184.158 45.1739C184.037 45.0255 183.912 44.9072 183.782 44.8191C183.652 44.731 183.522 44.687 183.393 44.687ZM193.105 47.4278V49.2087H192.966C192.516 49.2087 192.136 49.1368 191.825 48.993C191.514 48.8493 191.25 48.6638 191.032 48.4365C190.879 48.6313 190.652 48.782 190.35 48.8887C190.054 48.9907 189.722 49.0649 189.356 49.1113C188.989 49.1623 188.611 49.1901 188.222 49.1948C187.837 49.2041 187.482 49.2087 187.157 49.2087H186.9V47.4278H187.157C187.7 47.4278 188.157 47.3977 188.528 47.3374C188.899 47.2725 189.198 47.1797 189.425 47.0591C189.657 46.9386 189.824 46.7878 189.926 46.607C190.028 46.4214 190.079 46.2081 190.079 45.967C190.079 45.8093 190.049 45.6006 189.989 45.3409C189.928 45.0765 189.838 44.738 189.717 44.3252L191.429 43.8452C191.489 44.0493 191.535 44.2301 191.568 44.3878C191.605 44.5409 191.633 44.6962 191.651 44.8539C191.674 45.007 191.693 45.1739 191.707 45.3548C191.725 45.531 191.744 45.742 191.763 45.9878C191.776 46.1362 191.811 46.2962 191.867 46.4678C191.923 46.6348 191.999 46.7901 192.096 46.9339C192.198 47.073 192.321 47.1913 192.465 47.2887C192.609 47.3814 192.776 47.4278 192.966 47.4278H193.105ZM190.016 41.2643L188.834 42.447L187.637 41.2574L188.82 40.0678L190.016 41.2643ZM192.646 41.2713L191.463 42.4609L190.267 41.2643L191.449 40.0817L192.646 41.2713ZM192.822 47.4278H193.351C193.606 47.4278 193.817 47.4 193.984 47.3443C194.151 47.2841 194.28 47.1913 194.373 47.0661C194.466 46.9409 194.528 46.7809 194.561 46.5861C194.598 46.3867 194.617 46.1478 194.617 45.8696C194.617 45.7629 194.617 45.6354 194.617 45.487C194.621 45.3386 194.621 45.1391 194.617 44.8887C194.617 44.6336 194.607 44.3136 194.589 43.9287C194.57 43.5391 194.54 43.0522 194.498 42.4678C194.48 41.9716 194.459 41.4962 194.436 41.0417C194.413 40.5872 194.389 40.1814 194.366 39.8243C194.348 39.4672 194.329 39.1728 194.311 38.9409C194.297 38.709 194.287 38.5675 194.283 38.5165L196.036 38.1409C196.087 38.6881 196.133 39.3258 196.175 40.0539C196.221 40.782 196.263 41.5658 196.3 42.4052C196.319 43.0359 196.335 43.5554 196.349 43.9635C196.363 44.367 196.374 44.7032 196.384 44.9722C196.397 45.2365 196.407 45.4545 196.411 45.6261C196.416 45.793 196.418 45.9554 196.418 46.113C196.418 46.5907 196.358 47.022 196.237 47.407C196.117 47.7872 195.931 48.1119 195.681 48.3809C195.431 48.6452 195.113 48.8493 194.728 48.993C194.343 49.1368 193.884 49.2087 193.351 49.2087H192.822V47.4278ZM201.394 49.2087H201.116C200.174 49.2087 199.46 48.9722 198.973 48.4991C198.486 48.0261 198.24 47.3119 198.236 46.3565C198.236 46.2081 198.24 45.9646 198.25 45.6261C198.259 45.2829 198.264 44.8655 198.264 44.3739C198.264 44.0817 198.261 43.7687 198.257 43.4348C198.252 43.0962 198.245 42.753 198.236 42.4052C198.227 42.0528 198.213 41.7026 198.194 41.3548C198.18 41.0023 198.162 40.6638 198.138 40.3391C198.115 40.0099 198.087 39.7038 198.055 39.4209C198.022 39.1333 197.985 38.8806 197.944 38.6626L199.69 38.1409C199.741 38.4099 199.787 38.7391 199.829 39.1287C199.871 39.5136 199.908 39.9264 199.94 40.367C199.973 40.8075 199.996 41.2574 200.01 41.7165C200.028 42.171 200.038 42.6 200.038 43.0035C200.038 43.2493 200.04 43.5113 200.044 43.7896C200.049 44.0632 200.051 44.3043 200.051 44.513C200.051 44.6893 200.049 44.8562 200.044 45.0139C200.044 45.167 200.042 45.3154 200.038 45.4591C200.038 45.6029 200.035 45.7443 200.031 45.8835C200.031 46.0226 200.031 46.1641 200.031 46.3078C200.031 46.3449 200.031 46.382 200.031 46.4191C200.031 46.5861 200.047 46.7345 200.079 46.8643C200.116 46.9942 200.179 47.1032 200.267 47.1913C200.355 47.2748 200.467 47.3351 200.601 47.3722C200.74 47.4093 200.9 47.4278 201.081 47.4278H201.394V49.2087ZM201.119 47.4278H202.6C202.818 47.4278 203.053 47.4162 203.303 47.393C203.558 47.3652 203.792 47.3119 204.006 47.233C204.224 47.1496 204.402 47.0313 204.541 46.8783C204.685 46.7252 204.757 46.5212 204.757 46.2661C204.757 46.1455 204.731 45.9762 204.68 45.7583C204.629 45.5403 204.562 45.2991 204.479 45.0348C204.395 44.7704 204.295 44.4968 204.18 44.2139C204.068 43.931 203.95 43.6667 203.825 43.4209L205.432 42.6278C205.548 42.8922 205.664 43.1728 205.78 43.4696C205.895 43.7664 205.998 44.0725 206.086 44.3878C206.178 44.6986 206.253 45.0116 206.308 45.327C206.364 45.6423 206.392 45.9507 206.392 46.2522C206.392 46.7901 206.292 47.247 206.093 47.6226C205.893 47.9983 205.62 48.3043 205.272 48.5409C204.929 48.7728 204.525 48.942 204.061 49.0487C203.602 49.1554 203.111 49.2087 202.587 49.2087H201.119V47.4278ZM204.047 51.5809L205.23 50.3983L206.427 51.5878L205.244 52.7774L204.047 51.5809ZM201.418 51.5739L202.6 50.3843L203.797 51.5809L202.614 52.7635L201.418 51.5739ZM205.007 53.5913L203.922 54.6765L202.83 53.5843L203.922 52.4991L205.007 53.5913ZM216.65 52.8748C216.919 52.9212 217.19 52.9443 217.464 52.9443C217.533 52.9443 217.67 52.9397 217.874 52.9304C218.078 52.9212 218.34 52.8794 218.66 52.8052C218.98 52.731 219.286 52.6313 219.578 52.5061C219.875 52.3809 220.146 52.2371 220.392 52.0748L221.331 53.633C221.062 53.7954 220.784 53.9438 220.497 54.0783C220.214 54.2174 219.919 54.3357 219.613 54.433C219.312 54.5304 218.999 54.6046 218.674 54.6557C218.391 54.702 218.101 54.7252 217.804 54.7252C217.758 54.7252 217.709 54.7252 217.658 54.7252C217.222 54.7159 216.786 54.6696 216.351 54.5861C215.919 54.5026 215.506 54.382 215.112 54.2243C214.723 54.0667 214.359 53.8696 214.02 53.633C213.686 53.4012 213.394 53.1299 213.144 52.8191C212.898 52.513 212.703 52.1675 212.559 51.7826C212.415 51.4023 212.341 50.9803 212.337 50.5165C212.351 50.0203 212.443 49.5565 212.615 49.1252C212.786 48.6986 213.014 48.309 213.297 47.9565C213.584 47.5994 213.913 47.2817 214.284 47.0035C214.66 46.7252 215.057 46.4864 215.474 46.287C215.326 46.1478 215.173 46.011 215.015 45.8765C214.862 45.7374 214.713 45.6075 214.57 45.487C214.426 45.3617 214.291 45.2481 214.166 45.1461C214.041 45.0394 213.937 44.949 213.853 44.8748L213.721 43.3861C214.328 42.8574 214.982 42.4609 215.683 42.1965C216.388 41.9275 217.123 41.793 217.888 41.793C218.115 41.793 218.349 41.8093 218.591 41.8417C218.836 41.8742 219.075 41.9252 219.307 41.9948C219.539 42.0643 219.757 42.1548 219.961 42.2661C220.165 42.3774 220.344 42.5142 220.497 42.6765C220.65 42.8342 220.77 43.0174 220.858 43.2261C220.937 43.4301 220.977 43.6574 220.977 43.9078C220.977 43.9217 220.977 43.9357 220.977 43.9496C220.958 44.302 220.888 44.6174 220.768 44.8957C220.652 45.1739 220.499 45.4243 220.309 45.647C220.119 45.8696 219.898 46.069 219.648 46.2452C219.402 46.4214 219.14 46.5838 218.862 46.7322C219.237 46.9409 219.636 47.1101 220.058 47.24C220.485 47.3652 220.9 47.4278 221.304 47.4278H221.54V49.2087H221.304C220.919 49.2087 220.545 49.1693 220.184 49.0904C219.822 49.0116 219.465 48.9003 219.112 48.7565C218.76 48.6081 218.41 48.4342 218.062 48.2348C217.714 48.0307 217.364 47.8058 217.011 47.56C216.673 47.6945 216.33 47.8522 215.982 48.033C215.634 48.2093 215.316 48.418 215.029 48.6591C214.746 48.8957 214.514 49.1646 214.333 49.4661C214.152 49.7675 214.062 50.1084 214.062 50.4887C214.062 50.702 214.104 50.9061 214.187 51.1009C214.275 51.2957 214.389 51.4765 214.528 51.6435C214.667 51.8151 214.827 51.9704 215.008 52.1096C215.189 52.2533 215.374 52.3762 215.564 52.4783C215.759 52.5849 215.949 52.6707 216.135 52.7357C216.325 52.8052 216.497 52.8516 216.65 52.8748ZM217.895 43.4904C217.709 43.4904 217.515 43.5043 217.311 43.5322C217.106 43.5554 216.905 43.5901 216.705 43.6365C216.506 43.6783 216.313 43.7316 216.128 43.7965C215.947 43.8568 215.787 43.9241 215.648 43.9983C215.745 44.1003 215.854 44.2186 215.975 44.353C216.095 44.4829 216.223 44.6197 216.357 44.7635C216.497 44.9072 216.638 45.051 216.782 45.1948C216.926 45.3339 217.067 45.4638 217.206 45.5843C217.512 45.4545 217.797 45.3223 218.062 45.1878C218.326 45.0533 218.556 44.9165 218.751 44.7774C218.95 44.6336 219.108 44.4852 219.224 44.3322C219.339 44.1791 219.4 44.0214 219.404 43.8591C219.4 43.8406 219.37 43.8128 219.314 43.7757C219.258 43.7386 219.168 43.7014 219.043 43.6643C218.922 43.6226 218.767 43.5855 218.577 43.553C218.391 43.5206 218.164 43.4997 217.895 43.4904ZM221.259 47.4278H222.317L222.365 47.3374C222.444 47.1983 222.556 47.0151 222.699 46.7878C222.848 46.5559 223.033 46.2939 223.256 46.0017C223.298 45.7096 223.332 45.3409 223.36 44.8957C223.388 44.4504 223.404 43.9681 223.409 43.4487C223.409 43.1658 223.404 42.8759 223.395 42.5791C223.386 42.2777 223.367 41.9322 223.339 41.5426C223.311 41.153 223.272 40.6986 223.221 40.1791C223.175 39.6551 223.114 39.0313 223.04 38.3078L224.87 37.8348C224.99 38.7252 225.081 39.6388 225.141 40.5757C225.206 41.5125 225.238 42.44 225.238 43.3583V43.9217C225.489 43.7084 225.749 43.5043 226.018 43.3096C226.291 43.1148 226.574 42.9432 226.866 42.7948C227.163 42.6464 227.471 42.5281 227.791 42.44C228.111 42.3519 228.445 42.3078 228.793 42.3078C229.146 42.3078 229.48 42.3635 229.795 42.4748C230.11 42.5861 230.389 42.7484 230.63 42.9617C230.876 43.1704 231.077 43.4255 231.235 43.727C231.393 44.0284 231.49 44.367 231.527 44.7426C231.532 44.8122 231.534 44.8794 231.534 44.9443C231.534 45.4267 231.453 45.8765 231.291 46.2939C231.133 46.7113 230.899 47.0893 230.588 47.4278H232.55V49.2087H230.699C230.333 49.2087 229.925 49.1925 229.475 49.16C229.025 49.1275 228.527 49.0417 227.979 48.9026C227.585 49.0093 227.184 49.0858 226.776 49.1322C226.372 49.1832 225.967 49.2087 225.558 49.2087H221.259V47.4278ZM224.911 47.4278C225.194 47.4278 225.519 47.4209 225.885 47.407C226.256 47.393 226.637 47.3606 227.026 47.3096C227.416 47.2586 227.794 47.182 228.16 47.08C228.531 46.978 228.86 46.8412 229.148 46.6696C229.436 46.498 229.663 46.2823 229.83 46.0226C229.974 45.8 230.045 45.5357 230.045 45.2296C230.045 45.1878 230.043 45.1438 230.038 45.0974C230.029 44.9583 229.983 44.8284 229.899 44.7078C229.82 44.5872 229.709 44.4852 229.565 44.4017C229.426 44.3136 229.259 44.2441 229.065 44.193C228.898 44.1559 228.717 44.1374 228.522 44.1374C228.485 44.1374 228.445 44.1374 228.404 44.1374C228.172 44.1467 227.896 44.207 227.576 44.3183C227.256 44.4249 226.913 44.6058 226.546 44.8609C226.18 45.1159 225.8 45.4522 225.405 45.8696C225.011 46.287 224.626 46.8064 224.251 47.4278H224.911ZM232.442 47.4278C232.929 47.4278 233.397 47.4139 233.847 47.3861C234.297 47.3536 234.707 47.3096 235.078 47.2539C235.449 47.1983 235.769 47.131 236.038 47.0522C236.307 46.9733 236.509 46.8852 236.644 46.7878H235.934C235.526 46.7878 235.136 46.7368 234.765 46.6348C234.399 46.5281 234.077 46.3704 233.798 46.1617C233.52 45.953 233.298 45.6933 233.131 45.3826C232.968 45.0672 232.887 44.7009 232.887 44.2835C232.887 44.0377 232.913 43.7849 232.964 43.5252C233.015 43.2655 233.091 43.0128 233.193 42.767C233.295 42.5212 233.418 42.2893 233.562 42.0713C233.706 41.8533 233.87 41.6632 234.056 41.5009C234.241 41.3339 234.445 41.2041 234.668 41.1113C234.891 41.0139 235.132 40.9652 235.391 40.9652C235.711 40.9652 236.011 41.0325 236.289 41.167C236.567 41.3014 236.82 41.4846 237.047 41.7165C237.274 41.9438 237.476 42.2081 237.652 42.5096C237.829 42.811 237.977 43.1287 238.098 43.4626C238.218 43.7965 238.309 44.1374 238.369 44.4852C238.434 44.8284 238.466 45.1554 238.466 45.4661C238.466 45.9948 238.392 46.4539 238.244 46.8435C238.1 47.233 237.896 47.567 237.631 47.8452C237.372 48.1235 237.059 48.3507 236.692 48.527C236.331 48.7032 235.929 48.8423 235.489 48.9443C235.048 49.0464 234.575 49.1159 234.07 49.153C233.569 49.1901 233.049 49.2087 232.511 49.2087H232.275V47.4278H232.442ZM235.391 42.76C235.368 42.7554 235.345 42.753 235.322 42.753C235.229 42.753 235.122 42.7901 235.002 42.8643C234.881 42.9386 234.765 43.0452 234.654 43.1843C234.543 43.3235 234.452 43.4812 234.383 43.6574C234.313 43.829 234.278 43.9983 234.278 44.1652C234.278 44.1745 234.278 44.1838 234.278 44.193C234.278 44.36 234.316 44.4968 234.39 44.6035C234.464 44.7055 234.564 44.7843 234.689 44.84C234.819 44.8957 234.967 44.9351 235.134 44.9583C235.306 44.9814 235.487 44.9977 235.677 45.007C235.802 45.0116 235.932 45.0139 236.066 45.0139C236.131 45.0139 236.231 45.0139 236.365 45.0139C236.504 45.0093 236.646 45.0023 236.79 44.993C236.748 44.8261 236.688 44.6197 236.609 44.3739C236.535 44.1235 236.44 43.8823 236.324 43.6504C236.212 43.4139 236.078 43.2099 235.92 43.0383C235.767 42.8667 235.591 42.7739 235.391 42.76ZM235.224 38.8713L234.042 40.0539L232.845 38.8643L234.028 37.6748L235.224 38.8713ZM237.854 38.8783L236.671 40.0678L235.475 38.8713L236.658 37.6887L237.854 38.8783Z" fill="black"/>
<path d="M130.588 129.527C130.588 129.541 130.597 129.605 130.615 129.719C130.632 129.825 130.649 129.974 130.667 130.164C130.684 130.347 130.698 130.56 130.71 130.803C130.716 130.973 130.719 131.148 130.719 131.329V131.6C130.696 133.223 130.38 134.664 129.772 135.925V135.915C129.182 137.164 128.38 138.126 127.367 138.802C127.09 138.987 126.838 139.134 126.612 139.243C126.392 139.34 126.172 139.411 125.952 139.453L126.022 139.98C126.091 140.588 126.146 141.226 126.187 141.895C126.233 142.553 126.268 143.222 126.291 143.902C126.32 144.571 126.337 145.241 126.343 145.912C126.354 146.573 126.36 147.205 126.36 147.81L124.632 148.962C124.632 147.856 124.624 146.763 124.606 145.682C124.589 144.595 124.543 143.561 124.467 142.582C124.392 141.595 124.279 140.683 124.129 139.844C123.984 138.994 123.782 138.26 123.521 137.641C123.4 137.346 123.269 137.074 123.13 136.826C122.991 136.578 122.835 136.331 122.662 136.085L124.111 134.012C124.204 134.131 124.288 134.26 124.363 134.397C124.444 134.524 124.522 134.663 124.598 134.815C124.679 134.956 124.76 135.11 124.841 135.279C124.922 135.448 125.012 135.628 125.11 135.82C125.243 136.1 125.373 136.347 125.501 136.561C125.634 136.764 125.784 136.918 125.952 137.022C126.126 137.121 126.323 137.157 126.543 137.129C126.768 137.09 127.043 136.962 127.367 136.746C127.848 136.426 128.21 136.007 128.453 135.49C128.563 135.264 128.652 135.027 128.722 134.779C128.791 134.524 128.846 134.268 128.887 134.011C128.933 133.751 128.965 133.493 128.982 133.238C129 132.983 129.008 132.741 129.008 132.511C129.008 132.212 128.994 131.933 128.965 131.674C128.942 131.411 128.916 131.199 128.887 131.037L130.588 129.527ZM134.952 142.145C134.952 140.789 134.931 139.456 134.891 138.148C134.85 136.832 134.76 135.605 134.622 134.466C134.483 133.328 134.283 132.309 134.023 131.412C133.768 130.51 133.423 129.794 132.989 129.262L134.431 127.195C134.905 127.79 135.299 128.582 135.611 129.57C135.93 130.547 136.173 131.745 136.341 133.164C136.41 133.771 136.465 134.409 136.506 135.078C136.552 135.743 136.587 136.415 136.61 137.096C136.639 137.765 136.656 138.432 136.662 139.096C136.673 139.756 136.679 140.388 136.679 140.994L134.952 142.145Z" fill="black"/>
<path d="M303.341 124.699C303.341 123.342 303.32 121.983 303.28 120.62C303.239 119.25 303.149 117.904 303.011 116.58C302.872 115.256 302.672 113.971 302.411 112.726C302.157 111.485 301.812 110.31 301.378 109.199L302.82 109.054C303.294 110.282 303.688 111.598 304 113.003C304.319 114.405 304.562 115.927 304.73 117.569C304.799 118.269 304.854 118.981 304.895 119.704C304.941 120.43 304.976 121.149 304.999 121.86C305.028 122.568 305.045 123.258 305.051 123.93C305.062 124.605 305.068 125.245 305.068 125.851L303.341 124.699ZM309.093 128.534C309.093 127.178 309.073 125.818 309.033 124.455C308.992 123.086 308.902 121.739 308.763 120.415C308.625 119.091 308.425 117.807 308.164 116.562C307.91 115.321 307.565 114.145 307.131 113.035L308.572 112.889C309.047 114.117 309.441 115.433 309.753 116.838C310.072 118.24 310.315 119.762 310.483 121.405C310.552 122.105 310.607 122.816 310.647 123.539C310.694 124.265 310.729 124.984 310.752 125.695C310.781 126.403 310.798 127.093 310.804 127.765C310.815 128.44 310.821 129.081 310.821 129.686L309.093 128.534Z" fill="black"/>
<path d="M44.9265 217.165L44.9269 223.956L178.68 314.064L366.277 190.834L366.277 184.662L231.548 94.1728L44.9265 217.165Z" fill="#E7E7E7" stroke="black"/>
<path d="M44.2633 216.95L44.2635 223.338L178.088 313.546L178.088 306.662L44.2633 216.95Z" fill="#A3A3A3" stroke="black"/>
<path d="M366.338 184.496L231.171 94.0532L44.3189 216.382L178.64 306.598L366.338 184.496Z" fill="#E7E7E7" stroke="black"/>
<path d="M52.6583 210.818L44.2308 216.436L178.648 306.716L186.455 301.511L52.6583 210.818Z" fill="#A3A3A3" stroke="black"/>
<path d="M194.815 205.747C196.23 206.844 196.867 208.027 196.726 209.296C196.579 210.561 195.675 211.747 194.014 212.855C192.191 214.07 190.149 214.616 187.889 214.492C185.622 214.364 183.424 213.585 181.293 212.154L180.427 211.572C179.064 210.657 178.103 209.69 177.544 208.671C176.985 207.653 176.874 206.66 177.211 205.694C177.553 204.723 178.315 203.844 179.496 203.057C181.134 201.965 182.893 201.38 184.772 201.302C186.651 201.224 188.46 201.664 190.198 202.623L187.273 204.574C186.285 204.003 185.366 203.727 184.516 203.745C183.666 203.763 182.793 204.071 181.896 204.669C180.923 205.317 180.543 206.038 180.756 206.831C180.963 207.621 181.794 208.512 183.249 209.505L184.314 210.221C185.845 211.249 187.196 211.847 188.37 212.015C189.543 212.176 190.631 211.922 191.632 211.255C192.535 210.653 193.001 210.067 193.031 209.499C193.067 208.926 192.686 208.326 191.89 207.698L194.815 205.747ZM195.467 204.455C194.422 203.753 193.692 202.995 193.277 202.182C192.862 201.361 192.811 200.549 193.125 199.745C193.433 198.936 194.087 198.199 195.089 197.531C196.513 196.582 198.109 196.101 199.878 196.089C201.647 196.068 203.332 196.526 204.932 197.461L205.668 197.932C207.279 199.014 208.122 200.184 208.195 201.442C208.268 202.699 207.543 203.835 206.021 204.85C204.498 205.865 202.798 206.35 200.919 206.304C199.046 206.254 197.272 205.667 195.597 204.542L195.467 204.455ZM198.497 202.713C199.496 203.384 200.449 203.773 201.357 203.879C202.258 203.981 203.059 203.799 203.76 203.332C204.443 202.876 204.715 202.347 204.578 201.743C204.44 201.132 203.796 200.44 202.647 199.668C201.671 199.013 200.721 198.634 199.796 198.532C198.871 198.422 198.061 198.598 197.367 199.061C196.678 199.52 196.414 200.056 196.575 200.667C196.73 201.275 197.371 201.957 198.497 202.713ZM213.074 195.302L207.942 189.229L210.886 187.267L217.851 196.709L215.168 198.497L201.083 193.801L204.027 191.839L213.074 195.302ZM227.689 190.405C226.144 191.435 224.414 191.958 222.5 191.974C220.581 191.986 218.833 191.463 217.256 190.404L216.979 190.218C215.922 189.508 215.181 188.739 214.754 187.91C214.334 187.078 214.274 186.259 214.576 185.455C214.873 184.647 215.501 183.923 216.462 183.282C217.903 182.321 219.494 181.872 221.234 181.933C222.974 181.986 224.676 182.571 226.339 183.688L227.491 184.462L220.771 188.942C221.551 189.342 222.377 189.529 223.25 189.503C224.123 189.478 224.91 189.231 225.611 188.764C226.699 188.039 227.154 187.21 226.976 186.277L229.907 186.387C230.085 187.072 229.98 187.768 229.592 188.475C229.203 189.175 228.569 189.818 227.689 190.405ZM218.731 184.818C218.17 185.192 217.903 185.621 217.931 186.105C217.96 186.589 218.277 187.1 218.883 187.639L222.807 185.022L222.582 184.871C221.947 184.46 221.294 184.25 220.623 184.241C219.958 184.228 219.328 184.421 218.731 184.818ZM231.459 177.075C231.025 177.295 230.664 177.501 230.374 177.694C229.303 178.408 228.964 179.117 229.356 179.822L236.242 184.447L233.429 186.323L222.905 179.254L225.561 177.483L226.895 178.274C226.493 177.244 226.792 176.396 227.793 175.728C228.106 175.52 228.441 175.354 228.8 175.231L231.459 177.075Z" fill="black"/>
<path d="M217.377 85.1019C217.54 84.7983 217.54 84.4818 217.377 84.3948L214.73 82.9779C214.567 82.8909 214.304 83.0665 214.142 83.3701C213.979 83.6737 213.979 83.9903 214.142 84.0772L216.495 85.3367L214.142 89.7341C213.979 90.0376 213.979 90.3542 214.142 90.4412C214.304 90.5281 214.567 90.3525 214.73 90.0489L217.377 85.1019ZM163 121.5L217.083 85.4445V84.4445L163 120.5V121.5Z" fill="black"/>
<path d="M364.889 164.613C365.051 164.526 365.051 164.209 364.889 163.906L362.241 158.959C362.079 158.655 361.816 158.48 361.653 158.567C361.491 158.653 361.491 158.97 361.653 159.274L364.006 163.671L361.653 164.93C361.491 165.017 361.491 165.334 361.653 165.638C361.816 165.941 362.079 166.117 362.241 166.03L364.889 164.613ZM318 133.5L364.595 164.563V163.563L318 132.5V133.5Z" fill="black"/>
<path d="M242.706 84.4503C242.543 84.5373 242.543 84.8539 242.706 85.1574L245.353 90.1045C245.516 90.408 245.779 90.5836 245.942 90.4967C246.104 90.4097 246.104 90.0932 245.942 89.7896L243.588 85.3922L245.942 84.1327C246.104 84.0458 246.104 83.7292 245.942 83.4256C245.779 83.1221 245.516 82.9464 245.353 83.0334L242.706 84.4503ZM243 85.5L289.595 116.563V115.563L243 84.5V85.5Z" fill="black"/>
<path d="M42.7058 199.898C42.5434 200.202 42.5434 200.518 42.7058 200.605L45.3534 202.022C45.5159 202.109 45.7793 201.933 45.9417 201.63C46.1042 201.326 46.1042 201.01 45.9417 200.923L43.5883 199.663L45.9417 195.266C46.1042 194.962 46.1042 194.646 45.9417 194.559C45.7793 194.472 45.5159 194.648 45.3534 194.951L42.7058 199.898ZM43 200.556L97.0833 164.5V163.5L43 199.556V200.556Z" fill="black"/>
<path d="M163.11 359.744C162.312 359.744 161.575 359.645 160.898 359.445C160.221 359.25 159.643 358.954 159.166 358.555C158.688 358.161 158.328 357.664 158.087 357.066C157.892 356.598 157.795 356.067 157.795 355.473C157.795 355.315 157.802 355.153 157.816 354.986C157.844 354.666 157.881 354.339 157.927 354.005C157.978 353.671 158.046 353.321 158.129 352.955C158.217 352.584 158.328 352.192 158.463 351.779C158.597 351.366 158.764 350.921 158.964 350.443L160.397 351.104C160.207 351.577 160.049 352.016 159.924 352.419C159.799 352.818 159.699 353.189 159.625 353.532C159.555 353.875 159.506 354.198 159.479 354.499C159.451 354.801 159.437 355.09 159.437 355.369C159.437 355.703 159.479 356.002 159.562 356.266C159.65 356.53 159.761 356.767 159.896 356.976C160.077 357.221 160.304 357.409 160.578 357.539C160.851 357.674 161.139 357.771 161.44 357.831C161.746 357.892 162.046 357.926 162.338 357.936C162.634 357.95 162.892 357.957 163.11 357.957C163.24 357.957 163.428 357.947 163.673 357.929C163.924 357.91 164.195 357.878 164.487 357.831C164.784 357.785 165.088 357.725 165.399 357.65C165.709 357.576 165.99 357.483 166.24 357.372C166.495 357.261 166.702 357.131 166.859 356.983C167.022 356.834 167.103 356.66 167.103 356.461C167.103 356.428 167.061 356.377 166.978 356.308C166.899 356.243 166.788 356.169 166.644 356.085C166.505 356.002 166.34 355.914 166.15 355.821C165.96 355.733 165.756 355.647 165.538 355.563C165.218 355.457 164.9 355.378 164.585 355.327C164.269 355.276 163.956 355.223 163.646 355.167L163.882 353.428H169.406V355.209H168.105C168.29 355.436 168.413 355.659 168.473 355.877C168.538 356.099 168.573 356.294 168.578 356.461C168.559 356.869 168.455 357.233 168.265 357.553C168.074 357.878 167.829 358.161 167.527 358.402C167.23 358.648 166.892 358.854 166.512 359.021C166.131 359.192 165.742 359.332 165.343 359.438C164.944 359.545 164.55 359.621 164.16 359.668C163.775 359.719 163.425 359.744 163.11 359.744ZM169.134 353.428H169.273C169.575 353.428 169.874 353.428 170.171 353.428C170.472 353.428 170.727 353.416 170.936 353.393C170.843 353.333 170.741 353.247 170.63 353.136C170.519 353.02 170.414 352.885 170.317 352.732C170.224 352.574 170.143 352.398 170.073 352.203C170.009 352.004 169.974 351.786 169.969 351.55C169.964 351.489 169.962 351.429 169.962 351.369C169.962 351.179 169.988 350.968 170.039 350.736C170.094 350.499 170.182 350.258 170.303 350.012C170.428 349.766 170.579 349.537 170.755 349.323C170.931 349.106 171.126 348.918 171.34 348.76C171.553 348.598 171.782 348.472 172.028 348.384C172.246 348.306 172.471 348.266 172.703 348.266C172.731 348.266 172.756 348.266 172.78 348.266C173.155 348.28 173.503 348.377 173.823 348.558C174.148 348.734 174.428 348.964 174.665 349.247C174.901 349.53 175.087 349.852 175.221 350.214C175.356 350.571 175.423 350.937 175.423 351.313C175.423 351.675 175.356 352.025 175.221 352.363C175.091 352.697 174.922 353.01 174.713 353.303C174.936 353.34 175.177 353.37 175.437 353.393C175.701 353.416 175.952 353.428 176.188 353.428H176.376V355.209H176.237C175.88 355.209 175.534 355.202 175.2 355.188C174.871 355.179 174.56 355.153 174.268 355.111C173.976 355.07 173.702 355.012 173.447 354.937C173.197 354.859 172.974 354.752 172.78 354.617C172.64 354.719 172.441 354.808 172.181 354.882C171.926 354.956 171.639 355.016 171.319 355.063C170.999 355.114 170.66 355.151 170.303 355.174C169.951 355.197 169.607 355.209 169.273 355.209H169.134V353.428ZM172.759 350.026C172.638 350.049 172.499 350.098 172.341 350.172C172.188 350.242 172.042 350.341 171.903 350.471C171.769 350.597 171.653 350.752 171.555 350.937C171.462 351.123 171.416 351.343 171.416 351.598C171.416 351.682 171.455 351.791 171.534 351.925C171.613 352.055 171.717 352.187 171.847 352.322C171.977 352.452 172.126 352.574 172.293 352.69C172.46 352.802 172.631 352.881 172.807 352.927C172.946 352.857 173.081 352.767 173.211 352.656C173.345 352.544 173.464 352.424 173.566 352.294C173.668 352.159 173.749 352.023 173.809 351.883C173.874 351.74 173.906 351.603 173.906 351.473C173.906 351.292 173.867 351.121 173.788 350.958C173.714 350.791 173.619 350.643 173.503 350.513C173.387 350.383 173.262 350.277 173.127 350.193C172.997 350.105 172.875 350.049 172.759 350.026ZM172.585 346.04L171.402 347.223L170.206 346.033L171.388 344.843L172.585 346.04ZM175.214 346.047L174.032 347.237L172.835 346.04L174.018 344.857L175.214 346.047ZM176.27 353.428C176.757 353.428 177.225 353.414 177.675 353.386C178.125 353.354 178.536 353.31 178.907 353.254C179.278 353.198 179.598 353.131 179.867 353.052C180.136 352.973 180.337 352.885 180.472 352.788H179.762C179.354 352.788 178.965 352.737 178.593 352.635C178.227 352.528 177.905 352.37 177.627 352.162C177.348 351.953 177.126 351.693 176.959 351.383C176.796 351.067 176.715 350.701 176.715 350.283C176.715 350.038 176.741 349.785 176.792 349.525C176.843 349.266 176.919 349.013 177.021 348.767C177.123 348.521 177.246 348.289 177.39 348.071C177.534 347.853 177.698 347.663 177.884 347.501C178.069 347.334 178.273 347.204 178.496 347.111C178.719 347.014 178.96 346.965 179.22 346.965C179.54 346.965 179.839 347.032 180.117 347.167C180.395 347.301 180.648 347.485 180.875 347.717C181.102 347.944 181.304 348.208 181.48 348.51C181.657 348.811 181.805 349.129 181.926 349.463C182.046 349.797 182.137 350.137 182.197 350.485C182.262 350.828 182.294 351.155 182.294 351.466C182.294 351.995 182.22 352.454 182.072 352.843C181.928 353.233 181.724 353.567 181.46 353.845C181.2 354.123 180.887 354.351 180.52 354.527C180.159 354.703 179.758 354.842 179.317 354.944C178.876 355.046 178.403 355.116 177.898 355.153C177.397 355.19 176.878 355.209 176.34 355.209H176.103V353.428H176.27ZM179.22 348.76C179.196 348.755 179.173 348.753 179.15 348.753C179.057 348.753 178.951 348.79 178.83 348.864C178.709 348.939 178.593 349.045 178.482 349.184C178.371 349.323 178.28 349.481 178.211 349.657C178.141 349.829 178.107 349.998 178.107 350.165C178.107 350.174 178.107 350.184 178.107 350.193C178.107 350.36 178.144 350.497 178.218 350.603C178.292 350.706 178.392 350.784 178.517 350.84C178.647 350.896 178.795 350.935 178.962 350.958C179.134 350.981 179.315 350.998 179.505 351.007C179.63 351.012 179.76 351.014 179.894 351.014C179.959 351.014 180.059 351.014 180.193 351.014C180.333 351.009 180.474 351.002 180.618 350.993C180.576 350.826 180.516 350.62 180.437 350.374C180.363 350.123 180.268 349.882 180.152 349.65C180.04 349.414 179.906 349.21 179.748 349.038C179.595 348.867 179.419 348.774 179.22 348.76ZM180.5 344.704L179.164 346.04L177.835 344.704L179.164 343.376L180.5 344.704ZM185.532 344.141C185.648 345.027 185.729 345.873 185.775 346.68C185.821 347.482 185.849 348.268 185.859 349.038C185.868 349.692 185.87 350.297 185.866 350.854C185.866 351.41 185.861 351.93 185.852 352.412C185.842 352.89 185.828 353.337 185.81 353.755C185.791 354.168 185.773 354.555 185.754 354.917L183.932 355.195C184.029 353.664 184.078 352.312 184.078 351.139C184.078 350.666 184.071 350.223 184.057 349.81C184.02 348.86 183.978 347.967 183.932 347.132C183.885 346.293 183.823 345.49 183.744 344.725L185.532 344.141ZM197.157 359.744C196.359 359.744 195.622 359.645 194.945 359.445C194.267 359.25 193.69 358.954 193.212 358.555C192.735 358.161 192.375 357.664 192.134 357.066C191.939 356.598 191.842 356.067 191.842 355.473C191.842 355.315 191.849 355.153 191.863 354.986C191.891 354.666 191.928 354.339 191.974 354.005C192.025 353.671 192.092 353.321 192.176 352.955C192.264 352.584 192.375 352.192 192.51 351.779C192.644 351.366 192.811 350.921 193.011 350.443L194.444 351.104C194.254 351.577 194.096 352.016 193.971 352.419C193.845 352.818 193.746 353.189 193.672 353.532C193.602 353.875 193.553 354.198 193.525 354.499C193.498 354.801 193.484 355.09 193.484 355.369C193.484 355.703 193.525 356.002 193.609 356.266C193.697 356.53 193.808 356.767 193.943 356.976C194.124 357.221 194.351 357.409 194.625 357.539C194.898 357.674 195.186 357.771 195.487 357.831C195.793 357.892 196.092 357.926 196.385 357.936C196.681 357.95 196.939 357.957 197.157 357.957C197.287 357.957 197.474 357.947 197.72 357.929C197.971 357.91 198.242 357.878 198.534 357.831C198.831 357.785 199.135 357.725 199.445 357.65C199.756 357.576 200.037 357.483 200.287 357.372C200.542 357.261 200.749 357.131 200.906 356.983C201.069 356.834 201.15 356.66 201.15 356.461C201.15 356.428 201.108 356.377 201.025 356.308C200.946 356.243 200.834 356.169 200.691 356.085C200.552 356.002 200.387 355.914 200.197 355.821C200.007 355.733 199.803 355.647 199.585 355.563C199.265 355.457 198.947 355.378 198.632 355.327C198.316 355.276 198.003 355.223 197.692 355.167L197.929 353.428H203.452V355.209H202.152C202.337 355.436 202.46 355.659 202.52 355.877C202.585 356.099 202.62 356.294 202.625 356.461C202.606 356.869 202.502 357.233 202.312 357.553C202.121 357.878 201.876 358.161 201.574 358.402C201.277 358.648 200.939 358.854 200.558 359.021C200.178 359.192 199.789 359.332 199.39 359.438C198.991 359.545 198.597 359.621 198.207 359.668C197.822 359.719 197.472 359.744 197.157 359.744ZM203.473 353.428C203.71 353.428 203.932 353.381 204.141 353.289C204.355 353.191 204.556 353.02 204.746 352.774C204.941 352.523 205.122 352.183 205.289 351.751C205.461 351.32 205.623 350.768 205.776 350.096L207.48 350.576C207.369 350.961 207.269 351.332 207.181 351.689C207.093 352.041 207.044 352.345 207.035 352.6C207.035 352.623 207.035 352.644 207.035 352.663C207.035 352.746 207.042 352.834 207.056 352.927C207.075 353.02 207.105 353.106 207.146 353.184C207.188 353.263 207.244 353.326 207.313 353.372C207.378 353.414 207.45 353.435 207.529 353.435C207.538 353.435 207.548 353.435 207.557 353.435C207.728 353.43 207.891 353.368 208.044 353.247C208.197 353.126 208.338 352.971 208.468 352.781C208.603 352.591 208.723 352.375 208.83 352.134C208.941 351.893 209.039 351.649 209.122 351.403C209.21 351.153 209.284 350.91 209.345 350.673C209.405 350.437 209.451 350.228 209.484 350.047L211.126 350.381C211.065 350.659 211.017 350.917 210.979 351.153C210.942 351.385 210.919 351.619 210.91 351.856C210.905 351.916 210.903 351.976 210.903 352.037C210.903 352.152 210.91 352.289 210.924 352.447C210.942 352.6 210.982 352.751 211.042 352.899C211.102 353.048 211.186 353.17 211.292 353.268C211.404 353.361 211.548 353.407 211.724 353.407C211.923 353.407 212.083 353.33 212.204 353.177C212.329 353.02 212.424 352.82 212.489 352.579C212.554 352.338 212.596 352.071 212.614 351.779C212.637 351.482 212.649 351.195 212.649 350.917C212.649 350.828 212.647 350.759 212.642 350.708C212.642 350.652 212.642 350.601 212.642 350.555C212.642 350.508 212.64 350.457 212.635 350.402C212.635 350.341 212.635 350.26 212.635 350.158L214.395 350.019C214.409 350.172 214.423 350.323 214.437 350.471C214.451 350.615 214.465 350.766 214.479 350.923C214.492 351.077 214.509 351.241 214.527 351.417C214.55 351.589 214.576 351.777 214.604 351.981C214.636 352.222 214.704 352.433 214.806 352.614C214.912 352.795 215.035 352.946 215.174 353.066C215.313 353.187 215.462 353.277 215.619 353.337C215.782 353.398 215.935 353.428 216.079 353.428H216.336V355.209H216.113C215.886 355.209 215.661 355.186 215.439 355.139C215.221 355.093 215.012 355.021 214.812 354.923C214.613 354.826 214.425 354.703 214.249 354.555C214.077 354.402 213.927 354.221 213.797 354.012C213.574 354.374 213.282 354.664 212.92 354.882C212.559 355.1 212.16 355.209 211.724 355.209C211.288 355.209 210.891 355.104 210.534 354.896C210.182 354.687 209.901 354.409 209.692 354.061C209.558 354.232 209.412 354.39 209.254 354.534C209.101 354.673 208.934 354.796 208.753 354.903C208.577 355.005 208.389 355.083 208.19 355.139C207.99 355.199 207.782 355.23 207.564 355.23C207.355 355.23 207.153 355.202 206.959 355.146C206.764 355.095 206.583 355.019 206.416 354.917C206.249 354.814 206.098 354.692 205.964 354.548C205.829 354.399 205.718 354.235 205.63 354.054C205.398 354.462 205.113 354.757 204.774 354.937C204.436 355.118 204.004 355.209 203.48 355.209H203.181V353.428H203.473ZM222.261 353.428V355.209H222.122C221.672 355.209 221.292 355.137 220.981 354.993C220.671 354.849 220.406 354.664 220.188 354.437C220.035 354.631 219.808 354.782 219.507 354.889C219.21 354.991 218.878 355.065 218.512 355.111C218.145 355.162 217.767 355.19 217.378 355.195C216.993 355.204 216.638 355.209 216.314 355.209H216.056V353.428H216.314C216.856 353.428 217.313 353.398 217.684 353.337C218.055 353.272 218.354 353.18 218.581 353.059C218.813 352.939 218.98 352.788 219.082 352.607C219.184 352.421 219.235 352.208 219.235 351.967C219.235 351.809 219.205 351.601 219.145 351.341C219.085 351.077 218.994 350.738 218.874 350.325L220.585 349.845C220.645 350.049 220.692 350.23 220.724 350.388C220.761 350.541 220.789 350.696 220.807 350.854C220.831 351.007 220.849 351.174 220.863 351.355C220.882 351.531 220.9 351.742 220.919 351.988C220.933 352.136 220.967 352.296 221.023 352.468C221.079 352.635 221.155 352.79 221.253 352.934C221.355 353.073 221.478 353.191 221.621 353.289C221.765 353.381 221.932 353.428 222.122 353.428H222.261ZM218.644 357.268L217.461 358.45L216.265 357.261L217.447 356.071L218.644 357.268ZM221.274 357.275L220.091 358.464L218.894 357.268L220.077 356.085L221.274 357.275ZM221.978 353.428H222.486C222.653 353.428 222.808 353.414 222.952 353.386C223.096 353.358 223.223 353.3 223.335 353.212C223.446 353.119 223.536 352.992 223.606 352.83C223.675 352.667 223.72 352.449 223.738 352.176C223.738 352.069 223.74 351.883 223.745 351.619C223.754 351.35 223.761 351.032 223.766 350.666C223.771 350.295 223.775 349.889 223.78 349.449C223.784 349.008 223.787 348.558 223.787 348.099C223.787 347.742 223.784 347.392 223.78 347.049C223.78 346.701 223.775 346.367 223.766 346.047C223.761 345.727 223.75 345.426 223.731 345.143C223.717 344.86 223.696 344.602 223.668 344.37L225.442 344.141C225.475 344.391 225.5 344.674 225.519 344.99C225.537 345.305 225.551 345.641 225.561 345.998C225.575 346.351 225.582 346.722 225.582 347.111C225.586 347.496 225.588 347.886 225.588 348.28C225.588 349.157 225.579 349.919 225.561 350.569C225.547 351.218 225.54 351.793 225.54 352.294C225.54 352.646 225.63 352.925 225.811 353.129C225.992 353.328 226.261 353.428 226.618 353.428H226.771V355.209H226.618C226.59 355.209 226.565 355.209 226.542 355.209C226.361 355.209 226.182 355.192 226.006 355.16C225.834 355.132 225.667 355.088 225.505 355.028C225.347 354.972 225.201 354.905 225.067 354.826C224.932 354.747 224.814 354.666 224.712 354.583C224.577 354.712 224.429 354.819 224.267 354.903C224.109 354.981 223.947 355.044 223.78 355.09C223.613 355.137 223.448 355.167 223.286 355.181C223.124 355.199 222.977 355.209 222.848 355.209H221.978V353.428ZM226.494 353.428H228.657C228.926 353.428 229.167 353.395 229.381 353.33C229.599 353.266 229.782 353.182 229.93 353.08C230.079 352.973 230.192 352.853 230.271 352.718C230.355 352.579 230.396 352.438 230.396 352.294C230.396 352.071 230.352 351.83 230.264 351.57C230.176 351.306 230.058 351.039 229.909 350.77C229.766 350.497 229.594 350.223 229.395 349.95C229.2 349.671 228.993 349.407 228.775 349.157C228.557 348.901 228.333 348.665 228.101 348.447C227.873 348.229 227.655 348.037 227.447 347.87L227.614 345.908L233.701 343.334L234.348 344.927L229.095 347.083C229.453 347.394 229.763 347.703 230.028 348.009C230.297 348.31 230.535 348.614 230.744 348.92C230.957 349.221 231.15 349.525 231.322 349.831C231.493 350.137 231.66 350.446 231.822 350.757C231.938 350.979 232.054 351.197 232.17 351.41C232.286 351.624 232.411 351.842 232.546 352.064V352.057C232.671 352.266 232.803 352.454 232.942 352.621C233.086 352.788 233.239 352.932 233.402 353.052C233.568 353.173 233.749 353.266 233.944 353.33C234.144 353.395 234.362 353.428 234.598 353.428H235.036V355.209H234.835C234.464 355.209 234.127 355.183 233.826 355.132C233.524 355.081 233.244 355 232.984 354.889C232.729 354.777 232.488 354.636 232.261 354.464C232.038 354.288 231.818 354.077 231.6 353.831C231.437 354.072 231.254 354.279 231.05 354.45C230.846 354.617 230.626 354.757 230.389 354.868C230.153 354.974 229.902 355.053 229.638 355.104C229.378 355.16 229.109 355.195 228.831 355.209H226.494V353.428ZM233.485 342.68L227.614 345.073L227.662 344.176L233.144 341.97L233.485 342.68ZM234.759 353.428H235.879C236.097 353.428 236.32 353.416 236.547 353.393C236.779 353.365 236.988 353.312 237.173 353.233C237.359 353.15 237.509 353.031 237.625 352.878C237.746 352.725 237.806 352.521 237.806 352.266C237.806 352.146 237.781 351.976 237.73 351.758C237.679 351.54 237.611 351.299 237.528 351.035C237.445 350.77 237.345 350.497 237.229 350.214C237.118 349.931 236.999 349.667 236.874 349.421L238.481 348.628C238.597 348.892 238.713 349.173 238.829 349.47C238.945 349.766 239.047 350.072 239.135 350.388C239.228 350.699 239.302 351.012 239.358 351.327C239.413 351.642 239.441 351.951 239.441 352.252C239.441 352.772 239.353 353.219 239.177 353.595C239 353.966 238.755 354.272 238.439 354.513C238.124 354.75 237.746 354.923 237.305 355.035C236.869 355.151 236.389 355.209 235.865 355.209H234.759V353.428ZM238.314 346.27L236.978 347.605L235.65 346.27L236.978 344.941L238.314 346.27ZM242.657 344.141C242.773 345.027 242.854 345.873 242.9 346.68C242.946 347.482 242.974 348.268 242.984 349.038C242.993 349.692 242.995 350.297 242.991 350.854C242.991 351.41 242.986 351.93 242.977 352.412C242.967 352.89 242.953 353.337 242.935 353.755C242.916 354.168 242.898 354.555 242.879 354.917L241.057 355.195C241.154 353.664 241.203 352.312 241.203 351.139C241.203 350.666 241.196 350.223 241.182 349.81C241.145 348.86 241.103 347.967 241.057 347.132C241.01 346.293 240.948 345.49 240.869 344.725L242.657 344.141Z" fill="black"/>
</svg>
