<svg width="400" height="400" viewBox="0 0 400 400" fill="none" xmlns="http://www.w3.org/2000/svg">
<rect width="400" height="400" fill="white"/>
<path d="M166.797 53.7443C166 53.7443 165.262 53.6446 164.585 53.4452C163.908 53.2504 163.331 52.9536 162.853 52.5548C162.375 52.1606 162.016 51.6643 161.775 51.0661C161.58 50.5977 161.483 50.0667 161.483 49.473C161.483 49.3154 161.49 49.153 161.503 48.9861C161.531 48.6661 161.568 48.3391 161.615 48.0052C161.666 47.6713 161.733 47.3212 161.816 46.9548C161.905 46.5838 162.016 46.1919 162.15 45.7791C162.285 45.3664 162.452 44.9212 162.651 44.4435L164.084 45.1043C163.894 45.5774 163.736 46.0157 163.611 46.4191C163.486 46.818 163.386 47.189 163.312 47.5322C163.243 47.8754 163.194 48.1977 163.166 48.4991C163.138 48.8006 163.124 49.0904 163.124 49.3687C163.124 49.7026 163.166 50.0017 163.25 50.2661C163.338 50.5304 163.449 50.767 163.583 50.9757C163.764 51.2214 163.992 51.4093 164.265 51.5391C164.539 51.6736 164.826 51.771 165.128 51.8313C165.434 51.8916 165.733 51.9264 166.025 51.9357C166.322 51.9496 166.579 51.9565 166.797 51.9565C166.927 51.9565 167.115 51.9472 167.361 51.9287C167.611 51.9101 167.883 51.8777 168.175 51.8313C168.472 51.7849 168.775 51.7246 169.086 51.6504C169.397 51.5762 169.677 51.4835 169.928 51.3722C170.183 51.2609 170.389 51.131 170.547 50.9826C170.709 50.8342 170.79 50.6603 170.79 50.4609C170.79 50.4284 170.749 50.3774 170.665 50.3078C170.586 50.2429 170.475 50.1687 170.331 50.0852C170.192 50.0017 170.027 49.9136 169.837 49.8209C169.647 49.7328 169.443 49.647 169.225 49.5635C168.905 49.4568 168.587 49.378 168.272 49.327C167.957 49.2759 167.644 49.2226 167.333 49.167L167.57 47.4278H173.093V49.2087H171.792C171.978 49.4359 172.101 49.6586 172.161 49.8765C172.226 50.0991 172.261 50.2939 172.265 50.4609C172.247 50.869 172.142 51.233 171.952 51.553C171.762 51.8777 171.516 52.1606 171.215 52.4017C170.918 52.6475 170.579 52.8539 170.199 53.0209C169.819 53.1925 169.429 53.3316 169.03 53.4383C168.632 53.5449 168.237 53.6214 167.848 53.6678C167.463 53.7188 167.113 53.7443 166.797 53.7443ZM172.822 47.4278H174.304C174.522 47.4278 174.756 47.4162 175.006 47.393C175.261 47.3652 175.495 47.3119 175.709 47.233C175.927 47.1496 176.105 47.0313 176.244 46.8783C176.388 46.7252 176.46 46.5212 176.46 46.2661C176.46 46.1455 176.435 45.9762 176.384 45.7583C176.333 45.5403 176.265 45.2991 176.182 45.0348C176.098 44.7704 175.999 44.4968 175.883 44.2139C175.771 43.931 175.653 43.6667 175.528 43.4209L177.135 42.6278C177.251 42.8922 177.367 43.1728 177.483 43.4696C177.599 43.7664 177.701 44.0725 177.789 44.3878C177.882 44.6986 177.956 45.0116 178.011 45.327C178.067 45.6423 178.095 45.9507 178.095 46.2522C178.095 46.7901 177.995 47.247 177.796 47.6226C177.596 47.9983 177.323 48.3043 176.975 48.5409C176.632 48.7728 176.228 48.942 175.764 49.0487C175.305 49.1554 174.814 49.2087 174.29 49.2087H172.822V47.4278ZM175.41 51.2678L174.227 52.4504L173.031 51.2609L174.213 50.0713L175.41 51.2678ZM178.039 51.2748L176.857 52.4643L175.66 51.2678L176.843 50.0852L178.039 51.2748ZM179.234 52.3391C179.916 52.2046 180.531 52.0238 181.078 51.7965C181.63 51.5739 182.107 51.3235 182.511 51.0452C182.914 50.767 183.241 50.4701 183.492 50.1548C183.747 49.8394 183.916 49.5241 183.999 49.2087C183.624 49.2087 183.257 49.1971 182.9 49.1739C182.543 49.1507 182.205 49.1043 181.885 49.0348C181.569 48.9699 181.277 48.8771 181.008 48.7565C180.744 48.6313 180.514 48.469 180.319 48.2696C180.129 48.0655 179.981 47.8197 179.874 47.5322C179.768 47.2446 179.714 46.9014 179.714 46.5026C179.714 46.2475 179.742 45.9809 179.798 45.7026C179.853 45.4243 179.932 45.153 180.034 44.8887C180.141 44.6197 180.271 44.367 180.424 44.1304C180.577 43.8893 180.753 43.6783 180.953 43.4974C181.152 43.3119 181.372 43.1658 181.613 43.0591C181.855 42.9525 182.114 42.8991 182.393 42.8991C183.111 42.8991 183.768 43.2191 184.361 43.8591C184.556 44.0771 184.732 44.3206 184.89 44.5896C185.048 44.8586 185.184 45.1461 185.3 45.4522C185.416 45.7583 185.509 46.0783 185.579 46.4122C185.653 46.7414 185.699 47.08 185.718 47.4278H186.184V49.2087H185.572C185.414 49.8951 185.147 50.5119 184.772 51.0591C184.396 51.611 183.944 52.091 183.415 52.4991C182.891 52.9072 182.307 53.2435 181.662 53.5078C181.017 53.7722 180.347 53.9623 179.652 54.0783L179.234 52.3391ZM182.393 44.687C182.272 44.687 182.142 44.738 182.003 44.84C181.864 44.942 181.736 45.0742 181.62 45.2365C181.504 45.3942 181.407 45.5704 181.328 45.7652C181.254 45.96 181.217 46.1501 181.217 46.3357C181.217 46.5304 181.261 46.6928 181.349 46.8226C181.442 46.9525 181.558 47.0568 181.697 47.1357C181.841 47.2145 182.001 47.2748 182.177 47.3165C182.358 47.3536 182.536 47.3791 182.713 47.393C182.81 47.4023 182.917 47.4093 183.033 47.4139C183.148 47.4139 183.267 47.4162 183.387 47.4209C183.513 47.4255 183.635 47.4278 183.756 47.4278C183.877 47.4278 183.99 47.4278 184.097 47.4278C184.083 47.2562 184.048 47.0707 183.993 46.8713C183.942 46.6672 183.874 46.4632 183.791 46.2591C183.707 46.0551 183.612 45.8603 183.506 45.6748C183.399 45.4846 183.283 45.3177 183.158 45.1739C183.037 45.0255 182.912 44.9072 182.782 44.8191C182.652 44.731 182.522 44.687 182.393 44.687ZM192.105 47.4278V49.2087H191.966C191.516 49.2087 191.136 49.1368 190.825 48.993C190.514 48.8493 190.25 48.6638 190.032 48.4365C189.879 48.6313 189.652 48.782 189.35 48.8887C189.054 48.9907 188.722 49.0649 188.356 49.1113C187.989 49.1623 187.611 49.1901 187.222 49.1948C186.837 49.2041 186.482 49.2087 186.157 49.2087H185.9V47.4278H186.157C186.7 47.4278 187.157 47.3977 187.528 47.3374C187.899 47.2725 188.198 47.1797 188.425 47.0591C188.657 46.9386 188.824 46.7878 188.926 46.607C189.028 46.4214 189.079 46.2081 189.079 45.967C189.079 45.8093 189.049 45.6006 188.989 45.3409C188.928 45.0765 188.838 44.738 188.717 44.3252L190.429 43.8452C190.489 44.0493 190.535 44.2301 190.568 44.3878C190.605 44.5409 190.633 44.6962 190.651 44.8539C190.674 45.007 190.693 45.1739 190.707 45.3548C190.725 45.531 190.744 45.742 190.763 45.9878C190.776 46.1362 190.811 46.2962 190.867 46.4678C190.923 46.6348 190.999 46.7901 191.096 46.9339C191.198 47.073 191.321 47.1913 191.465 47.2887C191.609 47.3814 191.776 47.4278 191.966 47.4278H192.105ZM189.016 41.2643L187.834 42.447L186.637 41.2574L187.82 40.0678L189.016 41.2643ZM191.646 41.2713L190.463 42.4609L189.267 41.2643L190.449 40.0817L191.646 41.2713ZM191.822 47.4278H192.351C192.606 47.4278 192.817 47.4 192.984 47.3443C193.151 47.2841 193.28 47.1913 193.373 47.0661C193.466 46.9409 193.528 46.7809 193.561 46.5861C193.598 46.3867 193.617 46.1478 193.617 45.8696C193.617 45.7629 193.617 45.6354 193.617 45.487C193.621 45.3386 193.621 45.1391 193.617 44.8887C193.617 44.6336 193.607 44.3136 193.589 43.9287C193.57 43.5391 193.54 43.0522 193.498 42.4678C193.48 41.9716 193.459 41.4962 193.436 41.0417C193.413 40.5872 193.389 40.1814 193.366 39.8243C193.348 39.4672 193.329 39.1728 193.311 38.9409C193.297 38.709 193.287 38.5675 193.283 38.5165L195.036 38.1409C195.087 38.6881 195.133 39.3258 195.175 40.0539C195.221 40.782 195.263 41.5658 195.3 42.4052C195.319 43.0359 195.335 43.5554 195.349 43.9635C195.363 44.367 195.374 44.7032 195.384 44.9722C195.397 45.2365 195.407 45.4545 195.411 45.6261C195.416 45.793 195.418 45.9554 195.418 46.113C195.418 46.5907 195.358 47.022 195.237 47.407C195.117 47.7872 194.931 48.1119 194.681 48.3809C194.431 48.6452 194.113 48.8493 193.728 48.993C193.343 49.1368 192.884 49.2087 192.351 49.2087H191.822V47.4278ZM200.394 49.2087H200.116C199.174 49.2087 198.46 48.9722 197.973 48.4991C197.486 48.0261 197.24 47.3119 197.236 46.3565C197.236 46.2081 197.24 45.9646 197.25 45.6261C197.259 45.2829 197.264 44.8655 197.264 44.3739C197.264 44.0817 197.261 43.7687 197.257 43.4348C197.252 43.0962 197.245 42.753 197.236 42.4052C197.227 42.0528 197.213 41.7026 197.194 41.3548C197.18 41.0023 197.162 40.6638 197.138 40.3391C197.115 40.0099 197.087 39.7038 197.055 39.4209C197.022 39.1333 196.985 38.8806 196.944 38.6626L198.69 38.1409C198.741 38.4099 198.787 38.7391 198.829 39.1287C198.871 39.5136 198.908 39.9264 198.94 40.367C198.973 40.8075 198.996 41.2574 199.01 41.7165C199.028 42.171 199.038 42.6 199.038 43.0035C199.038 43.2493 199.04 43.5113 199.044 43.7896C199.049 44.0632 199.051 44.3043 199.051 44.513C199.051 44.6893 199.049 44.8562 199.044 45.0139C199.044 45.167 199.042 45.3154 199.038 45.4591C199.038 45.6029 199.035 45.7443 199.031 45.8835C199.031 46.0226 199.031 46.1641 199.031 46.3078C199.031 46.3449 199.031 46.382 199.031 46.4191C199.031 46.5861 199.047 46.7345 199.079 46.8643C199.116 46.9942 199.179 47.1032 199.267 47.1913C199.355 47.2748 199.467 47.3351 199.601 47.3722C199.74 47.4093 199.9 47.4278 200.081 47.4278H200.394V49.2087ZM200.119 47.4278H201.6C201.818 47.4278 202.053 47.4162 202.303 47.393C202.558 47.3652 202.792 47.3119 203.006 47.233C203.224 47.1496 203.402 47.0313 203.541 46.8783C203.685 46.7252 203.757 46.5212 203.757 46.2661C203.757 46.1455 203.731 45.9762 203.68 45.7583C203.629 45.5403 203.562 45.2991 203.479 45.0348C203.395 44.7704 203.295 44.4968 203.18 44.2139C203.068 43.931 202.95 43.6667 202.825 43.4209L204.432 42.6278C204.548 42.8922 204.664 43.1728 204.78 43.4696C204.895 43.7664 204.998 44.0725 205.086 44.3878C205.178 44.6986 205.253 45.0116 205.308 45.327C205.364 45.6423 205.392 45.9507 205.392 46.2522C205.392 46.7901 205.292 47.247 205.093 47.6226C204.893 47.9983 204.62 48.3043 204.272 48.5409C203.929 48.7728 203.525 48.942 203.061 49.0487C202.602 49.1554 202.111 49.2087 201.587 49.2087H200.119V47.4278ZM203.047 51.5809L204.23 50.3983L205.427 51.5878L204.244 52.7774L203.047 51.5809ZM200.418 51.5739L201.6 50.3843L202.797 51.5809L201.614 52.7635L200.418 51.5739ZM204.007 53.5913L202.922 54.6765L201.83 53.5843L202.922 52.4991L204.007 53.5913ZM215.65 52.8748C215.919 52.9212 216.19 52.9443 216.464 52.9443C216.533 52.9443 216.67 52.9397 216.874 52.9304C217.078 52.9212 217.34 52.8794 217.66 52.8052C217.98 52.731 218.286 52.6313 218.578 52.5061C218.875 52.3809 219.146 52.2371 219.392 52.0748L220.331 53.633C220.062 53.7954 219.784 53.9438 219.497 54.0783C219.214 54.2174 218.919 54.3357 218.613 54.433C218.312 54.5304 217.999 54.6046 217.674 54.6557C217.391 54.702 217.101 54.7252 216.804 54.7252C216.758 54.7252 216.709 54.7252 216.658 54.7252C216.222 54.7159 215.786 54.6696 215.351 54.5861C214.919 54.5026 214.506 54.382 214.112 54.2243C213.723 54.0667 213.359 53.8696 213.02 53.633C212.686 53.4012 212.394 53.1299 212.144 52.8191C211.898 52.513 211.703 52.1675 211.559 51.7826C211.415 51.4023 211.341 50.9803 211.337 50.5165C211.351 50.0203 211.443 49.5565 211.615 49.1252C211.786 48.6986 212.014 48.309 212.297 47.9565C212.584 47.5994 212.913 47.2817 213.284 47.0035C213.66 46.7252 214.057 46.4864 214.474 46.287C214.326 46.1478 214.173 46.011 214.015 45.8765C213.862 45.7374 213.713 45.6075 213.57 45.487C213.426 45.3617 213.291 45.2481 213.166 45.1461C213.041 45.0394 212.937 44.949 212.853 44.8748L212.721 43.3861C213.328 42.8574 213.982 42.4609 214.683 42.1965C215.388 41.9275 216.123 41.793 216.888 41.793C217.115 41.793 217.349 41.8093 217.591 41.8417C217.836 41.8742 218.075 41.9252 218.307 41.9948C218.539 42.0643 218.757 42.1548 218.961 42.2661C219.165 42.3774 219.344 42.5142 219.497 42.6765C219.65 42.8342 219.77 43.0174 219.858 43.2261C219.937 43.4301 219.977 43.6574 219.977 43.9078C219.977 43.9217 219.977 43.9357 219.977 43.9496C219.958 44.302 219.888 44.6174 219.768 44.8957C219.652 45.1739 219.499 45.4243 219.309 45.647C219.119 45.8696 218.898 46.069 218.648 46.2452C218.402 46.4214 218.14 46.5838 217.862 46.7322C218.237 46.9409 218.636 47.1101 219.058 47.24C219.485 47.3652 219.9 47.4278 220.304 47.4278H220.54V49.2087H220.304C219.919 49.2087 219.545 49.1693 219.184 49.0904C218.822 49.0116 218.465 48.9003 218.112 48.7565C217.76 48.6081 217.41 48.4342 217.062 48.2348C216.714 48.0307 216.364 47.8058 216.011 47.56C215.673 47.6945 215.33 47.8522 214.982 48.033C214.634 48.2093 214.316 48.418 214.029 48.6591C213.746 48.8957 213.514 49.1646 213.333 49.4661C213.152 49.7675 213.062 50.1084 213.062 50.4887C213.062 50.702 213.104 50.9061 213.187 51.1009C213.275 51.2957 213.389 51.4765 213.528 51.6435C213.667 51.8151 213.827 51.9704 214.008 52.1096C214.189 52.2533 214.374 52.3762 214.564 52.4783C214.759 52.5849 214.949 52.6707 215.135 52.7357C215.325 52.8052 215.497 52.8516 215.65 52.8748ZM216.895 43.4904C216.709 43.4904 216.515 43.5043 216.311 43.5322C216.106 43.5554 215.905 43.5901 215.705 43.6365C215.506 43.6783 215.313 43.7316 215.128 43.7965C214.947 43.8568 214.787 43.9241 214.648 43.9983C214.745 44.1003 214.854 44.2186 214.975 44.353C215.095 44.4829 215.223 44.6197 215.357 44.7635C215.497 44.9072 215.638 45.051 215.782 45.1948C215.926 45.3339 216.067 45.4638 216.206 45.5843C216.512 45.4545 216.797 45.3223 217.062 45.1878C217.326 45.0533 217.556 44.9165 217.751 44.7774C217.95 44.6336 218.108 44.4852 218.224 44.3322C218.339 44.1791 218.4 44.0214 218.404 43.8591C218.4 43.8406 218.37 43.8128 218.314 43.7757C218.258 43.7386 218.168 43.7014 218.043 43.6643C217.922 43.6226 217.767 43.5855 217.577 43.553C217.391 43.5206 217.164 43.4997 216.895 43.4904ZM220.259 47.4278H221.317L221.365 47.3374C221.444 47.1983 221.556 47.0151 221.699 46.7878C221.848 46.5559 222.033 46.2939 222.256 46.0017C222.298 45.7096 222.332 45.3409 222.36 44.8957C222.388 44.4504 222.404 43.9681 222.409 43.4487C222.409 43.1658 222.404 42.8759 222.395 42.5791C222.386 42.2777 222.367 41.9322 222.339 41.5426C222.311 41.153 222.272 40.6986 222.221 40.1791C222.175 39.6551 222.114 39.0313 222.04 38.3078L223.87 37.8348C223.99 38.7252 224.081 39.6388 224.141 40.5757C224.206 41.5125 224.238 42.44 224.238 43.3583V43.9217C224.489 43.7084 224.749 43.5043 225.018 43.3096C225.291 43.1148 225.574 42.9432 225.866 42.7948C226.163 42.6464 226.471 42.5281 226.791 42.44C227.111 42.3519 227.445 42.3078 227.793 42.3078C228.146 42.3078 228.48 42.3635 228.795 42.4748C229.11 42.5861 229.389 42.7484 229.63 42.9617C229.876 43.1704 230.077 43.4255 230.235 43.727C230.393 44.0284 230.49 44.367 230.527 44.7426C230.532 44.8122 230.534 44.8794 230.534 44.9443C230.534 45.4267 230.453 45.8765 230.291 46.2939C230.133 46.7113 229.899 47.0893 229.588 47.4278H231.55V49.2087H229.699C229.333 49.2087 228.925 49.1925 228.475 49.16C228.025 49.1275 227.527 49.0417 226.979 48.9026C226.585 49.0093 226.184 49.0858 225.776 49.1322C225.372 49.1832 224.967 49.2087 224.558 49.2087H220.259V47.4278ZM223.911 47.4278C224.194 47.4278 224.519 47.4209 224.885 47.407C225.256 47.393 225.637 47.3606 226.026 47.3096C226.416 47.2586 226.794 47.182 227.16 47.08C227.531 46.978 227.86 46.8412 228.148 46.6696C228.436 46.498 228.663 46.2823 228.83 46.0226C228.974 45.8 229.045 45.5357 229.045 45.2296C229.045 45.1878 229.043 45.1438 229.038 45.0974C229.029 44.9583 228.983 44.8284 228.899 44.7078C228.82 44.5872 228.709 44.4852 228.565 44.4017C228.426 44.3136 228.259 44.2441 228.065 44.193C227.898 44.1559 227.717 44.1374 227.522 44.1374C227.485 44.1374 227.445 44.1374 227.404 44.1374C227.172 44.1467 226.896 44.207 226.576 44.3183C226.256 44.4249 225.913 44.6058 225.546 44.8609C225.18 45.1159 224.8 45.4522 224.405 45.8696C224.011 46.287 223.626 46.8064 223.251 47.4278H223.911ZM231.442 47.4278C231.929 47.4278 232.397 47.4139 232.847 47.3861C233.297 47.3536 233.707 47.3096 234.078 47.2539C234.449 47.1983 234.769 47.131 235.038 47.0522C235.307 46.9733 235.509 46.8852 235.644 46.7878H234.934C234.526 46.7878 234.136 46.7368 233.765 46.6348C233.399 46.5281 233.077 46.3704 232.798 46.1617C232.52 45.953 232.298 45.6933 232.131 45.3826C231.968 45.0672 231.887 44.7009 231.887 44.2835C231.887 44.0377 231.913 43.7849 231.964 43.5252C232.015 43.2655 232.091 43.0128 232.193 42.767C232.295 42.5212 232.418 42.2893 232.562 42.0713C232.706 41.8533 232.87 41.6632 233.056 41.5009C233.241 41.3339 233.445 41.2041 233.668 41.1113C233.891 41.0139 234.132 40.9652 234.391 40.9652C234.711 40.9652 235.011 41.0325 235.289 41.167C235.567 41.3014 235.82 41.4846 236.047 41.7165C236.274 41.9438 236.476 42.2081 236.652 42.5096C236.829 42.811 236.977 43.1287 237.098 43.4626C237.218 43.7965 237.309 44.1374 237.369 44.4852C237.434 44.8284 237.466 45.1554 237.466 45.4661C237.466 45.9948 237.392 46.4539 237.244 46.8435C237.1 47.233 236.896 47.567 236.631 47.8452C236.372 48.1235 236.059 48.3507 235.692 48.527C235.331 48.7032 234.929 48.8423 234.489 48.9443C234.048 49.0464 233.575 49.1159 233.07 49.153C232.569 49.1901 232.049 49.2087 231.511 49.2087H231.275V47.4278H231.442ZM234.391 42.76C234.368 42.7554 234.345 42.753 234.322 42.753C234.229 42.753 234.122 42.7901 234.002 42.8643C233.881 42.9386 233.765 43.0452 233.654 43.1843C233.543 43.3235 233.452 43.4812 233.383 43.6574C233.313 43.829 233.278 43.9983 233.278 44.1652C233.278 44.1745 233.278 44.1838 233.278 44.193C233.278 44.36 233.316 44.4968 233.39 44.6035C233.464 44.7055 233.564 44.7843 233.689 44.84C233.819 44.8957 233.967 44.9351 234.134 44.9583C234.306 44.9814 234.487 44.9977 234.677 45.007C234.802 45.0116 234.932 45.0139 235.066 45.0139C235.131 45.0139 235.231 45.0139 235.365 45.0139C235.504 45.0093 235.646 45.0023 235.79 44.993C235.748 44.8261 235.688 44.6197 235.609 44.3739C235.535 44.1235 235.44 43.8823 235.324 43.6504C235.212 43.4139 235.078 43.2099 234.92 43.0383C234.767 42.8667 234.591 42.7739 234.391 42.76ZM234.224 38.8713L233.042 40.0539L231.845 38.8643L233.028 37.6748L234.224 38.8713ZM236.854 38.8783L235.671 40.0678L234.475 38.8713L235.658 37.6887L236.854 38.8783Z" fill="black"/>
<path d="M364.162 219.172L176.072 103.544L44.0781 191.54L231.943 317.718L364.162 229.572L364.162 219.172Z" fill="#E7E7E7" stroke="black"/>
<path d="M43.8371 180.697L43.8346 191.376L231.417 317.364L232.151 306.869L44.1934 180.519L43.8371 180.697Z" fill="#A3A3A3" stroke="black"/>
<rect x="-0.000955552" y="0.556128" width="158.615" height="226.305" transform="matrix(-0.83205 0.5547 0.830139 0.557556 175.591 92.2466)" fill="#E7E7E7" stroke="black"/>
<path d="M231.943 306.718L240.15 301.247L52.2852 175.069L44.078 180.54L231.943 306.718Z" fill="#A3A3A3" stroke="black"/>
<path d="M279.588 130.47C279.588 130.484 279.597 130.559 279.615 130.696C279.632 130.826 279.649 130.997 279.667 131.211C279.684 131.417 279.698 131.649 279.71 131.908C279.716 132.085 279.719 132.265 279.719 132.446V132.717C279.696 134.308 279.38 135.329 278.772 135.78V135.769C278.182 136.231 277.38 136.125 276.367 135.45C276.09 135.264 275.838 135.076 275.612 134.883C275.392 134.688 275.172 134.465 274.952 134.214L275.022 134.834C275.091 135.534 275.146 136.246 275.187 136.968C275.233 137.688 275.268 138.403 275.291 139.114C275.32 139.822 275.337 140.516 275.343 141.194C275.354 141.87 275.36 142.51 275.36 143.115L273.632 141.964C273.632 140.858 273.624 139.753 273.606 138.649C273.589 137.538 273.543 136.443 273.467 135.363C273.392 134.277 273.279 133.213 273.129 132.174C272.984 131.131 272.782 130.127 272.521 129.16C272.4 128.703 272.269 128.258 272.13 127.825C271.991 127.391 271.835 126.936 271.662 126.458L273.111 126.319C273.204 126.562 273.288 126.802 273.363 127.04C273.444 127.275 273.522 127.518 273.598 127.77C273.679 128.019 273.76 128.282 273.841 128.558C273.922 128.835 274.012 129.135 274.11 129.458C274.243 129.915 274.373 130.336 274.501 130.72C274.634 131.101 274.784 131.455 274.952 131.783C275.126 132.114 275.323 132.412 275.543 132.677C275.768 132.939 276.043 133.178 276.367 133.394C276.848 133.714 277.21 133.778 277.453 133.585C277.563 133.506 277.652 133.388 277.722 133.232C277.791 133.07 277.846 132.888 277.887 132.685C277.933 132.486 277.965 132.271 277.982 132.039C278 131.807 278.008 131.577 278.008 131.347C278.008 131.048 277.994 130.75 277.965 130.452C277.942 130.158 277.916 129.911 277.887 129.711L279.588 130.47ZM283.952 148.906C283.952 147.549 283.931 146.19 283.891 144.827C283.85 143.457 283.76 142.11 283.622 140.787C283.483 139.463 283.283 138.178 283.023 136.933C282.768 135.692 282.423 134.516 281.989 133.406L283.431 133.261C283.905 134.489 284.299 135.805 284.611 137.21C284.93 138.612 285.173 140.134 285.341 141.776C285.41 142.476 285.465 143.188 285.506 143.91C285.552 144.637 285.587 145.356 285.61 146.067C285.639 146.775 285.656 147.465 285.662 148.136C285.673 148.812 285.679 149.452 285.679 150.057L283.952 148.906Z" fill="black"/>
<path d="M99.1413 130.352C99.1413 128.996 99.121 127.663 99.0805 126.355C99.04 125.039 98.9503 123.812 98.8114 122.673C98.6724 121.534 98.4727 120.516 98.2123 119.619C97.9576 118.717 97.6132 118.001 97.1791 117.469L98.6203 115.402C99.095 115.997 99.4886 116.789 99.8011 117.777C100.119 118.754 100.363 119.952 100.53 121.371C100.6 121.978 100.655 122.616 100.695 123.285C100.742 123.95 100.776 124.622 100.8 125.302C100.829 125.972 100.846 126.639 100.852 127.302C100.863 127.963 100.869 128.595 100.869 129.2L99.1413 130.352ZM104.894 126.517C104.894 125.161 104.874 123.828 104.833 122.519C104.793 121.204 104.703 119.977 104.564 118.838C104.425 117.699 104.226 116.681 103.965 115.783C103.71 114.882 103.366 114.165 102.932 113.634L104.373 111.567C104.848 112.162 105.241 112.953 105.554 113.942C105.872 114.919 106.115 116.117 106.283 117.535C106.353 118.143 106.408 118.781 106.448 119.45C106.495 120.114 106.529 120.787 106.552 121.467C106.581 122.137 106.599 122.803 106.605 123.467C106.616 124.127 106.622 124.76 106.622 125.365L104.894 126.517Z" fill="black"/>
<path d="M183.815 201.747C185.23 202.844 185.867 204.027 185.726 205.296C185.579 206.561 184.675 207.747 183.014 208.854C181.191 210.07 179.149 210.616 176.889 210.492C174.622 210.364 172.424 209.585 170.293 208.154L169.427 207.572C168.064 206.656 167.103 205.69 166.544 204.671C165.985 203.653 165.874 202.66 166.211 201.694C166.553 200.723 167.315 199.844 168.496 199.057C170.134 197.965 171.893 197.38 173.772 197.302C175.651 197.224 177.46 197.664 179.198 198.623L176.273 200.573C175.285 200.003 174.366 199.727 173.516 199.745C172.666 199.763 171.793 200.071 170.896 200.669C169.923 201.317 169.543 202.038 169.756 202.831C169.963 203.621 170.794 204.512 172.249 205.505L173.314 206.221C174.845 207.248 176.196 207.847 177.37 208.015C178.543 208.176 179.631 207.922 180.632 207.254C181.535 206.653 182.001 206.067 182.031 205.499C182.067 204.926 181.686 204.326 180.89 203.698L183.815 201.747ZM184.467 200.455C183.422 199.753 182.692 198.995 182.277 198.182C181.862 197.361 181.811 196.549 182.125 195.744C182.433 194.936 183.087 194.199 184.089 193.531C185.513 192.582 187.109 192.101 188.878 192.088C190.647 192.068 192.332 192.526 193.932 193.461L194.668 193.932C196.279 195.014 197.122 196.184 197.195 197.442C197.268 198.699 196.543 199.835 195.021 200.85C193.498 201.865 191.798 202.349 189.919 202.304C188.046 202.254 186.272 201.667 184.597 200.542L184.467 200.455ZM187.497 198.713C188.496 199.384 189.449 199.773 190.357 199.879C191.258 199.981 192.059 199.798 192.76 199.332C193.443 198.876 193.715 198.347 193.578 197.743C193.44 197.131 192.796 196.44 191.647 195.668C190.671 195.012 189.721 194.634 188.796 194.531C187.871 194.421 187.061 194.598 186.367 195.061C185.678 195.52 185.414 196.056 185.575 196.667C185.73 197.275 186.371 197.957 187.497 198.713ZM202.074 191.302L196.942 185.229L199.886 183.266L206.851 192.708L204.168 194.497L190.083 189.801L193.027 187.839L202.074 191.302ZM216.689 186.404C215.144 187.435 213.414 187.958 211.5 187.974C209.581 187.986 207.833 187.463 206.256 186.404L205.979 186.218C204.922 185.508 204.181 184.739 203.754 183.91C203.334 183.078 203.274 182.259 203.576 181.455C203.873 180.647 204.501 179.923 205.462 179.282C206.903 178.321 208.494 177.871 210.234 177.932C211.974 177.986 213.676 178.571 215.339 179.688L216.491 180.462L209.771 184.942C210.551 185.342 211.377 185.529 212.25 185.503C213.123 185.478 213.91 185.231 214.611 184.764C215.699 184.039 216.154 183.21 215.976 182.277L218.907 182.387C219.085 183.072 218.98 183.768 218.592 184.475C218.203 185.175 217.569 185.818 216.689 186.404ZM207.731 180.818C207.17 181.192 206.903 181.621 206.931 182.105C206.96 182.589 207.277 183.1 207.883 183.639L211.807 181.022L211.582 180.871C210.947 180.46 210.294 180.25 209.623 180.241C208.958 180.228 208.328 180.421 207.731 180.818ZM220.459 173.075C220.025 173.295 219.664 173.501 219.374 173.694C218.303 174.408 217.964 175.117 218.356 175.822L225.242 180.447L222.429 182.323L211.905 175.254L214.561 173.483L215.895 174.274C215.493 173.244 215.792 172.396 216.793 171.728C217.106 171.52 217.441 171.354 217.8 171.231L220.459 173.075Z" fill="black"/>
<path d="M190.706 85.1575C190.543 84.8539 190.543 84.5373 190.706 84.4504L193.353 83.0334C193.516 82.9465 193.779 83.1221 193.941 83.4257C194.104 83.7292 194.104 84.0458 193.941 84.1328L191.588 85.3923L193.941 89.7896C194.104 90.0932 194.104 90.4098 193.941 90.4967C193.779 90.5837 193.516 90.4081 193.353 90.1045L190.706 85.1575ZM245.083 121.556L191 85.5V84.5L245.083 120.556V121.556Z" fill="black"/>
<path d="M40.7057 164.613C40.5433 164.526 40.5433 164.209 40.7057 163.906L43.3533 158.959C43.5158 158.655 43.7792 158.48 43.9416 158.567C44.1041 158.653 44.1041 158.97 43.9416 159.274L41.5883 163.671L43.9416 164.93C44.1041 165.017 44.1041 165.334 43.9416 165.638C43.7792 165.941 43.5158 166.117 43.3533 166.03L40.7057 164.613ZM87.5947 133.5L40.9999 164.563V163.563L87.5947 132.5V133.5Z" fill="black"/>
<path d="M162.889 84.4503C163.051 84.5373 163.051 84.8539 162.889 85.1574L160.241 90.1045C160.079 90.408 159.815 90.5836 159.653 90.4967C159.491 90.4097 159.491 90.0932 159.653 89.7896L162.006 85.3922L159.653 84.1327C159.491 84.0458 159.491 83.7292 159.653 83.4256C159.815 83.1221 160.079 82.9464 160.241 83.0334L162.889 84.4503ZM162.595 85.5L116 116.563V115.563L162.595 84.5V85.5Z" fill="black"/>
<path d="M365.377 199.954C365.54 200.257 365.54 200.574 365.377 200.661L362.73 202.078C362.567 202.165 362.304 201.989 362.141 201.685C361.979 201.382 361.979 201.065 362.141 200.978L364.495 199.719L362.141 195.321C361.979 195.018 361.979 194.701 362.141 194.614C362.304 194.527 362.567 194.703 362.73 195.007L365.377 199.954ZM365.083 200.611L311 164.556V163.556L365.083 199.611V200.611Z" fill="black"/>
<path d="M158.736 349.01C158.945 348.964 159.158 348.936 159.376 348.927C159.437 348.922 159.497 348.92 159.557 348.92C159.71 348.92 159.877 348.932 160.058 348.955C160.243 348.978 160.438 349.022 160.642 349.087C160.851 349.152 161.05 349.235 161.241 349.337L160.608 351.007C160.366 350.9 160.116 350.828 159.856 350.791C159.745 350.777 159.636 350.77 159.529 350.77C159.376 350.77 159.223 350.784 159.07 350.812C158.912 350.826 158.743 350.872 158.562 350.951C158.381 351.03 158.201 351.132 158.02 351.257C157.843 351.378 157.672 351.519 157.505 351.682C157.343 351.839 157.199 352.009 157.074 352.19C156.948 352.366 156.846 352.549 156.768 352.739C156.693 352.925 156.656 353.106 156.656 353.282C156.656 353.481 156.703 353.639 156.795 353.755C156.893 353.866 157.02 353.959 157.178 354.033C157.34 354.103 157.526 354.161 157.734 354.207C157.943 354.249 158.161 354.3 158.388 354.36C158.667 354.425 158.947 354.499 159.23 354.583C159.513 354.666 159.768 354.782 159.995 354.93C160.223 355.074 160.403 355.264 160.538 355.501C160.654 355.71 160.712 355.967 160.712 356.273C160.712 356.315 160.71 356.359 160.705 356.405C160.677 356.892 160.566 357.321 160.371 357.692C160.176 358.068 159.923 358.392 159.613 358.666C159.302 358.94 158.947 359.167 158.548 359.348C158.15 359.533 157.732 359.682 157.296 359.793C156.86 359.904 156.42 359.983 155.974 360.03C155.529 360.076 155.105 360.099 154.701 360.099C153.885 360.099 153.139 359.99 152.461 359.772C151.789 359.554 151.221 359.23 150.757 358.798C150.293 358.372 149.957 357.838 149.748 357.198C149.609 356.781 149.54 356.319 149.54 355.814C149.54 355.545 149.558 355.267 149.595 354.979C149.632 354.673 149.683 354.362 149.748 354.047C149.813 353.732 149.883 353.428 149.957 353.136C150.031 352.839 150.108 352.558 150.187 352.294C150.266 352.03 150.337 351.798 150.402 351.598C150.467 351.399 150.523 351.237 150.569 351.111C150.616 350.986 150.643 350.914 150.653 350.896L152.183 351.515C152.072 351.863 151.97 352.19 151.877 352.496C151.784 352.797 151.701 353.094 151.627 353.386C151.552 353.678 151.485 353.973 151.425 354.27C151.369 354.562 151.321 354.872 151.279 355.202C151.26 355.355 151.251 355.503 151.251 355.647C151.251 355.976 151.314 356.303 151.439 356.628C151.569 356.957 151.789 357.247 152.1 357.497C152.415 357.752 152.795 357.943 153.241 358.068C153.686 358.193 154.173 358.256 154.701 358.256C155.318 358.256 155.891 358.207 156.42 358.11C156.953 358.017 157.414 357.892 157.804 357.734C158.198 357.576 158.511 357.398 158.743 357.198C158.98 357.003 159.112 356.802 159.14 356.593C159.135 356.551 159.091 356.512 159.008 356.475C158.924 356.438 158.82 356.401 158.694 356.363C158.569 356.331 158.43 356.296 158.277 356.259C158.129 356.227 157.985 356.192 157.846 356.155C157.456 356.057 157.094 355.946 156.761 355.821C156.427 355.7 156.137 355.54 155.891 355.341C155.645 355.141 155.453 354.889 155.314 354.583C155.174 354.277 155.105 353.892 155.105 353.428C155.128 352.918 155.235 352.421 155.425 351.939C155.615 351.457 155.87 351.019 156.19 350.624C156.515 350.226 156.893 349.885 157.324 349.602C157.755 349.319 158.226 349.122 158.736 349.01ZM162.697 352.475C162.874 352.586 163.085 352.7 163.33 352.816C163.581 352.932 163.838 353.036 164.103 353.129C164.372 353.221 164.634 353.298 164.889 353.358C165.148 353.419 165.376 353.449 165.57 353.449C165.649 353.449 165.747 353.446 165.863 353.442C165.979 353.437 166.101 353.428 166.231 353.414C166.361 353.395 166.491 353.37 166.621 353.337C166.751 353.3 166.867 353.252 166.969 353.191C167.075 353.126 167.161 353.048 167.226 352.955C167.291 352.857 167.326 352.739 167.33 352.6C167.33 352.591 167.33 352.584 167.33 352.579C167.33 352.394 167.277 352.185 167.17 351.953C167.068 351.717 166.927 351.471 166.746 351.216C166.565 350.956 166.357 350.696 166.12 350.437C165.883 350.177 165.638 349.929 165.383 349.692C165.128 349.451 164.87 349.231 164.61 349.031C164.355 348.827 164.117 348.656 163.894 348.517L164.93 346.979C165.357 347.271 165.777 347.601 166.19 347.967C166.607 348.333 166.99 348.725 167.337 349.143C167.69 349.555 167.994 349.987 168.249 350.437C168.508 350.886 168.694 351.341 168.805 351.8C168.865 352.064 168.896 352.317 168.896 352.558C168.896 352.79 168.852 353.068 168.763 353.393C168.68 353.718 168.488 354.038 168.186 354.353C167.885 354.664 167.502 354.903 167.038 355.07C166.639 355.213 166.201 355.285 165.723 355.285C165.645 355.285 165.563 355.283 165.48 355.278C165.174 355.278 164.863 355.248 164.548 355.188C164.232 355.132 163.922 355.053 163.616 354.951C163.314 354.849 163.022 354.733 162.739 354.603C162.461 354.469 162.201 354.328 161.96 354.179L162.697 352.475ZM169.797 358.339C170.479 358.205 171.093 358.024 171.64 357.797C172.192 357.574 172.67 357.323 173.073 357.045C173.477 356.767 173.804 356.47 174.054 356.155C174.309 355.839 174.479 355.524 174.562 355.209C174.186 355.209 173.82 355.197 173.463 355.174C173.106 355.151 172.767 355.104 172.447 355.035C172.132 354.97 171.84 354.877 171.571 354.757C171.306 354.631 171.077 354.469 170.882 354.27C170.692 354.066 170.543 353.82 170.437 353.532C170.33 353.245 170.277 352.901 170.277 352.503C170.277 352.248 170.305 351.981 170.36 351.703C170.416 351.424 170.495 351.153 170.597 350.889C170.703 350.62 170.833 350.367 170.986 350.13C171.139 349.889 171.316 349.678 171.515 349.497C171.714 349.312 171.935 349.166 172.176 349.059C172.417 348.952 172.677 348.899 172.955 348.899C173.674 348.899 174.33 349.219 174.924 349.859C175.119 350.077 175.295 350.321 175.452 350.59C175.61 350.859 175.747 351.146 175.863 351.452C175.979 351.758 176.072 352.078 176.141 352.412C176.215 352.741 176.262 353.08 176.28 353.428H176.746V355.209H176.134C175.976 355.895 175.71 356.512 175.334 357.059C174.959 357.611 174.506 358.091 173.978 358.499C173.454 358.907 172.869 359.243 172.225 359.508C171.58 359.772 170.91 359.962 170.214 360.078L169.797 358.339ZM172.955 350.687C172.834 350.687 172.705 350.738 172.565 350.84C172.426 350.942 172.299 351.074 172.183 351.237C172.067 351.394 171.97 351.57 171.891 351.765C171.816 351.96 171.779 352.15 171.779 352.336C171.779 352.53 171.823 352.693 171.912 352.823C172.004 352.952 172.12 353.057 172.259 353.136C172.403 353.214 172.563 353.275 172.739 353.317C172.92 353.354 173.099 353.379 173.275 353.393C173.372 353.402 173.479 353.409 173.595 353.414C173.711 353.414 173.829 353.416 173.95 353.421C174.075 353.426 174.198 353.428 174.319 353.428C174.439 353.428 174.553 353.428 174.659 353.428C174.645 353.256 174.611 353.071 174.555 352.871C174.504 352.667 174.437 352.463 174.353 352.259C174.27 352.055 174.175 351.86 174.068 351.675C173.961 351.485 173.845 351.318 173.72 351.174C173.6 351.026 173.474 350.907 173.345 350.819C173.215 350.731 173.085 350.687 172.955 350.687ZM179.948 352.489C180.101 352.554 180.298 352.635 180.539 352.732C180.78 352.83 181.04 352.927 181.318 353.024C181.596 353.122 181.877 353.21 182.16 353.289C182.447 353.363 182.709 353.409 182.946 353.428C182.9 353.233 182.851 353.031 182.8 352.823C182.753 352.609 182.7 352.403 182.64 352.203C182.58 352.004 182.512 351.816 182.438 351.64C182.364 351.459 182.276 351.301 182.174 351.167C182.076 351.032 181.963 350.926 181.833 350.847C181.703 350.768 181.557 350.729 181.395 350.729C181.209 350.729 181.042 350.789 180.894 350.91C180.75 351.03 180.618 351.181 180.497 351.362C180.381 351.538 180.277 351.728 180.184 351.932C180.096 352.136 180.017 352.322 179.948 352.489ZM182.591 355.188C182.35 355.183 182.067 355.148 181.742 355.083C181.418 355.023 181.086 354.942 180.748 354.84C180.414 354.738 180.091 354.622 179.781 354.492C179.475 354.362 179.215 354.226 179.002 354.082C178.821 354.263 178.644 354.423 178.473 354.562C178.301 354.701 178.123 354.819 177.937 354.917C177.752 355.009 177.55 355.081 177.332 355.132C177.119 355.183 176.875 355.209 176.602 355.209H176.462V353.428H176.602C176.94 353.428 177.223 353.365 177.45 353.24C177.678 353.11 177.872 352.943 178.035 352.739C178.197 352.535 178.338 352.306 178.459 352.05C178.584 351.795 178.712 351.54 178.842 351.285C178.971 351.016 179.12 350.747 179.287 350.478C179.454 350.209 179.642 349.968 179.85 349.755C180.064 349.537 180.302 349.361 180.567 349.226C180.831 349.092 181.128 349.024 181.457 349.024C181.889 349.024 182.25 349.101 182.542 349.254C182.839 349.402 183.085 349.609 183.28 349.873C183.479 350.133 183.637 350.439 183.753 350.791C183.869 351.144 183.966 351.524 184.045 351.932C184.091 352.169 184.135 352.38 184.177 352.565C184.219 352.746 184.265 352.901 184.316 353.031C184.372 353.161 184.43 353.261 184.49 353.33C184.555 353.395 184.632 353.428 184.72 353.428H184.935V355.209H184.671C184.416 355.204 184.189 355.134 183.989 355C183.795 354.861 183.614 354.678 183.447 354.45C183.396 354.497 183.335 354.559 183.266 354.638C183.201 354.717 183.129 354.796 183.05 354.875C182.976 354.949 182.9 355.016 182.821 355.077C182.742 355.137 182.665 355.174 182.591 355.188ZM190.883 351.125C190.716 350.93 190.521 350.754 190.299 350.597C190.113 350.462 189.897 350.341 189.652 350.235C189.406 350.123 189.137 350.068 188.845 350.068C188.608 350.068 188.399 350.105 188.219 350.179C188.038 350.249 187.885 350.346 187.759 350.471C187.634 350.592 187.537 350.733 187.467 350.896C187.398 351.058 187.356 351.232 187.342 351.417C187.337 351.45 187.335 351.482 187.335 351.515C187.335 351.733 187.393 351.946 187.509 352.155C187.625 352.359 187.787 352.542 187.996 352.704C188.205 352.862 188.446 352.983 188.719 353.066C188.942 353.136 189.167 353.17 189.394 353.17C189.445 353.17 189.496 353.168 189.547 353.163C189.816 353.145 190.085 353.117 190.354 353.08C190.628 353.038 190.876 352.999 191.099 352.962L191.843 352.816L192.059 354.548C191.771 354.622 191.449 354.699 191.092 354.777C190.735 354.856 190.324 354.928 189.86 354.993C189.401 355.053 188.879 355.104 188.295 355.146C187.711 355.188 187.048 355.209 186.306 355.209H184.65V353.428H184.956L186.285 353.421C186.034 353.129 185.863 352.83 185.77 352.523C185.682 352.213 185.638 351.872 185.638 351.501C185.638 351.065 185.719 350.652 185.881 350.263C186.044 349.873 186.266 349.532 186.549 349.24C186.837 348.948 187.175 348.716 187.565 348.544C187.959 348.373 188.386 348.287 188.845 348.287C189.072 348.287 189.29 348.308 189.499 348.35C189.712 348.391 189.914 348.447 190.104 348.517C190.294 348.586 190.473 348.665 190.639 348.753C190.811 348.841 190.966 348.929 191.106 349.017C191.268 349.124 191.426 349.238 191.579 349.358C191.732 349.479 191.875 349.606 192.01 349.741L190.883 351.125ZM203.329 359.744C202.531 359.744 201.794 359.645 201.116 359.445C200.439 359.25 199.862 358.954 199.384 358.555C198.907 358.161 198.547 357.664 198.306 357.066C198.111 356.598 198.014 356.067 198.014 355.473C198.014 355.315 198.021 355.153 198.035 354.986C198.063 354.666 198.1 354.339 198.146 354.005C198.197 353.671 198.264 353.321 198.348 352.955C198.436 352.584 198.547 352.192 198.682 351.779C198.816 351.366 198.983 350.921 199.183 350.443L200.616 351.104C200.425 351.577 200.268 352.016 200.143 352.419C200.017 352.818 199.918 353.189 199.843 353.532C199.774 353.875 199.725 354.198 199.697 354.499C199.669 354.801 199.656 355.09 199.656 355.369C199.656 355.703 199.697 356.002 199.781 356.266C199.869 356.53 199.98 356.767 200.115 356.976C200.296 357.221 200.523 357.409 200.796 357.539C201.07 357.674 201.358 357.771 201.659 357.831C201.965 357.892 202.264 357.926 202.556 357.936C202.853 357.95 203.111 357.957 203.329 357.957C203.458 357.957 203.646 357.947 203.892 357.929C204.143 357.91 204.414 357.878 204.706 357.831C205.003 357.785 205.307 357.725 205.617 357.65C205.928 357.576 206.209 357.483 206.459 357.372C206.714 357.261 206.92 357.131 207.078 356.983C207.24 356.834 207.322 356.66 207.322 356.461C207.322 356.428 207.28 356.377 207.196 356.308C207.118 356.243 207.006 356.169 206.863 356.085C206.723 356.002 206.559 355.914 206.369 355.821C206.178 355.733 205.974 355.647 205.756 355.563C205.436 355.457 205.119 355.378 204.803 355.327C204.488 355.276 204.175 355.223 203.864 355.167L204.101 353.428H209.624V355.209H208.323C208.509 355.436 208.632 355.659 208.692 355.877C208.757 356.099 208.792 356.294 208.796 356.461C208.778 356.869 208.674 357.233 208.483 357.553C208.293 357.878 208.047 358.161 207.746 358.402C207.449 358.648 207.111 358.854 206.73 359.021C206.35 359.192 205.96 359.332 205.562 359.438C205.163 359.545 204.769 359.621 204.379 359.668C203.994 359.719 203.644 359.744 203.329 359.744ZM209.645 353.428C209.882 353.428 210.104 353.381 210.313 353.289C210.526 353.191 210.728 353.02 210.918 352.774C211.113 352.523 211.294 352.183 211.461 351.751C211.632 351.32 211.795 350.768 211.948 350.096L213.652 350.576C213.541 350.961 213.441 351.332 213.353 351.689C213.265 352.041 213.216 352.345 213.207 352.6C213.207 352.623 213.207 352.644 213.207 352.663C213.207 352.746 213.214 352.834 213.228 352.927C213.246 353.02 213.277 353.106 213.318 353.184C213.36 353.263 213.416 353.326 213.485 353.372C213.55 353.414 213.622 353.435 213.701 353.435C213.71 353.435 213.719 353.435 213.729 353.435C213.9 353.43 214.063 353.368 214.216 353.247C214.369 353.126 214.51 352.971 214.64 352.781C214.775 352.591 214.895 352.375 215.002 352.134C215.113 351.893 215.21 351.649 215.294 351.403C215.382 351.153 215.456 350.91 215.517 350.673C215.577 350.437 215.623 350.228 215.656 350.047L217.297 350.381C217.237 350.659 217.188 350.917 217.151 351.153C217.114 351.385 217.091 351.619 217.082 351.856C217.077 351.916 217.075 351.976 217.075 352.037C217.075 352.152 217.082 352.289 217.096 352.447C217.114 352.6 217.154 352.751 217.214 352.899C217.274 353.048 217.358 353.17 217.464 353.268C217.576 353.361 217.719 353.407 217.896 353.407C218.095 353.407 218.255 353.33 218.376 353.177C218.501 353.02 218.596 352.82 218.661 352.579C218.726 352.338 218.768 352.071 218.786 351.779C218.809 351.482 218.821 351.195 218.821 350.917C218.821 350.828 218.819 350.759 218.814 350.708C218.814 350.652 218.814 350.601 218.814 350.555C218.814 350.508 218.812 350.457 218.807 350.402C218.807 350.341 218.807 350.26 218.807 350.158L220.567 350.019C220.581 350.172 220.595 350.323 220.609 350.471C220.623 350.615 220.637 350.766 220.65 350.923C220.664 351.077 220.681 351.241 220.699 351.417C220.722 351.589 220.748 351.777 220.776 351.981C220.808 352.222 220.875 352.433 220.977 352.614C221.084 352.795 221.207 352.946 221.346 353.066C221.485 353.187 221.634 353.277 221.791 353.337C221.954 353.398 222.107 353.428 222.25 353.428H222.508V355.209H222.285C222.058 355.209 221.833 355.186 221.61 355.139C221.392 355.093 221.184 355.021 220.984 354.923C220.785 354.826 220.597 354.703 220.421 354.555C220.249 354.402 220.099 354.221 219.969 354.012C219.746 354.374 219.454 354.664 219.092 354.882C218.73 355.1 218.332 355.209 217.896 355.209C217.46 355.209 217.063 355.104 216.706 354.896C216.354 354.687 216.073 354.409 215.864 354.061C215.73 354.232 215.584 354.39 215.426 354.534C215.273 354.673 215.106 354.796 214.925 354.903C214.749 355.005 214.561 355.083 214.362 355.139C214.162 355.199 213.954 355.23 213.736 355.23C213.527 355.23 213.325 355.202 213.13 355.146C212.936 355.095 212.755 355.019 212.588 354.917C212.421 354.814 212.27 354.692 212.136 354.548C212.001 354.399 211.89 354.235 211.802 354.054C211.57 354.462 211.285 354.757 210.946 354.937C210.608 355.118 210.176 355.209 209.652 355.209H209.353V353.428H209.645ZM228.433 353.428V355.209H228.294C227.844 355.209 227.464 355.137 227.153 354.993C226.843 354.849 226.578 354.664 226.36 354.437C226.207 354.631 225.98 354.782 225.678 354.889C225.382 354.991 225.05 355.065 224.684 355.111C224.317 355.162 223.939 355.19 223.55 355.195C223.165 355.204 222.81 355.209 222.485 355.209H222.228V353.428H222.485C223.028 353.428 223.485 353.398 223.856 353.337C224.227 353.272 224.526 353.18 224.753 353.059C224.985 352.939 225.152 352.788 225.254 352.607C225.356 352.421 225.407 352.208 225.407 351.967C225.407 351.809 225.377 351.601 225.317 351.341C225.256 351.077 225.166 350.738 225.045 350.325L226.757 349.845C226.817 350.049 226.863 350.23 226.896 350.388C226.933 350.541 226.961 350.696 226.979 350.854C227.003 351.007 227.021 351.174 227.035 351.355C227.054 351.531 227.072 351.742 227.091 351.988C227.105 352.136 227.139 352.296 227.195 352.468C227.251 352.635 227.327 352.79 227.425 352.934C227.527 353.073 227.65 353.191 227.793 353.289C227.937 353.381 228.104 353.428 228.294 353.428H228.433ZM224.816 357.268L223.633 358.45L222.437 357.261L223.619 356.071L224.816 357.268ZM227.445 357.275L226.263 358.464L225.066 357.268L226.249 356.085L227.445 357.275ZM228.15 353.428H228.658C228.825 353.428 228.98 353.414 229.124 353.386C229.268 353.358 229.395 353.3 229.506 353.212C229.618 353.119 229.708 352.992 229.778 352.83C229.847 352.667 229.891 352.449 229.91 352.176C229.91 352.069 229.912 351.883 229.917 351.619C229.926 351.35 229.933 351.032 229.938 350.666C229.942 350.295 229.947 349.889 229.952 349.449C229.956 349.008 229.959 348.558 229.959 348.099C229.959 347.742 229.956 347.392 229.952 347.049C229.952 346.701 229.947 346.367 229.938 346.047C229.933 345.727 229.922 345.426 229.903 345.143C229.889 344.86 229.868 344.602 229.84 344.37L231.614 344.141C231.647 344.391 231.672 344.674 231.691 344.99C231.709 345.305 231.723 345.641 231.733 345.998C231.746 346.351 231.753 346.722 231.753 347.111C231.758 347.496 231.76 347.886 231.76 348.28C231.76 349.157 231.751 349.919 231.733 350.569C231.719 351.218 231.712 351.793 231.712 352.294C231.712 352.646 231.802 352.925 231.983 353.129C232.164 353.328 232.433 353.428 232.79 353.428H232.943V355.209H232.79C232.762 355.209 232.737 355.209 232.713 355.209C232.533 355.209 232.354 355.192 232.178 355.16C232.006 355.132 231.839 355.088 231.677 355.028C231.519 354.972 231.373 354.905 231.239 354.826C231.104 354.747 230.986 354.666 230.884 354.583C230.749 354.712 230.601 354.819 230.439 354.903C230.281 354.981 230.119 355.044 229.952 355.09C229.785 355.137 229.62 355.167 229.458 355.181C229.295 355.199 229.149 355.209 229.019 355.209H228.15V353.428ZM232.666 353.428H234.829C235.098 353.428 235.339 353.395 235.553 353.33C235.77 353.266 235.954 353.182 236.102 353.08C236.25 352.973 236.364 352.853 236.443 352.718C236.526 352.579 236.568 352.438 236.568 352.294C236.568 352.071 236.524 351.83 236.436 351.57C236.348 351.306 236.23 351.039 236.081 350.77C235.937 350.497 235.766 350.223 235.566 349.95C235.372 349.671 235.165 349.407 234.947 349.157C234.729 348.901 234.504 348.665 234.273 348.447C234.045 348.229 233.827 348.037 233.619 347.87L233.786 345.908L239.873 343.334L240.519 344.927L235.267 347.083C235.624 347.394 235.935 347.703 236.199 348.009C236.468 348.31 236.707 348.614 236.916 348.92C237.129 349.221 237.322 349.525 237.493 349.831C237.665 350.137 237.832 350.446 237.994 350.757C238.11 350.979 238.226 351.197 238.342 351.41C238.458 351.624 238.583 351.842 238.718 352.064V352.057C238.843 352.266 238.975 352.454 239.114 352.621C239.258 352.788 239.411 352.932 239.573 353.052C239.74 353.173 239.921 353.266 240.116 353.33C240.315 353.395 240.533 353.428 240.77 353.428H241.208V355.209H241.006C240.635 355.209 240.299 355.183 239.998 355.132C239.696 355.081 239.416 355 239.156 354.889C238.901 354.777 238.66 354.636 238.433 354.464C238.21 354.288 237.99 354.077 237.772 353.831C237.609 354.072 237.426 354.279 237.222 354.45C237.018 354.617 236.798 354.757 236.561 354.868C236.325 354.974 236.074 355.053 235.81 355.104C235.55 355.16 235.281 355.195 235.003 355.209H232.666V353.428ZM239.657 342.68L233.786 345.073L233.834 344.176L239.316 341.97L239.657 342.68ZM240.931 353.428H242.051C242.269 353.428 242.492 353.416 242.719 353.393C242.951 353.365 243.16 353.312 243.345 353.233C243.531 353.15 243.681 353.031 243.797 352.878C243.918 352.725 243.978 352.521 243.978 352.266C243.978 352.146 243.953 351.976 243.902 351.758C243.851 351.54 243.783 351.299 243.7 351.035C243.616 350.77 243.517 350.497 243.401 350.214C243.289 349.931 243.171 349.667 243.046 349.421L244.653 348.628C244.769 348.892 244.885 349.173 245.001 349.47C245.117 349.766 245.219 350.072 245.307 350.388C245.4 350.699 245.474 351.012 245.529 351.327C245.585 351.642 245.613 351.951 245.613 352.252C245.613 352.772 245.525 353.219 245.349 353.595C245.172 353.966 244.927 354.272 244.611 354.513C244.296 354.75 243.918 354.923 243.477 355.035C243.041 355.151 242.561 355.209 242.037 355.209H240.931V353.428ZM244.486 346.27L243.15 347.605L241.822 346.27L243.15 344.941L244.486 346.27ZM248.829 344.141C248.944 345.027 249.026 345.873 249.072 346.68C249.118 347.482 249.146 348.268 249.155 349.038C249.165 349.692 249.167 350.297 249.162 350.854C249.162 351.41 249.158 351.93 249.149 352.412C249.139 352.89 249.125 353.337 249.107 353.755C249.088 354.168 249.07 354.555 249.051 354.917L247.229 355.195C247.326 353.664 247.375 352.312 247.375 351.139C247.375 350.666 247.368 350.223 247.354 349.81C247.317 348.86 247.275 347.967 247.229 347.132C247.182 346.293 247.12 345.49 247.041 344.725L248.829 344.141Z" fill="black"/>
</svg>
