<svg width="400" height="400" viewBox="0 0 400 400" fill="none" xmlns="http://www.w3.org/2000/svg">
<rect width="400" height="400" fill="white"/>
<path d="M167.797 53.7443C167 53.7443 166.262 53.6446 165.585 53.4452C164.908 53.2504 164.331 52.9536 163.853 52.5548C163.375 52.1606 163.016 51.6643 162.775 51.0661C162.58 50.5977 162.483 50.0667 162.483 49.473C162.483 49.3154 162.49 49.153 162.503 48.9861C162.531 48.6661 162.568 48.3391 162.615 48.0052C162.666 47.6713 162.733 47.3212 162.816 46.9548C162.905 46.5838 163.016 46.1919 163.15 45.7791C163.285 45.3664 163.452 44.9212 163.651 44.4435L165.084 45.1043C164.894 45.5774 164.736 46.0157 164.611 46.4191C164.486 46.818 164.386 47.189 164.312 47.5322C164.243 47.8754 164.194 48.1977 164.166 48.4991C164.138 48.8006 164.124 49.0904 164.124 49.3687C164.124 49.7026 164.166 50.0017 164.25 50.2661C164.338 50.5304 164.449 50.767 164.583 50.9757C164.764 51.2214 164.992 51.4093 165.265 51.5391C165.539 51.6736 165.826 51.771 166.128 51.8313C166.434 51.8916 166.733 51.9264 167.025 51.9357C167.322 51.9496 167.579 51.9565 167.797 51.9565C167.927 51.9565 168.115 51.9472 168.361 51.9287C168.611 51.9101 168.883 51.8777 169.175 51.8313C169.472 51.7849 169.775 51.7246 170.086 51.6504C170.397 51.5762 170.677 51.4835 170.928 51.3722C171.183 51.2609 171.389 51.131 171.547 50.9826C171.709 50.8342 171.79 50.6603 171.79 50.4609C171.79 50.4284 171.749 50.3774 171.665 50.3078C171.586 50.2429 171.475 50.1687 171.331 50.0852C171.192 50.0017 171.027 49.9136 170.837 49.8209C170.647 49.7328 170.443 49.647 170.225 49.5635C169.905 49.4568 169.587 49.378 169.272 49.327C168.957 49.2759 168.644 49.2226 168.333 49.167L168.57 47.4278H174.093V49.2087H172.792C172.978 49.4359 173.101 49.6586 173.161 49.8765C173.226 50.0991 173.261 50.2939 173.265 50.4609C173.247 50.869 173.142 51.233 172.952 51.553C172.762 51.8777 172.516 52.1606 172.215 52.4017C171.918 52.6475 171.579 52.8539 171.199 53.0209C170.819 53.1925 170.429 53.3316 170.03 53.4383C169.632 53.5449 169.237 53.6214 168.848 53.6678C168.463 53.7188 168.113 53.7443 167.797 53.7443ZM173.822 47.4278H175.304C175.522 47.4278 175.756 47.4162 176.006 47.393C176.261 47.3652 176.495 47.3119 176.709 47.233C176.927 47.1496 177.105 47.0313 177.244 46.8783C177.388 46.7252 177.46 46.5212 177.46 46.2661C177.46 46.1455 177.435 45.9762 177.384 45.7583C177.333 45.5403 177.265 45.2991 177.182 45.0348C177.098 44.7704 176.999 44.4968 176.883 44.2139C176.771 43.931 176.653 43.6667 176.528 43.4209L178.135 42.6278C178.251 42.8922 178.367 43.1728 178.483 43.4696C178.599 43.7664 178.701 44.0725 178.789 44.3878C178.882 44.6986 178.956 45.0116 179.011 45.327C179.067 45.6423 179.095 45.9507 179.095 46.2522C179.095 46.7901 178.995 47.247 178.796 47.6226C178.596 47.9983 178.323 48.3043 177.975 48.5409C177.632 48.7728 177.228 48.942 176.764 49.0487C176.305 49.1554 175.814 49.2087 175.29 49.2087H173.822V47.4278ZM176.41 51.2678L175.227 52.4504L174.031 51.2609L175.213 50.0713L176.41 51.2678ZM179.039 51.2748L177.857 52.4643L176.66 51.2678L177.843 50.0852L179.039 51.2748ZM180.234 52.3391C180.916 52.2046 181.531 52.0238 182.078 51.7965C182.63 51.5739 183.107 51.3235 183.511 51.0452C183.914 50.767 184.241 50.4701 184.492 50.1548C184.747 49.8394 184.916 49.5241 184.999 49.2087C184.624 49.2087 184.257 49.1971 183.9 49.1739C183.543 49.1507 183.205 49.1043 182.885 49.0348C182.569 48.9699 182.277 48.8771 182.008 48.7565C181.744 48.6313 181.514 48.469 181.319 48.2696C181.129 48.0655 180.981 47.8197 180.874 47.5322C180.768 47.2446 180.714 46.9014 180.714 46.5026C180.714 46.2475 180.742 45.9809 180.798 45.7026C180.853 45.4243 180.932 45.153 181.034 44.8887C181.141 44.6197 181.271 44.367 181.424 44.1304C181.577 43.8893 181.753 43.6783 181.953 43.4974C182.152 43.3119 182.372 43.1658 182.613 43.0591C182.855 42.9525 183.114 42.8991 183.393 42.8991C184.111 42.8991 184.768 43.2191 185.361 43.8591C185.556 44.0771 185.732 44.3206 185.89 44.5896C186.048 44.8586 186.184 45.1461 186.3 45.4522C186.416 45.7583 186.509 46.0783 186.579 46.4122C186.653 46.7414 186.699 47.08 186.718 47.4278H187.184V49.2087H186.572C186.414 49.8951 186.147 50.5119 185.772 51.0591C185.396 51.611 184.944 52.091 184.415 52.4991C183.891 52.9072 183.307 53.2435 182.662 53.5078C182.017 53.7722 181.347 53.9623 180.652 54.0783L180.234 52.3391ZM183.393 44.687C183.272 44.687 183.142 44.738 183.003 44.84C182.864 44.942 182.736 45.0742 182.62 45.2365C182.504 45.3942 182.407 45.5704 182.328 45.7652C182.254 45.96 182.217 46.1501 182.217 46.3357C182.217 46.5304 182.261 46.6928 182.349 46.8226C182.442 46.9525 182.558 47.0568 182.697 47.1357C182.841 47.2145 183.001 47.2748 183.177 47.3165C183.358 47.3536 183.536 47.3791 183.713 47.393C183.81 47.4023 183.917 47.4093 184.033 47.4139C184.148 47.4139 184.267 47.4162 184.387 47.4209C184.513 47.4255 184.635 47.4278 184.756 47.4278C184.877 47.4278 184.99 47.4278 185.097 47.4278C185.083 47.2562 185.048 47.0707 184.993 46.8713C184.942 46.6672 184.874 46.4632 184.791 46.2591C184.707 46.0551 184.612 45.8603 184.506 45.6748C184.399 45.4846 184.283 45.3177 184.158 45.1739C184.037 45.0255 183.912 44.9072 183.782 44.8191C183.652 44.731 183.522 44.687 183.393 44.687ZM193.105 47.4278V49.2087H192.966C192.516 49.2087 192.136 49.1368 191.825 48.993C191.514 48.8493 191.25 48.6638 191.032 48.4365C190.879 48.6313 190.652 48.782 190.35 48.8887C190.054 48.9907 189.722 49.0649 189.356 49.1113C188.989 49.1623 188.611 49.1901 188.222 49.1948C187.837 49.2041 187.482 49.2087 187.157 49.2087H186.9V47.4278H187.157C187.7 47.4278 188.157 47.3977 188.528 47.3374C188.899 47.2725 189.198 47.1797 189.425 47.0591C189.657 46.9386 189.824 46.7878 189.926 46.607C190.028 46.4214 190.079 46.2081 190.079 45.967C190.079 45.8093 190.049 45.6006 189.989 45.3409C189.928 45.0765 189.838 44.738 189.717 44.3252L191.429 43.8452C191.489 44.0493 191.535 44.2301 191.568 44.3878C191.605 44.5409 191.633 44.6962 191.651 44.8539C191.674 45.007 191.693 45.1739 191.707 45.3548C191.725 45.531 191.744 45.742 191.763 45.9878C191.776 46.1362 191.811 46.2962 191.867 46.4678C191.923 46.6348 191.999 46.7901 192.096 46.9339C192.198 47.073 192.321 47.1913 192.465 47.2887C192.609 47.3814 192.776 47.4278 192.966 47.4278H193.105ZM190.016 41.2643L188.834 42.447L187.637 41.2574L188.82 40.0678L190.016 41.2643ZM192.646 41.2713L191.463 42.4609L190.267 41.2643L191.449 40.0817L192.646 41.2713ZM192.822 47.4278H193.351C193.606 47.4278 193.817 47.4 193.984 47.3443C194.151 47.2841 194.28 47.1913 194.373 47.0661C194.466 46.9409 194.528 46.7809 194.561 46.5861C194.598 46.3867 194.617 46.1478 194.617 45.8696C194.617 45.7629 194.617 45.6354 194.617 45.487C194.621 45.3386 194.621 45.1391 194.617 44.8887C194.617 44.6336 194.607 44.3136 194.589 43.9287C194.57 43.5391 194.54 43.0522 194.498 42.4678C194.48 41.9716 194.459 41.4962 194.436 41.0417C194.413 40.5872 194.389 40.1814 194.366 39.8243C194.348 39.4672 194.329 39.1728 194.311 38.9409C194.297 38.709 194.287 38.5675 194.283 38.5165L196.036 38.1409C196.087 38.6881 196.133 39.3258 196.175 40.0539C196.221 40.782 196.263 41.5658 196.3 42.4052C196.319 43.0359 196.335 43.5554 196.349 43.9635C196.363 44.367 196.374 44.7032 196.384 44.9722C196.397 45.2365 196.407 45.4545 196.411 45.6261C196.416 45.793 196.418 45.9554 196.418 46.113C196.418 46.5907 196.358 47.022 196.237 47.407C196.117 47.7872 195.931 48.1119 195.681 48.3809C195.431 48.6452 195.113 48.8493 194.728 48.993C194.343 49.1368 193.884 49.2087 193.351 49.2087H192.822V47.4278ZM201.394 49.2087H201.116C200.174 49.2087 199.46 48.9722 198.973 48.4991C198.486 48.0261 198.24 47.3119 198.236 46.3565C198.236 46.2081 198.24 45.9646 198.25 45.6261C198.259 45.2829 198.264 44.8655 198.264 44.3739C198.264 44.0817 198.261 43.7687 198.257 43.4348C198.252 43.0962 198.245 42.753 198.236 42.4052C198.227 42.0528 198.213 41.7026 198.194 41.3548C198.18 41.0023 198.162 40.6638 198.138 40.3391C198.115 40.0099 198.087 39.7038 198.055 39.4209C198.022 39.1333 197.985 38.8806 197.944 38.6626L199.69 38.1409C199.741 38.4099 199.787 38.7391 199.829 39.1287C199.871 39.5136 199.908 39.9264 199.94 40.367C199.973 40.8075 199.996 41.2574 200.01 41.7165C200.028 42.171 200.038 42.6 200.038 43.0035C200.038 43.2493 200.04 43.5113 200.044 43.7896C200.049 44.0632 200.051 44.3043 200.051 44.513C200.051 44.6893 200.049 44.8562 200.044 45.0139C200.044 45.167 200.042 45.3154 200.038 45.4591C200.038 45.6029 200.035 45.7443 200.031 45.8835C200.031 46.0226 200.031 46.1641 200.031 46.3078C200.031 46.3449 200.031 46.382 200.031 46.4191C200.031 46.5861 200.047 46.7345 200.079 46.8643C200.116 46.9942 200.179 47.1032 200.267 47.1913C200.355 47.2748 200.467 47.3351 200.601 47.3722C200.74 47.4093 200.9 47.4278 201.081 47.4278H201.394V49.2087ZM201.119 47.4278H202.6C202.818 47.4278 203.053 47.4162 203.303 47.393C203.558 47.3652 203.792 47.3119 204.006 47.233C204.224 47.1496 204.402 47.0313 204.541 46.8783C204.685 46.7252 204.757 46.5212 204.757 46.2661C204.757 46.1455 204.731 45.9762 204.68 45.7583C204.629 45.5403 204.562 45.2991 204.479 45.0348C204.395 44.7704 204.295 44.4968 204.18 44.2139C204.068 43.931 203.95 43.6667 203.825 43.4209L205.432 42.6278C205.548 42.8922 205.664 43.1728 205.78 43.4696C205.895 43.7664 205.998 44.0725 206.086 44.3878C206.178 44.6986 206.253 45.0116 206.308 45.327C206.364 45.6423 206.392 45.9507 206.392 46.2522C206.392 46.7901 206.292 47.247 206.093 47.6226C205.893 47.9983 205.62 48.3043 205.272 48.5409C204.929 48.7728 204.525 48.942 204.061 49.0487C203.602 49.1554 203.111 49.2087 202.587 49.2087H201.119V47.4278ZM204.047 51.5809L205.23 50.3983L206.427 51.5878L205.244 52.7774L204.047 51.5809ZM201.418 51.5739L202.6 50.3843L203.797 51.5809L202.614 52.7635L201.418 51.5739ZM205.007 53.5913L203.922 54.6765L202.83 53.5843L203.922 52.4991L205.007 53.5913ZM216.65 52.8748C216.919 52.9212 217.19 52.9443 217.464 52.9443C217.533 52.9443 217.67 52.9397 217.874 52.9304C218.078 52.9212 218.34 52.8794 218.66 52.8052C218.98 52.731 219.286 52.6313 219.578 52.5061C219.875 52.3809 220.146 52.2371 220.392 52.0748L221.331 53.633C221.062 53.7954 220.784 53.9438 220.497 54.0783C220.214 54.2174 219.919 54.3357 219.613 54.433C219.312 54.5304 218.999 54.6046 218.674 54.6557C218.391 54.702 218.101 54.7252 217.804 54.7252C217.758 54.7252 217.709 54.7252 217.658 54.7252C217.222 54.7159 216.786 54.6696 216.351 54.5861C215.919 54.5026 215.506 54.382 215.112 54.2243C214.723 54.0667 214.359 53.8696 214.02 53.633C213.686 53.4012 213.394 53.1299 213.144 52.8191C212.898 52.513 212.703 52.1675 212.559 51.7826C212.415 51.4023 212.341 50.9803 212.337 50.5165C212.351 50.0203 212.443 49.5565 212.615 49.1252C212.786 48.6986 213.014 48.309 213.297 47.9565C213.584 47.5994 213.913 47.2817 214.284 47.0035C214.66 46.7252 215.057 46.4864 215.474 46.287C215.326 46.1478 215.173 46.011 215.015 45.8765C214.862 45.7374 214.713 45.6075 214.57 45.487C214.426 45.3617 214.291 45.2481 214.166 45.1461C214.041 45.0394 213.937 44.949 213.853 44.8748L213.721 43.3861C214.328 42.8574 214.982 42.4609 215.683 42.1965C216.388 41.9275 217.123 41.793 217.888 41.793C218.115 41.793 218.349 41.8093 218.591 41.8417C218.836 41.8742 219.075 41.9252 219.307 41.9948C219.539 42.0643 219.757 42.1548 219.961 42.2661C220.165 42.3774 220.344 42.5142 220.497 42.6765C220.65 42.8342 220.77 43.0174 220.858 43.2261C220.937 43.4301 220.977 43.6574 220.977 43.9078C220.977 43.9217 220.977 43.9357 220.977 43.9496C220.958 44.302 220.888 44.6174 220.768 44.8957C220.652 45.1739 220.499 45.4243 220.309 45.647C220.119 45.8696 219.898 46.069 219.648 46.2452C219.402 46.4214 219.14 46.5838 218.862 46.7322C219.237 46.9409 219.636 47.1101 220.058 47.24C220.485 47.3652 220.9 47.4278 221.304 47.4278H221.54V49.2087H221.304C220.919 49.2087 220.545 49.1693 220.184 49.0904C219.822 49.0116 219.465 48.9003 219.112 48.7565C218.76 48.6081 218.41 48.4342 218.062 48.2348C217.714 48.0307 217.364 47.8058 217.011 47.56C216.673 47.6945 216.33 47.8522 215.982 48.033C215.634 48.2093 215.316 48.418 215.029 48.6591C214.746 48.8957 214.514 49.1646 214.333 49.4661C214.152 49.7675 214.062 50.1084 214.062 50.4887C214.062 50.702 214.104 50.9061 214.187 51.1009C214.275 51.2957 214.389 51.4765 214.528 51.6435C214.667 51.8151 214.827 51.9704 215.008 52.1096C215.189 52.2533 215.374 52.3762 215.564 52.4783C215.759 52.5849 215.949 52.6707 216.135 52.7357C216.325 52.8052 216.497 52.8516 216.65 52.8748ZM217.895 43.4904C217.709 43.4904 217.515 43.5043 217.311 43.5322C217.106 43.5554 216.905 43.5901 216.705 43.6365C216.506 43.6783 216.313 43.7316 216.128 43.7965C215.947 43.8568 215.787 43.9241 215.648 43.9983C215.745 44.1003 215.854 44.2186 215.975 44.353C216.095 44.4829 216.223 44.6197 216.357 44.7635C216.497 44.9072 216.638 45.051 216.782 45.1948C216.926 45.3339 217.067 45.4638 217.206 45.5843C217.512 45.4545 217.797 45.3223 218.062 45.1878C218.326 45.0533 218.556 44.9165 218.751 44.7774C218.95 44.6336 219.108 44.4852 219.224 44.3322C219.339 44.1791 219.4 44.0214 219.404 43.8591C219.4 43.8406 219.37 43.8128 219.314 43.7757C219.258 43.7386 219.168 43.7014 219.043 43.6643C218.922 43.6226 218.767 43.5855 218.577 43.553C218.391 43.5206 218.164 43.4997 217.895 43.4904ZM221.259 47.4278H222.317L222.365 47.3374C222.444 47.1983 222.556 47.0151 222.699 46.7878C222.848 46.5559 223.033 46.2939 223.256 46.0017C223.298 45.7096 223.332 45.3409 223.36 44.8957C223.388 44.4504 223.404 43.9681 223.409 43.4487C223.409 43.1658 223.404 42.8759 223.395 42.5791C223.386 42.2777 223.367 41.9322 223.339 41.5426C223.311 41.153 223.272 40.6986 223.221 40.1791C223.175 39.6551 223.114 39.0313 223.04 38.3078L224.87 37.8348C224.99 38.7252 225.081 39.6388 225.141 40.5757C225.206 41.5125 225.238 42.44 225.238 43.3583V43.9217C225.489 43.7084 225.749 43.5043 226.018 43.3096C226.291 43.1148 226.574 42.9432 226.866 42.7948C227.163 42.6464 227.471 42.5281 227.791 42.44C228.111 42.3519 228.445 42.3078 228.793 42.3078C229.146 42.3078 229.48 42.3635 229.795 42.4748C230.11 42.5861 230.389 42.7484 230.63 42.9617C230.876 43.1704 231.077 43.4255 231.235 43.727C231.393 44.0284 231.49 44.367 231.527 44.7426C231.532 44.8122 231.534 44.8794 231.534 44.9443C231.534 45.4267 231.453 45.8765 231.291 46.2939C231.133 46.7113 230.899 47.0893 230.588 47.4278H232.55V49.2087H230.699C230.333 49.2087 229.925 49.1925 229.475 49.16C229.025 49.1275 228.527 49.0417 227.979 48.9026C227.585 49.0093 227.184 49.0858 226.776 49.1322C226.372 49.1832 225.967 49.2087 225.558 49.2087H221.259V47.4278ZM224.911 47.4278C225.194 47.4278 225.519 47.4209 225.885 47.407C226.256 47.393 226.637 47.3606 227.026 47.3096C227.416 47.2586 227.794 47.182 228.16 47.08C228.531 46.978 228.86 46.8412 229.148 46.6696C229.436 46.498 229.663 46.2823 229.83 46.0226C229.974 45.8 230.045 45.5357 230.045 45.2296C230.045 45.1878 230.043 45.1438 230.038 45.0974C230.029 44.9583 229.983 44.8284 229.899 44.7078C229.82 44.5872 229.709 44.4852 229.565 44.4017C229.426 44.3136 229.259 44.2441 229.065 44.193C228.898 44.1559 228.717 44.1374 228.522 44.1374C228.485 44.1374 228.445 44.1374 228.404 44.1374C228.172 44.1467 227.896 44.207 227.576 44.3183C227.256 44.4249 226.913 44.6058 226.546 44.8609C226.18 45.1159 225.8 45.4522 225.405 45.8696C225.011 46.287 224.626 46.8064 224.251 47.4278H224.911ZM232.442 47.4278C232.929 47.4278 233.397 47.4139 233.847 47.3861C234.297 47.3536 234.707 47.3096 235.078 47.2539C235.449 47.1983 235.769 47.131 236.038 47.0522C236.307 46.9733 236.509 46.8852 236.644 46.7878H235.934C235.526 46.7878 235.136 46.7368 234.765 46.6348C234.399 46.5281 234.077 46.3704 233.798 46.1617C233.52 45.953 233.298 45.6933 233.131 45.3826C232.968 45.0672 232.887 44.7009 232.887 44.2835C232.887 44.0377 232.913 43.7849 232.964 43.5252C233.015 43.2655 233.091 43.0128 233.193 42.767C233.295 42.5212 233.418 42.2893 233.562 42.0713C233.706 41.8533 233.87 41.6632 234.056 41.5009C234.241 41.3339 234.445 41.2041 234.668 41.1113C234.891 41.0139 235.132 40.9652 235.391 40.9652C235.711 40.9652 236.011 41.0325 236.289 41.167C236.567 41.3014 236.82 41.4846 237.047 41.7165C237.274 41.9438 237.476 42.2081 237.652 42.5096C237.829 42.811 237.977 43.1287 238.098 43.4626C238.218 43.7965 238.309 44.1374 238.369 44.4852C238.434 44.8284 238.466 45.1554 238.466 45.4661C238.466 45.9948 238.392 46.4539 238.244 46.8435C238.1 47.233 237.896 47.567 237.631 47.8452C237.372 48.1235 237.059 48.3507 236.692 48.527C236.331 48.7032 235.929 48.8423 235.489 48.9443C235.048 49.0464 234.575 49.1159 234.07 49.153C233.569 49.1901 233.049 49.2087 232.511 49.2087H232.275V47.4278H232.442ZM235.391 42.76C235.368 42.7554 235.345 42.753 235.322 42.753C235.229 42.753 235.122 42.7901 235.002 42.8643C234.881 42.9386 234.765 43.0452 234.654 43.1843C234.543 43.3235 234.452 43.4812 234.383 43.6574C234.313 43.829 234.278 43.9983 234.278 44.1652C234.278 44.1745 234.278 44.1838 234.278 44.193C234.278 44.36 234.316 44.4968 234.39 44.6035C234.464 44.7055 234.564 44.7843 234.689 44.84C234.819 44.8957 234.967 44.9351 235.134 44.9583C235.306 44.9814 235.487 44.9977 235.677 45.007C235.802 45.0116 235.932 45.0139 236.066 45.0139C236.131 45.0139 236.231 45.0139 236.365 45.0139C236.504 45.0093 236.646 45.0023 236.79 44.993C236.748 44.8261 236.688 44.6197 236.609 44.3739C236.535 44.1235 236.44 43.8823 236.324 43.6504C236.212 43.4139 236.078 43.2099 235.92 43.0383C235.767 42.8667 235.591 42.7739 235.391 42.76ZM235.224 38.8713L234.042 40.0539L232.845 38.8643L234.028 37.6748L235.224 38.8713ZM237.854 38.8783L236.671 40.0678L235.475 38.8713L236.658 37.6887L237.854 38.8783Z" fill="black"/>
<path d="M43.7864 219.172L231.876 103.544L363.87 191.54L176.005 317.718L43.7864 229.572L43.7864 219.172Z" fill="#E7E7E7" stroke="black"/>
<path d="M364.111 180.697L364.114 191.376L176.531 317.364L175.797 306.869L363.755 180.519L364.111 180.697Z" fill="#A3A3A3" stroke="black"/>
<rect x="0.000955552" y="0.556128" width="158.615" height="226.305" transform="matrix(0.83205 0.5547 -0.830139 0.557556 232.355 92.2455)" fill="#E7E7E7" stroke="black"/>
<path d="M176.006 306.718L167.798 301.247L355.663 175.069L363.87 180.54L176.006 306.718Z" fill="#A3A3A3" stroke="black"/>
<path d="M130.588 129.527C130.588 129.541 130.597 129.605 130.615 129.719C130.632 129.825 130.649 129.974 130.667 130.164C130.684 130.347 130.698 130.56 130.71 130.803C130.716 130.973 130.719 131.148 130.719 131.329V131.6C130.696 133.223 130.38 134.664 129.772 135.925V135.915C129.182 137.164 128.38 138.126 127.367 138.802C127.09 138.987 126.838 139.134 126.612 139.243C126.392 139.34 126.172 139.411 125.952 139.453L126.022 139.98C126.091 140.588 126.146 141.226 126.187 141.895C126.233 142.553 126.268 143.222 126.291 143.902C126.32 144.571 126.337 145.241 126.343 145.912C126.354 146.573 126.36 147.205 126.36 147.81L124.632 148.962C124.632 147.856 124.624 146.763 124.606 145.682C124.589 144.595 124.543 143.561 124.467 142.582C124.392 141.595 124.279 140.683 124.129 139.844C123.984 138.994 123.782 138.26 123.521 137.641C123.4 137.346 123.269 137.074 123.13 136.826C122.991 136.578 122.835 136.331 122.662 136.085L124.111 134.012C124.204 134.131 124.288 134.26 124.363 134.397C124.444 134.524 124.522 134.663 124.598 134.815C124.679 134.956 124.76 135.11 124.841 135.279C124.922 135.448 125.012 135.628 125.11 135.82C125.243 136.1 125.373 136.347 125.501 136.561C125.634 136.764 125.784 136.918 125.952 137.022C126.126 137.121 126.323 137.157 126.543 137.129C126.768 137.09 127.043 136.962 127.367 136.746C127.848 136.426 128.21 136.007 128.453 135.49C128.563 135.264 128.652 135.027 128.722 134.779C128.791 134.524 128.846 134.268 128.887 134.011C128.933 133.751 128.965 133.493 128.982 133.238C129 132.983 129.008 132.741 129.008 132.511C129.008 132.212 128.994 131.933 128.965 131.674C128.942 131.411 128.916 131.199 128.887 131.037L130.588 129.527ZM134.952 142.145C134.952 140.789 134.931 139.456 134.891 138.148C134.85 136.832 134.76 135.605 134.622 134.466C134.483 133.328 134.283 132.309 134.023 131.412C133.768 130.51 133.423 129.794 132.989 129.262L134.431 127.195C134.905 127.79 135.299 128.582 135.611 129.57C135.93 130.547 136.173 131.745 136.341 133.164C136.41 133.771 136.465 134.409 136.506 135.078C136.552 135.743 136.587 136.415 136.61 137.096C136.639 137.765 136.656 138.432 136.662 139.096C136.673 139.756 136.679 140.388 136.679 140.994L134.952 142.145Z" fill="black"/>
<path d="M303.341 124.699C303.341 123.342 303.32 121.983 303.28 120.62C303.239 119.25 303.149 117.904 303.011 116.58C302.872 115.256 302.672 113.971 302.411 112.726C302.157 111.485 301.812 110.31 301.378 109.199L302.82 109.054C303.294 110.282 303.688 111.598 304 113.003C304.319 114.405 304.562 115.927 304.73 117.569C304.799 118.269 304.854 118.981 304.895 119.704C304.941 120.43 304.976 121.149 304.999 121.86C305.028 122.568 305.045 123.258 305.051 123.93C305.062 124.605 305.068 125.245 305.068 125.851L303.341 124.699ZM309.093 128.534C309.093 127.178 309.073 125.818 309.033 124.455C308.992 123.086 308.902 121.739 308.763 120.415C308.625 119.091 308.425 117.807 308.164 116.562C307.91 115.321 307.565 114.145 307.131 113.035L308.572 112.889C309.047 114.117 309.441 115.433 309.753 116.838C310.072 118.24 310.315 119.762 310.483 121.405C310.552 122.105 310.607 122.816 310.647 123.539C310.694 124.265 310.729 124.984 310.752 125.695C310.781 126.403 310.798 127.093 310.804 127.765C310.815 128.44 310.821 129.081 310.821 129.686L309.093 128.534Z" fill="black"/>
<path d="M184.11 189.513C183.351 189.008 182.752 188.415 182.311 187.735C181.877 187.058 181.67 186.299 181.692 185.455L185.472 185.019C185.496 185.383 185.557 185.71 185.656 186C185.76 186.286 185.888 186.541 186.039 186.765C186.189 186.989 186.355 187.184 186.534 187.35C186.719 187.52 186.908 187.669 187.099 187.796C187.255 187.9 187.431 188.006 187.628 188.114C187.831 188.219 188.042 188.313 188.262 188.398C188.487 188.486 188.713 188.559 188.938 188.617C189.164 188.675 189.387 188.707 189.606 188.715C189.918 188.211 190.229 187.681 190.54 187.123C190.863 186.565 191.183 186.006 191.5 185.444C191.823 184.879 192.143 184.319 192.46 183.765C192.777 183.212 193.088 182.685 193.394 182.185L196.986 183.166L192.947 189.713C192.797 189.953 192.67 190.166 192.566 190.352C192.463 190.538 192.405 190.712 192.394 190.874C192.388 191.041 192.435 191.199 192.534 191.35C192.644 191.501 192.829 191.663 193.089 191.836L193.341 192.004L190.604 193.843L190.352 193.675C189.999 193.44 189.71 193.216 189.484 193.003C189.264 192.795 189.09 192.59 188.962 192.389C188.835 192.196 188.745 192.004 188.692 191.815C188.652 191.625 188.631 191.434 188.631 191.241C188.186 191.183 187.769 191.107 187.382 191.011C186.988 190.918 186.609 190.801 186.245 190.659C185.88 190.516 185.525 190.348 185.177 190.156C184.83 189.97 184.474 189.756 184.11 189.513ZM192.997 191.775L193.561 192.151C193.821 192.324 194.082 192.444 194.342 192.509C194.614 192.575 194.883 192.595 195.149 192.572C195.426 192.548 195.695 192.484 195.955 192.379C196.221 192.278 196.478 192.144 196.726 191.977C197.072 191.752 197.488 191.477 197.973 191.151C198.464 190.821 198.987 190.466 199.541 190.086C200.101 189.702 200.676 189.305 201.265 188.894C201.86 188.479 202.434 188.073 202.989 187.678C203.549 187.278 204.077 186.9 204.574 186.543C205.076 186.183 205.512 185.867 205.882 185.595L209.145 187.098L198.854 194.138C198.496 194.378 198.303 194.628 198.275 194.888C198.258 195.147 198.429 195.396 198.788 195.635L198.979 195.763L196.241 197.601L196.05 197.474C195.807 197.319 195.587 197.146 195.39 196.953C195.199 196.763 195.04 196.568 194.912 196.367C194.779 196.17 194.686 195.977 194.634 195.787C194.581 195.598 194.575 195.428 194.616 195.277C194.344 195.297 194.069 195.291 193.792 195.261C193.514 195.23 193.222 195.163 192.915 195.059C192.609 194.963 192.282 194.826 191.935 194.649C191.588 194.472 191.211 194.248 190.806 193.978L190.259 193.613L192.997 191.775ZM198.632 195.532L200.464 196.753C201.402 197.378 202.316 197.914 203.208 198.362C204.11 198.809 204.998 199.196 205.872 199.523C206.746 199.851 207.61 200.134 208.466 200.372C209.334 200.61 210.199 200.835 211.061 201.047C210.777 200.71 210.516 200.355 210.278 199.98C210.046 199.609 209.806 199.24 209.557 198.873C209.313 198.51 209.047 198.162 208.757 197.83C208.473 197.494 208.137 197.196 207.749 196.938C207.483 196.76 207.148 196.633 206.743 196.557C206.344 196.484 205.948 196.44 205.554 196.425C205.161 196.41 204.806 196.417 204.488 196.444C204.176 196.468 203.97 196.49 203.872 196.509L203.157 194.305C203.764 194.192 204.403 194.112 205.073 194.064C205.744 194.017 206.4 194.017 207.042 194.067C207.695 194.116 208.317 194.221 208.907 194.382C209.503 194.548 210.032 194.785 210.495 195.094C210.837 195.321 211.141 195.574 211.407 195.852C211.679 196.126 211.926 196.414 212.146 196.716C212.372 197.021 212.575 197.334 212.755 197.655C212.94 197.972 213.12 198.288 213.294 198.605C213.456 198.907 213.622 199.21 213.79 199.516C213.964 199.817 214.155 200.119 214.364 200.42C214.578 200.717 214.824 201.009 215.102 201.295C215.38 201.581 215.713 201.857 216.101 202.123L213.225 203.764L211.403 203.338C210.657 203.165 209.905 203 209.147 202.843C208.395 202.682 207.64 202.511 206.883 202.33C206.131 202.146 205.37 201.944 204.601 201.725C203.837 201.502 203.074 201.244 202.31 200.951C201.552 200.655 200.791 200.314 200.027 199.928C199.258 199.546 198.491 199.101 197.727 198.592L195.895 197.37L198.632 195.532ZM198.328 205.322L198.324 202.746L202.174 202.739L202.179 205.315L198.328 205.322Z" fill="black"/>
<path d="M217.377 85.1019C217.54 84.7983 217.54 84.4818 217.377 84.3948L214.73 82.9779C214.567 82.8909 214.304 83.0665 214.142 83.3701C213.979 83.6737 213.979 83.9903 214.142 84.0772L216.495 85.3367L214.142 89.7341C213.979 90.0376 213.979 90.3542 214.142 90.4412C214.304 90.5281 214.567 90.3525 214.73 90.0489L217.377 85.1019ZM163 121.5L217.083 85.4445V84.4445L163 120.5V121.5Z" fill="black"/>
<path d="M364.889 164.613C365.051 164.526 365.051 164.209 364.889 163.906L362.241 158.959C362.079 158.655 361.816 158.48 361.653 158.567C361.491 158.653 361.491 158.97 361.653 159.274L364.006 163.671L361.653 164.93C361.491 165.017 361.491 165.334 361.653 165.638C361.816 165.941 362.079 166.117 362.241 166.03L364.889 164.613ZM318 133.5L364.595 164.563V163.563L318 132.5V133.5Z" fill="black"/>
<path d="M242.706 84.4503C242.543 84.5373 242.543 84.8539 242.706 85.1574L245.353 90.1045C245.516 90.408 245.779 90.5836 245.942 90.4967C246.104 90.4097 246.104 90.0932 245.942 89.7896L243.588 85.3922L245.942 84.1327C246.104 84.0458 246.104 83.7292 245.942 83.4256C245.779 83.1221 245.516 82.9464 245.353 83.0334L242.706 84.4503ZM243 85.5L289.595 116.563V115.563L243 84.5V85.5Z" fill="black"/>
<path d="M42.7058 199.898C42.5434 200.202 42.5434 200.518 42.7058 200.605L45.3534 202.022C45.5159 202.109 45.7793 201.933 45.9417 201.63C46.1042 201.326 46.1042 201.01 45.9417 200.923L43.5883 199.663L45.9417 195.266C46.1042 194.962 46.1042 194.646 45.9417 194.559C45.7793 194.472 45.5159 194.648 45.3534 194.951L42.7058 199.898ZM43 200.556L97.0833 164.5V163.5L43 199.556V200.556Z" fill="black"/>
<path d="M165.619 349.01C165.828 348.964 166.041 348.936 166.259 348.927C166.319 348.922 166.38 348.92 166.44 348.92C166.593 348.92 166.76 348.932 166.941 348.955C167.126 348.978 167.321 349.022 167.525 349.087C167.734 349.152 167.933 349.235 168.123 349.337L167.49 351.007C167.249 350.9 166.999 350.828 166.739 350.791C166.628 350.777 166.519 350.77 166.412 350.77C166.259 350.77 166.106 350.784 165.953 350.812C165.795 350.826 165.626 350.872 165.445 350.951C165.264 351.03 165.083 351.132 164.903 351.257C164.726 351.378 164.555 351.519 164.388 351.682C164.225 351.839 164.082 352.009 163.956 352.19C163.831 352.366 163.729 352.549 163.65 352.739C163.576 352.925 163.539 353.106 163.539 353.282C163.539 353.481 163.585 353.639 163.678 353.755C163.776 353.866 163.903 353.959 164.061 354.033C164.223 354.103 164.409 354.161 164.617 354.207C164.826 354.249 165.044 354.3 165.271 354.36C165.549 354.425 165.83 354.499 166.113 354.583C166.396 354.666 166.651 354.782 166.878 354.93C167.105 355.074 167.286 355.264 167.421 355.501C167.537 355.71 167.595 355.967 167.595 356.273C167.595 356.315 167.592 356.359 167.588 356.405C167.56 356.892 167.449 357.321 167.254 357.692C167.059 358.068 166.806 358.392 166.496 358.666C166.185 358.94 165.83 359.167 165.431 359.348C165.032 359.533 164.615 359.682 164.179 359.793C163.743 359.904 163.303 359.983 162.857 360.03C162.412 360.076 161.988 360.099 161.584 360.099C160.768 360.099 160.021 359.99 159.344 359.772C158.672 359.554 158.104 359.23 157.64 358.798C157.176 358.372 156.84 357.838 156.631 357.198C156.492 356.781 156.423 356.319 156.423 355.814C156.423 355.545 156.441 355.267 156.478 354.979C156.515 354.673 156.566 354.362 156.631 354.047C156.696 353.732 156.766 353.428 156.84 353.136C156.914 352.839 156.991 352.558 157.069 352.294C157.148 352.03 157.22 351.798 157.285 351.598C157.35 351.399 157.406 351.237 157.452 351.111C157.498 350.986 157.526 350.914 157.536 350.896L159.066 351.515C158.955 351.863 158.853 352.19 158.76 352.496C158.667 352.797 158.584 353.094 158.509 353.386C158.435 353.678 158.368 353.973 158.308 354.27C158.252 354.562 158.203 354.872 158.162 355.202C158.143 355.355 158.134 355.503 158.134 355.647C158.134 355.976 158.196 356.303 158.322 356.628C158.452 356.957 158.672 357.247 158.983 357.497C159.298 357.752 159.678 357.943 160.123 358.068C160.569 358.193 161.056 358.256 161.584 358.256C162.201 358.256 162.774 358.207 163.303 358.11C163.836 358.017 164.297 357.892 164.687 357.734C165.081 357.576 165.394 357.398 165.626 357.198C165.863 357.003 165.995 356.802 166.023 356.593C166.018 356.551 165.974 356.512 165.89 356.475C165.807 356.438 165.703 356.401 165.577 356.363C165.452 356.331 165.313 356.296 165.16 356.259C165.012 356.227 164.868 356.192 164.729 356.155C164.339 356.057 163.977 355.946 163.643 355.821C163.309 355.7 163.02 355.54 162.774 355.341C162.528 355.141 162.336 354.889 162.196 354.583C162.057 354.277 161.988 353.892 161.988 353.428C162.011 352.918 162.118 352.421 162.308 351.939C162.498 351.457 162.753 351.019 163.073 350.624C163.398 350.226 163.776 349.885 164.207 349.602C164.638 349.319 165.109 349.122 165.619 349.01ZM169.58 352.475C169.756 352.586 169.967 352.7 170.213 352.816C170.464 352.932 170.721 353.036 170.985 353.129C171.254 353.221 171.516 353.298 171.771 353.358C172.031 353.419 172.258 353.449 172.453 353.449C172.532 353.449 172.629 353.446 172.745 353.442C172.861 353.437 172.984 353.428 173.114 353.414C173.244 353.395 173.374 353.37 173.504 353.337C173.634 353.3 173.749 353.252 173.851 353.191C173.958 353.126 174.044 353.048 174.109 352.955C174.174 352.857 174.209 352.739 174.213 352.6C174.213 352.591 174.213 352.584 174.213 352.579C174.213 352.394 174.16 352.185 174.053 351.953C173.951 351.717 173.81 351.471 173.629 351.216C173.448 350.956 173.239 350.696 173.003 350.437C172.766 350.177 172.52 349.929 172.265 349.692C172.01 349.451 171.753 349.231 171.493 349.031C171.238 348.827 170.999 348.656 170.777 348.517L171.813 346.979C172.24 347.271 172.66 347.601 173.072 347.967C173.49 348.333 173.872 348.725 174.22 349.143C174.573 349.555 174.876 349.987 175.131 350.437C175.391 350.886 175.577 351.341 175.688 351.8C175.748 352.064 175.778 352.317 175.778 352.558C175.778 352.79 175.734 353.068 175.646 353.393C175.563 353.718 175.37 354.038 175.069 354.353C174.767 354.664 174.385 354.903 173.921 355.07C173.522 355.213 173.084 355.285 172.606 355.285C172.527 355.285 172.446 355.283 172.363 355.278C172.057 355.278 171.746 355.248 171.431 355.188C171.115 355.132 170.805 355.053 170.498 354.951C170.197 354.849 169.905 354.733 169.622 354.603C169.344 354.469 169.084 354.328 168.843 354.179L169.58 352.475ZM176.68 358.339C177.361 358.205 177.976 358.024 178.523 357.797C179.075 357.574 179.553 357.323 179.956 357.045C180.36 356.767 180.687 356.47 180.937 356.155C181.192 355.839 181.361 355.524 181.445 355.209C181.069 355.209 180.703 355.197 180.346 355.174C179.989 355.151 179.65 355.104 179.33 355.035C179.015 354.97 178.722 354.877 178.454 354.757C178.189 354.631 177.96 354.469 177.765 354.27C177.575 354.066 177.426 353.82 177.32 353.532C177.213 353.245 177.16 352.901 177.16 352.503C177.16 352.248 177.187 351.981 177.243 351.703C177.299 351.424 177.378 351.153 177.48 350.889C177.586 350.62 177.716 350.367 177.869 350.13C178.022 349.889 178.198 349.678 178.398 349.497C178.597 349.312 178.818 349.166 179.059 349.059C179.3 348.952 179.56 348.899 179.838 348.899C180.557 348.899 181.213 349.219 181.807 349.859C182.001 350.077 182.178 350.321 182.335 350.59C182.493 350.859 182.63 351.146 182.746 351.452C182.862 351.758 182.954 352.078 183.024 352.412C183.098 352.741 183.145 353.08 183.163 353.428H183.629V355.209H183.017C182.859 355.895 182.593 356.512 182.217 357.059C181.841 357.611 181.389 358.091 180.86 358.499C180.336 358.907 179.752 359.243 179.107 359.508C178.463 359.772 177.793 359.962 177.097 360.078L176.68 358.339ZM179.838 350.687C179.717 350.687 179.587 350.738 179.448 350.84C179.309 350.942 179.182 351.074 179.066 351.237C178.95 351.394 178.852 351.57 178.774 351.765C178.699 351.96 178.662 352.15 178.662 352.336C178.662 352.53 178.706 352.693 178.794 352.823C178.887 352.952 179.003 353.057 179.142 353.136C179.286 353.214 179.446 353.275 179.622 353.317C179.803 353.354 179.982 353.379 180.158 353.393C180.255 353.402 180.362 353.409 180.478 353.414C180.594 353.414 180.712 353.416 180.833 353.421C180.958 353.426 181.081 353.428 181.201 353.428C181.322 353.428 181.436 353.428 181.542 353.428C181.528 353.256 181.494 353.071 181.438 352.871C181.387 352.667 181.32 352.463 181.236 352.259C181.153 352.055 181.058 351.86 180.951 351.675C180.844 351.485 180.728 351.318 180.603 351.174C180.482 351.026 180.357 350.907 180.227 350.819C180.098 350.731 179.968 350.687 179.838 350.687ZM186.83 352.489C186.984 352.554 187.181 352.635 187.422 352.732C187.663 352.83 187.923 352.927 188.201 353.024C188.479 353.122 188.76 353.21 189.043 353.289C189.33 353.363 189.592 353.409 189.829 353.428C189.782 353.233 189.734 353.031 189.683 352.823C189.636 352.609 189.583 352.403 189.523 352.203C189.462 352.004 189.395 351.816 189.321 351.64C189.247 351.459 189.159 351.301 189.057 351.167C188.959 351.032 188.846 350.926 188.716 350.847C188.586 350.768 188.44 350.729 188.277 350.729C188.092 350.729 187.925 350.789 187.777 350.91C187.633 351.03 187.501 351.181 187.38 351.362C187.264 351.538 187.16 351.728 187.067 351.932C186.979 352.136 186.9 352.322 186.83 352.489ZM189.474 355.188C189.233 355.183 188.95 355.148 188.625 355.083C188.301 355.023 187.969 354.942 187.63 354.84C187.297 354.738 186.974 354.622 186.664 354.492C186.357 354.362 186.098 354.226 185.884 354.082C185.704 354.263 185.527 354.423 185.356 354.562C185.184 354.701 185.006 354.819 184.82 354.917C184.635 355.009 184.433 355.081 184.215 355.132C184.001 355.183 183.758 355.209 183.484 355.209H183.345V353.428H183.484C183.823 353.428 184.106 353.365 184.333 353.24C184.56 353.11 184.755 352.943 184.917 352.739C185.08 352.535 185.221 352.306 185.342 352.05C185.467 351.795 185.595 351.54 185.724 351.285C185.854 351.016 186.003 350.747 186.17 350.478C186.337 350.209 186.524 349.968 186.733 349.755C186.946 349.537 187.185 349.361 187.45 349.226C187.714 349.092 188.011 349.024 188.34 349.024C188.771 349.024 189.133 349.101 189.425 349.254C189.722 349.402 189.968 349.609 190.163 349.873C190.362 350.133 190.52 350.439 190.636 350.791C190.752 351.144 190.849 351.524 190.928 351.932C190.974 352.169 191.018 352.38 191.06 352.565C191.102 352.746 191.148 352.901 191.199 353.031C191.255 353.161 191.313 353.261 191.373 353.33C191.438 353.395 191.515 353.428 191.603 353.428H191.818V355.209H191.554C191.299 355.204 191.072 355.134 190.872 355C190.677 354.861 190.497 354.678 190.33 354.45C190.279 354.497 190.218 354.559 190.149 354.638C190.084 354.717 190.012 354.796 189.933 354.875C189.859 354.949 189.782 355.016 189.704 355.077C189.625 355.137 189.548 355.174 189.474 355.188ZM197.766 351.125C197.599 350.93 197.404 350.754 197.181 350.597C196.996 350.462 196.78 350.341 196.534 350.235C196.289 350.123 196.02 350.068 195.728 350.068C195.491 350.068 195.282 350.105 195.101 350.179C194.921 350.249 194.768 350.346 194.642 350.471C194.517 350.592 194.42 350.733 194.35 350.896C194.281 351.058 194.239 351.232 194.225 351.417C194.22 351.45 194.218 351.482 194.218 351.515C194.218 351.733 194.276 351.946 194.392 352.155C194.508 352.359 194.67 352.542 194.879 352.704C195.088 352.862 195.329 352.983 195.602 353.066C195.825 353.136 196.05 353.17 196.277 353.17C196.328 353.17 196.379 353.168 196.43 353.163C196.699 353.145 196.968 353.117 197.237 353.08C197.511 353.038 197.759 352.999 197.981 352.962L198.726 352.816L198.941 354.548C198.654 354.622 198.332 354.699 197.974 354.777C197.617 354.856 197.207 354.928 196.743 354.993C196.284 355.053 195.762 355.104 195.178 355.146C194.594 355.188 193.93 355.209 193.188 355.209H191.533V353.428H191.839L193.168 353.421C192.917 353.129 192.745 352.83 192.653 352.523C192.565 352.213 192.521 351.872 192.521 351.501C192.521 351.065 192.602 350.652 192.764 350.263C192.926 349.873 193.149 349.532 193.432 349.24C193.719 348.948 194.058 348.716 194.448 348.544C194.842 348.373 195.268 348.287 195.728 348.287C195.955 348.287 196.173 348.308 196.381 348.35C196.595 348.391 196.797 348.447 196.987 348.517C197.177 348.586 197.355 348.665 197.522 348.753C197.694 348.841 197.849 348.929 197.988 349.017C198.151 349.124 198.308 349.238 198.461 349.358C198.614 349.479 198.758 349.606 198.893 349.741L197.766 351.125ZM210.211 359.744C209.414 359.744 208.676 359.645 207.999 359.445C207.322 359.25 206.745 358.954 206.267 358.555C205.789 358.161 205.43 357.664 205.189 357.066C204.994 356.598 204.897 356.067 204.897 355.473C204.897 355.315 204.904 355.153 204.918 354.986C204.945 354.666 204.982 354.339 205.029 354.005C205.08 353.671 205.147 353.321 205.231 352.955C205.319 352.584 205.43 352.192 205.564 351.779C205.699 351.366 205.866 350.921 206.065 350.443L207.498 351.104C207.308 351.577 207.151 352.016 207.025 352.419C206.9 352.818 206.8 353.189 206.726 353.532C206.657 353.875 206.608 354.198 206.58 354.499C206.552 354.801 206.538 355.09 206.538 355.369C206.538 355.703 206.58 356.002 206.664 356.266C206.752 356.53 206.863 356.767 206.997 356.976C207.178 357.221 207.406 357.409 207.679 357.539C207.953 357.674 208.24 357.771 208.542 357.831C208.848 357.892 209.147 357.926 209.439 357.936C209.736 357.95 209.993 357.957 210.211 357.957C210.341 357.957 210.529 357.947 210.775 357.929C211.025 357.91 211.297 357.878 211.589 357.831C211.886 357.785 212.189 357.725 212.5 357.65C212.811 357.576 213.091 357.483 213.342 357.372C213.597 357.261 213.803 357.131 213.961 356.983C214.123 356.834 214.204 356.66 214.204 356.461C214.204 356.428 214.163 356.377 214.079 356.308C214 356.243 213.889 356.169 213.745 356.085C213.606 356.002 213.442 355.914 213.251 355.821C213.061 355.733 212.857 355.647 212.639 355.563C212.319 355.457 212.002 355.378 211.686 355.327C211.371 355.276 211.058 355.223 210.747 355.167L210.984 353.428H216.507V355.209H215.206C215.392 355.436 215.515 355.659 215.575 355.877C215.64 356.099 215.675 356.294 215.679 356.461C215.661 356.869 215.556 357.233 215.366 357.553C215.176 357.878 214.93 358.161 214.629 358.402C214.332 358.648 213.993 358.854 213.613 359.021C213.233 359.192 212.843 359.332 212.444 359.438C212.046 359.545 211.651 359.621 211.262 359.668C210.877 359.719 210.527 359.744 210.211 359.744ZM216.514 353.428C216.769 353.428 216.996 353.372 217.196 353.261C217.4 353.15 217.578 353.001 217.732 352.816C217.889 352.63 218.026 352.419 218.142 352.183C218.263 351.946 218.367 351.703 218.455 351.452C218.543 351.202 218.62 350.956 218.685 350.715C218.749 350.469 218.807 350.249 218.858 350.054L220.598 350.437C220.556 350.566 220.5 350.733 220.431 350.937C220.361 351.137 220.294 351.35 220.229 351.577C220.169 351.8 220.118 352.025 220.076 352.252C220.043 352.424 220.027 352.584 220.027 352.732C220.027 352.779 220.032 352.86 220.041 352.976C220.05 353.092 220.097 353.208 220.18 353.323C220.268 353.435 220.41 353.49 220.605 353.49C220.813 353.49 221.001 353.432 221.168 353.317C221.335 353.196 221.483 353.041 221.613 352.85C221.748 352.656 221.864 352.435 221.961 352.19C222.063 351.944 222.149 351.693 222.218 351.438C222.293 351.179 222.353 350.926 222.399 350.68C222.45 350.434 222.49 350.214 222.518 350.019L224.145 350.332C224.132 350.443 224.111 350.576 224.083 350.729C224.06 350.882 224.034 351.049 224.006 351.23C223.978 351.406 223.951 351.591 223.923 351.786C223.9 351.981 223.881 352.176 223.867 352.37C223.867 352.408 223.867 352.445 223.867 352.482C223.867 352.593 223.879 352.709 223.902 352.83C223.925 352.946 223.974 353.057 224.048 353.163C224.122 353.266 224.22 353.349 224.34 353.414C224.461 353.474 224.609 353.507 224.785 353.511C225.115 353.511 225.384 353.428 225.592 353.261C225.801 353.094 225.905 352.839 225.905 352.496C225.905 352.245 225.871 351.974 225.801 351.682C225.736 351.39 225.655 351.104 225.558 350.826C225.465 350.548 225.365 350.286 225.258 350.04C225.152 349.794 225.059 349.59 224.98 349.428L226.476 348.593C226.504 348.644 226.548 348.737 226.608 348.871C226.673 349.006 226.745 349.173 226.824 349.372C226.907 349.567 226.991 349.787 227.074 350.033C227.158 350.279 227.234 350.539 227.304 350.812C227.378 351.081 227.436 351.357 227.478 351.64C227.524 351.923 227.547 352.201 227.547 352.475C227.547 352.906 227.48 353.296 227.345 353.643C227.216 353.991 227.021 354.288 226.761 354.534C226.506 354.78 226.191 354.968 225.815 355.097C225.453 355.227 225.038 355.292 224.57 355.292C224.556 355.292 224.54 355.292 224.521 355.292C224.503 355.292 224.486 355.292 224.472 355.292C224.254 355.292 224.055 355.262 223.874 355.202C223.693 355.146 223.526 355.067 223.373 354.965C223.225 354.859 223.09 354.738 222.97 354.603C222.854 354.469 222.749 354.332 222.657 354.193C222.55 354.346 222.434 354.49 222.309 354.624C222.184 354.754 222.038 354.868 221.871 354.965C221.708 355.063 221.523 355.139 221.314 355.195C221.11 355.255 220.874 355.288 220.605 355.292C220.591 355.292 220.574 355.292 220.556 355.292C220.347 355.292 220.152 355.264 219.972 355.209C219.795 355.153 219.631 355.077 219.478 354.979C219.329 354.877 219.192 354.759 219.067 354.624C218.947 354.49 218.835 354.348 218.733 354.2C218.645 354.33 218.538 354.455 218.413 354.576C218.293 354.696 218.142 354.805 217.961 354.903C217.785 354.995 217.576 355.07 217.335 355.125C217.094 355.181 216.811 355.209 216.486 355.209H216.236V353.428H216.514ZM231.774 350.583C231.867 350.875 231.962 351.181 232.059 351.501C232.161 351.816 232.252 352.136 232.331 352.461C232.414 352.786 232.481 353.11 232.532 353.435C232.583 353.755 232.609 354.068 232.609 354.374C232.609 354.791 232.544 355.197 232.414 355.591C232.289 355.99 232.113 356.373 231.885 356.739C231.663 357.11 231.396 357.463 231.085 357.797C230.779 358.13 230.445 358.446 230.084 358.743C229.722 359.039 229.339 359.315 228.936 359.57C228.532 359.826 228.124 360.055 227.711 360.259L226.918 358.666C227.248 358.504 227.572 358.323 227.892 358.123C228.212 357.929 228.516 357.72 228.804 357.497C229.096 357.275 229.365 357.041 229.611 356.795C229.861 356.549 230.074 356.294 230.251 356.03C230.431 355.765 230.573 355.494 230.675 355.216C230.777 354.937 230.828 354.657 230.828 354.374C230.828 354.11 230.798 353.831 230.738 353.539C230.677 353.247 230.603 352.959 230.515 352.677C230.431 352.389 230.343 352.113 230.251 351.849C230.162 351.584 230.088 351.35 230.028 351.146L231.774 350.583ZM237.527 355.209H237.249C236.307 355.209 235.593 354.972 235.106 354.499C234.619 354.026 234.373 353.312 234.369 352.357C234.369 352.208 234.373 351.965 234.383 351.626C234.392 351.283 234.396 350.866 234.396 350.374C234.396 350.082 234.394 349.769 234.389 349.435C234.385 349.096 234.378 348.753 234.369 348.405C234.359 348.053 234.345 347.703 234.327 347.355C234.313 347.002 234.294 346.664 234.271 346.339C234.248 346.01 234.22 345.704 234.188 345.421C234.155 345.133 234.118 344.881 234.076 344.663L235.823 344.141C235.874 344.41 235.92 344.739 235.962 345.129C236.003 345.514 236.04 345.926 236.073 346.367C236.105 346.808 236.129 347.257 236.143 347.717C236.161 348.171 236.17 348.6 236.17 349.003C236.17 349.249 236.173 349.511 236.177 349.79C236.182 350.063 236.184 350.304 236.184 350.513C236.184 350.689 236.182 350.856 236.177 351.014C236.177 351.167 236.175 351.315 236.17 351.459C236.17 351.603 236.168 351.744 236.163 351.883C236.163 352.023 236.163 352.164 236.163 352.308C236.163 352.345 236.163 352.382 236.163 352.419C236.163 352.586 236.18 352.734 236.212 352.864C236.249 352.994 236.312 353.103 236.4 353.191C236.488 353.275 236.599 353.335 236.734 353.372C236.873 353.409 237.033 353.428 237.214 353.428H237.527V355.209ZM237.418 353.428C237.905 353.428 238.374 353.414 238.824 353.386C239.274 353.354 239.684 353.31 240.055 353.254C240.426 353.198 240.746 353.131 241.015 353.052C241.284 352.973 241.486 352.885 241.62 352.788H240.911C240.503 352.788 240.113 352.737 239.742 352.635C239.376 352.528 239.053 352.37 238.775 352.162C238.497 351.953 238.274 351.693 238.107 351.383C237.945 351.067 237.864 350.701 237.864 350.283C237.864 350.038 237.889 349.785 237.94 349.525C237.991 349.266 238.068 349.013 238.17 348.767C238.272 348.521 238.395 348.289 238.538 348.071C238.682 347.853 238.847 347.663 239.032 347.501C239.218 347.334 239.422 347.204 239.645 347.111C239.867 347.014 240.108 346.965 240.368 346.965C240.688 346.965 240.987 347.032 241.265 347.167C241.544 347.301 241.796 347.485 242.024 347.717C242.251 347.944 242.453 348.208 242.629 348.51C242.805 348.811 242.954 349.129 243.074 349.463C243.195 349.797 243.285 350.137 243.345 350.485C243.41 350.828 243.443 351.155 243.443 351.466C243.443 351.995 243.369 352.454 243.22 352.843C243.076 353.233 242.872 353.567 242.608 353.845C242.348 354.123 242.035 354.351 241.669 354.527C241.307 354.703 240.906 354.842 240.465 354.944C240.025 355.046 239.552 355.116 239.046 355.153C238.545 355.19 238.026 355.209 237.488 355.209H237.251V353.428H237.418ZM240.368 348.76C240.345 348.755 240.322 348.753 240.298 348.753C240.206 348.753 240.099 348.79 239.978 348.864C239.858 348.939 239.742 349.045 239.631 349.184C239.519 349.323 239.429 349.481 239.359 349.657C239.29 349.829 239.255 349.998 239.255 350.165C239.255 350.174 239.255 350.184 239.255 350.193C239.255 350.36 239.292 350.497 239.366 350.603C239.44 350.706 239.54 350.784 239.665 350.84C239.795 350.896 239.944 350.935 240.111 350.958C240.282 350.981 240.463 350.998 240.653 351.007C240.778 351.012 240.908 351.014 241.043 351.014C241.108 351.014 241.207 351.014 241.342 351.014C241.481 351.009 241.623 351.002 241.766 350.993C241.725 350.826 241.664 350.62 241.585 350.374C241.511 350.123 241.416 349.882 241.3 349.65C241.189 349.414 241.054 349.21 240.897 349.038C240.744 348.867 240.567 348.774 240.368 348.76ZM241.648 344.704L240.312 346.04L238.984 344.704L240.312 343.376L241.648 344.704Z" fill="black"/>
</svg>
