<svg width="338" height="227" viewBox="0 0 338 227" fill="none" xmlns="http://www.w3.org/2000/svg">
<rect width="338" height="227" fill="#E7E7E7"/>
<g clip-path="url(#clip0_0_1)">
<rect width="1920" height="5674" transform="translate(-330 -2503)" fill="white"/>
<rect x="-330" y="-392" width="1920" height="1713" fill="#F5F5F5"/>
<g filter="url(#filter0_d_0_1)">
<path fill-rule="evenodd" clip-rule="evenodd" d="M1139 -315C1130.72 -315 1124 -308.284 1124 -300V-262C1124 -253.716 1117.28 -247 1109 -247H-165C-173.284 -247 -180 -240.284 -180 -232V536C-180 544.284 -173.284 551 -165 551H1425C1433.28 551 1440 544.284 1440 536V-247V-300C1440 -308.284 1433.28 -315 1425 -315H1139Z" fill="white"/>
</g>
<rect x="-80.5" y="-172.5" width="499" height="570" rx="9.5" stroke="#3C4999"/>
<path d="M8.78663 127.172L196.877 11.5439L328.87 99.5396L141.006 225.717L8.78664 137.571L8.78663 127.172Z" fill="#E7E7E7" stroke="black"/>
<path d="M140.798 214.869L328.755 88.5193L329.111 88.6974L329.114 99.3764L141.532 225.365L140.798 214.869Z" fill="#A3A3A3" stroke="black"/>
<rect x="0.000955552" y="0.556128" width="158.615" height="226.305" transform="matrix(0.83205 0.5547 -0.830139 0.557556 197.355 0.245525)" fill="#E7E7E7" stroke="black"/>
<path d="M320.663 83.0683L328.87 88.5398L141.006 214.718L132.798 209.246L320.663 83.0683Z" fill="#A3A3A3" stroke="black"/>
<path d="M89.599 40.6527C89.599 40.6667 89.6076 40.7304 89.625 40.8441C89.6424 40.9508 89.6597 41.0992 89.6771 41.2893C89.6945 41.4725 89.7089 41.6855 89.7205 41.9282C89.7263 42.0983 89.7292 42.2737 89.7292 42.4546V42.7259C89.706 44.3483 89.3906 45.7899 88.7828 47.0507V47.0403C88.1924 48.2896 87.3908 49.2518 86.3778 49.9271C86.1 50.1123 85.8482 50.2593 85.6225 50.3681C85.4025 50.466 85.1826 50.5361 84.9626 50.5784L85.0321 51.106C85.1015 51.7136 85.1565 52.3518 85.197 53.0204C85.2434 53.6782 85.2781 54.3472 85.3012 55.0275C85.3302 55.6969 85.3475 56.367 85.3533 57.0379C85.3649 57.6981 85.3707 58.3307 85.3707 58.9359L83.6429 60.0878C83.6429 58.9817 83.6342 57.8883 83.6169 56.8078C83.5995 55.7202 83.5532 54.6867 83.478 53.7073C83.4027 52.721 83.2898 51.8084 83.1394 50.9696C82.9946 50.12 82.7921 49.3855 82.5316 48.7661C82.41 48.4714 82.2798 48.2 82.1409 47.9517C82.002 47.7035 81.8457 47.4564 81.672 47.2104L83.122 45.1377C83.2146 45.2568 83.2985 45.3852 83.3738 45.5229C83.4548 45.6497 83.5329 45.7889 83.6082 45.9405C83.6892 46.0813 83.7703 46.2359 83.8513 46.4045C83.9323 46.5731 84.022 46.7533 84.1204 46.9451C84.2536 47.225 84.3838 47.4721 84.5111 47.6864C84.6443 47.8898 84.7948 48.0434 84.9626 48.1471C85.1363 48.247 85.3331 48.2828 85.553 48.2544C85.7788 48.2152 86.0537 48.0876 86.3778 47.8715C86.8583 47.5512 87.22 47.1326 87.4631 46.6158C87.5731 46.3894 87.6628 46.1522 87.7323 45.9042C87.8017 45.6492 87.8567 45.3934 87.8972 45.1368C87.9435 44.8764 87.9754 44.6186 87.9927 44.3636C88.0101 44.1085 88.0188 43.8662 88.0188 43.6366C88.0188 43.3375 88.0043 43.0584 87.9754 42.7995C87.9522 42.5367 87.9262 42.3245 87.8972 42.1629L89.599 40.6527ZM102.245 32.1073C102.337 32.6508 102.404 33.163 102.445 33.6438C102.485 34.1176 102.514 34.561 102.531 34.9737C102.537 35.0881 102.54 35.2045 102.54 35.3227C102.54 35.754 102.5 36.2123 102.419 36.6977C102.343 37.1791 102.204 37.6683 102.002 38.1651C101.799 38.6619 101.533 39.1246 101.203 39.5532C100.879 39.9711 100.488 40.3324 100.031 40.6372C99.8862 40.7337 99.7328 40.8186 99.5707 40.8918C99.4087 40.9581 99.2437 41.002 99.0759 41.0235C98.908 41.038 98.743 41.0158 98.581 40.9569C98.4189 40.898 98.2655 40.7916 98.1208 40.6376C97.9993 40.9969 97.8545 41.3264 97.6867 41.6261C97.5246 41.922 97.3481 42.1893 97.1571 42.4279C96.9661 42.6666 96.7635 42.8816 96.5493 43.0731C96.3351 43.2646 96.1152 43.4355 95.8895 43.586C95.6695 43.7327 95.4785 43.8461 95.3164 43.9263C95.1544 43.9996 94.9836 44.0578 94.8042 44.1009C94.9952 45.3926 95.1081 46.74 95.1428 48.1429C95.1833 49.542 95.2036 50.9511 95.2036 52.3703L93.4758 53.5221C93.4874 53.2222 93.4932 52.9192 93.4932 52.6131C93.4989 52.3032 93.5018 52.0091 93.5018 51.7308C93.5018 49.7065 93.389 47.8652 93.1632 46.207C92.9375 44.5488 92.5902 43.1525 92.1214 42.0181C91.9882 41.7242 91.8638 41.4768 91.748 41.2757C91.638 41.0707 91.5165 40.8874 91.3834 40.7257L92.9549 38.5616C92.9954 38.618 93.0417 38.6915 93.0938 38.782C93.1459 38.8655 93.2009 38.9576 93.2587 39.0581C93.3166 39.1587 93.3745 39.2627 93.4324 39.3702C93.496 39.4738 93.5568 39.5759 93.6147 39.6764L94.0228 40.4583C94.1791 40.7854 94.3151 41.0565 94.4308 41.2715C94.5466 41.4865 94.6682 41.642 94.7955 41.7379C94.9286 41.8301 95.0791 41.8619 95.247 41.8335C95.4148 41.7981 95.629 41.6936 95.8895 41.5199C96.1615 41.3386 96.3786 41.0895 96.5406 40.7728C96.7085 40.4452 96.8387 40.101 96.9313 39.7401C97.0239 39.3723 97.0847 39.0188 97.1137 38.6795C97.1484 38.3294 97.1686 38.0376 97.1744 37.8042C97.1744 37.7276 97.1715 37.5974 97.1658 37.4134C97.16 37.2225 97.1513 37.0266 97.1397 36.8256C97.1339 36.6207 97.1252 36.4352 97.1137 36.269C97.1021 36.0959 97.0934 35.9904 97.0876 35.9525L98.8067 34.556C98.8125 34.7678 98.8241 34.9653 98.8414 35.1485C98.8646 35.3209 98.8819 35.4936 98.8935 35.6668C98.9051 35.8052 98.9196 35.9868 98.9369 36.2118C98.9601 36.4329 98.989 36.6675 99.0238 36.9156C99.0643 37.1599 99.1106 37.4038 99.1627 37.6474C99.2206 37.8801 99.29 38.0807 99.371 38.2493C99.4521 38.4179 99.5447 38.537 99.6489 38.6067C99.7589 38.6725 99.8862 38.6572 100.031 38.5607C100.222 38.4334 100.37 38.2654 100.474 38.0568C100.584 37.8374 100.662 37.6114 100.708 37.3788C100.76 37.1423 100.792 36.9124 100.804 36.6891C100.815 36.4587 100.821 36.2636 100.821 36.1036C100.821 35.7905 100.809 35.4295 100.786 35.0206C100.769 34.6009 100.714 34.1193 100.621 33.5758L102.245 32.1073ZM105.012 44.3389C105.012 43.9354 105.108 43.5483 105.299 43.1775C105.501 42.785 105.788 42.4653 106.158 42.2183C106.535 41.9675 106.827 41.9014 107.035 42.0198C107.232 42.1321 107.33 42.39 107.33 42.7935C107.33 43.1691 107.232 43.5408 107.035 43.9085C106.821 44.3017 106.529 44.6218 106.158 44.8688C105.788 45.1157 105.501 45.1815 105.299 45.0662C105.108 44.9639 105.012 44.7215 105.012 44.3389ZM117.127 37.8797C116.705 38.1614 116.317 38.2982 115.964 38.2901C115.617 38.2712 115.321 38.1097 115.078 37.8057L115.052 37.7813C114.803 38.3994 114.491 38.966 114.115 39.4812C113.744 39.9925 113.333 40.3987 112.882 40.6997C112.378 41.0354 111.953 41.2077 111.605 41.2166C111.264 41.2217 110.986 41.1147 110.772 40.8957C110.558 40.6698 110.399 40.3551 110.294 39.9515C110.19 39.5479 110.126 39.1034 110.103 38.618C110.092 38.417 110.086 38.2156 110.086 38.0139C110.086 37.7287 110.1 37.3851 110.129 36.9832C110.164 36.5705 110.216 36.1462 110.286 35.7103C110.39 35.0774 110.523 34.4182 110.685 33.7328C110.853 33.0435 111.055 32.3067 111.293 31.5224C111.536 30.7273 111.82 29.8703 112.144 28.9516C112.474 28.0291 112.85 27.0235 113.272 25.9348L112.951 25.7629L114.167 23.4917C114.751 23.742 115.324 24.0139 115.886 24.3074C116.453 24.5901 116.983 24.9396 117.475 25.356C118.609 26.3388 119.431 27.6274 119.94 29.2217C120.108 29.7776 120.192 30.4173 120.192 31.1408C120.192 31.7182 120.128 32.3276 120.001 32.969C119.874 33.6104 119.683 34.2386 119.428 34.8536C119.179 35.4578 118.861 36.0283 118.473 36.5651C118.091 37.0911 117.645 37.5274 117.136 37.8739L117.127 37.8797ZM115.851 32.8453C115.851 33.0331 115.857 33.2519 115.868 33.5016C115.88 33.7512 115.9 34.0056 115.929 34.2645C115.964 34.5127 116.01 34.7531 116.068 34.9858C116.132 35.2147 116.21 35.4095 116.302 35.5704C116.401 35.7205 116.517 35.8242 116.65 35.8815C116.789 35.935 116.951 35.9139 117.136 35.8182C117.408 35.616 117.631 35.3666 117.804 35.0699C117.978 34.7733 118.114 34.4635 118.213 34.1405C118.311 33.8105 118.378 33.4844 118.412 33.1622C118.453 32.8291 118.473 32.5338 118.473 32.2764C118.473 32.0399 118.459 31.8061 118.43 31.5749C118.401 31.3438 118.354 31.1312 118.291 30.9371C118.082 30.3038 117.831 29.7482 117.535 29.2702C117.24 28.7922 116.925 28.3765 116.589 28.0229C116.253 27.6623 115.909 27.3598 115.556 27.1152C115.203 26.8705 114.864 26.6685 114.54 26.5089C114.175 27.4616 113.854 28.3366 113.576 29.134C113.298 29.9314 113.055 30.6743 112.847 31.3628C112.639 32.0513 112.462 32.6977 112.317 33.302C112.178 33.8955 112.063 34.4665 111.97 35.0152C111.935 35.2123 111.901 35.4581 111.866 35.7525C111.831 36.047 111.808 36.3546 111.796 36.6753C111.791 36.7836 111.788 36.8898 111.788 36.9942C111.788 37.2029 111.796 37.4336 111.814 37.6864C111.837 37.9353 111.886 38.1634 111.961 38.3706C112.042 38.574 112.155 38.7074 112.3 38.7709C112.45 38.8306 112.644 38.7813 112.882 38.6231C113.09 38.4773 113.269 38.2811 113.42 38.0347C113.57 37.7883 113.698 37.519 113.802 37.227C113.912 36.9241 114.002 36.6104 114.071 36.2858C114.146 35.9504 114.207 35.6282 114.253 35.319C114.3 35.0099 114.337 34.7205 114.366 34.4507C114.401 34.1702 114.43 33.9387 114.453 33.7563L115.851 32.8453Z" fill="black"/>
<path d="M257.293 25.3339C257.293 23.9774 257.272 22.6178 257.232 21.2551C257.191 19.8855 257.102 18.5387 256.963 17.2148C256.824 15.8909 256.624 14.6065 256.364 13.3615C256.109 12.1204 255.765 10.9447 255.33 9.83445L256.772 9.6892C257.246 10.9169 257.64 12.2332 257.952 13.6381C258.271 15.0399 258.514 16.562 258.682 18.2043C258.751 18.9046 258.806 19.616 258.847 20.3387C258.893 21.0652 258.928 21.784 258.951 22.4951C258.98 23.2031 258.997 23.8929 259.003 24.5646C259.015 25.2401 259.02 25.8805 259.02 26.4857L257.293 25.3339ZM260.91 27.0044C260.939 26.9123 260.994 26.7612 261.075 26.5508C261.156 26.3405 261.268 26.0923 261.413 25.8062C261.558 25.52 261.737 25.2083 261.951 24.8711C262.166 24.5269 262.42 24.1784 262.716 23.8257C263.011 23.4799 263.326 23.1684 263.662 22.8914C263.998 22.6143 264.339 22.3933 264.686 22.2283C264.252 21.8693 263.853 21.4778 263.488 21.0539C263.129 20.6268 262.817 20.1784 262.551 19.7088C262.284 19.2391 262.076 18.7523 261.925 18.2485C261.781 17.7416 261.708 17.2308 261.708 16.716C261.708 16.2777 261.763 15.904 261.873 15.5947C261.983 15.2854 262.134 15.0344 262.325 14.8417C262.522 14.646 262.75 14.5062 263.011 14.4225C263.277 14.3426 263.561 14.316 263.862 14.3428C264.163 14.3626 264.475 14.4353 264.799 14.5609C265.123 14.6796 265.448 14.847 265.772 15.0631C266.623 15.6304 267.462 16.4821 268.29 17.6182L267.413 18.8284C267.117 18.409 266.831 18.0615 266.553 17.7858C266.281 17.514 266.021 17.2951 265.772 17.1292C265.488 16.9401 265.204 16.8102 264.921 16.7394C264.643 16.6654 264.394 16.656 264.174 16.7111C263.954 16.7662 263.775 16.8901 263.636 17.0827C263.497 17.2684 263.427 17.5316 263.427 17.8725C263.427 18.1368 263.48 18.3977 263.584 18.6549C263.694 18.9161 263.833 19.1617 264 19.3919C264.168 19.6221 264.351 19.8306 264.547 20.0174C264.75 20.2081 264.944 20.3652 265.129 20.4887L265.242 20.564C265.474 20.7183 265.72 20.8649 265.98 21.0038C266.241 21.1357 266.504 21.2591 266.77 21.374C267.036 21.4889 267.285 21.5852 267.517 21.6631C267.748 21.7409 267.948 21.8045 268.116 21.8538C268.278 21.8992 268.411 21.9358 268.515 21.9635C268.625 21.9951 268.712 22.0216 268.776 22.0432L269.279 24.3511L268.654 24.1848C268.116 24.0416 267.615 23.9965 267.152 24.0495C266.695 24.0995 266.272 24.2178 265.885 24.4045C265.503 24.588 265.155 24.8226 264.843 25.1081C264.53 25.3937 264.249 25.6935 264 26.0076C263.757 26.3255 263.546 26.6472 263.367 26.9728C263.187 27.2915 263.037 27.5807 262.915 27.8405C262.799 28.0973 262.71 28.3088 262.646 28.475C262.588 28.6382 262.556 28.7213 262.551 28.7244L260.91 27.0044ZM271.814 33.4497C271.814 33.0462 271.91 32.7864 272.101 32.6703C272.303 32.5479 272.59 32.6102 272.96 32.8572C273.336 33.108 273.629 33.4316 273.837 33.8279C274.034 34.2026 274.132 34.5916 274.132 34.9951C274.132 35.3708 274.034 35.6113 273.837 35.7166C273.623 35.8242 273.331 35.7546 272.96 35.5076C272.59 35.2607 272.303 34.9444 272.101 34.559C271.91 34.202 271.814 33.8323 271.814 33.4497ZM283.929 43.1437C283.507 42.862 283.119 42.4817 282.766 42.0029C282.418 41.5209 282.123 40.9658 281.88 40.3377L281.854 40.2786C281.605 40.5648 281.293 40.7147 280.916 40.7282C280.546 40.7456 280.135 40.6038 279.683 40.3028C279.18 39.9671 278.754 39.5722 278.407 39.1181C278.066 38.6678 277.788 38.1904 277.574 37.6859C277.359 37.1744 277.2 36.6474 277.096 36.1049C276.992 35.5624 276.928 35.033 276.905 34.5167C276.894 34.3003 276.888 34.0912 276.888 33.8895C276.888 33.6043 276.902 33.28 276.931 32.9167C276.966 32.5503 277.018 32.1954 277.087 31.8522C277.192 31.3582 277.325 30.8765 277.487 30.4071C277.655 29.9417 277.857 29.475 278.095 29.0071C278.338 28.5361 278.621 28.0574 278.945 27.5709C279.275 27.0882 279.652 26.5842 280.074 26.059L279.753 25.4587L280.968 24.8082C281.553 25.8379 282.126 26.8739 282.688 27.916C283.255 28.955 283.784 30.0107 284.276 31.0831C285.411 33.5785 286.233 35.963 286.742 38.2365C286.91 39.0162 286.994 39.7678 286.994 40.4913C286.994 41.0687 286.93 41.5932 286.803 42.0648C286.676 42.5364 286.485 42.91 286.23 43.1854C285.981 43.4577 285.663 43.6038 285.275 43.6235C284.893 43.6401 284.447 43.4821 283.938 43.1495L283.929 43.1437ZM282.653 36.4076C282.653 36.5954 282.659 36.8219 282.67 37.087C282.682 37.3521 282.702 37.6335 282.731 37.931C282.766 38.2255 282.812 38.5277 282.87 38.8375C282.934 39.1513 283.012 39.4503 283.104 39.7347C283.203 40.0159 283.318 40.274 283.452 40.5088C283.59 40.7475 283.753 40.9425 283.938 41.0938C284.21 41.2543 284.433 41.302 284.606 41.2369C284.78 41.1718 284.916 41.0434 285.014 40.8516C285.113 40.6528 285.179 40.4155 285.214 40.1395C285.255 39.8604 285.275 39.5922 285.275 39.3348C285.275 39.0983 285.26 38.8451 285.231 38.5754C285.202 38.3057 285.156 38.0313 285.092 37.7524C284.884 36.8413 284.632 35.9499 284.337 35.0784C284.042 34.2068 283.726 33.3704 283.391 32.5692C283.055 31.761 282.711 30.9993 282.358 30.2839C282.005 29.5685 281.666 28.9149 281.342 28.3232C280.977 28.7896 280.656 29.2363 280.378 29.6633C280.1 30.0902 279.857 30.509 279.649 30.9197C279.44 31.3303 279.264 31.7413 279.119 32.1527C278.98 32.561 278.864 32.9777 278.772 33.4029C278.737 33.5537 278.702 33.7531 278.668 34.0013C278.633 34.2494 278.61 34.5262 278.598 34.8315C278.592 34.932 278.589 35.0344 278.589 35.1388C278.589 35.3475 278.598 35.5898 278.616 35.8657C278.639 36.1455 278.688 36.4391 278.763 36.7467C278.844 37.0581 278.957 37.3421 279.102 37.5985C279.252 37.8588 279.446 38.0681 279.683 38.2263C279.892 38.3583 280.071 38.4014 280.222 38.3556C280.372 38.3099 280.5 38.2104 280.604 38.0573C280.714 37.901 280.803 37.7069 280.873 37.475C280.948 37.2399 281.009 36.9987 281.055 36.7513C281.102 36.5039 281.139 36.2646 281.168 36.0335C281.203 35.7993 281.232 35.6064 281.255 35.4549L282.653 36.4076Z" fill="black"/>
<path d="M149.11 97.5132C148.352 97.0077 147.752 96.4149 147.312 95.7348C146.877 95.0585 146.67 94.2986 146.692 93.4552L150.473 93.0193C150.496 93.3829 150.558 93.7097 150.656 93.9997C150.761 94.2858 150.889 94.5409 151.039 94.765C151.19 94.9892 151.355 95.1842 151.535 95.3503C151.72 95.5202 151.908 95.6688 152.099 95.7962C152.255 95.9004 152.432 96.0064 152.629 96.1144C152.831 96.2185 153.042 96.313 153.262 96.3977C153.488 96.4863 153.713 96.5594 153.939 96.617C154.165 96.6747 154.387 96.7072 154.607 96.7145C154.918 96.2111 155.23 95.6805 155.541 95.1229C155.864 94.5652 156.184 94.0057 156.501 93.4442C156.823 92.8788 157.143 92.3192 157.46 91.7654C157.777 91.2116 158.089 90.685 158.394 90.1854L161.986 91.1657L157.947 97.7127C157.798 97.9529 157.671 98.1659 157.567 98.3517C157.463 98.5376 157.406 98.7118 157.394 98.8743C157.389 99.0407 157.435 99.1992 157.534 99.3499C157.644 99.5006 157.829 99.6628 158.09 99.8364L158.342 100.004L155.604 101.843L155.353 101.675C155 101.44 154.71 101.216 154.484 101.003C154.264 100.795 154.09 100.59 153.963 100.389C153.835 100.196 153.745 100.004 153.693 99.815C153.652 99.6255 153.632 99.434 153.631 99.2406C153.186 99.1833 152.77 99.1066 152.382 99.0106C151.989 98.9184 151.61 98.8011 151.245 98.6586C150.881 98.516 150.525 98.3484 150.178 98.1555C149.831 97.9704 149.475 97.7563 149.11 97.5132ZM157.997 99.7745L158.561 100.151C158.822 100.324 159.082 100.444 159.342 100.509C159.614 100.575 159.883 100.595 160.149 100.572C160.427 100.548 160.695 100.484 160.955 100.379C161.221 100.278 161.478 100.144 161.726 99.977C162.073 99.752 162.489 99.4766 162.974 99.1508C163.465 98.8212 163.987 98.4663 164.542 98.0862C165.102 97.7022 165.676 97.3047 166.265 96.8936C166.86 96.4786 167.435 96.0733 167.989 95.6778C168.549 95.2783 169.078 94.9002 169.574 94.5435C170.077 94.1828 170.513 93.8667 170.882 93.5953L174.146 95.0985L163.855 102.138C163.497 102.378 163.304 102.628 163.275 102.888C163.258 103.147 163.429 103.396 163.788 103.635L163.979 103.763L161.242 105.601L161.051 105.474C160.808 105.319 160.588 105.146 160.391 104.953C160.2 104.763 160.04 104.568 159.913 104.367C159.78 104.17 159.687 103.977 159.634 103.787C159.582 103.598 159.576 103.428 159.616 103.277C159.344 103.297 159.07 103.291 158.792 103.261C158.515 103.23 158.223 103.163 157.916 103.059C157.609 102.963 157.282 102.826 156.935 102.649C156.588 102.472 156.212 102.248 155.807 101.978L155.26 101.613L157.997 99.7745ZM163.633 103.532L165.465 104.753C166.402 105.378 167.317 105.914 168.208 106.362C169.111 106.809 169.999 107.196 170.872 107.523C171.746 107.851 172.611 108.134 173.467 108.372C174.335 108.61 175.199 108.835 176.061 109.047C175.777 108.71 175.516 108.355 175.279 107.98C175.047 107.609 174.806 107.24 174.557 106.873C174.314 106.51 174.047 106.162 173.757 105.83C173.474 105.494 173.138 105.196 172.75 104.938C172.484 104.76 172.148 104.633 171.743 104.557C171.344 104.484 170.948 104.44 170.555 104.425C170.162 104.41 169.806 104.417 169.488 104.444C169.176 104.468 168.971 104.49 168.873 104.509L168.158 102.305C168.765 102.192 169.403 102.112 170.074 102.064C170.744 102.017 171.401 102.017 172.042 102.067C172.696 102.116 173.318 102.221 173.908 102.382C174.503 102.548 175.033 102.785 175.496 103.094C175.837 103.321 176.141 103.574 176.408 103.852C176.68 104.126 176.926 104.414 177.146 104.716C177.372 105.021 177.575 105.334 177.755 105.655C177.941 105.972 178.12 106.288 178.294 106.605C178.457 106.907 178.622 107.21 178.79 107.516C178.964 107.817 179.156 108.119 179.364 108.42C179.579 108.717 179.825 109.009 180.103 109.295C180.381 109.581 180.714 109.857 181.102 110.123L178.225 111.764L176.403 111.338C175.657 111.165 174.905 111 174.148 110.843C173.396 110.682 172.641 110.511 171.883 110.33C171.131 110.146 170.371 109.944 169.601 109.725C168.838 109.502 168.074 109.244 167.311 108.951C166.553 108.655 165.792 108.314 165.028 107.928C164.258 107.546 163.492 107.101 162.728 106.592L160.896 105.37L163.633 103.532ZM163.329 113.322L163.324 110.746L167.175 110.739L167.179 113.315L163.329 113.322Z" fill="black"/>
</g>
<defs>
<filter id="filter0_d_0_1" x="-192" y="-321" width="1640" height="886" filterUnits="userSpaceOnUse" color-interpolation-filters="sRGB">
<feFlood flood-opacity="0" result="BackgroundImageFix"/>
<feColorMatrix in="SourceAlpha" type="matrix" values="0 0 0 0 0 0 0 0 0 0 0 0 0 0 0 0 0 0 127 0" result="hardAlpha"/>
<feOffset dx="-2" dy="4"/>
<feGaussianBlur stdDeviation="5"/>
<feComposite in2="hardAlpha" operator="out"/>
<feColorMatrix type="matrix" values="0 0 0 0 0 0 0 0 0 0 0 0 0 0 0 0 0 0 0.25 0"/>
<feBlend mode="normal" in2="BackgroundImageFix" result="effect1_dropShadow_0_1"/>
<feBlend mode="normal" in="SourceGraphic" in2="effect1_dropShadow_0_1" result="shape"/>
</filter>
<clipPath id="clip0_0_1">
<rect width="1920" height="5674" fill="white" transform="translate(-330 -2503)"/>
</clipPath>
</defs>
</svg>
