<svg width="400" height="400" viewBox="0 0 400 400" fill="none" xmlns="http://www.w3.org/2000/svg">
<rect width="400" height="400" fill="white"/>
<path d="M150.86 53.7443C150.062 53.7443 149.325 53.6446 148.648 53.4452C147.971 53.2504 147.393 52.9536 146.916 52.5548C146.438 52.1606 146.078 51.6643 145.837 51.0661C145.642 50.5977 145.545 50.0667 145.545 49.473C145.545 49.3154 145.552 49.153 145.566 48.9861C145.594 48.6661 145.631 48.3391 145.677 48.0052C145.728 47.6713 145.796 47.3212 145.879 46.9548C145.967 46.5838 146.078 46.1919 146.213 45.7791C146.347 45.3664 146.514 44.9212 146.714 44.4435L148.147 45.1043C147.957 45.5774 147.799 46.0157 147.674 46.4191C147.549 46.818 147.449 47.189 147.375 47.5322C147.305 47.8754 147.256 48.1977 147.229 48.4991C147.201 48.8006 147.187 49.0904 147.187 49.3687C147.187 49.7026 147.229 50.0017 147.312 50.2661C147.4 50.5304 147.511 50.767 147.646 50.9757C147.827 51.2214 148.054 51.4093 148.328 51.5391C148.601 51.6736 148.889 51.771 149.19 51.8313C149.496 51.8916 149.796 51.9264 150.088 51.9357C150.384 51.9496 150.642 51.9565 150.86 51.9565C150.99 51.9565 151.178 51.9472 151.423 51.9287C151.674 51.9101 151.945 51.8777 152.237 51.8313C152.534 51.7849 152.838 51.7246 153.149 51.6504C153.459 51.5762 153.74 51.4835 153.99 51.3722C154.245 51.2609 154.452 51.131 154.609 50.9826C154.772 50.8342 154.853 50.6603 154.853 50.4609C154.853 50.4284 154.811 50.3774 154.728 50.3078C154.649 50.2429 154.538 50.1687 154.394 50.0852C154.255 50.0017 154.09 49.9136 153.9 49.8209C153.71 49.7328 153.506 49.647 153.288 49.5635C152.968 49.4568 152.65 49.378 152.335 49.327C152.019 49.2759 151.706 49.2226 151.396 49.167L151.632 47.4278H157.156V49.2087H155.855C156.04 49.4359 156.163 49.6586 156.223 49.8765C156.288 50.0991 156.323 50.2939 156.328 50.4609C156.309 50.869 156.205 51.233 156.015 51.553C155.824 51.8777 155.579 52.1606 155.277 52.4017C154.98 52.6475 154.642 52.8539 154.262 53.0209C153.881 53.1925 153.492 53.3316 153.093 53.4383C152.694 53.5449 152.3 53.6214 151.91 53.6678C151.525 53.7188 151.175 53.7443 150.86 53.7443ZM157.121 47.4278C157.371 47.4278 157.582 47.407 157.754 47.3652C157.925 47.3235 158.067 47.2725 158.178 47.2122C158.29 47.1472 158.378 47.08 158.443 47.0104C158.512 46.9409 158.57 46.8759 158.616 46.8157C158.774 46.5838 158.899 46.3519 158.992 46.12C159.09 45.8835 159.171 45.6516 159.236 45.4243C159.301 45.1925 159.356 44.9652 159.403 44.7426C159.449 44.52 159.5 44.2997 159.556 44.0817L161.058 44.5617C161.007 44.7797 160.961 44.9838 160.919 45.1739C160.882 45.3594 160.859 45.5426 160.85 45.7235C160.85 45.7652 160.85 45.8046 160.85 45.8417C160.85 45.9809 160.863 46.1316 160.891 46.2939C160.919 46.4516 160.982 46.6255 161.079 46.8157C161.158 46.658 161.255 46.4794 161.371 46.28C161.492 46.0759 161.629 45.8649 161.782 45.647C161.939 45.4243 162.113 45.1971 162.303 44.9652C162.498 44.7333 162.707 44.5084 162.93 44.2904C163.194 44.0493 163.472 43.8313 163.764 43.6365C164.056 43.4371 164.358 43.2655 164.669 43.1217C164.984 42.978 165.306 42.8667 165.636 42.7878C165.97 42.709 166.308 42.6696 166.651 42.6696C167.083 42.6696 167.498 42.7507 167.896 42.913C168.295 43.0754 168.643 43.298 168.94 43.5809C169.241 43.8591 169.476 44.1838 169.643 44.5548C169.777 44.8609 169.844 45.1832 169.844 45.5217C169.844 45.5959 169.842 45.6725 169.837 45.7513C169.796 46.2475 169.673 46.6835 169.469 47.0591C169.269 47.4301 169.014 47.7501 168.703 48.0191C168.397 48.2835 168.045 48.5014 167.646 48.673C167.252 48.8446 166.839 48.9791 166.408 49.0765C165.976 49.1786 165.538 49.2481 165.093 49.2852C164.648 49.327 164.221 49.3478 163.813 49.3478C163.354 49.3478 162.941 49.3316 162.575 49.2991C162.208 49.2713 161.87 49.2133 161.559 49.1252C161.248 49.0417 160.954 48.9212 160.676 48.7635C160.402 48.6058 160.124 48.3994 159.841 48.1443C159.521 48.5061 159.145 48.7751 158.714 48.9513C158.287 49.1229 157.761 49.2087 157.135 49.2087H156.884V47.4278H157.121ZM164.126 45.5009C163.936 45.6539 163.755 45.8162 163.583 45.9878C163.412 46.1594 163.254 46.331 163.11 46.5026C162.967 46.6742 162.839 46.8412 162.728 47.0035C162.616 47.1612 162.526 47.3026 162.456 47.4278C162.767 47.4417 163.117 47.4533 163.507 47.4626C163.674 47.4672 163.843 47.4696 164.015 47.4696C164.242 47.4696 164.516 47.4626 164.836 47.4487C165.156 47.4348 165.513 47.3954 165.907 47.3304C166.306 47.2655 166.67 47.1658 166.999 47.0313C167.333 46.8922 167.618 46.709 167.855 46.4817C168.091 46.2545 168.251 45.9693 168.335 45.6261C168.312 45.3896 168.228 45.1901 168.084 45.0278C167.945 44.8655 167.771 44.7403 167.563 44.6522C167.359 44.5594 167.136 44.5014 166.895 44.4783C166.802 44.469 166.709 44.4643 166.616 44.4643C166.468 44.4643 166.324 44.4759 166.185 44.4991C166.009 44.527 165.828 44.5757 165.643 44.6452C165.462 44.7101 165.281 44.789 165.1 44.8817C164.919 44.9699 164.745 45.0672 164.578 45.1739C164.416 45.2806 164.265 45.3896 164.126 45.5009ZM168.189 40.2557L166.853 41.5913L165.524 40.2557L166.853 38.927L168.189 40.2557ZM174.816 49.2087H174.538C173.596 49.2087 172.882 48.9722 172.395 48.4991C171.908 48.0261 171.662 47.3119 171.658 46.3565C171.658 46.2081 171.662 45.9646 171.672 45.6261C171.681 45.2829 171.686 44.8655 171.686 44.3739C171.686 44.0817 171.683 43.7687 171.679 43.4348C171.674 43.0962 171.667 42.753 171.658 42.4052C171.648 42.0528 171.634 41.7026 171.616 41.3548C171.602 41.0023 171.583 40.6638 171.56 40.3391C171.537 40.0099 171.509 39.7038 171.477 39.4209C171.444 39.1333 171.407 38.8806 171.366 38.6626L173.112 38.1409C173.163 38.4099 173.209 38.7391 173.251 39.1287C173.292 39.5136 173.33 39.9264 173.362 40.367C173.394 40.8075 173.418 41.2574 173.432 41.7165C173.45 42.171 173.459 42.6 173.459 43.0035C173.459 43.2493 173.462 43.5113 173.466 43.7896C173.471 44.0632 173.473 44.3043 173.473 44.513C173.473 44.6893 173.471 44.8562 173.466 45.0139C173.466 45.167 173.464 45.3154 173.459 45.4591C173.459 45.6029 173.457 45.7443 173.452 45.8835C173.452 46.0226 173.452 46.1641 173.452 46.3078C173.452 46.3449 173.452 46.382 173.452 46.4191C173.452 46.5861 173.469 46.7345 173.501 46.8643C173.538 46.9942 173.601 47.1032 173.689 47.1913C173.777 47.2748 173.888 47.3351 174.023 47.3722C174.162 47.4093 174.322 47.4278 174.503 47.4278H174.816V49.2087ZM180.746 47.4278V49.2087H180.607C180.157 49.2087 179.776 49.1368 179.466 48.993C179.155 48.8493 178.891 48.6638 178.673 48.4365C178.52 48.6313 178.292 48.782 177.991 48.8887C177.694 48.9907 177.363 49.0649 176.996 49.1113C176.63 49.1623 176.252 49.1901 175.862 49.1948C175.477 49.2041 175.123 49.2087 174.798 49.2087H174.541V47.4278H174.798C175.341 47.4278 175.797 47.3977 176.168 47.3374C176.539 47.2725 176.839 47.1797 177.066 47.0591C177.298 46.9386 177.465 46.7878 177.567 46.607C177.669 46.4214 177.72 46.2081 177.72 45.967C177.72 45.8093 177.69 45.6006 177.629 45.3409C177.569 45.0765 177.479 44.738 177.358 44.3252L179.069 43.8452C179.13 44.0493 179.176 44.2301 179.208 44.3878C179.245 44.5409 179.273 44.6962 179.292 44.8539C179.315 45.007 179.334 45.1739 179.348 45.3548C179.366 45.531 179.385 45.742 179.403 45.9878C179.417 46.1362 179.452 46.2962 179.508 46.4678C179.563 46.6348 179.64 46.7901 179.737 46.9339C179.839 47.073 179.962 47.1913 180.106 47.2887C180.25 47.3814 180.416 47.4278 180.607 47.4278H180.746ZM177.128 51.2678L175.946 52.4504L174.749 51.2609L175.932 50.0713L177.128 51.2678ZM179.758 51.2748L178.575 52.4643L177.379 51.2678L178.561 50.0852L179.758 51.2748ZM180.462 47.4278H181.582C181.8 47.4278 182.023 47.4162 182.25 47.393C182.482 47.3652 182.691 47.3119 182.876 47.233C183.062 47.1496 183.213 47.0313 183.329 46.8783C183.449 46.7252 183.509 46.5212 183.509 46.2661C183.509 46.1455 183.484 45.9762 183.433 45.7583C183.382 45.5403 183.315 45.2991 183.231 45.0348C183.148 44.7704 183.048 44.4968 182.932 44.2139C182.821 43.931 182.702 43.6667 182.577 43.4209L184.184 42.6278C184.3 42.8922 184.416 43.1728 184.532 43.4696C184.648 43.7664 184.75 44.0725 184.838 44.3878C184.931 44.6986 185.005 45.0116 185.061 45.327C185.116 45.6423 185.144 45.9507 185.144 46.2522C185.144 46.7716 185.056 47.2191 184.88 47.5948C184.704 47.9658 184.458 48.2719 184.142 48.513C183.827 48.7496 183.449 48.9235 183.009 49.0348C182.573 49.1507 182.093 49.2087 181.569 49.2087H180.462V47.4278ZM184.045 51.4696L182.709 52.8052L181.381 51.4696L182.709 50.1409L184.045 51.4696ZM196.188 53.7443C195.39 53.7443 194.653 53.6446 193.976 53.4452C193.299 53.2504 192.721 52.9536 192.244 52.5548C191.766 52.1606 191.407 51.6643 191.165 51.0661C190.971 50.5977 190.873 50.0667 190.873 49.473C190.873 49.3154 190.88 49.153 190.894 48.9861C190.922 48.6661 190.959 48.3391 191.005 48.0052C191.056 47.6713 191.124 47.3212 191.207 46.9548C191.295 46.5838 191.407 46.1919 191.541 45.7791C191.676 45.3664 191.842 44.9212 192.042 44.4435L193.475 45.1043C193.285 45.5774 193.127 46.0157 193.002 46.4191C192.877 46.818 192.777 47.189 192.703 47.5322C192.633 47.8754 192.584 48.1977 192.557 48.4991C192.529 48.8006 192.515 49.0904 192.515 49.3687C192.515 49.7026 192.557 50.0017 192.64 50.2661C192.728 50.5304 192.84 50.767 192.974 50.9757C193.155 51.2214 193.382 51.4093 193.656 51.5391C193.929 51.6736 194.217 51.771 194.518 51.8313C194.824 51.8916 195.124 51.9264 195.416 51.9357C195.713 51.9496 195.97 51.9565 196.188 51.9565C196.318 51.9565 196.506 51.9472 196.751 51.9287C197.002 51.9101 197.273 51.8777 197.565 51.8313C197.862 51.7849 198.166 51.7246 198.477 51.6504C198.787 51.5762 199.068 51.4835 199.318 51.3722C199.573 51.2609 199.78 51.131 199.938 50.9826C200.1 50.8342 200.181 50.6603 200.181 50.4609C200.181 50.4284 200.139 50.3774 200.056 50.3078C199.977 50.2429 199.866 50.1687 199.722 50.0852C199.583 50.0017 199.418 49.9136 199.228 49.8209C199.038 49.7328 198.834 49.647 198.616 49.5635C198.296 49.4568 197.978 49.378 197.663 49.327C197.347 49.2759 197.034 49.2226 196.724 49.167L196.96 47.4278H202.484V49.2087H201.183C201.368 49.4359 201.491 49.6586 201.551 49.8765C201.616 50.0991 201.651 50.2939 201.656 50.4609C201.637 50.869 201.533 51.233 201.343 51.553C201.153 51.8777 200.907 52.1606 200.605 52.4017C200.309 52.6475 199.97 52.8539 199.59 53.0209C199.209 53.1925 198.82 53.3316 198.421 53.4383C198.022 53.5449 197.628 53.6214 197.238 53.6678C196.853 53.7188 196.503 53.7443 196.188 53.7443ZM202.212 47.4278H202.72C202.887 47.4278 203.043 47.4139 203.186 47.3861C203.33 47.3583 203.458 47.3003 203.569 47.2122C203.68 47.1194 203.771 46.9919 203.84 46.8296C203.91 46.6672 203.954 46.4493 203.972 46.1757C203.972 46.069 203.975 45.8835 203.979 45.6191C203.989 45.3501 203.996 45.0325 204 44.6661C204.005 44.2951 204.01 43.8893 204.014 43.4487C204.019 43.0081 204.021 42.5583 204.021 42.0991C204.021 41.742 204.019 41.3919 204.014 41.0487C204.014 40.7009 204.01 40.367 204 40.047C203.996 39.727 203.984 39.4255 203.965 39.1426C203.952 38.8597 203.931 38.6023 203.903 38.3704L205.677 38.1409C205.709 38.3913 205.735 38.6742 205.753 38.9896C205.772 39.3049 205.786 39.6412 205.795 39.9983C205.809 40.3507 205.816 40.7217 205.816 41.1113C205.821 41.4962 205.823 41.8858 205.823 42.28C205.823 43.1565 205.814 43.9194 205.795 44.5687C205.781 45.218 205.774 45.793 205.774 46.2939C205.774 46.6464 205.865 46.9246 206.045 47.1287C206.226 47.3281 206.495 47.4278 206.852 47.4278H207.005V49.2087H206.852C206.825 49.2087 206.799 49.2087 206.776 49.2087C206.595 49.2087 206.416 49.1925 206.24 49.16C206.069 49.1322 205.902 49.0881 205.739 49.0278C205.582 48.9722 205.436 48.9049 205.301 48.8261C205.167 48.7472 205.048 48.6661 204.946 48.5826C204.812 48.7125 204.663 48.8191 204.501 48.9026C204.343 48.9814 204.181 49.0441 204.014 49.0904C203.847 49.1368 203.683 49.167 203.52 49.1809C203.358 49.1994 203.212 49.2087 203.082 49.2087H202.212V47.4278ZM206.728 47.4278H208.238C208.813 47.4278 209.397 47.3745 209.991 47.2678C210.589 47.1565 211.183 47.0128 211.772 46.8365C212.361 46.6557 212.936 46.4493 213.497 46.2174C214.058 45.9855 214.589 45.7467 215.09 45.5009C214.691 45.4128 214.32 45.2968 213.977 45.153C213.634 45.0046 213.309 44.8609 213.003 44.7217C212.697 44.5826 212.402 44.462 212.119 44.36C211.836 44.258 211.556 44.207 211.278 44.207C211.115 44.207 210.962 44.2371 210.818 44.2974C210.679 44.353 210.55 44.4249 210.429 44.513C210.308 44.6012 210.199 44.6986 210.102 44.8052C210.009 44.9119 209.926 45.0162 209.852 45.1183C209.782 45.2157 209.724 45.3038 209.678 45.3826C209.631 45.4614 209.599 45.5171 209.58 45.5496L208.133 44.6104C208.291 44.3322 208.479 44.0632 208.697 43.8035C208.915 43.5391 209.156 43.3049 209.42 43.1009C209.689 42.8922 209.979 42.7275 210.29 42.607C210.601 42.4817 210.93 42.4191 211.278 42.4191C211.635 42.4191 211.99 42.4678 212.342 42.5652C212.694 42.658 213.042 42.7786 213.385 42.927C213.733 43.0707 214.081 43.2261 214.429 43.393C214.777 43.56 215.127 43.7177 215.479 43.8661C215.836 44.0099 216.196 44.1328 216.558 44.2348C216.919 44.3322 217.29 44.3832 217.671 44.3878L217.525 46.1826C216.875 46.4933 216.198 46.8226 215.493 47.1704C214.788 47.5183 214.051 47.8406 213.281 48.1374C212.511 48.4296 211.707 48.6777 210.867 48.8817C210.032 49.0812 209.156 49.1901 208.238 49.2087H206.728V47.4278ZM221.782 44.5826C221.875 44.8748 221.97 45.1809 222.067 45.5009C222.169 45.8162 222.26 46.1362 222.338 46.4609C222.422 46.7855 222.489 47.1101 222.54 47.4348C222.591 47.7548 222.617 48.0678 222.617 48.3739C222.617 48.7913 222.552 49.1971 222.422 49.5913C222.297 49.9901 222.12 50.3728 221.893 50.7391C221.671 51.1101 221.404 51.4626 221.093 51.7965C220.787 52.1304 220.453 52.4458 220.091 52.7426C219.73 53.0394 219.347 53.3154 218.944 53.5704C218.54 53.8255 218.132 54.0551 217.719 54.2591L216.926 52.6661C217.256 52.5038 217.58 52.3229 217.9 52.1235C218.22 51.9287 218.524 51.72 218.811 51.4974C219.104 51.2748 219.373 51.0406 219.618 50.7948C219.869 50.549 220.082 50.2939 220.258 50.0296C220.439 49.7652 220.581 49.4939 220.683 49.2157C220.785 48.9374 220.836 48.6568 220.836 48.3739C220.836 48.1096 220.806 47.8313 220.745 47.5391C220.685 47.247 220.611 46.9594 220.523 46.6765C220.439 46.389 220.351 46.113 220.258 45.8487C220.17 45.5843 220.096 45.3501 220.036 45.1461L221.782 44.5826ZM232.587 52.8748C232.856 52.9212 233.127 52.9443 233.401 52.9443C233.471 52.9443 233.607 52.9397 233.811 52.9304C234.016 52.9212 234.278 52.8794 234.598 52.8052C234.918 52.731 235.224 52.6313 235.516 52.5061C235.813 52.3809 236.084 52.2371 236.33 52.0748L237.269 53.633C237 53.7954 236.722 53.9438 236.434 54.0783C236.151 54.2174 235.857 54.3357 235.551 54.433C235.249 54.5304 234.936 54.6046 234.611 54.6557C234.329 54.702 234.039 54.7252 233.742 54.7252C233.696 54.7252 233.647 54.7252 233.596 54.7252C233.16 54.7159 232.724 54.6696 232.288 54.5861C231.857 54.5026 231.444 54.382 231.05 54.2243C230.66 54.0667 230.296 53.8696 229.958 53.633C229.624 53.4012 229.331 53.1299 229.081 52.8191C228.835 52.513 228.64 52.1675 228.497 51.7826C228.353 51.4023 228.279 50.9803 228.274 50.5165C228.288 50.0203 228.381 49.5565 228.552 49.1252C228.724 48.6986 228.951 48.309 229.234 47.9565C229.522 47.5994 229.851 47.2817 230.222 47.0035C230.598 46.7252 230.994 46.4864 231.411 46.287C231.263 46.1478 231.11 46.011 230.952 45.8765C230.799 45.7374 230.651 45.6075 230.507 45.487C230.363 45.3617 230.229 45.2481 230.104 45.1461C229.978 45.0394 229.874 44.949 229.791 44.8748L229.658 43.3861C230.266 42.8574 230.92 42.4609 231.62 42.1965C232.325 41.9275 233.06 41.793 233.825 41.793C234.053 41.793 234.287 41.8093 234.528 41.8417C234.774 41.8742 235.013 41.9252 235.245 41.9948C235.476 42.0643 235.694 42.1548 235.898 42.2661C236.102 42.3774 236.281 42.5142 236.434 42.6765C236.587 42.8342 236.708 43.0174 236.796 43.2261C236.875 43.4301 236.914 43.6574 236.914 43.9078C236.914 43.9217 236.914 43.9357 236.914 43.9496C236.896 44.302 236.826 44.6174 236.705 44.8957C236.589 45.1739 236.436 45.4243 236.246 45.647C236.056 45.8696 235.836 46.069 235.585 46.2452C235.34 46.4214 235.078 46.5838 234.799 46.7322C235.175 46.9409 235.574 47.1101 235.996 47.24C236.422 47.3652 236.838 47.4278 237.241 47.4278H237.478V49.2087H237.241C236.856 49.2087 236.483 49.1693 236.121 49.0904C235.759 49.0116 235.402 48.9003 235.05 48.7565C234.697 48.6081 234.347 48.4342 233.999 48.2348C233.651 48.0307 233.301 47.8058 232.949 47.56C232.61 47.6945 232.267 47.8522 231.919 48.033C231.571 48.2093 231.254 48.418 230.966 48.6591C230.683 48.8957 230.451 49.1646 230.271 49.4661C230.09 49.7675 229.999 50.1084 229.999 50.4887C229.999 50.702 230.041 50.9061 230.125 51.1009C230.213 51.2957 230.326 51.4765 230.465 51.6435C230.605 51.8151 230.765 51.9704 230.945 52.1096C231.126 52.2533 231.312 52.3762 231.502 52.4783C231.697 52.5849 231.887 52.6707 232.072 52.7357C232.262 52.8052 232.434 52.8516 232.587 52.8748ZM233.832 43.4904C233.647 43.4904 233.452 43.5043 233.248 43.5322C233.044 43.5554 232.842 43.5901 232.643 43.6365C232.443 43.6783 232.251 43.7316 232.065 43.7965C231.885 43.8568 231.725 43.9241 231.585 43.9983C231.683 44.1003 231.792 44.2186 231.912 44.353C232.033 44.4829 232.16 44.6197 232.295 44.7635C232.434 44.9072 232.576 45.051 232.719 45.1948C232.863 45.3339 233.005 45.4638 233.144 45.5843C233.45 45.4545 233.735 45.3223 233.999 45.1878C234.264 45.0533 234.493 44.9165 234.688 44.7774C234.887 44.6336 235.045 44.4852 235.161 44.3322C235.277 44.1791 235.337 44.0214 235.342 43.8591C235.337 43.8406 235.307 43.8128 235.251 43.7757C235.196 43.7386 235.105 43.7014 234.98 43.6643C234.86 43.6226 234.704 43.5855 234.514 43.553C234.329 43.5206 234.101 43.4997 233.832 43.4904ZM237.197 47.4278H238.254L238.303 47.3374C238.382 47.1983 238.493 47.0151 238.637 46.7878C238.785 46.5559 238.971 46.2939 239.193 46.0017C239.235 45.7096 239.27 45.3409 239.298 44.8957C239.326 44.4504 239.342 43.9681 239.346 43.4487C239.346 43.1658 239.342 42.8759 239.332 42.5791C239.323 42.2777 239.305 41.9322 239.277 41.5426C239.249 41.153 239.21 40.6986 239.159 40.1791C239.112 39.6551 239.052 39.0313 238.978 38.3078L240.807 37.8348C240.928 38.7252 241.018 39.6388 241.079 40.5757C241.143 41.5125 241.176 42.44 241.176 43.3583V43.9217C241.426 43.7084 241.686 43.5043 241.955 43.3096C242.229 43.1148 242.512 42.9432 242.804 42.7948C243.101 42.6464 243.409 42.5281 243.729 42.44C244.049 42.3519 244.383 42.3078 244.731 42.3078C245.083 42.3078 245.417 42.3635 245.732 42.4748C246.048 42.5861 246.326 42.7484 246.567 42.9617C246.813 43.1704 247.015 43.4255 247.172 43.727C247.33 44.0284 247.428 44.367 247.465 44.7426C247.469 44.8122 247.472 44.8794 247.472 44.9443C247.472 45.4267 247.39 45.8765 247.228 46.2939C247.07 46.7113 246.836 47.0893 246.526 47.4278H248.487V49.2087H246.637C246.27 49.2087 245.862 49.1925 245.412 49.16C244.963 49.1275 244.464 49.0417 243.917 48.9026C243.523 49.0093 243.121 49.0858 242.713 49.1322C242.31 49.1832 241.904 49.2087 241.496 49.2087H237.197V47.4278ZM240.849 47.4278C241.132 47.4278 241.457 47.4209 241.823 47.407C242.194 47.393 242.574 47.3606 242.964 47.3096C243.353 47.2586 243.731 47.182 244.098 47.08C244.469 46.978 244.798 46.8412 245.086 46.6696C245.373 46.498 245.6 46.2823 245.767 46.0226C245.911 45.8 245.983 45.5357 245.983 45.2296C245.983 45.1878 245.981 45.1438 245.976 45.0974C245.967 44.9583 245.92 44.8284 245.837 44.7078C245.758 44.5872 245.647 44.4852 245.503 44.4017C245.364 44.3136 245.197 44.2441 245.002 44.193C244.835 44.1559 244.654 44.1374 244.459 44.1374C244.422 44.1374 244.383 44.1374 244.341 44.1374C244.109 44.1467 243.833 44.207 243.513 44.3183C243.193 44.4249 242.85 44.6058 242.484 44.8609C242.117 45.1159 241.737 45.4522 241.343 45.8696C240.949 46.287 240.564 46.8064 240.188 47.4278H240.849ZM248.379 47.4278C248.866 47.4278 249.335 47.4139 249.785 47.3861C250.234 47.3536 250.645 47.3096 251.016 47.2539C251.387 47.1983 251.707 47.131 251.976 47.0522C252.245 46.9733 252.447 46.8852 252.581 46.7878H251.872C251.463 46.7878 251.074 46.7368 250.703 46.6348C250.336 46.5281 250.014 46.3704 249.736 46.1617C249.458 45.953 249.235 45.6933 249.068 45.3826C248.906 45.0672 248.825 44.7009 248.825 44.2835C248.825 44.0377 248.85 43.7849 248.901 43.5252C248.952 43.2655 249.029 43.0128 249.131 42.767C249.233 42.5212 249.356 42.2893 249.499 42.0713C249.643 41.8533 249.808 41.6632 249.993 41.5009C250.179 41.3339 250.383 41.2041 250.605 41.1113C250.828 41.0139 251.069 40.9652 251.329 40.9652C251.649 40.9652 251.948 41.0325 252.226 41.167C252.505 41.3014 252.757 41.4846 252.985 41.7165C253.212 41.9438 253.414 42.2081 253.59 42.5096C253.766 42.811 253.914 43.1287 254.035 43.4626C254.156 43.7965 254.246 44.1374 254.306 44.4852C254.371 44.8284 254.404 45.1554 254.404 45.4661C254.404 45.9948 254.33 46.4539 254.181 46.8435C254.037 47.233 253.833 47.567 253.569 47.8452C253.309 48.1235 252.996 48.3507 252.63 48.527C252.268 48.7032 251.867 48.8423 251.426 48.9443C250.986 49.0464 250.513 49.1159 250.007 49.153C249.506 49.1901 248.987 49.2087 248.449 49.2087H248.212V47.4278H248.379ZM251.329 42.76C251.306 42.7554 251.283 42.753 251.259 42.753C251.167 42.753 251.06 42.7901 250.939 42.8643C250.819 42.9386 250.703 43.0452 250.592 43.1843C250.48 43.3235 250.39 43.4812 250.32 43.6574C250.251 43.829 250.216 43.9983 250.216 44.1652C250.216 44.1745 250.216 44.1838 250.216 44.193C250.216 44.36 250.253 44.4968 250.327 44.6035C250.401 44.7055 250.501 44.7843 250.626 44.84C250.756 44.8957 250.905 44.9351 251.072 44.9583C251.243 44.9814 251.424 44.9977 251.614 45.007C251.739 45.0116 251.869 45.0139 252.004 45.0139C252.069 45.0139 252.168 45.0139 252.303 45.0139C252.442 45.0093 252.583 45.0023 252.727 44.993C252.685 44.8261 252.625 44.6197 252.546 44.3739C252.472 44.1235 252.377 43.8823 252.261 43.6504C252.15 43.4139 252.015 43.2099 251.858 43.0383C251.705 42.8667 251.528 42.7739 251.329 42.76ZM251.162 38.8713L249.979 40.0539L248.783 38.8643L249.965 37.6748L251.162 38.8713ZM253.792 38.8783L252.609 40.0678L251.412 38.8713L252.595 37.6887L253.792 38.8783Z" fill="black"/>
<path d="M43.7864 219.172L231.876 103.544L363.87 191.54L176.005 317.718L43.7864 229.572L43.7864 219.172Z" fill="#E7E7E7" stroke="black"/>
<path d="M364.111 180.697L364.114 191.376L176.531 317.364L175.797 306.869L363.755 180.519L364.111 180.697Z" fill="#A3A3A3" stroke="black"/>
<rect x="0.000955552" y="0.556128" width="158.615" height="226.305" transform="matrix(0.83205 0.5547 -0.830139 0.557556 232.355 92.2455)" fill="#E7E7E7" stroke="black"/>
<path d="M176.006 306.718L167.798 301.247L355.663 175.069L363.87 180.54L176.006 306.718Z" fill="#A3A3A3" stroke="black"/>
<path d="M130.697 127.788C130.697 127.802 130.706 127.866 130.723 127.98C130.74 128.086 130.758 128.235 130.775 128.425C130.792 128.608 130.807 128.821 130.818 129.064C130.824 129.234 130.827 129.409 130.827 129.59V129.862C130.804 131.484 130.488 132.926 129.881 134.186V134.176C129.29 135.425 128.489 136.387 127.476 137.063C127.198 137.248 126.946 137.395 126.72 137.504C126.5 137.602 126.28 137.672 126.061 137.714L126.13 138.242C126.199 138.849 126.254 139.487 126.295 140.156C126.341 140.814 126.376 141.483 126.399 142.163C126.428 142.832 126.445 143.503 126.451 144.174C126.463 144.834 126.469 145.466 126.469 146.072L124.741 147.223C124.741 146.117 124.732 145.024 124.715 143.943C124.697 142.856 124.651 141.822 124.576 140.843C124.501 139.857 124.388 138.944 124.237 138.105C124.093 137.256 123.89 136.521 123.629 135.902C123.508 135.607 123.378 135.336 123.239 135.087C123.1 134.839 122.944 134.592 122.77 134.346L124.22 132.273C124.312 132.392 124.396 132.521 124.472 132.658C124.553 132.785 124.631 132.925 124.706 133.076C124.787 133.217 124.868 133.372 124.949 133.54C125.03 133.709 125.12 133.889 125.218 134.081C125.351 134.361 125.482 134.608 125.609 134.822C125.742 135.025 125.893 135.179 126.061 135.283C126.234 135.383 126.431 135.418 126.651 135.39C126.877 135.351 127.152 135.223 127.476 135.007C127.956 134.687 128.318 134.268 128.561 133.751C128.671 133.525 128.761 133.288 128.83 133.04C128.9 132.785 128.955 132.529 128.995 132.272C129.041 132.012 129.073 131.754 129.091 131.499C129.108 131.244 129.117 131.002 129.117 130.772C129.117 130.473 129.102 130.194 129.073 129.935C129.05 129.672 129.024 129.46 128.995 129.298L130.697 127.788ZM134.461 128.806C134.455 128.879 134.452 128.951 134.452 129.02C134.452 129.897 134.99 130.042 136.067 129.457C136.2 129.382 136.336 129.298 136.475 129.206C136.817 128.978 137.178 128.688 137.56 128.336C137.549 127.919 137.523 127.544 137.482 127.209C137.448 126.864 137.401 126.554 137.343 126.279C137.303 126.104 137.245 125.931 137.17 125.758C137.1 125.575 137.011 125.426 136.901 125.312C136.791 125.19 136.66 125.117 136.51 125.092C136.365 125.063 136.2 125.111 136.015 125.234C135.766 125.4 135.549 125.635 135.364 125.94C135.179 126.244 135.022 126.571 134.895 126.92C134.768 127.269 134.666 127.615 134.591 127.957C134.522 128.296 134.478 128.579 134.461 128.806ZM138.151 135.163C137.954 134.397 137.806 133.623 137.708 132.839C137.615 132.046 137.566 131.24 137.56 130.423C137.213 130.724 136.869 130.989 136.527 131.216C136.475 131.251 136.333 131.342 136.102 131.489C135.876 131.633 135.584 131.769 135.225 131.897C134.872 132.014 134.548 132.063 134.252 132.044C133.957 132.018 133.708 131.913 133.506 131.728C133.309 131.532 133.167 131.248 133.08 130.874C133.028 130.651 133.002 130.394 133.002 130.102C133.002 129.9 133.014 129.684 133.037 129.453C133.077 129.057 133.144 128.647 133.237 128.224C133.335 127.79 133.457 127.357 133.601 126.927C133.752 126.493 133.928 126.065 134.131 125.645C134.333 125.225 134.562 124.829 134.817 124.457C135.228 123.863 135.668 123.41 136.136 123.098C136.241 123.028 136.345 122.966 136.449 122.91C137.045 122.61 137.546 122.579 137.951 122.817C138.507 123.135 138.869 124.003 139.036 125.422C139.1 125.957 139.135 126.598 139.141 127.345V127.857C139.141 128.357 139.146 128.841 139.158 129.306C139.175 129.767 139.201 130.213 139.236 130.642C139.277 131.06 139.326 131.448 139.384 131.806C139.442 132.164 139.508 132.53 139.583 132.904C139.884 134.401 140.165 135.25 140.426 135.452L139.375 137.78C138.929 137.5 138.521 136.628 138.151 135.163Z" fill="black"/>
<path d="M305.364 110.521C305.364 110.535 305.373 110.61 305.39 110.747C305.408 110.877 305.425 111.048 305.442 111.262C305.46 111.468 305.474 111.7 305.486 111.958C305.491 112.136 305.494 112.316 305.494 112.496V112.768C305.471 114.359 305.156 115.38 304.548 115.831V115.82C303.958 116.282 303.156 116.176 302.143 115.5C301.865 115.315 301.613 115.127 301.388 114.934C301.168 114.739 300.948 114.516 300.728 114.265L300.797 114.885C300.867 115.585 300.922 116.297 300.962 117.019C301.008 117.739 301.043 118.454 301.066 119.165C301.095 119.873 301.113 120.567 301.118 121.245C301.13 121.921 301.136 122.561 301.136 123.166L299.408 122.015C299.408 120.909 299.399 119.804 299.382 118.7C299.365 117.589 299.318 116.494 299.243 115.414C299.168 114.327 299.055 113.264 298.904 112.225C298.76 111.182 298.557 110.178 298.297 109.211C298.175 108.754 298.045 108.309 297.906 107.876C297.767 107.442 297.611 106.987 297.437 106.509L298.887 106.37C298.98 106.613 299.064 106.853 299.139 107.091C299.22 107.326 299.298 107.569 299.373 107.821C299.454 108.07 299.535 108.333 299.616 108.609C299.697 108.886 299.787 109.186 299.886 109.509C300.019 109.966 300.149 110.387 300.276 110.771C300.409 111.152 300.56 111.506 300.728 111.834C300.901 112.165 301.098 112.463 301.318 112.728C301.544 112.99 301.819 113.229 302.143 113.445C302.623 113.765 302.985 113.829 303.228 113.636C303.338 113.556 303.428 113.439 303.497 113.283C303.567 113.121 303.622 112.939 303.662 112.736C303.709 112.537 303.741 112.322 303.758 112.09C303.775 111.858 303.784 111.627 303.784 111.398C303.784 111.099 303.769 110.8 303.741 110.503C303.717 110.209 303.691 109.962 303.662 109.762L305.364 110.521ZM308.19 122.005C308.19 121.518 308.266 121.113 308.416 120.789C308.572 120.462 308.784 120.227 309.05 120.084C309.316 119.935 309.626 119.884 309.979 119.931C310.338 119.983 310.723 120.146 311.134 120.419C311.539 120.69 311.918 121.036 312.271 121.459C312.63 121.887 312.942 122.352 313.209 122.857C313.481 123.358 313.695 123.877 313.851 124.412C314.007 124.941 314.086 125.448 314.086 125.935C314.086 126.429 314.007 126.84 313.851 127.167C313.695 127.487 313.481 127.716 313.209 127.855C312.942 127.998 312.63 128.043 312.271 127.992C311.918 127.937 311.539 127.775 311.134 127.505C310.723 127.231 310.338 126.884 309.979 126.464C309.626 126.04 309.316 125.58 309.05 125.082C308.784 124.585 308.572 124.072 308.416 123.543C308.266 123.012 308.19 122.499 308.19 122.005ZM309.606 122.949C309.606 123.199 309.646 123.463 309.727 123.739C309.808 124.016 309.918 124.284 310.057 124.543C310.196 124.803 310.358 125.043 310.543 125.264C310.728 125.485 310.925 125.665 311.134 125.804C311.342 125.943 311.539 126.025 311.724 126.051C311.915 126.081 312.08 126.059 312.219 125.985C312.358 125.91 312.468 125.789 312.549 125.62C312.63 125.452 312.67 125.242 312.67 124.992C312.67 124.741 312.63 124.478 312.549 124.201C312.468 123.918 312.358 123.646 312.219 123.386C312.08 123.127 311.915 122.885 311.724 122.66C311.539 122.439 311.342 122.259 311.134 122.12C310.925 121.981 310.728 121.899 310.543 121.873C310.358 121.847 310.196 121.871 310.057 121.945C309.918 122.02 309.808 122.145 309.727 122.32C309.646 122.489 309.606 122.698 309.606 122.949Z" fill="black"/>
<path d="M184.11 189.513C183.351 189.008 182.752 188.415 182.311 187.735C181.877 187.058 181.67 186.299 181.692 185.455L185.472 185.019C185.496 185.383 185.557 185.71 185.656 186C185.76 186.286 185.888 186.541 186.039 186.765C186.189 186.989 186.355 187.184 186.534 187.35C186.719 187.52 186.908 187.669 187.099 187.796C187.255 187.9 187.431 188.006 187.628 188.114C187.831 188.219 188.042 188.313 188.262 188.398C188.487 188.486 188.713 188.559 188.938 188.617C189.164 188.675 189.387 188.707 189.606 188.715C189.918 188.211 190.229 187.681 190.54 187.123C190.863 186.565 191.183 186.006 191.5 185.444C191.823 184.879 192.143 184.319 192.46 183.765C192.777 183.212 193.088 182.685 193.394 182.185L196.986 183.166L192.947 189.713C192.797 189.953 192.67 190.166 192.566 190.352C192.463 190.538 192.405 190.712 192.394 190.874C192.388 191.041 192.435 191.199 192.534 191.35C192.644 191.501 192.829 191.663 193.089 191.836L193.341 192.004L190.604 193.843L190.352 193.675C189.999 193.44 189.71 193.216 189.484 193.003C189.264 192.795 189.09 192.59 188.962 192.389C188.835 192.196 188.745 192.004 188.692 191.815C188.652 191.625 188.631 191.434 188.631 191.241C188.186 191.183 187.769 191.107 187.382 191.011C186.988 190.918 186.609 190.801 186.245 190.659C185.88 190.516 185.525 190.348 185.177 190.156C184.83 189.97 184.474 189.756 184.11 189.513ZM192.997 191.775L193.561 192.151C193.821 192.324 194.082 192.444 194.342 192.509C194.614 192.575 194.883 192.595 195.149 192.572C195.426 192.548 195.695 192.484 195.955 192.379C196.221 192.278 196.478 192.144 196.726 191.977C197.072 191.752 197.488 191.477 197.973 191.151C198.464 190.821 198.987 190.466 199.541 190.086C200.101 189.702 200.676 189.305 201.265 188.894C201.86 188.479 202.434 188.073 202.989 187.678C203.549 187.278 204.077 186.9 204.574 186.543C205.076 186.183 205.512 185.867 205.882 185.595L209.145 187.098L198.854 194.138C198.496 194.378 198.303 194.628 198.275 194.888C198.258 195.147 198.429 195.396 198.788 195.635L198.979 195.763L196.241 197.601L196.05 197.474C195.807 197.319 195.587 197.146 195.39 196.953C195.199 196.763 195.04 196.568 194.912 196.367C194.779 196.17 194.686 195.977 194.634 195.787C194.581 195.598 194.575 195.428 194.616 195.277C194.344 195.297 194.069 195.291 193.792 195.261C193.514 195.23 193.222 195.163 192.915 195.059C192.609 194.963 192.282 194.826 191.935 194.649C191.588 194.472 191.211 194.248 190.806 193.978L190.259 193.613L192.997 191.775ZM198.632 195.532L200.464 196.753C201.402 197.378 202.316 197.914 203.208 198.362C204.11 198.809 204.998 199.196 205.872 199.523C206.746 199.851 207.61 200.134 208.466 200.372C209.334 200.61 210.199 200.835 211.061 201.047C210.777 200.71 210.516 200.355 210.278 199.98C210.046 199.609 209.806 199.24 209.557 198.873C209.313 198.51 209.047 198.162 208.757 197.83C208.473 197.494 208.137 197.196 207.749 196.938C207.483 196.76 207.148 196.633 206.743 196.557C206.344 196.484 205.948 196.44 205.554 196.425C205.161 196.41 204.806 196.417 204.488 196.444C204.176 196.468 203.97 196.49 203.872 196.509L203.157 194.305C203.764 194.192 204.403 194.112 205.073 194.064C205.744 194.017 206.4 194.017 207.042 194.067C207.695 194.116 208.317 194.221 208.907 194.382C209.503 194.548 210.032 194.785 210.495 195.094C210.837 195.321 211.141 195.574 211.407 195.852C211.679 196.126 211.926 196.414 212.146 196.716C212.372 197.021 212.575 197.334 212.755 197.655C212.94 197.972 213.12 198.288 213.294 198.605C213.456 198.907 213.622 199.21 213.79 199.516C213.964 199.817 214.155 200.119 214.364 200.42C214.578 200.717 214.824 201.009 215.102 201.295C215.38 201.581 215.713 201.857 216.101 202.123L213.225 203.764L211.403 203.338C210.657 203.165 209.905 203 209.147 202.843C208.395 202.682 207.64 202.511 206.883 202.33C206.131 202.146 205.37 201.944 204.601 201.725C203.837 201.502 203.074 201.244 202.31 200.951C201.552 200.655 200.791 200.314 200.027 199.928C199.258 199.546 198.491 199.101 197.727 198.592L195.895 197.37L198.632 195.532ZM198.328 205.322L198.324 202.746L202.174 202.739L202.179 205.315L198.328 205.322Z" fill="black"/>
<path d="M217.377 85.1019C217.54 84.7983 217.54 84.4818 217.377 84.3948L214.73 82.9779C214.567 82.8909 214.304 83.0665 214.142 83.3701C213.979 83.6737 213.979 83.9903 214.142 84.0772L216.495 85.3367L214.142 89.7341C213.979 90.0376 213.979 90.3542 214.142 90.4412C214.304 90.5281 214.567 90.3525 214.73 90.0489L217.377 85.1019ZM163 121.5L217.083 85.4445V84.4445L163 120.5V121.5Z" fill="black"/>
<path d="M364.889 164.613C365.051 164.526 365.051 164.209 364.889 163.906L362.241 158.959C362.079 158.655 361.816 158.48 361.653 158.567C361.491 158.653 361.491 158.97 361.653 159.274L364.006 163.671L361.653 164.93C361.491 165.017 361.491 165.334 361.653 165.638C361.816 165.941 362.079 166.117 362.241 166.03L364.889 164.613ZM318 133.5L364.595 164.563V163.563L318 132.5V133.5Z" fill="black"/>
<path d="M242.706 84.4503C242.543 84.5373 242.543 84.8539 242.706 85.1574L245.353 90.1045C245.516 90.408 245.779 90.5836 245.942 90.4967C246.104 90.4097 246.104 90.0932 245.942 89.7896L243.588 85.3922L245.942 84.1327C246.104 84.0458 246.104 83.7292 245.942 83.4256C245.779 83.1221 245.516 82.9464 245.353 83.0334L242.706 84.4503ZM243 85.5L289.595 116.563V115.563L243 84.5V85.5Z" fill="black"/>
<path d="M42.7058 199.898C42.5434 200.202 42.5434 200.518 42.7058 200.605L45.3534 202.022C45.5159 202.109 45.7793 201.933 45.9417 201.63C46.1042 201.326 46.1042 201.01 45.9417 200.923L43.5883 199.663L45.9417 195.266C46.1042 194.962 46.1042 194.646 45.9417 194.559C45.7793 194.472 45.5159 194.648 45.3534 194.951L42.7058 199.898ZM43 200.556L97.0833 164.5V163.5L43 199.556V200.556Z" fill="black"/>
<path d="M165.619 349.01C165.828 348.964 166.041 348.936 166.259 348.927C166.319 348.922 166.38 348.92 166.44 348.92C166.593 348.92 166.76 348.932 166.941 348.955C167.126 348.978 167.321 349.022 167.525 349.087C167.734 349.152 167.933 349.235 168.123 349.337L167.49 351.007C167.249 350.9 166.999 350.828 166.739 350.791C166.628 350.777 166.519 350.77 166.412 350.77C166.259 350.77 166.106 350.784 165.953 350.812C165.795 350.826 165.626 350.872 165.445 350.951C165.264 351.03 165.083 351.132 164.903 351.257C164.726 351.378 164.555 351.519 164.388 351.682C164.225 351.839 164.082 352.009 163.956 352.19C163.831 352.366 163.729 352.549 163.65 352.739C163.576 352.925 163.539 353.106 163.539 353.282C163.539 353.481 163.585 353.639 163.678 353.755C163.776 353.866 163.903 353.959 164.061 354.033C164.223 354.103 164.409 354.161 164.617 354.207C164.826 354.249 165.044 354.3 165.271 354.36C165.549 354.425 165.83 354.499 166.113 354.583C166.396 354.666 166.651 354.782 166.878 354.93C167.105 355.074 167.286 355.264 167.421 355.501C167.537 355.71 167.595 355.967 167.595 356.273C167.595 356.315 167.592 356.359 167.588 356.405C167.56 356.892 167.449 357.321 167.254 357.692C167.059 358.068 166.806 358.392 166.496 358.666C166.185 358.94 165.83 359.167 165.431 359.348C165.032 359.533 164.615 359.682 164.179 359.793C163.743 359.904 163.303 359.983 162.857 360.03C162.412 360.076 161.988 360.099 161.584 360.099C160.768 360.099 160.021 359.99 159.344 359.772C158.672 359.554 158.104 359.23 157.64 358.798C157.176 358.372 156.84 357.838 156.631 357.198C156.492 356.781 156.423 356.319 156.423 355.814C156.423 355.545 156.441 355.267 156.478 354.979C156.515 354.673 156.566 354.362 156.631 354.047C156.696 353.732 156.766 353.428 156.84 353.136C156.914 352.839 156.991 352.558 157.069 352.294C157.148 352.03 157.22 351.798 157.285 351.598C157.35 351.399 157.406 351.237 157.452 351.111C157.498 350.986 157.526 350.914 157.536 350.896L159.066 351.515C158.955 351.863 158.853 352.19 158.76 352.496C158.667 352.797 158.584 353.094 158.509 353.386C158.435 353.678 158.368 353.973 158.308 354.27C158.252 354.562 158.203 354.872 158.162 355.202C158.143 355.355 158.134 355.503 158.134 355.647C158.134 355.976 158.196 356.303 158.322 356.628C158.452 356.957 158.672 357.247 158.983 357.497C159.298 357.752 159.678 357.943 160.123 358.068C160.569 358.193 161.056 358.256 161.584 358.256C162.201 358.256 162.774 358.207 163.303 358.11C163.836 358.017 164.297 357.892 164.687 357.734C165.081 357.576 165.394 357.398 165.626 357.198C165.863 357.003 165.995 356.802 166.023 356.593C166.018 356.551 165.974 356.512 165.89 356.475C165.807 356.438 165.703 356.401 165.577 356.363C165.452 356.331 165.313 356.296 165.16 356.259C165.012 356.227 164.868 356.192 164.729 356.155C164.339 356.057 163.977 355.946 163.643 355.821C163.309 355.7 163.02 355.54 162.774 355.341C162.528 355.141 162.336 354.889 162.196 354.583C162.057 354.277 161.988 353.892 161.988 353.428C162.011 352.918 162.118 352.421 162.308 351.939C162.498 351.457 162.753 351.019 163.073 350.624C163.398 350.226 163.776 349.885 164.207 349.602C164.638 349.319 165.109 349.122 165.619 349.01ZM169.58 352.475C169.756 352.586 169.967 352.7 170.213 352.816C170.464 352.932 170.721 353.036 170.985 353.129C171.254 353.221 171.516 353.298 171.771 353.358C172.031 353.419 172.258 353.449 172.453 353.449C172.532 353.449 172.629 353.446 172.745 353.442C172.861 353.437 172.984 353.428 173.114 353.414C173.244 353.395 173.374 353.37 173.504 353.337C173.634 353.3 173.749 353.252 173.851 353.191C173.958 353.126 174.044 353.048 174.109 352.955C174.174 352.857 174.209 352.739 174.213 352.6C174.213 352.591 174.213 352.584 174.213 352.579C174.213 352.394 174.16 352.185 174.053 351.953C173.951 351.717 173.81 351.471 173.629 351.216C173.448 350.956 173.239 350.696 173.003 350.437C172.766 350.177 172.52 349.929 172.265 349.692C172.01 349.451 171.753 349.231 171.493 349.031C171.238 348.827 170.999 348.656 170.777 348.517L171.813 346.979C172.24 347.271 172.66 347.601 173.072 347.967C173.49 348.333 173.872 348.725 174.22 349.143C174.573 349.555 174.876 349.987 175.131 350.437C175.391 350.886 175.577 351.341 175.688 351.8C175.748 352.064 175.778 352.317 175.778 352.558C175.778 352.79 175.734 353.068 175.646 353.393C175.563 353.718 175.37 354.038 175.069 354.353C174.767 354.664 174.385 354.903 173.921 355.07C173.522 355.213 173.084 355.285 172.606 355.285C172.527 355.285 172.446 355.283 172.363 355.278C172.057 355.278 171.746 355.248 171.431 355.188C171.115 355.132 170.805 355.053 170.498 354.951C170.197 354.849 169.905 354.733 169.622 354.603C169.344 354.469 169.084 354.328 168.843 354.179L169.58 352.475ZM176.68 358.339C177.361 358.205 177.976 358.024 178.523 357.797C179.075 357.574 179.553 357.323 179.956 357.045C180.36 356.767 180.687 356.47 180.937 356.155C181.192 355.839 181.361 355.524 181.445 355.209C181.069 355.209 180.703 355.197 180.346 355.174C179.989 355.151 179.65 355.104 179.33 355.035C179.015 354.97 178.722 354.877 178.454 354.757C178.189 354.631 177.96 354.469 177.765 354.27C177.575 354.066 177.426 353.82 177.32 353.532C177.213 353.245 177.16 352.901 177.16 352.503C177.16 352.248 177.187 351.981 177.243 351.703C177.299 351.424 177.378 351.153 177.48 350.889C177.586 350.62 177.716 350.367 177.869 350.13C178.022 349.889 178.198 349.678 178.398 349.497C178.597 349.312 178.818 349.166 179.059 349.059C179.3 348.952 179.56 348.899 179.838 348.899C180.557 348.899 181.213 349.219 181.807 349.859C182.001 350.077 182.178 350.321 182.335 350.59C182.493 350.859 182.63 351.146 182.746 351.452C182.862 351.758 182.954 352.078 183.024 352.412C183.098 352.741 183.145 353.08 183.163 353.428H183.629V355.209H183.017C182.859 355.895 182.593 356.512 182.217 357.059C181.841 357.611 181.389 358.091 180.86 358.499C180.336 358.907 179.752 359.243 179.107 359.508C178.463 359.772 177.793 359.962 177.097 360.078L176.68 358.339ZM179.838 350.687C179.717 350.687 179.587 350.738 179.448 350.84C179.309 350.942 179.182 351.074 179.066 351.237C178.95 351.394 178.852 351.57 178.774 351.765C178.699 351.96 178.662 352.15 178.662 352.336C178.662 352.53 178.706 352.693 178.794 352.823C178.887 352.952 179.003 353.057 179.142 353.136C179.286 353.214 179.446 353.275 179.622 353.317C179.803 353.354 179.982 353.379 180.158 353.393C180.255 353.402 180.362 353.409 180.478 353.414C180.594 353.414 180.712 353.416 180.833 353.421C180.958 353.426 181.081 353.428 181.201 353.428C181.322 353.428 181.436 353.428 181.542 353.428C181.528 353.256 181.494 353.071 181.438 352.871C181.387 352.667 181.32 352.463 181.236 352.259C181.153 352.055 181.058 351.86 180.951 351.675C180.844 351.485 180.728 351.318 180.603 351.174C180.482 351.026 180.357 350.907 180.227 350.819C180.098 350.731 179.968 350.687 179.838 350.687ZM186.83 352.489C186.984 352.554 187.181 352.635 187.422 352.732C187.663 352.83 187.923 352.927 188.201 353.024C188.479 353.122 188.76 353.21 189.043 353.289C189.33 353.363 189.592 353.409 189.829 353.428C189.782 353.233 189.734 353.031 189.683 352.823C189.636 352.609 189.583 352.403 189.523 352.203C189.462 352.004 189.395 351.816 189.321 351.64C189.247 351.459 189.159 351.301 189.057 351.167C188.959 351.032 188.846 350.926 188.716 350.847C188.586 350.768 188.44 350.729 188.277 350.729C188.092 350.729 187.925 350.789 187.777 350.91C187.633 351.03 187.501 351.181 187.38 351.362C187.264 351.538 187.16 351.728 187.067 351.932C186.979 352.136 186.9 352.322 186.83 352.489ZM189.474 355.188C189.233 355.183 188.95 355.148 188.625 355.083C188.301 355.023 187.969 354.942 187.63 354.84C187.297 354.738 186.974 354.622 186.664 354.492C186.357 354.362 186.098 354.226 185.884 354.082C185.704 354.263 185.527 354.423 185.356 354.562C185.184 354.701 185.006 354.819 184.82 354.917C184.635 355.009 184.433 355.081 184.215 355.132C184.001 355.183 183.758 355.209 183.484 355.209H183.345V353.428H183.484C183.823 353.428 184.106 353.365 184.333 353.24C184.56 353.11 184.755 352.943 184.917 352.739C185.08 352.535 185.221 352.306 185.342 352.05C185.467 351.795 185.595 351.54 185.724 351.285C185.854 351.016 186.003 350.747 186.17 350.478C186.337 350.209 186.524 349.968 186.733 349.755C186.946 349.537 187.185 349.361 187.45 349.226C187.714 349.092 188.011 349.024 188.34 349.024C188.771 349.024 189.133 349.101 189.425 349.254C189.722 349.402 189.968 349.609 190.163 349.873C190.362 350.133 190.52 350.439 190.636 350.791C190.752 351.144 190.849 351.524 190.928 351.932C190.974 352.169 191.018 352.38 191.06 352.565C191.102 352.746 191.148 352.901 191.199 353.031C191.255 353.161 191.313 353.261 191.373 353.33C191.438 353.395 191.515 353.428 191.603 353.428H191.818V355.209H191.554C191.299 355.204 191.072 355.134 190.872 355C190.677 354.861 190.497 354.678 190.33 354.45C190.279 354.497 190.218 354.559 190.149 354.638C190.084 354.717 190.012 354.796 189.933 354.875C189.859 354.949 189.782 355.016 189.704 355.077C189.625 355.137 189.548 355.174 189.474 355.188ZM197.766 351.125C197.599 350.93 197.404 350.754 197.181 350.597C196.996 350.462 196.78 350.341 196.534 350.235C196.289 350.123 196.02 350.068 195.728 350.068C195.491 350.068 195.282 350.105 195.101 350.179C194.921 350.249 194.768 350.346 194.642 350.471C194.517 350.592 194.42 350.733 194.35 350.896C194.281 351.058 194.239 351.232 194.225 351.417C194.22 351.45 194.218 351.482 194.218 351.515C194.218 351.733 194.276 351.946 194.392 352.155C194.508 352.359 194.67 352.542 194.879 352.704C195.088 352.862 195.329 352.983 195.602 353.066C195.825 353.136 196.05 353.17 196.277 353.17C196.328 353.17 196.379 353.168 196.43 353.163C196.699 353.145 196.968 353.117 197.237 353.08C197.511 353.038 197.759 352.999 197.981 352.962L198.726 352.816L198.941 354.548C198.654 354.622 198.332 354.699 197.974 354.777C197.617 354.856 197.207 354.928 196.743 354.993C196.284 355.053 195.762 355.104 195.178 355.146C194.594 355.188 193.93 355.209 193.188 355.209H191.533V353.428H191.839L193.168 353.421C192.917 353.129 192.745 352.83 192.653 352.523C192.565 352.213 192.521 351.872 192.521 351.501C192.521 351.065 192.602 350.652 192.764 350.263C192.926 349.873 193.149 349.532 193.432 349.24C193.719 348.948 194.058 348.716 194.448 348.544C194.842 348.373 195.268 348.287 195.728 348.287C195.955 348.287 196.173 348.308 196.381 348.35C196.595 348.391 196.797 348.447 196.987 348.517C197.177 348.586 197.355 348.665 197.522 348.753C197.694 348.841 197.849 348.929 197.988 349.017C198.151 349.124 198.308 349.238 198.461 349.358C198.614 349.479 198.758 349.606 198.893 349.741L197.766 351.125ZM210.211 359.744C209.414 359.744 208.676 359.645 207.999 359.445C207.322 359.25 206.745 358.954 206.267 358.555C205.789 358.161 205.43 357.664 205.189 357.066C204.994 356.598 204.897 356.067 204.897 355.473C204.897 355.315 204.904 355.153 204.918 354.986C204.945 354.666 204.982 354.339 205.029 354.005C205.08 353.671 205.147 353.321 205.231 352.955C205.319 352.584 205.43 352.192 205.564 351.779C205.699 351.366 205.866 350.921 206.065 350.443L207.498 351.104C207.308 351.577 207.151 352.016 207.025 352.419C206.9 352.818 206.8 353.189 206.726 353.532C206.657 353.875 206.608 354.198 206.58 354.499C206.552 354.801 206.538 355.09 206.538 355.369C206.538 355.703 206.58 356.002 206.664 356.266C206.752 356.53 206.863 356.767 206.997 356.976C207.178 357.221 207.406 357.409 207.679 357.539C207.953 357.674 208.24 357.771 208.542 357.831C208.848 357.892 209.147 357.926 209.439 357.936C209.736 357.95 209.993 357.957 210.211 357.957C210.341 357.957 210.529 357.947 210.775 357.929C211.025 357.91 211.297 357.878 211.589 357.831C211.886 357.785 212.189 357.725 212.5 357.65C212.811 357.576 213.091 357.483 213.342 357.372C213.597 357.261 213.803 357.131 213.961 356.983C214.123 356.834 214.204 356.66 214.204 356.461C214.204 356.428 214.163 356.377 214.079 356.308C214 356.243 213.889 356.169 213.745 356.085C213.606 356.002 213.442 355.914 213.251 355.821C213.061 355.733 212.857 355.647 212.639 355.563C212.319 355.457 212.002 355.378 211.686 355.327C211.371 355.276 211.058 355.223 210.747 355.167L210.984 353.428H216.507V355.209H215.206C215.392 355.436 215.515 355.659 215.575 355.877C215.64 356.099 215.675 356.294 215.679 356.461C215.661 356.869 215.556 357.233 215.366 357.553C215.176 357.878 214.93 358.161 214.629 358.402C214.332 358.648 213.993 358.854 213.613 359.021C213.233 359.192 212.843 359.332 212.444 359.438C212.046 359.545 211.651 359.621 211.262 359.668C210.877 359.719 210.527 359.744 210.211 359.744ZM216.514 353.428C216.769 353.428 216.996 353.372 217.196 353.261C217.4 353.15 217.578 353.001 217.732 352.816C217.889 352.63 218.026 352.419 218.142 352.183C218.263 351.946 218.367 351.703 218.455 351.452C218.543 351.202 218.62 350.956 218.685 350.715C218.749 350.469 218.807 350.249 218.858 350.054L220.598 350.437C220.556 350.566 220.5 350.733 220.431 350.937C220.361 351.137 220.294 351.35 220.229 351.577C220.169 351.8 220.118 352.025 220.076 352.252C220.043 352.424 220.027 352.584 220.027 352.732C220.027 352.779 220.032 352.86 220.041 352.976C220.05 353.092 220.097 353.208 220.18 353.323C220.268 353.435 220.41 353.49 220.605 353.49C220.813 353.49 221.001 353.432 221.168 353.317C221.335 353.196 221.483 353.041 221.613 352.85C221.748 352.656 221.864 352.435 221.961 352.19C222.063 351.944 222.149 351.693 222.218 351.438C222.293 351.179 222.353 350.926 222.399 350.68C222.45 350.434 222.49 350.214 222.518 350.019L224.145 350.332C224.132 350.443 224.111 350.576 224.083 350.729C224.06 350.882 224.034 351.049 224.006 351.23C223.978 351.406 223.951 351.591 223.923 351.786C223.9 351.981 223.881 352.176 223.867 352.37C223.867 352.408 223.867 352.445 223.867 352.482C223.867 352.593 223.879 352.709 223.902 352.83C223.925 352.946 223.974 353.057 224.048 353.163C224.122 353.266 224.22 353.349 224.34 353.414C224.461 353.474 224.609 353.507 224.785 353.511C225.115 353.511 225.384 353.428 225.592 353.261C225.801 353.094 225.905 352.839 225.905 352.496C225.905 352.245 225.871 351.974 225.801 351.682C225.736 351.39 225.655 351.104 225.558 350.826C225.465 350.548 225.365 350.286 225.258 350.04C225.152 349.794 225.059 349.59 224.98 349.428L226.476 348.593C226.504 348.644 226.548 348.737 226.608 348.871C226.673 349.006 226.745 349.173 226.824 349.372C226.907 349.567 226.991 349.787 227.074 350.033C227.158 350.279 227.234 350.539 227.304 350.812C227.378 351.081 227.436 351.357 227.478 351.64C227.524 351.923 227.547 352.201 227.547 352.475C227.547 352.906 227.48 353.296 227.345 353.643C227.216 353.991 227.021 354.288 226.761 354.534C226.506 354.78 226.191 354.968 225.815 355.097C225.453 355.227 225.038 355.292 224.57 355.292C224.556 355.292 224.54 355.292 224.521 355.292C224.503 355.292 224.486 355.292 224.472 355.292C224.254 355.292 224.055 355.262 223.874 355.202C223.693 355.146 223.526 355.067 223.373 354.965C223.225 354.859 223.09 354.738 222.97 354.603C222.854 354.469 222.749 354.332 222.657 354.193C222.55 354.346 222.434 354.49 222.309 354.624C222.184 354.754 222.038 354.868 221.871 354.965C221.708 355.063 221.523 355.139 221.314 355.195C221.11 355.255 220.874 355.288 220.605 355.292C220.591 355.292 220.574 355.292 220.556 355.292C220.347 355.292 220.152 355.264 219.972 355.209C219.795 355.153 219.631 355.077 219.478 354.979C219.329 354.877 219.192 354.759 219.067 354.624C218.947 354.49 218.835 354.348 218.733 354.2C218.645 354.33 218.538 354.455 218.413 354.576C218.293 354.696 218.142 354.805 217.961 354.903C217.785 354.995 217.576 355.07 217.335 355.125C217.094 355.181 216.811 355.209 216.486 355.209H216.236V353.428H216.514ZM231.774 350.583C231.867 350.875 231.962 351.181 232.059 351.501C232.161 351.816 232.252 352.136 232.331 352.461C232.414 352.786 232.481 353.11 232.532 353.435C232.583 353.755 232.609 354.068 232.609 354.374C232.609 354.791 232.544 355.197 232.414 355.591C232.289 355.99 232.113 356.373 231.885 356.739C231.663 357.11 231.396 357.463 231.085 357.797C230.779 358.13 230.445 358.446 230.084 358.743C229.722 359.039 229.339 359.315 228.936 359.57C228.532 359.826 228.124 360.055 227.711 360.259L226.918 358.666C227.248 358.504 227.572 358.323 227.892 358.123C228.212 357.929 228.516 357.72 228.804 357.497C229.096 357.275 229.365 357.041 229.611 356.795C229.861 356.549 230.074 356.294 230.251 356.03C230.431 355.765 230.573 355.494 230.675 355.216C230.777 354.937 230.828 354.657 230.828 354.374C230.828 354.11 230.798 353.831 230.738 353.539C230.677 353.247 230.603 352.959 230.515 352.677C230.431 352.389 230.343 352.113 230.251 351.849C230.162 351.584 230.088 351.35 230.028 351.146L231.774 350.583ZM237.527 355.209H237.249C236.307 355.209 235.593 354.972 235.106 354.499C234.619 354.026 234.373 353.312 234.369 352.357C234.369 352.208 234.373 351.965 234.383 351.626C234.392 351.283 234.396 350.866 234.396 350.374C234.396 350.082 234.394 349.769 234.389 349.435C234.385 349.096 234.378 348.753 234.369 348.405C234.359 348.053 234.345 347.703 234.327 347.355C234.313 347.002 234.294 346.664 234.271 346.339C234.248 346.01 234.22 345.704 234.188 345.421C234.155 345.133 234.118 344.881 234.076 344.663L235.823 344.141C235.874 344.41 235.92 344.739 235.962 345.129C236.003 345.514 236.04 345.926 236.073 346.367C236.105 346.808 236.129 347.257 236.143 347.717C236.161 348.171 236.17 348.6 236.17 349.003C236.17 349.249 236.173 349.511 236.177 349.79C236.182 350.063 236.184 350.304 236.184 350.513C236.184 350.689 236.182 350.856 236.177 351.014C236.177 351.167 236.175 351.315 236.17 351.459C236.17 351.603 236.168 351.744 236.163 351.883C236.163 352.023 236.163 352.164 236.163 352.308C236.163 352.345 236.163 352.382 236.163 352.419C236.163 352.586 236.18 352.734 236.212 352.864C236.249 352.994 236.312 353.103 236.4 353.191C236.488 353.275 236.599 353.335 236.734 353.372C236.873 353.409 237.033 353.428 237.214 353.428H237.527V355.209ZM237.418 353.428C237.905 353.428 238.374 353.414 238.824 353.386C239.274 353.354 239.684 353.31 240.055 353.254C240.426 353.198 240.746 353.131 241.015 353.052C241.284 352.973 241.486 352.885 241.62 352.788H240.911C240.503 352.788 240.113 352.737 239.742 352.635C239.376 352.528 239.053 352.37 238.775 352.162C238.497 351.953 238.274 351.693 238.107 351.383C237.945 351.067 237.864 350.701 237.864 350.283C237.864 350.038 237.889 349.785 237.94 349.525C237.991 349.266 238.068 349.013 238.17 348.767C238.272 348.521 238.395 348.289 238.538 348.071C238.682 347.853 238.847 347.663 239.032 347.501C239.218 347.334 239.422 347.204 239.645 347.111C239.867 347.014 240.108 346.965 240.368 346.965C240.688 346.965 240.987 347.032 241.265 347.167C241.544 347.301 241.796 347.485 242.024 347.717C242.251 347.944 242.453 348.208 242.629 348.51C242.805 348.811 242.954 349.129 243.074 349.463C243.195 349.797 243.285 350.137 243.345 350.485C243.41 350.828 243.443 351.155 243.443 351.466C243.443 351.995 243.369 352.454 243.22 352.843C243.076 353.233 242.872 353.567 242.608 353.845C242.348 354.123 242.035 354.351 241.669 354.527C241.307 354.703 240.906 354.842 240.465 354.944C240.025 355.046 239.552 355.116 239.046 355.153C238.545 355.19 238.026 355.209 237.488 355.209H237.251V353.428H237.418ZM240.368 348.76C240.345 348.755 240.322 348.753 240.298 348.753C240.206 348.753 240.099 348.79 239.978 348.864C239.858 348.939 239.742 349.045 239.631 349.184C239.519 349.323 239.429 349.481 239.359 349.657C239.29 349.829 239.255 349.998 239.255 350.165C239.255 350.174 239.255 350.184 239.255 350.193C239.255 350.36 239.292 350.497 239.366 350.603C239.44 350.706 239.54 350.784 239.665 350.84C239.795 350.896 239.944 350.935 240.111 350.958C240.282 350.981 240.463 350.998 240.653 351.007C240.778 351.012 240.908 351.014 241.043 351.014C241.108 351.014 241.207 351.014 241.342 351.014C241.481 351.009 241.623 351.002 241.766 350.993C241.725 350.826 241.664 350.62 241.585 350.374C241.511 350.123 241.416 349.882 241.3 349.65C241.189 349.414 241.054 349.21 240.897 349.038C240.744 348.867 240.567 348.774 240.368 348.76ZM241.648 344.704L240.312 346.04L238.984 344.704L240.312 343.376L241.648 344.704Z" fill="black"/>
</svg>
