<svg width="400" height="400" viewBox="0 0 400 400" fill="none" xmlns="http://www.w3.org/2000/svg">
<rect width="400" height="400" fill="white"/>
<path d="M174.024 53.7443C173.226 53.7443 172.489 53.6446 171.812 53.4452C171.135 53.2504 170.557 52.9536 170.08 52.5548C169.602 52.1606 169.242 51.6643 169.001 51.0661C168.807 50.5977 168.709 50.0667 168.709 49.473C168.709 49.3154 168.716 49.153 168.73 48.9861C168.758 48.6661 168.795 48.3391 168.841 48.0052C168.892 47.6713 168.96 47.3212 169.043 46.9548C169.131 46.5838 169.242 46.1919 169.377 45.7791C169.511 45.3664 169.678 44.9212 169.878 44.4435L171.311 45.1043C171.121 45.5774 170.963 46.0157 170.838 46.4191C170.713 46.818 170.613 47.189 170.539 47.5322C170.469 47.8754 170.42 48.1977 170.393 48.4991C170.365 48.8006 170.351 49.0904 170.351 49.3687C170.351 49.7026 170.393 50.0017 170.476 50.2661C170.564 50.5304 170.676 50.767 170.81 50.9757C170.991 51.2214 171.218 51.4093 171.492 51.5391C171.765 51.6736 172.053 51.771 172.354 51.8313C172.66 51.8916 172.96 51.9264 173.252 51.9357C173.549 51.9496 173.806 51.9565 174.024 51.9565C174.154 51.9565 174.342 51.9472 174.587 51.9287C174.838 51.9101 175.109 51.8777 175.401 51.8313C175.698 51.7849 176.002 51.7246 176.313 51.6504C176.623 51.5762 176.904 51.4835 177.154 51.3722C177.409 51.2609 177.616 51.131 177.773 50.9826C177.936 50.8342 178.017 50.6603 178.017 50.4609C178.017 50.4284 177.975 50.3774 177.892 50.3078C177.813 50.2429 177.702 50.1687 177.558 50.0852C177.419 50.0017 177.254 49.9136 177.064 49.8209C176.874 49.7328 176.67 49.647 176.452 49.5635C176.132 49.4568 175.814 49.378 175.499 49.327C175.183 49.2759 174.87 49.2226 174.56 49.167L174.796 47.4278H180.32V49.2087H179.019C179.204 49.4359 179.327 49.6586 179.387 49.8765C179.452 50.0991 179.487 50.2939 179.492 50.4609C179.473 50.869 179.369 51.233 179.179 51.553C178.989 51.8777 178.743 52.1606 178.441 52.4017C178.144 52.6475 177.806 52.8539 177.426 53.0209C177.045 53.1925 176.656 53.3316 176.257 53.4383C175.858 53.5449 175.464 53.6214 175.074 53.6678C174.689 53.7188 174.339 53.7443 174.024 53.7443ZM180.048 47.4278H180.556C180.723 47.4278 180.879 47.4139 181.022 47.3861C181.166 47.3583 181.294 47.3003 181.405 47.2122C181.516 47.1194 181.607 46.9919 181.676 46.8296C181.746 46.6672 181.79 46.4493 181.808 46.1757C181.808 46.069 181.811 45.8835 181.815 45.6191C181.825 45.3501 181.832 45.0325 181.836 44.6661C181.841 44.2951 181.845 43.8893 181.85 43.4487C181.855 43.0081 181.857 42.5583 181.857 42.0991C181.857 41.742 181.855 41.3919 181.85 41.0487C181.85 40.7009 181.845 40.367 181.836 40.047C181.832 39.727 181.82 39.4255 181.801 39.1426C181.788 38.8597 181.767 38.6023 181.739 38.3704L183.513 38.1409C183.545 38.3913 183.571 38.6742 183.589 38.9896C183.608 39.3049 183.622 39.6412 183.631 39.9983C183.645 40.3507 183.652 40.7217 183.652 41.1113C183.656 41.4962 183.659 41.8858 183.659 42.28C183.659 43.1565 183.65 43.9194 183.631 44.5687C183.617 45.218 183.61 45.793 183.61 46.2939C183.61 46.6464 183.701 46.9246 183.881 47.1287C184.062 47.3281 184.331 47.4278 184.688 47.4278H184.841V49.2087H184.688C184.661 49.2087 184.635 49.2087 184.612 49.2087C184.431 49.2087 184.252 49.1925 184.076 49.16C183.905 49.1322 183.738 49.0881 183.575 49.0278C183.418 48.9722 183.272 48.9049 183.137 48.8261C183.003 48.7472 182.884 48.6661 182.782 48.5826C182.648 48.7125 182.499 48.8191 182.337 48.9026C182.179 48.9814 182.017 49.0441 181.85 49.0904C181.683 49.1368 181.519 49.167 181.356 49.1809C181.194 49.1994 181.048 49.2087 180.918 49.2087H180.048V47.4278ZM184.564 47.4278H186.074C186.649 47.4278 187.233 47.3745 187.827 47.2678C188.425 47.1565 189.018 47.0128 189.607 46.8365C190.196 46.6557 190.772 46.4493 191.333 46.2174C191.894 45.9855 192.425 45.7467 192.926 45.5009C192.527 45.4128 192.156 45.2968 191.813 45.153C191.47 45.0046 191.145 44.8609 190.839 44.7217C190.533 44.5826 190.238 44.462 189.955 44.36C189.672 44.258 189.392 44.207 189.114 44.207C188.951 44.207 188.798 44.2371 188.654 44.2974C188.515 44.353 188.385 44.4249 188.265 44.513C188.144 44.6012 188.035 44.6986 187.938 44.8052C187.845 44.9119 187.762 45.0162 187.687 45.1183C187.618 45.2157 187.56 45.3038 187.514 45.3826C187.467 45.4614 187.435 45.5171 187.416 45.5496L185.969 44.6104C186.127 44.3322 186.315 44.0632 186.533 43.8035C186.751 43.5391 186.992 43.3049 187.256 43.1009C187.525 42.8922 187.815 42.7275 188.126 42.607C188.436 42.4817 188.766 42.4191 189.114 42.4191C189.471 42.4191 189.825 42.4678 190.178 42.5652C190.53 42.658 190.878 42.7786 191.221 42.927C191.569 43.0707 191.917 43.2261 192.265 43.393C192.613 43.56 192.963 43.7177 193.315 43.8661C193.672 44.0099 194.032 44.1328 194.394 44.2348C194.755 44.3322 195.126 44.3832 195.507 44.3878L195.361 46.1826C194.711 46.4933 194.034 46.8226 193.329 47.1704C192.624 47.5183 191.887 47.8406 191.117 48.1374C190.347 48.4296 189.543 48.6777 188.703 48.8817C187.868 49.0812 186.992 49.1901 186.074 49.2087H184.564V47.4278ZM199.618 44.5826C199.711 44.8748 199.806 45.1809 199.903 45.5009C200.005 45.8162 200.096 46.1362 200.174 46.4609C200.258 46.7855 200.325 47.1101 200.376 47.4348C200.427 47.7548 200.453 48.0678 200.453 48.3739C200.453 48.7913 200.388 49.1971 200.258 49.5913C200.133 49.9901 199.956 50.3728 199.729 50.7391C199.507 51.1101 199.24 51.4626 198.929 51.7965C198.623 52.1304 198.289 52.4458 197.927 52.7426C197.566 53.0394 197.183 53.3154 196.78 53.5704C196.376 53.8255 195.968 54.0551 195.555 54.2591L194.762 52.6661C195.091 52.5038 195.416 52.3229 195.736 52.1235C196.056 51.9287 196.36 51.72 196.647 51.4974C196.94 51.2748 197.209 51.0406 197.454 50.7948C197.705 50.549 197.918 50.2939 198.094 50.0296C198.275 49.7652 198.417 49.4939 198.519 49.2157C198.621 48.9374 198.672 48.6568 198.672 48.3739C198.672 48.1096 198.642 47.8313 198.581 47.5391C198.521 47.247 198.447 46.9594 198.359 46.6765C198.275 46.389 198.187 46.113 198.094 45.8487C198.006 45.5843 197.932 45.3501 197.872 45.1461L199.618 44.5826ZM210.423 52.8748C210.692 52.9212 210.963 52.9443 211.237 52.9443C211.307 52.9443 211.443 52.9397 211.647 52.9304C211.851 52.9212 212.114 52.8794 212.434 52.8052C212.754 52.731 213.06 52.6313 213.352 52.5061C213.649 52.3809 213.92 52.2371 214.166 52.0748L215.105 53.633C214.836 53.7954 214.558 53.9438 214.27 54.0783C213.987 54.2174 213.693 54.3357 213.387 54.433C213.085 54.5304 212.772 54.6046 212.447 54.6557C212.165 54.702 211.875 54.7252 211.578 54.7252C211.531 54.7252 211.483 54.7252 211.432 54.7252C210.996 54.7159 210.56 54.6696 210.124 54.5861C209.693 54.5026 209.28 54.382 208.886 54.2243C208.496 54.0667 208.132 53.8696 207.794 53.633C207.46 53.4012 207.167 53.1299 206.917 52.8191C206.671 52.513 206.476 52.1675 206.333 51.7826C206.189 51.4023 206.115 50.9803 206.11 50.5165C206.124 50.0203 206.217 49.5565 206.388 49.1252C206.56 48.6986 206.787 48.309 207.07 47.9565C207.358 47.5994 207.687 47.2817 208.058 47.0035C208.434 46.7252 208.83 46.4864 209.247 46.287C209.099 46.1478 208.946 46.011 208.788 45.8765C208.635 45.7374 208.487 45.6075 208.343 45.487C208.199 45.3617 208.065 45.2481 207.94 45.1461C207.814 45.0394 207.71 44.949 207.627 44.8748L207.494 43.3861C208.102 42.8574 208.756 42.4609 209.456 42.1965C210.161 41.9275 210.896 41.793 211.661 41.793C211.889 41.793 212.123 41.8093 212.364 41.8417C212.61 41.8742 212.849 41.9252 213.08 41.9948C213.312 42.0643 213.53 42.1548 213.734 42.2661C213.938 42.3774 214.117 42.5142 214.27 42.6765C214.423 42.8342 214.544 43.0174 214.632 43.2261C214.711 43.4301 214.75 43.6574 214.75 43.9078C214.75 43.9217 214.75 43.9357 214.75 43.9496C214.731 44.302 214.662 44.6174 214.541 44.8957C214.425 45.1739 214.272 45.4243 214.082 45.647C213.892 45.8696 213.672 46.069 213.421 46.2452C213.176 46.4214 212.914 46.5838 212.635 46.7322C213.011 46.9409 213.41 47.1101 213.832 47.24C214.258 47.3652 214.674 47.4278 215.077 47.4278H215.314V49.2087H215.077C214.692 49.2087 214.319 49.1693 213.957 49.0904C213.595 49.0116 213.238 48.9003 212.886 48.7565C212.533 48.6081 212.183 48.4342 211.835 48.2348C211.487 48.0307 211.137 47.8058 210.785 47.56C210.446 47.6945 210.103 47.8522 209.755 48.033C209.407 48.2093 209.09 48.418 208.802 48.6591C208.519 48.8957 208.287 49.1646 208.107 49.4661C207.926 49.7675 207.835 50.1084 207.835 50.4887C207.835 50.702 207.877 50.9061 207.96 51.1009C208.049 51.2957 208.162 51.4765 208.301 51.6435C208.44 51.8151 208.6 51.9704 208.781 52.1096C208.962 52.2533 209.148 52.3762 209.338 52.4783C209.533 52.5849 209.723 52.6707 209.908 52.7357C210.098 52.8052 210.27 52.8516 210.423 52.8748ZM211.668 43.4904C211.483 43.4904 211.288 43.5043 211.084 43.5322C210.88 43.5554 210.678 43.5901 210.479 43.6365C210.279 43.6783 210.087 43.7316 209.901 43.7965C209.72 43.8568 209.56 43.9241 209.421 43.9983C209.519 44.1003 209.628 44.2186 209.748 44.353C209.869 44.4829 209.996 44.6197 210.131 44.7635C210.27 44.9072 210.411 45.051 210.555 45.1948C210.699 45.3339 210.84 45.4638 210.98 45.5843C211.286 45.4545 211.571 45.3223 211.835 45.1878C212.1 45.0533 212.329 44.9165 212.524 44.7774C212.723 44.6336 212.881 44.4852 212.997 44.3322C213.113 44.1791 213.173 44.0214 213.178 43.8591C213.173 43.8406 213.143 43.8128 213.087 43.7757C213.032 43.7386 212.941 43.7014 212.816 43.6643C212.696 43.6226 212.54 43.5855 212.35 43.553C212.165 43.5206 211.937 43.4997 211.668 43.4904ZM215.033 47.4278H216.09L216.139 47.3374C216.218 47.1983 216.329 47.0151 216.473 46.7878C216.621 46.5559 216.807 46.2939 217.029 46.0017C217.071 45.7096 217.106 45.3409 217.134 44.8957C217.161 44.4504 217.178 43.9681 217.182 43.4487C217.182 43.1658 217.178 42.8759 217.168 42.5791C217.159 42.2777 217.141 41.9322 217.113 41.5426C217.085 41.153 217.045 40.6986 216.994 40.1791C216.948 39.6551 216.888 39.0313 216.814 38.3078L218.643 37.8348C218.764 38.7252 218.854 39.6388 218.914 40.5757C218.979 41.5125 219.012 42.44 219.012 43.3583V43.9217C219.262 43.7084 219.522 43.5043 219.791 43.3096C220.065 43.1148 220.348 42.9432 220.64 42.7948C220.937 42.6464 221.245 42.5281 221.565 42.44C221.885 42.3519 222.219 42.3078 222.567 42.3078C222.919 42.3078 223.253 42.3635 223.568 42.4748C223.884 42.5861 224.162 42.7484 224.403 42.9617C224.649 43.1704 224.851 43.4255 225.008 43.727C225.166 44.0284 225.263 44.367 225.301 44.7426C225.305 44.8122 225.308 44.8794 225.308 44.9443C225.308 45.4267 225.226 45.8765 225.064 46.2939C224.906 46.7113 224.672 47.0893 224.361 47.4278H226.323V49.2087H224.473C224.106 49.2087 223.698 49.1925 223.248 49.16C222.799 49.1275 222.3 49.0417 221.753 48.9026C221.359 49.0093 220.957 49.0858 220.549 49.1322C220.146 49.1832 219.74 49.2087 219.332 49.2087H215.033V47.4278ZM218.685 47.4278C218.968 47.4278 219.292 47.4209 219.659 47.407C220.03 47.393 220.41 47.3606 220.8 47.3096C221.189 47.2586 221.567 47.182 221.934 47.08C222.305 46.978 222.634 46.8412 222.921 46.6696C223.209 46.498 223.436 46.2823 223.603 46.0226C223.747 45.8 223.819 45.5357 223.819 45.2296C223.819 45.1878 223.817 45.1438 223.812 45.0974C223.803 44.9583 223.756 44.8284 223.673 44.7078C223.594 44.5872 223.483 44.4852 223.339 44.4017C223.2 44.3136 223.033 44.2441 222.838 44.193C222.671 44.1559 222.49 44.1374 222.295 44.1374C222.258 44.1374 222.219 44.1374 222.177 44.1374C221.945 44.1467 221.669 44.207 221.349 44.3183C221.029 44.4249 220.686 44.6058 220.32 44.8609C219.953 45.1159 219.573 45.4522 219.179 45.8696C218.785 46.287 218.4 46.8064 218.024 47.4278H218.685ZM226.215 47.4278C226.702 47.4278 227.171 47.4139 227.621 47.3861C228.07 47.3536 228.481 47.3096 228.852 47.2539C229.223 47.1983 229.543 47.131 229.812 47.0522C230.081 46.9733 230.283 46.8852 230.417 46.7878H229.707C229.299 46.7878 228.91 46.7368 228.539 46.6348C228.172 46.5281 227.85 46.3704 227.572 46.1617C227.294 45.953 227.071 45.6933 226.904 45.3826C226.742 45.0672 226.661 44.7009 226.661 44.2835C226.661 44.0377 226.686 43.7849 226.737 43.5252C226.788 43.2655 226.865 43.0128 226.967 42.767C227.069 42.5212 227.192 42.2893 227.335 42.0713C227.479 41.8533 227.644 41.6632 227.829 41.5009C228.015 41.3339 228.219 41.2041 228.441 41.1113C228.664 41.0139 228.905 40.9652 229.165 40.9652C229.485 40.9652 229.784 41.0325 230.062 41.167C230.341 41.3014 230.593 41.4846 230.821 41.7165C231.048 41.9438 231.25 42.2081 231.426 42.5096C231.602 42.811 231.75 43.1287 231.871 43.4626C231.992 43.7965 232.082 44.1374 232.142 44.4852C232.207 44.8284 232.24 45.1554 232.24 45.4661C232.24 45.9948 232.165 46.4539 232.017 46.8435C231.873 47.233 231.669 47.567 231.405 47.8452C231.145 48.1235 230.832 48.3507 230.466 48.527C230.104 48.7032 229.703 48.8423 229.262 48.9443C228.822 49.0464 228.349 49.1159 227.843 49.153C227.342 49.1901 226.823 49.2087 226.285 49.2087H226.048V47.4278H226.215ZM229.165 42.76C229.142 42.7554 229.119 42.753 229.095 42.753C229.003 42.753 228.896 42.7901 228.775 42.8643C228.655 42.9386 228.539 43.0452 228.428 43.1843C228.316 43.3235 228.226 43.4812 228.156 43.6574C228.087 43.829 228.052 43.9983 228.052 44.1652C228.052 44.1745 228.052 44.1838 228.052 44.193C228.052 44.36 228.089 44.4968 228.163 44.6035C228.237 44.7055 228.337 44.7843 228.462 44.84C228.592 44.8957 228.741 44.9351 228.908 44.9583C229.079 44.9814 229.26 44.9977 229.45 45.007C229.575 45.0116 229.705 45.0139 229.84 45.0139C229.905 45.0139 230.004 45.0139 230.139 45.0139C230.278 45.0093 230.419 45.0023 230.563 44.993C230.521 44.8261 230.461 44.6197 230.382 44.3739C230.308 44.1235 230.213 43.8823 230.097 43.6504C229.986 43.4139 229.851 43.2099 229.694 43.0383C229.541 42.8667 229.364 42.7739 229.165 42.76ZM228.998 38.8713L227.815 40.0539L226.619 38.8643L227.801 37.6748L228.998 38.8713ZM231.628 38.8783L230.445 40.0678L229.248 38.8713L230.431 37.6887L231.628 38.8783Z" fill="black"/>
<path d="M43.7864 219.172L231.876 103.544L363.87 191.54L176.005 317.718L43.7864 229.572L43.7864 219.172Z" fill="#E7E7E7" stroke="black"/>
<path d="M364.111 180.697L364.114 191.376L176.531 317.364L175.797 306.869L363.755 180.519L364.111 180.697Z" fill="#A3A3A3" stroke="black"/>
<rect x="0.000955552" y="0.556128" width="158.615" height="226.305" transform="matrix(0.83205 0.5547 -0.830139 0.557556 232.355 92.2455)" fill="#E7E7E7" stroke="black"/>
<path d="M176.006 306.718L167.798 301.247L355.663 175.069L363.87 180.54L176.006 306.718Z" fill="#A3A3A3" stroke="black"/>
<path d="M130.165 130.476C130.165 130.49 130.174 130.554 130.191 130.668C130.208 130.774 130.226 130.923 130.243 131.113C130.26 131.296 130.275 131.509 130.286 131.752C130.292 131.922 130.295 132.097 130.295 132.278V132.549C130.272 134.172 129.957 135.613 129.349 136.874V136.864C128.758 138.113 127.957 139.075 126.944 139.751C126.666 139.936 126.414 140.083 126.188 140.192C125.968 140.29 125.748 140.36 125.529 140.402L125.598 140.93C125.667 141.537 125.722 142.175 125.763 142.844C125.809 143.502 125.844 144.171 125.867 144.851C125.896 145.52 125.913 146.191 125.919 146.862C125.931 147.522 125.937 148.154 125.937 148.759L124.209 149.911C124.209 148.805 124.2 147.712 124.183 146.631C124.165 145.544 124.119 144.51 124.044 143.531C123.969 142.545 123.856 141.632 123.705 140.793C123.561 139.944 123.358 139.209 123.098 138.59C122.976 138.295 122.846 138.024 122.707 137.775C122.568 137.527 122.412 137.28 122.238 137.034L123.688 134.961C123.781 135.08 123.864 135.209 123.94 135.346C124.021 135.473 124.099 135.612 124.174 135.764C124.255 135.905 124.336 136.059 124.417 136.228C124.498 136.397 124.588 136.577 124.686 136.769C124.819 137.049 124.95 137.296 125.077 137.51C125.21 137.713 125.361 137.867 125.529 137.971C125.702 138.071 125.899 138.106 126.119 138.078C126.345 138.039 126.62 137.911 126.944 137.695C127.424 137.375 127.786 136.956 128.029 136.439C128.139 136.213 128.229 135.976 128.298 135.728C128.368 135.473 128.423 135.217 128.463 134.96C128.509 134.7 128.541 134.442 128.559 134.187C128.576 133.932 128.585 133.69 128.585 133.46C128.585 133.161 128.57 132.882 128.541 132.623C128.518 132.36 128.492 132.148 128.463 131.986L130.165 130.476ZM132.991 138.192C132.991 137.705 133.066 137.199 133.217 136.675C133.373 136.139 133.584 135.623 133.851 135.125C134.117 134.621 134.427 134.157 134.78 133.734C135.139 133.307 135.523 132.956 135.934 132.682C136.34 132.412 136.719 132.253 137.072 132.206C137.431 132.154 137.743 132.203 138.01 132.353C138.282 132.491 138.496 132.724 138.652 133.051C138.808 133.371 138.886 133.775 138.886 134.262C138.886 134.756 138.808 135.271 138.652 135.806C138.496 136.335 138.282 136.85 138.01 137.351C137.743 137.848 137.431 138.311 137.072 138.738C136.719 139.154 136.34 139.497 135.934 139.767C135.523 140.041 135.139 140.207 134.78 140.266C134.427 140.313 134.117 140.266 133.851 140.123C133.584 139.981 133.373 139.75 133.217 139.429C133.066 139.098 132.991 138.686 132.991 138.192ZM134.406 137.249C134.406 137.499 134.447 137.709 134.528 137.877C134.609 138.046 134.719 138.167 134.858 138.242C134.997 138.316 135.159 138.34 135.344 138.314C135.529 138.288 135.726 138.205 135.934 138.066C136.143 137.928 136.34 137.748 136.525 137.527C136.716 137.302 136.881 137.06 137.02 136.8C137.159 136.541 137.269 136.273 137.35 135.996C137.431 135.719 137.471 135.456 137.471 135.205C137.471 134.955 137.431 134.745 137.35 134.577C137.269 134.401 137.159 134.276 137.02 134.202C136.881 134.128 136.716 134.106 136.525 134.135C136.34 134.162 136.143 134.244 135.934 134.383C135.726 134.522 135.529 134.702 135.344 134.923C135.159 135.144 134.997 135.384 134.858 135.643C134.719 135.903 134.609 136.174 134.528 136.458C134.447 136.735 134.406 136.998 134.406 137.249Z" fill="black"/>
<path d="M293.863 118.38C293.863 117.024 293.843 115.664 293.802 114.302C293.762 112.932 293.672 111.585 293.533 110.261C293.394 108.937 293.194 107.653 292.934 106.408C292.679 105.167 292.335 103.991 291.901 102.881L293.342 102.736C293.817 103.963 294.21 105.28 294.523 106.685C294.841 108.086 295.084 109.609 295.252 111.251C295.322 111.951 295.377 112.663 295.417 113.385C295.463 114.112 295.498 114.831 295.521 115.542C295.55 116.25 295.568 116.939 295.573 117.611C295.585 118.287 295.591 118.927 295.591 119.532L293.863 118.38ZM303.514 117.072C302.97 116.709 302.438 116.264 301.917 115.736C301.401 115.204 300.95 114.594 300.562 113.904C300.632 114.291 300.689 114.726 300.736 115.209C300.788 115.696 300.828 116.207 300.857 116.741C300.892 117.272 300.918 117.818 300.935 118.379C300.953 118.94 300.964 119.49 300.97 120.03C300.982 120.573 300.988 121.095 300.988 121.596C300.988 122.097 300.988 122.553 300.988 122.963L299.26 121.811C299.26 120.455 299.24 119.095 299.199 117.733C299.159 116.363 299.069 115.016 298.93 113.692C298.791 112.368 298.591 111.084 298.331 109.839C298.076 108.598 297.732 107.422 297.298 106.312L298.739 106.177C298.941 106.709 299.132 107.253 299.312 107.811C299.491 108.369 299.648 108.915 299.781 109.449C299.908 109.117 300.082 108.85 300.302 108.649C300.527 108.451 300.785 108.324 301.074 108.266C301.364 108.202 301.676 108.209 302.012 108.286C302.354 108.368 302.707 108.52 303.071 108.742L303.219 108.84C303.572 109.076 303.948 109.396 304.348 109.802C304.747 110.207 305.155 110.715 305.572 111.327C305.832 111.703 306.046 112.037 306.214 112.329C306.382 112.622 306.524 112.873 306.64 113.083L305.398 113.695L305.311 113.533C305.248 113.421 305.164 113.278 305.06 113.104C304.961 112.934 304.84 112.742 304.695 112.527C304.556 112.316 304.403 112.106 304.235 111.897C304.067 111.687 303.893 111.492 303.714 111.309C303.581 111.179 303.436 111.062 303.28 110.957C303.222 110.919 303.121 110.858 302.976 110.776C302.837 110.697 302.652 110.643 302.42 110.614C302.194 110.589 301.998 110.621 301.83 110.711C301.668 110.804 301.543 110.955 301.456 111.161C301.393 111.32 301.361 111.515 301.361 111.744C301.361 111.821 301.364 111.899 301.37 111.98C301.427 112.338 301.523 112.67 301.656 112.974C301.789 113.272 301.948 113.545 302.134 113.793C302.325 114.039 302.539 114.262 302.776 114.462C302.956 114.616 303.144 114.759 303.34 114.89L303.514 115.006C303.728 115.142 303.948 115.271 304.174 115.394C304.4 115.509 304.62 115.607 304.834 115.687C305.048 115.768 305.253 115.825 305.45 115.858C305.647 115.892 305.829 115.892 305.997 115.858L306.761 118.058C306.263 118.164 305.743 118.123 305.198 117.934C304.654 117.745 304.093 117.458 303.514 117.072ZM308.826 131.486L307.81 129.964C308.418 129.346 308.736 128.505 308.765 127.439V125.477L310.528 126.652V128.353C310.528 129.139 310.366 129.817 310.042 130.387C309.723 130.968 309.318 131.334 308.826 131.486ZM319.961 120.252C319.961 120.266 319.969 120.341 319.987 120.478C320.004 120.608 320.022 120.779 320.039 120.993C320.056 121.199 320.071 121.431 320.082 121.69C320.088 121.867 320.091 122.047 320.091 122.228V122.499C320.068 124.09 319.752 125.111 319.145 125.562V125.551C318.554 126.013 317.753 125.907 316.74 125.232C316.462 125.046 316.21 124.858 315.984 124.665C315.764 124.47 315.544 124.247 315.324 123.996L315.394 124.616C315.463 125.316 315.518 126.028 315.559 126.75C315.605 127.47 315.64 128.185 315.663 128.896C315.692 129.604 315.709 130.298 315.715 130.976C315.727 131.652 315.732 132.292 315.732 132.898L314.005 131.746C314.005 130.64 313.996 129.535 313.979 128.431C313.961 127.32 313.915 126.225 313.84 125.145C313.764 124.059 313.652 122.996 313.501 121.956C313.356 120.913 313.154 119.909 312.893 118.942C312.772 118.485 312.642 118.04 312.503 117.607C312.364 117.173 312.207 116.718 312.034 116.24L313.484 116.101C313.576 116.344 313.66 116.584 313.736 116.822C313.817 117.057 313.895 117.3 313.97 117.552C314.051 117.801 314.132 118.064 314.213 118.34C314.294 118.617 314.384 118.917 314.482 119.24C314.615 119.697 314.746 120.118 314.873 120.502C315.006 120.883 315.157 121.237 315.324 121.565C315.498 121.896 315.695 122.194 315.915 122.459C316.141 122.721 316.415 122.96 316.74 123.176C317.22 123.496 317.582 123.56 317.825 123.367C317.935 123.288 318.025 123.17 318.094 123.015C318.163 122.852 318.218 122.67 318.259 122.467C318.305 122.268 318.337 122.053 318.355 121.821C318.372 121.589 318.381 121.359 318.381 121.129C318.381 120.83 318.366 120.532 318.337 120.234C318.314 119.94 318.288 119.693 318.259 119.493L319.961 120.252Z" fill="black"/>
<path d="M184.11 189.513C183.351 189.008 182.752 188.415 182.311 187.735C181.877 187.058 181.67 186.299 181.692 185.455L185.472 185.019C185.496 185.383 185.557 185.71 185.656 186C185.76 186.286 185.888 186.541 186.039 186.765C186.189 186.989 186.355 187.184 186.534 187.35C186.719 187.52 186.908 187.669 187.099 187.796C187.255 187.9 187.431 188.006 187.628 188.114C187.831 188.219 188.042 188.313 188.262 188.398C188.487 188.486 188.713 188.559 188.938 188.617C189.164 188.675 189.387 188.707 189.606 188.715C189.918 188.211 190.229 187.681 190.54 187.123C190.863 186.565 191.183 186.006 191.5 185.444C191.823 184.879 192.143 184.319 192.46 183.765C192.777 183.212 193.088 182.685 193.394 182.185L196.986 183.166L192.947 189.713C192.797 189.953 192.67 190.166 192.566 190.352C192.463 190.538 192.405 190.712 192.394 190.874C192.388 191.041 192.435 191.199 192.534 191.35C192.644 191.501 192.829 191.663 193.089 191.836L193.341 192.004L190.604 193.843L190.352 193.675C189.999 193.44 189.71 193.216 189.484 193.003C189.264 192.795 189.09 192.59 188.962 192.389C188.835 192.196 188.745 192.004 188.692 191.815C188.652 191.625 188.631 191.434 188.631 191.241C188.186 191.183 187.769 191.107 187.382 191.011C186.988 190.918 186.609 190.801 186.245 190.659C185.88 190.516 185.525 190.348 185.177 190.156C184.83 189.97 184.474 189.756 184.11 189.513ZM192.997 191.775L193.561 192.151C193.821 192.324 194.082 192.444 194.342 192.509C194.614 192.575 194.883 192.595 195.149 192.572C195.426 192.548 195.695 192.484 195.955 192.379C196.221 192.278 196.478 192.144 196.726 191.977C197.072 191.752 197.488 191.477 197.973 191.151C198.464 190.821 198.987 190.466 199.541 190.086C200.101 189.702 200.676 189.305 201.265 188.894C201.86 188.479 202.434 188.073 202.989 187.678C203.549 187.278 204.077 186.9 204.574 186.543C205.076 186.183 205.512 185.867 205.882 185.595L209.145 187.098L198.854 194.138C198.496 194.378 198.303 194.628 198.275 194.888C198.258 195.147 198.429 195.396 198.788 195.635L198.979 195.763L196.241 197.601L196.05 197.474C195.807 197.319 195.587 197.146 195.39 196.953C195.199 196.763 195.04 196.568 194.912 196.367C194.779 196.17 194.686 195.977 194.634 195.787C194.581 195.598 194.575 195.428 194.616 195.277C194.344 195.297 194.069 195.291 193.792 195.261C193.514 195.23 193.222 195.163 192.915 195.059C192.609 194.963 192.282 194.826 191.935 194.649C191.588 194.472 191.211 194.248 190.806 193.978L190.259 193.613L192.997 191.775ZM198.632 195.532L200.464 196.753C201.402 197.378 202.316 197.914 203.208 198.362C204.11 198.809 204.998 199.196 205.872 199.523C206.746 199.851 207.61 200.134 208.466 200.372C209.334 200.61 210.199 200.835 211.061 201.047C210.777 200.71 210.516 200.355 210.278 199.98C210.046 199.609 209.806 199.24 209.557 198.873C209.313 198.51 209.047 198.162 208.757 197.83C208.473 197.494 208.137 197.196 207.749 196.938C207.483 196.76 207.148 196.633 206.743 196.557C206.344 196.484 205.948 196.44 205.554 196.425C205.161 196.41 204.806 196.417 204.488 196.444C204.176 196.468 203.97 196.49 203.872 196.509L203.157 194.305C203.764 194.192 204.403 194.112 205.073 194.064C205.744 194.017 206.4 194.017 207.042 194.067C207.695 194.116 208.317 194.221 208.907 194.382C209.503 194.548 210.032 194.785 210.495 195.094C210.837 195.321 211.141 195.574 211.407 195.852C211.679 196.126 211.926 196.414 212.146 196.716C212.372 197.021 212.575 197.334 212.755 197.655C212.94 197.972 213.12 198.288 213.294 198.605C213.456 198.907 213.622 199.21 213.79 199.516C213.964 199.817 214.155 200.119 214.364 200.42C214.578 200.717 214.824 201.009 215.102 201.295C215.38 201.581 215.713 201.857 216.101 202.123L213.225 203.764L211.403 203.338C210.657 203.165 209.905 203 209.147 202.843C208.395 202.682 207.64 202.511 206.883 202.33C206.131 202.146 205.37 201.944 204.601 201.725C203.837 201.502 203.074 201.244 202.31 200.951C201.552 200.655 200.791 200.314 200.027 199.928C199.258 199.546 198.491 199.101 197.727 198.592L195.895 197.37L198.632 195.532ZM198.328 205.322L198.324 202.746L202.174 202.739L202.179 205.315L198.328 205.322Z" fill="black"/>
<path d="M217.377 85.1019C217.54 84.7983 217.54 84.4818 217.377 84.3948L214.73 82.9779C214.567 82.8909 214.304 83.0665 214.142 83.3701C213.979 83.6737 213.979 83.9903 214.142 84.0772L216.495 85.3367L214.142 89.7341C213.979 90.0376 213.979 90.3542 214.142 90.4412C214.304 90.5281 214.567 90.3525 214.73 90.0489L217.377 85.1019ZM163 121.5L217.083 85.4445V84.4445L163 120.5V121.5Z" fill="black"/>
<path d="M368.889 167.613C369.051 167.526 369.051 167.209 368.889 166.906L366.241 161.959C366.079 161.655 365.816 161.48 365.653 161.567C365.491 161.653 365.491 161.97 365.653 162.274L368.006 166.671L365.653 167.93C365.491 168.017 365.491 168.334 365.653 168.638C365.816 168.941 366.079 169.117 366.241 169.03L368.889 167.613ZM322 136.5L368.595 167.563V166.563L322 135.5V136.5Z" fill="black"/>
<path d="M238.706 81.4503C238.543 81.5373 238.543 81.8539 238.706 82.1574L241.353 87.1045C241.516 87.408 241.779 87.5836 241.942 87.4967C242.104 87.4097 242.104 87.0932 241.942 86.7896L239.588 82.3922L241.942 81.1327C242.104 81.0458 242.104 80.7292 241.942 80.4256C241.779 80.1221 241.516 79.9464 241.353 80.0334L238.706 81.4503ZM239 82.5L285.595 113.563V112.563L239 81.5V82.5Z" fill="black"/>
<path d="M42.7058 199.898C42.5434 200.202 42.5434 200.518 42.7058 200.605L45.3534 202.022C45.5159 202.109 45.7793 201.933 45.9417 201.63C46.1042 201.326 46.1042 201.01 45.9417 200.923L43.5883 199.663L45.9417 195.266C46.1042 194.962 46.1042 194.646 45.9417 194.559C45.7793 194.472 45.5159 194.648 45.3534 194.951L42.7058 199.898ZM43 200.556L97.0833 164.5V163.5L43 199.556V200.556Z" fill="black"/>
<path d="M165.619 349.01C165.828 348.964 166.041 348.936 166.259 348.927C166.319 348.922 166.38 348.92 166.44 348.92C166.593 348.92 166.76 348.932 166.941 348.955C167.126 348.978 167.321 349.022 167.525 349.087C167.734 349.152 167.933 349.235 168.123 349.337L167.49 351.007C167.249 350.9 166.999 350.828 166.739 350.791C166.628 350.777 166.519 350.77 166.412 350.77C166.259 350.77 166.106 350.784 165.953 350.812C165.795 350.826 165.626 350.872 165.445 350.951C165.264 351.03 165.083 351.132 164.903 351.257C164.726 351.378 164.555 351.519 164.388 351.682C164.225 351.839 164.082 352.009 163.956 352.19C163.831 352.366 163.729 352.549 163.65 352.739C163.576 352.925 163.539 353.106 163.539 353.282C163.539 353.481 163.585 353.639 163.678 353.755C163.776 353.866 163.903 353.959 164.061 354.033C164.223 354.103 164.409 354.161 164.617 354.207C164.826 354.249 165.044 354.3 165.271 354.36C165.549 354.425 165.83 354.499 166.113 354.583C166.396 354.666 166.651 354.782 166.878 354.93C167.105 355.074 167.286 355.264 167.421 355.501C167.537 355.71 167.595 355.967 167.595 356.273C167.595 356.315 167.592 356.359 167.588 356.405C167.56 356.892 167.449 357.321 167.254 357.692C167.059 358.068 166.806 358.392 166.496 358.666C166.185 358.94 165.83 359.167 165.431 359.348C165.032 359.533 164.615 359.682 164.179 359.793C163.743 359.904 163.303 359.983 162.857 360.03C162.412 360.076 161.988 360.099 161.584 360.099C160.768 360.099 160.021 359.99 159.344 359.772C158.672 359.554 158.104 359.23 157.64 358.798C157.176 358.372 156.84 357.838 156.631 357.198C156.492 356.781 156.423 356.319 156.423 355.814C156.423 355.545 156.441 355.267 156.478 354.979C156.515 354.673 156.566 354.362 156.631 354.047C156.696 353.732 156.766 353.428 156.84 353.136C156.914 352.839 156.991 352.558 157.069 352.294C157.148 352.03 157.22 351.798 157.285 351.598C157.35 351.399 157.406 351.237 157.452 351.111C157.498 350.986 157.526 350.914 157.536 350.896L159.066 351.515C158.955 351.863 158.853 352.19 158.76 352.496C158.667 352.797 158.584 353.094 158.509 353.386C158.435 353.678 158.368 353.973 158.308 354.27C158.252 354.562 158.203 354.872 158.162 355.202C158.143 355.355 158.134 355.503 158.134 355.647C158.134 355.976 158.196 356.303 158.322 356.628C158.452 356.957 158.672 357.247 158.983 357.497C159.298 357.752 159.678 357.943 160.123 358.068C160.569 358.193 161.056 358.256 161.584 358.256C162.201 358.256 162.774 358.207 163.303 358.11C163.836 358.017 164.297 357.892 164.687 357.734C165.081 357.576 165.394 357.398 165.626 357.198C165.863 357.003 165.995 356.802 166.023 356.593C166.018 356.551 165.974 356.512 165.89 356.475C165.807 356.438 165.703 356.401 165.577 356.363C165.452 356.331 165.313 356.296 165.16 356.259C165.012 356.227 164.868 356.192 164.729 356.155C164.339 356.057 163.977 355.946 163.643 355.821C163.309 355.7 163.02 355.54 162.774 355.341C162.528 355.141 162.336 354.889 162.196 354.583C162.057 354.277 161.988 353.892 161.988 353.428C162.011 352.918 162.118 352.421 162.308 351.939C162.498 351.457 162.753 351.019 163.073 350.624C163.398 350.226 163.776 349.885 164.207 349.602C164.638 349.319 165.109 349.122 165.619 349.01ZM169.58 352.475C169.756 352.586 169.967 352.7 170.213 352.816C170.464 352.932 170.721 353.036 170.985 353.129C171.254 353.221 171.516 353.298 171.771 353.358C172.031 353.419 172.258 353.449 172.453 353.449C172.532 353.449 172.629 353.446 172.745 353.442C172.861 353.437 172.984 353.428 173.114 353.414C173.244 353.395 173.374 353.37 173.504 353.337C173.634 353.3 173.749 353.252 173.851 353.191C173.958 353.126 174.044 353.048 174.109 352.955C174.174 352.857 174.209 352.739 174.213 352.6C174.213 352.591 174.213 352.584 174.213 352.579C174.213 352.394 174.16 352.185 174.053 351.953C173.951 351.717 173.81 351.471 173.629 351.216C173.448 350.956 173.239 350.696 173.003 350.437C172.766 350.177 172.52 349.929 172.265 349.692C172.01 349.451 171.753 349.231 171.493 349.031C171.238 348.827 170.999 348.656 170.777 348.517L171.813 346.979C172.24 347.271 172.66 347.601 173.072 347.967C173.49 348.333 173.872 348.725 174.22 349.143C174.573 349.555 174.876 349.987 175.131 350.437C175.391 350.886 175.577 351.341 175.688 351.8C175.748 352.064 175.778 352.317 175.778 352.558C175.778 352.79 175.734 353.068 175.646 353.393C175.563 353.718 175.37 354.038 175.069 354.353C174.767 354.664 174.385 354.903 173.921 355.07C173.522 355.213 173.084 355.285 172.606 355.285C172.527 355.285 172.446 355.283 172.363 355.278C172.057 355.278 171.746 355.248 171.431 355.188C171.115 355.132 170.805 355.053 170.498 354.951C170.197 354.849 169.905 354.733 169.622 354.603C169.344 354.469 169.084 354.328 168.843 354.179L169.58 352.475ZM176.68 358.339C177.361 358.205 177.976 358.024 178.523 357.797C179.075 357.574 179.553 357.323 179.956 357.045C180.36 356.767 180.687 356.47 180.937 356.155C181.192 355.839 181.361 355.524 181.445 355.209C181.069 355.209 180.703 355.197 180.346 355.174C179.989 355.151 179.65 355.104 179.33 355.035C179.015 354.97 178.722 354.877 178.454 354.757C178.189 354.631 177.96 354.469 177.765 354.27C177.575 354.066 177.426 353.82 177.32 353.532C177.213 353.245 177.16 352.901 177.16 352.503C177.16 352.248 177.187 351.981 177.243 351.703C177.299 351.424 177.378 351.153 177.48 350.889C177.586 350.62 177.716 350.367 177.869 350.13C178.022 349.889 178.198 349.678 178.398 349.497C178.597 349.312 178.818 349.166 179.059 349.059C179.3 348.952 179.56 348.899 179.838 348.899C180.557 348.899 181.213 349.219 181.807 349.859C182.001 350.077 182.178 350.321 182.335 350.59C182.493 350.859 182.63 351.146 182.746 351.452C182.862 351.758 182.954 352.078 183.024 352.412C183.098 352.741 183.145 353.08 183.163 353.428H183.629V355.209H183.017C182.859 355.895 182.593 356.512 182.217 357.059C181.841 357.611 181.389 358.091 180.86 358.499C180.336 358.907 179.752 359.243 179.107 359.508C178.463 359.772 177.793 359.962 177.097 360.078L176.68 358.339ZM179.838 350.687C179.717 350.687 179.587 350.738 179.448 350.84C179.309 350.942 179.182 351.074 179.066 351.237C178.95 351.394 178.852 351.57 178.774 351.765C178.699 351.96 178.662 352.15 178.662 352.336C178.662 352.53 178.706 352.693 178.794 352.823C178.887 352.952 179.003 353.057 179.142 353.136C179.286 353.214 179.446 353.275 179.622 353.317C179.803 353.354 179.982 353.379 180.158 353.393C180.255 353.402 180.362 353.409 180.478 353.414C180.594 353.414 180.712 353.416 180.833 353.421C180.958 353.426 181.081 353.428 181.201 353.428C181.322 353.428 181.436 353.428 181.542 353.428C181.528 353.256 181.494 353.071 181.438 352.871C181.387 352.667 181.32 352.463 181.236 352.259C181.153 352.055 181.058 351.86 180.951 351.675C180.844 351.485 180.728 351.318 180.603 351.174C180.482 351.026 180.357 350.907 180.227 350.819C180.098 350.731 179.968 350.687 179.838 350.687ZM186.83 352.489C186.984 352.554 187.181 352.635 187.422 352.732C187.663 352.83 187.923 352.927 188.201 353.024C188.479 353.122 188.76 353.21 189.043 353.289C189.33 353.363 189.592 353.409 189.829 353.428C189.782 353.233 189.734 353.031 189.683 352.823C189.636 352.609 189.583 352.403 189.523 352.203C189.462 352.004 189.395 351.816 189.321 351.64C189.247 351.459 189.159 351.301 189.057 351.167C188.959 351.032 188.846 350.926 188.716 350.847C188.586 350.768 188.44 350.729 188.277 350.729C188.092 350.729 187.925 350.789 187.777 350.91C187.633 351.03 187.501 351.181 187.38 351.362C187.264 351.538 187.16 351.728 187.067 351.932C186.979 352.136 186.9 352.322 186.83 352.489ZM189.474 355.188C189.233 355.183 188.95 355.148 188.625 355.083C188.301 355.023 187.969 354.942 187.63 354.84C187.297 354.738 186.974 354.622 186.664 354.492C186.357 354.362 186.098 354.226 185.884 354.082C185.704 354.263 185.527 354.423 185.356 354.562C185.184 354.701 185.006 354.819 184.82 354.917C184.635 355.009 184.433 355.081 184.215 355.132C184.001 355.183 183.758 355.209 183.484 355.209H183.345V353.428H183.484C183.823 353.428 184.106 353.365 184.333 353.24C184.56 353.11 184.755 352.943 184.917 352.739C185.08 352.535 185.221 352.306 185.342 352.05C185.467 351.795 185.595 351.54 185.724 351.285C185.854 351.016 186.003 350.747 186.17 350.478C186.337 350.209 186.524 349.968 186.733 349.755C186.946 349.537 187.185 349.361 187.45 349.226C187.714 349.092 188.011 349.024 188.34 349.024C188.771 349.024 189.133 349.101 189.425 349.254C189.722 349.402 189.968 349.609 190.163 349.873C190.362 350.133 190.52 350.439 190.636 350.791C190.752 351.144 190.849 351.524 190.928 351.932C190.974 352.169 191.018 352.38 191.06 352.565C191.102 352.746 191.148 352.901 191.199 353.031C191.255 353.161 191.313 353.261 191.373 353.33C191.438 353.395 191.515 353.428 191.603 353.428H191.818V355.209H191.554C191.299 355.204 191.072 355.134 190.872 355C190.677 354.861 190.497 354.678 190.33 354.45C190.279 354.497 190.218 354.559 190.149 354.638C190.084 354.717 190.012 354.796 189.933 354.875C189.859 354.949 189.782 355.016 189.704 355.077C189.625 355.137 189.548 355.174 189.474 355.188ZM197.766 351.125C197.599 350.93 197.404 350.754 197.181 350.597C196.996 350.462 196.78 350.341 196.534 350.235C196.289 350.123 196.02 350.068 195.728 350.068C195.491 350.068 195.282 350.105 195.101 350.179C194.921 350.249 194.768 350.346 194.642 350.471C194.517 350.592 194.42 350.733 194.35 350.896C194.281 351.058 194.239 351.232 194.225 351.417C194.22 351.45 194.218 351.482 194.218 351.515C194.218 351.733 194.276 351.946 194.392 352.155C194.508 352.359 194.67 352.542 194.879 352.704C195.088 352.862 195.329 352.983 195.602 353.066C195.825 353.136 196.05 353.17 196.277 353.17C196.328 353.17 196.379 353.168 196.43 353.163C196.699 353.145 196.968 353.117 197.237 353.08C197.511 353.038 197.759 352.999 197.981 352.962L198.726 352.816L198.941 354.548C198.654 354.622 198.332 354.699 197.974 354.777C197.617 354.856 197.207 354.928 196.743 354.993C196.284 355.053 195.762 355.104 195.178 355.146C194.594 355.188 193.93 355.209 193.188 355.209H191.533V353.428H191.839L193.168 353.421C192.917 353.129 192.745 352.83 192.653 352.523C192.565 352.213 192.521 351.872 192.521 351.501C192.521 351.065 192.602 350.652 192.764 350.263C192.926 349.873 193.149 349.532 193.432 349.24C193.719 348.948 194.058 348.716 194.448 348.544C194.842 348.373 195.268 348.287 195.728 348.287C195.955 348.287 196.173 348.308 196.381 348.35C196.595 348.391 196.797 348.447 196.987 348.517C197.177 348.586 197.355 348.665 197.522 348.753C197.694 348.841 197.849 348.929 197.988 349.017C198.151 349.124 198.308 349.238 198.461 349.358C198.614 349.479 198.758 349.606 198.893 349.741L197.766 351.125ZM210.211 359.744C209.414 359.744 208.676 359.645 207.999 359.445C207.322 359.25 206.745 358.954 206.267 358.555C205.789 358.161 205.43 357.664 205.189 357.066C204.994 356.598 204.897 356.067 204.897 355.473C204.897 355.315 204.904 355.153 204.918 354.986C204.945 354.666 204.982 354.339 205.029 354.005C205.08 353.671 205.147 353.321 205.231 352.955C205.319 352.584 205.43 352.192 205.564 351.779C205.699 351.366 205.866 350.921 206.065 350.443L207.498 351.104C207.308 351.577 207.151 352.016 207.025 352.419C206.9 352.818 206.8 353.189 206.726 353.532C206.657 353.875 206.608 354.198 206.58 354.499C206.552 354.801 206.538 355.09 206.538 355.369C206.538 355.703 206.58 356.002 206.664 356.266C206.752 356.53 206.863 356.767 206.997 356.976C207.178 357.221 207.406 357.409 207.679 357.539C207.953 357.674 208.24 357.771 208.542 357.831C208.848 357.892 209.147 357.926 209.439 357.936C209.736 357.95 209.993 357.957 210.211 357.957C210.341 357.957 210.529 357.947 210.775 357.929C211.025 357.91 211.297 357.878 211.589 357.831C211.886 357.785 212.189 357.725 212.5 357.65C212.811 357.576 213.091 357.483 213.342 357.372C213.597 357.261 213.803 357.131 213.961 356.983C214.123 356.834 214.204 356.66 214.204 356.461C214.204 356.428 214.163 356.377 214.079 356.308C214 356.243 213.889 356.169 213.745 356.085C213.606 356.002 213.442 355.914 213.251 355.821C213.061 355.733 212.857 355.647 212.639 355.563C212.319 355.457 212.002 355.378 211.686 355.327C211.371 355.276 211.058 355.223 210.747 355.167L210.984 353.428H216.507V355.209H215.206C215.392 355.436 215.515 355.659 215.575 355.877C215.64 356.099 215.675 356.294 215.679 356.461C215.661 356.869 215.556 357.233 215.366 357.553C215.176 357.878 214.93 358.161 214.629 358.402C214.332 358.648 213.993 358.854 213.613 359.021C213.233 359.192 212.843 359.332 212.444 359.438C212.046 359.545 211.651 359.621 211.262 359.668C210.877 359.719 210.527 359.744 210.211 359.744ZM216.514 353.428C216.769 353.428 216.996 353.372 217.196 353.261C217.4 353.15 217.578 353.001 217.732 352.816C217.889 352.63 218.026 352.419 218.142 352.183C218.263 351.946 218.367 351.703 218.455 351.452C218.543 351.202 218.62 350.956 218.685 350.715C218.749 350.469 218.807 350.249 218.858 350.054L220.598 350.437C220.556 350.566 220.5 350.733 220.431 350.937C220.361 351.137 220.294 351.35 220.229 351.577C220.169 351.8 220.118 352.025 220.076 352.252C220.043 352.424 220.027 352.584 220.027 352.732C220.027 352.779 220.032 352.86 220.041 352.976C220.05 353.092 220.097 353.208 220.18 353.323C220.268 353.435 220.41 353.49 220.605 353.49C220.813 353.49 221.001 353.432 221.168 353.317C221.335 353.196 221.483 353.041 221.613 352.85C221.748 352.656 221.864 352.435 221.961 352.19C222.063 351.944 222.149 351.693 222.218 351.438C222.293 351.179 222.353 350.926 222.399 350.68C222.45 350.434 222.49 350.214 222.518 350.019L224.145 350.332C224.132 350.443 224.111 350.576 224.083 350.729C224.06 350.882 224.034 351.049 224.006 351.23C223.978 351.406 223.951 351.591 223.923 351.786C223.9 351.981 223.881 352.176 223.867 352.37C223.867 352.408 223.867 352.445 223.867 352.482C223.867 352.593 223.879 352.709 223.902 352.83C223.925 352.946 223.974 353.057 224.048 353.163C224.122 353.266 224.22 353.349 224.34 353.414C224.461 353.474 224.609 353.507 224.785 353.511C225.115 353.511 225.384 353.428 225.592 353.261C225.801 353.094 225.905 352.839 225.905 352.496C225.905 352.245 225.871 351.974 225.801 351.682C225.736 351.39 225.655 351.104 225.558 350.826C225.465 350.548 225.365 350.286 225.258 350.04C225.152 349.794 225.059 349.59 224.98 349.428L226.476 348.593C226.504 348.644 226.548 348.737 226.608 348.871C226.673 349.006 226.745 349.173 226.824 349.372C226.907 349.567 226.991 349.787 227.074 350.033C227.158 350.279 227.234 350.539 227.304 350.812C227.378 351.081 227.436 351.357 227.478 351.64C227.524 351.923 227.547 352.201 227.547 352.475C227.547 352.906 227.48 353.296 227.345 353.643C227.216 353.991 227.021 354.288 226.761 354.534C226.506 354.78 226.191 354.968 225.815 355.097C225.453 355.227 225.038 355.292 224.57 355.292C224.556 355.292 224.54 355.292 224.521 355.292C224.503 355.292 224.486 355.292 224.472 355.292C224.254 355.292 224.055 355.262 223.874 355.202C223.693 355.146 223.526 355.067 223.373 354.965C223.225 354.859 223.09 354.738 222.97 354.603C222.854 354.469 222.749 354.332 222.657 354.193C222.55 354.346 222.434 354.49 222.309 354.624C222.184 354.754 222.038 354.868 221.871 354.965C221.708 355.063 221.523 355.139 221.314 355.195C221.11 355.255 220.874 355.288 220.605 355.292C220.591 355.292 220.574 355.292 220.556 355.292C220.347 355.292 220.152 355.264 219.972 355.209C219.795 355.153 219.631 355.077 219.478 354.979C219.329 354.877 219.192 354.759 219.067 354.624C218.947 354.49 218.835 354.348 218.733 354.2C218.645 354.33 218.538 354.455 218.413 354.576C218.293 354.696 218.142 354.805 217.961 354.903C217.785 354.995 217.576 355.07 217.335 355.125C217.094 355.181 216.811 355.209 216.486 355.209H216.236V353.428H216.514ZM231.774 350.583C231.867 350.875 231.962 351.181 232.059 351.501C232.161 351.816 232.252 352.136 232.331 352.461C232.414 352.786 232.481 353.11 232.532 353.435C232.583 353.755 232.609 354.068 232.609 354.374C232.609 354.791 232.544 355.197 232.414 355.591C232.289 355.99 232.113 356.373 231.885 356.739C231.663 357.11 231.396 357.463 231.085 357.797C230.779 358.13 230.445 358.446 230.084 358.743C229.722 359.039 229.339 359.315 228.936 359.57C228.532 359.826 228.124 360.055 227.711 360.259L226.918 358.666C227.248 358.504 227.572 358.323 227.892 358.123C228.212 357.929 228.516 357.72 228.804 357.497C229.096 357.275 229.365 357.041 229.611 356.795C229.861 356.549 230.074 356.294 230.251 356.03C230.431 355.765 230.573 355.494 230.675 355.216C230.777 354.937 230.828 354.657 230.828 354.374C230.828 354.11 230.798 353.831 230.738 353.539C230.677 353.247 230.603 352.959 230.515 352.677C230.431 352.389 230.343 352.113 230.251 351.849C230.162 351.584 230.088 351.35 230.028 351.146L231.774 350.583ZM237.527 355.209H237.249C236.307 355.209 235.593 354.972 235.106 354.499C234.619 354.026 234.373 353.312 234.369 352.357C234.369 352.208 234.373 351.965 234.383 351.626C234.392 351.283 234.396 350.866 234.396 350.374C234.396 350.082 234.394 349.769 234.389 349.435C234.385 349.096 234.378 348.753 234.369 348.405C234.359 348.053 234.345 347.703 234.327 347.355C234.313 347.002 234.294 346.664 234.271 346.339C234.248 346.01 234.22 345.704 234.188 345.421C234.155 345.133 234.118 344.881 234.076 344.663L235.823 344.141C235.874 344.41 235.92 344.739 235.962 345.129C236.003 345.514 236.04 345.926 236.073 346.367C236.105 346.808 236.129 347.257 236.143 347.717C236.161 348.171 236.17 348.6 236.17 349.003C236.17 349.249 236.173 349.511 236.177 349.79C236.182 350.063 236.184 350.304 236.184 350.513C236.184 350.689 236.182 350.856 236.177 351.014C236.177 351.167 236.175 351.315 236.17 351.459C236.17 351.603 236.168 351.744 236.163 351.883C236.163 352.023 236.163 352.164 236.163 352.308C236.163 352.345 236.163 352.382 236.163 352.419C236.163 352.586 236.18 352.734 236.212 352.864C236.249 352.994 236.312 353.103 236.4 353.191C236.488 353.275 236.599 353.335 236.734 353.372C236.873 353.409 237.033 353.428 237.214 353.428H237.527V355.209ZM237.418 353.428C237.905 353.428 238.374 353.414 238.824 353.386C239.274 353.354 239.684 353.31 240.055 353.254C240.426 353.198 240.746 353.131 241.015 353.052C241.284 352.973 241.486 352.885 241.62 352.788H240.911C240.503 352.788 240.113 352.737 239.742 352.635C239.376 352.528 239.053 352.37 238.775 352.162C238.497 351.953 238.274 351.693 238.107 351.383C237.945 351.067 237.864 350.701 237.864 350.283C237.864 350.038 237.889 349.785 237.94 349.525C237.991 349.266 238.068 349.013 238.17 348.767C238.272 348.521 238.395 348.289 238.538 348.071C238.682 347.853 238.847 347.663 239.032 347.501C239.218 347.334 239.422 347.204 239.645 347.111C239.867 347.014 240.108 346.965 240.368 346.965C240.688 346.965 240.987 347.032 241.265 347.167C241.544 347.301 241.796 347.485 242.024 347.717C242.251 347.944 242.453 348.208 242.629 348.51C242.805 348.811 242.954 349.129 243.074 349.463C243.195 349.797 243.285 350.137 243.345 350.485C243.41 350.828 243.443 351.155 243.443 351.466C243.443 351.995 243.369 352.454 243.22 352.843C243.076 353.233 242.872 353.567 242.608 353.845C242.348 354.123 242.035 354.351 241.669 354.527C241.307 354.703 240.906 354.842 240.465 354.944C240.025 355.046 239.552 355.116 239.046 355.153C238.545 355.19 238.026 355.209 237.488 355.209H237.251V353.428H237.418ZM240.368 348.76C240.345 348.755 240.322 348.753 240.298 348.753C240.206 348.753 240.099 348.79 239.978 348.864C239.858 348.939 239.742 349.045 239.631 349.184C239.519 349.323 239.429 349.481 239.359 349.657C239.29 349.829 239.255 349.998 239.255 350.165C239.255 350.174 239.255 350.184 239.255 350.193C239.255 350.36 239.292 350.497 239.366 350.603C239.44 350.706 239.54 350.784 239.665 350.84C239.795 350.896 239.944 350.935 240.111 350.958C240.282 350.981 240.463 350.998 240.653 351.007C240.778 351.012 240.908 351.014 241.043 351.014C241.108 351.014 241.207 351.014 241.342 351.014C241.481 351.009 241.623 351.002 241.766 350.993C241.725 350.826 241.664 350.62 241.585 350.374C241.511 350.123 241.416 349.882 241.3 349.65C241.189 349.414 241.054 349.21 240.897 349.038C240.744 348.867 240.567 348.774 240.368 348.76ZM241.648 344.704L240.312 346.04L238.984 344.704L240.312 343.376L241.648 344.704Z" fill="black"/>
</svg>
