<svg width="400" height="400" viewBox="0 0 400 400" fill="none" xmlns="http://www.w3.org/2000/svg">
<rect width="400" height="400" fill="white"/>
<path d="M150.86 53.7443C150.062 53.7443 149.325 53.6446 148.648 53.4452C147.971 53.2504 147.393 52.9536 146.916 52.5548C146.438 52.1606 146.078 51.6643 145.837 51.0661C145.642 50.5977 145.545 50.0667 145.545 49.473C145.545 49.3154 145.552 49.153 145.566 48.9861C145.594 48.6661 145.631 48.3391 145.677 48.0052C145.728 47.6713 145.796 47.3212 145.879 46.9548C145.967 46.5838 146.078 46.1919 146.213 45.7791C146.347 45.3664 146.514 44.9212 146.714 44.4435L148.147 45.1043C147.957 45.5774 147.799 46.0157 147.674 46.4191C147.549 46.818 147.449 47.189 147.375 47.5322C147.305 47.8754 147.256 48.1977 147.229 48.4991C147.201 48.8006 147.187 49.0904 147.187 49.3687C147.187 49.7026 147.229 50.0017 147.312 50.2661C147.4 50.5304 147.511 50.767 147.646 50.9757C147.827 51.2214 148.054 51.4093 148.328 51.5391C148.601 51.6736 148.889 51.771 149.19 51.8313C149.496 51.8916 149.796 51.9264 150.088 51.9357C150.384 51.9496 150.642 51.9565 150.86 51.9565C150.99 51.9565 151.178 51.9472 151.423 51.9287C151.674 51.9101 151.945 51.8777 152.237 51.8313C152.534 51.7849 152.838 51.7246 153.149 51.6504C153.459 51.5762 153.74 51.4835 153.99 51.3722C154.245 51.2609 154.452 51.131 154.609 50.9826C154.772 50.8342 154.853 50.6603 154.853 50.4609C154.853 50.4284 154.811 50.3774 154.728 50.3078C154.649 50.2429 154.538 50.1687 154.394 50.0852C154.255 50.0017 154.09 49.9136 153.9 49.8209C153.71 49.7328 153.506 49.647 153.288 49.5635C152.968 49.4568 152.65 49.378 152.335 49.327C152.019 49.2759 151.706 49.2226 151.396 49.167L151.632 47.4278H157.156V49.2087H155.855C156.04 49.4359 156.163 49.6586 156.223 49.8765C156.288 50.0991 156.323 50.2939 156.328 50.4609C156.309 50.869 156.205 51.233 156.015 51.553C155.824 51.8777 155.579 52.1606 155.277 52.4017C154.98 52.6475 154.642 52.8539 154.262 53.0209C153.881 53.1925 153.492 53.3316 153.093 53.4383C152.694 53.5449 152.3 53.6214 151.91 53.6678C151.525 53.7188 151.175 53.7443 150.86 53.7443ZM157.121 47.4278C157.371 47.4278 157.582 47.407 157.754 47.3652C157.925 47.3235 158.067 47.2725 158.178 47.2122C158.29 47.1472 158.378 47.08 158.443 47.0104C158.512 46.9409 158.57 46.8759 158.616 46.8157C158.774 46.5838 158.899 46.3519 158.992 46.12C159.09 45.8835 159.171 45.6516 159.236 45.4243C159.301 45.1925 159.356 44.9652 159.403 44.7426C159.449 44.52 159.5 44.2997 159.556 44.0817L161.058 44.5617C161.007 44.7797 160.961 44.9838 160.919 45.1739C160.882 45.3594 160.859 45.5426 160.85 45.7235C160.85 45.7652 160.85 45.8046 160.85 45.8417C160.85 45.9809 160.863 46.1316 160.891 46.2939C160.919 46.4516 160.982 46.6255 161.079 46.8157C161.158 46.658 161.255 46.4794 161.371 46.28C161.492 46.0759 161.629 45.8649 161.782 45.647C161.939 45.4243 162.113 45.1971 162.303 44.9652C162.498 44.7333 162.707 44.5084 162.93 44.2904C163.194 44.0493 163.472 43.8313 163.764 43.6365C164.056 43.4371 164.358 43.2655 164.669 43.1217C164.984 42.978 165.306 42.8667 165.636 42.7878C165.97 42.709 166.308 42.6696 166.651 42.6696C167.083 42.6696 167.498 42.7507 167.896 42.913C168.295 43.0754 168.643 43.298 168.94 43.5809C169.241 43.8591 169.476 44.1838 169.643 44.5548C169.777 44.8609 169.844 45.1832 169.844 45.5217C169.844 45.5959 169.842 45.6725 169.837 45.7513C169.796 46.2475 169.673 46.6835 169.469 47.0591C169.269 47.4301 169.014 47.7501 168.703 48.0191C168.397 48.2835 168.045 48.5014 167.646 48.673C167.252 48.8446 166.839 48.9791 166.408 49.0765C165.976 49.1786 165.538 49.2481 165.093 49.2852C164.648 49.327 164.221 49.3478 163.813 49.3478C163.354 49.3478 162.941 49.3316 162.575 49.2991C162.208 49.2713 161.87 49.2133 161.559 49.1252C161.248 49.0417 160.954 48.9212 160.676 48.7635C160.402 48.6058 160.124 48.3994 159.841 48.1443C159.521 48.5061 159.145 48.7751 158.714 48.9513C158.287 49.1229 157.761 49.2087 157.135 49.2087H156.884V47.4278H157.121ZM164.126 45.5009C163.936 45.6539 163.755 45.8162 163.583 45.9878C163.412 46.1594 163.254 46.331 163.11 46.5026C162.967 46.6742 162.839 46.8412 162.728 47.0035C162.616 47.1612 162.526 47.3026 162.456 47.4278C162.767 47.4417 163.117 47.4533 163.507 47.4626C163.674 47.4672 163.843 47.4696 164.015 47.4696C164.242 47.4696 164.516 47.4626 164.836 47.4487C165.156 47.4348 165.513 47.3954 165.907 47.3304C166.306 47.2655 166.67 47.1658 166.999 47.0313C167.333 46.8922 167.618 46.709 167.855 46.4817C168.091 46.2545 168.251 45.9693 168.335 45.6261C168.312 45.3896 168.228 45.1901 168.084 45.0278C167.945 44.8655 167.771 44.7403 167.563 44.6522C167.359 44.5594 167.136 44.5014 166.895 44.4783C166.802 44.469 166.709 44.4643 166.616 44.4643C166.468 44.4643 166.324 44.4759 166.185 44.4991C166.009 44.527 165.828 44.5757 165.643 44.6452C165.462 44.7101 165.281 44.789 165.1 44.8817C164.919 44.9699 164.745 45.0672 164.578 45.1739C164.416 45.2806 164.265 45.3896 164.126 45.5009ZM168.189 40.2557L166.853 41.5913L165.524 40.2557L166.853 38.927L168.189 40.2557ZM174.816 49.2087H174.538C173.596 49.2087 172.882 48.9722 172.395 48.4991C171.908 48.0261 171.662 47.3119 171.658 46.3565C171.658 46.2081 171.662 45.9646 171.672 45.6261C171.681 45.2829 171.686 44.8655 171.686 44.3739C171.686 44.0817 171.683 43.7687 171.679 43.4348C171.674 43.0962 171.667 42.753 171.658 42.4052C171.648 42.0528 171.634 41.7026 171.616 41.3548C171.602 41.0023 171.583 40.6638 171.56 40.3391C171.537 40.0099 171.509 39.7038 171.477 39.4209C171.444 39.1333 171.407 38.8806 171.366 38.6626L173.112 38.1409C173.163 38.4099 173.209 38.7391 173.251 39.1287C173.292 39.5136 173.33 39.9264 173.362 40.367C173.394 40.8075 173.418 41.2574 173.432 41.7165C173.45 42.171 173.459 42.6 173.459 43.0035C173.459 43.2493 173.462 43.5113 173.466 43.7896C173.471 44.0632 173.473 44.3043 173.473 44.513C173.473 44.6893 173.471 44.8562 173.466 45.0139C173.466 45.167 173.464 45.3154 173.459 45.4591C173.459 45.6029 173.457 45.7443 173.452 45.8835C173.452 46.0226 173.452 46.1641 173.452 46.3078C173.452 46.3449 173.452 46.382 173.452 46.4191C173.452 46.5861 173.469 46.7345 173.501 46.8643C173.538 46.9942 173.601 47.1032 173.689 47.1913C173.777 47.2748 173.888 47.3351 174.023 47.3722C174.162 47.4093 174.322 47.4278 174.503 47.4278H174.816V49.2087ZM180.746 47.4278V49.2087H180.607C180.157 49.2087 179.776 49.1368 179.466 48.993C179.155 48.8493 178.891 48.6638 178.673 48.4365C178.52 48.6313 178.292 48.782 177.991 48.8887C177.694 48.9907 177.363 49.0649 176.996 49.1113C176.63 49.1623 176.252 49.1901 175.862 49.1948C175.477 49.2041 175.123 49.2087 174.798 49.2087H174.541V47.4278H174.798C175.341 47.4278 175.797 47.3977 176.168 47.3374C176.539 47.2725 176.839 47.1797 177.066 47.0591C177.298 46.9386 177.465 46.7878 177.567 46.607C177.669 46.4214 177.72 46.2081 177.72 45.967C177.72 45.8093 177.69 45.6006 177.629 45.3409C177.569 45.0765 177.479 44.738 177.358 44.3252L179.069 43.8452C179.13 44.0493 179.176 44.2301 179.208 44.3878C179.245 44.5409 179.273 44.6962 179.292 44.8539C179.315 45.007 179.334 45.1739 179.348 45.3548C179.366 45.531 179.385 45.742 179.403 45.9878C179.417 46.1362 179.452 46.2962 179.508 46.4678C179.563 46.6348 179.64 46.7901 179.737 46.9339C179.839 47.073 179.962 47.1913 180.106 47.2887C180.25 47.3814 180.416 47.4278 180.607 47.4278H180.746ZM177.128 51.2678L175.946 52.4504L174.749 51.2609L175.932 50.0713L177.128 51.2678ZM179.758 51.2748L178.575 52.4643L177.379 51.2678L178.561 50.0852L179.758 51.2748ZM180.462 47.4278H181.582C181.8 47.4278 182.023 47.4162 182.25 47.393C182.482 47.3652 182.691 47.3119 182.876 47.233C183.062 47.1496 183.213 47.0313 183.329 46.8783C183.449 46.7252 183.509 46.5212 183.509 46.2661C183.509 46.1455 183.484 45.9762 183.433 45.7583C183.382 45.5403 183.315 45.2991 183.231 45.0348C183.148 44.7704 183.048 44.4968 182.932 44.2139C182.821 43.931 182.702 43.6667 182.577 43.4209L184.184 42.6278C184.3 42.8922 184.416 43.1728 184.532 43.4696C184.648 43.7664 184.75 44.0725 184.838 44.3878C184.931 44.6986 185.005 45.0116 185.061 45.327C185.116 45.6423 185.144 45.9507 185.144 46.2522C185.144 46.7716 185.056 47.2191 184.88 47.5948C184.704 47.9658 184.458 48.2719 184.142 48.513C183.827 48.7496 183.449 48.9235 183.009 49.0348C182.573 49.1507 182.093 49.2087 181.569 49.2087H180.462V47.4278ZM184.045 51.4696L182.709 52.8052L181.381 51.4696L182.709 50.1409L184.045 51.4696ZM196.188 53.7443C195.39 53.7443 194.653 53.6446 193.976 53.4452C193.299 53.2504 192.721 52.9536 192.244 52.5548C191.766 52.1606 191.407 51.6643 191.165 51.0661C190.971 50.5977 190.873 50.0667 190.873 49.473C190.873 49.3154 190.88 49.153 190.894 48.9861C190.922 48.6661 190.959 48.3391 191.005 48.0052C191.056 47.6713 191.124 47.3212 191.207 46.9548C191.295 46.5838 191.407 46.1919 191.541 45.7791C191.676 45.3664 191.842 44.9212 192.042 44.4435L193.475 45.1043C193.285 45.5774 193.127 46.0157 193.002 46.4191C192.877 46.818 192.777 47.189 192.703 47.5322C192.633 47.8754 192.584 48.1977 192.557 48.4991C192.529 48.8006 192.515 49.0904 192.515 49.3687C192.515 49.7026 192.557 50.0017 192.64 50.2661C192.728 50.5304 192.84 50.767 192.974 50.9757C193.155 51.2214 193.382 51.4093 193.656 51.5391C193.929 51.6736 194.217 51.771 194.518 51.8313C194.824 51.8916 195.124 51.9264 195.416 51.9357C195.713 51.9496 195.97 51.9565 196.188 51.9565C196.318 51.9565 196.506 51.9472 196.751 51.9287C197.002 51.9101 197.273 51.8777 197.565 51.8313C197.862 51.7849 198.166 51.7246 198.477 51.6504C198.787 51.5762 199.068 51.4835 199.318 51.3722C199.573 51.2609 199.78 51.131 199.938 50.9826C200.1 50.8342 200.181 50.6603 200.181 50.4609C200.181 50.4284 200.139 50.3774 200.056 50.3078C199.977 50.2429 199.866 50.1687 199.722 50.0852C199.583 50.0017 199.418 49.9136 199.228 49.8209C199.038 49.7328 198.834 49.647 198.616 49.5635C198.296 49.4568 197.978 49.378 197.663 49.327C197.347 49.2759 197.034 49.2226 196.724 49.167L196.96 47.4278H202.484V49.2087H201.183C201.368 49.4359 201.491 49.6586 201.551 49.8765C201.616 50.0991 201.651 50.2939 201.656 50.4609C201.637 50.869 201.533 51.233 201.343 51.553C201.153 51.8777 200.907 52.1606 200.605 52.4017C200.309 52.6475 199.97 52.8539 199.59 53.0209C199.209 53.1925 198.82 53.3316 198.421 53.4383C198.022 53.5449 197.628 53.6214 197.238 53.6678C196.853 53.7188 196.503 53.7443 196.188 53.7443ZM202.212 47.4278H202.72C202.887 47.4278 203.043 47.4139 203.186 47.3861C203.33 47.3583 203.458 47.3003 203.569 47.2122C203.68 47.1194 203.771 46.9919 203.84 46.8296C203.91 46.6672 203.954 46.4493 203.972 46.1757C203.972 46.069 203.975 45.8835 203.979 45.6191C203.989 45.3501 203.996 45.0325 204 44.6661C204.005 44.2951 204.01 43.8893 204.014 43.4487C204.019 43.0081 204.021 42.5583 204.021 42.0991C204.021 41.742 204.019 41.3919 204.014 41.0487C204.014 40.7009 204.01 40.367 204 40.047C203.996 39.727 203.984 39.4255 203.965 39.1426C203.952 38.8597 203.931 38.6023 203.903 38.3704L205.677 38.1409C205.709 38.3913 205.735 38.6742 205.753 38.9896C205.772 39.3049 205.786 39.6412 205.795 39.9983C205.809 40.3507 205.816 40.7217 205.816 41.1113C205.821 41.4962 205.823 41.8858 205.823 42.28C205.823 43.1565 205.814 43.9194 205.795 44.5687C205.781 45.218 205.774 45.793 205.774 46.2939C205.774 46.6464 205.865 46.9246 206.045 47.1287C206.226 47.3281 206.495 47.4278 206.852 47.4278H207.005V49.2087H206.852C206.825 49.2087 206.799 49.2087 206.776 49.2087C206.595 49.2087 206.416 49.1925 206.24 49.16C206.069 49.1322 205.902 49.0881 205.739 49.0278C205.582 48.9722 205.436 48.9049 205.301 48.8261C205.167 48.7472 205.048 48.6661 204.946 48.5826C204.812 48.7125 204.663 48.8191 204.501 48.9026C204.343 48.9814 204.181 49.0441 204.014 49.0904C203.847 49.1368 203.683 49.167 203.52 49.1809C203.358 49.1994 203.212 49.2087 203.082 49.2087H202.212V47.4278ZM206.728 47.4278H208.238C208.813 47.4278 209.397 47.3745 209.991 47.2678C210.589 47.1565 211.183 47.0128 211.772 46.8365C212.361 46.6557 212.936 46.4493 213.497 46.2174C214.058 45.9855 214.589 45.7467 215.09 45.5009C214.691 45.4128 214.32 45.2968 213.977 45.153C213.634 45.0046 213.309 44.8609 213.003 44.7217C212.697 44.5826 212.402 44.462 212.119 44.36C211.836 44.258 211.556 44.207 211.278 44.207C211.115 44.207 210.962 44.2371 210.818 44.2974C210.679 44.353 210.55 44.4249 210.429 44.513C210.308 44.6012 210.199 44.6986 210.102 44.8052C210.009 44.9119 209.926 45.0162 209.852 45.1183C209.782 45.2157 209.724 45.3038 209.678 45.3826C209.631 45.4614 209.599 45.5171 209.58 45.5496L208.133 44.6104C208.291 44.3322 208.479 44.0632 208.697 43.8035C208.915 43.5391 209.156 43.3049 209.42 43.1009C209.689 42.8922 209.979 42.7275 210.29 42.607C210.601 42.4817 210.93 42.4191 211.278 42.4191C211.635 42.4191 211.99 42.4678 212.342 42.5652C212.694 42.658 213.042 42.7786 213.385 42.927C213.733 43.0707 214.081 43.2261 214.429 43.393C214.777 43.56 215.127 43.7177 215.479 43.8661C215.836 44.0099 216.196 44.1328 216.558 44.2348C216.919 44.3322 217.29 44.3832 217.671 44.3878L217.525 46.1826C216.875 46.4933 216.198 46.8226 215.493 47.1704C214.788 47.5183 214.051 47.8406 213.281 48.1374C212.511 48.4296 211.707 48.6777 210.867 48.8817C210.032 49.0812 209.156 49.1901 208.238 49.2087H206.728V47.4278ZM221.782 44.5826C221.875 44.8748 221.97 45.1809 222.067 45.5009C222.169 45.8162 222.26 46.1362 222.338 46.4609C222.422 46.7855 222.489 47.1101 222.54 47.4348C222.591 47.7548 222.617 48.0678 222.617 48.3739C222.617 48.7913 222.552 49.1971 222.422 49.5913C222.297 49.9901 222.12 50.3728 221.893 50.7391C221.671 51.1101 221.404 51.4626 221.093 51.7965C220.787 52.1304 220.453 52.4458 220.091 52.7426C219.73 53.0394 219.347 53.3154 218.944 53.5704C218.54 53.8255 218.132 54.0551 217.719 54.2591L216.926 52.6661C217.256 52.5038 217.58 52.3229 217.9 52.1235C218.22 51.9287 218.524 51.72 218.811 51.4974C219.104 51.2748 219.373 51.0406 219.618 50.7948C219.869 50.549 220.082 50.2939 220.258 50.0296C220.439 49.7652 220.581 49.4939 220.683 49.2157C220.785 48.9374 220.836 48.6568 220.836 48.3739C220.836 48.1096 220.806 47.8313 220.745 47.5391C220.685 47.247 220.611 46.9594 220.523 46.6765C220.439 46.389 220.351 46.113 220.258 45.8487C220.17 45.5843 220.096 45.3501 220.036 45.1461L221.782 44.5826ZM232.587 52.8748C232.856 52.9212 233.127 52.9443 233.401 52.9443C233.471 52.9443 233.607 52.9397 233.811 52.9304C234.016 52.9212 234.278 52.8794 234.598 52.8052C234.918 52.731 235.224 52.6313 235.516 52.5061C235.813 52.3809 236.084 52.2371 236.33 52.0748L237.269 53.633C237 53.7954 236.722 53.9438 236.434 54.0783C236.151 54.2174 235.857 54.3357 235.551 54.433C235.249 54.5304 234.936 54.6046 234.611 54.6557C234.329 54.702 234.039 54.7252 233.742 54.7252C233.696 54.7252 233.647 54.7252 233.596 54.7252C233.16 54.7159 232.724 54.6696 232.288 54.5861C231.857 54.5026 231.444 54.382 231.05 54.2243C230.66 54.0667 230.296 53.8696 229.958 53.633C229.624 53.4012 229.331 53.1299 229.081 52.8191C228.835 52.513 228.64 52.1675 228.497 51.7826C228.353 51.4023 228.279 50.9803 228.274 50.5165C228.288 50.0203 228.381 49.5565 228.552 49.1252C228.724 48.6986 228.951 48.309 229.234 47.9565C229.522 47.5994 229.851 47.2817 230.222 47.0035C230.598 46.7252 230.994 46.4864 231.411 46.287C231.263 46.1478 231.11 46.011 230.952 45.8765C230.799 45.7374 230.651 45.6075 230.507 45.487C230.363 45.3617 230.229 45.2481 230.104 45.1461C229.978 45.0394 229.874 44.949 229.791 44.8748L229.658 43.3861C230.266 42.8574 230.92 42.4609 231.62 42.1965C232.325 41.9275 233.06 41.793 233.825 41.793C234.053 41.793 234.287 41.8093 234.528 41.8417C234.774 41.8742 235.013 41.9252 235.245 41.9948C235.476 42.0643 235.694 42.1548 235.898 42.2661C236.102 42.3774 236.281 42.5142 236.434 42.6765C236.587 42.8342 236.708 43.0174 236.796 43.2261C236.875 43.4301 236.914 43.6574 236.914 43.9078C236.914 43.9217 236.914 43.9357 236.914 43.9496C236.896 44.302 236.826 44.6174 236.705 44.8957C236.589 45.1739 236.436 45.4243 236.246 45.647C236.056 45.8696 235.836 46.069 235.585 46.2452C235.34 46.4214 235.078 46.5838 234.799 46.7322C235.175 46.9409 235.574 47.1101 235.996 47.24C236.422 47.3652 236.838 47.4278 237.241 47.4278H237.478V49.2087H237.241C236.856 49.2087 236.483 49.1693 236.121 49.0904C235.759 49.0116 235.402 48.9003 235.05 48.7565C234.697 48.6081 234.347 48.4342 233.999 48.2348C233.651 48.0307 233.301 47.8058 232.949 47.56C232.61 47.6945 232.267 47.8522 231.919 48.033C231.571 48.2093 231.254 48.418 230.966 48.6591C230.683 48.8957 230.451 49.1646 230.271 49.4661C230.09 49.7675 229.999 50.1084 229.999 50.4887C229.999 50.702 230.041 50.9061 230.125 51.1009C230.213 51.2957 230.326 51.4765 230.465 51.6435C230.605 51.8151 230.765 51.9704 230.945 52.1096C231.126 52.2533 231.312 52.3762 231.502 52.4783C231.697 52.5849 231.887 52.6707 232.072 52.7357C232.262 52.8052 232.434 52.8516 232.587 52.8748ZM233.832 43.4904C233.647 43.4904 233.452 43.5043 233.248 43.5322C233.044 43.5554 232.842 43.5901 232.643 43.6365C232.443 43.6783 232.251 43.7316 232.065 43.7965C231.885 43.8568 231.725 43.9241 231.585 43.9983C231.683 44.1003 231.792 44.2186 231.912 44.353C232.033 44.4829 232.16 44.6197 232.295 44.7635C232.434 44.9072 232.576 45.051 232.719 45.1948C232.863 45.3339 233.005 45.4638 233.144 45.5843C233.45 45.4545 233.735 45.3223 233.999 45.1878C234.264 45.0533 234.493 44.9165 234.688 44.7774C234.887 44.6336 235.045 44.4852 235.161 44.3322C235.277 44.1791 235.337 44.0214 235.342 43.8591C235.337 43.8406 235.307 43.8128 235.251 43.7757C235.196 43.7386 235.105 43.7014 234.98 43.6643C234.86 43.6226 234.704 43.5855 234.514 43.553C234.329 43.5206 234.101 43.4997 233.832 43.4904ZM237.197 47.4278H238.254L238.303 47.3374C238.382 47.1983 238.493 47.0151 238.637 46.7878C238.785 46.5559 238.971 46.2939 239.193 46.0017C239.235 45.7096 239.27 45.3409 239.298 44.8957C239.326 44.4504 239.342 43.9681 239.346 43.4487C239.346 43.1658 239.342 42.8759 239.332 42.5791C239.323 42.2777 239.305 41.9322 239.277 41.5426C239.249 41.153 239.21 40.6986 239.159 40.1791C239.112 39.6551 239.052 39.0313 238.978 38.3078L240.807 37.8348C240.928 38.7252 241.018 39.6388 241.079 40.5757C241.143 41.5125 241.176 42.44 241.176 43.3583V43.9217C241.426 43.7084 241.686 43.5043 241.955 43.3096C242.229 43.1148 242.512 42.9432 242.804 42.7948C243.101 42.6464 243.409 42.5281 243.729 42.44C244.049 42.3519 244.383 42.3078 244.731 42.3078C245.083 42.3078 245.417 42.3635 245.732 42.4748C246.048 42.5861 246.326 42.7484 246.567 42.9617C246.813 43.1704 247.015 43.4255 247.172 43.727C247.33 44.0284 247.428 44.367 247.465 44.7426C247.469 44.8122 247.472 44.8794 247.472 44.9443C247.472 45.4267 247.39 45.8765 247.228 46.2939C247.07 46.7113 246.836 47.0893 246.526 47.4278H248.487V49.2087H246.637C246.27 49.2087 245.862 49.1925 245.412 49.16C244.963 49.1275 244.464 49.0417 243.917 48.9026C243.523 49.0093 243.121 49.0858 242.713 49.1322C242.31 49.1832 241.904 49.2087 241.496 49.2087H237.197V47.4278ZM240.849 47.4278C241.132 47.4278 241.457 47.4209 241.823 47.407C242.194 47.393 242.574 47.3606 242.964 47.3096C243.353 47.2586 243.731 47.182 244.098 47.08C244.469 46.978 244.798 46.8412 245.086 46.6696C245.373 46.498 245.6 46.2823 245.767 46.0226C245.911 45.8 245.983 45.5357 245.983 45.2296C245.983 45.1878 245.981 45.1438 245.976 45.0974C245.967 44.9583 245.92 44.8284 245.837 44.7078C245.758 44.5872 245.647 44.4852 245.503 44.4017C245.364 44.3136 245.197 44.2441 245.002 44.193C244.835 44.1559 244.654 44.1374 244.459 44.1374C244.422 44.1374 244.383 44.1374 244.341 44.1374C244.109 44.1467 243.833 44.207 243.513 44.3183C243.193 44.4249 242.85 44.6058 242.484 44.8609C242.117 45.1159 241.737 45.4522 241.343 45.8696C240.949 46.287 240.564 46.8064 240.188 47.4278H240.849ZM248.379 47.4278C248.866 47.4278 249.335 47.4139 249.785 47.3861C250.234 47.3536 250.645 47.3096 251.016 47.2539C251.387 47.1983 251.707 47.131 251.976 47.0522C252.245 46.9733 252.447 46.8852 252.581 46.7878H251.872C251.463 46.7878 251.074 46.7368 250.703 46.6348C250.336 46.5281 250.014 46.3704 249.736 46.1617C249.458 45.953 249.235 45.6933 249.068 45.3826C248.906 45.0672 248.825 44.7009 248.825 44.2835C248.825 44.0377 248.85 43.7849 248.901 43.5252C248.952 43.2655 249.029 43.0128 249.131 42.767C249.233 42.5212 249.356 42.2893 249.499 42.0713C249.643 41.8533 249.808 41.6632 249.993 41.5009C250.179 41.3339 250.383 41.2041 250.605 41.1113C250.828 41.0139 251.069 40.9652 251.329 40.9652C251.649 40.9652 251.948 41.0325 252.226 41.167C252.505 41.3014 252.757 41.4846 252.985 41.7165C253.212 41.9438 253.414 42.2081 253.59 42.5096C253.766 42.811 253.914 43.1287 254.035 43.4626C254.156 43.7965 254.246 44.1374 254.306 44.4852C254.371 44.8284 254.404 45.1554 254.404 45.4661C254.404 45.9948 254.33 46.4539 254.181 46.8435C254.037 47.233 253.833 47.567 253.569 47.8452C253.309 48.1235 252.996 48.3507 252.63 48.527C252.268 48.7032 251.867 48.8423 251.426 48.9443C250.986 49.0464 250.513 49.1159 250.007 49.153C249.506 49.1901 248.987 49.2087 248.449 49.2087H248.212V47.4278H248.379ZM251.329 42.76C251.306 42.7554 251.283 42.753 251.259 42.753C251.167 42.753 251.06 42.7901 250.939 42.8643C250.819 42.9386 250.703 43.0452 250.592 43.1843C250.48 43.3235 250.39 43.4812 250.32 43.6574C250.251 43.829 250.216 43.9983 250.216 44.1652C250.216 44.1745 250.216 44.1838 250.216 44.193C250.216 44.36 250.253 44.4968 250.327 44.6035C250.401 44.7055 250.501 44.7843 250.626 44.84C250.756 44.8957 250.905 44.9351 251.072 44.9583C251.243 44.9814 251.424 44.9977 251.614 45.007C251.739 45.0116 251.869 45.0139 252.004 45.0139C252.069 45.0139 252.168 45.0139 252.303 45.0139C252.442 45.0093 252.583 45.0023 252.727 44.993C252.685 44.8261 252.625 44.6197 252.546 44.3739C252.472 44.1235 252.377 43.8823 252.261 43.6504C252.15 43.4139 252.015 43.2099 251.858 43.0383C251.705 42.8667 251.528 42.7739 251.329 42.76ZM251.162 38.8713L249.979 40.0539L248.783 38.8643L249.965 37.6748L251.162 38.8713ZM253.792 38.8783L252.609 40.0678L251.412 38.8713L252.595 37.6887L253.792 38.8783Z" fill="black"/>
<path d="M364.162 219.172L176.072 103.544L44.0781 191.54L231.943 317.718L364.162 229.572L364.162 219.172Z" fill="#E7E7E7" stroke="black"/>
<path d="M43.8371 180.697L43.8346 191.376L231.417 317.364L232.151 306.869L44.1934 180.519L43.8371 180.697Z" fill="#A3A3A3" stroke="black"/>
<rect x="-0.000955552" y="0.556128" width="158.615" height="226.305" transform="matrix(-0.83205 0.5547 0.830139 0.557556 175.591 92.2466)" fill="#E7E7E7" stroke="black"/>
<path d="M231.943 306.718L240.15 301.247L52.2852 175.069L44.078 180.54L231.943 306.718Z" fill="#A3A3A3" stroke="black"/>
<path d="M274.697 129.209C274.697 129.223 274.706 129.298 274.723 129.435C274.74 129.565 274.758 129.736 274.775 129.95C274.792 130.156 274.807 130.388 274.818 130.646C274.824 130.824 274.827 131.004 274.827 131.184V131.456C274.804 133.047 274.488 134.068 273.881 134.519V134.508C273.29 134.97 272.489 134.864 271.476 134.188C271.198 134.003 270.946 133.815 270.72 133.622C270.5 133.427 270.28 133.204 270.061 132.953L270.13 133.573C270.199 134.273 270.254 134.985 270.295 135.707C270.341 136.427 270.376 137.142 270.399 137.853C270.428 138.561 270.445 139.255 270.451 139.933C270.463 140.609 270.469 141.249 270.469 141.854L268.741 140.703C268.741 139.596 268.732 138.492 268.715 137.388C268.697 136.277 268.651 135.182 268.576 134.102C268.501 133.015 268.388 131.952 268.237 130.913C268.093 129.87 267.89 128.866 267.629 127.899C267.508 127.442 267.378 126.997 267.239 126.564C267.1 126.13 266.944 125.675 266.77 125.197L268.22 125.058C268.312 125.301 268.396 125.541 268.472 125.779C268.553 126.014 268.631 126.257 268.706 126.509C268.787 126.758 268.868 127.021 268.949 127.297C269.03 127.574 269.12 127.874 269.218 128.197C269.351 128.654 269.482 129.075 269.609 129.459C269.742 129.84 269.893 130.194 270.061 130.522C270.234 130.853 270.431 131.151 270.651 131.416C270.877 131.678 271.152 131.917 271.476 132.133C271.956 132.453 272.318 132.517 272.561 132.324C272.671 132.244 272.761 132.127 272.83 131.971C272.9 131.809 272.955 131.627 272.995 131.424C273.041 131.225 273.073 131.01 273.091 130.778C273.108 130.546 273.117 130.315 273.117 130.086C273.117 129.787 273.102 129.488 273.073 129.191C273.05 128.897 273.024 128.65 272.995 128.45L274.697 129.209ZM278.461 135.245C278.455 135.311 278.452 135.379 278.452 135.448C278.452 136.325 278.99 137.188 280.067 138.038C280.2 138.14 280.336 138.238 280.475 138.331C280.817 138.558 281.178 138.751 281.56 138.908C281.549 138.476 281.523 138.066 281.482 137.677C281.448 137.285 281.401 136.913 281.343 136.562C281.303 136.333 281.245 136.082 281.17 135.809C281.1 135.533 281.011 135.265 280.901 135.004C280.791 134.736 280.66 134.489 280.51 134.263C280.365 134.042 280.2 133.869 280.015 133.746C279.766 133.58 279.549 133.525 279.364 133.583C279.179 133.64 279.022 133.759 278.895 133.938C278.768 134.118 278.666 134.328 278.591 134.57C278.522 134.816 278.478 135.041 278.461 135.245ZM282.151 146.523C281.954 145.494 281.806 144.523 281.708 143.608C281.615 142.691 281.566 141.82 281.56 140.995C281.213 140.833 280.869 140.638 280.527 140.411C280.475 140.376 280.333 140.278 280.102 140.117C279.876 139.959 279.584 139.705 279.225 139.355C278.872 139.001 278.548 138.618 278.252 138.205C277.957 137.786 277.708 137.349 277.506 136.894C277.309 136.436 277.167 135.962 277.08 135.473C277.028 135.181 277.002 134.888 277.002 134.596C277.002 134.395 277.014 134.194 277.037 133.993C277.077 133.652 277.144 133.331 277.237 133.031C277.335 132.728 277.457 132.457 277.601 132.22C277.752 131.986 277.928 131.795 278.131 131.644C278.333 131.494 278.562 131.403 278.817 131.371C279.228 131.325 279.668 131.458 280.136 131.771C280.241 131.84 280.345 131.917 280.449 132C281.045 132.495 281.546 133.131 281.951 133.909C282.507 134.969 282.869 136.319 283.036 137.962C283.1 138.581 283.135 139.269 283.141 140.024V140.535C283.141 141.036 283.146 141.527 283.158 142.008C283.175 142.493 283.201 142.972 283.236 143.448C283.277 143.92 283.326 144.374 283.384 144.809C283.442 145.244 283.508 145.699 283.583 146.173C283.884 148.071 284.165 149.295 284.426 149.844L283.375 150.772C282.929 149.897 282.521 148.481 282.151 146.523Z" fill="black"/>
<path d="M106.165 111.476C106.165 111.49 106.174 111.554 106.191 111.668C106.208 111.774 106.226 111.923 106.243 112.113C106.26 112.296 106.275 112.509 106.286 112.752C106.292 112.922 106.295 113.097 106.295 113.278V113.549C106.272 115.172 105.957 116.613 105.349 117.874V117.864C104.758 119.113 103.957 120.075 102.944 120.751C102.666 120.936 102.414 121.083 102.188 121.192C101.968 121.29 101.748 121.36 101.529 121.402L101.598 121.93C101.667 122.537 101.722 123.175 101.763 123.844C101.809 124.502 101.844 125.171 101.867 125.851C101.896 126.52 101.913 127.191 101.919 127.862C101.931 128.522 101.937 129.154 101.937 129.759L100.209 130.911C100.209 129.805 100.2 128.712 100.183 127.631C100.165 126.544 100.119 125.51 100.044 124.531C99.9686 123.545 99.8558 122.632 99.7053 121.793C99.5606 120.944 99.358 120.209 99.0975 119.59C98.976 119.295 98.8457 119.024 98.7068 118.775C98.5679 118.527 98.4116 118.28 98.238 118.034L99.6879 115.961C99.7805 116.08 99.8644 116.209 99.9397 116.346C100.021 116.473 100.099 116.612 100.174 116.764C100.255 116.905 100.336 117.059 100.417 117.228C100.498 117.397 100.588 117.577 100.686 117.769C100.819 118.049 100.95 118.296 101.077 118.51C101.21 118.713 101.361 118.867 101.529 118.971C101.702 119.071 101.899 119.106 102.119 119.078C102.345 119.039 102.62 118.911 102.944 118.695C103.424 118.375 103.786 117.956 104.029 117.439C104.139 117.213 104.229 116.976 104.298 116.728C104.368 116.473 104.423 116.217 104.463 115.96C104.509 115.7 104.541 115.442 104.559 115.187C104.576 114.932 104.585 114.69 104.585 114.46C104.585 114.161 104.57 113.882 104.541 113.623C104.518 113.36 104.492 113.148 104.463 112.986L106.165 111.476ZM108.991 119.192C108.991 118.705 109.066 118.199 109.217 117.675C109.373 117.139 109.584 116.623 109.851 116.125C110.117 115.621 110.427 115.157 110.78 114.734C111.139 114.307 111.523 113.956 111.934 113.682C112.34 113.412 112.719 113.253 113.072 113.206C113.431 113.154 113.743 113.203 114.01 113.353C114.282 113.491 114.496 113.724 114.652 114.051C114.808 114.371 114.886 114.775 114.886 115.262C114.886 115.756 114.808 116.271 114.652 116.806C114.496 117.335 114.282 117.85 114.01 118.351C113.743 118.848 113.431 119.311 113.072 119.738C112.719 120.154 112.34 120.497 111.934 120.767C111.523 121.041 111.139 121.207 110.78 121.266C110.427 121.313 110.117 121.266 109.851 121.123C109.584 120.981 109.373 120.75 109.217 120.429C109.066 120.098 108.991 119.686 108.991 119.192ZM110.406 118.249C110.406 118.499 110.447 118.709 110.528 118.877C110.609 119.046 110.719 119.167 110.858 119.242C110.997 119.316 111.159 119.34 111.344 119.314C111.529 119.288 111.726 119.205 111.934 119.066C112.143 118.928 112.34 118.748 112.525 118.527C112.716 118.302 112.881 118.06 113.02 117.8C113.159 117.541 113.269 117.273 113.35 116.996C113.431 116.719 113.471 116.456 113.471 116.205C113.471 115.955 113.431 115.745 113.35 115.577C113.269 115.401 113.159 115.276 113.02 115.202C112.881 115.128 112.716 115.106 112.525 115.135C112.34 115.162 112.143 115.244 111.934 115.383C111.726 115.522 111.529 115.702 111.344 115.923C111.159 116.144 110.997 116.384 110.858 116.643C110.719 116.903 110.609 117.174 110.528 117.458C110.447 117.735 110.406 117.998 110.406 118.249Z" fill="black"/>
<path d="M183.815 201.747C185.23 202.844 185.867 204.027 185.726 205.296C185.579 206.561 184.675 207.747 183.014 208.854C181.191 210.07 179.149 210.616 176.889 210.492C174.622 210.364 172.424 209.585 170.293 208.154L169.427 207.572C168.064 206.656 167.103 205.69 166.544 204.671C165.985 203.653 165.874 202.66 166.211 201.694C166.553 200.723 167.315 199.844 168.496 199.057C170.134 197.965 171.893 197.38 173.772 197.302C175.651 197.224 177.46 197.664 179.198 198.623L176.273 200.573C175.285 200.003 174.366 199.727 173.516 199.745C172.666 199.763 171.793 200.071 170.896 200.669C169.923 201.317 169.543 202.038 169.756 202.831C169.963 203.621 170.794 204.512 172.249 205.505L173.314 206.221C174.845 207.248 176.196 207.847 177.37 208.015C178.543 208.176 179.631 207.922 180.632 207.254C181.535 206.653 182.001 206.067 182.031 205.499C182.067 204.926 181.686 204.326 180.89 203.698L183.815 201.747ZM184.467 200.455C183.422 199.753 182.692 198.995 182.277 198.182C181.862 197.361 181.811 196.549 182.125 195.744C182.433 194.936 183.087 194.199 184.089 193.531C185.513 192.582 187.109 192.101 188.878 192.088C190.647 192.068 192.332 192.526 193.932 193.461L194.668 193.932C196.279 195.014 197.122 196.184 197.195 197.442C197.268 198.699 196.543 199.835 195.021 200.85C193.498 201.865 191.798 202.349 189.919 202.304C188.046 202.254 186.272 201.667 184.597 200.542L184.467 200.455ZM187.497 198.713C188.496 199.384 189.449 199.773 190.357 199.879C191.258 199.981 192.059 199.798 192.76 199.332C193.443 198.876 193.715 198.347 193.578 197.743C193.44 197.131 192.796 196.44 191.647 195.668C190.671 195.012 189.721 194.634 188.796 194.531C187.871 194.421 187.061 194.598 186.367 195.061C185.678 195.52 185.414 196.056 185.575 196.667C185.73 197.275 186.371 197.957 187.497 198.713ZM202.074 191.302L196.942 185.229L199.886 183.266L206.851 192.708L204.168 194.497L190.083 189.801L193.027 187.839L202.074 191.302ZM216.689 186.404C215.144 187.435 213.414 187.958 211.5 187.974C209.581 187.986 207.833 187.463 206.256 186.404L205.979 186.218C204.922 185.508 204.181 184.739 203.754 183.91C203.334 183.078 203.274 182.259 203.576 181.455C203.873 180.647 204.501 179.923 205.462 179.282C206.903 178.321 208.494 177.871 210.234 177.932C211.974 177.986 213.676 178.571 215.339 179.688L216.491 180.462L209.771 184.942C210.551 185.342 211.377 185.529 212.25 185.503C213.123 185.478 213.91 185.231 214.611 184.764C215.699 184.039 216.154 183.21 215.976 182.277L218.907 182.387C219.085 183.072 218.98 183.768 218.592 184.475C218.203 185.175 217.569 185.818 216.689 186.404ZM207.731 180.818C207.17 181.192 206.903 181.621 206.931 182.105C206.96 182.589 207.277 183.1 207.883 183.639L211.807 181.022L211.582 180.871C210.947 180.46 210.294 180.25 209.623 180.241C208.958 180.228 208.328 180.421 207.731 180.818ZM220.459 173.075C220.025 173.295 219.664 173.501 219.374 173.694C218.303 174.408 217.964 175.117 218.356 175.822L225.242 180.447L222.429 182.323L211.905 175.254L214.561 173.483L215.895 174.274C215.493 173.244 215.792 172.396 216.793 171.728C217.106 171.52 217.441 171.354 217.8 171.231L220.459 173.075Z" fill="black"/>
<path d="M190.706 85.1575C190.543 84.8539 190.543 84.5373 190.706 84.4504L193.353 83.0334C193.516 82.9465 193.779 83.1221 193.941 83.4257C194.104 83.7292 194.104 84.0458 193.941 84.1328L191.588 85.3923L193.941 89.7896C194.104 90.0932 194.104 90.4098 193.941 90.4967C193.779 90.5837 193.516 90.4081 193.353 90.1045L190.706 85.1575ZM245.083 121.556L191 85.5V84.5L245.083 120.556V121.556Z" fill="black"/>
<path d="M38.7057 168.613C38.5433 168.526 38.5433 168.209 38.7057 167.906L41.3533 162.959C41.5158 162.655 41.7792 162.48 41.9416 162.567C42.1041 162.653 42.1041 162.97 41.9416 163.274L39.5883 167.671L41.9416 168.93C42.1041 169.017 42.1041 169.334 41.9416 169.638C41.7792 169.941 41.5158 170.117 41.3533 170.03L38.7057 168.613ZM85.5947 137.5L38.9999 168.563V167.563L85.5947 136.5V137.5Z" fill="black"/>
<path d="M171.889 80.4503C172.051 80.5373 172.051 80.8539 171.889 81.1574L169.241 86.1045C169.079 86.408 168.815 86.5836 168.653 86.4967C168.491 86.4097 168.491 86.0932 168.653 85.7896L171.006 81.3922L168.653 80.1327C168.491 80.0458 168.491 79.7292 168.653 79.4256C168.815 79.1221 169.079 78.9464 169.241 79.0334L171.889 80.4503ZM171.595 81.5L125 112.563V111.563L171.595 80.5V81.5Z" fill="black"/>
<path d="M365.377 199.954C365.54 200.257 365.54 200.574 365.377 200.661L362.73 202.078C362.567 202.165 362.304 201.989 362.141 201.685C361.979 201.382 361.979 201.065 362.141 200.978L364.495 199.719L362.141 195.321C361.979 195.018 361.979 194.701 362.141 194.614C362.304 194.527 362.567 194.703 362.73 195.007L365.377 199.954ZM365.083 200.611L311 164.556V163.556L365.083 199.611V200.611Z" fill="black"/>
<path d="M158.736 349.01C158.945 348.964 159.158 348.936 159.376 348.927C159.437 348.922 159.497 348.92 159.557 348.92C159.71 348.92 159.877 348.932 160.058 348.955C160.243 348.978 160.438 349.022 160.642 349.087C160.851 349.152 161.05 349.235 161.241 349.337L160.608 351.007C160.366 350.9 160.116 350.828 159.856 350.791C159.745 350.777 159.636 350.77 159.529 350.77C159.376 350.77 159.223 350.784 159.07 350.812C158.912 350.826 158.743 350.872 158.562 350.951C158.381 351.03 158.201 351.132 158.02 351.257C157.843 351.378 157.672 351.519 157.505 351.682C157.343 351.839 157.199 352.009 157.074 352.19C156.948 352.366 156.846 352.549 156.768 352.739C156.693 352.925 156.656 353.106 156.656 353.282C156.656 353.481 156.703 353.639 156.795 353.755C156.893 353.866 157.02 353.959 157.178 354.033C157.34 354.103 157.526 354.161 157.734 354.207C157.943 354.249 158.161 354.3 158.388 354.36C158.667 354.425 158.947 354.499 159.23 354.583C159.513 354.666 159.768 354.782 159.995 354.93C160.223 355.074 160.403 355.264 160.538 355.501C160.654 355.71 160.712 355.967 160.712 356.273C160.712 356.315 160.71 356.359 160.705 356.405C160.677 356.892 160.566 357.321 160.371 357.692C160.176 358.068 159.923 358.392 159.613 358.666C159.302 358.94 158.947 359.167 158.548 359.348C158.15 359.533 157.732 359.682 157.296 359.793C156.86 359.904 156.42 359.983 155.974 360.03C155.529 360.076 155.105 360.099 154.701 360.099C153.885 360.099 153.139 359.99 152.461 359.772C151.789 359.554 151.221 359.23 150.757 358.798C150.293 358.372 149.957 357.838 149.748 357.198C149.609 356.781 149.54 356.319 149.54 355.814C149.54 355.545 149.558 355.267 149.595 354.979C149.632 354.673 149.683 354.362 149.748 354.047C149.813 353.732 149.883 353.428 149.957 353.136C150.031 352.839 150.108 352.558 150.187 352.294C150.266 352.03 150.337 351.798 150.402 351.598C150.467 351.399 150.523 351.237 150.569 351.111C150.616 350.986 150.643 350.914 150.653 350.896L152.183 351.515C152.072 351.863 151.97 352.19 151.877 352.496C151.784 352.797 151.701 353.094 151.627 353.386C151.552 353.678 151.485 353.973 151.425 354.27C151.369 354.562 151.321 354.872 151.279 355.202C151.26 355.355 151.251 355.503 151.251 355.647C151.251 355.976 151.314 356.303 151.439 356.628C151.569 356.957 151.789 357.247 152.1 357.497C152.415 357.752 152.795 357.943 153.241 358.068C153.686 358.193 154.173 358.256 154.701 358.256C155.318 358.256 155.891 358.207 156.42 358.11C156.953 358.017 157.414 357.892 157.804 357.734C158.198 357.576 158.511 357.398 158.743 357.198C158.98 357.003 159.112 356.802 159.14 356.593C159.135 356.551 159.091 356.512 159.008 356.475C158.924 356.438 158.82 356.401 158.694 356.363C158.569 356.331 158.43 356.296 158.277 356.259C158.129 356.227 157.985 356.192 157.846 356.155C157.456 356.057 157.094 355.946 156.761 355.821C156.427 355.7 156.137 355.54 155.891 355.341C155.645 355.141 155.453 354.889 155.314 354.583C155.174 354.277 155.105 353.892 155.105 353.428C155.128 352.918 155.235 352.421 155.425 351.939C155.615 351.457 155.87 351.019 156.19 350.624C156.515 350.226 156.893 349.885 157.324 349.602C157.755 349.319 158.226 349.122 158.736 349.01ZM162.697 352.475C162.874 352.586 163.085 352.7 163.33 352.816C163.581 352.932 163.838 353.036 164.103 353.129C164.372 353.221 164.634 353.298 164.889 353.358C165.148 353.419 165.376 353.449 165.57 353.449C165.649 353.449 165.747 353.446 165.863 353.442C165.979 353.437 166.101 353.428 166.231 353.414C166.361 353.395 166.491 353.37 166.621 353.337C166.751 353.3 166.867 353.252 166.969 353.191C167.075 353.126 167.161 353.048 167.226 352.955C167.291 352.857 167.326 352.739 167.33 352.6C167.33 352.591 167.33 352.584 167.33 352.579C167.33 352.394 167.277 352.185 167.17 351.953C167.068 351.717 166.927 351.471 166.746 351.216C166.565 350.956 166.357 350.696 166.12 350.437C165.883 350.177 165.638 349.929 165.383 349.692C165.128 349.451 164.87 349.231 164.61 349.031C164.355 348.827 164.117 348.656 163.894 348.517L164.93 346.979C165.357 347.271 165.777 347.601 166.19 347.967C166.607 348.333 166.99 348.725 167.337 349.143C167.69 349.555 167.994 349.987 168.249 350.437C168.508 350.886 168.694 351.341 168.805 351.8C168.865 352.064 168.896 352.317 168.896 352.558C168.896 352.79 168.852 353.068 168.763 353.393C168.68 353.718 168.488 354.038 168.186 354.353C167.885 354.664 167.502 354.903 167.038 355.07C166.639 355.213 166.201 355.285 165.723 355.285C165.645 355.285 165.563 355.283 165.48 355.278C165.174 355.278 164.863 355.248 164.548 355.188C164.232 355.132 163.922 355.053 163.616 354.951C163.314 354.849 163.022 354.733 162.739 354.603C162.461 354.469 162.201 354.328 161.96 354.179L162.697 352.475ZM169.797 358.339C170.479 358.205 171.093 358.024 171.64 357.797C172.192 357.574 172.67 357.323 173.073 357.045C173.477 356.767 173.804 356.47 174.054 356.155C174.309 355.839 174.479 355.524 174.562 355.209C174.186 355.209 173.82 355.197 173.463 355.174C173.106 355.151 172.767 355.104 172.447 355.035C172.132 354.97 171.84 354.877 171.571 354.757C171.306 354.631 171.077 354.469 170.882 354.27C170.692 354.066 170.543 353.82 170.437 353.532C170.33 353.245 170.277 352.901 170.277 352.503C170.277 352.248 170.305 351.981 170.36 351.703C170.416 351.424 170.495 351.153 170.597 350.889C170.703 350.62 170.833 350.367 170.986 350.13C171.139 349.889 171.316 349.678 171.515 349.497C171.714 349.312 171.935 349.166 172.176 349.059C172.417 348.952 172.677 348.899 172.955 348.899C173.674 348.899 174.33 349.219 174.924 349.859C175.119 350.077 175.295 350.321 175.452 350.59C175.61 350.859 175.747 351.146 175.863 351.452C175.979 351.758 176.072 352.078 176.141 352.412C176.215 352.741 176.262 353.08 176.28 353.428H176.746V355.209H176.134C175.976 355.895 175.71 356.512 175.334 357.059C174.959 357.611 174.506 358.091 173.978 358.499C173.454 358.907 172.869 359.243 172.225 359.508C171.58 359.772 170.91 359.962 170.214 360.078L169.797 358.339ZM172.955 350.687C172.834 350.687 172.705 350.738 172.565 350.84C172.426 350.942 172.299 351.074 172.183 351.237C172.067 351.394 171.97 351.57 171.891 351.765C171.816 351.96 171.779 352.15 171.779 352.336C171.779 352.53 171.823 352.693 171.912 352.823C172.004 352.952 172.12 353.057 172.259 353.136C172.403 353.214 172.563 353.275 172.739 353.317C172.92 353.354 173.099 353.379 173.275 353.393C173.372 353.402 173.479 353.409 173.595 353.414C173.711 353.414 173.829 353.416 173.95 353.421C174.075 353.426 174.198 353.428 174.319 353.428C174.439 353.428 174.553 353.428 174.659 353.428C174.645 353.256 174.611 353.071 174.555 352.871C174.504 352.667 174.437 352.463 174.353 352.259C174.27 352.055 174.175 351.86 174.068 351.675C173.961 351.485 173.845 351.318 173.72 351.174C173.6 351.026 173.474 350.907 173.345 350.819C173.215 350.731 173.085 350.687 172.955 350.687ZM179.948 352.489C180.101 352.554 180.298 352.635 180.539 352.732C180.78 352.83 181.04 352.927 181.318 353.024C181.596 353.122 181.877 353.21 182.16 353.289C182.447 353.363 182.709 353.409 182.946 353.428C182.9 353.233 182.851 353.031 182.8 352.823C182.753 352.609 182.7 352.403 182.64 352.203C182.58 352.004 182.512 351.816 182.438 351.64C182.364 351.459 182.276 351.301 182.174 351.167C182.076 351.032 181.963 350.926 181.833 350.847C181.703 350.768 181.557 350.729 181.395 350.729C181.209 350.729 181.042 350.789 180.894 350.91C180.75 351.03 180.618 351.181 180.497 351.362C180.381 351.538 180.277 351.728 180.184 351.932C180.096 352.136 180.017 352.322 179.948 352.489ZM182.591 355.188C182.35 355.183 182.067 355.148 181.742 355.083C181.418 355.023 181.086 354.942 180.748 354.84C180.414 354.738 180.091 354.622 179.781 354.492C179.475 354.362 179.215 354.226 179.002 354.082C178.821 354.263 178.644 354.423 178.473 354.562C178.301 354.701 178.123 354.819 177.937 354.917C177.752 355.009 177.55 355.081 177.332 355.132C177.119 355.183 176.875 355.209 176.602 355.209H176.462V353.428H176.602C176.94 353.428 177.223 353.365 177.45 353.24C177.678 353.11 177.872 352.943 178.035 352.739C178.197 352.535 178.338 352.306 178.459 352.05C178.584 351.795 178.712 351.54 178.842 351.285C178.971 351.016 179.12 350.747 179.287 350.478C179.454 350.209 179.642 349.968 179.85 349.755C180.064 349.537 180.302 349.361 180.567 349.226C180.831 349.092 181.128 349.024 181.457 349.024C181.889 349.024 182.25 349.101 182.542 349.254C182.839 349.402 183.085 349.609 183.28 349.873C183.479 350.133 183.637 350.439 183.753 350.791C183.869 351.144 183.966 351.524 184.045 351.932C184.091 352.169 184.135 352.38 184.177 352.565C184.219 352.746 184.265 352.901 184.316 353.031C184.372 353.161 184.43 353.261 184.49 353.33C184.555 353.395 184.632 353.428 184.72 353.428H184.935V355.209H184.671C184.416 355.204 184.189 355.134 183.989 355C183.795 354.861 183.614 354.678 183.447 354.45C183.396 354.497 183.335 354.559 183.266 354.638C183.201 354.717 183.129 354.796 183.05 354.875C182.976 354.949 182.9 355.016 182.821 355.077C182.742 355.137 182.665 355.174 182.591 355.188ZM190.883 351.125C190.716 350.93 190.521 350.754 190.299 350.597C190.113 350.462 189.897 350.341 189.652 350.235C189.406 350.123 189.137 350.068 188.845 350.068C188.608 350.068 188.399 350.105 188.219 350.179C188.038 350.249 187.885 350.346 187.759 350.471C187.634 350.592 187.537 350.733 187.467 350.896C187.398 351.058 187.356 351.232 187.342 351.417C187.337 351.45 187.335 351.482 187.335 351.515C187.335 351.733 187.393 351.946 187.509 352.155C187.625 352.359 187.787 352.542 187.996 352.704C188.205 352.862 188.446 352.983 188.719 353.066C188.942 353.136 189.167 353.17 189.394 353.17C189.445 353.17 189.496 353.168 189.547 353.163C189.816 353.145 190.085 353.117 190.354 353.08C190.628 353.038 190.876 352.999 191.099 352.962L191.843 352.816L192.059 354.548C191.771 354.622 191.449 354.699 191.092 354.777C190.735 354.856 190.324 354.928 189.86 354.993C189.401 355.053 188.879 355.104 188.295 355.146C187.711 355.188 187.048 355.209 186.306 355.209H184.65V353.428H184.956L186.285 353.421C186.034 353.129 185.863 352.83 185.77 352.523C185.682 352.213 185.638 351.872 185.638 351.501C185.638 351.065 185.719 350.652 185.881 350.263C186.044 349.873 186.266 349.532 186.549 349.24C186.837 348.948 187.175 348.716 187.565 348.544C187.959 348.373 188.386 348.287 188.845 348.287C189.072 348.287 189.29 348.308 189.499 348.35C189.712 348.391 189.914 348.447 190.104 348.517C190.294 348.586 190.473 348.665 190.639 348.753C190.811 348.841 190.966 348.929 191.106 349.017C191.268 349.124 191.426 349.238 191.579 349.358C191.732 349.479 191.875 349.606 192.01 349.741L190.883 351.125ZM203.329 359.744C202.531 359.744 201.794 359.645 201.116 359.445C200.439 359.25 199.862 358.954 199.384 358.555C198.907 358.161 198.547 357.664 198.306 357.066C198.111 356.598 198.014 356.067 198.014 355.473C198.014 355.315 198.021 355.153 198.035 354.986C198.063 354.666 198.1 354.339 198.146 354.005C198.197 353.671 198.264 353.321 198.348 352.955C198.436 352.584 198.547 352.192 198.682 351.779C198.816 351.366 198.983 350.921 199.183 350.443L200.616 351.104C200.425 351.577 200.268 352.016 200.143 352.419C200.017 352.818 199.918 353.189 199.843 353.532C199.774 353.875 199.725 354.198 199.697 354.499C199.669 354.801 199.656 355.09 199.656 355.369C199.656 355.703 199.697 356.002 199.781 356.266C199.869 356.53 199.98 356.767 200.115 356.976C200.296 357.221 200.523 357.409 200.796 357.539C201.07 357.674 201.358 357.771 201.659 357.831C201.965 357.892 202.264 357.926 202.556 357.936C202.853 357.95 203.111 357.957 203.329 357.957C203.458 357.957 203.646 357.947 203.892 357.929C204.143 357.91 204.414 357.878 204.706 357.831C205.003 357.785 205.307 357.725 205.617 357.65C205.928 357.576 206.209 357.483 206.459 357.372C206.714 357.261 206.92 357.131 207.078 356.983C207.24 356.834 207.322 356.66 207.322 356.461C207.322 356.428 207.28 356.377 207.196 356.308C207.118 356.243 207.006 356.169 206.863 356.085C206.723 356.002 206.559 355.914 206.369 355.821C206.178 355.733 205.974 355.647 205.756 355.563C205.436 355.457 205.119 355.378 204.803 355.327C204.488 355.276 204.175 355.223 203.864 355.167L204.101 353.428H209.624V355.209H208.323C208.509 355.436 208.632 355.659 208.692 355.877C208.757 356.099 208.792 356.294 208.796 356.461C208.778 356.869 208.674 357.233 208.483 357.553C208.293 357.878 208.047 358.161 207.746 358.402C207.449 358.648 207.111 358.854 206.73 359.021C206.35 359.192 205.96 359.332 205.562 359.438C205.163 359.545 204.769 359.621 204.379 359.668C203.994 359.719 203.644 359.744 203.329 359.744ZM209.645 353.428C209.882 353.428 210.104 353.381 210.313 353.289C210.526 353.191 210.728 353.02 210.918 352.774C211.113 352.523 211.294 352.183 211.461 351.751C211.632 351.32 211.795 350.768 211.948 350.096L213.652 350.576C213.541 350.961 213.441 351.332 213.353 351.689C213.265 352.041 213.216 352.345 213.207 352.6C213.207 352.623 213.207 352.644 213.207 352.663C213.207 352.746 213.214 352.834 213.228 352.927C213.246 353.02 213.277 353.106 213.318 353.184C213.36 353.263 213.416 353.326 213.485 353.372C213.55 353.414 213.622 353.435 213.701 353.435C213.71 353.435 213.719 353.435 213.729 353.435C213.9 353.43 214.063 353.368 214.216 353.247C214.369 353.126 214.51 352.971 214.64 352.781C214.775 352.591 214.895 352.375 215.002 352.134C215.113 351.893 215.21 351.649 215.294 351.403C215.382 351.153 215.456 350.91 215.517 350.673C215.577 350.437 215.623 350.228 215.656 350.047L217.297 350.381C217.237 350.659 217.188 350.917 217.151 351.153C217.114 351.385 217.091 351.619 217.082 351.856C217.077 351.916 217.075 351.976 217.075 352.037C217.075 352.152 217.082 352.289 217.096 352.447C217.114 352.6 217.154 352.751 217.214 352.899C217.274 353.048 217.358 353.17 217.464 353.268C217.576 353.361 217.719 353.407 217.896 353.407C218.095 353.407 218.255 353.33 218.376 353.177C218.501 353.02 218.596 352.82 218.661 352.579C218.726 352.338 218.768 352.071 218.786 351.779C218.809 351.482 218.821 351.195 218.821 350.917C218.821 350.828 218.819 350.759 218.814 350.708C218.814 350.652 218.814 350.601 218.814 350.555C218.814 350.508 218.812 350.457 218.807 350.402C218.807 350.341 218.807 350.26 218.807 350.158L220.567 350.019C220.581 350.172 220.595 350.323 220.609 350.471C220.623 350.615 220.637 350.766 220.65 350.923C220.664 351.077 220.681 351.241 220.699 351.417C220.722 351.589 220.748 351.777 220.776 351.981C220.808 352.222 220.875 352.433 220.977 352.614C221.084 352.795 221.207 352.946 221.346 353.066C221.485 353.187 221.634 353.277 221.791 353.337C221.954 353.398 222.107 353.428 222.25 353.428H222.508V355.209H222.285C222.058 355.209 221.833 355.186 221.61 355.139C221.392 355.093 221.184 355.021 220.984 354.923C220.785 354.826 220.597 354.703 220.421 354.555C220.249 354.402 220.099 354.221 219.969 354.012C219.746 354.374 219.454 354.664 219.092 354.882C218.73 355.1 218.332 355.209 217.896 355.209C217.46 355.209 217.063 355.104 216.706 354.896C216.354 354.687 216.073 354.409 215.864 354.061C215.73 354.232 215.584 354.39 215.426 354.534C215.273 354.673 215.106 354.796 214.925 354.903C214.749 355.005 214.561 355.083 214.362 355.139C214.162 355.199 213.954 355.23 213.736 355.23C213.527 355.23 213.325 355.202 213.13 355.146C212.936 355.095 212.755 355.019 212.588 354.917C212.421 354.814 212.27 354.692 212.136 354.548C212.001 354.399 211.89 354.235 211.802 354.054C211.57 354.462 211.285 354.757 210.946 354.937C210.608 355.118 210.176 355.209 209.652 355.209H209.353V353.428H209.645ZM228.433 353.428V355.209H228.294C227.844 355.209 227.464 355.137 227.153 354.993C226.843 354.849 226.578 354.664 226.36 354.437C226.207 354.631 225.98 354.782 225.678 354.889C225.382 354.991 225.05 355.065 224.684 355.111C224.317 355.162 223.939 355.19 223.55 355.195C223.165 355.204 222.81 355.209 222.485 355.209H222.228V353.428H222.485C223.028 353.428 223.485 353.398 223.856 353.337C224.227 353.272 224.526 353.18 224.753 353.059C224.985 352.939 225.152 352.788 225.254 352.607C225.356 352.421 225.407 352.208 225.407 351.967C225.407 351.809 225.377 351.601 225.317 351.341C225.256 351.077 225.166 350.738 225.045 350.325L226.757 349.845C226.817 350.049 226.863 350.23 226.896 350.388C226.933 350.541 226.961 350.696 226.979 350.854C227.003 351.007 227.021 351.174 227.035 351.355C227.054 351.531 227.072 351.742 227.091 351.988C227.105 352.136 227.139 352.296 227.195 352.468C227.251 352.635 227.327 352.79 227.425 352.934C227.527 353.073 227.65 353.191 227.793 353.289C227.937 353.381 228.104 353.428 228.294 353.428H228.433ZM224.816 357.268L223.633 358.45L222.437 357.261L223.619 356.071L224.816 357.268ZM227.445 357.275L226.263 358.464L225.066 357.268L226.249 356.085L227.445 357.275ZM228.15 353.428H228.658C228.825 353.428 228.98 353.414 229.124 353.386C229.268 353.358 229.395 353.3 229.506 353.212C229.618 353.119 229.708 352.992 229.778 352.83C229.847 352.667 229.891 352.449 229.91 352.176C229.91 352.069 229.912 351.883 229.917 351.619C229.926 351.35 229.933 351.032 229.938 350.666C229.942 350.295 229.947 349.889 229.952 349.449C229.956 349.008 229.959 348.558 229.959 348.099C229.959 347.742 229.956 347.392 229.952 347.049C229.952 346.701 229.947 346.367 229.938 346.047C229.933 345.727 229.922 345.426 229.903 345.143C229.889 344.86 229.868 344.602 229.84 344.37L231.614 344.141C231.647 344.391 231.672 344.674 231.691 344.99C231.709 345.305 231.723 345.641 231.733 345.998C231.746 346.351 231.753 346.722 231.753 347.111C231.758 347.496 231.76 347.886 231.76 348.28C231.76 349.157 231.751 349.919 231.733 350.569C231.719 351.218 231.712 351.793 231.712 352.294C231.712 352.646 231.802 352.925 231.983 353.129C232.164 353.328 232.433 353.428 232.79 353.428H232.943V355.209H232.79C232.762 355.209 232.737 355.209 232.713 355.209C232.533 355.209 232.354 355.192 232.178 355.16C232.006 355.132 231.839 355.088 231.677 355.028C231.519 354.972 231.373 354.905 231.239 354.826C231.104 354.747 230.986 354.666 230.884 354.583C230.749 354.712 230.601 354.819 230.439 354.903C230.281 354.981 230.119 355.044 229.952 355.09C229.785 355.137 229.62 355.167 229.458 355.181C229.295 355.199 229.149 355.209 229.019 355.209H228.15V353.428ZM232.666 353.428H234.829C235.098 353.428 235.339 353.395 235.553 353.33C235.77 353.266 235.954 353.182 236.102 353.08C236.25 352.973 236.364 352.853 236.443 352.718C236.526 352.579 236.568 352.438 236.568 352.294C236.568 352.071 236.524 351.83 236.436 351.57C236.348 351.306 236.23 351.039 236.081 350.77C235.937 350.497 235.766 350.223 235.566 349.95C235.372 349.671 235.165 349.407 234.947 349.157C234.729 348.901 234.504 348.665 234.273 348.447C234.045 348.229 233.827 348.037 233.619 347.87L233.786 345.908L239.873 343.334L240.519 344.927L235.267 347.083C235.624 347.394 235.935 347.703 236.199 348.009C236.468 348.31 236.707 348.614 236.916 348.92C237.129 349.221 237.322 349.525 237.493 349.831C237.665 350.137 237.832 350.446 237.994 350.757C238.11 350.979 238.226 351.197 238.342 351.41C238.458 351.624 238.583 351.842 238.718 352.064V352.057C238.843 352.266 238.975 352.454 239.114 352.621C239.258 352.788 239.411 352.932 239.573 353.052C239.74 353.173 239.921 353.266 240.116 353.33C240.315 353.395 240.533 353.428 240.77 353.428H241.208V355.209H241.006C240.635 355.209 240.299 355.183 239.998 355.132C239.696 355.081 239.416 355 239.156 354.889C238.901 354.777 238.66 354.636 238.433 354.464C238.21 354.288 237.99 354.077 237.772 353.831C237.609 354.072 237.426 354.279 237.222 354.45C237.018 354.617 236.798 354.757 236.561 354.868C236.325 354.974 236.074 355.053 235.81 355.104C235.55 355.16 235.281 355.195 235.003 355.209H232.666V353.428ZM239.657 342.68L233.786 345.073L233.834 344.176L239.316 341.97L239.657 342.68ZM240.931 353.428H242.051C242.269 353.428 242.492 353.416 242.719 353.393C242.951 353.365 243.16 353.312 243.345 353.233C243.531 353.15 243.681 353.031 243.797 352.878C243.918 352.725 243.978 352.521 243.978 352.266C243.978 352.146 243.953 351.976 243.902 351.758C243.851 351.54 243.783 351.299 243.7 351.035C243.616 350.77 243.517 350.497 243.401 350.214C243.289 349.931 243.171 349.667 243.046 349.421L244.653 348.628C244.769 348.892 244.885 349.173 245.001 349.47C245.117 349.766 245.219 350.072 245.307 350.388C245.4 350.699 245.474 351.012 245.529 351.327C245.585 351.642 245.613 351.951 245.613 352.252C245.613 352.772 245.525 353.219 245.349 353.595C245.172 353.966 244.927 354.272 244.611 354.513C244.296 354.75 243.918 354.923 243.477 355.035C243.041 355.151 242.561 355.209 242.037 355.209H240.931V353.428ZM244.486 346.27L243.15 347.605L241.822 346.27L243.15 344.941L244.486 346.27ZM248.829 344.141C248.944 345.027 249.026 345.873 249.072 346.68C249.118 347.482 249.146 348.268 249.155 349.038C249.165 349.692 249.167 350.297 249.162 350.854C249.162 351.41 249.158 351.93 249.149 352.412C249.139 352.89 249.125 353.337 249.107 353.755C249.088 354.168 249.07 354.555 249.051 354.917L247.229 355.195C247.326 353.664 247.375 352.312 247.375 351.139C247.375 350.666 247.368 350.223 247.354 349.81C247.317 348.86 247.275 347.967 247.229 347.132C247.182 346.293 247.12 345.49 247.041 344.725L248.829 344.141Z" fill="black"/>
</svg>
