<svg width="400" height="400" viewBox="0 0 400 400" fill="none" xmlns="http://www.w3.org/2000/svg">
<rect width="400" height="400" fill="white"/>
<path d="M173.047 53.7443C172.25 53.7443 171.512 53.6446 170.835 53.4452C170.158 53.2504 169.581 52.9536 169.103 52.5548C168.625 52.1606 168.266 51.6643 168.025 51.0661C167.83 50.5977 167.733 50.0667 167.733 49.473C167.733 49.3154 167.74 49.153 167.753 48.9861C167.781 48.6661 167.818 48.3391 167.865 48.0052C167.916 47.6713 167.983 47.3212 168.066 46.9548C168.155 46.5838 168.266 46.1919 168.4 45.7791C168.535 45.3664 168.702 44.9212 168.901 44.4435L170.334 45.1043C170.144 45.5774 169.986 46.0157 169.861 46.4191C169.736 46.818 169.636 47.189 169.562 47.5322C169.493 47.8754 169.444 48.1977 169.416 48.4991C169.388 48.8006 169.374 49.0904 169.374 49.3687C169.374 49.7026 169.416 50.0017 169.5 50.2661C169.588 50.5304 169.699 50.767 169.833 50.9757C170.014 51.2214 170.242 51.4093 170.515 51.5391C170.789 51.6736 171.076 51.771 171.378 51.8313C171.684 51.8916 171.983 51.9264 172.275 51.9357C172.572 51.9496 172.829 51.9565 173.047 51.9565C173.177 51.9565 173.365 51.9472 173.611 51.9287C173.861 51.9101 174.133 51.8777 174.425 51.8313C174.722 51.7849 175.025 51.7246 175.336 51.6504C175.647 51.5762 175.927 51.4835 176.178 51.3722C176.433 51.2609 176.639 51.131 176.797 50.9826C176.959 50.8342 177.04 50.6603 177.04 50.4609C177.04 50.4284 176.999 50.3774 176.915 50.3078C176.836 50.2429 176.725 50.1687 176.581 50.0852C176.442 50.0017 176.277 49.9136 176.087 49.8209C175.897 49.7328 175.693 49.647 175.475 49.5635C175.155 49.4568 174.837 49.378 174.522 49.327C174.207 49.2759 173.894 49.2226 173.583 49.167L173.82 47.4278H179.343V49.2087H178.042C178.228 49.4359 178.351 49.6586 178.411 49.8765C178.476 50.0991 178.511 50.2939 178.515 50.4609C178.497 50.869 178.392 51.233 178.202 51.553C178.012 51.8777 177.766 52.1606 177.465 52.4017C177.168 52.6475 176.829 52.8539 176.449 53.0209C176.069 53.1925 175.679 53.3316 175.28 53.4383C174.882 53.5449 174.487 53.6214 174.098 53.6678C173.713 53.7188 173.363 53.7443 173.047 53.7443ZM187.308 49.2087H187.065C186.708 49.2087 186.358 49.1948 186.014 49.167C185.676 49.1391 185.351 49.0881 185.041 49.0139C184.734 48.9443 184.442 48.8493 184.164 48.7287C183.886 48.6081 183.631 48.4528 183.399 48.2626C183.148 48.4388 182.856 48.5872 182.522 48.7078C182.193 48.8284 181.845 48.9258 181.479 49C181.117 49.0696 180.751 49.1206 180.38 49.153C180.009 49.1901 179.656 49.2087 179.322 49.2087H179.072V47.4278H179.315C179.515 47.4278 179.719 47.4209 179.927 47.407C180.141 47.393 180.349 47.3722 180.554 47.3443C180.762 47.3165 180.964 47.2841 181.159 47.247C181.358 47.2099 181.544 47.1658 181.715 47.1148C181.534 46.9339 181.363 46.7623 181.201 46.6C181.038 46.433 180.874 46.2684 180.707 46.1061C180.544 45.9391 180.373 45.7699 180.192 45.5983C180.016 45.422 179.823 45.2365 179.614 45.0417L179.712 43.5948C179.976 43.3629 180.245 43.1681 180.519 43.0104C180.797 42.8528 181.068 42.7252 181.333 42.6278C181.597 42.5258 181.852 42.4493 182.098 42.3983C182.344 42.3426 182.569 42.3055 182.773 42.287C182.981 42.2638 183.192 42.2522 183.406 42.2522C183.661 42.2522 183.974 42.2754 184.345 42.3217C184.716 42.3635 185.098 42.4725 185.493 42.6487C185.757 42.7646 185.97 42.8945 186.133 43.0383C186.3 43.1774 186.429 43.3188 186.522 43.4626C186.62 43.6017 186.687 43.7386 186.724 43.873C186.761 44.0029 186.782 44.1165 186.787 44.2139C186.791 44.2557 186.794 44.2951 186.794 44.3322C186.794 44.5177 186.754 44.731 186.675 44.9722C186.601 45.2087 186.485 45.4614 186.327 45.7304C186.174 45.9994 185.994 46.2614 185.785 46.5165C185.576 46.767 185.356 46.9919 185.124 47.1913C185.407 47.2701 185.713 47.3304 186.042 47.3722C186.372 47.4093 186.717 47.4278 187.079 47.4278H187.308V49.2087ZM181.472 44.4087C181.634 44.6081 181.806 44.8075 181.987 45.007C182.167 45.2017 182.344 45.3872 182.515 45.5635C182.687 45.7351 182.847 45.8951 182.995 46.0435C183.144 46.1872 183.269 46.3101 183.371 46.4122C183.529 46.3101 183.705 46.171 183.9 45.9948C184.099 45.8186 184.289 45.633 184.47 45.4383C184.651 45.2435 184.811 45.0533 184.95 44.8678C185.089 44.6823 185.18 44.5293 185.221 44.4087C185.11 44.3484 184.983 44.2928 184.839 44.2417C184.695 44.1907 184.542 44.149 184.38 44.1165C184.222 44.0794 184.06 44.0516 183.893 44.033C183.73 44.0099 183.573 43.9983 183.42 43.9983C183.276 43.9983 183.118 44.0099 182.947 44.033C182.775 44.0516 182.601 44.0794 182.425 44.1165C182.249 44.149 182.077 44.1907 181.91 44.2417C181.748 44.2928 181.602 44.3484 181.472 44.4087ZM187.192 47.4278C187.679 47.4278 188.147 47.4139 188.597 47.3861C189.047 47.3536 189.457 47.3096 189.828 47.2539C190.199 47.1983 190.519 47.131 190.788 47.0522C191.057 46.9733 191.259 46.8852 191.394 46.7878H190.684C190.276 46.7878 189.886 46.7368 189.515 46.6348C189.149 46.5281 188.827 46.3704 188.548 46.1617C188.27 45.953 188.048 45.6933 187.881 45.3826C187.718 45.0672 187.637 44.7009 187.637 44.2835C187.637 44.0377 187.663 43.7849 187.714 43.5252C187.765 43.2655 187.841 43.0128 187.943 42.767C188.045 42.5212 188.168 42.2893 188.312 42.0713C188.456 41.8533 188.62 41.6632 188.806 41.5009C188.991 41.3339 189.195 41.2041 189.418 41.1113C189.641 41.0139 189.882 40.9652 190.141 40.9652C190.461 40.9652 190.761 41.0325 191.039 41.167C191.317 41.3014 191.57 41.4846 191.797 41.7165C192.024 41.9438 192.226 42.2081 192.402 42.5096C192.579 42.811 192.727 43.1287 192.848 43.4626C192.968 43.7965 193.059 44.1374 193.119 44.4852C193.184 44.8284 193.216 45.1554 193.216 45.4661C193.216 45.9948 193.142 46.4539 192.994 46.8435C192.85 47.233 192.646 47.567 192.381 47.8452C192.122 48.1235 191.809 48.3507 191.442 48.527C191.081 48.7032 190.679 48.8423 190.239 48.9443C189.798 49.0464 189.325 49.1159 188.82 49.153C188.319 49.1901 187.799 49.2087 187.261 49.2087H187.025V47.4278H187.192ZM190.141 42.76C190.118 42.7554 190.095 42.753 190.072 42.753C189.979 42.753 189.872 42.7901 189.752 42.8643C189.631 42.9386 189.515 43.0452 189.404 43.1843C189.293 43.3235 189.202 43.4812 189.133 43.6574C189.063 43.829 189.028 43.9983 189.028 44.1652C189.028 44.1745 189.028 44.1838 189.028 44.193C189.028 44.36 189.066 44.4968 189.14 44.6035C189.214 44.7055 189.314 44.7843 189.439 44.84C189.569 44.8957 189.717 44.9351 189.884 44.9583C190.056 44.9814 190.237 44.9977 190.427 45.007C190.552 45.0116 190.682 45.0139 190.816 45.0139C190.881 45.0139 190.981 45.0139 191.115 45.0139C191.254 45.0093 191.396 45.0023 191.54 44.993C191.498 44.8261 191.438 44.6197 191.359 44.3739C191.285 44.1235 191.19 43.8823 191.074 43.6504C190.962 43.4139 190.828 43.2099 190.67 43.0383C190.517 42.8667 190.341 42.7739 190.141 42.76ZM189.974 38.8713L188.792 40.0539L187.595 38.8643L188.778 37.6748L189.974 38.8713ZM192.604 38.8783L191.421 40.0678L190.225 38.8713L191.408 37.6887L192.604 38.8783ZM197.594 44.5826C197.687 44.8748 197.782 45.1809 197.88 45.5009C197.982 45.8162 198.072 46.1362 198.151 46.4609C198.234 46.7855 198.302 47.1101 198.353 47.4348C198.404 47.7548 198.429 48.0678 198.429 48.3739C198.429 48.7913 198.364 49.1971 198.234 49.5913C198.109 49.9901 197.933 50.3728 197.706 50.7391C197.483 51.1101 197.216 51.4626 196.906 51.7965C196.6 52.1304 196.266 52.4458 195.904 52.7426C195.542 53.0394 195.16 53.3154 194.756 53.5704C194.353 53.8255 193.945 54.0551 193.532 54.2591L192.739 52.6661C193.068 52.5038 193.393 52.3229 193.713 52.1235C194.033 51.9287 194.336 51.72 194.624 51.4974C194.916 51.2748 195.185 51.0406 195.431 50.7948C195.681 50.549 195.895 50.2939 196.071 50.0296C196.252 49.7652 196.393 49.4939 196.495 49.2157C196.597 48.9374 196.648 48.6568 196.648 48.3739C196.648 48.1096 196.618 47.8313 196.558 47.5391C196.498 47.247 196.423 46.9594 196.335 46.6765C196.252 46.389 196.164 46.113 196.071 45.8487C195.983 45.5843 195.909 45.3501 195.848 45.1461L197.594 44.5826ZM208.4 52.8748C208.669 52.9212 208.94 52.9443 209.214 52.9443C209.283 52.9443 209.42 52.9397 209.624 52.9304C209.828 52.9212 210.09 52.8794 210.41 52.8052C210.73 52.731 211.036 52.6313 211.328 52.5061C211.625 52.3809 211.896 52.2371 212.142 52.0748L213.081 53.633C212.812 53.7954 212.534 53.9438 212.247 54.0783C211.964 54.2174 211.669 54.3357 211.363 54.433C211.062 54.5304 210.749 54.6046 210.424 54.6557C210.141 54.702 209.851 54.7252 209.554 54.7252C209.508 54.7252 209.459 54.7252 209.408 54.7252C208.972 54.7159 208.536 54.6696 208.101 54.5861C207.669 54.5026 207.256 54.382 206.862 54.2243C206.473 54.0667 206.109 53.8696 205.77 53.633C205.436 53.4012 205.144 53.1299 204.894 52.8191C204.648 52.513 204.453 52.1675 204.309 51.7826C204.165 51.4023 204.091 50.9803 204.087 50.5165C204.101 50.0203 204.193 49.5565 204.365 49.1252C204.536 48.6986 204.764 48.309 205.047 47.9565C205.334 47.5994 205.663 47.2817 206.034 47.0035C206.41 46.7252 206.807 46.4864 207.224 46.287C207.076 46.1478 206.923 46.011 206.765 45.8765C206.612 45.7374 206.463 45.6075 206.32 45.487C206.176 45.3617 206.041 45.2481 205.916 45.1461C205.791 45.0394 205.687 44.949 205.603 44.8748L205.471 43.3861C206.078 42.8574 206.732 42.4609 207.433 42.1965C208.138 41.9275 208.873 41.793 209.638 41.793C209.865 41.793 210.099 41.8093 210.341 41.8417C210.586 41.8742 210.825 41.9252 211.057 41.9948C211.289 42.0643 211.507 42.1548 211.711 42.2661C211.915 42.3774 212.094 42.5142 212.247 42.6765C212.4 42.8342 212.52 43.0174 212.608 43.2261C212.687 43.4301 212.727 43.6574 212.727 43.9078C212.727 43.9217 212.727 43.9357 212.727 43.9496C212.708 44.302 212.638 44.6174 212.518 44.8957C212.402 45.1739 212.249 45.4243 212.059 45.647C211.869 45.8696 211.648 46.069 211.398 46.2452C211.152 46.4214 210.89 46.5838 210.612 46.7322C210.987 46.9409 211.386 47.1101 211.808 47.24C212.235 47.3652 212.65 47.4278 213.054 47.4278H213.29V49.2087H213.054C212.669 49.2087 212.295 49.1693 211.934 49.0904C211.572 49.0116 211.215 48.9003 210.862 48.7565C210.51 48.6081 210.16 48.4342 209.812 48.2348C209.464 48.0307 209.114 47.8058 208.761 47.56C208.423 47.6945 208.08 47.8522 207.732 48.033C207.384 48.2093 207.066 48.418 206.779 48.6591C206.496 48.8957 206.264 49.1646 206.083 49.4661C205.902 49.7675 205.812 50.1084 205.812 50.4887C205.812 50.702 205.854 50.9061 205.937 51.1009C206.025 51.2957 206.139 51.4765 206.278 51.6435C206.417 51.8151 206.577 51.9704 206.758 52.1096C206.939 52.2533 207.124 52.3762 207.314 52.4783C207.509 52.5849 207.699 52.6707 207.885 52.7357C208.075 52.8052 208.247 52.8516 208.4 52.8748ZM209.645 43.4904C209.459 43.4904 209.265 43.5043 209.061 43.5322C208.856 43.5554 208.655 43.5901 208.455 43.6365C208.256 43.6783 208.063 43.7316 207.878 43.7965C207.697 43.8568 207.537 43.9241 207.398 43.9983C207.495 44.1003 207.604 44.2186 207.725 44.353C207.845 44.4829 207.973 44.6197 208.107 44.7635C208.247 44.9072 208.388 45.051 208.532 45.1948C208.676 45.3339 208.817 45.4638 208.956 45.5843C209.262 45.4545 209.547 45.3223 209.812 45.1878C210.076 45.0533 210.306 44.9165 210.501 44.7774C210.7 44.6336 210.858 44.4852 210.974 44.3322C211.089 44.1791 211.15 44.0214 211.154 43.8591C211.15 43.8406 211.12 43.8128 211.064 43.7757C211.008 43.7386 210.918 43.7014 210.793 43.6643C210.672 43.6226 210.517 43.5855 210.327 43.553C210.141 43.5206 209.914 43.4997 209.645 43.4904ZM213.009 47.4278H214.067L214.115 47.3374C214.194 47.1983 214.306 47.0151 214.449 46.7878C214.598 46.5559 214.783 46.2939 215.006 46.0017C215.048 45.7096 215.082 45.3409 215.11 44.8957C215.138 44.4504 215.154 43.9681 215.159 43.4487C215.159 43.1658 215.154 42.8759 215.145 42.5791C215.136 42.2777 215.117 41.9322 215.089 41.5426C215.061 41.153 215.022 40.6986 214.971 40.1791C214.925 39.6551 214.864 39.0313 214.79 38.3078L216.62 37.8348C216.74 38.7252 216.831 39.6388 216.891 40.5757C216.956 41.5125 216.988 42.44 216.988 43.3583V43.9217C217.239 43.7084 217.499 43.5043 217.768 43.3096C218.041 43.1148 218.324 42.9432 218.616 42.7948C218.913 42.6464 219.221 42.5281 219.541 42.44C219.861 42.3519 220.195 42.3078 220.543 42.3078C220.896 42.3078 221.23 42.3635 221.545 42.4748C221.86 42.5861 222.139 42.7484 222.38 42.9617C222.626 43.1704 222.827 43.4255 222.985 43.727C223.143 44.0284 223.24 44.367 223.277 44.7426C223.282 44.8122 223.284 44.8794 223.284 44.9443C223.284 45.4267 223.203 45.8765 223.041 46.2939C222.883 46.7113 222.649 47.0893 222.338 47.4278H224.3V49.2087H222.449C222.083 49.2087 221.675 49.1925 221.225 49.16C220.775 49.1275 220.277 49.0417 219.729 48.9026C219.335 49.0093 218.934 49.0858 218.526 49.1322C218.122 49.1832 217.717 49.2087 217.308 49.2087H213.009V47.4278ZM216.661 47.4278C216.944 47.4278 217.269 47.4209 217.635 47.407C218.006 47.393 218.387 47.3606 218.776 47.3096C219.166 47.2586 219.544 47.182 219.91 47.08C220.281 46.978 220.61 46.8412 220.898 46.6696C221.186 46.498 221.413 46.2823 221.58 46.0226C221.724 45.8 221.795 45.5357 221.795 45.2296C221.795 45.1878 221.793 45.1438 221.788 45.0974C221.779 44.9583 221.733 44.8284 221.649 44.7078C221.57 44.5872 221.459 44.4852 221.315 44.4017C221.176 44.3136 221.009 44.2441 220.815 44.193C220.648 44.1559 220.467 44.1374 220.272 44.1374C220.235 44.1374 220.195 44.1374 220.154 44.1374C219.922 44.1467 219.646 44.207 219.326 44.3183C219.006 44.4249 218.663 44.6058 218.296 44.8609C217.93 45.1159 217.55 45.4522 217.155 45.8696C216.761 46.287 216.376 46.8064 216.001 47.4278H216.661ZM224.192 47.4278C224.679 47.4278 225.147 47.4139 225.597 47.3861C226.047 47.3536 226.457 47.3096 226.828 47.2539C227.199 47.1983 227.519 47.131 227.788 47.0522C228.057 46.9733 228.259 46.8852 228.394 46.7878H227.684C227.276 46.7878 226.886 46.7368 226.515 46.6348C226.149 46.5281 225.827 46.3704 225.548 46.1617C225.27 45.953 225.048 45.6933 224.881 45.3826C224.718 45.0672 224.637 44.7009 224.637 44.2835C224.637 44.0377 224.663 43.7849 224.714 43.5252C224.765 43.2655 224.841 43.0128 224.943 42.767C225.045 42.5212 225.168 42.2893 225.312 42.0713C225.456 41.8533 225.62 41.6632 225.806 41.5009C225.991 41.3339 226.195 41.2041 226.418 41.1113C226.641 41.0139 226.882 40.9652 227.141 40.9652C227.461 40.9652 227.761 41.0325 228.039 41.167C228.317 41.3014 228.57 41.4846 228.797 41.7165C229.024 41.9438 229.226 42.2081 229.402 42.5096C229.579 42.811 229.727 43.1287 229.848 43.4626C229.968 43.7965 230.059 44.1374 230.119 44.4852C230.184 44.8284 230.216 45.1554 230.216 45.4661C230.216 45.9948 230.142 46.4539 229.994 46.8435C229.85 47.233 229.646 47.567 229.381 47.8452C229.122 48.1235 228.809 48.3507 228.442 48.527C228.081 48.7032 227.679 48.8423 227.239 48.9443C226.798 49.0464 226.325 49.1159 225.82 49.153C225.319 49.1901 224.799 49.2087 224.261 49.2087H224.025V47.4278H224.192ZM227.141 42.76C227.118 42.7554 227.095 42.753 227.072 42.753C226.979 42.753 226.872 42.7901 226.752 42.8643C226.631 42.9386 226.515 43.0452 226.404 43.1843C226.293 43.3235 226.202 43.4812 226.133 43.6574C226.063 43.829 226.028 43.9983 226.028 44.1652C226.028 44.1745 226.028 44.1838 226.028 44.193C226.028 44.36 226.066 44.4968 226.14 44.6035C226.214 44.7055 226.314 44.7843 226.439 44.84C226.569 44.8957 226.717 44.9351 226.884 44.9583C227.056 44.9814 227.237 44.9977 227.427 45.007C227.552 45.0116 227.682 45.0139 227.816 45.0139C227.881 45.0139 227.981 45.0139 228.115 45.0139C228.254 45.0093 228.396 45.0023 228.54 44.993C228.498 44.8261 228.438 44.6197 228.359 44.3739C228.285 44.1235 228.19 43.8823 228.074 43.6504C227.962 43.4139 227.828 43.2099 227.67 43.0383C227.517 42.8667 227.341 42.7739 227.141 42.76ZM226.974 38.8713L225.792 40.0539L224.595 38.8643L225.778 37.6748L226.974 38.8713ZM229.604 38.8783L228.421 40.0678L227.225 38.8713L228.408 37.6887L229.604 38.8783Z" fill="black"/>
<path d="M123.031 149.426C123.031 148.069 123.011 146.737 122.97 145.428C122.93 144.113 122.84 142.885 122.701 141.747C122.562 140.608 122.362 139.59 122.102 138.692C121.847 137.791 121.503 137.074 121.069 136.543L122.51 134.476C122.985 135.071 123.378 135.862 123.691 136.85C124.009 137.828 124.252 139.026 124.42 140.444C124.489 141.052 124.544 141.69 124.585 142.359C124.631 143.023 124.666 143.696 124.689 144.376C124.718 145.045 124.735 145.712 124.741 146.376C124.753 147.036 124.759 147.669 124.759 148.274L123.031 149.426ZM133.793 142.303C133.371 142.585 132.983 142.722 132.63 142.713C132.283 142.695 131.987 142.533 131.744 142.229L131.718 142.205C131.469 142.823 131.157 143.389 130.781 143.905C130.41 144.416 129.999 144.822 129.548 145.123C129.044 145.459 128.619 145.631 128.271 145.64C127.93 145.645 127.652 145.538 127.438 145.319C127.224 145.093 127.065 144.778 126.96 144.375C126.856 143.971 126.793 143.527 126.769 143.041C126.758 142.84 126.752 142.639 126.752 142.437C126.752 142.152 126.767 141.809 126.795 141.407C126.83 140.994 126.882 140.57 126.952 140.134C127.056 139.501 127.189 138.842 127.351 138.156C127.519 137.467 127.722 136.73 127.959 135.946C128.202 135.151 128.486 134.294 128.81 133.375C129.14 132.453 129.516 131.447 129.938 130.358L129.617 130.186L130.833 127.915C131.417 128.165 131.99 128.437 132.552 128.731C133.119 129.014 133.649 129.363 134.141 129.779C135.275 130.762 136.097 132.051 136.606 133.645C136.774 134.201 136.858 134.841 136.858 135.564C136.858 136.142 136.795 136.751 136.667 137.392C136.54 138.034 136.349 138.662 136.094 139.277C135.845 139.881 135.527 140.452 135.139 140.989C134.757 141.515 134.311 141.951 133.802 142.297L133.793 142.303ZM132.517 137.269C132.517 137.457 132.523 137.675 132.534 137.925C132.546 138.175 132.566 138.429 132.595 138.688C132.63 138.936 132.676 139.177 132.734 139.409C132.798 139.638 132.876 139.833 132.969 139.994C133.067 140.144 133.183 140.248 133.316 140.305C133.455 140.358 133.617 140.337 133.802 140.242C134.074 140.039 134.297 139.79 134.471 139.493C134.644 139.197 134.78 138.887 134.879 138.564C134.977 138.234 135.044 137.908 135.078 137.586C135.119 137.252 135.139 136.957 135.139 136.7C135.139 136.463 135.125 136.229 135.096 135.998C135.067 135.767 135.02 135.555 134.957 135.361C134.748 134.727 134.497 134.172 134.201 133.694C133.906 133.216 133.591 132.8 133.255 132.446C132.919 132.086 132.575 131.783 132.222 131.539C131.869 131.294 131.53 131.092 131.206 130.932C130.841 131.885 130.52 132.76 130.242 133.557C129.964 134.355 129.721 135.098 129.513 135.786C129.305 136.475 129.128 137.121 128.983 137.725C128.844 138.319 128.729 138.89 128.636 139.439C128.601 139.636 128.567 139.881 128.532 140.176C128.497 140.47 128.474 140.778 128.462 141.099C128.457 141.207 128.454 141.313 128.454 141.418C128.454 141.626 128.462 141.857 128.48 142.11C128.503 142.359 128.552 142.587 128.627 142.794C128.708 142.997 128.821 143.131 128.966 143.194C129.117 143.254 129.31 143.205 129.548 143.047C129.756 142.901 129.936 142.705 130.086 142.458C130.237 142.212 130.364 141.942 130.468 141.65C130.578 141.348 130.668 141.034 130.737 140.709C130.812 140.374 130.873 140.052 130.92 139.742C130.966 139.433 131.003 139.144 131.032 138.874C131.067 138.594 131.096 138.362 131.119 138.18L132.517 137.269Z" fill="black"/>
<path d="M290.664 118.38C290.664 117.024 290.643 115.664 290.603 114.302C290.562 112.932 290.473 111.585 290.334 110.261C290.195 108.937 289.995 107.653 289.735 106.408C289.48 105.167 289.136 103.991 288.702 102.881L290.143 102.736C290.617 103.963 291.011 105.28 291.324 106.685C291.642 108.086 291.885 109.609 292.053 111.251C292.122 111.951 292.177 112.663 292.218 113.385C292.264 114.112 292.299 114.831 292.322 115.542C292.351 116.25 292.368 116.939 292.374 117.611C292.386 118.287 292.391 118.927 292.391 119.532L290.664 118.38ZM300.315 117.072C299.771 116.709 299.238 116.264 298.717 115.736C298.202 115.204 297.751 114.594 297.363 113.904C297.432 114.291 297.49 114.726 297.537 115.209C297.589 115.696 297.629 116.207 297.658 116.741C297.693 117.272 297.719 117.818 297.736 118.379C297.754 118.94 297.765 119.49 297.771 120.03C297.783 120.573 297.788 121.095 297.788 121.596C297.788 122.097 297.788 122.553 297.788 122.963L296.061 121.811C296.061 120.455 296.04 119.095 296 117.733C295.959 116.363 295.87 115.016 295.731 113.692C295.592 112.368 295.392 111.084 295.132 109.839C294.877 108.598 294.533 107.422 294.098 106.312L295.54 106.177C295.742 106.709 295.933 107.253 296.113 107.811C296.292 108.369 296.448 108.915 296.582 109.449C296.709 109.117 296.883 108.85 297.102 108.649C297.328 108.451 297.586 108.324 297.875 108.266C298.165 108.202 298.477 108.209 298.813 108.286C299.154 108.368 299.507 108.52 299.872 108.742L300.02 108.84C300.373 109.076 300.749 109.396 301.148 109.802C301.548 110.207 301.956 110.715 302.373 111.327C302.633 111.703 302.847 112.037 303.015 112.329C303.183 112.622 303.325 112.873 303.441 113.083L302.199 113.695L302.112 113.533C302.048 113.421 301.965 113.278 301.86 113.104C301.762 112.934 301.64 112.742 301.496 112.527C301.357 112.316 301.203 112.106 301.036 111.897C300.868 111.687 300.694 111.492 300.515 111.309C300.381 111.179 300.237 111.062 300.08 110.957C300.023 110.919 299.921 110.858 299.777 110.776C299.638 110.697 299.452 110.643 299.221 110.614C298.995 110.589 298.798 110.621 298.631 110.711C298.468 110.804 298.344 110.955 298.257 111.161C298.194 111.32 298.162 111.515 298.162 111.744C298.162 111.821 298.165 111.899 298.17 111.98C298.228 112.338 298.324 112.67 298.457 112.974C298.59 113.272 298.749 113.545 298.934 113.793C299.125 114.039 299.34 114.262 299.577 114.462C299.756 114.616 299.944 114.759 300.141 114.89L300.315 115.006C300.529 115.142 300.749 115.271 300.975 115.394C301.2 115.509 301.42 115.607 301.635 115.687C301.849 115.768 302.054 115.825 302.251 115.858C302.448 115.892 302.63 115.892 302.798 115.858L303.562 118.058C303.064 118.164 302.543 118.123 301.999 117.934C301.455 117.745 300.894 117.458 300.315 117.072ZM305.627 131.486L304.611 129.964C305.219 129.346 305.537 128.505 305.566 127.439V125.477L307.329 126.652V128.353C307.329 129.139 307.166 129.817 306.842 130.387C306.524 130.968 306.119 131.334 305.627 131.486ZM316.762 120.252C316.762 120.266 316.77 120.341 316.788 120.478C316.805 120.608 316.822 120.779 316.84 120.993C316.857 121.199 316.871 121.431 316.883 121.69C316.889 121.867 316.892 122.047 316.892 122.228V122.499C316.869 124.09 316.553 125.111 315.945 125.562V125.551C315.355 126.013 314.553 125.907 313.54 125.232C313.263 125.046 313.011 124.858 312.785 124.665C312.565 124.47 312.345 124.247 312.125 123.996L312.195 124.616C312.264 125.316 312.319 126.028 312.36 126.75C312.406 127.47 312.441 128.185 312.464 128.896C312.493 129.604 312.51 130.298 312.516 130.976C312.527 131.652 312.533 132.292 312.533 132.898L310.805 131.746C310.805 130.64 310.797 129.535 310.779 128.431C310.762 127.32 310.716 126.225 310.641 125.145C310.565 124.059 310.452 122.996 310.302 121.956C310.157 120.913 309.955 119.909 309.694 118.942C309.573 118.485 309.442 118.04 309.303 117.607C309.165 117.173 309.008 116.718 308.835 116.24L310.285 116.101C310.377 116.344 310.461 116.584 310.536 116.822C310.617 117.057 310.696 117.3 310.771 117.552C310.852 117.801 310.933 118.064 311.014 118.34C311.095 118.617 311.185 118.917 311.283 119.24C311.416 119.697 311.546 120.118 311.674 120.502C311.807 120.883 311.957 121.237 312.125 121.565C312.299 121.896 312.496 122.194 312.716 122.459C312.941 122.721 313.216 122.96 313.54 123.176C314.021 123.496 314.383 123.56 314.626 123.367C314.736 123.288 314.825 123.17 314.895 123.015C314.964 122.852 315.019 122.67 315.06 122.467C315.106 122.268 315.138 122.053 315.155 121.821C315.173 121.589 315.181 121.359 315.181 121.129C315.181 120.83 315.167 120.532 315.138 120.234C315.115 119.94 315.089 119.693 315.06 119.493L316.762 120.252Z" fill="black"/>
<path d="M44.9265 217.165L44.9269 223.956L178.68 314.064L366.277 190.834L366.277 184.662L231.548 94.1728L44.9265 217.165Z" fill="#E7E7E7" stroke="black"/>
<path d="M44.2633 216.95L44.2635 223.338L178.088 313.546L178.088 306.662L44.2633 216.95Z" fill="#A3A3A3" stroke="black"/>
<path d="M366.338 184.496L231.171 94.0532L44.3189 216.382L178.64 306.598L366.338 184.496Z" fill="#E7E7E7" stroke="black"/>
<path d="M52.6583 210.818L44.2308 216.436L178.648 306.716L186.455 301.511L52.6583 210.818Z" fill="#A3A3A3" stroke="black"/>
<path d="M194.815 205.747C196.23 206.844 196.867 208.027 196.726 209.296C196.579 210.561 195.675 211.747 194.014 212.855C192.191 214.07 190.149 214.616 187.889 214.492C185.622 214.364 183.424 213.585 181.293 212.154L180.427 211.572C179.064 210.657 178.103 209.69 177.544 208.671C176.985 207.653 176.874 206.66 177.211 205.694C177.553 204.723 178.315 203.844 179.496 203.057C181.134 201.965 182.893 201.38 184.772 201.302C186.651 201.224 188.46 201.664 190.198 202.623L187.273 204.574C186.285 204.003 185.366 203.727 184.516 203.745C183.666 203.763 182.793 204.071 181.896 204.669C180.923 205.317 180.543 206.038 180.756 206.831C180.963 207.621 181.794 208.512 183.249 209.505L184.314 210.221C185.845 211.249 187.196 211.847 188.37 212.015C189.543 212.176 190.631 211.922 191.632 211.255C192.535 210.653 193.001 210.067 193.031 209.499C193.067 208.926 192.686 208.326 191.89 207.698L194.815 205.747ZM195.467 204.455C194.422 203.753 193.692 202.995 193.277 202.182C192.862 201.361 192.811 200.549 193.125 199.745C193.433 198.936 194.087 198.199 195.089 197.531C196.513 196.582 198.109 196.101 199.878 196.089C201.647 196.068 203.332 196.526 204.932 197.461L205.668 197.932C207.279 199.014 208.122 200.184 208.195 201.442C208.268 202.699 207.543 203.835 206.021 204.85C204.498 205.865 202.798 206.35 200.919 206.304C199.046 206.254 197.272 205.667 195.597 204.542L195.467 204.455ZM198.497 202.713C199.496 203.384 200.449 203.773 201.357 203.879C202.258 203.981 203.059 203.799 203.76 203.332C204.443 202.876 204.715 202.347 204.578 201.743C204.44 201.132 203.796 200.44 202.647 199.668C201.671 199.013 200.721 198.634 199.796 198.532C198.871 198.422 198.061 198.598 197.367 199.061C196.678 199.52 196.414 200.056 196.575 200.667C196.73 201.275 197.371 201.957 198.497 202.713ZM213.074 195.302L207.942 189.229L210.886 187.267L217.851 196.709L215.168 198.497L201.083 193.801L204.027 191.839L213.074 195.302ZM227.689 190.405C226.144 191.435 224.414 191.958 222.5 191.974C220.581 191.986 218.833 191.463 217.256 190.404L216.979 190.218C215.922 189.508 215.181 188.739 214.754 187.91C214.334 187.078 214.274 186.259 214.576 185.455C214.873 184.647 215.501 183.923 216.462 183.282C217.903 182.321 219.494 181.872 221.234 181.933C222.974 181.986 224.676 182.571 226.339 183.688L227.491 184.462L220.771 188.942C221.551 189.342 222.377 189.529 223.25 189.503C224.123 189.478 224.91 189.231 225.611 188.764C226.699 188.039 227.154 187.21 226.976 186.277L229.907 186.387C230.085 187.072 229.98 187.768 229.592 188.475C229.203 189.175 228.569 189.818 227.689 190.405ZM218.731 184.818C218.17 185.192 217.903 185.621 217.931 186.105C217.96 186.589 218.277 187.1 218.883 187.639L222.807 185.022L222.582 184.871C221.947 184.46 221.294 184.25 220.623 184.241C219.958 184.228 219.328 184.421 218.731 184.818ZM231.459 177.075C231.025 177.295 230.664 177.501 230.374 177.694C229.303 178.408 228.964 179.117 229.356 179.822L236.242 184.447L233.429 186.323L222.905 179.254L225.561 177.483L226.895 178.274C226.493 177.244 226.792 176.396 227.793 175.728C228.106 175.52 228.441 175.354 228.8 175.231L231.459 177.075Z" fill="black"/>
<path d="M217.377 85.1019C217.54 84.7983 217.54 84.4818 217.377 84.3948L214.73 82.9779C214.567 82.8909 214.304 83.0665 214.142 83.3701C213.979 83.6737 213.979 83.9903 214.142 84.0772L216.495 85.3367L214.142 89.7341C213.979 90.0376 213.979 90.3542 214.142 90.4412C214.304 90.5281 214.567 90.3525 214.73 90.0489L217.377 85.1019ZM163 121.5L217.083 85.4445V84.4445L163 120.5V121.5Z" fill="black"/>
<path d="M367.889 166.613C368.051 166.526 368.051 166.209 367.889 165.906L365.241 160.959C365.079 160.655 364.816 160.48 364.653 160.567C364.491 160.653 364.491 160.97 364.653 161.274L367.006 165.671L364.653 166.93C364.491 167.017 364.491 167.334 364.653 167.638C364.816 167.941 365.079 168.117 365.241 168.03L367.889 166.613ZM321 135.5L367.595 166.563V165.563L321 134.5V135.5Z" fill="black"/>
<path d="M235.706 78.4503C235.543 78.5373 235.543 78.8539 235.706 79.1574L238.353 84.1045C238.516 84.408 238.779 84.5836 238.942 84.4967C239.104 84.4097 239.104 84.0932 238.942 83.7896L236.588 79.3922L238.942 78.1327C239.104 78.0458 239.104 77.7292 238.942 77.4256C238.779 77.1221 238.516 76.9464 238.353 77.0334L235.706 78.4503ZM236 79.5L282.595 110.563V109.563L236 78.5V79.5Z" fill="black"/>
<path d="M42.7058 199.898C42.5434 200.202 42.5434 200.518 42.7058 200.605L45.3534 202.022C45.5159 202.109 45.7793 201.933 45.9417 201.63C46.1042 201.326 46.1042 201.01 45.9417 200.923L43.5883 199.663L45.9417 195.266C46.1042 194.962 46.1042 194.646 45.9417 194.559C45.7793 194.472 45.5159 194.648 45.3534 194.951L42.7058 199.898ZM43 200.556L97.0833 164.5V163.5L43 199.556V200.556Z" fill="black"/>
<path d="M163.11 359.744C162.312 359.744 161.575 359.645 160.898 359.445C160.221 359.25 159.643 358.954 159.166 358.555C158.688 358.161 158.328 357.664 158.087 357.066C157.892 356.598 157.795 356.067 157.795 355.473C157.795 355.315 157.802 355.153 157.816 354.986C157.844 354.666 157.881 354.339 157.927 354.005C157.978 353.671 158.046 353.321 158.129 352.955C158.217 352.584 158.328 352.192 158.463 351.779C158.597 351.366 158.764 350.921 158.964 350.443L160.397 351.104C160.207 351.577 160.049 352.016 159.924 352.419C159.799 352.818 159.699 353.189 159.625 353.532C159.555 353.875 159.506 354.198 159.479 354.499C159.451 354.801 159.437 355.09 159.437 355.369C159.437 355.703 159.479 356.002 159.562 356.266C159.65 356.53 159.761 356.767 159.896 356.976C160.077 357.221 160.304 357.409 160.578 357.539C160.851 357.674 161.139 357.771 161.44 357.831C161.746 357.892 162.046 357.926 162.338 357.936C162.634 357.95 162.892 357.957 163.11 357.957C163.24 357.957 163.428 357.947 163.673 357.929C163.924 357.91 164.195 357.878 164.487 357.831C164.784 357.785 165.088 357.725 165.399 357.65C165.709 357.576 165.99 357.483 166.24 357.372C166.495 357.261 166.702 357.131 166.859 356.983C167.022 356.834 167.103 356.66 167.103 356.461C167.103 356.428 167.061 356.377 166.978 356.308C166.899 356.243 166.788 356.169 166.644 356.085C166.505 356.002 166.34 355.914 166.15 355.821C165.96 355.733 165.756 355.647 165.538 355.563C165.218 355.457 164.9 355.378 164.585 355.327C164.269 355.276 163.956 355.223 163.646 355.167L163.882 353.428H169.406V355.209H168.105C168.29 355.436 168.413 355.659 168.473 355.877C168.538 356.099 168.573 356.294 168.578 356.461C168.559 356.869 168.455 357.233 168.265 357.553C168.074 357.878 167.829 358.161 167.527 358.402C167.23 358.648 166.892 358.854 166.512 359.021C166.131 359.192 165.742 359.332 165.343 359.438C164.944 359.545 164.55 359.621 164.16 359.668C163.775 359.719 163.425 359.744 163.11 359.744ZM169.134 353.428H169.273C169.575 353.428 169.874 353.428 170.171 353.428C170.472 353.428 170.727 353.416 170.936 353.393C170.843 353.333 170.741 353.247 170.63 353.136C170.519 353.02 170.414 352.885 170.317 352.732C170.224 352.574 170.143 352.398 170.073 352.203C170.009 352.004 169.974 351.786 169.969 351.55C169.964 351.489 169.962 351.429 169.962 351.369C169.962 351.179 169.988 350.968 170.039 350.736C170.094 350.499 170.182 350.258 170.303 350.012C170.428 349.766 170.579 349.537 170.755 349.323C170.931 349.106 171.126 348.918 171.34 348.76C171.553 348.598 171.782 348.472 172.028 348.384C172.246 348.306 172.471 348.266 172.703 348.266C172.731 348.266 172.756 348.266 172.78 348.266C173.155 348.28 173.503 348.377 173.823 348.558C174.148 348.734 174.428 348.964 174.665 349.247C174.901 349.53 175.087 349.852 175.221 350.214C175.356 350.571 175.423 350.937 175.423 351.313C175.423 351.675 175.356 352.025 175.221 352.363C175.091 352.697 174.922 353.01 174.713 353.303C174.936 353.34 175.177 353.37 175.437 353.393C175.701 353.416 175.952 353.428 176.188 353.428H176.376V355.209H176.237C175.88 355.209 175.534 355.202 175.2 355.188C174.871 355.179 174.56 355.153 174.268 355.111C173.976 355.07 173.702 355.012 173.447 354.937C173.197 354.859 172.974 354.752 172.78 354.617C172.64 354.719 172.441 354.808 172.181 354.882C171.926 354.956 171.639 355.016 171.319 355.063C170.999 355.114 170.66 355.151 170.303 355.174C169.951 355.197 169.607 355.209 169.273 355.209H169.134V353.428ZM172.759 350.026C172.638 350.049 172.499 350.098 172.341 350.172C172.188 350.242 172.042 350.341 171.903 350.471C171.769 350.597 171.653 350.752 171.555 350.937C171.462 351.123 171.416 351.343 171.416 351.598C171.416 351.682 171.455 351.791 171.534 351.925C171.613 352.055 171.717 352.187 171.847 352.322C171.977 352.452 172.126 352.574 172.293 352.69C172.46 352.802 172.631 352.881 172.807 352.927C172.946 352.857 173.081 352.767 173.211 352.656C173.345 352.544 173.464 352.424 173.566 352.294C173.668 352.159 173.749 352.023 173.809 351.883C173.874 351.74 173.906 351.603 173.906 351.473C173.906 351.292 173.867 351.121 173.788 350.958C173.714 350.791 173.619 350.643 173.503 350.513C173.387 350.383 173.262 350.277 173.127 350.193C172.997 350.105 172.875 350.049 172.759 350.026ZM172.585 346.04L171.402 347.223L170.206 346.033L171.388 344.843L172.585 346.04ZM175.214 346.047L174.032 347.237L172.835 346.04L174.018 344.857L175.214 346.047ZM176.27 353.428C176.757 353.428 177.225 353.414 177.675 353.386C178.125 353.354 178.536 353.31 178.907 353.254C179.278 353.198 179.598 353.131 179.867 353.052C180.136 352.973 180.337 352.885 180.472 352.788H179.762C179.354 352.788 178.965 352.737 178.593 352.635C178.227 352.528 177.905 352.37 177.627 352.162C177.348 351.953 177.126 351.693 176.959 351.383C176.796 351.067 176.715 350.701 176.715 350.283C176.715 350.038 176.741 349.785 176.792 349.525C176.843 349.266 176.919 349.013 177.021 348.767C177.123 348.521 177.246 348.289 177.39 348.071C177.534 347.853 177.698 347.663 177.884 347.501C178.069 347.334 178.273 347.204 178.496 347.111C178.719 347.014 178.96 346.965 179.22 346.965C179.54 346.965 179.839 347.032 180.117 347.167C180.395 347.301 180.648 347.485 180.875 347.717C181.102 347.944 181.304 348.208 181.48 348.51C181.657 348.811 181.805 349.129 181.926 349.463C182.046 349.797 182.137 350.137 182.197 350.485C182.262 350.828 182.294 351.155 182.294 351.466C182.294 351.995 182.22 352.454 182.072 352.843C181.928 353.233 181.724 353.567 181.46 353.845C181.2 354.123 180.887 354.351 180.52 354.527C180.159 354.703 179.758 354.842 179.317 354.944C178.876 355.046 178.403 355.116 177.898 355.153C177.397 355.19 176.878 355.209 176.34 355.209H176.103V353.428H176.27ZM179.22 348.76C179.196 348.755 179.173 348.753 179.15 348.753C179.057 348.753 178.951 348.79 178.83 348.864C178.709 348.939 178.593 349.045 178.482 349.184C178.371 349.323 178.28 349.481 178.211 349.657C178.141 349.829 178.107 349.998 178.107 350.165C178.107 350.174 178.107 350.184 178.107 350.193C178.107 350.36 178.144 350.497 178.218 350.603C178.292 350.706 178.392 350.784 178.517 350.84C178.647 350.896 178.795 350.935 178.962 350.958C179.134 350.981 179.315 350.998 179.505 351.007C179.63 351.012 179.76 351.014 179.894 351.014C179.959 351.014 180.059 351.014 180.193 351.014C180.333 351.009 180.474 351.002 180.618 350.993C180.576 350.826 180.516 350.62 180.437 350.374C180.363 350.123 180.268 349.882 180.152 349.65C180.04 349.414 179.906 349.21 179.748 349.038C179.595 348.867 179.419 348.774 179.22 348.76ZM180.5 344.704L179.164 346.04L177.835 344.704L179.164 343.376L180.5 344.704ZM185.532 344.141C185.648 345.027 185.729 345.873 185.775 346.68C185.821 347.482 185.849 348.268 185.859 349.038C185.868 349.692 185.87 350.297 185.866 350.854C185.866 351.41 185.861 351.93 185.852 352.412C185.842 352.89 185.828 353.337 185.81 353.755C185.791 354.168 185.773 354.555 185.754 354.917L183.932 355.195C184.029 353.664 184.078 352.312 184.078 351.139C184.078 350.666 184.071 350.223 184.057 349.81C184.02 348.86 183.978 347.967 183.932 347.132C183.885 346.293 183.823 345.49 183.744 344.725L185.532 344.141ZM197.157 359.744C196.359 359.744 195.622 359.645 194.945 359.445C194.267 359.25 193.69 358.954 193.212 358.555C192.735 358.161 192.375 357.664 192.134 357.066C191.939 356.598 191.842 356.067 191.842 355.473C191.842 355.315 191.849 355.153 191.863 354.986C191.891 354.666 191.928 354.339 191.974 354.005C192.025 353.671 192.092 353.321 192.176 352.955C192.264 352.584 192.375 352.192 192.51 351.779C192.644 351.366 192.811 350.921 193.011 350.443L194.444 351.104C194.254 351.577 194.096 352.016 193.971 352.419C193.845 352.818 193.746 353.189 193.672 353.532C193.602 353.875 193.553 354.198 193.525 354.499C193.498 354.801 193.484 355.09 193.484 355.369C193.484 355.703 193.525 356.002 193.609 356.266C193.697 356.53 193.808 356.767 193.943 356.976C194.124 357.221 194.351 357.409 194.625 357.539C194.898 357.674 195.186 357.771 195.487 357.831C195.793 357.892 196.092 357.926 196.385 357.936C196.681 357.95 196.939 357.957 197.157 357.957C197.287 357.957 197.474 357.947 197.72 357.929C197.971 357.91 198.242 357.878 198.534 357.831C198.831 357.785 199.135 357.725 199.445 357.65C199.756 357.576 200.037 357.483 200.287 357.372C200.542 357.261 200.749 357.131 200.906 356.983C201.069 356.834 201.15 356.66 201.15 356.461C201.15 356.428 201.108 356.377 201.025 356.308C200.946 356.243 200.834 356.169 200.691 356.085C200.552 356.002 200.387 355.914 200.197 355.821C200.007 355.733 199.803 355.647 199.585 355.563C199.265 355.457 198.947 355.378 198.632 355.327C198.316 355.276 198.003 355.223 197.692 355.167L197.929 353.428H203.452V355.209H202.152C202.337 355.436 202.46 355.659 202.52 355.877C202.585 356.099 202.62 356.294 202.625 356.461C202.606 356.869 202.502 357.233 202.312 357.553C202.121 357.878 201.876 358.161 201.574 358.402C201.277 358.648 200.939 358.854 200.558 359.021C200.178 359.192 199.789 359.332 199.39 359.438C198.991 359.545 198.597 359.621 198.207 359.668C197.822 359.719 197.472 359.744 197.157 359.744ZM203.473 353.428C203.71 353.428 203.932 353.381 204.141 353.289C204.355 353.191 204.556 353.02 204.746 352.774C204.941 352.523 205.122 352.183 205.289 351.751C205.461 351.32 205.623 350.768 205.776 350.096L207.48 350.576C207.369 350.961 207.269 351.332 207.181 351.689C207.093 352.041 207.044 352.345 207.035 352.6C207.035 352.623 207.035 352.644 207.035 352.663C207.035 352.746 207.042 352.834 207.056 352.927C207.075 353.02 207.105 353.106 207.146 353.184C207.188 353.263 207.244 353.326 207.313 353.372C207.378 353.414 207.45 353.435 207.529 353.435C207.538 353.435 207.548 353.435 207.557 353.435C207.728 353.43 207.891 353.368 208.044 353.247C208.197 353.126 208.338 352.971 208.468 352.781C208.603 352.591 208.723 352.375 208.83 352.134C208.941 351.893 209.039 351.649 209.122 351.403C209.21 351.153 209.284 350.91 209.345 350.673C209.405 350.437 209.451 350.228 209.484 350.047L211.126 350.381C211.065 350.659 211.017 350.917 210.979 351.153C210.942 351.385 210.919 351.619 210.91 351.856C210.905 351.916 210.903 351.976 210.903 352.037C210.903 352.152 210.91 352.289 210.924 352.447C210.942 352.6 210.982 352.751 211.042 352.899C211.102 353.048 211.186 353.17 211.292 353.268C211.404 353.361 211.548 353.407 211.724 353.407C211.923 353.407 212.083 353.33 212.204 353.177C212.329 353.02 212.424 352.82 212.489 352.579C212.554 352.338 212.596 352.071 212.614 351.779C212.637 351.482 212.649 351.195 212.649 350.917C212.649 350.828 212.647 350.759 212.642 350.708C212.642 350.652 212.642 350.601 212.642 350.555C212.642 350.508 212.64 350.457 212.635 350.402C212.635 350.341 212.635 350.26 212.635 350.158L214.395 350.019C214.409 350.172 214.423 350.323 214.437 350.471C214.451 350.615 214.465 350.766 214.479 350.923C214.492 351.077 214.509 351.241 214.527 351.417C214.55 351.589 214.576 351.777 214.604 351.981C214.636 352.222 214.704 352.433 214.806 352.614C214.912 352.795 215.035 352.946 215.174 353.066C215.313 353.187 215.462 353.277 215.619 353.337C215.782 353.398 215.935 353.428 216.079 353.428H216.336V355.209H216.113C215.886 355.209 215.661 355.186 215.439 355.139C215.221 355.093 215.012 355.021 214.812 354.923C214.613 354.826 214.425 354.703 214.249 354.555C214.077 354.402 213.927 354.221 213.797 354.012C213.574 354.374 213.282 354.664 212.92 354.882C212.559 355.1 212.16 355.209 211.724 355.209C211.288 355.209 210.891 355.104 210.534 354.896C210.182 354.687 209.901 354.409 209.692 354.061C209.558 354.232 209.412 354.39 209.254 354.534C209.101 354.673 208.934 354.796 208.753 354.903C208.577 355.005 208.389 355.083 208.19 355.139C207.99 355.199 207.782 355.23 207.564 355.23C207.355 355.23 207.153 355.202 206.959 355.146C206.764 355.095 206.583 355.019 206.416 354.917C206.249 354.814 206.098 354.692 205.964 354.548C205.829 354.399 205.718 354.235 205.63 354.054C205.398 354.462 205.113 354.757 204.774 354.937C204.436 355.118 204.004 355.209 203.48 355.209H203.181V353.428H203.473ZM222.261 353.428V355.209H222.122C221.672 355.209 221.292 355.137 220.981 354.993C220.671 354.849 220.406 354.664 220.188 354.437C220.035 354.631 219.808 354.782 219.507 354.889C219.21 354.991 218.878 355.065 218.512 355.111C218.145 355.162 217.767 355.19 217.378 355.195C216.993 355.204 216.638 355.209 216.314 355.209H216.056V353.428H216.314C216.856 353.428 217.313 353.398 217.684 353.337C218.055 353.272 218.354 353.18 218.581 353.059C218.813 352.939 218.98 352.788 219.082 352.607C219.184 352.421 219.235 352.208 219.235 351.967C219.235 351.809 219.205 351.601 219.145 351.341C219.085 351.077 218.994 350.738 218.874 350.325L220.585 349.845C220.645 350.049 220.692 350.23 220.724 350.388C220.761 350.541 220.789 350.696 220.807 350.854C220.831 351.007 220.849 351.174 220.863 351.355C220.882 351.531 220.9 351.742 220.919 351.988C220.933 352.136 220.967 352.296 221.023 352.468C221.079 352.635 221.155 352.79 221.253 352.934C221.355 353.073 221.478 353.191 221.621 353.289C221.765 353.381 221.932 353.428 222.122 353.428H222.261ZM218.644 357.268L217.461 358.45L216.265 357.261L217.447 356.071L218.644 357.268ZM221.274 357.275L220.091 358.464L218.894 357.268L220.077 356.085L221.274 357.275ZM221.978 353.428H222.486C222.653 353.428 222.808 353.414 222.952 353.386C223.096 353.358 223.223 353.3 223.335 353.212C223.446 353.119 223.536 352.992 223.606 352.83C223.675 352.667 223.72 352.449 223.738 352.176C223.738 352.069 223.74 351.883 223.745 351.619C223.754 351.35 223.761 351.032 223.766 350.666C223.771 350.295 223.775 349.889 223.78 349.449C223.784 349.008 223.787 348.558 223.787 348.099C223.787 347.742 223.784 347.392 223.78 347.049C223.78 346.701 223.775 346.367 223.766 346.047C223.761 345.727 223.75 345.426 223.731 345.143C223.717 344.86 223.696 344.602 223.668 344.37L225.442 344.141C225.475 344.391 225.5 344.674 225.519 344.99C225.537 345.305 225.551 345.641 225.561 345.998C225.575 346.351 225.582 346.722 225.582 347.111C225.586 347.496 225.588 347.886 225.588 348.28C225.588 349.157 225.579 349.919 225.561 350.569C225.547 351.218 225.54 351.793 225.54 352.294C225.54 352.646 225.63 352.925 225.811 353.129C225.992 353.328 226.261 353.428 226.618 353.428H226.771V355.209H226.618C226.59 355.209 226.565 355.209 226.542 355.209C226.361 355.209 226.182 355.192 226.006 355.16C225.834 355.132 225.667 355.088 225.505 355.028C225.347 354.972 225.201 354.905 225.067 354.826C224.932 354.747 224.814 354.666 224.712 354.583C224.577 354.712 224.429 354.819 224.267 354.903C224.109 354.981 223.947 355.044 223.78 355.09C223.613 355.137 223.448 355.167 223.286 355.181C223.124 355.199 222.977 355.209 222.848 355.209H221.978V353.428ZM226.494 353.428H228.657C228.926 353.428 229.167 353.395 229.381 353.33C229.599 353.266 229.782 353.182 229.93 353.08C230.079 352.973 230.192 352.853 230.271 352.718C230.355 352.579 230.396 352.438 230.396 352.294C230.396 352.071 230.352 351.83 230.264 351.57C230.176 351.306 230.058 351.039 229.909 350.77C229.766 350.497 229.594 350.223 229.395 349.95C229.2 349.671 228.993 349.407 228.775 349.157C228.557 348.901 228.333 348.665 228.101 348.447C227.873 348.229 227.655 348.037 227.447 347.87L227.614 345.908L233.701 343.334L234.348 344.927L229.095 347.083C229.453 347.394 229.763 347.703 230.028 348.009C230.297 348.31 230.535 348.614 230.744 348.92C230.957 349.221 231.15 349.525 231.322 349.831C231.493 350.137 231.66 350.446 231.822 350.757C231.938 350.979 232.054 351.197 232.17 351.41C232.286 351.624 232.411 351.842 232.546 352.064V352.057C232.671 352.266 232.803 352.454 232.942 352.621C233.086 352.788 233.239 352.932 233.402 353.052C233.568 353.173 233.749 353.266 233.944 353.33C234.144 353.395 234.362 353.428 234.598 353.428H235.036V355.209H234.835C234.464 355.209 234.127 355.183 233.826 355.132C233.524 355.081 233.244 355 232.984 354.889C232.729 354.777 232.488 354.636 232.261 354.464C232.038 354.288 231.818 354.077 231.6 353.831C231.437 354.072 231.254 354.279 231.05 354.45C230.846 354.617 230.626 354.757 230.389 354.868C230.153 354.974 229.902 355.053 229.638 355.104C229.378 355.16 229.109 355.195 228.831 355.209H226.494V353.428ZM233.485 342.68L227.614 345.073L227.662 344.176L233.144 341.97L233.485 342.68ZM234.759 353.428H235.879C236.097 353.428 236.32 353.416 236.547 353.393C236.779 353.365 236.988 353.312 237.173 353.233C237.359 353.15 237.509 353.031 237.625 352.878C237.746 352.725 237.806 352.521 237.806 352.266C237.806 352.146 237.781 351.976 237.73 351.758C237.679 351.54 237.611 351.299 237.528 351.035C237.445 350.77 237.345 350.497 237.229 350.214C237.118 349.931 236.999 349.667 236.874 349.421L238.481 348.628C238.597 348.892 238.713 349.173 238.829 349.47C238.945 349.766 239.047 350.072 239.135 350.388C239.228 350.699 239.302 351.012 239.358 351.327C239.413 351.642 239.441 351.951 239.441 352.252C239.441 352.772 239.353 353.219 239.177 353.595C239 353.966 238.755 354.272 238.439 354.513C238.124 354.75 237.746 354.923 237.305 355.035C236.869 355.151 236.389 355.209 235.865 355.209H234.759V353.428ZM238.314 346.27L236.978 347.605L235.65 346.27L236.978 344.941L238.314 346.27ZM242.657 344.141C242.773 345.027 242.854 345.873 242.9 346.68C242.946 347.482 242.974 348.268 242.984 349.038C242.993 349.692 242.995 350.297 242.991 350.854C242.991 351.41 242.986 351.93 242.977 352.412C242.967 352.89 242.953 353.337 242.935 353.755C242.916 354.168 242.898 354.555 242.879 354.917L241.057 355.195C241.154 353.664 241.203 352.312 241.203 351.139C241.203 350.666 241.196 350.223 241.182 349.81C241.145 348.86 241.103 347.967 241.057 347.132C241.01 346.293 240.948 345.49 240.869 344.725L242.657 344.141Z" fill="black"/>
</svg>
