<svg width="400" height="400" viewBox="0 0 400 400" fill="none" xmlns="http://www.w3.org/2000/svg">
<rect width="400" height="400" fill="white"/>
<path d="M174.025 43.0104C174.234 42.9641 174.447 42.9362 174.665 42.927C174.726 42.9223 174.786 42.92 174.846 42.92C174.999 42.92 175.166 42.9316 175.347 42.9548C175.533 42.978 175.727 43.022 175.931 43.087C176.14 43.1519 176.34 43.2354 176.53 43.3374L175.897 45.007C175.655 44.9003 175.405 44.8284 175.145 44.7913C175.034 44.7774 174.925 44.7704 174.818 44.7704C174.665 44.7704 174.512 44.7843 174.359 44.8122C174.202 44.8261 174.032 44.8725 173.851 44.9513C173.671 45.0301 173.49 45.1322 173.309 45.2574C173.133 45.378 172.961 45.5194 172.794 45.6817C172.632 45.8394 172.488 46.0087 172.363 46.1896C172.237 46.3658 172.135 46.549 172.057 46.7391C171.982 46.9246 171.945 47.1055 171.945 47.2817C171.945 47.4812 171.992 47.6388 172.084 47.7548C172.182 47.8661 172.309 47.9588 172.467 48.033C172.629 48.1026 172.815 48.1606 173.024 48.207C173.232 48.2487 173.45 48.2997 173.677 48.36C173.956 48.4249 174.236 48.4991 174.519 48.5826C174.802 48.6661 175.057 48.782 175.284 48.9304C175.512 49.0742 175.693 49.2643 175.827 49.5009C175.943 49.7096 176.001 49.967 176.001 50.273C176.001 50.3148 175.999 50.3588 175.994 50.4052C175.966 50.8922 175.855 51.3212 175.66 51.6922C175.465 52.0678 175.213 52.3925 174.902 52.6661C174.591 52.9397 174.236 53.167 173.837 53.3478C173.439 53.5333 173.021 53.6817 172.585 53.793C172.149 53.9043 171.709 53.9832 171.264 54.0296C170.818 54.0759 170.394 54.0991 169.991 54.0991C169.174 54.0991 168.428 53.9901 167.751 53.7722C167.078 53.5542 166.51 53.2296 166.046 52.7983C165.582 52.3716 165.246 51.8383 165.037 51.1983C164.898 50.7809 164.829 50.3194 164.829 49.8139C164.829 49.5449 164.847 49.2667 164.884 48.9791C164.922 48.673 164.973 48.3623 165.037 48.047C165.102 47.7316 165.172 47.4278 165.246 47.1357C165.32 46.8388 165.397 46.5583 165.476 46.2939C165.555 46.0296 165.626 45.7977 165.691 45.5983C165.756 45.3988 165.812 45.2365 165.858 45.1113C165.905 44.9861 165.933 44.9142 165.942 44.8957L167.472 45.5148C167.361 45.8626 167.259 46.1896 167.166 46.4957C167.073 46.7971 166.99 47.0939 166.916 47.3861C166.842 47.6783 166.774 47.9728 166.714 48.2696C166.658 48.5617 166.61 48.8725 166.568 49.2017C166.549 49.3548 166.54 49.5032 166.54 49.647C166.54 49.9762 166.603 50.3032 166.728 50.6278C166.858 50.9571 167.078 51.247 167.389 51.4974C167.704 51.7525 168.084 51.9426 168.53 52.0678C168.975 52.193 169.462 52.2557 169.991 52.2557C170.607 52.2557 171.18 52.207 171.709 52.1096C172.242 52.0168 172.704 51.8916 173.093 51.7339C173.487 51.5762 173.8 51.3977 174.032 51.1983C174.269 51.0035 174.401 50.8017 174.429 50.593C174.424 50.5513 174.38 50.5119 174.297 50.4748C174.213 50.4377 174.109 50.4006 173.984 50.3635C173.858 50.331 173.719 50.2962 173.566 50.2591C173.418 50.2267 173.274 50.1919 173.135 50.1548C172.745 50.0574 172.384 49.9461 172.05 49.8209C171.716 49.7003 171.426 49.5403 171.18 49.3409C170.934 49.1414 170.742 48.8887 170.603 48.5826C170.464 48.2765 170.394 47.8916 170.394 47.4278C170.417 46.9177 170.524 46.4214 170.714 45.9391C170.904 45.4568 171.159 45.0186 171.479 44.6243C171.804 44.2255 172.182 43.8846 172.613 43.6017C173.044 43.3188 173.515 43.1217 174.025 43.0104ZM183.309 49.2087H183.093C182.972 49.2087 182.819 49.1948 182.634 49.167C182.453 49.1391 182.254 49.0557 182.036 48.9165C181.975 49.5009 181.797 50.0597 181.5 50.593C181.203 51.131 180.83 51.6342 180.38 52.1026C179.935 52.571 179.432 53 178.87 53.3896C178.314 53.7791 177.741 54.12 177.152 54.4122L176.373 52.8052C176.698 52.6383 177.025 52.4574 177.354 52.2626C177.679 52.0678 177.989 51.8591 178.286 51.6365C178.583 51.4139 178.859 51.182 179.114 50.9409C179.374 50.6997 179.596 50.447 179.782 50.1826C179.972 49.9183 180.12 49.647 180.227 49.3687C180.338 49.0904 180.394 48.8052 180.394 48.513C180.394 48.3043 180.364 48.0748 180.303 47.8243C180.243 47.5693 180.167 47.3049 180.074 47.0313C179.981 46.7577 179.881 46.4817 179.775 46.2035C179.668 45.9206 179.571 45.647 179.483 45.3826L181.152 44.687C181.333 45.2296 181.498 45.6794 181.646 46.0365C181.799 46.389 181.948 46.6696 182.091 46.8783C182.24 47.0823 182.393 47.2261 182.55 47.3096C182.713 47.3884 182.896 47.4278 183.1 47.4278H183.316L183.309 49.2087ZM183.033 47.4278H184.514C184.732 47.4278 184.967 47.4162 185.217 47.393C185.472 47.3652 185.706 47.3119 185.92 47.233C186.138 47.1496 186.316 47.0313 186.455 46.8783C186.599 46.7252 186.671 46.5212 186.671 46.2661C186.671 46.1455 186.645 45.9762 186.594 45.7583C186.543 45.5403 186.476 45.2991 186.393 45.0348C186.309 44.7704 186.21 44.4968 186.094 44.2139C185.982 43.931 185.864 43.6667 185.739 43.4209L187.346 42.6278C187.462 42.8922 187.578 43.1728 187.694 43.4696C187.81 43.7664 187.912 44.0725 188 44.3878C188.092 44.6986 188.167 45.0116 188.222 45.327C188.278 45.6423 188.306 45.9507 188.306 46.2522C188.306 46.7901 188.206 47.247 188.007 47.6226C187.807 47.9983 187.534 48.3043 187.186 48.5409C186.843 48.7728 186.439 48.942 185.975 49.0487C185.516 49.1554 185.025 49.2087 184.501 49.2087H183.033V47.4278ZM185.621 51.2678L184.438 52.4504L183.241 51.2609L184.424 50.0713L185.621 51.2678ZM188.25 51.2748L187.068 52.4643L185.871 51.2678L187.054 50.0852L188.25 51.2748ZM193.915 44.5826C194.007 44.8748 194.103 45.1809 194.2 45.5009C194.302 45.8162 194.392 46.1362 194.471 46.4609C194.555 46.7855 194.622 47.1101 194.673 47.4348C194.724 47.7548 194.749 48.0678 194.749 48.3739C194.749 48.7913 194.685 49.1971 194.555 49.5913C194.429 49.9901 194.253 50.3728 194.026 50.7391C193.803 51.1101 193.537 51.4626 193.226 51.7965C192.92 52.1304 192.586 52.4458 192.224 52.7426C191.863 53.0394 191.48 53.3154 191.076 53.5704C190.673 53.8255 190.265 54.0551 189.852 54.2591L189.059 52.6661C189.388 52.5038 189.713 52.3229 190.033 52.1235C190.353 51.9287 190.657 51.72 190.944 51.4974C191.236 51.2748 191.505 51.0406 191.751 50.7948C192.002 50.549 192.215 50.2939 192.391 50.0296C192.572 49.7652 192.714 49.4939 192.816 49.2157C192.918 48.9374 192.969 48.6568 192.969 48.3739C192.969 48.1096 192.938 47.8313 192.878 47.5391C192.818 47.247 192.744 46.9594 192.656 46.6765C192.572 46.389 192.484 46.113 192.391 45.8487C192.303 45.5843 192.229 45.3501 192.169 45.1461L193.915 44.5826ZM194.13 41.6191L192.795 42.9548L191.466 41.6191L192.795 40.2904L194.13 41.6191ZM198.791 44.687C198.67 44.687 198.541 44.738 198.401 44.84C198.262 44.942 198.135 45.0742 198.019 45.2365C197.903 45.3942 197.805 45.5704 197.727 45.7652C197.652 45.96 197.615 46.1501 197.615 46.3357C197.615 46.5304 197.659 46.6928 197.747 46.8226C197.84 46.9478 197.956 47.0499 198.095 47.1287C198.239 47.2075 198.399 47.2678 198.575 47.3096C198.756 47.3467 198.935 47.3745 199.111 47.393C199.208 47.3977 199.315 47.4023 199.431 47.407C199.547 47.4116 199.665 47.4162 199.786 47.4209C199.911 47.4209 200.034 47.4232 200.154 47.4278C200.275 47.4278 200.389 47.4278 200.495 47.4278C200.481 47.2562 200.447 47.0707 200.391 46.8713C200.34 46.6672 200.273 46.4632 200.189 46.2591C200.106 46.0551 200.011 45.8603 199.904 45.6748C199.797 45.4846 199.681 45.3177 199.556 45.1739C199.436 45.0255 199.31 44.9072 199.181 44.8191C199.051 44.731 198.921 44.687 198.791 44.687ZM195.633 52.3391C196.314 52.2046 196.929 52.0238 197.476 51.7965C198.028 51.5739 198.506 51.3235 198.909 51.0452C199.313 50.767 199.64 50.4701 199.89 50.1548C200.145 49.8394 200.314 49.5241 200.398 49.2087C200.022 49.2087 199.656 49.1971 199.299 49.1739C198.942 49.1507 198.603 49.1043 198.283 49.0348C197.968 48.9699 197.676 48.8771 197.407 48.7565C197.142 48.6313 196.913 48.469 196.718 48.2696C196.528 48.0655 196.379 47.8197 196.273 47.5322C196.166 47.2446 196.113 46.9014 196.113 46.5026C196.113 46.2475 196.141 45.9809 196.196 45.7026C196.252 45.4243 196.331 45.153 196.433 44.8887C196.539 44.6197 196.669 44.367 196.822 44.1304C196.975 43.8893 197.152 43.6783 197.351 43.4974C197.55 43.3119 197.771 43.1658 198.012 43.0591C198.253 42.9525 198.513 42.8991 198.791 42.8991C199.51 42.8991 200.166 43.2191 200.76 43.8591C200.973 44.0957 201.163 44.3646 201.33 44.6661C201.502 44.9629 201.645 45.2829 201.761 45.6261C201.882 45.9646 201.972 46.3194 202.033 46.6904C202.098 47.0614 202.13 47.4371 202.13 47.8174C202.13 48.411 202.054 48.9652 201.901 49.48C201.752 49.9994 201.541 50.4771 201.267 50.913C200.999 51.349 200.676 51.7409 200.301 52.0887C199.925 52.4412 199.512 52.7496 199.062 53.0139C198.612 53.2783 198.132 53.4986 197.622 53.6748C197.112 53.8557 196.588 53.9901 196.05 54.0783L195.633 52.3391ZM212.22 52.8748C212.489 52.9212 212.76 52.9443 213.034 52.9443C213.103 52.9443 213.24 52.9397 213.444 52.9304C213.648 52.9212 213.91 52.8794 214.23 52.8052C214.55 52.731 214.856 52.6313 215.149 52.5061C215.445 52.3809 215.717 52.2371 215.963 52.0748L216.902 53.633C216.633 53.7954 216.354 53.9438 216.067 54.0783C215.784 54.2174 215.49 54.3357 215.183 54.433C214.882 54.5304 214.569 54.6046 214.244 54.6557C213.961 54.702 213.672 54.7252 213.375 54.7252C213.328 54.7252 213.28 54.7252 213.229 54.7252C212.793 54.7159 212.357 54.6696 211.921 54.5861C211.49 54.5026 211.077 54.382 210.683 54.2243C210.293 54.0667 209.929 53.8696 209.59 53.633C209.256 53.4012 208.964 53.1299 208.714 52.8191C208.468 52.513 208.273 52.1675 208.13 51.7826C207.986 51.4023 207.912 50.9803 207.907 50.5165C207.921 50.0203 208.014 49.5565 208.185 49.1252C208.357 48.6986 208.584 48.309 208.867 47.9565C209.154 47.5994 209.484 47.2817 209.855 47.0035C210.23 46.7252 210.627 46.4864 211.044 46.287C210.896 46.1478 210.743 46.011 210.585 45.8765C210.432 45.7374 210.284 45.6075 210.14 45.487C209.996 45.3617 209.862 45.2481 209.736 45.1461C209.611 45.0394 209.507 44.949 209.423 44.8748L209.291 43.3861C209.899 42.8574 210.553 42.4609 211.253 42.1965C211.958 41.9275 212.693 41.793 213.458 41.793C213.685 41.793 213.92 41.8093 214.161 41.8417C214.407 41.8742 214.645 41.9252 214.877 41.9948C215.109 42.0643 215.327 42.1548 215.531 42.2661C215.735 42.3774 215.914 42.5142 216.067 42.6765C216.22 42.8342 216.341 43.0174 216.429 43.2261C216.507 43.4301 216.547 43.6574 216.547 43.9078C216.547 43.9217 216.547 43.9357 216.547 43.9496C216.528 44.302 216.459 44.6174 216.338 44.8957C216.222 45.1739 216.069 45.4243 215.879 45.647C215.689 45.8696 215.469 46.069 215.218 46.2452C214.972 46.4214 214.71 46.5838 214.432 46.7322C214.808 46.9409 215.207 47.1101 215.629 47.24C216.055 47.3652 216.47 47.4278 216.874 47.4278H217.11V49.2087H216.874C216.489 49.2087 216.116 49.1693 215.754 49.0904C215.392 49.0116 215.035 48.9003 214.683 48.7565C214.33 48.6081 213.98 48.4342 213.632 48.2348C213.284 48.0307 212.934 47.8058 212.582 47.56C212.243 47.6945 211.9 47.8522 211.552 48.033C211.204 48.2093 210.887 48.418 210.599 48.6591C210.316 48.8957 210.084 49.1646 209.903 49.4661C209.723 49.7675 209.632 50.1084 209.632 50.4887C209.632 50.702 209.674 50.9061 209.757 51.1009C209.845 51.2957 209.959 51.4765 210.098 51.6435C210.237 51.8151 210.397 51.9704 210.578 52.1096C210.759 52.2533 210.945 52.3762 211.135 52.4783C211.33 52.5849 211.52 52.6707 211.705 52.7357C211.895 52.8052 212.067 52.8516 212.22 52.8748ZM213.465 43.4904C213.28 43.4904 213.085 43.5043 212.881 43.5322C212.677 43.5554 212.475 43.5901 212.276 43.6365C212.076 43.6783 211.884 43.7316 211.698 43.7965C211.517 43.8568 211.357 43.9241 211.218 43.9983C211.316 44.1003 211.425 44.2186 211.545 44.353C211.666 44.4829 211.793 44.6197 211.928 44.7635C212.067 44.9072 212.208 45.051 212.352 45.1948C212.496 45.3339 212.637 45.4638 212.776 45.5843C213.083 45.4545 213.368 45.3223 213.632 45.1878C213.896 45.0533 214.126 44.9165 214.321 44.7774C214.52 44.6336 214.678 44.4852 214.794 44.3322C214.91 44.1791 214.97 44.0214 214.975 43.8591C214.97 43.8406 214.94 43.8128 214.884 43.7757C214.829 43.7386 214.738 43.7014 214.613 43.6643C214.492 43.6226 214.337 43.5855 214.147 43.553C213.961 43.5206 213.734 43.4997 213.465 43.4904ZM216.83 47.4278H217.887L217.936 47.3374C218.015 47.1983 218.126 47.0151 218.27 46.7878C218.418 46.5559 218.604 46.2939 218.826 46.0017C218.868 45.7096 218.903 45.3409 218.93 44.8957C218.958 44.4504 218.975 43.9681 218.979 43.4487C218.979 43.1658 218.975 42.8759 218.965 42.5791C218.956 42.2777 218.937 41.9322 218.91 41.5426C218.882 41.153 218.842 40.6986 218.791 40.1791C218.745 39.6551 218.685 39.0313 218.61 38.3078L220.44 37.8348C220.561 38.7252 220.651 39.6388 220.711 40.5757C220.776 41.5125 220.809 42.44 220.809 43.3583V43.9217C221.059 43.7084 221.319 43.5043 221.588 43.3096C221.862 43.1148 222.144 42.9432 222.437 42.7948C222.733 42.6464 223.042 42.5281 223.362 42.44C223.682 42.3519 224.016 42.3078 224.364 42.3078C224.716 42.3078 225.05 42.3635 225.365 42.4748C225.681 42.5861 225.959 42.7484 226.2 42.9617C226.446 43.1704 226.648 43.4255 226.805 43.727C226.963 44.0284 227.06 44.367 227.097 44.7426C227.102 44.8122 227.104 44.8794 227.104 44.9443C227.104 45.4267 227.023 45.8765 226.861 46.2939C226.703 46.7113 226.469 47.0893 226.158 47.4278H228.12V49.2087H226.27C225.903 49.2087 225.495 49.1925 225.045 49.16C224.595 49.1275 224.097 49.0417 223.55 48.9026C223.155 49.0093 222.754 49.0858 222.346 49.1322C221.943 49.1832 221.537 49.2087 221.129 49.2087H216.83V47.4278ZM220.482 47.4278C220.765 47.4278 221.089 47.4209 221.456 47.407C221.827 47.393 222.207 47.3606 222.597 47.3096C222.986 47.2586 223.364 47.182 223.73 47.08C224.102 46.978 224.431 46.8412 224.718 46.6696C225.006 46.498 225.233 46.2823 225.4 46.0226C225.544 45.8 225.616 45.5357 225.616 45.2296C225.616 45.1878 225.613 45.1438 225.609 45.0974C225.599 44.9583 225.553 44.8284 225.47 44.7078C225.391 44.5872 225.279 44.4852 225.136 44.4017C224.997 44.3136 224.83 44.2441 224.635 44.193C224.468 44.1559 224.287 44.1374 224.092 44.1374C224.055 44.1374 224.016 44.1374 223.974 44.1374C223.742 44.1467 223.466 44.207 223.146 44.3183C222.826 44.4249 222.483 44.6058 222.117 44.8609C221.75 45.1159 221.37 45.4522 220.976 45.8696C220.582 46.287 220.197 46.8064 219.821 47.4278H220.482ZM228.012 47.4278C228.499 47.4278 228.968 47.4139 229.417 47.3861C229.867 47.3536 230.278 47.3096 230.649 47.2539C231.02 47.1983 231.34 47.131 231.609 47.0522C231.878 46.9733 232.079 46.8852 232.214 46.7878H231.504C231.096 46.7878 230.707 46.7368 230.336 46.6348C229.969 46.5281 229.647 46.3704 229.369 46.1617C229.09 45.953 228.868 45.6933 228.701 45.3826C228.539 45.0672 228.457 44.7009 228.457 44.2835C228.457 44.0377 228.483 43.7849 228.534 43.5252C228.585 43.2655 228.661 43.0128 228.764 42.767C228.866 42.5212 228.988 42.2893 229.132 42.0713C229.276 41.8533 229.441 41.6632 229.626 41.5009C229.812 41.3339 230.016 41.2041 230.238 41.1113C230.461 41.0139 230.702 40.9652 230.962 40.9652C231.282 40.9652 231.581 41.0325 231.859 41.167C232.137 41.3014 232.39 41.4846 232.617 41.7165C232.845 41.9438 233.046 42.2081 233.223 42.5096C233.399 42.811 233.547 43.1287 233.668 43.4626C233.788 43.7965 233.879 44.1374 233.939 44.4852C234.004 44.8284 234.037 45.1554 234.037 45.4661C234.037 45.9948 233.962 46.4539 233.814 46.8435C233.67 47.233 233.466 47.567 233.202 47.8452C232.942 48.1235 232.629 48.3507 232.263 48.527C231.901 48.7032 231.5 48.8423 231.059 48.9443C230.619 49.0464 230.146 49.1159 229.64 49.153C229.139 49.1901 228.62 49.2087 228.082 49.2087H227.845V47.4278H228.012ZM230.962 42.76C230.939 42.7554 230.915 42.753 230.892 42.753C230.799 42.753 230.693 42.7901 230.572 42.8643C230.452 42.9386 230.336 43.0452 230.224 43.1843C230.113 43.3235 230.023 43.4812 229.953 43.6574C229.884 43.829 229.849 43.9983 229.849 44.1652C229.849 44.1745 229.849 44.1838 229.849 44.193C229.849 44.36 229.886 44.4968 229.96 44.6035C230.034 44.7055 230.134 44.7843 230.259 44.84C230.389 44.8957 230.537 44.9351 230.704 44.9583C230.876 44.9814 231.057 44.9977 231.247 45.007C231.372 45.0116 231.502 45.0139 231.637 45.0139C231.701 45.0139 231.801 45.0139 231.936 45.0139C232.075 45.0093 232.216 45.0023 232.36 44.993C232.318 44.8261 232.258 44.6197 232.179 44.3739C232.105 44.1235 232.01 43.8823 231.894 43.6504C231.783 43.4139 231.648 43.2099 231.49 43.0383C231.337 42.8667 231.161 42.7739 230.962 42.76ZM230.795 38.8713L229.612 40.0539L228.416 38.8643L229.598 37.6748L230.795 38.8713ZM233.424 38.8783L232.242 40.0678L231.045 38.8713L232.228 37.6887L233.424 38.8783Z" fill="black"/>
<path d="M268.268 122.923C268.268 122.937 268.277 123.012 268.294 123.149C268.311 123.279 268.329 123.451 268.346 123.664C268.364 123.87 268.378 124.102 268.39 124.361C268.395 124.538 268.398 124.718 268.398 124.899V125.17C268.375 126.761 268.06 127.782 267.452 128.233V128.222C266.862 128.684 266.06 128.578 265.047 127.903C264.769 127.717 264.517 127.529 264.292 127.336C264.072 127.141 263.852 126.918 263.632 126.667L263.701 127.287C263.771 127.987 263.826 128.699 263.866 129.421C263.912 130.141 263.947 130.856 263.97 131.567C263.999 132.275 264.017 132.969 264.022 133.647C264.034 134.323 264.04 134.963 264.04 135.569L262.312 134.417C262.312 133.311 262.303 132.206 262.286 131.102C262.269 129.991 262.222 128.896 262.147 127.816C262.072 126.73 261.959 125.667 261.808 124.627C261.664 123.585 261.461 122.58 261.201 121.613C261.079 121.157 260.949 120.711 260.81 120.278C260.671 119.844 260.515 119.389 260.341 118.911L261.791 118.772C261.884 119.015 261.968 119.255 262.043 119.493C262.124 119.728 262.202 119.971 262.277 120.223C262.358 120.472 262.439 120.735 262.52 121.011C262.601 121.288 262.691 121.588 262.79 121.911C262.923 122.368 263.053 122.789 263.18 123.173C263.313 123.554 263.464 123.908 263.632 124.236C263.805 124.567 264.002 124.865 264.222 125.13C264.448 125.392 264.723 125.631 265.047 125.847C265.527 126.167 265.889 126.231 266.132 126.038C266.242 125.959 266.332 125.841 266.401 125.686C266.471 125.523 266.526 125.341 266.566 125.138C266.613 124.939 266.644 124.724 266.662 124.492C266.679 124.26 266.688 124.03 266.688 123.8C266.688 123.501 266.673 123.203 266.644 122.905C266.621 122.611 266.595 122.364 266.566 122.164L268.268 122.923ZM280.914 131.239C281.007 131.906 281.073 132.507 281.114 133.042C281.154 133.569 281.183 134.051 281.2 134.487C281.206 134.609 281.209 134.73 281.209 134.848C281.209 135.279 281.169 135.683 281.088 136.061C281.012 136.442 280.873 136.746 280.671 136.972C280.468 137.199 280.202 137.307 279.872 137.296C279.548 137.281 279.157 137.122 278.7 136.817C278.555 136.72 278.402 136.601 278.24 136.458C278.078 136.308 277.913 136.132 277.745 135.93C277.577 135.72 277.412 135.478 277.25 135.203C277.088 134.928 276.935 134.617 276.79 134.27C276.668 134.468 276.524 134.604 276.356 134.68C276.194 134.76 276.017 134.792 275.826 134.776C275.635 134.76 275.433 134.705 275.218 134.611C275.004 134.516 274.784 134.394 274.559 134.244C274.339 134.097 274.148 133.956 273.986 133.82C273.823 133.677 273.653 133.508 273.473 133.311C273.664 134.858 273.777 136.356 273.812 137.805C273.852 139.258 273.873 140.694 273.873 142.113L272.145 140.962C272.156 140.677 272.162 140.382 272.162 140.076C272.168 139.773 272.171 139.483 272.171 139.205C272.171 137.181 272.058 135.189 271.832 133.23C271.607 131.27 271.259 129.411 270.79 127.652C270.657 127.18 270.533 126.767 270.417 126.411C270.307 126.06 270.186 125.714 270.052 125.375L271.624 125.306C271.664 125.417 271.711 125.552 271.763 125.712C271.815 125.865 271.87 126.03 271.928 126.208C271.986 126.386 272.044 126.567 272.101 126.752C272.165 126.94 272.226 127.123 272.284 127.301L272.692 128.627C272.848 129.163 272.984 129.615 273.1 129.984C273.216 130.354 273.337 130.671 273.465 130.937C273.598 131.207 273.748 131.439 273.916 131.634C274.084 131.823 274.298 132.004 274.559 132.178C274.831 132.359 275.048 132.399 275.21 132.299C275.378 132.195 275.508 132.024 275.6 131.787C275.693 131.543 275.754 131.27 275.783 130.969C275.817 130.666 275.838 130.401 275.844 130.175C275.844 130.099 275.841 129.964 275.835 129.773C275.829 129.574 275.82 129.367 275.809 129.15C275.803 128.938 275.794 128.741 275.783 128.559C275.771 128.37 275.762 128.253 275.757 128.208L277.476 129.103C277.482 129.323 277.493 129.536 277.511 129.742C277.534 129.945 277.551 130.141 277.563 130.33C277.574 130.484 277.589 130.685 277.606 130.933C277.629 131.185 277.658 131.458 277.693 131.752C277.733 132.051 277.78 132.356 277.832 132.669C277.89 132.979 277.959 133.272 278.04 133.549C278.121 133.826 278.214 134.068 278.318 134.277C278.428 134.489 278.555 134.644 278.7 134.74C278.891 134.868 279.039 134.896 279.143 134.827C279.253 134.754 279.331 134.632 279.377 134.461C279.429 134.294 279.461 134.107 279.473 133.899C279.484 133.684 279.49 133.497 279.49 133.337C279.49 133.024 279.478 132.647 279.455 132.207C279.438 131.764 279.383 131.21 279.29 130.543L280.914 131.239ZM283.421 151.682L282.405 150.16C283.013 149.542 283.331 148.701 283.36 147.635V145.673L285.123 146.848V148.549C285.123 149.335 284.961 150.013 284.636 150.583C284.318 151.164 283.913 151.53 283.421 151.682ZM294.061 155.697C293.638 155.416 293.25 155.035 292.897 154.556C292.55 154.075 292.255 153.519 292.012 152.891L291.986 152.832C291.737 153.118 291.424 153.268 291.048 153.282C290.678 153.299 290.267 153.157 289.815 152.856C289.312 152.521 288.886 152.126 288.539 151.672C288.197 151.221 287.919 150.744 287.705 150.239C287.491 149.728 287.332 149.201 287.228 148.659C287.124 148.116 287.06 147.587 287.037 147.07C287.025 146.854 287.019 146.645 287.019 146.443C287.019 146.158 287.034 145.834 287.063 145.47C287.098 145.104 287.15 144.749 287.219 144.406C287.323 143.912 287.456 143.43 287.618 142.961C287.786 142.495 287.989 142.029 288.226 141.561C288.469 141.09 288.753 140.611 289.077 140.124C289.407 139.642 289.783 139.138 290.206 138.613L289.885 138.012L291.1 137.362C291.685 138.392 292.258 139.427 292.819 140.47C293.386 141.509 293.916 142.564 294.408 143.637C295.543 146.132 296.364 148.517 296.874 150.79C297.042 151.57 297.126 152.321 297.126 153.045C297.126 153.622 297.062 154.147 296.935 154.618C296.807 155.09 296.616 155.464 296.362 155.739C296.113 156.011 295.794 156.157 295.406 156.177C295.024 156.194 294.579 156.036 294.069 155.703L294.061 155.697ZM292.784 148.961C292.784 149.149 292.79 149.376 292.802 149.641C292.813 149.906 292.834 150.187 292.863 150.485C292.897 150.779 292.944 151.081 293.001 151.391C293.065 151.705 293.143 152.004 293.236 152.288C293.334 152.57 293.45 152.828 293.583 153.062C293.722 153.301 293.884 153.496 294.069 153.647C294.341 153.808 294.564 153.856 294.738 153.791C294.912 153.725 295.048 153.597 295.146 153.405C295.244 153.206 295.311 152.969 295.346 152.693C295.386 152.414 295.406 152.146 295.406 151.888C295.406 151.652 295.392 151.399 295.363 151.129C295.334 150.859 295.288 150.585 295.224 150.306C295.016 149.395 294.764 148.504 294.469 147.632C294.174 146.76 293.858 145.924 293.522 145.123C293.187 144.315 292.842 143.553 292.489 142.837C292.136 142.122 291.798 141.469 291.473 140.877C291.109 141.343 290.788 141.79 290.51 142.217C290.232 142.644 289.989 143.063 289.78 143.473C289.572 143.884 289.395 144.295 289.251 144.706C289.112 145.115 288.996 145.531 288.903 145.957C288.869 146.107 288.834 146.307 288.799 146.555C288.765 146.803 288.741 147.08 288.73 147.385C288.724 147.486 288.721 147.588 288.721 147.692C288.721 147.901 288.73 148.143 288.747 148.419C288.77 148.699 288.82 148.993 288.895 149.3C288.976 149.612 289.089 149.896 289.233 150.152C289.384 150.412 289.578 150.622 289.815 150.78C290.023 150.912 290.203 150.955 290.353 150.909C290.504 150.863 290.631 150.764 290.735 150.611C290.845 150.455 290.935 150.261 291.005 150.029C291.08 149.794 291.141 149.552 291.187 149.305C291.233 149.057 291.271 148.818 291.3 148.587C291.334 148.353 291.363 148.16 291.387 148.008L292.784 148.961Z" fill="black"/>
<path d="M96.4111 132.172C96.4111 130.816 96.3909 129.483 96.3503 128.175C96.3098 126.859 96.2201 125.632 96.0812 124.493C95.9423 123.355 95.7426 122.336 95.4821 121.439C95.2274 120.537 94.883 119.821 94.4489 119.289L95.8902 117.222C96.3648 117.817 96.7584 118.609 97.071 119.597C97.3893 120.574 97.6324 121.772 97.8003 123.191C97.8697 123.798 97.9247 124.436 97.9652 125.105C98.0115 125.77 98.0463 126.442 98.0694 127.123C98.0984 127.792 98.1157 128.459 98.1215 129.123C98.1331 129.783 98.1389 130.415 98.1389 131.021L96.4111 132.172ZM104.083 127.027C104.083 125.482 103.958 124.115 103.709 122.924C103.466 121.73 103.145 120.667 102.746 119.737C102.352 118.796 101.906 117.966 101.409 117.248C100.917 116.518 100.422 115.85 99.9239 115.243L101.357 113.213C101.715 113.641 102.045 114.065 102.346 114.483C102.647 114.902 102.925 115.325 103.18 115.754C103.434 116.175 103.666 116.602 103.874 117.033C104.083 117.465 104.274 117.908 104.447 118.363C104.505 118.526 104.557 118.672 104.604 118.801C104.656 118.926 104.702 119.052 104.743 119.178C104.783 119.304 104.824 119.437 104.864 119.577C104.905 119.71 104.945 119.864 104.986 120.039C105.223 118.969 105.486 117.882 105.776 116.778C106.065 115.667 106.357 114.606 106.653 113.595C106.948 112.577 107.237 111.637 107.521 110.773C107.81 109.905 108.071 109.175 108.302 108.582L109.735 108.702C109.469 109.506 109.188 110.35 108.893 111.236C108.598 112.121 108.308 113.031 108.024 113.964C107.741 114.898 107.469 115.855 107.208 116.835C106.948 117.816 106.716 118.808 106.514 119.813C106.311 120.818 106.146 121.828 106.019 122.846C105.892 123.863 105.819 124.874 105.802 125.881L104.083 127.027Z" fill="black"/>
<path d="M361.95 217.165L361.95 223.956L228.197 314.064L40.6004 190.834L40.6004 184.662L175.329 94.1729L361.95 217.165Z" fill="#E7E7E7" stroke="black"/>
<path d="M362.614 216.95L362.614 223.338L228.789 313.546L228.789 306.662L362.614 216.95Z" fill="#A3A3A3" stroke="black"/>
<path d="M40.5388 184.496L175.706 94.0533L362.558 216.382L228.237 306.598L40.5388 184.496Z" fill="#E7E7E7" stroke="black"/>
<path d="M354.219 210.818L362.646 216.436L228.229 306.716L220.422 301.511L354.219 210.818Z" fill="#A3A3A3" stroke="black"/>
<path d="M181.312 185.513C180.553 185.008 179.954 184.415 179.513 183.735C179.079 183.058 178.872 182.299 178.894 181.455L182.674 181.019C182.698 181.383 182.759 181.71 182.858 182C182.963 182.286 183.09 182.541 183.241 182.765C183.392 182.989 183.557 183.184 183.736 183.35C183.922 183.52 184.11 183.669 184.301 183.796C184.457 183.9 184.633 184.006 184.83 184.114C185.033 184.219 185.244 184.313 185.464 184.398C185.689 184.486 185.915 184.559 186.141 184.617C186.366 184.675 186.589 184.707 186.809 184.715C187.12 184.211 187.431 183.681 187.742 183.123C188.065 182.565 188.385 182.006 188.702 181.444C189.025 180.879 189.345 180.319 189.662 179.765C189.979 179.212 190.29 178.685 190.596 178.185L194.188 179.166L190.149 185.713C189.999 185.953 189.872 186.166 189.769 186.352C189.665 186.538 189.607 186.712 189.596 186.874C189.591 187.041 189.637 187.199 189.736 187.35C189.846 187.501 190.031 187.663 190.292 187.836L190.543 188.004L187.806 189.843L187.554 189.675C187.201 189.44 186.912 189.216 186.686 189.003C186.466 188.795 186.292 188.59 186.164 188.389C186.037 188.196 185.947 188.004 185.895 187.815C185.854 187.625 185.833 187.434 185.833 187.241C185.388 187.183 184.971 187.107 184.584 187.011C184.19 186.918 183.812 186.801 183.447 186.659C183.083 186.516 182.727 186.348 182.379 186.156C182.032 185.97 181.676 185.756 181.312 185.513ZM190.199 187.775L190.763 188.151C191.023 188.324 191.284 188.444 191.544 188.509C191.816 188.575 192.085 188.595 192.351 188.572C192.628 188.548 192.897 188.484 193.157 188.379C193.423 188.278 193.68 188.144 193.928 187.977C194.275 187.752 194.69 187.477 195.176 187.151C195.666 186.821 196.189 186.466 196.743 186.086C197.304 185.702 197.878 185.305 198.467 184.894C199.062 184.479 199.636 184.073 200.191 183.678C200.751 183.278 201.279 182.9 201.776 182.543C202.278 182.183 202.714 181.867 203.084 181.595L206.347 183.098L196.057 190.138C195.699 190.378 195.505 190.628 195.477 190.888C195.46 191.147 195.631 191.396 195.99 191.635L196.181 191.763L193.443 193.601L193.252 193.474C193.009 193.319 192.789 193.146 192.592 192.953C192.401 192.763 192.242 192.568 192.114 192.367C191.981 192.17 191.888 191.977 191.836 191.787C191.784 191.598 191.778 191.428 191.818 191.277C191.546 191.297 191.271 191.291 190.994 191.261C190.716 191.23 190.424 191.163 190.118 191.059C189.811 190.963 189.484 190.826 189.137 190.649C188.79 190.472 188.414 190.248 188.008 189.978L187.461 189.613L190.199 187.775ZM195.835 191.532L197.666 192.753C198.604 193.378 199.519 193.914 200.41 194.362C201.312 194.809 202.201 195.196 203.074 195.523C203.948 195.851 204.812 196.134 205.669 196.372C206.536 196.61 207.401 196.835 208.263 197.047C207.979 196.71 207.718 196.355 207.48 195.98C207.249 195.609 207.008 195.24 206.759 194.873C206.515 194.51 206.249 194.162 205.959 193.83C205.675 193.494 205.339 193.196 204.952 192.938C204.685 192.76 204.35 192.633 203.945 192.557C203.546 192.484 203.15 192.44 202.757 192.425C202.363 192.41 202.008 192.417 201.69 192.444C201.378 192.468 201.173 192.49 201.074 192.509L200.359 190.305C200.966 190.192 201.605 190.112 202.276 190.064C202.946 190.017 203.602 190.017 204.244 190.067C204.898 190.116 205.519 190.221 206.109 190.382C206.705 190.548 207.234 190.785 207.697 191.094C208.039 191.321 208.343 191.574 208.609 191.852C208.882 192.126 209.128 192.414 209.348 192.716C209.574 193.021 209.777 193.334 209.957 193.655C210.142 193.972 210.322 194.288 210.496 194.605C210.658 194.907 210.824 195.21 210.992 195.516C211.166 195.817 211.357 196.119 211.566 196.42C211.78 196.717 212.026 197.009 212.304 197.295C212.582 197.581 212.915 197.857 213.303 198.123L210.427 199.764L208.605 199.338C207.859 199.165 207.107 199 206.349 198.843C205.597 198.682 204.843 198.511 204.085 198.33C203.333 198.146 202.572 197.944 201.803 197.725C201.039 197.502 200.276 197.244 199.512 196.951C198.754 196.655 197.993 196.314 197.23 195.928C196.46 195.546 195.693 195.101 194.929 194.592L193.097 193.37L195.835 191.532ZM195.53 201.322L195.526 198.746L199.377 198.739L199.381 201.315L195.53 201.322Z" fill="black"/>
<path d="M190.706 85.1575C190.543 84.8539 190.543 84.5373 190.706 84.4504L193.353 83.0334C193.516 82.9465 193.779 83.1221 193.941 83.4257C194.104 83.7292 194.104 84.0458 193.941 84.1328L191.588 85.3923L193.941 89.7896C194.104 90.0932 194.104 90.4098 193.941 90.4967C193.779 90.5837 193.516 90.4081 193.353 90.1045L190.706 85.1575ZM245.083 121.556L191 85.5V84.5L245.083 120.556V121.556Z" fill="black"/>
<path d="M40.7057 164.613C40.5433 164.526 40.5433 164.209 40.7057 163.906L43.3533 158.959C43.5158 158.655 43.7792 158.48 43.9416 158.567C44.1041 158.653 44.1041 158.97 43.9416 159.274L41.5883 163.671L43.9416 164.93C44.1041 165.017 44.1041 165.334 43.9416 165.638C43.7792 165.941 43.5158 166.117 43.3533 166.03L40.7057 164.613ZM87.5947 133.5L40.9999 164.563V163.563L87.5947 132.5V133.5Z" fill="black"/>
<path d="M162.889 84.4503C163.051 84.5373 163.051 84.8539 162.889 85.1574L160.241 90.1045C160.079 90.408 159.815 90.5836 159.653 90.4967C159.491 90.4097 159.491 90.0932 159.653 89.7896L162.006 85.3922L159.653 84.1327C159.491 84.0458 159.491 83.7292 159.653 83.4256C159.815 83.1221 160.079 82.9464 160.241 83.0334L162.889 84.4503ZM162.595 85.5L116 116.563V115.563L162.595 84.5V85.5Z" fill="black"/>
<path d="M365.377 199.954C365.54 200.257 365.54 200.574 365.377 200.661L362.73 202.078C362.567 202.165 362.304 201.989 362.141 201.685C361.979 201.382 361.979 201.065 362.141 200.978L364.495 199.719L362.141 195.321C361.979 195.018 361.979 194.701 362.141 194.614C362.304 194.527 362.567 194.703 362.73 195.007L365.377 199.954ZM365.083 200.611L311 164.556V163.556L365.083 199.611V200.611Z" fill="black"/>
<path d="M168.993 359.744C168.195 359.744 167.458 359.645 166.78 359.445C166.103 359.25 165.526 358.954 165.048 358.555C164.571 358.161 164.211 357.664 163.97 357.066C163.775 356.598 163.678 356.067 163.678 355.473C163.678 355.315 163.685 355.153 163.699 354.986C163.727 354.666 163.764 354.339 163.81 354.005C163.861 353.671 163.928 353.321 164.012 352.955C164.1 352.584 164.211 352.192 164.346 351.779C164.48 351.366 164.647 350.921 164.847 350.443L166.28 351.104C166.089 351.577 165.932 352.016 165.807 352.419C165.681 352.818 165.582 353.189 165.507 353.532C165.438 353.875 165.389 354.198 165.361 354.499C165.334 354.801 165.32 355.09 165.32 355.369C165.32 355.703 165.361 356.002 165.445 356.266C165.533 356.53 165.644 356.767 165.779 356.976C165.96 357.221 166.187 357.409 166.46 357.539C166.734 357.674 167.022 357.771 167.323 357.831C167.629 357.892 167.928 357.926 168.22 357.936C168.517 357.95 168.775 357.957 168.993 357.957C169.123 357.957 169.31 357.947 169.556 357.929C169.807 357.91 170.078 357.878 170.37 357.831C170.667 357.785 170.971 357.725 171.281 357.65C171.592 357.576 171.873 357.483 172.123 357.372C172.378 357.261 172.585 357.131 172.742 356.983C172.905 356.834 172.986 356.66 172.986 356.461C172.986 356.428 172.944 356.377 172.86 356.308C172.782 356.243 172.67 356.169 172.527 356.085C172.387 356.002 172.223 355.914 172.033 355.821C171.843 355.733 171.638 355.647 171.42 355.563C171.1 355.457 170.783 355.378 170.467 355.327C170.152 355.276 169.839 355.223 169.528 355.167L169.765 353.428H175.288V355.209H173.987C174.173 355.436 174.296 355.659 174.356 355.877C174.421 356.099 174.456 356.294 174.46 356.461C174.442 356.869 174.338 357.233 174.147 357.553C173.957 357.878 173.712 358.161 173.41 358.402C173.113 358.648 172.775 358.854 172.394 359.021C172.014 359.192 171.625 359.332 171.226 359.438C170.827 359.545 170.433 359.621 170.043 359.668C169.658 359.719 169.308 359.744 168.993 359.744ZM175.017 353.428H175.156C175.458 353.428 175.757 353.428 176.054 353.428C176.355 353.428 176.61 353.416 176.819 353.393C176.726 353.333 176.624 353.247 176.513 353.136C176.401 353.02 176.297 352.885 176.2 352.732C176.107 352.574 176.026 352.398 175.956 352.203C175.891 352.004 175.857 351.786 175.852 351.55C175.847 351.489 175.845 351.429 175.845 351.369C175.845 351.179 175.87 350.968 175.921 350.736C175.977 350.499 176.065 350.258 176.186 350.012C176.311 349.766 176.462 349.537 176.638 349.323C176.814 349.106 177.009 348.918 177.222 348.76C177.436 348.598 177.665 348.472 177.911 348.384C178.129 348.306 178.354 348.266 178.586 348.266C178.614 348.266 178.639 348.266 178.662 348.266C179.038 348.28 179.386 348.377 179.706 348.558C180.03 348.734 180.311 348.964 180.548 349.247C180.784 349.53 180.97 349.852 181.104 350.214C181.239 350.571 181.306 350.937 181.306 351.313C181.306 351.675 181.239 352.025 181.104 352.363C180.974 352.697 180.805 353.01 180.596 353.303C180.819 353.34 181.06 353.37 181.32 353.393C181.584 353.416 181.835 353.428 182.071 353.428H182.259V355.209H182.12C181.763 355.209 181.417 355.202 181.083 355.188C180.754 355.179 180.443 355.153 180.151 355.111C179.859 355.07 179.585 355.012 179.33 354.937C179.08 354.859 178.857 354.752 178.662 354.617C178.523 354.719 178.324 354.808 178.064 354.882C177.809 354.956 177.521 355.016 177.201 355.063C176.881 355.114 176.543 355.151 176.186 355.174C175.833 355.197 175.49 355.209 175.156 355.209H175.017V353.428ZM178.641 350.026C178.521 350.049 178.382 350.098 178.224 350.172C178.071 350.242 177.925 350.341 177.786 350.471C177.651 350.597 177.535 350.752 177.438 350.937C177.345 351.123 177.299 351.343 177.299 351.598C177.299 351.682 177.338 351.791 177.417 351.925C177.496 352.055 177.6 352.187 177.73 352.322C177.86 352.452 178.008 352.574 178.175 352.69C178.342 352.802 178.514 352.881 178.69 352.927C178.829 352.857 178.964 352.767 179.094 352.656C179.228 352.544 179.346 352.424 179.448 352.294C179.55 352.159 179.632 352.023 179.692 351.883C179.757 351.74 179.789 351.603 179.789 351.473C179.789 351.292 179.75 351.121 179.671 350.958C179.597 350.791 179.502 350.643 179.386 350.513C179.27 350.383 179.145 350.277 179.01 350.193C178.88 350.105 178.757 350.049 178.641 350.026ZM178.468 346.04L177.285 347.223L176.088 346.033L177.271 344.843L178.468 346.04ZM181.097 346.047L179.915 347.237L178.718 346.04L179.901 344.857L181.097 346.047ZM182.153 353.428C182.64 353.428 183.108 353.414 183.558 353.386C184.008 353.354 184.418 353.31 184.789 353.254C185.16 353.198 185.48 353.131 185.749 353.052C186.018 352.973 186.22 352.885 186.355 352.788H185.645C185.237 352.788 184.847 352.737 184.476 352.635C184.11 352.528 183.788 352.37 183.509 352.162C183.231 351.953 183.008 351.693 182.842 351.383C182.679 351.067 182.598 350.701 182.598 350.283C182.598 350.038 182.624 349.785 182.675 349.525C182.726 349.266 182.802 349.013 182.904 348.767C183.006 348.521 183.129 348.289 183.273 348.071C183.417 347.853 183.581 347.663 183.767 347.501C183.952 347.334 184.156 347.204 184.379 347.111C184.602 347.014 184.843 346.965 185.102 346.965C185.422 346.965 185.722 347.032 186 347.167C186.278 347.301 186.531 347.485 186.758 347.717C186.985 347.944 187.187 348.208 187.363 348.51C187.539 348.811 187.688 349.129 187.808 349.463C187.929 349.797 188.019 350.137 188.08 350.485C188.145 350.828 188.177 351.155 188.177 351.466C188.177 351.995 188.103 352.454 187.955 352.843C187.811 353.233 187.607 353.567 187.342 353.845C187.083 354.123 186.77 354.351 186.403 354.527C186.042 354.703 185.64 354.842 185.2 354.944C184.759 355.046 184.286 355.116 183.781 355.153C183.28 355.19 182.76 355.209 182.222 355.209H181.986V353.428H182.153ZM185.102 348.76C185.079 348.755 185.056 348.753 185.033 348.753C184.94 348.753 184.833 348.79 184.713 348.864C184.592 348.939 184.476 349.045 184.365 349.184C184.254 349.323 184.163 349.481 184.094 349.657C184.024 349.829 183.989 349.998 183.989 350.165C183.989 350.174 183.989 350.184 183.989 350.193C183.989 350.36 184.026 350.497 184.101 350.603C184.175 350.706 184.275 350.784 184.4 350.84C184.53 350.896 184.678 350.935 184.845 350.958C185.017 350.981 185.197 350.998 185.388 351.007C185.513 351.012 185.643 351.014 185.777 351.014C185.842 351.014 185.942 351.014 186.076 351.014C186.215 351.009 186.357 351.002 186.501 350.993C186.459 350.826 186.399 350.62 186.32 350.374C186.246 350.123 186.151 349.882 186.035 349.65C185.923 349.414 185.789 349.21 185.631 349.038C185.478 348.867 185.302 348.774 185.102 348.76ZM186.382 344.704L185.047 346.04L183.718 344.704L185.047 343.376L186.382 344.704ZM191.414 344.141C191.53 345.027 191.612 345.873 191.658 346.68C191.704 347.482 191.732 348.268 191.741 349.038C191.751 349.692 191.753 350.297 191.748 350.854C191.748 351.41 191.744 351.93 191.734 352.412C191.725 352.89 191.711 353.337 191.693 353.755C191.674 354.168 191.656 354.555 191.637 354.917L189.814 355.195C189.912 353.664 189.961 352.312 189.961 351.139C189.961 350.666 189.954 350.223 189.94 349.81C189.903 348.86 189.861 347.967 189.814 347.132C189.768 346.293 189.705 345.49 189.627 344.725L191.414 344.141ZM203.04 359.744C202.242 359.744 201.504 359.645 200.827 359.445C200.15 359.25 199.573 358.954 199.095 358.555C198.618 358.161 198.258 357.664 198.017 357.066C197.822 356.598 197.725 356.067 197.725 355.473C197.725 355.315 197.732 355.153 197.746 354.986C197.773 354.666 197.811 354.339 197.857 354.005C197.908 353.671 197.975 353.321 198.059 352.955C198.147 352.584 198.258 352.192 198.393 351.779C198.527 351.366 198.694 350.921 198.893 350.443L200.326 351.104C200.136 351.577 199.979 352.016 199.853 352.419C199.728 352.818 199.629 353.189 199.554 353.532C199.485 353.875 199.436 354.198 199.408 354.499C199.38 354.801 199.366 355.09 199.366 355.369C199.366 355.703 199.408 356.002 199.492 356.266C199.58 356.53 199.691 356.767 199.826 356.976C200.006 357.221 200.234 357.409 200.507 357.539C200.781 357.674 201.069 357.771 201.37 357.831C201.676 357.892 201.975 357.926 202.267 357.936C202.564 357.95 202.822 357.957 203.04 357.957C203.169 357.957 203.357 357.947 203.603 357.929C203.853 357.91 204.125 357.878 204.417 357.831C204.714 357.785 205.018 357.725 205.328 357.65C205.639 357.576 205.92 357.483 206.17 357.372C206.425 357.261 206.631 357.131 206.789 356.983C206.951 356.834 207.033 356.66 207.033 356.461C207.033 356.428 206.991 356.377 206.907 356.308C206.829 356.243 206.717 356.169 206.573 356.085C206.434 356.002 206.27 355.914 206.08 355.821C205.889 355.733 205.685 355.647 205.467 355.563C205.147 355.457 204.83 355.378 204.514 355.327C204.199 355.276 203.886 355.223 203.575 355.167L203.812 353.428H209.335V355.209H208.034C208.22 355.436 208.343 355.659 208.403 355.877C208.468 356.099 208.503 356.294 208.507 356.461C208.489 356.869 208.384 357.233 208.194 357.553C208.004 357.878 207.758 358.161 207.457 358.402C207.16 358.648 206.822 358.854 206.441 359.021C206.061 359.192 205.671 359.332 205.273 359.438C204.874 359.545 204.48 359.621 204.09 359.668C203.705 359.719 203.355 359.744 203.04 359.744ZM209.342 353.428C209.597 353.428 209.825 353.372 210.024 353.261C210.228 353.15 210.407 353.001 210.56 352.816C210.717 352.63 210.854 352.419 210.97 352.183C211.091 351.946 211.195 351.703 211.283 351.452C211.371 351.202 211.448 350.956 211.513 350.715C211.578 350.469 211.636 350.249 211.687 350.054L213.426 350.437C213.384 350.566 213.328 350.733 213.259 350.937C213.189 351.137 213.122 351.35 213.057 351.577C212.997 351.8 212.946 352.025 212.904 352.252C212.872 352.424 212.855 352.584 212.855 352.732C212.855 352.779 212.86 352.86 212.869 352.976C212.878 353.092 212.925 353.208 213.008 353.323C213.096 353.435 213.238 353.49 213.433 353.49C213.641 353.49 213.829 353.432 213.996 353.317C214.163 353.196 214.312 353.041 214.441 352.85C214.576 352.656 214.692 352.435 214.789 352.19C214.891 351.944 214.977 351.693 215.047 351.438C215.121 351.179 215.181 350.926 215.227 350.68C215.278 350.434 215.318 350.214 215.346 350.019L216.974 350.332C216.96 350.443 216.939 350.576 216.911 350.729C216.888 350.882 216.862 351.049 216.834 351.23C216.807 351.406 216.779 351.591 216.751 351.786C216.728 351.981 216.709 352.176 216.695 352.37C216.695 352.408 216.695 352.445 216.695 352.482C216.695 352.593 216.707 352.709 216.73 352.83C216.753 352.946 216.802 353.057 216.876 353.163C216.95 353.266 217.048 353.349 217.168 353.414C217.289 353.474 217.437 353.507 217.614 353.511C217.943 353.511 218.212 353.428 218.421 353.261C218.629 353.094 218.734 352.839 218.734 352.496C218.734 352.245 218.699 351.974 218.629 351.682C218.564 351.39 218.483 351.104 218.386 350.826C218.293 350.548 218.193 350.286 218.087 350.04C217.98 349.794 217.887 349.59 217.808 349.428L219.304 348.593C219.332 348.644 219.376 348.737 219.436 348.871C219.501 349.006 219.573 349.173 219.652 349.372C219.735 349.567 219.819 349.787 219.902 350.033C219.986 350.279 220.062 350.539 220.132 350.812C220.206 351.081 220.264 351.357 220.306 351.64C220.352 351.923 220.375 352.201 220.375 352.475C220.375 352.906 220.308 353.296 220.174 353.643C220.044 353.991 219.849 354.288 219.589 354.534C219.334 354.78 219.019 354.968 218.643 355.097C218.281 355.227 217.866 355.292 217.398 355.292C217.384 355.292 217.368 355.292 217.349 355.292C217.331 355.292 217.314 355.292 217.301 355.292C217.083 355.292 216.883 355.262 216.702 355.202C216.521 355.146 216.354 355.067 216.201 354.965C216.053 354.859 215.918 354.738 215.798 354.603C215.682 354.469 215.578 354.332 215.485 354.193C215.378 354.346 215.262 354.49 215.137 354.624C215.012 354.754 214.866 354.868 214.699 354.965C214.536 355.063 214.351 355.139 214.142 355.195C213.938 355.255 213.702 355.288 213.433 355.292C213.419 355.292 213.403 355.292 213.384 355.292C213.175 355.292 212.981 355.264 212.8 355.209C212.623 355.153 212.459 355.077 212.306 354.979C212.157 354.877 212.021 354.759 211.895 354.624C211.775 354.49 211.663 354.348 211.561 354.2C211.473 354.33 211.367 354.455 211.241 354.576C211.121 354.696 210.97 354.805 210.789 354.903C210.613 354.995 210.404 355.07 210.163 355.125C209.922 355.181 209.639 355.209 209.314 355.209H209.064V353.428H209.342ZM224.602 350.583C224.695 350.875 224.79 351.181 224.887 351.501C224.989 351.816 225.08 352.136 225.159 352.461C225.242 352.786 225.309 353.11 225.36 353.435C225.411 353.755 225.437 354.068 225.437 354.374C225.437 354.791 225.372 355.197 225.242 355.591C225.117 355.99 224.941 356.373 224.714 356.739C224.491 357.11 224.224 357.463 223.914 357.797C223.607 358.13 223.274 358.446 222.912 358.743C222.55 359.039 222.167 359.315 221.764 359.57C221.36 359.826 220.952 360.055 220.54 360.259L219.747 358.666C220.076 358.504 220.4 358.323 220.72 358.123C221.04 357.929 221.344 357.72 221.632 357.497C221.924 357.275 222.193 357.041 222.439 356.795C222.689 356.549 222.902 356.294 223.079 356.03C223.26 355.765 223.401 355.494 223.503 355.216C223.605 354.937 223.656 354.657 223.656 354.374C223.656 354.11 223.626 353.831 223.566 353.539C223.505 353.247 223.431 352.959 223.343 352.677C223.26 352.389 223.171 352.113 223.079 351.849C222.991 351.584 222.916 351.35 222.856 351.146L224.602 350.583ZM230.355 355.209H230.077C229.135 355.209 228.421 354.972 227.934 354.499C227.447 354.026 227.201 353.312 227.197 352.357C227.197 352.208 227.201 351.965 227.211 351.626C227.22 351.283 227.225 350.866 227.225 350.374C227.225 350.082 227.222 349.769 227.218 349.435C227.213 349.096 227.206 348.753 227.197 348.405C227.187 348.053 227.174 347.703 227.155 347.355C227.141 347.002 227.123 346.664 227.099 346.339C227.076 346.01 227.048 345.704 227.016 345.421C226.983 345.133 226.946 344.881 226.905 344.663L228.651 344.141C228.702 344.41 228.748 344.739 228.79 345.129C228.832 345.514 228.869 345.926 228.901 346.367C228.934 346.808 228.957 347.257 228.971 347.717C228.989 348.171 228.998 348.6 228.998 349.003C228.998 349.249 229.001 349.511 229.005 349.79C229.01 350.063 229.012 350.304 229.012 350.513C229.012 350.689 229.01 350.856 229.005 351.014C229.005 351.167 229.003 351.315 228.998 351.459C228.998 351.603 228.996 351.744 228.992 351.883C228.992 352.023 228.992 352.164 228.992 352.308C228.992 352.345 228.992 352.382 228.992 352.419C228.992 352.586 229.008 352.734 229.04 352.864C229.077 352.994 229.14 353.103 229.228 353.191C229.316 353.275 229.427 353.335 229.562 353.372C229.701 353.409 229.861 353.428 230.042 353.428H230.355V355.209ZM230.247 353.428C230.734 353.428 231.202 353.414 231.652 353.386C232.102 353.354 232.512 353.31 232.883 353.254C233.254 353.198 233.574 353.131 233.843 353.052C234.112 352.973 234.314 352.885 234.448 352.788H233.739C233.331 352.788 232.941 352.737 232.57 352.635C232.204 352.528 231.881 352.37 231.603 352.162C231.325 351.953 231.102 351.693 230.935 351.383C230.773 351.067 230.692 350.701 230.692 350.283C230.692 350.038 230.717 349.785 230.768 349.525C230.819 349.266 230.896 349.013 230.998 348.767C231.1 348.521 231.223 348.289 231.367 348.071C231.51 347.853 231.675 347.663 231.86 347.501C232.046 347.334 232.25 347.204 232.473 347.111C232.695 347.014 232.936 346.965 233.196 346.965C233.516 346.965 233.815 347.032 234.094 347.167C234.372 347.301 234.625 347.485 234.852 347.717C235.079 347.944 235.281 348.208 235.457 348.51C235.633 348.811 235.782 349.129 235.902 349.463C236.023 349.797 236.113 350.137 236.174 350.485C236.238 350.828 236.271 351.155 236.271 351.466C236.271 351.995 236.197 352.454 236.048 352.843C235.905 353.233 235.7 353.567 235.436 353.845C235.176 354.123 234.863 354.351 234.497 354.527C234.135 354.703 233.734 354.842 233.294 354.944C232.853 355.046 232.38 355.116 231.874 355.153C231.374 355.19 230.854 355.209 230.316 355.209H230.08V353.428H230.247ZM233.196 348.76C233.173 348.755 233.15 348.753 233.127 348.753C233.034 348.753 232.927 348.79 232.807 348.864C232.686 348.939 232.57 349.045 232.459 349.184C232.347 349.323 232.257 349.481 232.187 349.657C232.118 349.829 232.083 349.998 232.083 350.165C232.083 350.174 232.083 350.184 232.083 350.193C232.083 350.36 232.12 350.497 232.194 350.603C232.269 350.706 232.368 350.784 232.494 350.84C232.623 350.896 232.772 350.935 232.939 350.958C233.11 350.981 233.291 350.998 233.481 351.007C233.607 351.012 233.736 351.014 233.871 351.014C233.936 351.014 234.036 351.014 234.17 351.014C234.309 351.009 234.451 351.002 234.594 350.993C234.553 350.826 234.492 350.62 234.414 350.374C234.339 350.123 234.244 349.882 234.128 349.65C234.017 349.414 233.883 349.21 233.725 349.038C233.572 348.867 233.396 348.774 233.196 348.76ZM234.476 344.704L233.14 346.04L231.812 344.704L233.14 343.376L234.476 344.704Z" fill="black"/>
</svg>
