<svg width="400" height="400" viewBox="0 0 400 400" fill="none" xmlns="http://www.w3.org/2000/svg">
<rect width="400" height="400" fill="white"/>
<path d="M167.954 53.7443C167.156 53.7443 166.419 53.6446 165.741 53.4452C165.064 53.2504 164.487 52.9536 164.009 52.5548C163.532 52.1606 163.172 51.6643 162.931 51.0661C162.736 50.5977 162.639 50.0667 162.639 49.473C162.639 49.3154 162.646 49.153 162.66 48.9861C162.688 48.6661 162.725 48.3391 162.771 48.0052C162.822 47.6713 162.889 47.3212 162.973 46.9548C163.061 46.5838 163.172 46.1919 163.307 45.7791C163.441 45.3664 163.608 44.9212 163.808 44.4435L165.241 45.1043C165.05 45.5774 164.893 46.0157 164.768 46.4191C164.642 46.818 164.543 47.189 164.468 47.5322C164.399 47.8754 164.35 48.1977 164.322 48.4991C164.294 48.8006 164.281 49.0904 164.281 49.3687C164.281 49.7026 164.322 50.0017 164.406 50.2661C164.494 50.5304 164.605 50.767 164.74 50.9757C164.921 51.2214 165.148 51.4093 165.421 51.5391C165.695 51.6736 165.983 51.771 166.284 51.8313C166.59 51.8916 166.889 51.9264 167.181 51.9357C167.478 51.9496 167.736 51.9565 167.954 51.9565C168.083 51.9565 168.271 51.9472 168.517 51.9287C168.768 51.9101 169.039 51.8777 169.331 51.8313C169.628 51.7849 169.932 51.7246 170.242 51.6504C170.553 51.5762 170.834 51.4835 171.084 51.3722C171.339 51.2609 171.545 51.131 171.703 50.9826C171.865 50.8342 171.947 50.6603 171.947 50.4609C171.947 50.4284 171.905 50.3774 171.821 50.3078C171.743 50.2429 171.631 50.1687 171.488 50.0852C171.348 50.0017 171.184 49.9136 170.994 49.8209C170.803 49.7328 170.599 49.647 170.381 49.5635C170.061 49.4568 169.744 49.378 169.428 49.327C169.113 49.2759 168.8 49.2226 168.489 49.167L168.726 47.4278H174.249V49.2087H172.948C173.134 49.4359 173.257 49.6586 173.317 49.8765C173.382 50.0991 173.417 50.2939 173.421 50.4609C173.403 50.869 173.299 51.233 173.108 51.553C172.918 51.8777 172.672 52.1606 172.371 52.4017C172.074 52.6475 171.736 52.8539 171.355 53.0209C170.975 53.1925 170.585 53.3316 170.187 53.4383C169.788 53.5449 169.394 53.6214 169.004 53.6678C168.619 53.7188 168.269 53.7443 167.954 53.7443ZM180.183 47.4278V49.2087H180.044C179.594 49.2087 179.214 49.1368 178.903 48.993C178.593 48.8493 178.328 48.6638 178.11 48.4365C177.957 48.6313 177.73 48.782 177.428 48.8887C177.132 48.9907 176.8 49.0649 176.434 49.1113C176.067 49.1623 175.689 49.1901 175.3 49.1948C174.915 49.2041 174.56 49.2087 174.235 49.2087H173.978V47.4278H174.235C174.778 47.4278 175.235 47.3977 175.606 47.3374C175.977 47.2725 176.276 47.1797 176.503 47.0591C176.735 46.9386 176.902 46.7878 177.004 46.607C177.106 46.4214 177.157 46.2081 177.157 45.967C177.157 45.8093 177.127 45.6006 177.067 45.3409C177.006 45.0765 176.916 44.738 176.795 44.3252L178.507 43.8452C178.567 44.0493 178.613 44.2301 178.646 44.3878C178.683 44.5409 178.711 44.6962 178.729 44.8539C178.753 45.007 178.771 45.1739 178.785 45.3548C178.804 45.531 178.822 45.742 178.841 45.9878C178.855 46.1362 178.889 46.2962 178.945 46.4678C179.001 46.6348 179.077 46.7901 179.175 46.9339C179.277 47.073 179.4 47.1913 179.543 47.2887C179.687 47.3814 179.854 47.4278 180.044 47.4278H180.183ZM177.095 41.2643L175.912 42.447L174.715 41.2574L175.898 40.0678L177.095 41.2643ZM179.724 41.2713L178.542 42.4609L177.345 41.2643L178.528 40.0817L179.724 41.2713ZM180.192 47.4278C180.429 47.4278 180.651 47.3814 180.86 47.2887C181.073 47.1913 181.275 47.0197 181.465 46.7739C181.66 46.5235 181.841 46.1826 182.008 45.7513C182.179 45.32 182.342 44.7681 182.495 44.0957L184.199 44.5757C184.088 44.9606 183.988 45.3316 183.9 45.6887C183.812 46.0412 183.763 46.3449 183.754 46.6C183.754 46.6232 183.754 46.6441 183.754 46.6626C183.754 46.7461 183.761 46.8342 183.775 46.927C183.793 47.0197 183.823 47.1055 183.865 47.1843C183.907 47.2632 183.963 47.3258 184.032 47.3722C184.097 47.4139 184.169 47.4348 184.248 47.4348C184.257 47.4348 184.266 47.4348 184.276 47.4348C184.447 47.4301 184.609 47.3675 184.763 47.247C184.916 47.1264 185.057 46.971 185.187 46.7809C185.321 46.5907 185.442 46.3751 185.549 46.1339C185.66 45.8928 185.757 45.6493 185.841 45.4035C185.929 45.153 186.003 44.9096 186.063 44.673C186.124 44.4365 186.17 44.2278 186.203 44.047L187.844 44.3809C187.784 44.6591 187.735 44.9165 187.698 45.153C187.661 45.3849 187.638 45.6191 187.629 45.8557C187.624 45.9159 187.622 45.9762 187.622 46.0365C187.622 46.1525 187.629 46.2893 187.643 46.447C187.661 46.6 187.701 46.7507 187.761 46.8991C187.821 47.0475 187.905 47.1704 188.011 47.2678C188.123 47.3606 188.266 47.407 188.443 47.407C188.642 47.407 188.802 47.3304 188.923 47.1774C189.048 47.0197 189.143 46.8203 189.208 46.5791C189.273 46.338 189.314 46.0713 189.333 45.7791C189.356 45.4823 189.368 45.1948 189.368 44.9165C189.368 44.8284 189.365 44.7588 189.361 44.7078C189.361 44.6522 189.361 44.6012 189.361 44.5548C189.361 44.5084 189.358 44.4574 189.354 44.4017C189.354 44.3414 189.354 44.2603 189.354 44.1583L191.114 44.0191C191.128 44.1722 191.142 44.3229 191.156 44.4713C191.169 44.6151 191.183 44.7658 191.197 44.9235C191.211 45.0765 191.227 45.2412 191.246 45.4174C191.269 45.589 191.295 45.7768 191.323 45.9809C191.355 46.222 191.422 46.433 191.524 46.6139C191.631 46.7948 191.754 46.9455 191.893 47.0661C192.032 47.1867 192.181 47.2771 192.338 47.3374C192.501 47.3977 192.654 47.4278 192.797 47.4278H193.055V49.2087H192.832C192.605 49.2087 192.38 49.1855 192.157 49.1391C191.939 49.0928 191.731 49.0209 191.531 48.9235C191.332 48.8261 191.144 48.7032 190.968 48.5548C190.796 48.4017 190.645 48.2209 190.516 48.0122C190.293 48.3739 190.001 48.6638 189.639 48.8817C189.277 49.0997 188.878 49.2087 188.443 49.2087C188.007 49.2087 187.61 49.1043 187.253 48.8957C186.901 48.687 186.62 48.4087 186.411 48.0609C186.277 48.2325 186.131 48.3901 185.973 48.5339C185.82 48.673 185.653 48.7959 185.472 48.9026C185.296 49.0046 185.108 49.0835 184.909 49.1391C184.709 49.1994 184.501 49.2296 184.283 49.2296C184.074 49.2296 183.872 49.2017 183.677 49.1461C183.483 49.0951 183.302 49.0186 183.135 48.9165C182.968 48.8145 182.817 48.6916 182.683 48.5478C182.548 48.3994 182.437 48.2348 182.349 48.0539C182.117 48.462 181.832 48.7565 181.493 48.9374C181.154 49.1183 180.723 49.2087 180.199 49.2087H179.9V47.4278H180.192ZM186.856 41.4313L185.674 42.6139L184.477 41.4243L185.66 40.2348L186.856 41.4313ZM189.486 41.4383L188.303 42.6278L187.107 41.4313L188.289 40.2487L189.486 41.4383ZM185.896 39.4209L186.982 38.3357L188.074 39.4278L186.989 40.513L185.896 39.4209ZM192.775 47.4278H194.284C194.86 47.4278 195.444 47.3745 196.038 47.2678C196.636 47.1565 197.229 47.0128 197.818 46.8365C198.407 46.6557 198.982 46.4493 199.544 46.2174C200.105 45.9855 200.636 45.7467 201.137 45.5009C200.738 45.4128 200.367 45.2968 200.024 45.153C199.68 45.0046 199.356 44.8609 199.05 44.7217C198.744 44.5826 198.449 44.462 198.166 44.36C197.883 44.258 197.603 44.207 197.324 44.207C197.162 44.207 197.009 44.2371 196.865 44.2974C196.726 44.353 196.596 44.4249 196.476 44.513C196.355 44.6012 196.246 44.6986 196.149 44.8052C196.056 44.9119 195.973 45.0162 195.898 45.1183C195.829 45.2157 195.771 45.3038 195.724 45.3826C195.678 45.4614 195.646 45.5171 195.627 45.5496L194.18 44.6104C194.338 44.3322 194.526 44.0632 194.744 43.8035C194.962 43.5391 195.203 43.3049 195.467 43.1009C195.736 42.8922 196.026 42.7275 196.337 42.607C196.647 42.4817 196.977 42.4191 197.324 42.4191C197.682 42.4191 198.036 42.4678 198.389 42.5652C198.741 42.658 199.089 42.7786 199.432 42.927C199.78 43.0707 200.128 43.2261 200.476 43.393C200.824 43.56 201.174 43.7177 201.526 43.8661C201.883 44.0099 202.243 44.1328 202.604 44.2348C202.966 44.3322 203.337 44.3832 203.718 44.3878L203.571 46.1826C202.922 46.4933 202.245 46.8226 201.54 47.1704C200.835 47.5183 200.098 47.8406 199.328 48.1374C198.558 48.4296 197.753 48.6777 196.914 48.8817C196.079 49.0812 195.203 49.1901 194.284 49.2087H192.775V47.4278ZM198.611 40.2L197.276 41.5357L195.947 40.2L197.276 38.8713L198.611 40.2ZM213.493 52.8748C213.762 52.9212 214.034 52.9443 214.307 52.9443C214.377 52.9443 214.514 52.9397 214.718 52.9304C214.922 52.9212 215.184 52.8794 215.504 52.8052C215.824 52.731 216.13 52.6313 216.422 52.5061C216.719 52.3809 216.99 52.2371 217.236 52.0748L218.175 53.633C217.906 53.7954 217.628 53.9438 217.34 54.0783C217.057 54.2174 216.763 54.3357 216.457 54.433C216.155 54.5304 215.842 54.6046 215.518 54.6557C215.235 54.702 214.945 54.7252 214.648 54.7252C214.602 54.7252 214.553 54.7252 214.502 54.7252C214.066 54.7159 213.63 54.6696 213.194 54.5861C212.763 54.5026 212.35 54.382 211.956 54.2243C211.566 54.0667 211.202 53.8696 210.864 53.633C210.53 53.4012 210.238 53.1299 209.987 52.8191C209.741 52.513 209.547 52.1675 209.403 51.7826C209.259 51.4023 209.185 50.9803 209.18 50.5165C209.194 50.0203 209.287 49.5565 209.459 49.1252C209.63 48.6986 209.857 48.309 210.14 47.9565C210.428 47.5994 210.757 47.2817 211.128 47.0035C211.504 46.7252 211.9 46.4864 212.318 46.287C212.169 46.1478 212.016 46.011 211.859 45.8765C211.706 45.7374 211.557 45.6075 211.413 45.487C211.27 45.3617 211.135 45.2481 211.01 45.1461C210.885 45.0394 210.78 44.949 210.697 44.8748L210.565 43.3861C211.172 42.8574 211.826 42.4609 212.526 42.1965C213.231 41.9275 213.966 41.793 214.732 41.793C214.959 41.793 215.193 41.8093 215.434 41.8417C215.68 41.8742 215.919 41.9252 216.151 41.9948C216.383 42.0643 216.601 42.1548 216.805 42.2661C217.009 42.3774 217.187 42.5142 217.34 42.6765C217.493 42.8342 217.614 43.0174 217.702 43.2261C217.781 43.4301 217.82 43.6574 217.82 43.9078C217.82 43.9217 217.82 43.9357 217.82 43.9496C217.802 44.302 217.732 44.6174 217.612 44.8957C217.496 45.1739 217.343 45.4243 217.153 45.647C216.962 45.8696 216.742 46.069 216.492 46.2452C216.246 46.4214 215.984 46.5838 215.706 46.7322C216.081 46.9409 216.48 47.1101 216.902 47.24C217.329 47.3652 217.744 47.4278 218.147 47.4278H218.384V49.2087H218.147C217.762 49.2087 217.389 49.1693 217.027 49.0904C216.666 49.0116 216.308 48.9003 215.956 48.7565C215.604 48.6081 215.253 48.4342 214.906 48.2348C214.558 48.0307 214.208 47.8058 213.855 47.56C213.517 47.6945 213.173 47.8522 212.826 48.033C212.478 48.2093 212.16 48.418 211.873 48.6591C211.59 48.8957 211.358 49.1646 211.177 49.4661C210.996 49.7675 210.906 50.1084 210.906 50.4887C210.906 50.702 210.947 50.9061 211.031 51.1009C211.119 51.2957 211.233 51.4765 211.372 51.6435C211.511 51.8151 211.671 51.9704 211.852 52.1096C212.033 52.2533 212.218 52.3762 212.408 52.4783C212.603 52.5849 212.793 52.6707 212.979 52.7357C213.169 52.8052 213.34 52.8516 213.493 52.8748ZM214.739 43.4904C214.553 43.4904 214.358 43.5043 214.154 43.5322C213.95 43.5554 213.748 43.5901 213.549 43.6365C213.35 43.6783 213.157 43.7316 212.972 43.7965C212.791 43.8568 212.631 43.9241 212.492 43.9983C212.589 44.1003 212.698 44.2186 212.819 44.353C212.939 44.4829 213.067 44.6197 213.201 44.7635C213.34 44.9072 213.482 45.051 213.626 45.1948C213.769 45.3339 213.911 45.4638 214.05 45.5843C214.356 45.4545 214.641 45.3223 214.906 45.1878C215.17 45.0533 215.399 44.9165 215.594 44.7774C215.794 44.6336 215.951 44.4852 216.067 44.3322C216.183 44.1791 216.244 44.0214 216.248 43.8591C216.244 43.8406 216.213 43.8128 216.158 43.7757C216.102 43.7386 216.012 43.7014 215.886 43.6643C215.766 43.6226 215.61 43.5855 215.42 43.553C215.235 43.5206 215.008 43.4997 214.739 43.4904ZM218.103 47.4278H219.16L219.209 47.3374C219.288 47.1983 219.399 47.0151 219.543 46.7878C219.691 46.5559 219.877 46.2939 220.1 46.0017C220.141 45.7096 220.176 45.3409 220.204 44.8957C220.232 44.4504 220.248 43.9681 220.253 43.4487C220.253 43.1658 220.248 42.8759 220.239 42.5791C220.229 42.2777 220.211 41.9322 220.183 41.5426C220.155 41.153 220.116 40.6986 220.065 40.1791C220.018 39.6551 219.958 39.0313 219.884 38.3078L221.713 37.8348C221.834 38.7252 221.925 39.6388 221.985 40.5757C222.05 41.5125 222.082 42.44 222.082 43.3583V43.9217C222.333 43.7084 222.592 43.5043 222.861 43.3096C223.135 43.1148 223.418 42.9432 223.71 42.7948C224.007 42.6464 224.315 42.5281 224.635 42.44C224.955 42.3519 225.289 42.3078 225.637 42.3078C225.989 42.3078 226.323 42.3635 226.639 42.4748C226.954 42.5861 227.232 42.7484 227.473 42.9617C227.719 43.1704 227.921 43.4255 228.079 43.727C228.236 44.0284 228.334 44.367 228.371 44.7426C228.376 44.8122 228.378 44.8794 228.378 44.9443C228.378 45.4267 228.297 45.8765 228.134 46.2939C227.977 46.7113 227.742 47.0893 227.432 47.4278H229.393V49.2087H227.543C227.177 49.2087 226.769 49.1925 226.319 49.16C225.869 49.1275 225.37 49.0417 224.823 48.9026C224.429 49.0093 224.028 49.0858 223.62 49.1322C223.216 49.1832 222.81 49.2087 222.402 49.2087H218.103V47.4278ZM221.755 47.4278C222.038 47.4278 222.363 47.4209 222.729 47.407C223.1 47.393 223.48 47.3606 223.87 47.3096C224.26 47.2586 224.638 47.182 225.004 47.08C225.375 46.978 225.704 46.8412 225.992 46.6696C226.279 46.498 226.507 46.2823 226.673 46.0226C226.817 45.8 226.889 45.5357 226.889 45.2296C226.889 45.1878 226.887 45.1438 226.882 45.0974C226.873 44.9583 226.827 44.8284 226.743 44.7078C226.664 44.5872 226.553 44.4852 226.409 44.4017C226.27 44.3136 226.103 44.2441 225.908 44.193C225.741 44.1559 225.56 44.1374 225.366 44.1374C225.329 44.1374 225.289 44.1374 225.247 44.1374C225.016 44.1467 224.74 44.207 224.42 44.3183C224.1 44.4249 223.756 44.6058 223.39 44.8609C223.024 45.1159 222.643 45.4522 222.249 45.8696C221.855 46.287 221.47 46.8064 221.094 47.4278H221.755ZM229.286 47.4278C229.773 47.4278 230.241 47.4139 230.691 47.3861C231.141 47.3536 231.551 47.3096 231.922 47.2539C232.293 47.1983 232.613 47.131 232.882 47.0522C233.151 46.9733 233.353 46.8852 233.487 46.7878H232.778C232.37 46.7878 231.98 46.7368 231.609 46.6348C231.243 46.5281 230.92 46.3704 230.642 46.1617C230.364 45.953 230.141 45.6933 229.974 45.3826C229.812 45.0672 229.731 44.7009 229.731 44.2835C229.731 44.0377 229.756 43.7849 229.807 43.5252C229.858 43.2655 229.935 43.0128 230.037 42.767C230.139 42.5212 230.262 42.2893 230.406 42.0713C230.549 41.8533 230.714 41.6632 230.9 41.5009C231.085 41.3339 231.289 41.2041 231.512 41.1113C231.734 41.0139 231.975 40.9652 232.235 40.9652C232.555 40.9652 232.854 41.0325 233.133 41.167C233.411 41.3014 233.664 41.4846 233.891 41.7165C234.118 41.9438 234.32 42.2081 234.496 42.5096C234.672 42.811 234.821 43.1287 234.941 43.4626C235.062 43.7965 235.152 44.1374 235.213 44.4852C235.278 44.8284 235.31 45.1554 235.31 45.4661C235.31 45.9948 235.236 46.4539 235.087 46.8435C234.944 47.233 234.74 47.567 234.475 47.8452C234.215 48.1235 233.902 48.3507 233.536 48.527C233.174 48.7032 232.773 48.8423 232.333 48.9443C231.892 49.0464 231.419 49.1159 230.913 49.153C230.413 49.1901 229.893 49.2087 229.355 49.2087H229.119V47.4278H229.286ZM232.235 42.76C232.212 42.7554 232.189 42.753 232.166 42.753C232.073 42.753 231.966 42.7901 231.846 42.8643C231.725 42.9386 231.609 43.0452 231.498 43.1843C231.387 43.3235 231.296 43.4812 231.227 43.6574C231.157 43.829 231.122 43.9983 231.122 44.1652C231.122 44.1745 231.122 44.1838 231.122 44.193C231.122 44.36 231.159 44.4968 231.233 44.6035C231.308 44.7055 231.407 44.7843 231.533 44.84C231.662 44.8957 231.811 44.9351 231.978 44.9583C232.149 44.9814 232.33 44.9977 232.52 45.007C232.646 45.0116 232.775 45.0139 232.91 45.0139C232.975 45.0139 233.075 45.0139 233.209 45.0139C233.348 45.0093 233.49 45.0023 233.633 44.993C233.592 44.8261 233.531 44.6197 233.453 44.3739C233.378 44.1235 233.283 43.8823 233.167 43.6504C233.056 43.4139 232.922 43.2099 232.764 43.0383C232.611 42.8667 232.435 42.7739 232.235 42.76ZM232.068 38.8713L230.886 40.0539L229.689 38.8643L230.872 37.6748L232.068 38.8713ZM234.698 38.8783L233.515 40.0678L232.319 38.8713L233.501 37.6887L234.698 38.8783Z" fill="black"/>
<path d="M364.162 219.172L176.072 103.544L44.0781 191.54L231.943 317.718L364.162 229.572L364.162 219.172Z" fill="#E7E7E7" stroke="black"/>
<path d="M43.8371 180.697L43.8346 191.376L231.417 317.364L232.151 306.869L44.1934 180.519L43.8371 180.697Z" fill="#A3A3A3" stroke="black"/>
<rect x="-0.000955552" y="0.556128" width="158.615" height="226.305" transform="matrix(-0.83205 0.5547 0.830139 0.557556 175.591 92.2466)" fill="#E7E7E7" stroke="black"/>
<path d="M231.943 306.718L240.15 301.247L52.2852 175.069L44.078 180.54L231.943 306.718Z" fill="#A3A3A3" stroke="black"/>
<path d="M278.165 129.521C278.165 129.535 278.174 129.61 278.191 129.747C278.208 129.877 278.226 130.048 278.243 130.262C278.26 130.468 278.275 130.7 278.286 130.958C278.292 131.136 278.295 131.316 278.295 131.496V131.768C278.272 133.359 277.957 134.38 277.349 134.831V134.82C276.758 135.282 275.957 135.176 274.944 134.5C274.666 134.315 274.414 134.127 274.188 133.934C273.968 133.739 273.748 133.516 273.529 133.265L273.598 133.885C273.667 134.585 273.722 135.297 273.763 136.019C273.809 136.739 273.844 137.454 273.867 138.165C273.896 138.873 273.913 139.567 273.919 140.245C273.931 140.921 273.937 141.561 273.937 142.166L272.209 141.015C272.209 139.909 272.2 138.804 272.183 137.7C272.165 136.589 272.119 135.494 272.044 134.414C271.969 133.327 271.856 132.264 271.705 131.225C271.561 130.182 271.358 129.178 271.098 128.211C270.976 127.754 270.846 127.309 270.707 126.876C270.568 126.442 270.412 125.987 270.238 125.509L271.688 125.37C271.781 125.613 271.864 125.853 271.94 126.091C272.021 126.326 272.099 126.569 272.174 126.821C272.255 127.07 272.336 127.333 272.417 127.609C272.498 127.886 272.588 128.186 272.686 128.509C272.819 128.966 272.95 129.387 273.077 129.771C273.21 130.152 273.361 130.506 273.529 130.834C273.702 131.165 273.899 131.463 274.119 131.728C274.345 131.99 274.62 132.229 274.944 132.445C275.424 132.765 275.786 132.829 276.029 132.636C276.139 132.556 276.229 132.439 276.298 132.283C276.368 132.121 276.423 131.939 276.463 131.736C276.509 131.537 276.541 131.322 276.559 131.09C276.576 130.858 276.585 130.627 276.585 130.398C276.585 130.099 276.57 129.8 276.541 129.503C276.518 129.209 276.492 128.962 276.463 128.762L278.165 129.521ZM280.991 141.005C280.991 140.518 281.066 140.113 281.217 139.789C281.373 139.462 281.584 139.227 281.851 139.084C282.117 138.935 282.427 138.884 282.78 138.931C283.139 138.983 283.523 139.146 283.934 139.419C284.34 139.69 284.719 140.036 285.072 140.459C285.431 140.887 285.743 141.352 286.01 141.857C286.282 142.358 286.496 142.877 286.652 143.412C286.808 143.941 286.886 144.448 286.886 144.935C286.886 145.429 286.808 145.84 286.652 146.167C286.496 146.487 286.282 146.716 286.01 146.855C285.743 146.998 285.431 147.043 285.072 146.992C284.719 146.937 284.34 146.775 283.934 146.505C283.523 146.231 283.139 145.884 282.78 145.464C282.427 145.04 282.117 144.58 281.851 144.082C281.584 143.585 281.373 143.072 281.217 142.543C281.066 142.012 280.991 141.499 280.991 141.005ZM282.406 141.949C282.406 142.199 282.447 142.463 282.528 142.739C282.609 143.016 282.719 143.284 282.858 143.543C282.997 143.803 283.159 144.043 283.344 144.264C283.529 144.485 283.726 144.665 283.934 144.804C284.143 144.943 284.34 145.025 284.525 145.051C284.716 145.081 284.881 145.059 285.02 144.985C285.159 144.91 285.269 144.789 285.35 144.62C285.431 144.452 285.471 144.242 285.471 143.992C285.471 143.741 285.431 143.478 285.35 143.201C285.269 142.918 285.159 142.646 285.02 142.386C284.881 142.127 284.716 141.885 284.525 141.66C284.34 141.439 284.143 141.259 283.934 141.12C283.726 140.981 283.529 140.899 283.344 140.873C283.159 140.847 282.997 140.871 282.858 140.945C282.719 141.02 282.609 141.145 282.528 141.32C282.447 141.489 282.406 141.698 282.406 141.949Z" fill="black"/>
<path d="M104.165 111.476C104.165 111.49 104.174 111.554 104.191 111.668C104.208 111.774 104.226 111.923 104.243 112.113C104.26 112.296 104.275 112.509 104.286 112.752C104.292 112.922 104.295 113.097 104.295 113.278V113.549C104.272 115.172 103.957 116.613 103.349 117.874V117.864C102.758 119.113 101.957 120.075 100.944 120.751C100.666 120.936 100.414 121.083 100.188 121.192C99.9684 121.29 99.7485 121.36 99.5285 121.402L99.598 121.93C99.6675 122.537 99.7225 123.175 99.763 123.844C99.8093 124.502 99.844 125.171 99.8672 125.851C99.8961 126.52 99.9135 127.191 99.9192 127.862C99.9308 128.522 99.9366 129.154 99.9366 129.759L98.2088 130.911C98.2088 129.805 98.2002 128.712 98.1828 127.631C98.1654 126.544 98.1191 125.51 98.0439 124.531C97.9686 123.545 97.8558 122.632 97.7053 121.793C97.5606 120.944 97.358 120.209 97.0975 119.59C96.976 119.295 96.8457 119.024 96.7068 118.775C96.5679 118.527 96.4116 118.28 96.238 118.034L97.6879 115.961C97.7805 116.08 97.8644 116.209 97.9397 116.346C98.0207 116.473 98.0989 116.612 98.1741 116.764C98.2551 116.905 98.3362 117.059 98.4172 117.228C98.4983 117.397 98.588 117.577 98.6864 117.769C98.8195 118.049 98.9497 118.296 99.0771 118.51C99.2102 118.713 99.3607 118.867 99.5285 118.971C99.7022 119.071 99.899 119.106 100.119 119.078C100.345 119.039 100.62 118.911 100.944 118.695C101.424 118.375 101.786 117.956 102.029 117.439C102.139 117.213 102.229 116.976 102.298 116.728C102.368 116.473 102.423 116.217 102.463 115.96C102.509 115.7 102.541 115.442 102.559 115.187C102.576 114.932 102.585 114.69 102.585 114.46C102.585 114.161 102.57 113.882 102.541 113.623C102.518 113.36 102.492 113.148 102.463 112.986L104.165 111.476ZM106.991 119.192C106.991 118.705 107.066 118.199 107.217 117.675C107.373 117.139 107.584 116.623 107.851 116.125C108.117 115.621 108.427 115.157 108.78 114.734C109.139 114.307 109.523 113.956 109.934 113.682C110.34 113.412 110.719 113.253 111.072 113.206C111.431 113.154 111.743 113.203 112.01 113.353C112.282 113.491 112.496 113.724 112.652 114.051C112.808 114.371 112.886 114.775 112.886 115.262C112.886 115.756 112.808 116.271 112.652 116.806C112.496 117.335 112.282 117.85 112.01 118.351C111.743 118.848 111.431 119.311 111.072 119.738C110.719 120.154 110.34 120.497 109.934 120.767C109.523 121.041 109.139 121.207 108.78 121.266C108.427 121.313 108.117 121.266 107.851 121.123C107.584 120.981 107.373 120.75 107.217 120.429C107.066 120.098 106.991 119.686 106.991 119.192ZM108.406 118.249C108.406 118.499 108.447 118.709 108.528 118.877C108.609 119.046 108.719 119.167 108.858 119.242C108.997 119.316 109.159 119.34 109.344 119.314C109.529 119.288 109.726 119.205 109.934 119.066C110.143 118.928 110.34 118.748 110.525 118.527C110.716 118.302 110.881 118.06 111.02 117.8C111.159 117.541 111.269 117.273 111.35 116.996C111.431 116.719 111.471 116.456 111.471 116.205C111.471 115.955 111.431 115.745 111.35 115.577C111.269 115.401 111.159 115.276 111.02 115.202C110.881 115.128 110.716 115.106 110.525 115.135C110.34 115.162 110.143 115.244 109.934 115.383C109.726 115.522 109.529 115.702 109.344 115.923C109.159 116.144 108.997 116.384 108.858 116.643C108.719 116.903 108.609 117.174 108.528 117.458C108.447 117.735 108.406 117.998 108.406 118.249Z" fill="black"/>
<path d="M183.815 201.747C185.23 202.844 185.867 204.027 185.726 205.296C185.579 206.561 184.675 207.747 183.014 208.854C181.191 210.07 179.149 210.616 176.889 210.492C174.622 210.364 172.424 209.585 170.293 208.154L169.427 207.572C168.064 206.656 167.103 205.69 166.544 204.671C165.985 203.653 165.874 202.66 166.211 201.694C166.553 200.723 167.315 199.844 168.496 199.057C170.134 197.965 171.893 197.38 173.772 197.302C175.651 197.224 177.46 197.664 179.198 198.623L176.273 200.573C175.285 200.003 174.366 199.727 173.516 199.745C172.666 199.763 171.793 200.071 170.896 200.669C169.923 201.317 169.543 202.038 169.756 202.831C169.963 203.621 170.794 204.512 172.249 205.505L173.314 206.221C174.845 207.248 176.196 207.847 177.37 208.015C178.543 208.176 179.631 207.922 180.632 207.254C181.535 206.653 182.001 206.067 182.031 205.499C182.067 204.926 181.686 204.326 180.89 203.698L183.815 201.747ZM184.467 200.455C183.422 199.753 182.692 198.995 182.277 198.182C181.862 197.361 181.811 196.549 182.125 195.744C182.433 194.936 183.087 194.199 184.089 193.531C185.513 192.582 187.109 192.101 188.878 192.088C190.647 192.068 192.332 192.526 193.932 193.461L194.668 193.932C196.279 195.014 197.122 196.184 197.195 197.442C197.268 198.699 196.543 199.835 195.021 200.85C193.498 201.865 191.798 202.349 189.919 202.304C188.046 202.254 186.272 201.667 184.597 200.542L184.467 200.455ZM187.497 198.713C188.496 199.384 189.449 199.773 190.357 199.879C191.258 199.981 192.059 199.798 192.76 199.332C193.443 198.876 193.715 198.347 193.578 197.743C193.44 197.131 192.796 196.44 191.647 195.668C190.671 195.012 189.721 194.634 188.796 194.531C187.871 194.421 187.061 194.598 186.367 195.061C185.678 195.52 185.414 196.056 185.575 196.667C185.73 197.275 186.371 197.957 187.497 198.713ZM202.074 191.302L196.942 185.229L199.886 183.266L206.851 192.708L204.168 194.497L190.083 189.801L193.027 187.839L202.074 191.302ZM216.689 186.404C215.144 187.435 213.414 187.958 211.5 187.974C209.581 187.986 207.833 187.463 206.256 186.404L205.979 186.218C204.922 185.508 204.181 184.739 203.754 183.91C203.334 183.078 203.274 182.259 203.576 181.455C203.873 180.647 204.501 179.923 205.462 179.282C206.903 178.321 208.494 177.871 210.234 177.932C211.974 177.986 213.676 178.571 215.339 179.688L216.491 180.462L209.771 184.942C210.551 185.342 211.377 185.529 212.25 185.503C213.123 185.478 213.91 185.231 214.611 184.764C215.699 184.039 216.154 183.21 215.976 182.277L218.907 182.387C219.085 183.072 218.98 183.768 218.592 184.475C218.203 185.175 217.569 185.818 216.689 186.404ZM207.731 180.818C207.17 181.192 206.903 181.621 206.931 182.105C206.96 182.589 207.277 183.1 207.883 183.639L211.807 181.022L211.582 180.871C210.947 180.46 210.294 180.25 209.623 180.241C208.958 180.228 208.328 180.421 207.731 180.818ZM220.459 173.075C220.025 173.295 219.664 173.501 219.374 173.694C218.303 174.408 217.964 175.117 218.356 175.822L225.242 180.447L222.429 182.323L211.905 175.254L214.561 173.483L215.895 174.274C215.493 173.244 215.792 172.396 216.793 171.728C217.106 171.52 217.441 171.354 217.8 171.231L220.459 173.075Z" fill="black"/>
<path d="M190.706 85.1575C190.543 84.8539 190.543 84.5373 190.706 84.4504L193.353 83.0334C193.516 82.9465 193.779 83.1221 193.941 83.4257C194.104 83.7292 194.104 84.0458 193.941 84.1328L191.588 85.3923L193.941 89.7896C194.104 90.0932 194.104 90.4098 193.941 90.4967C193.779 90.5837 193.516 90.4081 193.353 90.1045L190.706 85.1575ZM245.083 121.556L191 85.5V84.5L245.083 120.556V121.556Z" fill="black"/>
<path d="M40.7057 164.613C40.5433 164.526 40.5433 164.209 40.7057 163.906L43.3533 158.959C43.5158 158.655 43.7792 158.48 43.9416 158.567C44.1041 158.653 44.1041 158.97 43.9416 159.274L41.5883 163.671L43.9416 164.93C44.1041 165.017 44.1041 165.334 43.9416 165.638C43.7792 165.941 43.5158 166.117 43.3533 166.03L40.7057 164.613ZM87.5947 133.5L40.9999 164.563V163.563L87.5947 132.5V133.5Z" fill="black"/>
<path d="M168.889 80.4503C169.051 80.5373 169.051 80.8539 168.889 81.1574L166.241 86.1045C166.079 86.408 165.815 86.5836 165.653 86.4967C165.491 86.4097 165.491 86.0932 165.653 85.7896L168.006 81.3922L165.653 80.1327C165.491 80.0458 165.491 79.7292 165.653 79.4256C165.815 79.1221 166.079 78.9464 166.241 79.0334L168.889 80.4503ZM168.595 81.5L122 112.563V111.563L168.595 80.5V81.5Z" fill="black"/>
<path d="M365.377 199.954C365.54 200.257 365.54 200.574 365.377 200.661L362.73 202.078C362.567 202.165 362.304 201.989 362.141 201.685C361.979 201.382 361.979 201.065 362.141 200.978L364.495 199.719L362.141 195.321C361.979 195.018 361.979 194.701 362.141 194.614C362.304 194.527 362.567 194.703 362.73 195.007L365.377 199.954ZM365.083 200.611L311 164.556V163.556L365.083 199.611V200.611Z" fill="black"/>
<path d="M158.736 349.01C158.945 348.964 159.158 348.936 159.376 348.927C159.437 348.922 159.497 348.92 159.557 348.92C159.71 348.92 159.877 348.932 160.058 348.955C160.243 348.978 160.438 349.022 160.642 349.087C160.851 349.152 161.05 349.235 161.241 349.337L160.608 351.007C160.366 350.9 160.116 350.828 159.856 350.791C159.745 350.777 159.636 350.77 159.529 350.77C159.376 350.77 159.223 350.784 159.07 350.812C158.912 350.826 158.743 350.872 158.562 350.951C158.381 351.03 158.201 351.132 158.02 351.257C157.843 351.378 157.672 351.519 157.505 351.682C157.343 351.839 157.199 352.009 157.074 352.19C156.948 352.366 156.846 352.549 156.768 352.739C156.693 352.925 156.656 353.106 156.656 353.282C156.656 353.481 156.703 353.639 156.795 353.755C156.893 353.866 157.02 353.959 157.178 354.033C157.34 354.103 157.526 354.161 157.734 354.207C157.943 354.249 158.161 354.3 158.388 354.36C158.667 354.425 158.947 354.499 159.23 354.583C159.513 354.666 159.768 354.782 159.995 354.93C160.223 355.074 160.403 355.264 160.538 355.501C160.654 355.71 160.712 355.967 160.712 356.273C160.712 356.315 160.71 356.359 160.705 356.405C160.677 356.892 160.566 357.321 160.371 357.692C160.176 358.068 159.923 358.392 159.613 358.666C159.302 358.94 158.947 359.167 158.548 359.348C158.15 359.533 157.732 359.682 157.296 359.793C156.86 359.904 156.42 359.983 155.974 360.03C155.529 360.076 155.105 360.099 154.701 360.099C153.885 360.099 153.139 359.99 152.461 359.772C151.789 359.554 151.221 359.23 150.757 358.798C150.293 358.372 149.957 357.838 149.748 357.198C149.609 356.781 149.54 356.319 149.54 355.814C149.54 355.545 149.558 355.267 149.595 354.979C149.632 354.673 149.683 354.362 149.748 354.047C149.813 353.732 149.883 353.428 149.957 353.136C150.031 352.839 150.108 352.558 150.187 352.294C150.266 352.03 150.337 351.798 150.402 351.598C150.467 351.399 150.523 351.237 150.569 351.111C150.616 350.986 150.643 350.914 150.653 350.896L152.183 351.515C152.072 351.863 151.97 352.19 151.877 352.496C151.784 352.797 151.701 353.094 151.627 353.386C151.552 353.678 151.485 353.973 151.425 354.27C151.369 354.562 151.321 354.872 151.279 355.202C151.26 355.355 151.251 355.503 151.251 355.647C151.251 355.976 151.314 356.303 151.439 356.628C151.569 356.957 151.789 357.247 152.1 357.497C152.415 357.752 152.795 357.943 153.241 358.068C153.686 358.193 154.173 358.256 154.701 358.256C155.318 358.256 155.891 358.207 156.42 358.11C156.953 358.017 157.414 357.892 157.804 357.734C158.198 357.576 158.511 357.398 158.743 357.198C158.98 357.003 159.112 356.802 159.14 356.593C159.135 356.551 159.091 356.512 159.008 356.475C158.924 356.438 158.82 356.401 158.694 356.363C158.569 356.331 158.43 356.296 158.277 356.259C158.129 356.227 157.985 356.192 157.846 356.155C157.456 356.057 157.094 355.946 156.761 355.821C156.427 355.7 156.137 355.54 155.891 355.341C155.645 355.141 155.453 354.889 155.314 354.583C155.174 354.277 155.105 353.892 155.105 353.428C155.128 352.918 155.235 352.421 155.425 351.939C155.615 351.457 155.87 351.019 156.19 350.624C156.515 350.226 156.893 349.885 157.324 349.602C157.755 349.319 158.226 349.122 158.736 349.01ZM162.697 352.475C162.874 352.586 163.085 352.7 163.33 352.816C163.581 352.932 163.838 353.036 164.103 353.129C164.372 353.221 164.634 353.298 164.889 353.358C165.148 353.419 165.376 353.449 165.57 353.449C165.649 353.449 165.747 353.446 165.863 353.442C165.979 353.437 166.101 353.428 166.231 353.414C166.361 353.395 166.491 353.37 166.621 353.337C166.751 353.3 166.867 353.252 166.969 353.191C167.075 353.126 167.161 353.048 167.226 352.955C167.291 352.857 167.326 352.739 167.33 352.6C167.33 352.591 167.33 352.584 167.33 352.579C167.33 352.394 167.277 352.185 167.17 351.953C167.068 351.717 166.927 351.471 166.746 351.216C166.565 350.956 166.357 350.696 166.12 350.437C165.883 350.177 165.638 349.929 165.383 349.692C165.128 349.451 164.87 349.231 164.61 349.031C164.355 348.827 164.117 348.656 163.894 348.517L164.93 346.979C165.357 347.271 165.777 347.601 166.19 347.967C166.607 348.333 166.99 348.725 167.337 349.143C167.69 349.555 167.994 349.987 168.249 350.437C168.508 350.886 168.694 351.341 168.805 351.8C168.865 352.064 168.896 352.317 168.896 352.558C168.896 352.79 168.852 353.068 168.763 353.393C168.68 353.718 168.488 354.038 168.186 354.353C167.885 354.664 167.502 354.903 167.038 355.07C166.639 355.213 166.201 355.285 165.723 355.285C165.645 355.285 165.563 355.283 165.48 355.278C165.174 355.278 164.863 355.248 164.548 355.188C164.232 355.132 163.922 355.053 163.616 354.951C163.314 354.849 163.022 354.733 162.739 354.603C162.461 354.469 162.201 354.328 161.96 354.179L162.697 352.475ZM169.797 358.339C170.479 358.205 171.093 358.024 171.64 357.797C172.192 357.574 172.67 357.323 173.073 357.045C173.477 356.767 173.804 356.47 174.054 356.155C174.309 355.839 174.479 355.524 174.562 355.209C174.186 355.209 173.82 355.197 173.463 355.174C173.106 355.151 172.767 355.104 172.447 355.035C172.132 354.97 171.84 354.877 171.571 354.757C171.306 354.631 171.077 354.469 170.882 354.27C170.692 354.066 170.543 353.82 170.437 353.532C170.33 353.245 170.277 352.901 170.277 352.503C170.277 352.248 170.305 351.981 170.36 351.703C170.416 351.424 170.495 351.153 170.597 350.889C170.703 350.62 170.833 350.367 170.986 350.13C171.139 349.889 171.316 349.678 171.515 349.497C171.714 349.312 171.935 349.166 172.176 349.059C172.417 348.952 172.677 348.899 172.955 348.899C173.674 348.899 174.33 349.219 174.924 349.859C175.119 350.077 175.295 350.321 175.452 350.59C175.61 350.859 175.747 351.146 175.863 351.452C175.979 351.758 176.072 352.078 176.141 352.412C176.215 352.741 176.262 353.08 176.28 353.428H176.746V355.209H176.134C175.976 355.895 175.71 356.512 175.334 357.059C174.959 357.611 174.506 358.091 173.978 358.499C173.454 358.907 172.869 359.243 172.225 359.508C171.58 359.772 170.91 359.962 170.214 360.078L169.797 358.339ZM172.955 350.687C172.834 350.687 172.705 350.738 172.565 350.84C172.426 350.942 172.299 351.074 172.183 351.237C172.067 351.394 171.97 351.57 171.891 351.765C171.816 351.96 171.779 352.15 171.779 352.336C171.779 352.53 171.823 352.693 171.912 352.823C172.004 352.952 172.12 353.057 172.259 353.136C172.403 353.214 172.563 353.275 172.739 353.317C172.92 353.354 173.099 353.379 173.275 353.393C173.372 353.402 173.479 353.409 173.595 353.414C173.711 353.414 173.829 353.416 173.95 353.421C174.075 353.426 174.198 353.428 174.319 353.428C174.439 353.428 174.553 353.428 174.659 353.428C174.645 353.256 174.611 353.071 174.555 352.871C174.504 352.667 174.437 352.463 174.353 352.259C174.27 352.055 174.175 351.86 174.068 351.675C173.961 351.485 173.845 351.318 173.72 351.174C173.6 351.026 173.474 350.907 173.345 350.819C173.215 350.731 173.085 350.687 172.955 350.687ZM179.948 352.489C180.101 352.554 180.298 352.635 180.539 352.732C180.78 352.83 181.04 352.927 181.318 353.024C181.596 353.122 181.877 353.21 182.16 353.289C182.447 353.363 182.709 353.409 182.946 353.428C182.9 353.233 182.851 353.031 182.8 352.823C182.753 352.609 182.7 352.403 182.64 352.203C182.58 352.004 182.512 351.816 182.438 351.64C182.364 351.459 182.276 351.301 182.174 351.167C182.076 351.032 181.963 350.926 181.833 350.847C181.703 350.768 181.557 350.729 181.395 350.729C181.209 350.729 181.042 350.789 180.894 350.91C180.75 351.03 180.618 351.181 180.497 351.362C180.381 351.538 180.277 351.728 180.184 351.932C180.096 352.136 180.017 352.322 179.948 352.489ZM182.591 355.188C182.35 355.183 182.067 355.148 181.742 355.083C181.418 355.023 181.086 354.942 180.748 354.84C180.414 354.738 180.091 354.622 179.781 354.492C179.475 354.362 179.215 354.226 179.002 354.082C178.821 354.263 178.644 354.423 178.473 354.562C178.301 354.701 178.123 354.819 177.937 354.917C177.752 355.009 177.55 355.081 177.332 355.132C177.119 355.183 176.875 355.209 176.602 355.209H176.462V353.428H176.602C176.94 353.428 177.223 353.365 177.45 353.24C177.678 353.11 177.872 352.943 178.035 352.739C178.197 352.535 178.338 352.306 178.459 352.05C178.584 351.795 178.712 351.54 178.842 351.285C178.971 351.016 179.12 350.747 179.287 350.478C179.454 350.209 179.642 349.968 179.85 349.755C180.064 349.537 180.302 349.361 180.567 349.226C180.831 349.092 181.128 349.024 181.457 349.024C181.889 349.024 182.25 349.101 182.542 349.254C182.839 349.402 183.085 349.609 183.28 349.873C183.479 350.133 183.637 350.439 183.753 350.791C183.869 351.144 183.966 351.524 184.045 351.932C184.091 352.169 184.135 352.38 184.177 352.565C184.219 352.746 184.265 352.901 184.316 353.031C184.372 353.161 184.43 353.261 184.49 353.33C184.555 353.395 184.632 353.428 184.72 353.428H184.935V355.209H184.671C184.416 355.204 184.189 355.134 183.989 355C183.795 354.861 183.614 354.678 183.447 354.45C183.396 354.497 183.335 354.559 183.266 354.638C183.201 354.717 183.129 354.796 183.05 354.875C182.976 354.949 182.9 355.016 182.821 355.077C182.742 355.137 182.665 355.174 182.591 355.188ZM190.883 351.125C190.716 350.93 190.521 350.754 190.299 350.597C190.113 350.462 189.897 350.341 189.652 350.235C189.406 350.123 189.137 350.068 188.845 350.068C188.608 350.068 188.399 350.105 188.219 350.179C188.038 350.249 187.885 350.346 187.759 350.471C187.634 350.592 187.537 350.733 187.467 350.896C187.398 351.058 187.356 351.232 187.342 351.417C187.337 351.45 187.335 351.482 187.335 351.515C187.335 351.733 187.393 351.946 187.509 352.155C187.625 352.359 187.787 352.542 187.996 352.704C188.205 352.862 188.446 352.983 188.719 353.066C188.942 353.136 189.167 353.17 189.394 353.17C189.445 353.17 189.496 353.168 189.547 353.163C189.816 353.145 190.085 353.117 190.354 353.08C190.628 353.038 190.876 352.999 191.099 352.962L191.843 352.816L192.059 354.548C191.771 354.622 191.449 354.699 191.092 354.777C190.735 354.856 190.324 354.928 189.86 354.993C189.401 355.053 188.879 355.104 188.295 355.146C187.711 355.188 187.048 355.209 186.306 355.209H184.65V353.428H184.956L186.285 353.421C186.034 353.129 185.863 352.83 185.77 352.523C185.682 352.213 185.638 351.872 185.638 351.501C185.638 351.065 185.719 350.652 185.881 350.263C186.044 349.873 186.266 349.532 186.549 349.24C186.837 348.948 187.175 348.716 187.565 348.544C187.959 348.373 188.386 348.287 188.845 348.287C189.072 348.287 189.29 348.308 189.499 348.35C189.712 348.391 189.914 348.447 190.104 348.517C190.294 348.586 190.473 348.665 190.639 348.753C190.811 348.841 190.966 348.929 191.106 349.017C191.268 349.124 191.426 349.238 191.579 349.358C191.732 349.479 191.875 349.606 192.01 349.741L190.883 351.125ZM203.329 359.744C202.531 359.744 201.794 359.645 201.116 359.445C200.439 359.25 199.862 358.954 199.384 358.555C198.907 358.161 198.547 357.664 198.306 357.066C198.111 356.598 198.014 356.067 198.014 355.473C198.014 355.315 198.021 355.153 198.035 354.986C198.063 354.666 198.1 354.339 198.146 354.005C198.197 353.671 198.264 353.321 198.348 352.955C198.436 352.584 198.547 352.192 198.682 351.779C198.816 351.366 198.983 350.921 199.183 350.443L200.616 351.104C200.425 351.577 200.268 352.016 200.143 352.419C200.017 352.818 199.918 353.189 199.843 353.532C199.774 353.875 199.725 354.198 199.697 354.499C199.669 354.801 199.656 355.09 199.656 355.369C199.656 355.703 199.697 356.002 199.781 356.266C199.869 356.53 199.98 356.767 200.115 356.976C200.296 357.221 200.523 357.409 200.796 357.539C201.07 357.674 201.358 357.771 201.659 357.831C201.965 357.892 202.264 357.926 202.556 357.936C202.853 357.95 203.111 357.957 203.329 357.957C203.458 357.957 203.646 357.947 203.892 357.929C204.143 357.91 204.414 357.878 204.706 357.831C205.003 357.785 205.307 357.725 205.617 357.65C205.928 357.576 206.209 357.483 206.459 357.372C206.714 357.261 206.92 357.131 207.078 356.983C207.24 356.834 207.322 356.66 207.322 356.461C207.322 356.428 207.28 356.377 207.196 356.308C207.118 356.243 207.006 356.169 206.863 356.085C206.723 356.002 206.559 355.914 206.369 355.821C206.178 355.733 205.974 355.647 205.756 355.563C205.436 355.457 205.119 355.378 204.803 355.327C204.488 355.276 204.175 355.223 203.864 355.167L204.101 353.428H209.624V355.209H208.323C208.509 355.436 208.632 355.659 208.692 355.877C208.757 356.099 208.792 356.294 208.796 356.461C208.778 356.869 208.674 357.233 208.483 357.553C208.293 357.878 208.047 358.161 207.746 358.402C207.449 358.648 207.111 358.854 206.73 359.021C206.35 359.192 205.96 359.332 205.562 359.438C205.163 359.545 204.769 359.621 204.379 359.668C203.994 359.719 203.644 359.744 203.329 359.744ZM209.645 353.428C209.882 353.428 210.104 353.381 210.313 353.289C210.526 353.191 210.728 353.02 210.918 352.774C211.113 352.523 211.294 352.183 211.461 351.751C211.632 351.32 211.795 350.768 211.948 350.096L213.652 350.576C213.541 350.961 213.441 351.332 213.353 351.689C213.265 352.041 213.216 352.345 213.207 352.6C213.207 352.623 213.207 352.644 213.207 352.663C213.207 352.746 213.214 352.834 213.228 352.927C213.246 353.02 213.277 353.106 213.318 353.184C213.36 353.263 213.416 353.326 213.485 353.372C213.55 353.414 213.622 353.435 213.701 353.435C213.71 353.435 213.719 353.435 213.729 353.435C213.9 353.43 214.063 353.368 214.216 353.247C214.369 353.126 214.51 352.971 214.64 352.781C214.775 352.591 214.895 352.375 215.002 352.134C215.113 351.893 215.21 351.649 215.294 351.403C215.382 351.153 215.456 350.91 215.517 350.673C215.577 350.437 215.623 350.228 215.656 350.047L217.297 350.381C217.237 350.659 217.188 350.917 217.151 351.153C217.114 351.385 217.091 351.619 217.082 351.856C217.077 351.916 217.075 351.976 217.075 352.037C217.075 352.152 217.082 352.289 217.096 352.447C217.114 352.6 217.154 352.751 217.214 352.899C217.274 353.048 217.358 353.17 217.464 353.268C217.576 353.361 217.719 353.407 217.896 353.407C218.095 353.407 218.255 353.33 218.376 353.177C218.501 353.02 218.596 352.82 218.661 352.579C218.726 352.338 218.768 352.071 218.786 351.779C218.809 351.482 218.821 351.195 218.821 350.917C218.821 350.828 218.819 350.759 218.814 350.708C218.814 350.652 218.814 350.601 218.814 350.555C218.814 350.508 218.812 350.457 218.807 350.402C218.807 350.341 218.807 350.26 218.807 350.158L220.567 350.019C220.581 350.172 220.595 350.323 220.609 350.471C220.623 350.615 220.637 350.766 220.65 350.923C220.664 351.077 220.681 351.241 220.699 351.417C220.722 351.589 220.748 351.777 220.776 351.981C220.808 352.222 220.875 352.433 220.977 352.614C221.084 352.795 221.207 352.946 221.346 353.066C221.485 353.187 221.634 353.277 221.791 353.337C221.954 353.398 222.107 353.428 222.25 353.428H222.508V355.209H222.285C222.058 355.209 221.833 355.186 221.61 355.139C221.392 355.093 221.184 355.021 220.984 354.923C220.785 354.826 220.597 354.703 220.421 354.555C220.249 354.402 220.099 354.221 219.969 354.012C219.746 354.374 219.454 354.664 219.092 354.882C218.73 355.1 218.332 355.209 217.896 355.209C217.46 355.209 217.063 355.104 216.706 354.896C216.354 354.687 216.073 354.409 215.864 354.061C215.73 354.232 215.584 354.39 215.426 354.534C215.273 354.673 215.106 354.796 214.925 354.903C214.749 355.005 214.561 355.083 214.362 355.139C214.162 355.199 213.954 355.23 213.736 355.23C213.527 355.23 213.325 355.202 213.13 355.146C212.936 355.095 212.755 355.019 212.588 354.917C212.421 354.814 212.27 354.692 212.136 354.548C212.001 354.399 211.89 354.235 211.802 354.054C211.57 354.462 211.285 354.757 210.946 354.937C210.608 355.118 210.176 355.209 209.652 355.209H209.353V353.428H209.645ZM228.433 353.428V355.209H228.294C227.844 355.209 227.464 355.137 227.153 354.993C226.843 354.849 226.578 354.664 226.36 354.437C226.207 354.631 225.98 354.782 225.678 354.889C225.382 354.991 225.05 355.065 224.684 355.111C224.317 355.162 223.939 355.19 223.55 355.195C223.165 355.204 222.81 355.209 222.485 355.209H222.228V353.428H222.485C223.028 353.428 223.485 353.398 223.856 353.337C224.227 353.272 224.526 353.18 224.753 353.059C224.985 352.939 225.152 352.788 225.254 352.607C225.356 352.421 225.407 352.208 225.407 351.967C225.407 351.809 225.377 351.601 225.317 351.341C225.256 351.077 225.166 350.738 225.045 350.325L226.757 349.845C226.817 350.049 226.863 350.23 226.896 350.388C226.933 350.541 226.961 350.696 226.979 350.854C227.003 351.007 227.021 351.174 227.035 351.355C227.054 351.531 227.072 351.742 227.091 351.988C227.105 352.136 227.139 352.296 227.195 352.468C227.251 352.635 227.327 352.79 227.425 352.934C227.527 353.073 227.65 353.191 227.793 353.289C227.937 353.381 228.104 353.428 228.294 353.428H228.433ZM224.816 357.268L223.633 358.45L222.437 357.261L223.619 356.071L224.816 357.268ZM227.445 357.275L226.263 358.464L225.066 357.268L226.249 356.085L227.445 357.275ZM228.15 353.428H228.658C228.825 353.428 228.98 353.414 229.124 353.386C229.268 353.358 229.395 353.3 229.506 353.212C229.618 353.119 229.708 352.992 229.778 352.83C229.847 352.667 229.891 352.449 229.91 352.176C229.91 352.069 229.912 351.883 229.917 351.619C229.926 351.35 229.933 351.032 229.938 350.666C229.942 350.295 229.947 349.889 229.952 349.449C229.956 349.008 229.959 348.558 229.959 348.099C229.959 347.742 229.956 347.392 229.952 347.049C229.952 346.701 229.947 346.367 229.938 346.047C229.933 345.727 229.922 345.426 229.903 345.143C229.889 344.86 229.868 344.602 229.84 344.37L231.614 344.141C231.647 344.391 231.672 344.674 231.691 344.99C231.709 345.305 231.723 345.641 231.733 345.998C231.746 346.351 231.753 346.722 231.753 347.111C231.758 347.496 231.76 347.886 231.76 348.28C231.76 349.157 231.751 349.919 231.733 350.569C231.719 351.218 231.712 351.793 231.712 352.294C231.712 352.646 231.802 352.925 231.983 353.129C232.164 353.328 232.433 353.428 232.79 353.428H232.943V355.209H232.79C232.762 355.209 232.737 355.209 232.713 355.209C232.533 355.209 232.354 355.192 232.178 355.16C232.006 355.132 231.839 355.088 231.677 355.028C231.519 354.972 231.373 354.905 231.239 354.826C231.104 354.747 230.986 354.666 230.884 354.583C230.749 354.712 230.601 354.819 230.439 354.903C230.281 354.981 230.119 355.044 229.952 355.09C229.785 355.137 229.62 355.167 229.458 355.181C229.295 355.199 229.149 355.209 229.019 355.209H228.15V353.428ZM232.666 353.428H234.829C235.098 353.428 235.339 353.395 235.553 353.33C235.77 353.266 235.954 353.182 236.102 353.08C236.25 352.973 236.364 352.853 236.443 352.718C236.526 352.579 236.568 352.438 236.568 352.294C236.568 352.071 236.524 351.83 236.436 351.57C236.348 351.306 236.23 351.039 236.081 350.77C235.937 350.497 235.766 350.223 235.566 349.95C235.372 349.671 235.165 349.407 234.947 349.157C234.729 348.901 234.504 348.665 234.273 348.447C234.045 348.229 233.827 348.037 233.619 347.87L233.786 345.908L239.873 343.334L240.519 344.927L235.267 347.083C235.624 347.394 235.935 347.703 236.199 348.009C236.468 348.31 236.707 348.614 236.916 348.92C237.129 349.221 237.322 349.525 237.493 349.831C237.665 350.137 237.832 350.446 237.994 350.757C238.11 350.979 238.226 351.197 238.342 351.41C238.458 351.624 238.583 351.842 238.718 352.064V352.057C238.843 352.266 238.975 352.454 239.114 352.621C239.258 352.788 239.411 352.932 239.573 353.052C239.74 353.173 239.921 353.266 240.116 353.33C240.315 353.395 240.533 353.428 240.77 353.428H241.208V355.209H241.006C240.635 355.209 240.299 355.183 239.998 355.132C239.696 355.081 239.416 355 239.156 354.889C238.901 354.777 238.66 354.636 238.433 354.464C238.21 354.288 237.99 354.077 237.772 353.831C237.609 354.072 237.426 354.279 237.222 354.45C237.018 354.617 236.798 354.757 236.561 354.868C236.325 354.974 236.074 355.053 235.81 355.104C235.55 355.16 235.281 355.195 235.003 355.209H232.666V353.428ZM239.657 342.68L233.786 345.073L233.834 344.176L239.316 341.97L239.657 342.68ZM240.931 353.428H242.051C242.269 353.428 242.492 353.416 242.719 353.393C242.951 353.365 243.16 353.312 243.345 353.233C243.531 353.15 243.681 353.031 243.797 352.878C243.918 352.725 243.978 352.521 243.978 352.266C243.978 352.146 243.953 351.976 243.902 351.758C243.851 351.54 243.783 351.299 243.7 351.035C243.616 350.77 243.517 350.497 243.401 350.214C243.289 349.931 243.171 349.667 243.046 349.421L244.653 348.628C244.769 348.892 244.885 349.173 245.001 349.47C245.117 349.766 245.219 350.072 245.307 350.388C245.4 350.699 245.474 351.012 245.529 351.327C245.585 351.642 245.613 351.951 245.613 352.252C245.613 352.772 245.525 353.219 245.349 353.595C245.172 353.966 244.927 354.272 244.611 354.513C244.296 354.75 243.918 354.923 243.477 355.035C243.041 355.151 242.561 355.209 242.037 355.209H240.931V353.428ZM244.486 346.27L243.15 347.605L241.822 346.27L243.15 344.941L244.486 346.27ZM248.829 344.141C248.944 345.027 249.026 345.873 249.072 346.68C249.118 347.482 249.146 348.268 249.155 349.038C249.165 349.692 249.167 350.297 249.162 350.854C249.162 351.41 249.158 351.93 249.149 352.412C249.139 352.89 249.125 353.337 249.107 353.755C249.088 354.168 249.07 354.555 249.051 354.917L247.229 355.195C247.326 353.664 247.375 352.312 247.375 351.139C247.375 350.666 247.368 350.223 247.354 349.81C247.317 348.86 247.275 347.967 247.229 347.132C247.182 346.293 247.12 345.49 247.041 344.725L248.829 344.141Z" fill="black"/>
</svg>
