<svg width="400" height="400" viewBox="0 0 400 400" fill="none" xmlns="http://www.w3.org/2000/svg">
<rect width="400" height="400" fill="white"/>
<path d="M168.954 53.7443C168.156 53.7443 167.419 53.6446 166.741 53.4452C166.064 53.2504 165.487 52.9536 165.009 52.5548C164.532 52.1606 164.172 51.6643 163.931 51.0661C163.736 50.5977 163.639 50.0667 163.639 49.473C163.639 49.3154 163.646 49.153 163.66 48.9861C163.688 48.6661 163.725 48.3391 163.771 48.0052C163.822 47.6713 163.889 47.3212 163.973 46.9548C164.061 46.5838 164.172 46.1919 164.307 45.7791C164.441 45.3664 164.608 44.9212 164.808 44.4435L166.241 45.1043C166.05 45.5774 165.893 46.0157 165.768 46.4191C165.642 46.818 165.543 47.189 165.468 47.5322C165.399 47.8754 165.35 48.1977 165.322 48.4991C165.294 48.8006 165.281 49.0904 165.281 49.3687C165.281 49.7026 165.322 50.0017 165.406 50.2661C165.494 50.5304 165.605 50.767 165.74 50.9757C165.921 51.2214 166.148 51.4093 166.421 51.5391C166.695 51.6736 166.983 51.771 167.284 51.8313C167.59 51.8916 167.889 51.9264 168.181 51.9357C168.478 51.9496 168.736 51.9565 168.954 51.9565C169.083 51.9565 169.271 51.9472 169.517 51.9287C169.768 51.9101 170.039 51.8777 170.331 51.8313C170.628 51.7849 170.932 51.7246 171.242 51.6504C171.553 51.5762 171.834 51.4835 172.084 51.3722C172.339 51.2609 172.545 51.131 172.703 50.9826C172.865 50.8342 172.947 50.6603 172.947 50.4609C172.947 50.4284 172.905 50.3774 172.821 50.3078C172.743 50.2429 172.631 50.1687 172.488 50.0852C172.348 50.0017 172.184 49.9136 171.994 49.8209C171.803 49.7328 171.599 49.647 171.381 49.5635C171.061 49.4568 170.744 49.378 170.428 49.327C170.113 49.2759 169.8 49.2226 169.489 49.167L169.726 47.4278H175.249V49.2087H173.948C174.134 49.4359 174.257 49.6586 174.317 49.8765C174.382 50.0991 174.417 50.2939 174.421 50.4609C174.403 50.869 174.299 51.233 174.108 51.553C173.918 51.8777 173.672 52.1606 173.371 52.4017C173.074 52.6475 172.736 52.8539 172.355 53.0209C171.975 53.1925 171.585 53.3316 171.187 53.4383C170.788 53.5449 170.394 53.6214 170.004 53.6678C169.619 53.7188 169.269 53.7443 168.954 53.7443ZM181.183 47.4278V49.2087H181.044C180.594 49.2087 180.214 49.1368 179.903 48.993C179.593 48.8493 179.328 48.6638 179.11 48.4365C178.957 48.6313 178.73 48.782 178.428 48.8887C178.132 48.9907 177.8 49.0649 177.434 49.1113C177.067 49.1623 176.689 49.1901 176.3 49.1948C175.915 49.2041 175.56 49.2087 175.235 49.2087H174.978V47.4278H175.235C175.778 47.4278 176.235 47.3977 176.606 47.3374C176.977 47.2725 177.276 47.1797 177.503 47.0591C177.735 46.9386 177.902 46.7878 178.004 46.607C178.106 46.4214 178.157 46.2081 178.157 45.967C178.157 45.8093 178.127 45.6006 178.067 45.3409C178.006 45.0765 177.916 44.738 177.795 44.3252L179.507 43.8452C179.567 44.0493 179.613 44.2301 179.646 44.3878C179.683 44.5409 179.711 44.6962 179.729 44.8539C179.753 45.007 179.771 45.1739 179.785 45.3548C179.804 45.531 179.822 45.742 179.841 45.9878C179.855 46.1362 179.889 46.2962 179.945 46.4678C180.001 46.6348 180.077 46.7901 180.175 46.9339C180.277 47.073 180.4 47.1913 180.543 47.2887C180.687 47.3814 180.854 47.4278 181.044 47.4278H181.183ZM178.095 41.2643L176.912 42.447L175.715 41.2574L176.898 40.0678L178.095 41.2643ZM180.724 41.2713L179.542 42.4609L178.345 41.2643L179.528 40.0817L180.724 41.2713ZM181.192 47.4278C181.429 47.4278 181.651 47.3814 181.86 47.2887C182.073 47.1913 182.275 47.0197 182.465 46.7739C182.66 46.5235 182.841 46.1826 183.008 45.7513C183.179 45.32 183.342 44.7681 183.495 44.0957L185.199 44.5757C185.088 44.9606 184.988 45.3316 184.9 45.6887C184.812 46.0412 184.763 46.3449 184.754 46.6C184.754 46.6232 184.754 46.6441 184.754 46.6626C184.754 46.7461 184.761 46.8342 184.775 46.927C184.793 47.0197 184.823 47.1055 184.865 47.1843C184.907 47.2632 184.963 47.3258 185.032 47.3722C185.097 47.4139 185.169 47.4348 185.248 47.4348C185.257 47.4348 185.266 47.4348 185.276 47.4348C185.447 47.4301 185.609 47.3675 185.763 47.247C185.916 47.1264 186.057 46.971 186.187 46.7809C186.321 46.5907 186.442 46.3751 186.549 46.1339C186.66 45.8928 186.757 45.6493 186.841 45.4035C186.929 45.153 187.003 44.9096 187.063 44.673C187.124 44.4365 187.17 44.2278 187.203 44.047L188.844 44.3809C188.784 44.6591 188.735 44.9165 188.698 45.153C188.661 45.3849 188.638 45.6191 188.629 45.8557C188.624 45.9159 188.622 45.9762 188.622 46.0365C188.622 46.1525 188.629 46.2893 188.643 46.447C188.661 46.6 188.701 46.7507 188.761 46.8991C188.821 47.0475 188.905 47.1704 189.011 47.2678C189.123 47.3606 189.266 47.407 189.443 47.407C189.642 47.407 189.802 47.3304 189.923 47.1774C190.048 47.0197 190.143 46.8203 190.208 46.5791C190.273 46.338 190.314 46.0713 190.333 45.7791C190.356 45.4823 190.368 45.1948 190.368 44.9165C190.368 44.8284 190.365 44.7588 190.361 44.7078C190.361 44.6522 190.361 44.6012 190.361 44.5548C190.361 44.5084 190.358 44.4574 190.354 44.4017C190.354 44.3414 190.354 44.2603 190.354 44.1583L192.114 44.0191C192.128 44.1722 192.142 44.3229 192.156 44.4713C192.169 44.6151 192.183 44.7658 192.197 44.9235C192.211 45.0765 192.227 45.2412 192.246 45.4174C192.269 45.589 192.295 45.7768 192.323 45.9809C192.355 46.222 192.422 46.433 192.524 46.6139C192.631 46.7948 192.754 46.9455 192.893 47.0661C193.032 47.1867 193.181 47.2771 193.338 47.3374C193.501 47.3977 193.654 47.4278 193.797 47.4278H194.055V49.2087H193.832C193.605 49.2087 193.38 49.1855 193.157 49.1391C192.939 49.0928 192.731 49.0209 192.531 48.9235C192.332 48.8261 192.144 48.7032 191.968 48.5548C191.796 48.4017 191.645 48.2209 191.516 48.0122C191.293 48.3739 191.001 48.6638 190.639 48.8817C190.277 49.0997 189.878 49.2087 189.443 49.2087C189.007 49.2087 188.61 49.1043 188.253 48.8957C187.901 48.687 187.62 48.4087 187.411 48.0609C187.277 48.2325 187.131 48.3901 186.973 48.5339C186.82 48.673 186.653 48.7959 186.472 48.9026C186.296 49.0046 186.108 49.0835 185.909 49.1391C185.709 49.1994 185.501 49.2296 185.283 49.2296C185.074 49.2296 184.872 49.2017 184.677 49.1461C184.483 49.0951 184.302 49.0186 184.135 48.9165C183.968 48.8145 183.817 48.6916 183.683 48.5478C183.548 48.3994 183.437 48.2348 183.349 48.0539C183.117 48.462 182.832 48.7565 182.493 48.9374C182.154 49.1183 181.723 49.2087 181.199 49.2087H180.9V47.4278H181.192ZM187.856 41.4313L186.674 42.6139L185.477 41.4243L186.66 40.2348L187.856 41.4313ZM190.486 41.4383L189.303 42.6278L188.107 41.4313L189.289 40.2487L190.486 41.4383ZM186.896 39.4209L187.982 38.3357L189.074 39.4278L187.989 40.513L186.896 39.4209ZM193.775 47.4278H195.284C195.86 47.4278 196.444 47.3745 197.038 47.2678C197.636 47.1565 198.229 47.0128 198.818 46.8365C199.407 46.6557 199.982 46.4493 200.544 46.2174C201.105 45.9855 201.636 45.7467 202.137 45.5009C201.738 45.4128 201.367 45.2968 201.024 45.153C200.68 45.0046 200.356 44.8609 200.05 44.7217C199.744 44.5826 199.449 44.462 199.166 44.36C198.883 44.258 198.603 44.207 198.324 44.207C198.162 44.207 198.009 44.2371 197.865 44.2974C197.726 44.353 197.596 44.4249 197.476 44.513C197.355 44.6012 197.246 44.6986 197.149 44.8052C197.056 44.9119 196.973 45.0162 196.898 45.1183C196.829 45.2157 196.771 45.3038 196.724 45.3826C196.678 45.4614 196.646 45.5171 196.627 45.5496L195.18 44.6104C195.338 44.3322 195.526 44.0632 195.744 43.8035C195.962 43.5391 196.203 43.3049 196.467 43.1009C196.736 42.8922 197.026 42.7275 197.337 42.607C197.647 42.4817 197.977 42.4191 198.324 42.4191C198.682 42.4191 199.036 42.4678 199.389 42.5652C199.741 42.658 200.089 42.7786 200.432 42.927C200.78 43.0707 201.128 43.2261 201.476 43.393C201.824 43.56 202.174 43.7177 202.526 43.8661C202.883 44.0099 203.243 44.1328 203.604 44.2348C203.966 44.3322 204.337 44.3832 204.718 44.3878L204.571 46.1826C203.922 46.4933 203.245 46.8226 202.54 47.1704C201.835 47.5183 201.098 47.8406 200.328 48.1374C199.558 48.4296 198.753 48.6777 197.914 48.8817C197.079 49.0812 196.203 49.1901 195.284 49.2087H193.775V47.4278ZM199.611 40.2L198.276 41.5357L196.947 40.2L198.276 38.8713L199.611 40.2ZM214.493 52.8748C214.762 52.9212 215.034 52.9443 215.307 52.9443C215.377 52.9443 215.514 52.9397 215.718 52.9304C215.922 52.9212 216.184 52.8794 216.504 52.8052C216.824 52.731 217.13 52.6313 217.422 52.5061C217.719 52.3809 217.99 52.2371 218.236 52.0748L219.175 53.633C218.906 53.7954 218.628 53.9438 218.34 54.0783C218.057 54.2174 217.763 54.3357 217.457 54.433C217.155 54.5304 216.842 54.6046 216.518 54.6557C216.235 54.702 215.945 54.7252 215.648 54.7252C215.602 54.7252 215.553 54.7252 215.502 54.7252C215.066 54.7159 214.63 54.6696 214.194 54.5861C213.763 54.5026 213.35 54.382 212.956 54.2243C212.566 54.0667 212.202 53.8696 211.864 53.633C211.53 53.4012 211.238 53.1299 210.987 52.8191C210.741 52.513 210.547 52.1675 210.403 51.7826C210.259 51.4023 210.185 50.9803 210.18 50.5165C210.194 50.0203 210.287 49.5565 210.459 49.1252C210.63 48.6986 210.857 48.309 211.14 47.9565C211.428 47.5994 211.757 47.2817 212.128 47.0035C212.504 46.7252 212.9 46.4864 213.318 46.287C213.169 46.1478 213.016 46.011 212.859 45.8765C212.706 45.7374 212.557 45.6075 212.413 45.487C212.27 45.3617 212.135 45.2481 212.01 45.1461C211.885 45.0394 211.78 44.949 211.697 44.8748L211.565 43.3861C212.172 42.8574 212.826 42.4609 213.526 42.1965C214.231 41.9275 214.966 41.793 215.732 41.793C215.959 41.793 216.193 41.8093 216.434 41.8417C216.68 41.8742 216.919 41.9252 217.151 41.9948C217.383 42.0643 217.601 42.1548 217.805 42.2661C218.009 42.3774 218.187 42.5142 218.34 42.6765C218.493 42.8342 218.614 43.0174 218.702 43.2261C218.781 43.4301 218.82 43.6574 218.82 43.9078C218.82 43.9217 218.82 43.9357 218.82 43.9496C218.802 44.302 218.732 44.6174 218.612 44.8957C218.496 45.1739 218.343 45.4243 218.153 45.647C217.962 45.8696 217.742 46.069 217.492 46.2452C217.246 46.4214 216.984 46.5838 216.706 46.7322C217.081 46.9409 217.48 47.1101 217.902 47.24C218.329 47.3652 218.744 47.4278 219.147 47.4278H219.384V49.2087H219.147C218.762 49.2087 218.389 49.1693 218.027 49.0904C217.666 49.0116 217.308 48.9003 216.956 48.7565C216.604 48.6081 216.253 48.4342 215.906 48.2348C215.558 48.0307 215.208 47.8058 214.855 47.56C214.517 47.6945 214.173 47.8522 213.826 48.033C213.478 48.2093 213.16 48.418 212.873 48.6591C212.59 48.8957 212.358 49.1646 212.177 49.4661C211.996 49.7675 211.906 50.1084 211.906 50.4887C211.906 50.702 211.947 50.9061 212.031 51.1009C212.119 51.2957 212.233 51.4765 212.372 51.6435C212.511 51.8151 212.671 51.9704 212.852 52.1096C213.033 52.2533 213.218 52.3762 213.408 52.4783C213.603 52.5849 213.793 52.6707 213.979 52.7357C214.169 52.8052 214.34 52.8516 214.493 52.8748ZM215.739 43.4904C215.553 43.4904 215.358 43.5043 215.154 43.5322C214.95 43.5554 214.748 43.5901 214.549 43.6365C214.35 43.6783 214.157 43.7316 213.972 43.7965C213.791 43.8568 213.631 43.9241 213.492 43.9983C213.589 44.1003 213.698 44.2186 213.819 44.353C213.939 44.4829 214.067 44.6197 214.201 44.7635C214.34 44.9072 214.482 45.051 214.626 45.1948C214.769 45.3339 214.911 45.4638 215.05 45.5843C215.356 45.4545 215.641 45.3223 215.906 45.1878C216.17 45.0533 216.399 44.9165 216.594 44.7774C216.794 44.6336 216.951 44.4852 217.067 44.3322C217.183 44.1791 217.244 44.0214 217.248 43.8591C217.244 43.8406 217.213 43.8128 217.158 43.7757C217.102 43.7386 217.012 43.7014 216.886 43.6643C216.766 43.6226 216.61 43.5855 216.42 43.553C216.235 43.5206 216.008 43.4997 215.739 43.4904ZM219.103 47.4278H220.16L220.209 47.3374C220.288 47.1983 220.399 47.0151 220.543 46.7878C220.691 46.5559 220.877 46.2939 221.1 46.0017C221.141 45.7096 221.176 45.3409 221.204 44.8957C221.232 44.4504 221.248 43.9681 221.253 43.4487C221.253 43.1658 221.248 42.8759 221.239 42.5791C221.229 42.2777 221.211 41.9322 221.183 41.5426C221.155 41.153 221.116 40.6986 221.065 40.1791C221.018 39.6551 220.958 39.0313 220.884 38.3078L222.713 37.8348C222.834 38.7252 222.925 39.6388 222.985 40.5757C223.05 41.5125 223.082 42.44 223.082 43.3583V43.9217C223.333 43.7084 223.592 43.5043 223.861 43.3096C224.135 43.1148 224.418 42.9432 224.71 42.7948C225.007 42.6464 225.315 42.5281 225.635 42.44C225.955 42.3519 226.289 42.3078 226.637 42.3078C226.989 42.3078 227.323 42.3635 227.639 42.4748C227.954 42.5861 228.232 42.7484 228.473 42.9617C228.719 43.1704 228.921 43.4255 229.079 43.727C229.236 44.0284 229.334 44.367 229.371 44.7426C229.376 44.8122 229.378 44.8794 229.378 44.9443C229.378 45.4267 229.297 45.8765 229.134 46.2939C228.977 46.7113 228.742 47.0893 228.432 47.4278H230.393V49.2087H228.543C228.177 49.2087 227.769 49.1925 227.319 49.16C226.869 49.1275 226.37 49.0417 225.823 48.9026C225.429 49.0093 225.028 49.0858 224.62 49.1322C224.216 49.1832 223.81 49.2087 223.402 49.2087H219.103V47.4278ZM222.755 47.4278C223.038 47.4278 223.363 47.4209 223.729 47.407C224.1 47.393 224.48 47.3606 224.87 47.3096C225.26 47.2586 225.638 47.182 226.004 47.08C226.375 46.978 226.704 46.8412 226.992 46.6696C227.279 46.498 227.507 46.2823 227.673 46.0226C227.817 45.8 227.889 45.5357 227.889 45.2296C227.889 45.1878 227.887 45.1438 227.882 45.0974C227.873 44.9583 227.827 44.8284 227.743 44.7078C227.664 44.5872 227.553 44.4852 227.409 44.4017C227.27 44.3136 227.103 44.2441 226.908 44.193C226.741 44.1559 226.56 44.1374 226.366 44.1374C226.329 44.1374 226.289 44.1374 226.247 44.1374C226.016 44.1467 225.74 44.207 225.42 44.3183C225.1 44.4249 224.756 44.6058 224.39 44.8609C224.024 45.1159 223.643 45.4522 223.249 45.8696C222.855 46.287 222.47 46.8064 222.094 47.4278H222.755ZM230.286 47.4278C230.773 47.4278 231.241 47.4139 231.691 47.3861C232.141 47.3536 232.551 47.3096 232.922 47.2539C233.293 47.1983 233.613 47.131 233.882 47.0522C234.151 46.9733 234.353 46.8852 234.487 46.7878H233.778C233.37 46.7878 232.98 46.7368 232.609 46.6348C232.243 46.5281 231.92 46.3704 231.642 46.1617C231.364 45.953 231.141 45.6933 230.974 45.3826C230.812 45.0672 230.731 44.7009 230.731 44.2835C230.731 44.0377 230.756 43.7849 230.807 43.5252C230.858 43.2655 230.935 43.0128 231.037 42.767C231.139 42.5212 231.262 42.2893 231.406 42.0713C231.549 41.8533 231.714 41.6632 231.9 41.5009C232.085 41.3339 232.289 41.2041 232.512 41.1113C232.734 41.0139 232.975 40.9652 233.235 40.9652C233.555 40.9652 233.854 41.0325 234.133 41.167C234.411 41.3014 234.664 41.4846 234.891 41.7165C235.118 41.9438 235.32 42.2081 235.496 42.5096C235.672 42.811 235.821 43.1287 235.941 43.4626C236.062 43.7965 236.152 44.1374 236.213 44.4852C236.278 44.8284 236.31 45.1554 236.31 45.4661C236.31 45.9948 236.236 46.4539 236.087 46.8435C235.944 47.233 235.74 47.567 235.475 47.8452C235.215 48.1235 234.902 48.3507 234.536 48.527C234.174 48.7032 233.773 48.8423 233.333 48.9443C232.892 49.0464 232.419 49.1159 231.913 49.153C231.413 49.1901 230.893 49.2087 230.355 49.2087H230.119V47.4278H230.286ZM233.235 42.76C233.212 42.7554 233.189 42.753 233.166 42.753C233.073 42.753 232.966 42.7901 232.846 42.8643C232.725 42.9386 232.609 43.0452 232.498 43.1843C232.387 43.3235 232.296 43.4812 232.227 43.6574C232.157 43.829 232.122 43.9983 232.122 44.1652C232.122 44.1745 232.122 44.1838 232.122 44.193C232.122 44.36 232.159 44.4968 232.233 44.6035C232.308 44.7055 232.407 44.7843 232.533 44.84C232.662 44.8957 232.811 44.9351 232.978 44.9583C233.149 44.9814 233.33 44.9977 233.52 45.007C233.646 45.0116 233.775 45.0139 233.91 45.0139C233.975 45.0139 234.075 45.0139 234.209 45.0139C234.348 45.0093 234.49 45.0023 234.633 44.993C234.592 44.8261 234.531 44.6197 234.453 44.3739C234.378 44.1235 234.283 43.8823 234.167 43.6504C234.056 43.4139 233.922 43.2099 233.764 43.0383C233.611 42.8667 233.435 42.7739 233.235 42.76ZM233.068 38.8713L231.886 40.0539L230.689 38.8643L231.872 37.6748L233.068 38.8713ZM235.698 38.8783L234.515 40.0678L233.319 38.8713L234.501 37.6887L235.698 38.8783Z" fill="black"/>
<path d="M135.364 125.477C135.364 125.49 135.373 125.554 135.39 125.668C135.408 125.775 135.425 125.923 135.442 126.113C135.46 126.296 135.474 126.509 135.486 126.752C135.491 126.922 135.494 127.098 135.494 127.278V127.55C135.471 129.172 135.156 130.614 134.548 131.875V131.864C133.958 133.113 133.156 134.076 132.143 134.751C131.865 134.936 131.613 135.083 131.388 135.192C131.168 135.29 130.948 135.36 130.728 135.402L130.797 135.93C130.867 136.537 130.922 137.176 130.962 137.844C131.008 138.502 131.043 139.171 131.066 139.851C131.095 140.521 131.113 141.191 131.118 141.862C131.13 142.522 131.136 143.155 131.136 143.76L129.408 144.912C129.408 143.806 129.399 142.712 129.382 141.632C129.365 140.544 129.318 139.511 129.243 138.531C129.168 137.545 129.055 136.632 128.904 135.793C128.76 134.944 128.557 134.209 128.297 133.59C128.175 133.295 128.045 133.024 127.906 132.776C127.767 132.527 127.611 132.28 127.437 132.034L128.887 129.961C128.98 130.081 129.064 130.209 129.139 130.347C129.22 130.474 129.298 130.613 129.373 130.764C129.454 130.905 129.535 131.06 129.616 131.228C129.697 131.397 129.787 131.577 129.886 131.769C130.019 132.049 130.149 132.296 130.276 132.51C130.409 132.714 130.56 132.867 130.728 132.971C130.901 133.071 131.098 133.107 131.318 133.078C131.544 133.039 131.819 132.911 132.143 132.695C132.623 132.375 132.985 131.956 133.228 131.44C133.338 131.213 133.428 130.976 133.497 130.728C133.567 130.473 133.622 130.217 133.662 129.961C133.709 129.7 133.741 129.442 133.758 129.187C133.775 128.932 133.784 128.69 133.784 128.46C133.784 128.161 133.769 127.882 133.741 127.623C133.717 127.36 133.691 127.148 133.662 126.987L135.364 125.477ZM138.19 133.192C138.19 132.705 138.266 132.2 138.416 131.675C138.572 131.139 138.784 130.623 139.05 130.125C139.316 129.621 139.626 129.157 139.979 128.734C140.338 128.307 140.723 127.956 141.134 127.682C141.539 127.412 141.918 127.253 142.271 127.206C142.63 127.154 142.942 127.203 143.209 127.353C143.481 127.492 143.695 127.724 143.851 128.052C144.007 128.372 144.086 128.775 144.086 129.262C144.086 129.756 144.007 130.271 143.851 130.806C143.695 131.335 143.481 131.85 143.209 132.351C142.942 132.849 142.63 133.311 142.271 133.738C141.918 134.154 141.539 134.497 141.134 134.768C140.723 135.042 140.338 135.208 139.979 135.266C139.626 135.314 139.316 135.266 139.05 135.124C138.784 134.981 138.572 134.75 138.416 134.43C138.266 134.099 138.19 133.686 138.19 133.192ZM139.606 132.249C139.606 132.499 139.646 132.709 139.727 132.877C139.808 133.046 139.918 133.167 140.057 133.242C140.196 133.316 140.358 133.34 140.543 133.314C140.728 133.288 140.925 133.206 141.134 133.067C141.342 132.928 141.539 132.748 141.724 132.527C141.915 132.302 142.08 132.06 142.219 131.801C142.358 131.541 142.468 131.273 142.549 130.996C142.63 130.72 142.67 130.456 142.67 130.206C142.67 129.955 142.63 129.746 142.549 129.577C142.468 129.402 142.358 129.277 142.219 129.202C142.08 129.128 141.915 129.106 141.724 129.136C141.539 129.162 141.342 129.244 141.134 129.383C140.925 129.522 140.728 129.702 140.543 129.923C140.358 130.144 140.196 130.384 140.057 130.644C139.918 130.903 139.808 131.175 139.727 131.458C139.646 131.735 139.606 131.998 139.606 132.249Z" fill="black"/>
<path d="M305.364 110.521C305.364 110.535 305.373 110.61 305.39 110.747C305.408 110.877 305.425 111.048 305.442 111.262C305.46 111.468 305.474 111.7 305.486 111.958C305.491 112.136 305.494 112.316 305.494 112.496V112.768C305.471 114.359 305.156 115.38 304.548 115.831V115.82C303.958 116.282 303.156 116.176 302.143 115.5C301.865 115.315 301.613 115.127 301.388 114.934C301.168 114.739 300.948 114.516 300.728 114.265L300.797 114.885C300.867 115.585 300.922 116.297 300.962 117.019C301.008 117.739 301.043 118.454 301.066 119.165C301.095 119.873 301.113 120.567 301.118 121.245C301.13 121.921 301.136 122.561 301.136 123.166L299.408 122.015C299.408 120.909 299.399 119.804 299.382 118.7C299.365 117.589 299.318 116.494 299.243 115.414C299.168 114.327 299.055 113.264 298.904 112.225C298.76 111.182 298.557 110.178 298.297 109.211C298.175 108.754 298.045 108.309 297.906 107.876C297.767 107.442 297.611 106.987 297.437 106.509L298.887 106.37C298.98 106.613 299.064 106.853 299.139 107.091C299.22 107.326 299.298 107.569 299.373 107.821C299.454 108.07 299.535 108.333 299.616 108.609C299.697 108.886 299.787 109.186 299.886 109.509C300.019 109.966 300.149 110.387 300.276 110.771C300.409 111.152 300.56 111.506 300.728 111.834C300.901 112.165 301.098 112.463 301.318 112.728C301.544 112.99 301.819 113.229 302.143 113.445C302.623 113.765 302.985 113.829 303.228 113.636C303.338 113.556 303.428 113.439 303.497 113.283C303.567 113.121 303.622 112.939 303.662 112.736C303.709 112.537 303.741 112.322 303.758 112.09C303.775 111.858 303.784 111.627 303.784 111.398C303.784 111.099 303.769 110.8 303.741 110.503C303.717 110.209 303.691 109.962 303.662 109.762L305.364 110.521ZM308.19 122.005C308.19 121.518 308.266 121.113 308.416 120.789C308.572 120.462 308.784 120.227 309.05 120.084C309.316 119.935 309.626 119.884 309.979 119.931C310.338 119.983 310.723 120.146 311.134 120.419C311.539 120.69 311.918 121.036 312.271 121.459C312.63 121.887 312.942 122.352 313.209 122.857C313.481 123.358 313.695 123.877 313.851 124.412C314.007 124.941 314.086 125.448 314.086 125.935C314.086 126.429 314.007 126.84 313.851 127.167C313.695 127.487 313.481 127.716 313.209 127.855C312.942 127.998 312.63 128.043 312.271 127.992C311.918 127.937 311.539 127.775 311.134 127.505C310.723 127.231 310.338 126.884 309.979 126.464C309.626 126.04 309.316 125.58 309.05 125.082C308.784 124.585 308.572 124.072 308.416 123.543C308.266 123.012 308.19 122.499 308.19 122.005ZM309.606 122.949C309.606 123.199 309.646 123.463 309.727 123.739C309.808 124.016 309.918 124.284 310.057 124.543C310.196 124.803 310.358 125.043 310.543 125.264C310.728 125.485 310.925 125.665 311.134 125.804C311.342 125.943 311.539 126.025 311.724 126.051C311.915 126.081 312.08 126.059 312.219 125.985C312.358 125.91 312.468 125.789 312.549 125.62C312.63 125.452 312.67 125.242 312.67 124.992C312.67 124.741 312.63 124.478 312.549 124.201C312.468 123.918 312.358 123.646 312.219 123.386C312.08 123.127 311.915 122.885 311.724 122.66C311.539 122.439 311.342 122.259 311.134 122.12C310.925 121.981 310.728 121.899 310.543 121.873C310.358 121.847 310.196 121.871 310.057 121.945C309.918 122.02 309.808 122.145 309.727 122.32C309.646 122.489 309.606 122.698 309.606 122.949Z" fill="black"/>
<path d="M44.9265 217.165L44.9269 223.956L178.68 314.064L366.277 190.834L366.277 184.662L231.548 94.1728L44.9265 217.165Z" fill="#E7E7E7" stroke="black"/>
<path d="M44.2633 216.95L44.2635 223.338L178.088 313.546L178.088 306.662L44.2633 216.95Z" fill="#A3A3A3" stroke="black"/>
<path d="M366.338 184.496L231.171 94.0532L44.3189 216.382L178.64 306.598L366.338 184.496Z" fill="#E7E7E7" stroke="black"/>
<path d="M52.6583 210.818L44.2308 216.436L178.648 306.716L186.455 301.511L52.6583 210.818Z" fill="#A3A3A3" stroke="black"/>
<path d="M194.815 205.747C196.23 206.844 196.867 208.027 196.726 209.296C196.579 210.561 195.675 211.747 194.014 212.855C192.191 214.07 190.149 214.616 187.889 214.492C185.622 214.364 183.424 213.585 181.293 212.154L180.427 211.572C179.064 210.657 178.103 209.69 177.544 208.671C176.985 207.653 176.874 206.66 177.211 205.694C177.553 204.723 178.315 203.844 179.496 203.057C181.134 201.965 182.893 201.38 184.772 201.302C186.651 201.224 188.46 201.664 190.198 202.623L187.273 204.574C186.285 204.003 185.366 203.727 184.516 203.745C183.666 203.763 182.793 204.071 181.896 204.669C180.923 205.317 180.543 206.038 180.756 206.831C180.963 207.621 181.794 208.512 183.249 209.505L184.314 210.221C185.845 211.249 187.196 211.847 188.37 212.015C189.543 212.176 190.631 211.922 191.632 211.255C192.535 210.653 193.001 210.067 193.031 209.499C193.067 208.926 192.686 208.326 191.89 207.698L194.815 205.747ZM195.467 204.455C194.422 203.753 193.692 202.995 193.277 202.182C192.862 201.361 192.811 200.549 193.125 199.745C193.433 198.936 194.087 198.199 195.089 197.531C196.513 196.582 198.109 196.101 199.878 196.089C201.647 196.068 203.332 196.526 204.932 197.461L205.668 197.932C207.279 199.014 208.122 200.184 208.195 201.442C208.268 202.699 207.543 203.835 206.021 204.85C204.498 205.865 202.798 206.35 200.919 206.304C199.046 206.254 197.272 205.667 195.597 204.542L195.467 204.455ZM198.497 202.713C199.496 203.384 200.449 203.773 201.357 203.879C202.258 203.981 203.059 203.799 203.76 203.332C204.443 202.876 204.715 202.347 204.578 201.743C204.44 201.132 203.796 200.44 202.647 199.668C201.671 199.013 200.721 198.634 199.796 198.532C198.871 198.422 198.061 198.598 197.367 199.061C196.678 199.52 196.414 200.056 196.575 200.667C196.73 201.275 197.371 201.957 198.497 202.713ZM213.074 195.302L207.942 189.229L210.886 187.267L217.851 196.709L215.168 198.497L201.083 193.801L204.027 191.839L213.074 195.302ZM227.689 190.405C226.144 191.435 224.414 191.958 222.5 191.974C220.581 191.986 218.833 191.463 217.256 190.404L216.979 190.218C215.922 189.508 215.181 188.739 214.754 187.91C214.334 187.078 214.274 186.259 214.576 185.455C214.873 184.647 215.501 183.923 216.462 183.282C217.903 182.321 219.494 181.872 221.234 181.933C222.974 181.986 224.676 182.571 226.339 183.688L227.491 184.462L220.771 188.942C221.551 189.342 222.377 189.529 223.25 189.503C224.123 189.478 224.91 189.231 225.611 188.764C226.699 188.039 227.154 187.21 226.976 186.277L229.907 186.387C230.085 187.072 229.98 187.768 229.592 188.475C229.203 189.175 228.569 189.818 227.689 190.405ZM218.731 184.818C218.17 185.192 217.903 185.621 217.931 186.105C217.96 186.589 218.277 187.1 218.883 187.639L222.807 185.022L222.582 184.871C221.947 184.46 221.294 184.25 220.623 184.241C219.958 184.228 219.328 184.421 218.731 184.818ZM231.459 177.075C231.025 177.295 230.664 177.501 230.374 177.694C229.303 178.408 228.964 179.117 229.356 179.822L236.242 184.447L233.429 186.323L222.905 179.254L225.561 177.483L226.895 178.274C226.493 177.244 226.792 176.396 227.793 175.728C228.106 175.52 228.441 175.354 228.8 175.231L231.459 177.075Z" fill="black"/>
<path d="M217.377 85.1019C217.54 84.7983 217.54 84.4818 217.377 84.3948L214.73 82.9779C214.567 82.8909 214.304 83.0665 214.142 83.3701C213.979 83.6737 213.979 83.9903 214.142 84.0772L216.495 85.3367L214.142 89.7341C213.979 90.0376 213.979 90.3542 214.142 90.4412C214.304 90.5281 214.567 90.3525 214.73 90.0489L217.377 85.1019ZM163 121.5L217.083 85.4445V84.4445L163 120.5V121.5Z" fill="black"/>
<path d="M364.889 164.613C365.051 164.526 365.051 164.209 364.889 163.906L362.241 158.959C362.079 158.655 361.816 158.48 361.653 158.567C361.491 158.653 361.491 158.97 361.653 159.274L364.006 163.671L361.653 164.93C361.491 165.017 361.491 165.334 361.653 165.638C361.816 165.941 362.079 166.117 362.241 166.03L364.889 164.613ZM318 133.5L364.595 164.563V163.563L318 132.5V133.5Z" fill="black"/>
<path d="M242.706 84.4503C242.543 84.5373 242.543 84.8539 242.706 85.1574L245.353 90.1045C245.516 90.408 245.779 90.5836 245.942 90.4967C246.104 90.4097 246.104 90.0932 245.942 89.7896L243.588 85.3922L245.942 84.1327C246.104 84.0458 246.104 83.7292 245.942 83.4256C245.779 83.1221 245.516 82.9464 245.353 83.0334L242.706 84.4503ZM243 85.5L289.595 116.563V115.563L243 84.5V85.5Z" fill="black"/>
<path d="M42.7058 199.898C42.5434 200.202 42.5434 200.518 42.7058 200.605L45.3534 202.022C45.5159 202.109 45.7793 201.933 45.9417 201.63C46.1042 201.326 46.1042 201.01 45.9417 200.923L43.5883 199.663L45.9417 195.266C46.1042 194.962 46.1042 194.646 45.9417 194.559C45.7793 194.472 45.5159 194.648 45.3534 194.951L42.7058 199.898ZM43 200.556L97.0833 164.5V163.5L43 199.556V200.556Z" fill="black"/>
<path d="M163.11 359.744C162.312 359.744 161.575 359.645 160.898 359.445C160.221 359.25 159.643 358.954 159.166 358.555C158.688 358.161 158.328 357.664 158.087 357.066C157.892 356.598 157.795 356.067 157.795 355.473C157.795 355.315 157.802 355.153 157.816 354.986C157.844 354.666 157.881 354.339 157.927 354.005C157.978 353.671 158.046 353.321 158.129 352.955C158.217 352.584 158.328 352.192 158.463 351.779C158.597 351.366 158.764 350.921 158.964 350.443L160.397 351.104C160.207 351.577 160.049 352.016 159.924 352.419C159.799 352.818 159.699 353.189 159.625 353.532C159.555 353.875 159.506 354.198 159.479 354.499C159.451 354.801 159.437 355.09 159.437 355.369C159.437 355.703 159.479 356.002 159.562 356.266C159.65 356.53 159.761 356.767 159.896 356.976C160.077 357.221 160.304 357.409 160.578 357.539C160.851 357.674 161.139 357.771 161.44 357.831C161.746 357.892 162.046 357.926 162.338 357.936C162.634 357.95 162.892 357.957 163.11 357.957C163.24 357.957 163.428 357.947 163.673 357.929C163.924 357.91 164.195 357.878 164.487 357.831C164.784 357.785 165.088 357.725 165.399 357.65C165.709 357.576 165.99 357.483 166.24 357.372C166.495 357.261 166.702 357.131 166.859 356.983C167.022 356.834 167.103 356.66 167.103 356.461C167.103 356.428 167.061 356.377 166.978 356.308C166.899 356.243 166.788 356.169 166.644 356.085C166.505 356.002 166.34 355.914 166.15 355.821C165.96 355.733 165.756 355.647 165.538 355.563C165.218 355.457 164.9 355.378 164.585 355.327C164.269 355.276 163.956 355.223 163.646 355.167L163.882 353.428H169.406V355.209H168.105C168.29 355.436 168.413 355.659 168.473 355.877C168.538 356.099 168.573 356.294 168.578 356.461C168.559 356.869 168.455 357.233 168.265 357.553C168.074 357.878 167.829 358.161 167.527 358.402C167.23 358.648 166.892 358.854 166.512 359.021C166.131 359.192 165.742 359.332 165.343 359.438C164.944 359.545 164.55 359.621 164.16 359.668C163.775 359.719 163.425 359.744 163.11 359.744ZM169.134 353.428H169.273C169.575 353.428 169.874 353.428 170.171 353.428C170.472 353.428 170.727 353.416 170.936 353.393C170.843 353.333 170.741 353.247 170.63 353.136C170.519 353.02 170.414 352.885 170.317 352.732C170.224 352.574 170.143 352.398 170.073 352.203C170.009 352.004 169.974 351.786 169.969 351.55C169.964 351.489 169.962 351.429 169.962 351.369C169.962 351.179 169.988 350.968 170.039 350.736C170.094 350.499 170.182 350.258 170.303 350.012C170.428 349.766 170.579 349.537 170.755 349.323C170.931 349.106 171.126 348.918 171.34 348.76C171.553 348.598 171.782 348.472 172.028 348.384C172.246 348.306 172.471 348.266 172.703 348.266C172.731 348.266 172.756 348.266 172.78 348.266C173.155 348.28 173.503 348.377 173.823 348.558C174.148 348.734 174.428 348.964 174.665 349.247C174.901 349.53 175.087 349.852 175.221 350.214C175.356 350.571 175.423 350.937 175.423 351.313C175.423 351.675 175.356 352.025 175.221 352.363C175.091 352.697 174.922 353.01 174.713 353.303C174.936 353.34 175.177 353.37 175.437 353.393C175.701 353.416 175.952 353.428 176.188 353.428H176.376V355.209H176.237C175.88 355.209 175.534 355.202 175.2 355.188C174.871 355.179 174.56 355.153 174.268 355.111C173.976 355.07 173.702 355.012 173.447 354.937C173.197 354.859 172.974 354.752 172.78 354.617C172.64 354.719 172.441 354.808 172.181 354.882C171.926 354.956 171.639 355.016 171.319 355.063C170.999 355.114 170.66 355.151 170.303 355.174C169.951 355.197 169.607 355.209 169.273 355.209H169.134V353.428ZM172.759 350.026C172.638 350.049 172.499 350.098 172.341 350.172C172.188 350.242 172.042 350.341 171.903 350.471C171.769 350.597 171.653 350.752 171.555 350.937C171.462 351.123 171.416 351.343 171.416 351.598C171.416 351.682 171.455 351.791 171.534 351.925C171.613 352.055 171.717 352.187 171.847 352.322C171.977 352.452 172.126 352.574 172.293 352.69C172.46 352.802 172.631 352.881 172.807 352.927C172.946 352.857 173.081 352.767 173.211 352.656C173.345 352.544 173.464 352.424 173.566 352.294C173.668 352.159 173.749 352.023 173.809 351.883C173.874 351.74 173.906 351.603 173.906 351.473C173.906 351.292 173.867 351.121 173.788 350.958C173.714 350.791 173.619 350.643 173.503 350.513C173.387 350.383 173.262 350.277 173.127 350.193C172.997 350.105 172.875 350.049 172.759 350.026ZM172.585 346.04L171.402 347.223L170.206 346.033L171.388 344.843L172.585 346.04ZM175.214 346.047L174.032 347.237L172.835 346.04L174.018 344.857L175.214 346.047ZM176.27 353.428C176.757 353.428 177.225 353.414 177.675 353.386C178.125 353.354 178.536 353.31 178.907 353.254C179.278 353.198 179.598 353.131 179.867 353.052C180.136 352.973 180.337 352.885 180.472 352.788H179.762C179.354 352.788 178.965 352.737 178.593 352.635C178.227 352.528 177.905 352.37 177.627 352.162C177.348 351.953 177.126 351.693 176.959 351.383C176.796 351.067 176.715 350.701 176.715 350.283C176.715 350.038 176.741 349.785 176.792 349.525C176.843 349.266 176.919 349.013 177.021 348.767C177.123 348.521 177.246 348.289 177.39 348.071C177.534 347.853 177.698 347.663 177.884 347.501C178.069 347.334 178.273 347.204 178.496 347.111C178.719 347.014 178.96 346.965 179.22 346.965C179.54 346.965 179.839 347.032 180.117 347.167C180.395 347.301 180.648 347.485 180.875 347.717C181.102 347.944 181.304 348.208 181.48 348.51C181.657 348.811 181.805 349.129 181.926 349.463C182.046 349.797 182.137 350.137 182.197 350.485C182.262 350.828 182.294 351.155 182.294 351.466C182.294 351.995 182.22 352.454 182.072 352.843C181.928 353.233 181.724 353.567 181.46 353.845C181.2 354.123 180.887 354.351 180.52 354.527C180.159 354.703 179.758 354.842 179.317 354.944C178.876 355.046 178.403 355.116 177.898 355.153C177.397 355.19 176.878 355.209 176.34 355.209H176.103V353.428H176.27ZM179.22 348.76C179.196 348.755 179.173 348.753 179.15 348.753C179.057 348.753 178.951 348.79 178.83 348.864C178.709 348.939 178.593 349.045 178.482 349.184C178.371 349.323 178.28 349.481 178.211 349.657C178.141 349.829 178.107 349.998 178.107 350.165C178.107 350.174 178.107 350.184 178.107 350.193C178.107 350.36 178.144 350.497 178.218 350.603C178.292 350.706 178.392 350.784 178.517 350.84C178.647 350.896 178.795 350.935 178.962 350.958C179.134 350.981 179.315 350.998 179.505 351.007C179.63 351.012 179.76 351.014 179.894 351.014C179.959 351.014 180.059 351.014 180.193 351.014C180.333 351.009 180.474 351.002 180.618 350.993C180.576 350.826 180.516 350.62 180.437 350.374C180.363 350.123 180.268 349.882 180.152 349.65C180.04 349.414 179.906 349.21 179.748 349.038C179.595 348.867 179.419 348.774 179.22 348.76ZM180.5 344.704L179.164 346.04L177.835 344.704L179.164 343.376L180.5 344.704ZM185.532 344.141C185.648 345.027 185.729 345.873 185.775 346.68C185.821 347.482 185.849 348.268 185.859 349.038C185.868 349.692 185.87 350.297 185.866 350.854C185.866 351.41 185.861 351.93 185.852 352.412C185.842 352.89 185.828 353.337 185.81 353.755C185.791 354.168 185.773 354.555 185.754 354.917L183.932 355.195C184.029 353.664 184.078 352.312 184.078 351.139C184.078 350.666 184.071 350.223 184.057 349.81C184.02 348.86 183.978 347.967 183.932 347.132C183.885 346.293 183.823 345.49 183.744 344.725L185.532 344.141ZM197.157 359.744C196.359 359.744 195.622 359.645 194.945 359.445C194.267 359.25 193.69 358.954 193.212 358.555C192.735 358.161 192.375 357.664 192.134 357.066C191.939 356.598 191.842 356.067 191.842 355.473C191.842 355.315 191.849 355.153 191.863 354.986C191.891 354.666 191.928 354.339 191.974 354.005C192.025 353.671 192.092 353.321 192.176 352.955C192.264 352.584 192.375 352.192 192.51 351.779C192.644 351.366 192.811 350.921 193.011 350.443L194.444 351.104C194.254 351.577 194.096 352.016 193.971 352.419C193.845 352.818 193.746 353.189 193.672 353.532C193.602 353.875 193.553 354.198 193.525 354.499C193.498 354.801 193.484 355.09 193.484 355.369C193.484 355.703 193.525 356.002 193.609 356.266C193.697 356.53 193.808 356.767 193.943 356.976C194.124 357.221 194.351 357.409 194.625 357.539C194.898 357.674 195.186 357.771 195.487 357.831C195.793 357.892 196.092 357.926 196.385 357.936C196.681 357.95 196.939 357.957 197.157 357.957C197.287 357.957 197.474 357.947 197.72 357.929C197.971 357.91 198.242 357.878 198.534 357.831C198.831 357.785 199.135 357.725 199.445 357.65C199.756 357.576 200.037 357.483 200.287 357.372C200.542 357.261 200.749 357.131 200.906 356.983C201.069 356.834 201.15 356.66 201.15 356.461C201.15 356.428 201.108 356.377 201.025 356.308C200.946 356.243 200.834 356.169 200.691 356.085C200.552 356.002 200.387 355.914 200.197 355.821C200.007 355.733 199.803 355.647 199.585 355.563C199.265 355.457 198.947 355.378 198.632 355.327C198.316 355.276 198.003 355.223 197.692 355.167L197.929 353.428H203.452V355.209H202.152C202.337 355.436 202.46 355.659 202.52 355.877C202.585 356.099 202.62 356.294 202.625 356.461C202.606 356.869 202.502 357.233 202.312 357.553C202.121 357.878 201.876 358.161 201.574 358.402C201.277 358.648 200.939 358.854 200.558 359.021C200.178 359.192 199.789 359.332 199.39 359.438C198.991 359.545 198.597 359.621 198.207 359.668C197.822 359.719 197.472 359.744 197.157 359.744ZM203.473 353.428C203.71 353.428 203.932 353.381 204.141 353.289C204.355 353.191 204.556 353.02 204.746 352.774C204.941 352.523 205.122 352.183 205.289 351.751C205.461 351.32 205.623 350.768 205.776 350.096L207.48 350.576C207.369 350.961 207.269 351.332 207.181 351.689C207.093 352.041 207.044 352.345 207.035 352.6C207.035 352.623 207.035 352.644 207.035 352.663C207.035 352.746 207.042 352.834 207.056 352.927C207.075 353.02 207.105 353.106 207.146 353.184C207.188 353.263 207.244 353.326 207.313 353.372C207.378 353.414 207.45 353.435 207.529 353.435C207.538 353.435 207.548 353.435 207.557 353.435C207.728 353.43 207.891 353.368 208.044 353.247C208.197 353.126 208.338 352.971 208.468 352.781C208.603 352.591 208.723 352.375 208.83 352.134C208.941 351.893 209.039 351.649 209.122 351.403C209.21 351.153 209.284 350.91 209.345 350.673C209.405 350.437 209.451 350.228 209.484 350.047L211.126 350.381C211.065 350.659 211.017 350.917 210.979 351.153C210.942 351.385 210.919 351.619 210.91 351.856C210.905 351.916 210.903 351.976 210.903 352.037C210.903 352.152 210.91 352.289 210.924 352.447C210.942 352.6 210.982 352.751 211.042 352.899C211.102 353.048 211.186 353.17 211.292 353.268C211.404 353.361 211.548 353.407 211.724 353.407C211.923 353.407 212.083 353.33 212.204 353.177C212.329 353.02 212.424 352.82 212.489 352.579C212.554 352.338 212.596 352.071 212.614 351.779C212.637 351.482 212.649 351.195 212.649 350.917C212.649 350.828 212.647 350.759 212.642 350.708C212.642 350.652 212.642 350.601 212.642 350.555C212.642 350.508 212.64 350.457 212.635 350.402C212.635 350.341 212.635 350.26 212.635 350.158L214.395 350.019C214.409 350.172 214.423 350.323 214.437 350.471C214.451 350.615 214.465 350.766 214.479 350.923C214.492 351.077 214.509 351.241 214.527 351.417C214.55 351.589 214.576 351.777 214.604 351.981C214.636 352.222 214.704 352.433 214.806 352.614C214.912 352.795 215.035 352.946 215.174 353.066C215.313 353.187 215.462 353.277 215.619 353.337C215.782 353.398 215.935 353.428 216.079 353.428H216.336V355.209H216.113C215.886 355.209 215.661 355.186 215.439 355.139C215.221 355.093 215.012 355.021 214.812 354.923C214.613 354.826 214.425 354.703 214.249 354.555C214.077 354.402 213.927 354.221 213.797 354.012C213.574 354.374 213.282 354.664 212.92 354.882C212.559 355.1 212.16 355.209 211.724 355.209C211.288 355.209 210.891 355.104 210.534 354.896C210.182 354.687 209.901 354.409 209.692 354.061C209.558 354.232 209.412 354.39 209.254 354.534C209.101 354.673 208.934 354.796 208.753 354.903C208.577 355.005 208.389 355.083 208.19 355.139C207.99 355.199 207.782 355.23 207.564 355.23C207.355 355.23 207.153 355.202 206.959 355.146C206.764 355.095 206.583 355.019 206.416 354.917C206.249 354.814 206.098 354.692 205.964 354.548C205.829 354.399 205.718 354.235 205.63 354.054C205.398 354.462 205.113 354.757 204.774 354.937C204.436 355.118 204.004 355.209 203.48 355.209H203.181V353.428H203.473ZM222.261 353.428V355.209H222.122C221.672 355.209 221.292 355.137 220.981 354.993C220.671 354.849 220.406 354.664 220.188 354.437C220.035 354.631 219.808 354.782 219.507 354.889C219.21 354.991 218.878 355.065 218.512 355.111C218.145 355.162 217.767 355.19 217.378 355.195C216.993 355.204 216.638 355.209 216.314 355.209H216.056V353.428H216.314C216.856 353.428 217.313 353.398 217.684 353.337C218.055 353.272 218.354 353.18 218.581 353.059C218.813 352.939 218.98 352.788 219.082 352.607C219.184 352.421 219.235 352.208 219.235 351.967C219.235 351.809 219.205 351.601 219.145 351.341C219.085 351.077 218.994 350.738 218.874 350.325L220.585 349.845C220.645 350.049 220.692 350.23 220.724 350.388C220.761 350.541 220.789 350.696 220.807 350.854C220.831 351.007 220.849 351.174 220.863 351.355C220.882 351.531 220.9 351.742 220.919 351.988C220.933 352.136 220.967 352.296 221.023 352.468C221.079 352.635 221.155 352.79 221.253 352.934C221.355 353.073 221.478 353.191 221.621 353.289C221.765 353.381 221.932 353.428 222.122 353.428H222.261ZM218.644 357.268L217.461 358.45L216.265 357.261L217.447 356.071L218.644 357.268ZM221.274 357.275L220.091 358.464L218.894 357.268L220.077 356.085L221.274 357.275ZM221.978 353.428H222.486C222.653 353.428 222.808 353.414 222.952 353.386C223.096 353.358 223.223 353.3 223.335 353.212C223.446 353.119 223.536 352.992 223.606 352.83C223.675 352.667 223.72 352.449 223.738 352.176C223.738 352.069 223.74 351.883 223.745 351.619C223.754 351.35 223.761 351.032 223.766 350.666C223.771 350.295 223.775 349.889 223.78 349.449C223.784 349.008 223.787 348.558 223.787 348.099C223.787 347.742 223.784 347.392 223.78 347.049C223.78 346.701 223.775 346.367 223.766 346.047C223.761 345.727 223.75 345.426 223.731 345.143C223.717 344.86 223.696 344.602 223.668 344.37L225.442 344.141C225.475 344.391 225.5 344.674 225.519 344.99C225.537 345.305 225.551 345.641 225.561 345.998C225.575 346.351 225.582 346.722 225.582 347.111C225.586 347.496 225.588 347.886 225.588 348.28C225.588 349.157 225.579 349.919 225.561 350.569C225.547 351.218 225.54 351.793 225.54 352.294C225.54 352.646 225.63 352.925 225.811 353.129C225.992 353.328 226.261 353.428 226.618 353.428H226.771V355.209H226.618C226.59 355.209 226.565 355.209 226.542 355.209C226.361 355.209 226.182 355.192 226.006 355.16C225.834 355.132 225.667 355.088 225.505 355.028C225.347 354.972 225.201 354.905 225.067 354.826C224.932 354.747 224.814 354.666 224.712 354.583C224.577 354.712 224.429 354.819 224.267 354.903C224.109 354.981 223.947 355.044 223.78 355.09C223.613 355.137 223.448 355.167 223.286 355.181C223.124 355.199 222.977 355.209 222.848 355.209H221.978V353.428ZM226.494 353.428H228.657C228.926 353.428 229.167 353.395 229.381 353.33C229.599 353.266 229.782 353.182 229.93 353.08C230.079 352.973 230.192 352.853 230.271 352.718C230.355 352.579 230.396 352.438 230.396 352.294C230.396 352.071 230.352 351.83 230.264 351.57C230.176 351.306 230.058 351.039 229.909 350.77C229.766 350.497 229.594 350.223 229.395 349.95C229.2 349.671 228.993 349.407 228.775 349.157C228.557 348.901 228.333 348.665 228.101 348.447C227.873 348.229 227.655 348.037 227.447 347.87L227.614 345.908L233.701 343.334L234.348 344.927L229.095 347.083C229.453 347.394 229.763 347.703 230.028 348.009C230.297 348.31 230.535 348.614 230.744 348.92C230.957 349.221 231.15 349.525 231.322 349.831C231.493 350.137 231.66 350.446 231.822 350.757C231.938 350.979 232.054 351.197 232.17 351.41C232.286 351.624 232.411 351.842 232.546 352.064V352.057C232.671 352.266 232.803 352.454 232.942 352.621C233.086 352.788 233.239 352.932 233.402 353.052C233.568 353.173 233.749 353.266 233.944 353.33C234.144 353.395 234.362 353.428 234.598 353.428H235.036V355.209H234.835C234.464 355.209 234.127 355.183 233.826 355.132C233.524 355.081 233.244 355 232.984 354.889C232.729 354.777 232.488 354.636 232.261 354.464C232.038 354.288 231.818 354.077 231.6 353.831C231.437 354.072 231.254 354.279 231.05 354.45C230.846 354.617 230.626 354.757 230.389 354.868C230.153 354.974 229.902 355.053 229.638 355.104C229.378 355.16 229.109 355.195 228.831 355.209H226.494V353.428ZM233.485 342.68L227.614 345.073L227.662 344.176L233.144 341.97L233.485 342.68ZM234.759 353.428H235.879C236.097 353.428 236.32 353.416 236.547 353.393C236.779 353.365 236.988 353.312 237.173 353.233C237.359 353.15 237.509 353.031 237.625 352.878C237.746 352.725 237.806 352.521 237.806 352.266C237.806 352.146 237.781 351.976 237.73 351.758C237.679 351.54 237.611 351.299 237.528 351.035C237.445 350.77 237.345 350.497 237.229 350.214C237.118 349.931 236.999 349.667 236.874 349.421L238.481 348.628C238.597 348.892 238.713 349.173 238.829 349.47C238.945 349.766 239.047 350.072 239.135 350.388C239.228 350.699 239.302 351.012 239.358 351.327C239.413 351.642 239.441 351.951 239.441 352.252C239.441 352.772 239.353 353.219 239.177 353.595C239 353.966 238.755 354.272 238.439 354.513C238.124 354.75 237.746 354.923 237.305 355.035C236.869 355.151 236.389 355.209 235.865 355.209H234.759V353.428ZM238.314 346.27L236.978 347.605L235.65 346.27L236.978 344.941L238.314 346.27ZM242.657 344.141C242.773 345.027 242.854 345.873 242.9 346.68C242.946 347.482 242.974 348.268 242.984 349.038C242.993 349.692 242.995 350.297 242.991 350.854C242.991 351.41 242.986 351.93 242.977 352.412C242.967 352.89 242.953 353.337 242.935 353.755C242.916 354.168 242.898 354.555 242.879 354.917L241.057 355.195C241.154 353.664 241.203 352.312 241.203 351.139C241.203 350.666 241.196 350.223 241.182 349.81C241.145 348.86 241.103 347.967 241.057 347.132C241.01 346.293 240.948 345.49 240.869 344.725L242.657 344.141Z" fill="black"/>
</svg>
