<svg width="400" height="400" viewBox="0 0 400 400" fill="none" xmlns="http://www.w3.org/2000/svg">
<rect width="400" height="400" fill="white"/>
<path d="M161.666 43.0104C161.875 42.9641 162.088 42.9362 162.306 42.927C162.366 42.9223 162.427 42.92 162.487 42.92C162.64 42.92 162.807 42.9316 162.988 42.9548C163.173 42.978 163.368 43.022 163.572 43.087C163.781 43.1519 163.98 43.2354 164.17 43.3374L163.537 45.007C163.296 44.9003 163.046 44.8284 162.786 44.7913C162.675 44.7774 162.566 44.7704 162.459 44.7704C162.306 44.7704 162.153 44.7843 162 44.8122C161.842 44.8261 161.673 44.8725 161.492 44.9513C161.311 45.0301 161.13 45.1322 160.949 45.2574C160.773 45.378 160.602 45.5194 160.435 45.6817C160.272 45.8394 160.129 46.0087 160.003 46.1896C159.878 46.3658 159.776 46.549 159.697 46.7391C159.623 46.9246 159.586 47.1055 159.586 47.2817C159.586 47.4812 159.632 47.6388 159.725 47.7548C159.822 47.8661 159.95 47.9588 160.108 48.033C160.27 48.1026 160.455 48.1606 160.664 48.207C160.873 48.2487 161.091 48.2997 161.318 48.36C161.596 48.4249 161.877 48.4991 162.16 48.5826C162.443 48.6661 162.698 48.782 162.925 48.9304C163.152 49.0742 163.333 49.2643 163.468 49.5009C163.584 49.7096 163.642 49.967 163.642 50.273C163.642 50.3148 163.639 50.3588 163.635 50.4052C163.607 50.8922 163.495 51.3212 163.301 51.6922C163.106 52.0678 162.853 52.3925 162.542 52.6661C162.232 52.9397 161.877 53.167 161.478 53.3478C161.079 53.5333 160.662 53.6817 160.226 53.793C159.79 53.9043 159.349 53.9832 158.904 54.0296C158.459 54.0759 158.035 54.0991 157.631 54.0991C156.815 54.0991 156.068 53.9901 155.391 53.7722C154.719 53.5542 154.151 53.2296 153.687 52.7983C153.223 52.3716 152.887 51.8383 152.678 51.1983C152.539 50.7809 152.469 50.3194 152.469 49.8139C152.469 49.5449 152.488 49.2667 152.525 48.9791C152.562 48.673 152.613 48.3623 152.678 48.047C152.743 47.7316 152.813 47.4278 152.887 47.1357C152.961 46.8388 153.038 46.5583 153.116 46.2939C153.195 46.0296 153.267 45.7977 153.332 45.5983C153.397 45.3988 153.453 45.2365 153.499 45.1113C153.545 44.9861 153.573 44.9142 153.582 44.8957L155.113 45.5148C155.002 45.8626 154.9 46.1896 154.807 46.4957C154.714 46.7971 154.631 47.0939 154.556 47.3861C154.482 47.6783 154.415 47.9728 154.355 48.2696C154.299 48.5617 154.25 48.8725 154.209 49.2017C154.19 49.3548 154.181 49.5032 154.181 49.647C154.181 49.9762 154.243 50.3032 154.369 50.6278C154.498 50.9571 154.719 51.247 155.029 51.4974C155.345 51.7525 155.725 51.9426 156.17 52.0678C156.615 52.193 157.102 52.2557 157.631 52.2557C158.248 52.2557 158.821 52.207 159.349 52.1096C159.883 52.0168 160.344 51.8916 160.734 51.7339C161.128 51.5762 161.441 51.3977 161.673 51.1983C161.909 51.0035 162.042 50.8017 162.069 50.593C162.065 50.5513 162.021 50.5119 161.937 50.4748C161.854 50.4377 161.749 50.4006 161.624 50.3635C161.499 50.331 161.36 50.2962 161.207 50.2591C161.058 50.2267 160.915 50.1919 160.775 50.1548C160.386 50.0574 160.024 49.9461 159.69 49.8209C159.356 49.7003 159.067 49.5403 158.821 49.3409C158.575 49.1414 158.382 48.8887 158.243 48.5826C158.104 48.2765 158.035 47.8916 158.035 47.4278C158.058 46.9177 158.164 46.4214 158.355 45.9391C158.545 45.4568 158.8 45.0186 159.12 44.6243C159.444 44.2255 159.822 43.8846 160.254 43.6017C160.685 43.3188 161.156 43.1217 161.666 43.0104ZM170.949 49.2087H170.734C170.613 49.2087 170.46 49.1948 170.275 49.167C170.094 49.1391 169.894 49.0557 169.676 48.9165C169.616 49.5009 169.437 50.0597 169.141 50.593C168.844 51.131 168.47 51.6342 168.021 52.1026C167.575 52.571 167.072 53 166.511 53.3896C165.955 53.7791 165.382 54.12 164.793 54.4122L164.014 52.8052C164.338 52.6383 164.665 52.4574 164.995 52.2626C165.319 52.0678 165.63 51.8591 165.927 51.6365C166.224 51.4139 166.499 51.182 166.755 50.9409C167.014 50.6997 167.237 50.447 167.422 50.1826C167.613 49.9183 167.761 49.647 167.868 49.3687C167.979 49.0904 168.035 48.8052 168.035 48.513C168.035 48.3043 168.004 48.0748 167.944 47.8243C167.884 47.5693 167.807 47.3049 167.715 47.0313C167.622 46.7577 167.522 46.4817 167.415 46.2035C167.309 45.9206 167.211 45.647 167.123 45.3826L168.793 44.687C168.974 45.2296 169.138 45.6794 169.287 46.0365C169.44 46.389 169.588 46.6696 169.732 46.8783C169.88 47.0823 170.033 47.2261 170.191 47.3096C170.353 47.3884 170.537 47.4278 170.741 47.4278H170.956L170.949 49.2087ZM170.673 47.4278H172.155C172.373 47.4278 172.607 47.4162 172.858 47.393C173.113 47.3652 173.347 47.3119 173.56 47.233C173.778 47.1496 173.957 47.0313 174.096 46.8783C174.24 46.7252 174.312 46.5212 174.312 46.2661C174.312 46.1455 174.286 45.9762 174.235 45.7583C174.184 45.5403 174.117 45.2991 174.033 45.0348C173.95 44.7704 173.85 44.4968 173.734 44.2139C173.623 43.931 173.505 43.6667 173.379 43.4209L174.986 42.6278C175.102 42.8922 175.218 43.1728 175.334 43.4696C175.45 43.7664 175.552 44.0725 175.64 44.3878C175.733 44.6986 175.807 45.0116 175.863 45.327C175.919 45.6423 175.946 45.9507 175.946 46.2522C175.946 46.7901 175.847 47.247 175.647 47.6226C175.448 47.9983 175.174 48.3043 174.826 48.5409C174.483 48.7728 174.08 48.942 173.616 49.0487C173.157 49.1554 172.665 49.2087 172.141 49.2087H170.673V47.4278ZM173.261 51.2678L172.079 52.4504L170.882 51.2609L172.065 50.0713L173.261 51.2678ZM175.891 51.2748L174.708 52.4643L173.512 51.2678L174.694 50.0852L175.891 51.2748ZM181.555 44.5826C181.648 44.8748 181.743 45.1809 181.841 45.5009C181.943 45.8162 182.033 46.1362 182.112 46.4609C182.195 46.7855 182.263 47.1101 182.314 47.4348C182.365 47.7548 182.39 48.0678 182.39 48.3739C182.39 48.7913 182.325 49.1971 182.195 49.5913C182.07 49.9901 181.894 50.3728 181.667 50.7391C181.444 51.1101 181.177 51.4626 180.867 51.7965C180.561 52.1304 180.227 52.4458 179.865 52.7426C179.503 53.0394 179.121 53.3154 178.717 53.5704C178.314 53.8255 177.905 54.0551 177.493 54.2591L176.7 52.6661C177.029 52.5038 177.354 52.3229 177.674 52.1235C177.994 51.9287 178.297 51.72 178.585 51.4974C178.877 51.2748 179.146 51.0406 179.392 50.7948C179.642 50.549 179.856 50.2939 180.032 50.0296C180.213 49.7652 180.354 49.4939 180.456 49.2157C180.558 48.9374 180.609 48.6568 180.609 48.3739C180.609 48.1096 180.579 47.8313 180.519 47.5391C180.459 47.247 180.384 46.9594 180.296 46.6765C180.213 46.389 180.125 46.113 180.032 45.8487C179.944 45.5843 179.87 45.3501 179.809 45.1461L181.555 44.5826ZM181.771 41.6191L180.435 42.9548L179.107 41.6191L180.435 40.2904L181.771 41.6191ZM186.432 44.687C186.311 44.687 186.181 44.738 186.042 44.84C185.903 44.942 185.775 45.0742 185.659 45.2365C185.543 45.3942 185.446 45.5704 185.367 45.7652C185.293 45.96 185.256 46.1501 185.256 46.3357C185.256 46.5304 185.3 46.6928 185.388 46.8226C185.481 46.9478 185.597 47.0499 185.736 47.1287C185.88 47.2075 186.04 47.2678 186.216 47.3096C186.397 47.3467 186.575 47.3745 186.752 47.393C186.849 47.3977 186.956 47.4023 187.072 47.407C187.188 47.4116 187.306 47.4162 187.426 47.4209C187.552 47.4209 187.675 47.4232 187.795 47.4278C187.916 47.4278 188.029 47.4278 188.136 47.4278C188.122 47.2562 188.087 47.0707 188.032 46.8713C187.981 46.6672 187.913 46.4632 187.83 46.2591C187.746 46.0551 187.651 45.8603 187.545 45.6748C187.438 45.4846 187.322 45.3177 187.197 45.1739C187.076 45.0255 186.951 44.9072 186.821 44.8191C186.691 44.731 186.561 44.687 186.432 44.687ZM183.273 52.3391C183.955 52.2046 184.57 52.0238 185.117 51.7965C185.669 51.5739 186.146 51.3235 186.55 51.0452C186.953 50.767 187.28 50.4701 187.531 50.1548C187.786 49.8394 187.955 49.5241 188.039 49.2087C187.663 49.2087 187.297 49.1971 186.939 49.1739C186.582 49.1507 186.244 49.1043 185.924 49.0348C185.608 48.9699 185.316 48.8771 185.047 48.7565C184.783 48.6313 184.553 48.469 184.359 48.2696C184.168 48.0655 184.02 47.8197 183.913 47.5322C183.807 47.2446 183.753 46.9014 183.753 46.5026C183.753 46.2475 183.781 45.9809 183.837 45.7026C183.892 45.4243 183.971 45.153 184.073 44.8887C184.18 44.6197 184.31 44.367 184.463 44.1304C184.616 43.8893 184.792 43.6783 184.992 43.4974C185.191 43.3119 185.411 43.1658 185.652 43.0591C185.894 42.9525 186.153 42.8991 186.432 42.8991C187.15 42.8991 187.807 43.2191 188.4 43.8591C188.614 44.0957 188.804 44.3646 188.971 44.6661C189.142 44.9629 189.286 45.2829 189.402 45.6261C189.523 45.9646 189.613 46.3194 189.673 46.6904C189.738 47.0614 189.771 47.4371 189.771 47.8174C189.771 48.411 189.694 48.9652 189.541 49.48C189.393 49.9994 189.182 50.4771 188.908 50.913C188.639 51.349 188.317 51.7409 187.941 52.0887C187.566 52.4412 187.153 52.7496 186.703 53.0139C186.253 53.2783 185.773 53.4986 185.263 53.6748C184.753 53.8557 184.229 53.9901 183.691 54.0783L183.273 52.3391ZM194.112 48.2348C193.867 48.2348 193.619 48.2186 193.368 48.1861C193.122 48.1536 192.886 48.1003 192.659 48.0261C192.431 47.9519 192.218 47.8591 192.019 47.7478C191.824 47.6319 191.652 47.4928 191.504 47.3304C191.36 47.1681 191.246 46.9803 191.163 46.767C191.079 46.5536 191.038 46.3125 191.038 46.0435C191.038 45.7559 191.089 45.4823 191.191 45.2226C191.293 44.9629 191.43 44.7194 191.601 44.4922C191.773 44.2649 191.972 44.0539 192.199 43.8591C192.427 43.6643 192.666 43.4881 192.916 43.3304C193.166 43.1681 193.419 43.0243 193.674 42.8991C193.934 42.7693 194.18 42.658 194.412 42.5652L194.321 41.5078L196.081 41.1322C196.086 41.1739 196.095 41.2667 196.109 41.4104C196.123 41.5496 196.139 41.7165 196.158 41.9113C196.181 42.1061 196.204 42.3148 196.227 42.5374C196.25 42.7554 196.271 42.9617 196.29 43.1565C196.313 43.3467 196.332 43.5136 196.346 43.6574C196.359 43.7965 196.369 43.8823 196.373 43.9148C196.443 44.5084 196.506 44.993 196.561 45.3687C196.621 45.7443 196.672 46.0435 196.714 46.2661C196.756 46.4841 196.791 46.6394 196.819 46.7322C196.851 46.8203 196.874 46.8783 196.888 46.9061C196.935 47.0081 196.988 47.0939 197.048 47.1635C197.108 47.2284 197.178 47.2817 197.257 47.3235C197.336 47.3606 197.428 47.3884 197.535 47.407C197.642 47.4209 197.767 47.4278 197.911 47.4278H198.05V49.2087H197.911C197.665 49.2041 197.433 49.1948 197.215 49.1809C197.002 49.1716 196.795 49.1322 196.596 49.0626C196.401 48.9977 196.216 48.8933 196.039 48.7496C195.863 48.6058 195.696 48.3971 195.539 48.1235C195.274 48.1606 195.026 48.1884 194.794 48.207C194.562 48.2255 194.335 48.2348 194.112 48.2348ZM194.919 46.4052C194.896 46.28 194.873 46.1316 194.85 45.96C194.827 45.7884 194.803 45.6029 194.78 45.4035C194.757 45.1994 194.732 44.9884 194.704 44.7704C194.681 44.5525 194.655 44.3345 194.627 44.1165C194.507 44.1675 194.372 44.2325 194.224 44.3113C194.075 44.3901 193.922 44.4783 193.765 44.5757C193.607 44.673 193.452 44.7797 193.299 44.8957C193.15 45.007 193.018 45.1229 192.902 45.2435C192.786 45.3594 192.691 45.4777 192.617 45.5983C192.547 45.7188 192.512 45.8348 192.512 45.9461C192.512 46.0481 192.563 46.1339 192.666 46.2035C192.768 46.2684 192.895 46.3217 193.048 46.3635C193.206 46.4006 193.375 46.4284 193.556 46.447C193.737 46.4609 193.908 46.4678 194.071 46.4678C194.219 46.4678 194.368 46.4632 194.516 46.4539C194.664 46.44 194.799 46.4238 194.919 46.4052ZM201.252 46.4887C201.405 46.5536 201.602 46.6348 201.844 46.7322C202.085 46.8296 202.345 46.927 202.623 47.0243C202.901 47.1217 203.182 47.2099 203.465 47.2887C203.752 47.3629 204.014 47.4093 204.251 47.4278C204.204 47.233 204.156 47.0313 204.105 46.8226C204.058 46.6093 204.005 46.4029 203.945 46.2035C203.884 46.0041 203.817 45.8162 203.743 45.64C203.669 45.4591 203.58 45.3014 203.478 45.167C203.381 45.0325 203.267 44.9258 203.138 44.847C203.008 44.7681 202.862 44.7287 202.699 44.7287C202.514 44.7287 202.347 44.789 202.198 44.9096C202.055 45.0301 201.922 45.1809 201.802 45.3617C201.686 45.538 201.582 45.7281 201.489 45.9322C201.401 46.1362 201.322 46.3217 201.252 46.4887ZM203.896 49.1878C203.655 49.1832 203.372 49.1484 203.047 49.0835C202.722 49.0232 202.391 48.942 202.052 48.84C201.718 48.738 201.396 48.622 201.085 48.4922C200.779 48.3623 200.52 48.2255 200.306 48.0817C200.125 48.2626 199.949 48.4226 199.778 48.5617C199.606 48.7009 199.427 48.8191 199.242 48.9165C199.056 49.0093 198.855 49.0812 198.637 49.1322C198.423 49.1832 198.18 49.2087 197.906 49.2087H197.767V47.4278H197.906C198.245 47.4278 198.528 47.3652 198.755 47.24C198.982 47.1101 199.177 46.9432 199.339 46.7391C199.502 46.5351 199.643 46.3055 199.764 46.0504C199.889 45.7954 200.016 45.5403 200.146 45.2852C200.276 45.0162 200.425 44.7472 200.591 44.4783C200.758 44.2093 200.946 43.9681 201.155 43.7548C201.368 43.5368 201.607 43.3606 201.871 43.2261C202.136 43.0916 202.433 43.0243 202.762 43.0243C203.193 43.0243 203.555 43.1009 203.847 43.2539C204.144 43.4023 204.39 43.6087 204.585 43.873C204.784 44.1328 204.942 44.4388 205.058 44.7913C205.173 45.1438 205.271 45.5241 205.35 45.9322C205.396 46.1687 205.44 46.3797 205.482 46.5652C205.524 46.7461 205.57 46.9014 205.621 47.0313C205.677 47.1612 205.735 47.2609 205.795 47.3304C205.86 47.3954 205.936 47.4278 206.025 47.4278H206.24V49.2087H205.976C205.721 49.2041 205.493 49.1345 205.294 49C205.099 48.8609 204.918 48.6777 204.751 48.4504C204.7 48.4968 204.64 48.5594 204.571 48.6383C204.506 48.7171 204.434 48.7959 204.355 48.8748C204.281 48.949 204.204 49.0162 204.125 49.0765C204.047 49.1368 203.97 49.1739 203.896 49.1878ZM212.16 47.4278V49.2087H212.021C211.571 49.2087 211.191 49.1368 210.88 48.993C210.569 48.8493 210.305 48.6638 210.087 48.4365C209.934 48.6313 209.707 48.782 209.405 48.8887C209.108 48.9907 208.777 49.0649 208.41 49.1113C208.044 49.1623 207.666 49.1901 207.276 49.1948C206.891 49.2041 206.537 49.2087 206.212 49.2087H205.955V47.4278H206.212C206.755 47.4278 207.211 47.3977 207.582 47.3374C207.953 47.2725 208.253 47.1797 208.48 47.0591C208.712 46.9386 208.879 46.7878 208.981 46.607C209.083 46.4214 209.134 46.2081 209.134 45.967C209.134 45.8093 209.104 45.6006 209.043 45.3409C208.983 45.0765 208.893 44.738 208.772 44.3252L210.483 43.8452C210.544 44.0493 210.59 44.2301 210.622 44.3878C210.66 44.5409 210.687 44.6962 210.706 44.8539C210.729 45.007 210.748 45.1739 210.762 45.3548C210.78 45.531 210.799 45.742 210.817 45.9878C210.831 46.1362 210.866 46.2962 210.922 46.4678C210.977 46.6348 211.054 46.7901 211.151 46.9339C211.253 47.073 211.376 47.1913 211.52 47.2887C211.664 47.3814 211.831 47.4278 212.021 47.4278H212.16ZM208.542 51.2678L207.36 52.4504L206.163 51.2609L207.346 50.0713L208.542 51.2678ZM211.172 51.2748L209.989 52.4643L208.793 51.2678L209.975 50.0852L211.172 51.2748ZM211.876 47.4278H212.996C213.214 47.4278 213.437 47.4162 213.664 47.393C213.896 47.3652 214.105 47.3119 214.29 47.233C214.476 47.1496 214.627 47.0313 214.743 46.8783C214.863 46.7252 214.923 46.5212 214.923 46.2661C214.923 46.1455 214.898 45.9762 214.847 45.7583C214.796 45.5403 214.729 45.2991 214.645 45.0348C214.562 44.7704 214.462 44.4968 214.346 44.2139C214.235 43.931 214.116 43.6667 213.991 43.4209L215.598 42.6278C215.714 42.8922 215.83 43.1728 215.946 43.4696C216.062 43.7664 216.164 44.0725 216.252 44.3878C216.345 44.6986 216.419 45.0116 216.475 45.327C216.53 45.6423 216.558 45.9507 216.558 46.2522C216.558 46.7716 216.47 47.2191 216.294 47.5948C216.118 47.9658 215.872 48.2719 215.556 48.513C215.241 48.7496 214.863 48.9235 214.423 49.0348C213.987 49.1507 213.507 49.2087 212.983 49.2087H211.876V47.4278ZM215.431 40.2696L214.096 41.6052L212.767 40.2696L214.096 38.9409L215.431 40.2696ZM226.579 52.8748C226.848 52.9212 227.12 52.9443 227.393 52.9443C227.463 52.9443 227.6 52.9397 227.804 52.9304C228.008 52.9212 228.27 52.8794 228.59 52.8052C228.91 52.731 229.216 52.6313 229.508 52.5061C229.805 52.3809 230.076 52.2371 230.322 52.0748L231.261 53.633C230.992 53.7954 230.714 53.9438 230.426 54.0783C230.143 54.2174 229.849 54.3357 229.543 54.433C229.241 54.5304 228.928 54.6046 228.604 54.6557C228.321 54.702 228.031 54.7252 227.734 54.7252C227.688 54.7252 227.639 54.7252 227.588 54.7252C227.152 54.7159 226.716 54.6696 226.28 54.5861C225.849 54.5026 225.436 54.382 225.042 54.2243C224.652 54.0667 224.288 53.8696 223.95 53.633C223.616 53.4012 223.324 53.1299 223.073 52.8191C222.827 52.513 222.633 52.1675 222.489 51.7826C222.345 51.4023 222.271 50.9803 222.266 50.5165C222.28 50.0203 222.373 49.5565 222.545 49.1252C222.716 48.6986 222.943 48.309 223.226 47.9565C223.514 47.5994 223.843 47.2817 224.214 47.0035C224.59 46.7252 224.986 46.4864 225.404 46.287C225.255 46.1478 225.102 46.011 224.945 45.8765C224.791 45.7374 224.643 45.6075 224.499 45.487C224.356 45.3617 224.221 45.2481 224.096 45.1461C223.971 45.0394 223.866 44.949 223.783 44.8748L223.651 43.3861C224.258 42.8574 224.912 42.4609 225.612 42.1965C226.317 41.9275 227.052 41.793 227.818 41.793C228.045 41.793 228.279 41.8093 228.52 41.8417C228.766 41.8742 229.005 41.9252 229.237 41.9948C229.469 42.0643 229.687 42.1548 229.891 42.2661C230.095 42.3774 230.273 42.5142 230.426 42.6765C230.579 42.8342 230.7 43.0174 230.788 43.2261C230.867 43.4301 230.906 43.6574 230.906 43.9078C230.906 43.9217 230.906 43.9357 230.906 43.9496C230.888 44.302 230.818 44.6174 230.698 44.8957C230.582 45.1739 230.429 45.4243 230.238 45.647C230.048 45.8696 229.828 46.069 229.578 46.2452C229.332 46.4214 229.07 46.5838 228.791 46.7322C229.167 46.9409 229.566 47.1101 229.988 47.24C230.415 47.3652 230.83 47.4278 231.233 47.4278H231.47V49.2087H231.233C230.848 49.2087 230.475 49.1693 230.113 49.0904C229.751 49.0116 229.394 48.9003 229.042 48.7565C228.689 48.6081 228.339 48.4342 227.991 48.2348C227.644 48.0307 227.294 47.8058 226.941 47.56C226.603 47.6945 226.259 47.8522 225.911 48.033C225.564 48.2093 225.246 48.418 224.958 48.6591C224.676 48.8957 224.444 49.1646 224.263 49.4661C224.082 49.7675 223.991 50.1084 223.991 50.4887C223.991 50.702 224.033 50.9061 224.117 51.1009C224.205 51.2957 224.318 51.4765 224.458 51.6435C224.597 51.8151 224.757 51.9704 224.938 52.1096C225.118 52.2533 225.304 52.3762 225.494 52.4783C225.689 52.5849 225.879 52.6707 226.065 52.7357C226.255 52.8052 226.426 52.8516 226.579 52.8748ZM227.825 43.4904C227.639 43.4904 227.444 43.5043 227.24 43.5322C227.036 43.5554 226.834 43.5901 226.635 43.6365C226.436 43.6783 226.243 43.7316 226.058 43.7965C225.877 43.8568 225.717 43.9241 225.578 43.9983C225.675 44.1003 225.784 44.2186 225.905 44.353C226.025 44.4829 226.153 44.6197 226.287 44.7635C226.426 44.9072 226.568 45.051 226.711 45.1948C226.855 45.3339 226.997 45.4638 227.136 45.5843C227.442 45.4545 227.727 45.3223 227.991 45.1878C228.256 45.0533 228.485 44.9165 228.68 44.7774C228.88 44.6336 229.037 44.4852 229.153 44.3322C229.269 44.1791 229.329 44.0214 229.334 43.8591C229.329 43.8406 229.299 43.8128 229.244 43.7757C229.188 43.7386 229.098 43.7014 228.972 43.6643C228.852 43.6226 228.696 43.5855 228.506 43.553C228.321 43.5206 228.094 43.4997 227.825 43.4904ZM231.189 47.4278H232.246L232.295 47.3374C232.374 47.1983 232.485 47.0151 232.629 46.7878C232.777 46.5559 232.963 46.2939 233.186 46.0017C233.227 45.7096 233.262 45.3409 233.29 44.8957C233.318 44.4504 233.334 43.9681 233.339 43.4487C233.339 43.1658 233.334 42.8759 233.325 42.5791C233.315 42.2777 233.297 41.9322 233.269 41.5426C233.241 41.153 233.202 40.6986 233.151 40.1791C233.104 39.6551 233.044 39.0313 232.97 38.3078L234.799 37.8348C234.92 38.7252 235.01 39.6388 235.071 40.5757C235.136 41.5125 235.168 42.44 235.168 43.3583V43.9217C235.419 43.7084 235.678 43.5043 235.947 43.3096C236.221 43.1148 236.504 42.9432 236.796 42.7948C237.093 42.6464 237.401 42.5281 237.721 42.44C238.041 42.3519 238.375 42.3078 238.723 42.3078C239.075 42.3078 239.409 42.3635 239.725 42.4748C240.04 42.5861 240.318 42.7484 240.559 42.9617C240.805 43.1704 241.007 43.4255 241.165 43.727C241.322 44.0284 241.42 44.367 241.457 44.7426C241.461 44.8122 241.464 44.8794 241.464 44.9443C241.464 45.4267 241.383 45.8765 241.22 46.2939C241.063 46.7113 240.828 47.0893 240.518 47.4278H242.479V49.2087H240.629C240.263 49.2087 239.855 49.1925 239.405 49.16C238.955 49.1275 238.456 49.0417 237.909 48.9026C237.515 49.0093 237.114 49.0858 236.706 49.1322C236.302 49.1832 235.896 49.2087 235.488 49.2087H231.189V47.4278ZM234.841 47.4278C235.124 47.4278 235.449 47.4209 235.815 47.407C236.186 47.393 236.566 47.3606 236.956 47.3096C237.346 47.2586 237.723 47.182 238.09 47.08C238.461 46.978 238.79 46.8412 239.078 46.6696C239.365 46.498 239.592 46.2823 239.759 46.0226C239.903 45.8 239.975 45.5357 239.975 45.2296C239.975 45.1878 239.973 45.1438 239.968 45.0974C239.959 44.9583 239.912 44.8284 239.829 44.7078C239.75 44.5872 239.639 44.4852 239.495 44.4017C239.356 44.3136 239.189 44.2441 238.994 44.193C238.827 44.1559 238.646 44.1374 238.452 44.1374C238.415 44.1374 238.375 44.1374 238.333 44.1374C238.101 44.1467 237.826 44.207 237.506 44.3183C237.186 44.4249 236.842 44.6058 236.476 44.8609C236.11 45.1159 235.729 45.4522 235.335 45.8696C234.941 46.287 234.556 46.8064 234.18 47.4278H234.841ZM242.372 47.4278C242.859 47.4278 243.327 47.4139 243.777 47.3861C244.227 47.3536 244.637 47.3096 245.008 47.2539C245.379 47.1983 245.699 47.131 245.968 47.0522C246.237 46.9733 246.439 46.8852 246.573 46.7878H245.864C245.456 46.7878 245.066 46.7368 244.695 46.6348C244.329 46.5281 244.006 46.3704 243.728 46.1617C243.45 45.953 243.227 45.6933 243.06 45.3826C242.898 45.0672 242.817 44.7009 242.817 44.2835C242.817 44.0377 242.842 43.7849 242.893 43.5252C242.944 43.2655 243.021 43.0128 243.123 42.767C243.225 42.5212 243.348 42.2893 243.492 42.0713C243.635 41.8533 243.8 41.6632 243.985 41.5009C244.171 41.3339 244.375 41.2041 244.598 41.1113C244.82 41.0139 245.061 40.9652 245.321 40.9652C245.641 40.9652 245.94 41.0325 246.219 41.167C246.497 41.3014 246.75 41.4846 246.977 41.7165C247.204 41.9438 247.406 42.2081 247.582 42.5096C247.758 42.811 247.907 43.1287 248.027 43.4626C248.148 43.7965 248.238 44.1374 248.299 44.4852C248.363 44.8284 248.396 45.1554 248.396 45.4661C248.396 45.9948 248.322 46.4539 248.173 46.8435C248.03 47.233 247.825 47.567 247.561 47.8452C247.301 48.1235 246.988 48.3507 246.622 48.527C246.26 48.7032 245.859 48.8423 245.419 48.9443C244.978 49.0464 244.505 49.1159 243.999 49.153C243.499 49.1901 242.979 49.2087 242.441 49.2087H242.205V47.4278H242.372ZM245.321 42.76C245.298 42.7554 245.275 42.753 245.252 42.753C245.159 42.753 245.052 42.7901 244.932 42.8643C244.811 42.9386 244.695 43.0452 244.584 43.1843C244.472 43.3235 244.382 43.4812 244.312 43.6574C244.243 43.829 244.208 43.9983 244.208 44.1652C244.208 44.1745 244.208 44.1838 244.208 44.193C244.208 44.36 244.245 44.4968 244.319 44.6035C244.394 44.7055 244.493 44.7843 244.619 44.84C244.748 44.8957 244.897 44.9351 245.064 44.9583C245.235 44.9814 245.416 44.9977 245.606 45.007C245.732 45.0116 245.861 45.0139 245.996 45.0139C246.061 45.0139 246.161 45.0139 246.295 45.0139C246.434 45.0093 246.576 45.0023 246.719 44.993C246.678 44.8261 246.617 44.6197 246.539 44.3739C246.464 44.1235 246.369 43.8823 246.253 43.6504C246.142 43.4139 246.008 43.2099 245.85 43.0383C245.697 42.8667 245.521 42.7739 245.321 42.76ZM245.154 38.8713L243.972 40.0539L242.775 38.8643L243.958 37.6748L245.154 38.8713ZM247.784 38.8783L246.601 40.0678L245.405 38.8713L246.587 37.6887L247.784 38.8783Z" fill="black"/>
<path d="M265.962 136.912C265.962 135.556 265.941 134.196 265.901 132.834C265.86 131.464 265.771 130.117 265.632 128.793C265.493 127.469 265.293 126.185 265.033 124.94C264.778 123.699 264.434 122.523 263.999 121.413L265.441 121.268C265.915 122.495 266.309 123.812 266.622 125.217C266.94 126.618 267.183 128.141 267.351 129.783C267.42 130.483 267.475 131.195 267.516 131.917C267.562 132.644 267.597 133.363 267.62 134.074C267.649 134.782 267.666 135.471 267.672 136.143C267.684 136.819 267.689 137.459 267.689 138.064L265.962 136.912ZM269.579 138.583C269.608 138.491 269.663 138.34 269.744 138.129C269.825 137.919 269.938 137.671 270.082 137.385C270.227 137.099 270.406 136.787 270.621 136.45C270.835 136.105 271.089 135.757 271.385 135.404C271.68 135.058 271.995 134.747 272.331 134.47C272.667 134.193 273.008 133.972 273.355 133.807C272.921 133.448 272.522 133.056 272.157 132.632C271.798 132.205 271.486 131.757 271.22 131.287C270.953 130.818 270.745 130.331 270.595 129.827C270.45 129.32 270.377 128.809 270.377 128.295C270.377 127.856 270.432 127.482 270.542 127.173C270.652 126.864 270.803 126.613 270.994 126.42C271.191 126.225 271.419 126.085 271.68 126.001C271.946 125.921 272.23 125.895 272.531 125.921C272.832 125.941 273.144 126.014 273.468 126.139C273.792 126.258 274.117 126.426 274.441 126.642C275.292 127.209 276.131 128.061 276.959 129.197L276.082 130.407C275.786 129.988 275.5 129.64 275.222 129.364C274.95 129.093 274.69 128.874 274.441 128.708C274.157 128.519 273.874 128.389 273.59 128.318C273.312 128.244 273.063 128.235 272.843 128.29C272.623 128.345 272.444 128.469 272.305 128.661C272.166 128.847 272.097 129.11 272.097 129.451C272.097 129.715 272.149 129.976 272.253 130.233C272.363 130.495 272.502 130.74 272.67 130.97C272.837 131.201 273.02 131.409 273.217 131.596C273.419 131.787 273.613 131.944 273.798 132.067L273.911 132.142C274.143 132.297 274.389 132.443 274.649 132.582C274.91 132.714 275.173 132.838 275.439 132.953C275.705 133.067 275.954 133.164 276.186 133.242C276.417 133.319 276.617 133.383 276.785 133.432C276.947 133.478 277.08 133.514 277.184 133.542C277.294 133.574 277.381 133.6 277.445 133.622L277.948 135.93L277.323 135.763C276.785 135.62 276.284 135.575 275.821 135.628C275.364 135.678 274.941 135.796 274.554 135.983C274.172 136.167 273.824 136.401 273.512 136.687C273.199 136.972 272.918 137.272 272.67 137.586C272.426 137.904 272.215 138.226 272.036 138.551C271.856 138.87 271.706 139.159 271.584 139.419C271.469 139.676 271.379 139.887 271.315 140.054C271.257 140.217 271.225 140.3 271.22 140.303L269.579 138.583ZM280.223 149.55L279.207 148.028C279.815 147.41 280.133 146.569 280.162 145.503V143.541L281.924 144.716V146.417C281.924 147.203 281.762 147.881 281.438 148.451C281.12 149.032 280.715 149.398 280.223 149.55ZM290.863 153.565C290.44 153.283 290.052 152.903 289.699 152.424C289.352 151.942 289.057 151.387 288.814 150.759L288.787 150.7C288.539 150.986 288.226 151.136 287.85 151.15C287.479 151.167 287.068 151.025 286.617 150.724C286.113 150.389 285.688 149.994 285.341 149.54C284.999 149.089 284.721 148.612 284.507 148.107C284.293 147.596 284.134 147.069 284.03 146.526C283.925 145.984 283.862 145.454 283.839 144.938C283.827 144.722 283.821 144.513 283.821 144.311C283.821 144.026 283.836 143.701 283.865 143.338C283.899 142.972 283.951 142.617 284.021 142.274C284.125 141.78 284.258 141.298 284.42 140.829C284.588 140.363 284.791 139.896 285.028 139.429C285.271 138.958 285.555 138.479 285.879 137.992C286.209 137.51 286.585 137.006 287.008 136.48L286.686 135.88L287.902 135.23C288.486 136.259 289.06 137.295 289.621 138.337C290.188 139.376 290.718 140.432 291.21 141.505C292.344 144 293.166 146.384 293.676 148.658C293.843 149.438 293.927 150.189 293.927 150.913C293.927 151.49 293.864 152.015 293.736 152.486C293.609 152.958 293.418 153.331 293.163 153.607C292.914 153.879 292.596 154.025 292.208 154.045C291.826 154.062 291.381 153.904 290.871 153.571L290.863 153.565ZM289.586 146.829C289.586 147.017 289.592 147.243 289.604 147.508C289.615 147.774 289.635 148.055 289.664 148.352C289.699 148.647 289.745 148.949 289.803 149.259C289.867 149.573 289.945 149.872 290.038 150.156C290.136 150.437 290.252 150.695 290.385 150.93C290.524 151.169 290.686 151.364 290.871 151.515C291.143 151.676 291.366 151.723 291.54 151.658C291.713 151.593 291.849 151.465 291.948 151.273C292.046 151.074 292.113 150.837 292.148 150.561C292.188 150.282 292.208 150.014 292.208 149.756C292.208 149.52 292.194 149.267 292.165 148.997C292.136 148.727 292.09 148.453 292.026 148.174C291.818 147.263 291.566 146.371 291.271 145.5C290.975 144.628 290.66 143.792 290.324 142.991C289.989 142.182 289.644 141.421 289.291 140.705C288.938 139.99 288.599 139.336 288.275 138.745C287.911 139.211 287.589 139.658 287.311 140.085C287.034 140.512 286.791 140.931 286.582 141.341C286.374 141.752 286.197 142.163 286.053 142.574C285.914 142.982 285.798 143.399 285.705 143.824C285.671 143.975 285.636 144.175 285.601 144.423C285.566 144.671 285.543 144.948 285.532 145.253C285.526 145.353 285.523 145.456 285.523 145.56C285.523 145.769 285.532 146.011 285.549 146.287C285.572 146.567 285.621 146.861 285.697 147.168C285.778 147.48 285.89 147.764 286.035 148.02C286.186 148.28 286.38 148.49 286.617 148.648C286.825 148.78 287.005 148.823 287.155 148.777C287.306 148.731 287.433 148.632 287.537 148.479C287.647 148.322 287.737 148.128 287.806 147.896C287.882 147.661 287.942 147.42 287.989 147.173C288.035 146.925 288.073 146.686 288.102 146.455C288.136 146.221 288.165 146.028 288.188 145.876L289.586 146.829Z" fill="black"/>
<path d="M97.0839 131.724C97.0839 130.367 97.0636 129.035 97.0231 127.726C96.9826 126.411 96.8929 125.183 96.754 124.045C96.6151 122.906 96.4154 121.888 96.1549 120.99C95.9002 120.089 95.5558 119.372 95.1217 118.841L96.563 116.774C97.0376 117.369 97.4312 118.16 97.7438 119.148C98.0621 120.126 98.3052 121.324 98.4731 122.742C98.5425 123.35 98.5975 123.988 98.638 124.657C98.6843 125.321 98.7191 125.994 98.7422 126.674C98.7712 127.343 98.7885 128.01 98.7943 128.674C98.8059 129.334 98.8117 129.967 98.8117 130.572L97.0839 131.724ZM108.341 108.692C108.341 108.706 108.35 108.77 108.367 108.883C108.385 108.99 108.402 109.138 108.419 109.329C108.437 109.512 108.451 109.725 108.463 109.968C108.469 110.138 108.472 110.313 108.472 110.494V110.765C108.448 112.388 108.133 113.829 107.525 115.09V115.08C106.935 116.329 106.133 117.291 105.12 117.966C104.842 118.152 104.591 118.299 104.365 118.407C104.145 118.505 103.925 118.575 103.705 118.618L103.774 119.145C103.844 119.753 103.899 120.391 103.939 121.06C103.986 121.717 104.02 122.387 104.044 123.067C104.073 123.736 104.09 124.406 104.096 125.077C104.107 125.737 104.113 126.37 104.113 126.975L102.385 128.127C102.385 127.021 102.377 125.928 102.359 124.847C102.342 123.759 102.296 122.726 102.22 121.747C102.145 120.76 102.032 119.848 101.882 119.009C101.737 118.159 101.534 117.425 101.274 116.805C101.152 116.511 101.022 116.239 100.883 115.991C100.744 115.743 100.588 115.496 100.414 115.25L101.864 113.177C101.957 113.296 102.041 113.424 102.116 113.562C102.197 113.689 102.275 113.828 102.351 113.98C102.432 114.121 102.513 114.275 102.594 114.444C102.675 114.612 102.764 114.793 102.863 114.984C102.996 115.264 103.126 115.511 103.254 115.726C103.387 115.929 103.537 116.083 103.705 116.186C103.879 116.286 104.075 116.322 104.295 116.294C104.521 116.254 104.796 116.127 105.12 115.911C105.601 115.59 105.962 115.172 106.205 114.655C106.315 114.429 106.405 114.191 106.475 113.943C106.544 113.688 106.599 113.433 106.64 113.176C106.686 112.916 106.718 112.658 106.735 112.403C106.752 112.148 106.761 111.905 106.761 111.676C106.761 111.377 106.747 111.098 106.718 110.839C106.695 110.576 106.669 110.364 106.64 110.202L108.341 108.692Z" fill="black"/>
<path d="M361.95 217.165L361.95 223.956L228.197 314.064L40.6004 190.834L40.6004 184.662L175.329 94.1729L361.95 217.165Z" fill="#E7E7E7" stroke="black"/>
<path d="M362.614 216.95L362.614 223.338L228.789 313.546L228.789 306.662L362.614 216.95Z" fill="#A3A3A3" stroke="black"/>
<path d="M40.5388 184.496L175.706 94.0533L362.558 216.382L228.237 306.598L40.5388 184.496Z" fill="#E7E7E7" stroke="black"/>
<path d="M354.219 210.818L362.646 216.436L228.229 306.716L220.422 301.511L354.219 210.818Z" fill="#A3A3A3" stroke="black"/>
<path d="M181.312 185.513C180.553 185.008 179.954 184.415 179.513 183.735C179.079 183.058 178.872 182.299 178.894 181.455L182.674 181.019C182.698 181.383 182.759 181.71 182.858 182C182.963 182.286 183.09 182.541 183.241 182.765C183.392 182.989 183.557 183.184 183.736 183.35C183.922 183.52 184.11 183.669 184.301 183.796C184.457 183.9 184.633 184.006 184.83 184.114C185.033 184.219 185.244 184.313 185.464 184.398C185.689 184.486 185.915 184.559 186.141 184.617C186.366 184.675 186.589 184.707 186.809 184.715C187.12 184.211 187.431 183.681 187.742 183.123C188.065 182.565 188.385 182.006 188.702 181.444C189.025 180.879 189.345 180.319 189.662 179.765C189.979 179.212 190.29 178.685 190.596 178.185L194.188 179.166L190.149 185.713C189.999 185.953 189.872 186.166 189.769 186.352C189.665 186.538 189.607 186.712 189.596 186.874C189.591 187.041 189.637 187.199 189.736 187.35C189.846 187.501 190.031 187.663 190.292 187.836L190.543 188.004L187.806 189.843L187.554 189.675C187.201 189.44 186.912 189.216 186.686 189.003C186.466 188.795 186.292 188.59 186.164 188.389C186.037 188.196 185.947 188.004 185.895 187.815C185.854 187.625 185.833 187.434 185.833 187.241C185.388 187.183 184.971 187.107 184.584 187.011C184.19 186.918 183.812 186.801 183.447 186.659C183.083 186.516 182.727 186.348 182.379 186.156C182.032 185.97 181.676 185.756 181.312 185.513ZM190.199 187.775L190.763 188.151C191.023 188.324 191.284 188.444 191.544 188.509C191.816 188.575 192.085 188.595 192.351 188.572C192.628 188.548 192.897 188.484 193.157 188.379C193.423 188.278 193.68 188.144 193.928 187.977C194.275 187.752 194.69 187.477 195.176 187.151C195.666 186.821 196.189 186.466 196.743 186.086C197.304 185.702 197.878 185.305 198.467 184.894C199.062 184.479 199.636 184.073 200.191 183.678C200.751 183.278 201.279 182.9 201.776 182.543C202.278 182.183 202.714 181.867 203.084 181.595L206.347 183.098L196.057 190.138C195.699 190.378 195.505 190.628 195.477 190.888C195.46 191.147 195.631 191.396 195.99 191.635L196.181 191.763L193.443 193.601L193.252 193.474C193.009 193.319 192.789 193.146 192.592 192.953C192.401 192.763 192.242 192.568 192.114 192.367C191.981 192.17 191.888 191.977 191.836 191.787C191.784 191.598 191.778 191.428 191.818 191.277C191.546 191.297 191.271 191.291 190.994 191.261C190.716 191.23 190.424 191.163 190.118 191.059C189.811 190.963 189.484 190.826 189.137 190.649C188.79 190.472 188.414 190.248 188.008 189.978L187.461 189.613L190.199 187.775ZM195.835 191.532L197.666 192.753C198.604 193.378 199.519 193.914 200.41 194.362C201.312 194.809 202.201 195.196 203.074 195.523C203.948 195.851 204.812 196.134 205.669 196.372C206.536 196.61 207.401 196.835 208.263 197.047C207.979 196.71 207.718 196.355 207.48 195.98C207.249 195.609 207.008 195.24 206.759 194.873C206.515 194.51 206.249 194.162 205.959 193.83C205.675 193.494 205.339 193.196 204.952 192.938C204.685 192.76 204.35 192.633 203.945 192.557C203.546 192.484 203.15 192.44 202.757 192.425C202.363 192.41 202.008 192.417 201.69 192.444C201.378 192.468 201.173 192.49 201.074 192.509L200.359 190.305C200.966 190.192 201.605 190.112 202.276 190.064C202.946 190.017 203.602 190.017 204.244 190.067C204.898 190.116 205.519 190.221 206.109 190.382C206.705 190.548 207.234 190.785 207.697 191.094C208.039 191.321 208.343 191.574 208.609 191.852C208.882 192.126 209.128 192.414 209.348 192.716C209.574 193.021 209.777 193.334 209.957 193.655C210.142 193.972 210.322 194.288 210.496 194.605C210.658 194.907 210.824 195.21 210.992 195.516C211.166 195.817 211.357 196.119 211.566 196.42C211.78 196.717 212.026 197.009 212.304 197.295C212.582 197.581 212.915 197.857 213.303 198.123L210.427 199.764L208.605 199.338C207.859 199.165 207.107 199 206.349 198.843C205.597 198.682 204.843 198.511 204.085 198.33C203.333 198.146 202.572 197.944 201.803 197.725C201.039 197.502 200.276 197.244 199.512 196.951C198.754 196.655 197.993 196.314 197.23 195.928C196.46 195.546 195.693 195.101 194.929 194.592L193.097 193.37L195.835 191.532ZM195.53 201.322L195.526 198.746L199.377 198.739L199.381 201.315L195.53 201.322Z" fill="black"/>
<path d="M190.706 85.1575C190.543 84.8539 190.543 84.5373 190.706 84.4504L193.353 83.0334C193.516 82.9465 193.779 83.1221 193.941 83.4257C194.104 83.7292 194.104 84.0458 193.941 84.1328L191.588 85.3923L193.941 89.7896C194.104 90.0932 194.104 90.4098 193.941 90.4967C193.779 90.5837 193.516 90.4081 193.353 90.1045L190.706 85.1575ZM245.083 121.556L191 85.5V84.5L245.083 120.556V121.556Z" fill="black"/>
<path d="M40.7057 164.613C40.5433 164.526 40.5433 164.209 40.7057 163.906L43.3533 158.959C43.5158 158.655 43.7792 158.48 43.9416 158.567C44.1041 158.653 44.1041 158.97 43.9416 159.274L41.5883 163.671L43.9416 164.93C44.1041 165.017 44.1041 165.334 43.9416 165.638C43.7792 165.941 43.5158 166.117 43.3533 166.03L40.7057 164.613ZM87.5947 133.5L40.9999 164.563V163.563L87.5947 132.5V133.5Z" fill="black"/>
<path d="M162.889 84.4503C163.051 84.5373 163.051 84.8539 162.889 85.1574L160.241 90.1045C160.079 90.408 159.815 90.5836 159.653 90.4967C159.491 90.4097 159.491 90.0932 159.653 89.7896L162.006 85.3922L159.653 84.1327C159.491 84.0458 159.491 83.7292 159.653 83.4256C159.815 83.1221 160.079 82.9464 160.241 83.0334L162.889 84.4503ZM162.595 85.5L116 116.563V115.563L162.595 84.5V85.5Z" fill="black"/>
<path d="M365.377 199.954C365.54 200.257 365.54 200.574 365.377 200.661L362.73 202.078C362.567 202.165 362.304 201.989 362.141 201.685C361.979 201.382 361.979 201.065 362.141 200.978L364.495 199.719L362.141 195.321C361.979 195.018 361.979 194.701 362.141 194.614C362.304 194.527 362.567 194.703 362.73 195.007L365.377 199.954ZM365.083 200.611L311 164.556V163.556L365.083 199.611V200.611Z" fill="black"/>
<path d="M168.993 359.744C168.195 359.744 167.458 359.645 166.78 359.445C166.103 359.25 165.526 358.954 165.048 358.555C164.571 358.161 164.211 357.664 163.97 357.066C163.775 356.598 163.678 356.067 163.678 355.473C163.678 355.315 163.685 355.153 163.699 354.986C163.727 354.666 163.764 354.339 163.81 354.005C163.861 353.671 163.928 353.321 164.012 352.955C164.1 352.584 164.211 352.192 164.346 351.779C164.48 351.366 164.647 350.921 164.847 350.443L166.28 351.104C166.089 351.577 165.932 352.016 165.807 352.419C165.681 352.818 165.582 353.189 165.507 353.532C165.438 353.875 165.389 354.198 165.361 354.499C165.334 354.801 165.32 355.09 165.32 355.369C165.32 355.703 165.361 356.002 165.445 356.266C165.533 356.53 165.644 356.767 165.779 356.976C165.96 357.221 166.187 357.409 166.46 357.539C166.734 357.674 167.022 357.771 167.323 357.831C167.629 357.892 167.928 357.926 168.22 357.936C168.517 357.95 168.775 357.957 168.993 357.957C169.123 357.957 169.31 357.947 169.556 357.929C169.807 357.91 170.078 357.878 170.37 357.831C170.667 357.785 170.971 357.725 171.281 357.65C171.592 357.576 171.873 357.483 172.123 357.372C172.378 357.261 172.585 357.131 172.742 356.983C172.905 356.834 172.986 356.66 172.986 356.461C172.986 356.428 172.944 356.377 172.86 356.308C172.782 356.243 172.67 356.169 172.527 356.085C172.387 356.002 172.223 355.914 172.033 355.821C171.843 355.733 171.638 355.647 171.42 355.563C171.1 355.457 170.783 355.378 170.467 355.327C170.152 355.276 169.839 355.223 169.528 355.167L169.765 353.428H175.288V355.209H173.987C174.173 355.436 174.296 355.659 174.356 355.877C174.421 356.099 174.456 356.294 174.46 356.461C174.442 356.869 174.338 357.233 174.147 357.553C173.957 357.878 173.712 358.161 173.41 358.402C173.113 358.648 172.775 358.854 172.394 359.021C172.014 359.192 171.625 359.332 171.226 359.438C170.827 359.545 170.433 359.621 170.043 359.668C169.658 359.719 169.308 359.744 168.993 359.744ZM175.017 353.428H175.156C175.458 353.428 175.757 353.428 176.054 353.428C176.355 353.428 176.61 353.416 176.819 353.393C176.726 353.333 176.624 353.247 176.513 353.136C176.401 353.02 176.297 352.885 176.2 352.732C176.107 352.574 176.026 352.398 175.956 352.203C175.891 352.004 175.857 351.786 175.852 351.55C175.847 351.489 175.845 351.429 175.845 351.369C175.845 351.179 175.87 350.968 175.921 350.736C175.977 350.499 176.065 350.258 176.186 350.012C176.311 349.766 176.462 349.537 176.638 349.323C176.814 349.106 177.009 348.918 177.222 348.76C177.436 348.598 177.665 348.472 177.911 348.384C178.129 348.306 178.354 348.266 178.586 348.266C178.614 348.266 178.639 348.266 178.662 348.266C179.038 348.28 179.386 348.377 179.706 348.558C180.03 348.734 180.311 348.964 180.548 349.247C180.784 349.53 180.97 349.852 181.104 350.214C181.239 350.571 181.306 350.937 181.306 351.313C181.306 351.675 181.239 352.025 181.104 352.363C180.974 352.697 180.805 353.01 180.596 353.303C180.819 353.34 181.06 353.37 181.32 353.393C181.584 353.416 181.835 353.428 182.071 353.428H182.259V355.209H182.12C181.763 355.209 181.417 355.202 181.083 355.188C180.754 355.179 180.443 355.153 180.151 355.111C179.859 355.07 179.585 355.012 179.33 354.937C179.08 354.859 178.857 354.752 178.662 354.617C178.523 354.719 178.324 354.808 178.064 354.882C177.809 354.956 177.521 355.016 177.201 355.063C176.881 355.114 176.543 355.151 176.186 355.174C175.833 355.197 175.49 355.209 175.156 355.209H175.017V353.428ZM178.641 350.026C178.521 350.049 178.382 350.098 178.224 350.172C178.071 350.242 177.925 350.341 177.786 350.471C177.651 350.597 177.535 350.752 177.438 350.937C177.345 351.123 177.299 351.343 177.299 351.598C177.299 351.682 177.338 351.791 177.417 351.925C177.496 352.055 177.6 352.187 177.73 352.322C177.86 352.452 178.008 352.574 178.175 352.69C178.342 352.802 178.514 352.881 178.69 352.927C178.829 352.857 178.964 352.767 179.094 352.656C179.228 352.544 179.346 352.424 179.448 352.294C179.55 352.159 179.632 352.023 179.692 351.883C179.757 351.74 179.789 351.603 179.789 351.473C179.789 351.292 179.75 351.121 179.671 350.958C179.597 350.791 179.502 350.643 179.386 350.513C179.27 350.383 179.145 350.277 179.01 350.193C178.88 350.105 178.757 350.049 178.641 350.026ZM178.468 346.04L177.285 347.223L176.088 346.033L177.271 344.843L178.468 346.04ZM181.097 346.047L179.915 347.237L178.718 346.04L179.901 344.857L181.097 346.047ZM182.153 353.428C182.64 353.428 183.108 353.414 183.558 353.386C184.008 353.354 184.418 353.31 184.789 353.254C185.16 353.198 185.48 353.131 185.749 353.052C186.018 352.973 186.22 352.885 186.355 352.788H185.645C185.237 352.788 184.847 352.737 184.476 352.635C184.11 352.528 183.788 352.37 183.509 352.162C183.231 351.953 183.008 351.693 182.842 351.383C182.679 351.067 182.598 350.701 182.598 350.283C182.598 350.038 182.624 349.785 182.675 349.525C182.726 349.266 182.802 349.013 182.904 348.767C183.006 348.521 183.129 348.289 183.273 348.071C183.417 347.853 183.581 347.663 183.767 347.501C183.952 347.334 184.156 347.204 184.379 347.111C184.602 347.014 184.843 346.965 185.102 346.965C185.422 346.965 185.722 347.032 186 347.167C186.278 347.301 186.531 347.485 186.758 347.717C186.985 347.944 187.187 348.208 187.363 348.51C187.539 348.811 187.688 349.129 187.808 349.463C187.929 349.797 188.019 350.137 188.08 350.485C188.145 350.828 188.177 351.155 188.177 351.466C188.177 351.995 188.103 352.454 187.955 352.843C187.811 353.233 187.607 353.567 187.342 353.845C187.083 354.123 186.77 354.351 186.403 354.527C186.042 354.703 185.64 354.842 185.2 354.944C184.759 355.046 184.286 355.116 183.781 355.153C183.28 355.19 182.76 355.209 182.222 355.209H181.986V353.428H182.153ZM185.102 348.76C185.079 348.755 185.056 348.753 185.033 348.753C184.94 348.753 184.833 348.79 184.713 348.864C184.592 348.939 184.476 349.045 184.365 349.184C184.254 349.323 184.163 349.481 184.094 349.657C184.024 349.829 183.989 349.998 183.989 350.165C183.989 350.174 183.989 350.184 183.989 350.193C183.989 350.36 184.026 350.497 184.101 350.603C184.175 350.706 184.275 350.784 184.4 350.84C184.53 350.896 184.678 350.935 184.845 350.958C185.017 350.981 185.197 350.998 185.388 351.007C185.513 351.012 185.643 351.014 185.777 351.014C185.842 351.014 185.942 351.014 186.076 351.014C186.215 351.009 186.357 351.002 186.501 350.993C186.459 350.826 186.399 350.62 186.32 350.374C186.246 350.123 186.151 349.882 186.035 349.65C185.923 349.414 185.789 349.21 185.631 349.038C185.478 348.867 185.302 348.774 185.102 348.76ZM186.382 344.704L185.047 346.04L183.718 344.704L185.047 343.376L186.382 344.704ZM191.414 344.141C191.53 345.027 191.612 345.873 191.658 346.68C191.704 347.482 191.732 348.268 191.741 349.038C191.751 349.692 191.753 350.297 191.748 350.854C191.748 351.41 191.744 351.93 191.734 352.412C191.725 352.89 191.711 353.337 191.693 353.755C191.674 354.168 191.656 354.555 191.637 354.917L189.814 355.195C189.912 353.664 189.961 352.312 189.961 351.139C189.961 350.666 189.954 350.223 189.94 349.81C189.903 348.86 189.861 347.967 189.814 347.132C189.768 346.293 189.705 345.49 189.627 344.725L191.414 344.141ZM203.04 359.744C202.242 359.744 201.504 359.645 200.827 359.445C200.15 359.25 199.573 358.954 199.095 358.555C198.618 358.161 198.258 357.664 198.017 357.066C197.822 356.598 197.725 356.067 197.725 355.473C197.725 355.315 197.732 355.153 197.746 354.986C197.773 354.666 197.811 354.339 197.857 354.005C197.908 353.671 197.975 353.321 198.059 352.955C198.147 352.584 198.258 352.192 198.393 351.779C198.527 351.366 198.694 350.921 198.893 350.443L200.326 351.104C200.136 351.577 199.979 352.016 199.853 352.419C199.728 352.818 199.629 353.189 199.554 353.532C199.485 353.875 199.436 354.198 199.408 354.499C199.38 354.801 199.366 355.09 199.366 355.369C199.366 355.703 199.408 356.002 199.492 356.266C199.58 356.53 199.691 356.767 199.826 356.976C200.006 357.221 200.234 357.409 200.507 357.539C200.781 357.674 201.069 357.771 201.37 357.831C201.676 357.892 201.975 357.926 202.267 357.936C202.564 357.95 202.822 357.957 203.04 357.957C203.169 357.957 203.357 357.947 203.603 357.929C203.853 357.91 204.125 357.878 204.417 357.831C204.714 357.785 205.018 357.725 205.328 357.65C205.639 357.576 205.92 357.483 206.17 357.372C206.425 357.261 206.631 357.131 206.789 356.983C206.951 356.834 207.033 356.66 207.033 356.461C207.033 356.428 206.991 356.377 206.907 356.308C206.829 356.243 206.717 356.169 206.573 356.085C206.434 356.002 206.27 355.914 206.08 355.821C205.889 355.733 205.685 355.647 205.467 355.563C205.147 355.457 204.83 355.378 204.514 355.327C204.199 355.276 203.886 355.223 203.575 355.167L203.812 353.428H209.335V355.209H208.034C208.22 355.436 208.343 355.659 208.403 355.877C208.468 356.099 208.503 356.294 208.507 356.461C208.489 356.869 208.384 357.233 208.194 357.553C208.004 357.878 207.758 358.161 207.457 358.402C207.16 358.648 206.822 358.854 206.441 359.021C206.061 359.192 205.671 359.332 205.273 359.438C204.874 359.545 204.48 359.621 204.09 359.668C203.705 359.719 203.355 359.744 203.04 359.744ZM209.342 353.428C209.597 353.428 209.825 353.372 210.024 353.261C210.228 353.15 210.407 353.001 210.56 352.816C210.717 352.63 210.854 352.419 210.97 352.183C211.091 351.946 211.195 351.703 211.283 351.452C211.371 351.202 211.448 350.956 211.513 350.715C211.578 350.469 211.636 350.249 211.687 350.054L213.426 350.437C213.384 350.566 213.328 350.733 213.259 350.937C213.189 351.137 213.122 351.35 213.057 351.577C212.997 351.8 212.946 352.025 212.904 352.252C212.872 352.424 212.855 352.584 212.855 352.732C212.855 352.779 212.86 352.86 212.869 352.976C212.878 353.092 212.925 353.208 213.008 353.323C213.096 353.435 213.238 353.49 213.433 353.49C213.641 353.49 213.829 353.432 213.996 353.317C214.163 353.196 214.312 353.041 214.441 352.85C214.576 352.656 214.692 352.435 214.789 352.19C214.891 351.944 214.977 351.693 215.047 351.438C215.121 351.179 215.181 350.926 215.227 350.68C215.278 350.434 215.318 350.214 215.346 350.019L216.974 350.332C216.96 350.443 216.939 350.576 216.911 350.729C216.888 350.882 216.862 351.049 216.834 351.23C216.807 351.406 216.779 351.591 216.751 351.786C216.728 351.981 216.709 352.176 216.695 352.37C216.695 352.408 216.695 352.445 216.695 352.482C216.695 352.593 216.707 352.709 216.73 352.83C216.753 352.946 216.802 353.057 216.876 353.163C216.95 353.266 217.048 353.349 217.168 353.414C217.289 353.474 217.437 353.507 217.614 353.511C217.943 353.511 218.212 353.428 218.421 353.261C218.629 353.094 218.734 352.839 218.734 352.496C218.734 352.245 218.699 351.974 218.629 351.682C218.564 351.39 218.483 351.104 218.386 350.826C218.293 350.548 218.193 350.286 218.087 350.04C217.98 349.794 217.887 349.59 217.808 349.428L219.304 348.593C219.332 348.644 219.376 348.737 219.436 348.871C219.501 349.006 219.573 349.173 219.652 349.372C219.735 349.567 219.819 349.787 219.902 350.033C219.986 350.279 220.062 350.539 220.132 350.812C220.206 351.081 220.264 351.357 220.306 351.64C220.352 351.923 220.375 352.201 220.375 352.475C220.375 352.906 220.308 353.296 220.174 353.643C220.044 353.991 219.849 354.288 219.589 354.534C219.334 354.78 219.019 354.968 218.643 355.097C218.281 355.227 217.866 355.292 217.398 355.292C217.384 355.292 217.368 355.292 217.349 355.292C217.331 355.292 217.314 355.292 217.301 355.292C217.083 355.292 216.883 355.262 216.702 355.202C216.521 355.146 216.354 355.067 216.201 354.965C216.053 354.859 215.918 354.738 215.798 354.603C215.682 354.469 215.578 354.332 215.485 354.193C215.378 354.346 215.262 354.49 215.137 354.624C215.012 354.754 214.866 354.868 214.699 354.965C214.536 355.063 214.351 355.139 214.142 355.195C213.938 355.255 213.702 355.288 213.433 355.292C213.419 355.292 213.403 355.292 213.384 355.292C213.175 355.292 212.981 355.264 212.8 355.209C212.623 355.153 212.459 355.077 212.306 354.979C212.157 354.877 212.021 354.759 211.895 354.624C211.775 354.49 211.663 354.348 211.561 354.2C211.473 354.33 211.367 354.455 211.241 354.576C211.121 354.696 210.97 354.805 210.789 354.903C210.613 354.995 210.404 355.07 210.163 355.125C209.922 355.181 209.639 355.209 209.314 355.209H209.064V353.428H209.342ZM224.602 350.583C224.695 350.875 224.79 351.181 224.887 351.501C224.989 351.816 225.08 352.136 225.159 352.461C225.242 352.786 225.309 353.11 225.36 353.435C225.411 353.755 225.437 354.068 225.437 354.374C225.437 354.791 225.372 355.197 225.242 355.591C225.117 355.99 224.941 356.373 224.714 356.739C224.491 357.11 224.224 357.463 223.914 357.797C223.607 358.13 223.274 358.446 222.912 358.743C222.55 359.039 222.167 359.315 221.764 359.57C221.36 359.826 220.952 360.055 220.54 360.259L219.747 358.666C220.076 358.504 220.4 358.323 220.72 358.123C221.04 357.929 221.344 357.72 221.632 357.497C221.924 357.275 222.193 357.041 222.439 356.795C222.689 356.549 222.902 356.294 223.079 356.03C223.26 355.765 223.401 355.494 223.503 355.216C223.605 354.937 223.656 354.657 223.656 354.374C223.656 354.11 223.626 353.831 223.566 353.539C223.505 353.247 223.431 352.959 223.343 352.677C223.26 352.389 223.171 352.113 223.079 351.849C222.991 351.584 222.916 351.35 222.856 351.146L224.602 350.583ZM230.355 355.209H230.077C229.135 355.209 228.421 354.972 227.934 354.499C227.447 354.026 227.201 353.312 227.197 352.357C227.197 352.208 227.201 351.965 227.211 351.626C227.22 351.283 227.225 350.866 227.225 350.374C227.225 350.082 227.222 349.769 227.218 349.435C227.213 349.096 227.206 348.753 227.197 348.405C227.187 348.053 227.174 347.703 227.155 347.355C227.141 347.002 227.123 346.664 227.099 346.339C227.076 346.01 227.048 345.704 227.016 345.421C226.983 345.133 226.946 344.881 226.905 344.663L228.651 344.141C228.702 344.41 228.748 344.739 228.79 345.129C228.832 345.514 228.869 345.926 228.901 346.367C228.934 346.808 228.957 347.257 228.971 347.717C228.989 348.171 228.998 348.6 228.998 349.003C228.998 349.249 229.001 349.511 229.005 349.79C229.01 350.063 229.012 350.304 229.012 350.513C229.012 350.689 229.01 350.856 229.005 351.014C229.005 351.167 229.003 351.315 228.998 351.459C228.998 351.603 228.996 351.744 228.992 351.883C228.992 352.023 228.992 352.164 228.992 352.308C228.992 352.345 228.992 352.382 228.992 352.419C228.992 352.586 229.008 352.734 229.04 352.864C229.077 352.994 229.14 353.103 229.228 353.191C229.316 353.275 229.427 353.335 229.562 353.372C229.701 353.409 229.861 353.428 230.042 353.428H230.355V355.209ZM230.247 353.428C230.734 353.428 231.202 353.414 231.652 353.386C232.102 353.354 232.512 353.31 232.883 353.254C233.254 353.198 233.574 353.131 233.843 353.052C234.112 352.973 234.314 352.885 234.448 352.788H233.739C233.331 352.788 232.941 352.737 232.57 352.635C232.204 352.528 231.881 352.37 231.603 352.162C231.325 351.953 231.102 351.693 230.935 351.383C230.773 351.067 230.692 350.701 230.692 350.283C230.692 350.038 230.717 349.785 230.768 349.525C230.819 349.266 230.896 349.013 230.998 348.767C231.1 348.521 231.223 348.289 231.367 348.071C231.51 347.853 231.675 347.663 231.86 347.501C232.046 347.334 232.25 347.204 232.473 347.111C232.695 347.014 232.936 346.965 233.196 346.965C233.516 346.965 233.815 347.032 234.094 347.167C234.372 347.301 234.625 347.485 234.852 347.717C235.079 347.944 235.281 348.208 235.457 348.51C235.633 348.811 235.782 349.129 235.902 349.463C236.023 349.797 236.113 350.137 236.174 350.485C236.238 350.828 236.271 351.155 236.271 351.466C236.271 351.995 236.197 352.454 236.048 352.843C235.905 353.233 235.7 353.567 235.436 353.845C235.176 354.123 234.863 354.351 234.497 354.527C234.135 354.703 233.734 354.842 233.294 354.944C232.853 355.046 232.38 355.116 231.874 355.153C231.374 355.19 230.854 355.209 230.316 355.209H230.08V353.428H230.247ZM233.196 348.76C233.173 348.755 233.15 348.753 233.127 348.753C233.034 348.753 232.927 348.79 232.807 348.864C232.686 348.939 232.57 349.045 232.459 349.184C232.347 349.323 232.257 349.481 232.187 349.657C232.118 349.829 232.083 349.998 232.083 350.165C232.083 350.174 232.083 350.184 232.083 350.193C232.083 350.36 232.12 350.497 232.194 350.603C232.269 350.706 232.368 350.784 232.494 350.84C232.623 350.896 232.772 350.935 232.939 350.958C233.11 350.981 233.291 350.998 233.481 351.007C233.607 351.012 233.736 351.014 233.871 351.014C233.936 351.014 234.036 351.014 234.17 351.014C234.309 351.009 234.451 351.002 234.594 350.993C234.553 350.826 234.492 350.62 234.414 350.374C234.339 350.123 234.244 349.882 234.128 349.65C234.017 349.414 233.883 349.21 233.725 349.038C233.572 348.867 233.396 348.774 233.196 348.76ZM234.476 344.704L233.14 346.04L231.812 344.704L233.14 343.376L234.476 344.704Z" fill="black"/>
</svg>
