<svg width="400" height="400" viewBox="0 0 400 400" fill="none" xmlns="http://www.w3.org/2000/svg">
<rect width="400" height="400" fill="white"/>
<path d="M174.024 53.7443C173.226 53.7443 172.489 53.6446 171.812 53.4452C171.135 53.2504 170.557 52.9536 170.08 52.5548C169.602 52.1606 169.242 51.6643 169.001 51.0661C168.807 50.5977 168.709 50.0667 168.709 49.473C168.709 49.3154 168.716 49.153 168.73 48.9861C168.758 48.6661 168.795 48.3391 168.841 48.0052C168.892 47.6713 168.96 47.3212 169.043 46.9548C169.131 46.5838 169.242 46.1919 169.377 45.7791C169.511 45.3664 169.678 44.9212 169.878 44.4435L171.311 45.1043C171.121 45.5774 170.963 46.0157 170.838 46.4191C170.713 46.818 170.613 47.189 170.539 47.5322C170.469 47.8754 170.42 48.1977 170.393 48.4991C170.365 48.8006 170.351 49.0904 170.351 49.3687C170.351 49.7026 170.393 50.0017 170.476 50.2661C170.564 50.5304 170.676 50.767 170.81 50.9757C170.991 51.2214 171.218 51.4093 171.492 51.5391C171.765 51.6736 172.053 51.771 172.354 51.8313C172.66 51.8916 172.96 51.9264 173.252 51.9357C173.549 51.9496 173.806 51.9565 174.024 51.9565C174.154 51.9565 174.342 51.9472 174.587 51.9287C174.838 51.9101 175.109 51.8777 175.401 51.8313C175.698 51.7849 176.002 51.7246 176.313 51.6504C176.623 51.5762 176.904 51.4835 177.154 51.3722C177.409 51.2609 177.616 51.131 177.773 50.9826C177.936 50.8342 178.017 50.6603 178.017 50.4609C178.017 50.4284 177.975 50.3774 177.892 50.3078C177.813 50.2429 177.702 50.1687 177.558 50.0852C177.419 50.0017 177.254 49.9136 177.064 49.8209C176.874 49.7328 176.67 49.647 176.452 49.5635C176.132 49.4568 175.814 49.378 175.499 49.327C175.183 49.2759 174.87 49.2226 174.56 49.167L174.796 47.4278H180.32V49.2087H179.019C179.204 49.4359 179.327 49.6586 179.387 49.8765C179.452 50.0991 179.487 50.2939 179.492 50.4609C179.473 50.869 179.369 51.233 179.179 51.553C178.989 51.8777 178.743 52.1606 178.441 52.4017C178.144 52.6475 177.806 52.8539 177.426 53.0209C177.045 53.1925 176.656 53.3316 176.257 53.4383C175.858 53.5449 175.464 53.6214 175.074 53.6678C174.689 53.7188 174.339 53.7443 174.024 53.7443ZM180.048 47.4278H180.556C180.723 47.4278 180.879 47.4139 181.022 47.3861C181.166 47.3583 181.294 47.3003 181.405 47.2122C181.516 47.1194 181.607 46.9919 181.676 46.8296C181.746 46.6672 181.79 46.4493 181.808 46.1757C181.808 46.069 181.811 45.8835 181.815 45.6191C181.825 45.3501 181.832 45.0325 181.836 44.6661C181.841 44.2951 181.845 43.8893 181.85 43.4487C181.855 43.0081 181.857 42.5583 181.857 42.0991C181.857 41.742 181.855 41.3919 181.85 41.0487C181.85 40.7009 181.845 40.367 181.836 40.047C181.832 39.727 181.82 39.4255 181.801 39.1426C181.788 38.8597 181.767 38.6023 181.739 38.3704L183.513 38.1409C183.545 38.3913 183.571 38.6742 183.589 38.9896C183.608 39.3049 183.622 39.6412 183.631 39.9983C183.645 40.3507 183.652 40.7217 183.652 41.1113C183.656 41.4962 183.659 41.8858 183.659 42.28C183.659 43.1565 183.65 43.9194 183.631 44.5687C183.617 45.218 183.61 45.793 183.61 46.2939C183.61 46.6464 183.701 46.9246 183.881 47.1287C184.062 47.3281 184.331 47.4278 184.688 47.4278H184.841V49.2087H184.688C184.661 49.2087 184.635 49.2087 184.612 49.2087C184.431 49.2087 184.252 49.1925 184.076 49.16C183.905 49.1322 183.738 49.0881 183.575 49.0278C183.418 48.9722 183.272 48.9049 183.137 48.8261C183.003 48.7472 182.884 48.6661 182.782 48.5826C182.648 48.7125 182.499 48.8191 182.337 48.9026C182.179 48.9814 182.017 49.0441 181.85 49.0904C181.683 49.1368 181.519 49.167 181.356 49.1809C181.194 49.1994 181.048 49.2087 180.918 49.2087H180.048V47.4278ZM184.564 47.4278H186.074C186.649 47.4278 187.233 47.3745 187.827 47.2678C188.425 47.1565 189.018 47.0128 189.607 46.8365C190.196 46.6557 190.772 46.4493 191.333 46.2174C191.894 45.9855 192.425 45.7467 192.926 45.5009C192.527 45.4128 192.156 45.2968 191.813 45.153C191.47 45.0046 191.145 44.8609 190.839 44.7217C190.533 44.5826 190.238 44.462 189.955 44.36C189.672 44.258 189.392 44.207 189.114 44.207C188.951 44.207 188.798 44.2371 188.654 44.2974C188.515 44.353 188.385 44.4249 188.265 44.513C188.144 44.6012 188.035 44.6986 187.938 44.8052C187.845 44.9119 187.762 45.0162 187.687 45.1183C187.618 45.2157 187.56 45.3038 187.514 45.3826C187.467 45.4614 187.435 45.5171 187.416 45.5496L185.969 44.6104C186.127 44.3322 186.315 44.0632 186.533 43.8035C186.751 43.5391 186.992 43.3049 187.256 43.1009C187.525 42.8922 187.815 42.7275 188.126 42.607C188.436 42.4817 188.766 42.4191 189.114 42.4191C189.471 42.4191 189.825 42.4678 190.178 42.5652C190.53 42.658 190.878 42.7786 191.221 42.927C191.569 43.0707 191.917 43.2261 192.265 43.393C192.613 43.56 192.963 43.7177 193.315 43.8661C193.672 44.0099 194.032 44.1328 194.394 44.2348C194.755 44.3322 195.126 44.3832 195.507 44.3878L195.361 46.1826C194.711 46.4933 194.034 46.8226 193.329 47.1704C192.624 47.5183 191.887 47.8406 191.117 48.1374C190.347 48.4296 189.543 48.6777 188.703 48.8817C187.868 49.0812 186.992 49.1901 186.074 49.2087H184.564V47.4278ZM199.618 44.5826C199.711 44.8748 199.806 45.1809 199.903 45.5009C200.005 45.8162 200.096 46.1362 200.174 46.4609C200.258 46.7855 200.325 47.1101 200.376 47.4348C200.427 47.7548 200.453 48.0678 200.453 48.3739C200.453 48.7913 200.388 49.1971 200.258 49.5913C200.133 49.9901 199.956 50.3728 199.729 50.7391C199.507 51.1101 199.24 51.4626 198.929 51.7965C198.623 52.1304 198.289 52.4458 197.927 52.7426C197.566 53.0394 197.183 53.3154 196.78 53.5704C196.376 53.8255 195.968 54.0551 195.555 54.2591L194.762 52.6661C195.091 52.5038 195.416 52.3229 195.736 52.1235C196.056 51.9287 196.36 51.72 196.647 51.4974C196.94 51.2748 197.209 51.0406 197.454 50.7948C197.705 50.549 197.918 50.2939 198.094 50.0296C198.275 49.7652 198.417 49.4939 198.519 49.2157C198.621 48.9374 198.672 48.6568 198.672 48.3739C198.672 48.1096 198.642 47.8313 198.581 47.5391C198.521 47.247 198.447 46.9594 198.359 46.6765C198.275 46.389 198.187 46.113 198.094 45.8487C198.006 45.5843 197.932 45.3501 197.872 45.1461L199.618 44.5826ZM210.423 52.8748C210.692 52.9212 210.963 52.9443 211.237 52.9443C211.307 52.9443 211.443 52.9397 211.647 52.9304C211.851 52.9212 212.114 52.8794 212.434 52.8052C212.754 52.731 213.06 52.6313 213.352 52.5061C213.649 52.3809 213.92 52.2371 214.166 52.0748L215.105 53.633C214.836 53.7954 214.558 53.9438 214.27 54.0783C213.987 54.2174 213.693 54.3357 213.387 54.433C213.085 54.5304 212.772 54.6046 212.447 54.6557C212.165 54.702 211.875 54.7252 211.578 54.7252C211.531 54.7252 211.483 54.7252 211.432 54.7252C210.996 54.7159 210.56 54.6696 210.124 54.5861C209.693 54.5026 209.28 54.382 208.886 54.2243C208.496 54.0667 208.132 53.8696 207.794 53.633C207.46 53.4012 207.167 53.1299 206.917 52.8191C206.671 52.513 206.476 52.1675 206.333 51.7826C206.189 51.4023 206.115 50.9803 206.11 50.5165C206.124 50.0203 206.217 49.5565 206.388 49.1252C206.56 48.6986 206.787 48.309 207.07 47.9565C207.358 47.5994 207.687 47.2817 208.058 47.0035C208.434 46.7252 208.83 46.4864 209.247 46.287C209.099 46.1478 208.946 46.011 208.788 45.8765C208.635 45.7374 208.487 45.6075 208.343 45.487C208.199 45.3617 208.065 45.2481 207.94 45.1461C207.814 45.0394 207.71 44.949 207.627 44.8748L207.494 43.3861C208.102 42.8574 208.756 42.4609 209.456 42.1965C210.161 41.9275 210.896 41.793 211.661 41.793C211.889 41.793 212.123 41.8093 212.364 41.8417C212.61 41.8742 212.849 41.9252 213.08 41.9948C213.312 42.0643 213.53 42.1548 213.734 42.2661C213.938 42.3774 214.117 42.5142 214.27 42.6765C214.423 42.8342 214.544 43.0174 214.632 43.2261C214.711 43.4301 214.75 43.6574 214.75 43.9078C214.75 43.9217 214.75 43.9357 214.75 43.9496C214.731 44.302 214.662 44.6174 214.541 44.8957C214.425 45.1739 214.272 45.4243 214.082 45.647C213.892 45.8696 213.672 46.069 213.421 46.2452C213.176 46.4214 212.914 46.5838 212.635 46.7322C213.011 46.9409 213.41 47.1101 213.832 47.24C214.258 47.3652 214.674 47.4278 215.077 47.4278H215.314V49.2087H215.077C214.692 49.2087 214.319 49.1693 213.957 49.0904C213.595 49.0116 213.238 48.9003 212.886 48.7565C212.533 48.6081 212.183 48.4342 211.835 48.2348C211.487 48.0307 211.137 47.8058 210.785 47.56C210.446 47.6945 210.103 47.8522 209.755 48.033C209.407 48.2093 209.09 48.418 208.802 48.6591C208.519 48.8957 208.287 49.1646 208.107 49.4661C207.926 49.7675 207.835 50.1084 207.835 50.4887C207.835 50.702 207.877 50.9061 207.96 51.1009C208.049 51.2957 208.162 51.4765 208.301 51.6435C208.44 51.8151 208.6 51.9704 208.781 52.1096C208.962 52.2533 209.148 52.3762 209.338 52.4783C209.533 52.5849 209.723 52.6707 209.908 52.7357C210.098 52.8052 210.27 52.8516 210.423 52.8748ZM211.668 43.4904C211.483 43.4904 211.288 43.5043 211.084 43.5322C210.88 43.5554 210.678 43.5901 210.479 43.6365C210.279 43.6783 210.087 43.7316 209.901 43.7965C209.72 43.8568 209.56 43.9241 209.421 43.9983C209.519 44.1003 209.628 44.2186 209.748 44.353C209.869 44.4829 209.996 44.6197 210.131 44.7635C210.27 44.9072 210.411 45.051 210.555 45.1948C210.699 45.3339 210.84 45.4638 210.98 45.5843C211.286 45.4545 211.571 45.3223 211.835 45.1878C212.1 45.0533 212.329 44.9165 212.524 44.7774C212.723 44.6336 212.881 44.4852 212.997 44.3322C213.113 44.1791 213.173 44.0214 213.178 43.8591C213.173 43.8406 213.143 43.8128 213.087 43.7757C213.032 43.7386 212.941 43.7014 212.816 43.6643C212.696 43.6226 212.54 43.5855 212.35 43.553C212.165 43.5206 211.937 43.4997 211.668 43.4904ZM215.033 47.4278H216.09L216.139 47.3374C216.218 47.1983 216.329 47.0151 216.473 46.7878C216.621 46.5559 216.807 46.2939 217.029 46.0017C217.071 45.7096 217.106 45.3409 217.134 44.8957C217.161 44.4504 217.178 43.9681 217.182 43.4487C217.182 43.1658 217.178 42.8759 217.168 42.5791C217.159 42.2777 217.141 41.9322 217.113 41.5426C217.085 41.153 217.045 40.6986 216.994 40.1791C216.948 39.6551 216.888 39.0313 216.814 38.3078L218.643 37.8348C218.764 38.7252 218.854 39.6388 218.914 40.5757C218.979 41.5125 219.012 42.44 219.012 43.3583V43.9217C219.262 43.7084 219.522 43.5043 219.791 43.3096C220.065 43.1148 220.348 42.9432 220.64 42.7948C220.937 42.6464 221.245 42.5281 221.565 42.44C221.885 42.3519 222.219 42.3078 222.567 42.3078C222.919 42.3078 223.253 42.3635 223.568 42.4748C223.884 42.5861 224.162 42.7484 224.403 42.9617C224.649 43.1704 224.851 43.4255 225.008 43.727C225.166 44.0284 225.263 44.367 225.301 44.7426C225.305 44.8122 225.308 44.8794 225.308 44.9443C225.308 45.4267 225.226 45.8765 225.064 46.2939C224.906 46.7113 224.672 47.0893 224.361 47.4278H226.323V49.2087H224.473C224.106 49.2087 223.698 49.1925 223.248 49.16C222.799 49.1275 222.3 49.0417 221.753 48.9026C221.359 49.0093 220.957 49.0858 220.549 49.1322C220.146 49.1832 219.74 49.2087 219.332 49.2087H215.033V47.4278ZM218.685 47.4278C218.968 47.4278 219.292 47.4209 219.659 47.407C220.03 47.393 220.41 47.3606 220.8 47.3096C221.189 47.2586 221.567 47.182 221.934 47.08C222.305 46.978 222.634 46.8412 222.921 46.6696C223.209 46.498 223.436 46.2823 223.603 46.0226C223.747 45.8 223.819 45.5357 223.819 45.2296C223.819 45.1878 223.817 45.1438 223.812 45.0974C223.803 44.9583 223.756 44.8284 223.673 44.7078C223.594 44.5872 223.483 44.4852 223.339 44.4017C223.2 44.3136 223.033 44.2441 222.838 44.193C222.671 44.1559 222.49 44.1374 222.295 44.1374C222.258 44.1374 222.219 44.1374 222.177 44.1374C221.945 44.1467 221.669 44.207 221.349 44.3183C221.029 44.4249 220.686 44.6058 220.32 44.8609C219.953 45.1159 219.573 45.4522 219.179 45.8696C218.785 46.287 218.4 46.8064 218.024 47.4278H218.685ZM226.215 47.4278C226.702 47.4278 227.171 47.4139 227.621 47.3861C228.07 47.3536 228.481 47.3096 228.852 47.2539C229.223 47.1983 229.543 47.131 229.812 47.0522C230.081 46.9733 230.283 46.8852 230.417 46.7878H229.707C229.299 46.7878 228.91 46.7368 228.539 46.6348C228.172 46.5281 227.85 46.3704 227.572 46.1617C227.294 45.953 227.071 45.6933 226.904 45.3826C226.742 45.0672 226.661 44.7009 226.661 44.2835C226.661 44.0377 226.686 43.7849 226.737 43.5252C226.788 43.2655 226.865 43.0128 226.967 42.767C227.069 42.5212 227.192 42.2893 227.335 42.0713C227.479 41.8533 227.644 41.6632 227.829 41.5009C228.015 41.3339 228.219 41.2041 228.441 41.1113C228.664 41.0139 228.905 40.9652 229.165 40.9652C229.485 40.9652 229.784 41.0325 230.062 41.167C230.341 41.3014 230.593 41.4846 230.821 41.7165C231.048 41.9438 231.25 42.2081 231.426 42.5096C231.602 42.811 231.75 43.1287 231.871 43.4626C231.992 43.7965 232.082 44.1374 232.142 44.4852C232.207 44.8284 232.24 45.1554 232.24 45.4661C232.24 45.9948 232.165 46.4539 232.017 46.8435C231.873 47.233 231.669 47.567 231.405 47.8452C231.145 48.1235 230.832 48.3507 230.466 48.527C230.104 48.7032 229.703 48.8423 229.262 48.9443C228.822 49.0464 228.349 49.1159 227.843 49.153C227.342 49.1901 226.823 49.2087 226.285 49.2087H226.048V47.4278H226.215ZM229.165 42.76C229.142 42.7554 229.119 42.753 229.095 42.753C229.003 42.753 228.896 42.7901 228.775 42.8643C228.655 42.9386 228.539 43.0452 228.428 43.1843C228.316 43.3235 228.226 43.4812 228.156 43.6574C228.087 43.829 228.052 43.9983 228.052 44.1652C228.052 44.1745 228.052 44.1838 228.052 44.193C228.052 44.36 228.089 44.4968 228.163 44.6035C228.237 44.7055 228.337 44.7843 228.462 44.84C228.592 44.8957 228.741 44.9351 228.908 44.9583C229.079 44.9814 229.26 44.9977 229.45 45.007C229.575 45.0116 229.705 45.0139 229.84 45.0139C229.905 45.0139 230.004 45.0139 230.139 45.0139C230.278 45.0093 230.419 45.0023 230.563 44.993C230.521 44.8261 230.461 44.6197 230.382 44.3739C230.308 44.1235 230.213 43.8823 230.097 43.6504C229.986 43.4139 229.851 43.2099 229.694 43.0383C229.541 42.8667 229.364 42.7739 229.165 42.76ZM228.998 38.8713L227.815 40.0539L226.619 38.8643L227.801 37.6748L228.998 38.8713ZM231.628 38.8783L230.445 40.0678L229.248 38.8713L230.431 37.6887L231.628 38.8783Z" fill="black"/>
<path d="M364.162 219.172L176.072 103.544L44.0781 191.54L231.943 317.718L364.162 229.572L364.162 219.172Z" fill="#E7E7E7" stroke="black"/>
<path d="M43.8371 180.697L43.8346 191.376L231.417 317.364L232.151 306.869L44.1934 180.519L43.8371 180.697Z" fill="#A3A3A3" stroke="black"/>
<rect x="-0.000955552" y="0.556128" width="158.615" height="226.305" transform="matrix(-0.83205 0.5547 0.830139 0.557556 175.591 92.2466)" fill="#E7E7E7" stroke="black"/>
<path d="M231.943 306.718L240.15 301.247L52.2852 175.069L44.078 180.54L231.943 306.718Z" fill="#A3A3A3" stroke="black"/>
<path d="M278.165 129.521C278.165 129.535 278.174 129.61 278.191 129.747C278.208 129.877 278.226 130.048 278.243 130.262C278.26 130.468 278.275 130.7 278.286 130.958C278.292 131.136 278.295 131.316 278.295 131.496V131.768C278.272 133.359 277.957 134.38 277.349 134.831V134.82C276.758 135.282 275.957 135.176 274.944 134.5C274.666 134.315 274.414 134.127 274.188 133.934C273.968 133.739 273.748 133.516 273.529 133.265L273.598 133.885C273.667 134.585 273.722 135.297 273.763 136.019C273.809 136.739 273.844 137.454 273.867 138.165C273.896 138.873 273.913 139.567 273.919 140.245C273.931 140.921 273.937 141.561 273.937 142.166L272.209 141.015C272.209 139.909 272.2 138.804 272.183 137.7C272.165 136.589 272.119 135.494 272.044 134.414C271.969 133.327 271.856 132.264 271.705 131.225C271.561 130.182 271.358 129.178 271.098 128.211C270.976 127.754 270.846 127.309 270.707 126.876C270.568 126.442 270.412 125.987 270.238 125.509L271.688 125.37C271.781 125.613 271.864 125.853 271.94 126.091C272.021 126.326 272.099 126.569 272.174 126.821C272.255 127.07 272.336 127.333 272.417 127.609C272.498 127.886 272.588 128.186 272.686 128.509C272.819 128.966 272.95 129.387 273.077 129.771C273.21 130.152 273.361 130.506 273.529 130.834C273.702 131.165 273.899 131.463 274.119 131.728C274.345 131.99 274.62 132.229 274.944 132.445C275.424 132.765 275.786 132.829 276.029 132.636C276.139 132.556 276.229 132.439 276.298 132.283C276.368 132.121 276.423 131.939 276.463 131.736C276.509 131.537 276.541 131.322 276.559 131.09C276.576 130.858 276.585 130.627 276.585 130.398C276.585 130.099 276.57 129.8 276.541 129.503C276.518 129.209 276.492 128.962 276.463 128.762L278.165 129.521ZM280.991 141.005C280.991 140.518 281.066 140.113 281.217 139.789C281.373 139.462 281.584 139.227 281.851 139.084C282.117 138.935 282.427 138.884 282.78 138.931C283.139 138.983 283.523 139.146 283.934 139.419C284.34 139.69 284.719 140.036 285.072 140.459C285.431 140.887 285.743 141.352 286.01 141.857C286.282 142.358 286.496 142.877 286.652 143.412C286.808 143.941 286.886 144.448 286.886 144.935C286.886 145.429 286.808 145.84 286.652 146.167C286.496 146.487 286.282 146.716 286.01 146.855C285.743 146.998 285.431 147.043 285.072 146.992C284.719 146.937 284.34 146.775 283.934 146.505C283.523 146.231 283.139 145.884 282.78 145.464C282.427 145.04 282.117 144.58 281.851 144.082C281.584 143.585 281.373 143.072 281.217 142.543C281.066 142.012 280.991 141.499 280.991 141.005ZM282.406 141.949C282.406 142.199 282.447 142.463 282.528 142.739C282.609 143.016 282.719 143.284 282.858 143.543C282.997 143.803 283.159 144.043 283.344 144.264C283.529 144.485 283.726 144.665 283.934 144.804C284.143 144.943 284.34 145.025 284.525 145.051C284.716 145.081 284.881 145.059 285.02 144.985C285.159 144.91 285.269 144.789 285.35 144.62C285.431 144.452 285.471 144.242 285.471 143.992C285.471 143.741 285.431 143.478 285.35 143.201C285.269 142.918 285.159 142.646 285.02 142.386C284.881 142.127 284.716 141.885 284.525 141.66C284.34 141.439 284.143 141.259 283.934 141.12C283.726 140.981 283.529 140.899 283.344 140.873C283.159 140.847 282.997 140.871 282.858 140.945C282.719 141.02 282.609 141.145 282.528 141.32C282.447 141.489 282.406 141.698 282.406 141.949Z" fill="black"/>
<path d="M89.6637 136.671C89.6637 135.314 89.6434 133.982 89.6029 132.673C89.5624 131.357 89.4727 130.13 89.3338 128.992C89.1949 127.853 88.9952 126.835 88.7347 125.937C88.48 125.035 88.1356 124.319 87.7015 123.788L89.1428 121.721C89.6174 122.315 90.011 123.107 90.3236 124.095C90.6419 125.072 90.885 126.27 91.0529 127.689C91.1223 128.297 91.1773 128.935 91.2178 129.603C91.2641 130.268 91.2989 130.941 91.322 131.621C91.351 132.29 91.3683 132.957 91.3741 133.621C91.3857 134.281 91.3915 134.914 91.3915 135.519L89.6637 136.671ZM99.3149 122.494C98.7708 122.857 98.2383 123.121 97.7174 123.288C97.2022 123.443 96.7507 123.435 96.3629 123.262C96.4324 123.557 96.4903 123.914 96.5366 124.336C96.5887 124.753 96.6292 125.21 96.6581 125.705C96.6928 126.19 96.7189 126.701 96.7363 127.239C96.7536 127.777 96.7652 128.312 96.771 128.844C96.7826 129.372 96.7884 129.886 96.7884 130.387C96.7884 130.888 96.7884 131.344 96.7884 131.754L95.0606 132.906C95.0606 131.549 95.0403 130.217 94.9998 128.908C94.9593 127.592 94.8696 126.365 94.7307 125.227C94.5917 124.088 94.392 123.07 94.1316 122.172C93.8769 121.271 93.5325 120.554 93.0984 120.023L94.5396 117.966C94.7422 118.228 94.9332 118.518 95.1127 118.836C95.2921 119.155 95.4484 119.493 95.5815 119.849C95.7089 119.347 95.8825 118.848 96.1025 118.354C96.3282 117.856 96.5858 117.385 96.8752 116.941C97.1646 116.491 97.4771 116.081 97.8129 115.711C98.1544 115.337 98.5074 115.018 98.8721 114.754L99.0197 114.656C99.3728 114.421 99.749 114.239 100.148 114.112C100.548 113.985 100.956 113.95 101.373 114.006C101.633 114.034 101.847 114.082 102.015 114.151C102.183 114.22 102.325 114.282 102.441 114.337L101.199 116.605L101.112 116.558C101.048 116.531 100.965 116.5 100.86 116.465C100.762 116.427 100.64 116.396 100.496 116.375C100.357 116.349 100.203 116.343 100.036 116.358C99.8677 116.372 99.694 116.408 99.5146 116.465C99.3815 116.512 99.2368 116.588 99.0805 116.692C99.0226 116.731 98.9213 116.805 98.7766 116.915C98.6377 117.022 98.4525 117.215 98.2209 117.495C97.9952 117.77 97.7984 118.065 97.6305 118.379C97.4685 118.688 97.344 119.004 97.2572 119.327C97.1935 119.571 97.1617 119.808 97.1617 120.037C97.1617 120.114 97.1646 120.188 97.1704 120.261C97.2283 120.542 97.3238 120.747 97.4569 120.874C97.59 120.993 97.7492 121.054 97.9344 121.056C98.1254 121.047 98.3396 120.984 98.5769 120.868C98.7563 120.783 98.9445 120.675 99.1412 120.544L99.3149 120.428C99.5291 120.278 99.749 120.114 99.9747 119.936C100.2 119.751 100.42 119.555 100.635 119.35C100.849 119.144 101.054 118.927 101.251 118.699C101.448 118.47 101.63 118.227 101.798 117.969L102.562 119.15C102.064 119.92 101.543 120.574 100.999 121.11C100.455 121.647 99.8937 122.108 99.3149 122.494ZM104.627 129.826L103.611 129.658C104.219 128.23 104.537 126.964 104.566 125.859V123.898L106.329 122.723V124.423C106.329 125.21 106.166 126.104 105.842 127.106C105.524 128.111 105.119 129.018 104.627 129.826ZM115.762 103.745C115.762 103.759 115.77 103.823 115.788 103.937C115.805 104.043 115.822 104.192 115.84 104.382C115.857 104.565 115.871 104.778 115.883 105.021C115.889 105.191 115.892 105.366 115.892 105.547V105.818C115.869 107.441 115.553 108.882 114.945 110.143V110.133C114.355 111.382 113.553 112.344 112.54 113.02C112.263 113.205 112.011 113.352 111.785 113.461C111.565 113.558 111.345 113.629 111.125 113.671L111.195 114.198C111.264 114.806 111.319 115.444 111.36 116.113C111.406 116.771 111.441 117.44 111.464 118.12C111.493 118.789 111.51 119.459 111.516 120.13C111.527 120.791 111.533 121.423 111.533 122.028L109.805 123.18C109.805 122.074 109.797 120.981 109.779 119.9C109.762 118.813 109.716 117.779 109.641 116.8C109.565 115.813 109.452 114.901 109.302 114.062C109.157 113.212 108.955 112.478 108.694 111.859C108.573 111.564 108.442 111.292 108.303 111.044C108.165 110.796 108.008 110.549 107.835 110.303L109.285 108.23C109.377 108.349 109.461 108.478 109.536 108.615C109.617 108.742 109.696 108.881 109.771 109.033C109.852 109.174 109.933 109.328 110.014 109.497C110.095 109.666 110.185 109.846 110.283 110.038C110.416 110.318 110.546 110.565 110.674 110.779C110.807 110.982 110.957 111.136 111.125 111.24C111.299 111.339 111.496 111.375 111.716 111.347C111.941 111.308 112.216 111.18 112.54 110.964C113.021 110.644 113.383 110.225 113.626 109.708C113.736 109.482 113.825 109.245 113.895 108.997C113.964 108.742 114.019 108.486 114.06 108.229C114.106 107.969 114.138 107.711 114.155 107.456C114.173 107.201 114.181 106.959 114.181 106.729C114.181 106.43 114.167 106.151 114.138 105.892C114.115 105.629 114.089 105.417 114.06 105.255L115.762 103.745Z" fill="black"/>
<path d="M183.815 201.747C185.23 202.844 185.867 204.027 185.726 205.296C185.579 206.561 184.675 207.747 183.014 208.854C181.191 210.07 179.149 210.616 176.889 210.492C174.622 210.364 172.424 209.585 170.293 208.154L169.427 207.572C168.064 206.656 167.103 205.69 166.544 204.671C165.985 203.653 165.874 202.66 166.211 201.694C166.553 200.723 167.315 199.844 168.496 199.057C170.134 197.965 171.893 197.38 173.772 197.302C175.651 197.224 177.46 197.664 179.198 198.623L176.273 200.573C175.285 200.003 174.366 199.727 173.516 199.745C172.666 199.763 171.793 200.071 170.896 200.669C169.923 201.317 169.543 202.038 169.756 202.831C169.963 203.621 170.794 204.512 172.249 205.505L173.314 206.221C174.845 207.248 176.196 207.847 177.37 208.015C178.543 208.176 179.631 207.922 180.632 207.254C181.535 206.653 182.001 206.067 182.031 205.499C182.067 204.926 181.686 204.326 180.89 203.698L183.815 201.747ZM184.467 200.455C183.422 199.753 182.692 198.995 182.277 198.182C181.862 197.361 181.811 196.549 182.125 195.744C182.433 194.936 183.087 194.199 184.089 193.531C185.513 192.582 187.109 192.101 188.878 192.088C190.647 192.068 192.332 192.526 193.932 193.461L194.668 193.932C196.279 195.014 197.122 196.184 197.195 197.442C197.268 198.699 196.543 199.835 195.021 200.85C193.498 201.865 191.798 202.349 189.919 202.304C188.046 202.254 186.272 201.667 184.597 200.542L184.467 200.455ZM187.497 198.713C188.496 199.384 189.449 199.773 190.357 199.879C191.258 199.981 192.059 199.798 192.76 199.332C193.443 198.876 193.715 198.347 193.578 197.743C193.44 197.131 192.796 196.44 191.647 195.668C190.671 195.012 189.721 194.634 188.796 194.531C187.871 194.421 187.061 194.598 186.367 195.061C185.678 195.52 185.414 196.056 185.575 196.667C185.73 197.275 186.371 197.957 187.497 198.713ZM202.074 191.302L196.942 185.229L199.886 183.266L206.851 192.708L204.168 194.497L190.083 189.801L193.027 187.839L202.074 191.302ZM216.689 186.404C215.144 187.435 213.414 187.958 211.5 187.974C209.581 187.986 207.833 187.463 206.256 186.404L205.979 186.218C204.922 185.508 204.181 184.739 203.754 183.91C203.334 183.078 203.274 182.259 203.576 181.455C203.873 180.647 204.501 179.923 205.462 179.282C206.903 178.321 208.494 177.871 210.234 177.932C211.974 177.986 213.676 178.571 215.339 179.688L216.491 180.462L209.771 184.942C210.551 185.342 211.377 185.529 212.25 185.503C213.123 185.478 213.91 185.231 214.611 184.764C215.699 184.039 216.154 183.21 215.976 182.277L218.907 182.387C219.085 183.072 218.98 183.768 218.592 184.475C218.203 185.175 217.569 185.818 216.689 186.404ZM207.731 180.818C207.17 181.192 206.903 181.621 206.931 182.105C206.96 182.589 207.277 183.1 207.883 183.639L211.807 181.022L211.582 180.871C210.947 180.46 210.294 180.25 209.623 180.241C208.958 180.228 208.328 180.421 207.731 180.818ZM220.459 173.075C220.025 173.295 219.664 173.501 219.374 173.694C218.303 174.408 217.964 175.117 218.356 175.822L225.242 180.447L222.429 182.323L211.905 175.254L214.561 173.483L215.895 174.274C215.493 173.244 215.792 172.396 216.793 171.728C217.106 171.52 217.441 171.354 217.8 171.231L220.459 173.075Z" fill="black"/>
<path d="M190.706 85.1575C190.543 84.8539 190.543 84.5373 190.706 84.4504L193.353 83.0334C193.516 82.9465 193.779 83.1221 193.941 83.4257C194.104 83.7292 194.104 84.0458 193.941 84.1328L191.588 85.3923L193.941 89.7896C194.104 90.0932 194.104 90.4098 193.941 90.4967C193.779 90.5837 193.516 90.4081 193.353 90.1045L190.706 85.1575ZM245.083 121.556L191 85.5V84.5L245.083 120.556V121.556Z" fill="black"/>
<path d="M36.7057 170.613C36.5433 170.526 36.5433 170.209 36.7057 169.906L39.3533 164.959C39.5158 164.655 39.7792 164.48 39.9416 164.567C40.1041 164.653 40.1041 164.97 39.9416 165.274L37.5883 169.671L39.9416 170.93C40.1041 171.017 40.1041 171.334 39.9416 171.638C39.7792 171.941 39.5158 172.117 39.3533 172.03L36.7057 170.613ZM83.5947 139.5L36.9999 170.563V169.563L83.5947 138.5V139.5Z" fill="black"/>
<path d="M171.889 80.4503C172.051 80.5373 172.051 80.8539 171.889 81.1574L169.241 86.1045C169.079 86.408 168.815 86.5836 168.653 86.4967C168.491 86.4097 168.491 86.0932 168.653 85.7896L171.006 81.3922L168.653 80.1327C168.491 80.0458 168.491 79.7292 168.653 79.4256C168.815 79.1221 169.079 78.9464 169.241 79.0334L171.889 80.4503ZM171.595 81.5L125 112.563V111.563L171.595 80.5V81.5Z" fill="black"/>
<path d="M365.377 199.954C365.54 200.257 365.54 200.574 365.377 200.661L362.73 202.078C362.567 202.165 362.304 201.989 362.141 201.685C361.979 201.382 361.979 201.065 362.141 200.978L364.495 199.719L362.141 195.321C361.979 195.018 361.979 194.701 362.141 194.614C362.304 194.527 362.567 194.703 362.73 195.007L365.377 199.954ZM365.083 200.611L311 164.556V163.556L365.083 199.611V200.611Z" fill="black"/>
<path d="M158.736 349.01C158.945 348.964 159.158 348.936 159.376 348.927C159.437 348.922 159.497 348.92 159.557 348.92C159.71 348.92 159.877 348.932 160.058 348.955C160.243 348.978 160.438 349.022 160.642 349.087C160.851 349.152 161.05 349.235 161.241 349.337L160.608 351.007C160.366 350.9 160.116 350.828 159.856 350.791C159.745 350.777 159.636 350.77 159.529 350.77C159.376 350.77 159.223 350.784 159.07 350.812C158.912 350.826 158.743 350.872 158.562 350.951C158.381 351.03 158.201 351.132 158.02 351.257C157.843 351.378 157.672 351.519 157.505 351.682C157.343 351.839 157.199 352.009 157.074 352.19C156.948 352.366 156.846 352.549 156.768 352.739C156.693 352.925 156.656 353.106 156.656 353.282C156.656 353.481 156.703 353.639 156.795 353.755C156.893 353.866 157.02 353.959 157.178 354.033C157.34 354.103 157.526 354.161 157.734 354.207C157.943 354.249 158.161 354.3 158.388 354.36C158.667 354.425 158.947 354.499 159.23 354.583C159.513 354.666 159.768 354.782 159.995 354.93C160.223 355.074 160.403 355.264 160.538 355.501C160.654 355.71 160.712 355.967 160.712 356.273C160.712 356.315 160.71 356.359 160.705 356.405C160.677 356.892 160.566 357.321 160.371 357.692C160.176 358.068 159.923 358.392 159.613 358.666C159.302 358.94 158.947 359.167 158.548 359.348C158.15 359.533 157.732 359.682 157.296 359.793C156.86 359.904 156.42 359.983 155.974 360.03C155.529 360.076 155.105 360.099 154.701 360.099C153.885 360.099 153.139 359.99 152.461 359.772C151.789 359.554 151.221 359.23 150.757 358.798C150.293 358.372 149.957 357.838 149.748 357.198C149.609 356.781 149.54 356.319 149.54 355.814C149.54 355.545 149.558 355.267 149.595 354.979C149.632 354.673 149.683 354.362 149.748 354.047C149.813 353.732 149.883 353.428 149.957 353.136C150.031 352.839 150.108 352.558 150.187 352.294C150.266 352.03 150.337 351.798 150.402 351.598C150.467 351.399 150.523 351.237 150.569 351.111C150.616 350.986 150.643 350.914 150.653 350.896L152.183 351.515C152.072 351.863 151.97 352.19 151.877 352.496C151.784 352.797 151.701 353.094 151.627 353.386C151.552 353.678 151.485 353.973 151.425 354.27C151.369 354.562 151.321 354.872 151.279 355.202C151.26 355.355 151.251 355.503 151.251 355.647C151.251 355.976 151.314 356.303 151.439 356.628C151.569 356.957 151.789 357.247 152.1 357.497C152.415 357.752 152.795 357.943 153.241 358.068C153.686 358.193 154.173 358.256 154.701 358.256C155.318 358.256 155.891 358.207 156.42 358.11C156.953 358.017 157.414 357.892 157.804 357.734C158.198 357.576 158.511 357.398 158.743 357.198C158.98 357.003 159.112 356.802 159.14 356.593C159.135 356.551 159.091 356.512 159.008 356.475C158.924 356.438 158.82 356.401 158.694 356.363C158.569 356.331 158.43 356.296 158.277 356.259C158.129 356.227 157.985 356.192 157.846 356.155C157.456 356.057 157.094 355.946 156.761 355.821C156.427 355.7 156.137 355.54 155.891 355.341C155.645 355.141 155.453 354.889 155.314 354.583C155.174 354.277 155.105 353.892 155.105 353.428C155.128 352.918 155.235 352.421 155.425 351.939C155.615 351.457 155.87 351.019 156.19 350.624C156.515 350.226 156.893 349.885 157.324 349.602C157.755 349.319 158.226 349.122 158.736 349.01ZM162.697 352.475C162.874 352.586 163.085 352.7 163.33 352.816C163.581 352.932 163.838 353.036 164.103 353.129C164.372 353.221 164.634 353.298 164.889 353.358C165.148 353.419 165.376 353.449 165.57 353.449C165.649 353.449 165.747 353.446 165.863 353.442C165.979 353.437 166.101 353.428 166.231 353.414C166.361 353.395 166.491 353.37 166.621 353.337C166.751 353.3 166.867 353.252 166.969 353.191C167.075 353.126 167.161 353.048 167.226 352.955C167.291 352.857 167.326 352.739 167.33 352.6C167.33 352.591 167.33 352.584 167.33 352.579C167.33 352.394 167.277 352.185 167.17 351.953C167.068 351.717 166.927 351.471 166.746 351.216C166.565 350.956 166.357 350.696 166.12 350.437C165.883 350.177 165.638 349.929 165.383 349.692C165.128 349.451 164.87 349.231 164.61 349.031C164.355 348.827 164.117 348.656 163.894 348.517L164.93 346.979C165.357 347.271 165.777 347.601 166.19 347.967C166.607 348.333 166.99 348.725 167.337 349.143C167.69 349.555 167.994 349.987 168.249 350.437C168.508 350.886 168.694 351.341 168.805 351.8C168.865 352.064 168.896 352.317 168.896 352.558C168.896 352.79 168.852 353.068 168.763 353.393C168.68 353.718 168.488 354.038 168.186 354.353C167.885 354.664 167.502 354.903 167.038 355.07C166.639 355.213 166.201 355.285 165.723 355.285C165.645 355.285 165.563 355.283 165.48 355.278C165.174 355.278 164.863 355.248 164.548 355.188C164.232 355.132 163.922 355.053 163.616 354.951C163.314 354.849 163.022 354.733 162.739 354.603C162.461 354.469 162.201 354.328 161.96 354.179L162.697 352.475ZM169.797 358.339C170.479 358.205 171.093 358.024 171.64 357.797C172.192 357.574 172.67 357.323 173.073 357.045C173.477 356.767 173.804 356.47 174.054 356.155C174.309 355.839 174.479 355.524 174.562 355.209C174.186 355.209 173.82 355.197 173.463 355.174C173.106 355.151 172.767 355.104 172.447 355.035C172.132 354.97 171.84 354.877 171.571 354.757C171.306 354.631 171.077 354.469 170.882 354.27C170.692 354.066 170.543 353.82 170.437 353.532C170.33 353.245 170.277 352.901 170.277 352.503C170.277 352.248 170.305 351.981 170.36 351.703C170.416 351.424 170.495 351.153 170.597 350.889C170.703 350.62 170.833 350.367 170.986 350.13C171.139 349.889 171.316 349.678 171.515 349.497C171.714 349.312 171.935 349.166 172.176 349.059C172.417 348.952 172.677 348.899 172.955 348.899C173.674 348.899 174.33 349.219 174.924 349.859C175.119 350.077 175.295 350.321 175.452 350.59C175.61 350.859 175.747 351.146 175.863 351.452C175.979 351.758 176.072 352.078 176.141 352.412C176.215 352.741 176.262 353.08 176.28 353.428H176.746V355.209H176.134C175.976 355.895 175.71 356.512 175.334 357.059C174.959 357.611 174.506 358.091 173.978 358.499C173.454 358.907 172.869 359.243 172.225 359.508C171.58 359.772 170.91 359.962 170.214 360.078L169.797 358.339ZM172.955 350.687C172.834 350.687 172.705 350.738 172.565 350.84C172.426 350.942 172.299 351.074 172.183 351.237C172.067 351.394 171.97 351.57 171.891 351.765C171.816 351.96 171.779 352.15 171.779 352.336C171.779 352.53 171.823 352.693 171.912 352.823C172.004 352.952 172.12 353.057 172.259 353.136C172.403 353.214 172.563 353.275 172.739 353.317C172.92 353.354 173.099 353.379 173.275 353.393C173.372 353.402 173.479 353.409 173.595 353.414C173.711 353.414 173.829 353.416 173.95 353.421C174.075 353.426 174.198 353.428 174.319 353.428C174.439 353.428 174.553 353.428 174.659 353.428C174.645 353.256 174.611 353.071 174.555 352.871C174.504 352.667 174.437 352.463 174.353 352.259C174.27 352.055 174.175 351.86 174.068 351.675C173.961 351.485 173.845 351.318 173.72 351.174C173.6 351.026 173.474 350.907 173.345 350.819C173.215 350.731 173.085 350.687 172.955 350.687ZM179.948 352.489C180.101 352.554 180.298 352.635 180.539 352.732C180.78 352.83 181.04 352.927 181.318 353.024C181.596 353.122 181.877 353.21 182.16 353.289C182.447 353.363 182.709 353.409 182.946 353.428C182.9 353.233 182.851 353.031 182.8 352.823C182.753 352.609 182.7 352.403 182.64 352.203C182.58 352.004 182.512 351.816 182.438 351.64C182.364 351.459 182.276 351.301 182.174 351.167C182.076 351.032 181.963 350.926 181.833 350.847C181.703 350.768 181.557 350.729 181.395 350.729C181.209 350.729 181.042 350.789 180.894 350.91C180.75 351.03 180.618 351.181 180.497 351.362C180.381 351.538 180.277 351.728 180.184 351.932C180.096 352.136 180.017 352.322 179.948 352.489ZM182.591 355.188C182.35 355.183 182.067 355.148 181.742 355.083C181.418 355.023 181.086 354.942 180.748 354.84C180.414 354.738 180.091 354.622 179.781 354.492C179.475 354.362 179.215 354.226 179.002 354.082C178.821 354.263 178.644 354.423 178.473 354.562C178.301 354.701 178.123 354.819 177.937 354.917C177.752 355.009 177.55 355.081 177.332 355.132C177.119 355.183 176.875 355.209 176.602 355.209H176.462V353.428H176.602C176.94 353.428 177.223 353.365 177.45 353.24C177.678 353.11 177.872 352.943 178.035 352.739C178.197 352.535 178.338 352.306 178.459 352.05C178.584 351.795 178.712 351.54 178.842 351.285C178.971 351.016 179.12 350.747 179.287 350.478C179.454 350.209 179.642 349.968 179.85 349.755C180.064 349.537 180.302 349.361 180.567 349.226C180.831 349.092 181.128 349.024 181.457 349.024C181.889 349.024 182.25 349.101 182.542 349.254C182.839 349.402 183.085 349.609 183.28 349.873C183.479 350.133 183.637 350.439 183.753 350.791C183.869 351.144 183.966 351.524 184.045 351.932C184.091 352.169 184.135 352.38 184.177 352.565C184.219 352.746 184.265 352.901 184.316 353.031C184.372 353.161 184.43 353.261 184.49 353.33C184.555 353.395 184.632 353.428 184.72 353.428H184.935V355.209H184.671C184.416 355.204 184.189 355.134 183.989 355C183.795 354.861 183.614 354.678 183.447 354.45C183.396 354.497 183.335 354.559 183.266 354.638C183.201 354.717 183.129 354.796 183.05 354.875C182.976 354.949 182.9 355.016 182.821 355.077C182.742 355.137 182.665 355.174 182.591 355.188ZM190.883 351.125C190.716 350.93 190.521 350.754 190.299 350.597C190.113 350.462 189.897 350.341 189.652 350.235C189.406 350.123 189.137 350.068 188.845 350.068C188.608 350.068 188.399 350.105 188.219 350.179C188.038 350.249 187.885 350.346 187.759 350.471C187.634 350.592 187.537 350.733 187.467 350.896C187.398 351.058 187.356 351.232 187.342 351.417C187.337 351.45 187.335 351.482 187.335 351.515C187.335 351.733 187.393 351.946 187.509 352.155C187.625 352.359 187.787 352.542 187.996 352.704C188.205 352.862 188.446 352.983 188.719 353.066C188.942 353.136 189.167 353.17 189.394 353.17C189.445 353.17 189.496 353.168 189.547 353.163C189.816 353.145 190.085 353.117 190.354 353.08C190.628 353.038 190.876 352.999 191.099 352.962L191.843 352.816L192.059 354.548C191.771 354.622 191.449 354.699 191.092 354.777C190.735 354.856 190.324 354.928 189.86 354.993C189.401 355.053 188.879 355.104 188.295 355.146C187.711 355.188 187.048 355.209 186.306 355.209H184.65V353.428H184.956L186.285 353.421C186.034 353.129 185.863 352.83 185.77 352.523C185.682 352.213 185.638 351.872 185.638 351.501C185.638 351.065 185.719 350.652 185.881 350.263C186.044 349.873 186.266 349.532 186.549 349.24C186.837 348.948 187.175 348.716 187.565 348.544C187.959 348.373 188.386 348.287 188.845 348.287C189.072 348.287 189.29 348.308 189.499 348.35C189.712 348.391 189.914 348.447 190.104 348.517C190.294 348.586 190.473 348.665 190.639 348.753C190.811 348.841 190.966 348.929 191.106 349.017C191.268 349.124 191.426 349.238 191.579 349.358C191.732 349.479 191.875 349.606 192.01 349.741L190.883 351.125ZM203.329 359.744C202.531 359.744 201.794 359.645 201.116 359.445C200.439 359.25 199.862 358.954 199.384 358.555C198.907 358.161 198.547 357.664 198.306 357.066C198.111 356.598 198.014 356.067 198.014 355.473C198.014 355.315 198.021 355.153 198.035 354.986C198.063 354.666 198.1 354.339 198.146 354.005C198.197 353.671 198.264 353.321 198.348 352.955C198.436 352.584 198.547 352.192 198.682 351.779C198.816 351.366 198.983 350.921 199.183 350.443L200.616 351.104C200.425 351.577 200.268 352.016 200.143 352.419C200.017 352.818 199.918 353.189 199.843 353.532C199.774 353.875 199.725 354.198 199.697 354.499C199.669 354.801 199.656 355.09 199.656 355.369C199.656 355.703 199.697 356.002 199.781 356.266C199.869 356.53 199.98 356.767 200.115 356.976C200.296 357.221 200.523 357.409 200.796 357.539C201.07 357.674 201.358 357.771 201.659 357.831C201.965 357.892 202.264 357.926 202.556 357.936C202.853 357.95 203.111 357.957 203.329 357.957C203.458 357.957 203.646 357.947 203.892 357.929C204.143 357.91 204.414 357.878 204.706 357.831C205.003 357.785 205.307 357.725 205.617 357.65C205.928 357.576 206.209 357.483 206.459 357.372C206.714 357.261 206.92 357.131 207.078 356.983C207.24 356.834 207.322 356.66 207.322 356.461C207.322 356.428 207.28 356.377 207.196 356.308C207.118 356.243 207.006 356.169 206.863 356.085C206.723 356.002 206.559 355.914 206.369 355.821C206.178 355.733 205.974 355.647 205.756 355.563C205.436 355.457 205.119 355.378 204.803 355.327C204.488 355.276 204.175 355.223 203.864 355.167L204.101 353.428H209.624V355.209H208.323C208.509 355.436 208.632 355.659 208.692 355.877C208.757 356.099 208.792 356.294 208.796 356.461C208.778 356.869 208.674 357.233 208.483 357.553C208.293 357.878 208.047 358.161 207.746 358.402C207.449 358.648 207.111 358.854 206.73 359.021C206.35 359.192 205.96 359.332 205.562 359.438C205.163 359.545 204.769 359.621 204.379 359.668C203.994 359.719 203.644 359.744 203.329 359.744ZM209.645 353.428C209.882 353.428 210.104 353.381 210.313 353.289C210.526 353.191 210.728 353.02 210.918 352.774C211.113 352.523 211.294 352.183 211.461 351.751C211.632 351.32 211.795 350.768 211.948 350.096L213.652 350.576C213.541 350.961 213.441 351.332 213.353 351.689C213.265 352.041 213.216 352.345 213.207 352.6C213.207 352.623 213.207 352.644 213.207 352.663C213.207 352.746 213.214 352.834 213.228 352.927C213.246 353.02 213.277 353.106 213.318 353.184C213.36 353.263 213.416 353.326 213.485 353.372C213.55 353.414 213.622 353.435 213.701 353.435C213.71 353.435 213.719 353.435 213.729 353.435C213.9 353.43 214.063 353.368 214.216 353.247C214.369 353.126 214.51 352.971 214.64 352.781C214.775 352.591 214.895 352.375 215.002 352.134C215.113 351.893 215.21 351.649 215.294 351.403C215.382 351.153 215.456 350.91 215.517 350.673C215.577 350.437 215.623 350.228 215.656 350.047L217.297 350.381C217.237 350.659 217.188 350.917 217.151 351.153C217.114 351.385 217.091 351.619 217.082 351.856C217.077 351.916 217.075 351.976 217.075 352.037C217.075 352.152 217.082 352.289 217.096 352.447C217.114 352.6 217.154 352.751 217.214 352.899C217.274 353.048 217.358 353.17 217.464 353.268C217.576 353.361 217.719 353.407 217.896 353.407C218.095 353.407 218.255 353.33 218.376 353.177C218.501 353.02 218.596 352.82 218.661 352.579C218.726 352.338 218.768 352.071 218.786 351.779C218.809 351.482 218.821 351.195 218.821 350.917C218.821 350.828 218.819 350.759 218.814 350.708C218.814 350.652 218.814 350.601 218.814 350.555C218.814 350.508 218.812 350.457 218.807 350.402C218.807 350.341 218.807 350.26 218.807 350.158L220.567 350.019C220.581 350.172 220.595 350.323 220.609 350.471C220.623 350.615 220.637 350.766 220.65 350.923C220.664 351.077 220.681 351.241 220.699 351.417C220.722 351.589 220.748 351.777 220.776 351.981C220.808 352.222 220.875 352.433 220.977 352.614C221.084 352.795 221.207 352.946 221.346 353.066C221.485 353.187 221.634 353.277 221.791 353.337C221.954 353.398 222.107 353.428 222.25 353.428H222.508V355.209H222.285C222.058 355.209 221.833 355.186 221.61 355.139C221.392 355.093 221.184 355.021 220.984 354.923C220.785 354.826 220.597 354.703 220.421 354.555C220.249 354.402 220.099 354.221 219.969 354.012C219.746 354.374 219.454 354.664 219.092 354.882C218.73 355.1 218.332 355.209 217.896 355.209C217.46 355.209 217.063 355.104 216.706 354.896C216.354 354.687 216.073 354.409 215.864 354.061C215.73 354.232 215.584 354.39 215.426 354.534C215.273 354.673 215.106 354.796 214.925 354.903C214.749 355.005 214.561 355.083 214.362 355.139C214.162 355.199 213.954 355.23 213.736 355.23C213.527 355.23 213.325 355.202 213.13 355.146C212.936 355.095 212.755 355.019 212.588 354.917C212.421 354.814 212.27 354.692 212.136 354.548C212.001 354.399 211.89 354.235 211.802 354.054C211.57 354.462 211.285 354.757 210.946 354.937C210.608 355.118 210.176 355.209 209.652 355.209H209.353V353.428H209.645ZM228.433 353.428V355.209H228.294C227.844 355.209 227.464 355.137 227.153 354.993C226.843 354.849 226.578 354.664 226.36 354.437C226.207 354.631 225.98 354.782 225.678 354.889C225.382 354.991 225.05 355.065 224.684 355.111C224.317 355.162 223.939 355.19 223.55 355.195C223.165 355.204 222.81 355.209 222.485 355.209H222.228V353.428H222.485C223.028 353.428 223.485 353.398 223.856 353.337C224.227 353.272 224.526 353.18 224.753 353.059C224.985 352.939 225.152 352.788 225.254 352.607C225.356 352.421 225.407 352.208 225.407 351.967C225.407 351.809 225.377 351.601 225.317 351.341C225.256 351.077 225.166 350.738 225.045 350.325L226.757 349.845C226.817 350.049 226.863 350.23 226.896 350.388C226.933 350.541 226.961 350.696 226.979 350.854C227.003 351.007 227.021 351.174 227.035 351.355C227.054 351.531 227.072 351.742 227.091 351.988C227.105 352.136 227.139 352.296 227.195 352.468C227.251 352.635 227.327 352.79 227.425 352.934C227.527 353.073 227.65 353.191 227.793 353.289C227.937 353.381 228.104 353.428 228.294 353.428H228.433ZM224.816 357.268L223.633 358.45L222.437 357.261L223.619 356.071L224.816 357.268ZM227.445 357.275L226.263 358.464L225.066 357.268L226.249 356.085L227.445 357.275ZM228.15 353.428H228.658C228.825 353.428 228.98 353.414 229.124 353.386C229.268 353.358 229.395 353.3 229.506 353.212C229.618 353.119 229.708 352.992 229.778 352.83C229.847 352.667 229.891 352.449 229.91 352.176C229.91 352.069 229.912 351.883 229.917 351.619C229.926 351.35 229.933 351.032 229.938 350.666C229.942 350.295 229.947 349.889 229.952 349.449C229.956 349.008 229.959 348.558 229.959 348.099C229.959 347.742 229.956 347.392 229.952 347.049C229.952 346.701 229.947 346.367 229.938 346.047C229.933 345.727 229.922 345.426 229.903 345.143C229.889 344.86 229.868 344.602 229.84 344.37L231.614 344.141C231.647 344.391 231.672 344.674 231.691 344.99C231.709 345.305 231.723 345.641 231.733 345.998C231.746 346.351 231.753 346.722 231.753 347.111C231.758 347.496 231.76 347.886 231.76 348.28C231.76 349.157 231.751 349.919 231.733 350.569C231.719 351.218 231.712 351.793 231.712 352.294C231.712 352.646 231.802 352.925 231.983 353.129C232.164 353.328 232.433 353.428 232.79 353.428H232.943V355.209H232.79C232.762 355.209 232.737 355.209 232.713 355.209C232.533 355.209 232.354 355.192 232.178 355.16C232.006 355.132 231.839 355.088 231.677 355.028C231.519 354.972 231.373 354.905 231.239 354.826C231.104 354.747 230.986 354.666 230.884 354.583C230.749 354.712 230.601 354.819 230.439 354.903C230.281 354.981 230.119 355.044 229.952 355.09C229.785 355.137 229.62 355.167 229.458 355.181C229.295 355.199 229.149 355.209 229.019 355.209H228.15V353.428ZM232.666 353.428H234.829C235.098 353.428 235.339 353.395 235.553 353.33C235.77 353.266 235.954 353.182 236.102 353.08C236.25 352.973 236.364 352.853 236.443 352.718C236.526 352.579 236.568 352.438 236.568 352.294C236.568 352.071 236.524 351.83 236.436 351.57C236.348 351.306 236.23 351.039 236.081 350.77C235.937 350.497 235.766 350.223 235.566 349.95C235.372 349.671 235.165 349.407 234.947 349.157C234.729 348.901 234.504 348.665 234.273 348.447C234.045 348.229 233.827 348.037 233.619 347.87L233.786 345.908L239.873 343.334L240.519 344.927L235.267 347.083C235.624 347.394 235.935 347.703 236.199 348.009C236.468 348.31 236.707 348.614 236.916 348.92C237.129 349.221 237.322 349.525 237.493 349.831C237.665 350.137 237.832 350.446 237.994 350.757C238.11 350.979 238.226 351.197 238.342 351.41C238.458 351.624 238.583 351.842 238.718 352.064V352.057C238.843 352.266 238.975 352.454 239.114 352.621C239.258 352.788 239.411 352.932 239.573 353.052C239.74 353.173 239.921 353.266 240.116 353.33C240.315 353.395 240.533 353.428 240.77 353.428H241.208V355.209H241.006C240.635 355.209 240.299 355.183 239.998 355.132C239.696 355.081 239.416 355 239.156 354.889C238.901 354.777 238.66 354.636 238.433 354.464C238.21 354.288 237.99 354.077 237.772 353.831C237.609 354.072 237.426 354.279 237.222 354.45C237.018 354.617 236.798 354.757 236.561 354.868C236.325 354.974 236.074 355.053 235.81 355.104C235.55 355.16 235.281 355.195 235.003 355.209H232.666V353.428ZM239.657 342.68L233.786 345.073L233.834 344.176L239.316 341.97L239.657 342.68ZM240.931 353.428H242.051C242.269 353.428 242.492 353.416 242.719 353.393C242.951 353.365 243.16 353.312 243.345 353.233C243.531 353.15 243.681 353.031 243.797 352.878C243.918 352.725 243.978 352.521 243.978 352.266C243.978 352.146 243.953 351.976 243.902 351.758C243.851 351.54 243.783 351.299 243.7 351.035C243.616 350.77 243.517 350.497 243.401 350.214C243.289 349.931 243.171 349.667 243.046 349.421L244.653 348.628C244.769 348.892 244.885 349.173 245.001 349.47C245.117 349.766 245.219 350.072 245.307 350.388C245.4 350.699 245.474 351.012 245.529 351.327C245.585 351.642 245.613 351.951 245.613 352.252C245.613 352.772 245.525 353.219 245.349 353.595C245.172 353.966 244.927 354.272 244.611 354.513C244.296 354.75 243.918 354.923 243.477 355.035C243.041 355.151 242.561 355.209 242.037 355.209H240.931V353.428ZM244.486 346.27L243.15 347.605L241.822 346.27L243.15 344.941L244.486 346.27ZM248.829 344.141C248.944 345.027 249.026 345.873 249.072 346.68C249.118 347.482 249.146 348.268 249.155 349.038C249.165 349.692 249.167 350.297 249.162 350.854C249.162 351.41 249.158 351.93 249.149 352.412C249.139 352.89 249.125 353.337 249.107 353.755C249.088 354.168 249.07 354.555 249.051 354.917L247.229 355.195C247.326 353.664 247.375 352.312 247.375 351.139C247.375 350.666 247.368 350.223 247.354 349.81C247.317 348.86 247.275 347.967 247.229 347.132C247.182 346.293 247.12 345.49 247.041 344.725L248.829 344.141Z" fill="black"/>
</svg>
