<svg width="400" height="400" viewBox="0 0 400 400" fill="none" xmlns="http://www.w3.org/2000/svg">
<rect width="400" height="400" fill="white"/>
<path d="M173.047 53.7443C172.25 53.7443 171.512 53.6446 170.835 53.4452C170.158 53.2504 169.581 52.9536 169.103 52.5548C168.625 52.1606 168.266 51.6643 168.025 51.0661C167.83 50.5977 167.733 50.0667 167.733 49.473C167.733 49.3154 167.74 49.153 167.753 48.9861C167.781 48.6661 167.818 48.3391 167.865 48.0052C167.916 47.6713 167.983 47.3212 168.066 46.9548C168.155 46.5838 168.266 46.1919 168.4 45.7791C168.535 45.3664 168.702 44.9212 168.901 44.4435L170.334 45.1043C170.144 45.5774 169.986 46.0157 169.861 46.4191C169.736 46.818 169.636 47.189 169.562 47.5322C169.493 47.8754 169.444 48.1977 169.416 48.4991C169.388 48.8006 169.374 49.0904 169.374 49.3687C169.374 49.7026 169.416 50.0017 169.5 50.2661C169.588 50.5304 169.699 50.767 169.833 50.9757C170.014 51.2214 170.242 51.4093 170.515 51.5391C170.789 51.6736 171.076 51.771 171.378 51.8313C171.684 51.8916 171.983 51.9264 172.275 51.9357C172.572 51.9496 172.829 51.9565 173.047 51.9565C173.177 51.9565 173.365 51.9472 173.611 51.9287C173.861 51.9101 174.133 51.8777 174.425 51.8313C174.722 51.7849 175.025 51.7246 175.336 51.6504C175.647 51.5762 175.927 51.4835 176.178 51.3722C176.433 51.2609 176.639 51.131 176.797 50.9826C176.959 50.8342 177.04 50.6603 177.04 50.4609C177.04 50.4284 176.999 50.3774 176.915 50.3078C176.836 50.2429 176.725 50.1687 176.581 50.0852C176.442 50.0017 176.277 49.9136 176.087 49.8209C175.897 49.7328 175.693 49.647 175.475 49.5635C175.155 49.4568 174.837 49.378 174.522 49.327C174.207 49.2759 173.894 49.2226 173.583 49.167L173.82 47.4278H179.343V49.2087H178.042C178.228 49.4359 178.351 49.6586 178.411 49.8765C178.476 50.0991 178.511 50.2939 178.515 50.4609C178.497 50.869 178.392 51.233 178.202 51.553C178.012 51.8777 177.766 52.1606 177.465 52.4017C177.168 52.6475 176.829 52.8539 176.449 53.0209C176.069 53.1925 175.679 53.3316 175.28 53.4383C174.882 53.5449 174.487 53.6214 174.098 53.6678C173.713 53.7188 173.363 53.7443 173.047 53.7443ZM187.308 49.2087H187.065C186.708 49.2087 186.358 49.1948 186.014 49.167C185.676 49.1391 185.351 49.0881 185.041 49.0139C184.734 48.9443 184.442 48.8493 184.164 48.7287C183.886 48.6081 183.631 48.4528 183.399 48.2626C183.148 48.4388 182.856 48.5872 182.522 48.7078C182.193 48.8284 181.845 48.9258 181.479 49C181.117 49.0696 180.751 49.1206 180.38 49.153C180.009 49.1901 179.656 49.2087 179.322 49.2087H179.072V47.4278H179.315C179.515 47.4278 179.719 47.4209 179.927 47.407C180.141 47.393 180.349 47.3722 180.554 47.3443C180.762 47.3165 180.964 47.2841 181.159 47.247C181.358 47.2099 181.544 47.1658 181.715 47.1148C181.534 46.9339 181.363 46.7623 181.201 46.6C181.038 46.433 180.874 46.2684 180.707 46.1061C180.544 45.9391 180.373 45.7699 180.192 45.5983C180.016 45.422 179.823 45.2365 179.614 45.0417L179.712 43.5948C179.976 43.3629 180.245 43.1681 180.519 43.0104C180.797 42.8528 181.068 42.7252 181.333 42.6278C181.597 42.5258 181.852 42.4493 182.098 42.3983C182.344 42.3426 182.569 42.3055 182.773 42.287C182.981 42.2638 183.192 42.2522 183.406 42.2522C183.661 42.2522 183.974 42.2754 184.345 42.3217C184.716 42.3635 185.098 42.4725 185.493 42.6487C185.757 42.7646 185.97 42.8945 186.133 43.0383C186.3 43.1774 186.429 43.3188 186.522 43.4626C186.62 43.6017 186.687 43.7386 186.724 43.873C186.761 44.0029 186.782 44.1165 186.787 44.2139C186.791 44.2557 186.794 44.2951 186.794 44.3322C186.794 44.5177 186.754 44.731 186.675 44.9722C186.601 45.2087 186.485 45.4614 186.327 45.7304C186.174 45.9994 185.994 46.2614 185.785 46.5165C185.576 46.767 185.356 46.9919 185.124 47.1913C185.407 47.2701 185.713 47.3304 186.042 47.3722C186.372 47.4093 186.717 47.4278 187.079 47.4278H187.308V49.2087ZM181.472 44.4087C181.634 44.6081 181.806 44.8075 181.987 45.007C182.167 45.2017 182.344 45.3872 182.515 45.5635C182.687 45.7351 182.847 45.8951 182.995 46.0435C183.144 46.1872 183.269 46.3101 183.371 46.4122C183.529 46.3101 183.705 46.171 183.9 45.9948C184.099 45.8186 184.289 45.633 184.47 45.4383C184.651 45.2435 184.811 45.0533 184.95 44.8678C185.089 44.6823 185.18 44.5293 185.221 44.4087C185.11 44.3484 184.983 44.2928 184.839 44.2417C184.695 44.1907 184.542 44.149 184.38 44.1165C184.222 44.0794 184.06 44.0516 183.893 44.033C183.73 44.0099 183.573 43.9983 183.42 43.9983C183.276 43.9983 183.118 44.0099 182.947 44.033C182.775 44.0516 182.601 44.0794 182.425 44.1165C182.249 44.149 182.077 44.1907 181.91 44.2417C181.748 44.2928 181.602 44.3484 181.472 44.4087ZM187.192 47.4278C187.679 47.4278 188.147 47.4139 188.597 47.3861C189.047 47.3536 189.457 47.3096 189.828 47.2539C190.199 47.1983 190.519 47.131 190.788 47.0522C191.057 46.9733 191.259 46.8852 191.394 46.7878H190.684C190.276 46.7878 189.886 46.7368 189.515 46.6348C189.149 46.5281 188.827 46.3704 188.548 46.1617C188.27 45.953 188.048 45.6933 187.881 45.3826C187.718 45.0672 187.637 44.7009 187.637 44.2835C187.637 44.0377 187.663 43.7849 187.714 43.5252C187.765 43.2655 187.841 43.0128 187.943 42.767C188.045 42.5212 188.168 42.2893 188.312 42.0713C188.456 41.8533 188.62 41.6632 188.806 41.5009C188.991 41.3339 189.195 41.2041 189.418 41.1113C189.641 41.0139 189.882 40.9652 190.141 40.9652C190.461 40.9652 190.761 41.0325 191.039 41.167C191.317 41.3014 191.57 41.4846 191.797 41.7165C192.024 41.9438 192.226 42.2081 192.402 42.5096C192.579 42.811 192.727 43.1287 192.848 43.4626C192.968 43.7965 193.059 44.1374 193.119 44.4852C193.184 44.8284 193.216 45.1554 193.216 45.4661C193.216 45.9948 193.142 46.4539 192.994 46.8435C192.85 47.233 192.646 47.567 192.381 47.8452C192.122 48.1235 191.809 48.3507 191.442 48.527C191.081 48.7032 190.679 48.8423 190.239 48.9443C189.798 49.0464 189.325 49.1159 188.82 49.153C188.319 49.1901 187.799 49.2087 187.261 49.2087H187.025V47.4278H187.192ZM190.141 42.76C190.118 42.7554 190.095 42.753 190.072 42.753C189.979 42.753 189.872 42.7901 189.752 42.8643C189.631 42.9386 189.515 43.0452 189.404 43.1843C189.293 43.3235 189.202 43.4812 189.133 43.6574C189.063 43.829 189.028 43.9983 189.028 44.1652C189.028 44.1745 189.028 44.1838 189.028 44.193C189.028 44.36 189.066 44.4968 189.14 44.6035C189.214 44.7055 189.314 44.7843 189.439 44.84C189.569 44.8957 189.717 44.9351 189.884 44.9583C190.056 44.9814 190.237 44.9977 190.427 45.007C190.552 45.0116 190.682 45.0139 190.816 45.0139C190.881 45.0139 190.981 45.0139 191.115 45.0139C191.254 45.0093 191.396 45.0023 191.54 44.993C191.498 44.8261 191.438 44.6197 191.359 44.3739C191.285 44.1235 191.19 43.8823 191.074 43.6504C190.962 43.4139 190.828 43.2099 190.67 43.0383C190.517 42.8667 190.341 42.7739 190.141 42.76ZM189.974 38.8713L188.792 40.0539L187.595 38.8643L188.778 37.6748L189.974 38.8713ZM192.604 38.8783L191.421 40.0678L190.225 38.8713L191.408 37.6887L192.604 38.8783ZM197.594 44.5826C197.687 44.8748 197.782 45.1809 197.88 45.5009C197.982 45.8162 198.072 46.1362 198.151 46.4609C198.234 46.7855 198.302 47.1101 198.353 47.4348C198.404 47.7548 198.429 48.0678 198.429 48.3739C198.429 48.7913 198.364 49.1971 198.234 49.5913C198.109 49.9901 197.933 50.3728 197.706 50.7391C197.483 51.1101 197.216 51.4626 196.906 51.7965C196.6 52.1304 196.266 52.4458 195.904 52.7426C195.542 53.0394 195.16 53.3154 194.756 53.5704C194.353 53.8255 193.945 54.0551 193.532 54.2591L192.739 52.6661C193.068 52.5038 193.393 52.3229 193.713 52.1235C194.033 51.9287 194.336 51.72 194.624 51.4974C194.916 51.2748 195.185 51.0406 195.431 50.7948C195.681 50.549 195.895 50.2939 196.071 50.0296C196.252 49.7652 196.393 49.4939 196.495 49.2157C196.597 48.9374 196.648 48.6568 196.648 48.3739C196.648 48.1096 196.618 47.8313 196.558 47.5391C196.498 47.247 196.423 46.9594 196.335 46.6765C196.252 46.389 196.164 46.113 196.071 45.8487C195.983 45.5843 195.909 45.3501 195.848 45.1461L197.594 44.5826ZM208.4 52.8748C208.669 52.9212 208.94 52.9443 209.214 52.9443C209.283 52.9443 209.42 52.9397 209.624 52.9304C209.828 52.9212 210.09 52.8794 210.41 52.8052C210.73 52.731 211.036 52.6313 211.328 52.5061C211.625 52.3809 211.896 52.2371 212.142 52.0748L213.081 53.633C212.812 53.7954 212.534 53.9438 212.247 54.0783C211.964 54.2174 211.669 54.3357 211.363 54.433C211.062 54.5304 210.749 54.6046 210.424 54.6557C210.141 54.702 209.851 54.7252 209.554 54.7252C209.508 54.7252 209.459 54.7252 209.408 54.7252C208.972 54.7159 208.536 54.6696 208.101 54.5861C207.669 54.5026 207.256 54.382 206.862 54.2243C206.473 54.0667 206.109 53.8696 205.77 53.633C205.436 53.4012 205.144 53.1299 204.894 52.8191C204.648 52.513 204.453 52.1675 204.309 51.7826C204.165 51.4023 204.091 50.9803 204.087 50.5165C204.101 50.0203 204.193 49.5565 204.365 49.1252C204.536 48.6986 204.764 48.309 205.047 47.9565C205.334 47.5994 205.663 47.2817 206.034 47.0035C206.41 46.7252 206.807 46.4864 207.224 46.287C207.076 46.1478 206.923 46.011 206.765 45.8765C206.612 45.7374 206.463 45.6075 206.32 45.487C206.176 45.3617 206.041 45.2481 205.916 45.1461C205.791 45.0394 205.687 44.949 205.603 44.8748L205.471 43.3861C206.078 42.8574 206.732 42.4609 207.433 42.1965C208.138 41.9275 208.873 41.793 209.638 41.793C209.865 41.793 210.099 41.8093 210.341 41.8417C210.586 41.8742 210.825 41.9252 211.057 41.9948C211.289 42.0643 211.507 42.1548 211.711 42.2661C211.915 42.3774 212.094 42.5142 212.247 42.6765C212.4 42.8342 212.52 43.0174 212.608 43.2261C212.687 43.4301 212.727 43.6574 212.727 43.9078C212.727 43.9217 212.727 43.9357 212.727 43.9496C212.708 44.302 212.638 44.6174 212.518 44.8957C212.402 45.1739 212.249 45.4243 212.059 45.647C211.869 45.8696 211.648 46.069 211.398 46.2452C211.152 46.4214 210.89 46.5838 210.612 46.7322C210.987 46.9409 211.386 47.1101 211.808 47.24C212.235 47.3652 212.65 47.4278 213.054 47.4278H213.29V49.2087H213.054C212.669 49.2087 212.295 49.1693 211.934 49.0904C211.572 49.0116 211.215 48.9003 210.862 48.7565C210.51 48.6081 210.16 48.4342 209.812 48.2348C209.464 48.0307 209.114 47.8058 208.761 47.56C208.423 47.6945 208.08 47.8522 207.732 48.033C207.384 48.2093 207.066 48.418 206.779 48.6591C206.496 48.8957 206.264 49.1646 206.083 49.4661C205.902 49.7675 205.812 50.1084 205.812 50.4887C205.812 50.702 205.854 50.9061 205.937 51.1009C206.025 51.2957 206.139 51.4765 206.278 51.6435C206.417 51.8151 206.577 51.9704 206.758 52.1096C206.939 52.2533 207.124 52.3762 207.314 52.4783C207.509 52.5849 207.699 52.6707 207.885 52.7357C208.075 52.8052 208.247 52.8516 208.4 52.8748ZM209.645 43.4904C209.459 43.4904 209.265 43.5043 209.061 43.5322C208.856 43.5554 208.655 43.5901 208.455 43.6365C208.256 43.6783 208.063 43.7316 207.878 43.7965C207.697 43.8568 207.537 43.9241 207.398 43.9983C207.495 44.1003 207.604 44.2186 207.725 44.353C207.845 44.4829 207.973 44.6197 208.107 44.7635C208.247 44.9072 208.388 45.051 208.532 45.1948C208.676 45.3339 208.817 45.4638 208.956 45.5843C209.262 45.4545 209.547 45.3223 209.812 45.1878C210.076 45.0533 210.306 44.9165 210.501 44.7774C210.7 44.6336 210.858 44.4852 210.974 44.3322C211.089 44.1791 211.15 44.0214 211.154 43.8591C211.15 43.8406 211.12 43.8128 211.064 43.7757C211.008 43.7386 210.918 43.7014 210.793 43.6643C210.672 43.6226 210.517 43.5855 210.327 43.553C210.141 43.5206 209.914 43.4997 209.645 43.4904ZM213.009 47.4278H214.067L214.115 47.3374C214.194 47.1983 214.306 47.0151 214.449 46.7878C214.598 46.5559 214.783 46.2939 215.006 46.0017C215.048 45.7096 215.082 45.3409 215.11 44.8957C215.138 44.4504 215.154 43.9681 215.159 43.4487C215.159 43.1658 215.154 42.8759 215.145 42.5791C215.136 42.2777 215.117 41.9322 215.089 41.5426C215.061 41.153 215.022 40.6986 214.971 40.1791C214.925 39.6551 214.864 39.0313 214.79 38.3078L216.62 37.8348C216.74 38.7252 216.831 39.6388 216.891 40.5757C216.956 41.5125 216.988 42.44 216.988 43.3583V43.9217C217.239 43.7084 217.499 43.5043 217.768 43.3096C218.041 43.1148 218.324 42.9432 218.616 42.7948C218.913 42.6464 219.221 42.5281 219.541 42.44C219.861 42.3519 220.195 42.3078 220.543 42.3078C220.896 42.3078 221.23 42.3635 221.545 42.4748C221.86 42.5861 222.139 42.7484 222.38 42.9617C222.626 43.1704 222.827 43.4255 222.985 43.727C223.143 44.0284 223.24 44.367 223.277 44.7426C223.282 44.8122 223.284 44.8794 223.284 44.9443C223.284 45.4267 223.203 45.8765 223.041 46.2939C222.883 46.7113 222.649 47.0893 222.338 47.4278H224.3V49.2087H222.449C222.083 49.2087 221.675 49.1925 221.225 49.16C220.775 49.1275 220.277 49.0417 219.729 48.9026C219.335 49.0093 218.934 49.0858 218.526 49.1322C218.122 49.1832 217.717 49.2087 217.308 49.2087H213.009V47.4278ZM216.661 47.4278C216.944 47.4278 217.269 47.4209 217.635 47.407C218.006 47.393 218.387 47.3606 218.776 47.3096C219.166 47.2586 219.544 47.182 219.91 47.08C220.281 46.978 220.61 46.8412 220.898 46.6696C221.186 46.498 221.413 46.2823 221.58 46.0226C221.724 45.8 221.795 45.5357 221.795 45.2296C221.795 45.1878 221.793 45.1438 221.788 45.0974C221.779 44.9583 221.733 44.8284 221.649 44.7078C221.57 44.5872 221.459 44.4852 221.315 44.4017C221.176 44.3136 221.009 44.2441 220.815 44.193C220.648 44.1559 220.467 44.1374 220.272 44.1374C220.235 44.1374 220.195 44.1374 220.154 44.1374C219.922 44.1467 219.646 44.207 219.326 44.3183C219.006 44.4249 218.663 44.6058 218.296 44.8609C217.93 45.1159 217.55 45.4522 217.155 45.8696C216.761 46.287 216.376 46.8064 216.001 47.4278H216.661ZM224.192 47.4278C224.679 47.4278 225.147 47.4139 225.597 47.3861C226.047 47.3536 226.457 47.3096 226.828 47.2539C227.199 47.1983 227.519 47.131 227.788 47.0522C228.057 46.9733 228.259 46.8852 228.394 46.7878H227.684C227.276 46.7878 226.886 46.7368 226.515 46.6348C226.149 46.5281 225.827 46.3704 225.548 46.1617C225.27 45.953 225.048 45.6933 224.881 45.3826C224.718 45.0672 224.637 44.7009 224.637 44.2835C224.637 44.0377 224.663 43.7849 224.714 43.5252C224.765 43.2655 224.841 43.0128 224.943 42.767C225.045 42.5212 225.168 42.2893 225.312 42.0713C225.456 41.8533 225.62 41.6632 225.806 41.5009C225.991 41.3339 226.195 41.2041 226.418 41.1113C226.641 41.0139 226.882 40.9652 227.141 40.9652C227.461 40.9652 227.761 41.0325 228.039 41.167C228.317 41.3014 228.57 41.4846 228.797 41.7165C229.024 41.9438 229.226 42.2081 229.402 42.5096C229.579 42.811 229.727 43.1287 229.848 43.4626C229.968 43.7965 230.059 44.1374 230.119 44.4852C230.184 44.8284 230.216 45.1554 230.216 45.4661C230.216 45.9948 230.142 46.4539 229.994 46.8435C229.85 47.233 229.646 47.567 229.381 47.8452C229.122 48.1235 228.809 48.3507 228.442 48.527C228.081 48.7032 227.679 48.8423 227.239 48.9443C226.798 49.0464 226.325 49.1159 225.82 49.153C225.319 49.1901 224.799 49.2087 224.261 49.2087H224.025V47.4278H224.192ZM227.141 42.76C227.118 42.7554 227.095 42.753 227.072 42.753C226.979 42.753 226.872 42.7901 226.752 42.8643C226.631 42.9386 226.515 43.0452 226.404 43.1843C226.293 43.3235 226.202 43.4812 226.133 43.6574C226.063 43.829 226.028 43.9983 226.028 44.1652C226.028 44.1745 226.028 44.1838 226.028 44.193C226.028 44.36 226.066 44.4968 226.14 44.6035C226.214 44.7055 226.314 44.7843 226.439 44.84C226.569 44.8957 226.717 44.9351 226.884 44.9583C227.056 44.9814 227.237 44.9977 227.427 45.007C227.552 45.0116 227.682 45.0139 227.816 45.0139C227.881 45.0139 227.981 45.0139 228.115 45.0139C228.254 45.0093 228.396 45.0023 228.54 44.993C228.498 44.8261 228.438 44.6197 228.359 44.3739C228.285 44.1235 228.19 43.8823 228.074 43.6504C227.962 43.4139 227.828 43.2099 227.67 43.0383C227.517 42.8667 227.341 42.7739 227.141 42.76ZM226.974 38.8713L225.792 40.0539L224.595 38.8643L225.778 37.6748L226.974 38.8713ZM229.604 38.8783L228.421 40.0678L227.225 38.8713L228.408 37.6887L229.604 38.8783Z" fill="black"/>
<path d="M364.162 219.172L176.072 103.544L44.0781 191.54L231.943 317.718L364.162 229.572L364.162 219.172Z" fill="#E7E7E7" stroke="black"/>
<path d="M43.8371 180.697L43.8346 191.376L231.417 317.364L232.151 306.869L44.1934 180.519L43.8371 180.697Z" fill="#A3A3A3" stroke="black"/>
<rect x="-0.000955552" y="0.556128" width="158.615" height="226.305" transform="matrix(-0.83205 0.5547 0.830139 0.557556 175.591 92.2466)" fill="#E7E7E7" stroke="black"/>
<path d="M231.943 306.718L240.15 301.247L52.2852 175.069L44.078 180.54L231.943 306.718Z" fill="#A3A3A3" stroke="black"/>
<path d="M273.031 141.625C273.031 140.269 273.011 138.909 272.97 137.546C272.93 136.177 272.84 134.83 272.701 133.506C272.562 132.182 272.362 130.898 272.102 129.653C271.847 128.412 271.503 127.236 271.069 126.126L272.51 125.981C272.985 127.208 273.378 128.525 273.691 129.929C274.009 131.331 274.252 132.853 274.42 134.496C274.489 135.196 274.544 135.907 274.585 136.63C274.631 137.357 274.666 138.075 274.689 138.786C274.718 139.494 274.735 140.184 274.741 140.856C274.753 141.531 274.759 142.172 274.759 142.777L273.031 141.625ZM283.793 148.852C283.371 148.571 282.983 148.19 282.63 147.712C282.283 147.23 281.987 146.675 281.744 146.046L281.718 145.987C281.469 146.274 281.157 146.423 280.781 146.437C280.41 146.454 279.999 146.313 279.548 146.012C279.044 145.676 278.619 145.281 278.271 144.827C277.93 144.376 277.652 143.899 277.438 143.395C277.224 142.883 277.065 142.356 276.96 141.814C276.856 141.271 276.793 140.742 276.769 140.225C276.758 140.009 276.752 139.8 276.752 139.598C276.752 139.313 276.767 138.989 276.795 138.625C276.83 138.259 276.882 137.904 276.952 137.561C277.056 137.067 277.189 136.585 277.351 136.116C277.519 135.65 277.722 135.184 277.959 134.716C278.202 134.245 278.486 133.766 278.81 133.28C279.14 132.797 279.516 132.293 279.938 131.768L279.617 131.167L280.833 130.517C281.417 131.547 281.99 132.583 282.552 133.625C283.119 134.664 283.649 135.719 284.141 136.792C285.275 139.287 286.097 141.672 286.606 143.945C286.774 144.725 286.858 145.476 286.858 146.2C286.858 146.777 286.795 147.302 286.667 147.773C286.54 148.245 286.349 148.619 286.094 148.894C285.845 149.166 285.527 149.312 285.139 149.332C284.757 149.349 284.311 149.191 283.802 148.858L283.793 148.852ZM282.517 142.116C282.517 142.304 282.523 142.531 282.534 142.796C282.546 143.061 282.566 143.342 282.595 143.64C282.63 143.934 282.676 144.236 282.734 144.546C282.798 144.86 282.876 145.159 282.969 145.443C283.067 145.725 283.183 145.983 283.316 146.218C283.455 146.456 283.617 146.651 283.802 146.803C284.074 146.963 284.297 147.011 284.471 146.946C284.644 146.88 284.78 146.752 284.879 146.56C284.977 146.362 285.044 146.124 285.078 145.848C285.119 145.569 285.139 145.301 285.139 145.043C285.139 144.807 285.125 144.554 285.096 144.284C285.067 144.014 285.02 143.74 284.957 143.461C284.748 142.55 284.497 141.659 284.201 140.787C283.906 139.915 283.591 139.079 283.255 138.278C282.919 137.47 282.575 136.708 282.222 135.993C281.869 135.277 281.53 134.624 281.206 134.032C280.841 134.498 280.52 134.945 280.242 135.372C279.964 135.799 279.721 136.218 279.513 136.628C279.305 137.039 279.128 137.45 278.983 137.861C278.844 138.27 278.729 138.686 278.636 139.112C278.601 139.262 278.567 139.462 278.532 139.71C278.497 139.958 278.474 140.235 278.462 140.54C278.457 140.641 278.454 140.743 278.454 140.847C278.454 141.056 278.462 141.298 278.48 141.574C278.503 141.854 278.552 142.148 278.627 142.455C278.708 142.767 278.821 143.051 278.966 143.307C279.117 143.568 279.31 143.777 279.548 143.935C279.756 144.067 279.936 144.11 280.086 144.064C280.237 144.019 280.364 143.919 280.468 143.766C280.578 143.61 280.668 143.416 280.737 143.184C280.812 142.949 280.873 142.707 280.92 142.46C280.966 142.213 281.003 141.973 281.032 141.742C281.067 141.508 281.096 141.315 281.119 141.164L282.517 142.116Z" fill="black"/>
<path d="M95.6637 131.671C95.6637 130.314 95.6434 128.982 95.6029 127.673C95.5624 126.357 95.4727 125.13 95.3338 123.992C95.1949 122.853 94.9952 121.835 94.7347 120.937C94.48 120.035 94.1356 119.319 93.7015 118.788L95.1428 116.721C95.6174 117.315 96.011 118.107 96.3236 119.095C96.6419 120.072 96.885 121.27 97.0529 122.689C97.1223 123.297 97.1773 123.935 97.2178 124.603C97.2641 125.268 97.2989 125.941 97.322 126.621C97.351 127.29 97.3683 127.957 97.3741 128.621C97.3857 129.281 97.3915 129.914 97.3915 130.519L95.6637 131.671ZM105.315 117.494C104.771 117.857 104.238 118.121 103.717 118.288C103.202 118.443 102.751 118.435 102.363 118.262C102.432 118.557 102.49 118.914 102.537 119.336C102.589 119.753 102.629 120.21 102.658 120.705C102.693 121.19 102.719 121.701 102.736 122.239C102.754 122.777 102.765 123.312 102.771 123.844C102.783 124.372 102.788 124.886 102.788 125.387C102.788 125.888 102.788 126.344 102.788 126.754L101.061 127.906C101.061 126.549 101.04 125.217 101 123.908C100.959 122.592 100.87 121.365 100.731 120.227C100.592 119.088 100.392 118.07 100.132 117.172C99.8769 116.271 99.5325 115.554 99.0984 115.023L100.54 112.966C100.742 113.228 100.933 113.518 101.113 113.836C101.292 114.155 101.448 114.493 101.582 114.849C101.709 114.347 101.883 113.848 102.102 113.354C102.328 112.856 102.586 112.385 102.875 111.941C103.165 111.491 103.477 111.081 103.813 110.711C104.154 110.337 104.507 110.018 104.872 109.754L105.02 109.656C105.373 109.421 105.749 109.239 106.148 109.112C106.548 108.985 106.956 108.95 107.373 109.006C107.633 109.034 107.847 109.082 108.015 109.151C108.183 109.22 108.325 109.282 108.441 109.337L107.199 111.605L107.112 111.558C107.048 111.531 106.965 111.5 106.86 111.465C106.762 111.427 106.64 111.396 106.496 111.375C106.357 111.349 106.203 111.343 106.036 111.358C105.868 111.372 105.694 111.408 105.515 111.465C105.381 111.512 105.237 111.588 105.08 111.692C105.023 111.731 104.921 111.805 104.777 111.915C104.638 112.022 104.452 112.215 104.221 112.495C103.995 112.77 103.798 113.065 103.631 113.379C103.468 113.688 103.344 114.004 103.257 114.327C103.194 114.571 103.162 114.808 103.162 115.037C103.162 115.114 103.165 115.188 103.17 115.261C103.228 115.542 103.324 115.747 103.457 115.874C103.59 115.993 103.749 116.054 103.934 116.056C104.125 116.047 104.34 115.984 104.577 115.868C104.756 115.783 104.944 115.675 105.141 115.544L105.315 115.428C105.529 115.278 105.749 115.114 105.975 114.936C106.2 114.751 106.42 114.555 106.635 114.35C106.849 114.144 107.054 113.927 107.251 113.699C107.448 113.47 107.63 113.227 107.798 112.969L108.562 114.15C108.064 114.92 107.543 115.574 106.999 116.11C106.455 116.647 105.894 117.108 105.315 117.494ZM110.627 124.826L109.611 124.658C110.219 123.23 110.537 121.964 110.566 120.859V118.898L112.329 117.723V119.423C112.329 120.21 112.166 121.104 111.842 122.106C111.524 123.111 111.119 124.018 110.627 124.826ZM121.762 98.7452C121.762 98.7591 121.77 98.8229 121.788 98.9366C121.805 99.0432 121.822 99.1917 121.84 99.3818C121.857 99.565 121.871 99.778 121.883 100.021C121.889 100.191 121.892 100.366 121.892 100.547V100.818C121.869 102.441 121.553 103.882 120.945 105.143V105.133C120.355 106.382 119.553 107.344 118.54 108.02C118.263 108.205 118.011 108.352 117.785 108.461C117.565 108.558 117.345 108.629 117.125 108.671L117.195 109.198C117.264 109.806 117.319 110.444 117.36 111.113C117.406 111.771 117.441 112.44 117.464 113.12C117.493 113.789 117.51 114.459 117.516 115.13C117.527 115.791 117.533 116.423 117.533 117.028L115.805 118.18C115.805 117.074 115.797 115.981 115.779 114.9C115.762 113.813 115.716 112.779 115.641 111.8C115.565 110.813 115.452 109.901 115.302 109.062C115.157 108.212 114.955 107.478 114.694 106.859C114.573 106.564 114.442 106.292 114.303 106.044C114.165 105.796 114.008 105.549 113.835 105.303L115.285 103.23C115.377 103.349 115.461 103.478 115.536 103.615C115.617 103.742 115.696 103.881 115.771 104.033C115.852 104.174 115.933 104.328 116.014 104.497C116.095 104.666 116.185 104.846 116.283 105.038C116.416 105.318 116.546 105.565 116.674 105.779C116.807 105.982 116.957 106.136 117.125 106.24C117.299 106.339 117.496 106.375 117.716 106.347C117.941 106.308 118.216 106.18 118.54 105.964C119.021 105.644 119.383 105.225 119.626 104.708C119.736 104.482 119.825 104.245 119.895 103.997C119.964 103.742 120.019 103.486 120.06 103.229C120.106 102.969 120.138 102.711 120.155 102.456C120.173 102.201 120.181 101.959 120.181 101.729C120.181 101.43 120.167 101.151 120.138 100.892C120.115 100.629 120.089 100.417 120.06 100.255L121.762 98.7452Z" fill="black"/>
<path d="M183.815 201.747C185.23 202.844 185.867 204.027 185.726 205.296C185.579 206.561 184.675 207.747 183.014 208.854C181.191 210.07 179.149 210.616 176.889 210.492C174.622 210.364 172.424 209.585 170.293 208.154L169.427 207.572C168.064 206.656 167.103 205.69 166.544 204.671C165.985 203.653 165.874 202.66 166.211 201.694C166.553 200.723 167.315 199.844 168.496 199.057C170.134 197.965 171.893 197.38 173.772 197.302C175.651 197.224 177.46 197.664 179.198 198.623L176.273 200.573C175.285 200.003 174.366 199.727 173.516 199.745C172.666 199.763 171.793 200.071 170.896 200.669C169.923 201.317 169.543 202.038 169.756 202.831C169.963 203.621 170.794 204.512 172.249 205.505L173.314 206.221C174.845 207.248 176.196 207.847 177.37 208.015C178.543 208.176 179.631 207.922 180.632 207.254C181.535 206.653 182.001 206.067 182.031 205.499C182.067 204.926 181.686 204.326 180.89 203.698L183.815 201.747ZM184.467 200.455C183.422 199.753 182.692 198.995 182.277 198.182C181.862 197.361 181.811 196.549 182.125 195.744C182.433 194.936 183.087 194.199 184.089 193.531C185.513 192.582 187.109 192.101 188.878 192.088C190.647 192.068 192.332 192.526 193.932 193.461L194.668 193.932C196.279 195.014 197.122 196.184 197.195 197.442C197.268 198.699 196.543 199.835 195.021 200.85C193.498 201.865 191.798 202.349 189.919 202.304C188.046 202.254 186.272 201.667 184.597 200.542L184.467 200.455ZM187.497 198.713C188.496 199.384 189.449 199.773 190.357 199.879C191.258 199.981 192.059 199.798 192.76 199.332C193.443 198.876 193.715 198.347 193.578 197.743C193.44 197.131 192.796 196.44 191.647 195.668C190.671 195.012 189.721 194.634 188.796 194.531C187.871 194.421 187.061 194.598 186.367 195.061C185.678 195.52 185.414 196.056 185.575 196.667C185.73 197.275 186.371 197.957 187.497 198.713ZM202.074 191.302L196.942 185.229L199.886 183.266L206.851 192.708L204.168 194.497L190.083 189.801L193.027 187.839L202.074 191.302ZM216.689 186.404C215.144 187.435 213.414 187.958 211.5 187.974C209.581 187.986 207.833 187.463 206.256 186.404L205.979 186.218C204.922 185.508 204.181 184.739 203.754 183.91C203.334 183.078 203.274 182.259 203.576 181.455C203.873 180.647 204.501 179.923 205.462 179.282C206.903 178.321 208.494 177.871 210.234 177.932C211.974 177.986 213.676 178.571 215.339 179.688L216.491 180.462L209.771 184.942C210.551 185.342 211.377 185.529 212.25 185.503C213.123 185.478 213.91 185.231 214.611 184.764C215.699 184.039 216.154 183.21 215.976 182.277L218.907 182.387C219.085 183.072 218.98 183.768 218.592 184.475C218.203 185.175 217.569 185.818 216.689 186.404ZM207.731 180.818C207.17 181.192 206.903 181.621 206.931 182.105C206.96 182.589 207.277 183.1 207.883 183.639L211.807 181.022L211.582 180.871C210.947 180.46 210.294 180.25 209.623 180.241C208.958 180.228 208.328 180.421 207.731 180.818ZM220.459 173.075C220.025 173.295 219.664 173.501 219.374 173.694C218.303 174.408 217.964 175.117 218.356 175.822L225.242 180.447L222.429 182.323L211.905 175.254L214.561 173.483L215.895 174.274C215.493 173.244 215.792 172.396 216.793 171.728C217.106 171.52 217.441 171.354 217.8 171.231L220.459 173.075Z" fill="black"/>
<path d="M190.706 85.1575C190.543 84.8539 190.543 84.5373 190.706 84.4504L193.353 83.0334C193.516 82.9465 193.779 83.1221 193.941 83.4257C194.104 83.7292 194.104 84.0458 193.941 84.1328L191.588 85.3923L193.941 89.7896C194.104 90.0932 194.104 90.4098 193.941 90.4967C193.779 90.5837 193.516 90.4081 193.353 90.1045L190.706 85.1575ZM245.083 121.556L191 85.5V84.5L245.083 120.556V121.556Z" fill="black"/>
<path d="M42.7057 164.613C42.5433 164.526 42.5433 164.209 42.7057 163.906L45.3533 158.959C45.5158 158.655 45.7792 158.48 45.9416 158.567C46.1041 158.653 46.1041 158.97 45.9416 159.274L43.5883 163.671L45.9416 164.93C46.1041 165.017 46.1041 165.334 45.9416 165.638C45.7792 165.941 45.5158 166.117 45.3533 166.03L42.7057 164.613ZM89.5947 133.5L42.9999 164.563V163.563L89.5947 132.5V133.5Z" fill="black"/>
<path d="M171.889 80.4503C172.051 80.5373 172.051 80.8539 171.889 81.1574L169.241 86.1045C169.079 86.408 168.815 86.5836 168.653 86.4967C168.491 86.4097 168.491 86.0932 168.653 85.7896L171.006 81.3922L168.653 80.1327C168.491 80.0458 168.491 79.7292 168.653 79.4256C168.815 79.1221 169.079 78.9464 169.241 79.0334L171.889 80.4503ZM171.595 81.5L125 112.563V111.563L171.595 80.5V81.5Z" fill="black"/>
<path d="M365.377 199.954C365.54 200.257 365.54 200.574 365.377 200.661L362.73 202.078C362.567 202.165 362.304 201.989 362.141 201.685C361.979 201.382 361.979 201.065 362.141 200.978L364.495 199.719L362.141 195.321C361.979 195.018 361.979 194.701 362.141 194.614C362.304 194.527 362.567 194.703 362.73 195.007L365.377 199.954ZM365.083 200.611L311 164.556V163.556L365.083 199.611V200.611Z" fill="black"/>
<path d="M158.736 349.01C158.945 348.964 159.158 348.936 159.376 348.927C159.437 348.922 159.497 348.92 159.557 348.92C159.71 348.92 159.877 348.932 160.058 348.955C160.243 348.978 160.438 349.022 160.642 349.087C160.851 349.152 161.05 349.235 161.241 349.337L160.608 351.007C160.366 350.9 160.116 350.828 159.856 350.791C159.745 350.777 159.636 350.77 159.529 350.77C159.376 350.77 159.223 350.784 159.07 350.812C158.912 350.826 158.743 350.872 158.562 350.951C158.381 351.03 158.201 351.132 158.02 351.257C157.843 351.378 157.672 351.519 157.505 351.682C157.343 351.839 157.199 352.009 157.074 352.19C156.948 352.366 156.846 352.549 156.768 352.739C156.693 352.925 156.656 353.106 156.656 353.282C156.656 353.481 156.703 353.639 156.795 353.755C156.893 353.866 157.02 353.959 157.178 354.033C157.34 354.103 157.526 354.161 157.734 354.207C157.943 354.249 158.161 354.3 158.388 354.36C158.667 354.425 158.947 354.499 159.23 354.583C159.513 354.666 159.768 354.782 159.995 354.93C160.223 355.074 160.403 355.264 160.538 355.501C160.654 355.71 160.712 355.967 160.712 356.273C160.712 356.315 160.71 356.359 160.705 356.405C160.677 356.892 160.566 357.321 160.371 357.692C160.176 358.068 159.923 358.392 159.613 358.666C159.302 358.94 158.947 359.167 158.548 359.348C158.15 359.533 157.732 359.682 157.296 359.793C156.86 359.904 156.42 359.983 155.974 360.03C155.529 360.076 155.105 360.099 154.701 360.099C153.885 360.099 153.139 359.99 152.461 359.772C151.789 359.554 151.221 359.23 150.757 358.798C150.293 358.372 149.957 357.838 149.748 357.198C149.609 356.781 149.54 356.319 149.54 355.814C149.54 355.545 149.558 355.267 149.595 354.979C149.632 354.673 149.683 354.362 149.748 354.047C149.813 353.732 149.883 353.428 149.957 353.136C150.031 352.839 150.108 352.558 150.187 352.294C150.266 352.03 150.337 351.798 150.402 351.598C150.467 351.399 150.523 351.237 150.569 351.111C150.616 350.986 150.643 350.914 150.653 350.896L152.183 351.515C152.072 351.863 151.97 352.19 151.877 352.496C151.784 352.797 151.701 353.094 151.627 353.386C151.552 353.678 151.485 353.973 151.425 354.27C151.369 354.562 151.321 354.872 151.279 355.202C151.26 355.355 151.251 355.503 151.251 355.647C151.251 355.976 151.314 356.303 151.439 356.628C151.569 356.957 151.789 357.247 152.1 357.497C152.415 357.752 152.795 357.943 153.241 358.068C153.686 358.193 154.173 358.256 154.701 358.256C155.318 358.256 155.891 358.207 156.42 358.11C156.953 358.017 157.414 357.892 157.804 357.734C158.198 357.576 158.511 357.398 158.743 357.198C158.98 357.003 159.112 356.802 159.14 356.593C159.135 356.551 159.091 356.512 159.008 356.475C158.924 356.438 158.82 356.401 158.694 356.363C158.569 356.331 158.43 356.296 158.277 356.259C158.129 356.227 157.985 356.192 157.846 356.155C157.456 356.057 157.094 355.946 156.761 355.821C156.427 355.7 156.137 355.54 155.891 355.341C155.645 355.141 155.453 354.889 155.314 354.583C155.174 354.277 155.105 353.892 155.105 353.428C155.128 352.918 155.235 352.421 155.425 351.939C155.615 351.457 155.87 351.019 156.19 350.624C156.515 350.226 156.893 349.885 157.324 349.602C157.755 349.319 158.226 349.122 158.736 349.01ZM162.697 352.475C162.874 352.586 163.085 352.7 163.33 352.816C163.581 352.932 163.838 353.036 164.103 353.129C164.372 353.221 164.634 353.298 164.889 353.358C165.148 353.419 165.376 353.449 165.57 353.449C165.649 353.449 165.747 353.446 165.863 353.442C165.979 353.437 166.101 353.428 166.231 353.414C166.361 353.395 166.491 353.37 166.621 353.337C166.751 353.3 166.867 353.252 166.969 353.191C167.075 353.126 167.161 353.048 167.226 352.955C167.291 352.857 167.326 352.739 167.33 352.6C167.33 352.591 167.33 352.584 167.33 352.579C167.33 352.394 167.277 352.185 167.17 351.953C167.068 351.717 166.927 351.471 166.746 351.216C166.565 350.956 166.357 350.696 166.12 350.437C165.883 350.177 165.638 349.929 165.383 349.692C165.128 349.451 164.87 349.231 164.61 349.031C164.355 348.827 164.117 348.656 163.894 348.517L164.93 346.979C165.357 347.271 165.777 347.601 166.19 347.967C166.607 348.333 166.99 348.725 167.337 349.143C167.69 349.555 167.994 349.987 168.249 350.437C168.508 350.886 168.694 351.341 168.805 351.8C168.865 352.064 168.896 352.317 168.896 352.558C168.896 352.79 168.852 353.068 168.763 353.393C168.68 353.718 168.488 354.038 168.186 354.353C167.885 354.664 167.502 354.903 167.038 355.07C166.639 355.213 166.201 355.285 165.723 355.285C165.645 355.285 165.563 355.283 165.48 355.278C165.174 355.278 164.863 355.248 164.548 355.188C164.232 355.132 163.922 355.053 163.616 354.951C163.314 354.849 163.022 354.733 162.739 354.603C162.461 354.469 162.201 354.328 161.96 354.179L162.697 352.475ZM169.797 358.339C170.479 358.205 171.093 358.024 171.64 357.797C172.192 357.574 172.67 357.323 173.073 357.045C173.477 356.767 173.804 356.47 174.054 356.155C174.309 355.839 174.479 355.524 174.562 355.209C174.186 355.209 173.82 355.197 173.463 355.174C173.106 355.151 172.767 355.104 172.447 355.035C172.132 354.97 171.84 354.877 171.571 354.757C171.306 354.631 171.077 354.469 170.882 354.27C170.692 354.066 170.543 353.82 170.437 353.532C170.33 353.245 170.277 352.901 170.277 352.503C170.277 352.248 170.305 351.981 170.36 351.703C170.416 351.424 170.495 351.153 170.597 350.889C170.703 350.62 170.833 350.367 170.986 350.13C171.139 349.889 171.316 349.678 171.515 349.497C171.714 349.312 171.935 349.166 172.176 349.059C172.417 348.952 172.677 348.899 172.955 348.899C173.674 348.899 174.33 349.219 174.924 349.859C175.119 350.077 175.295 350.321 175.452 350.59C175.61 350.859 175.747 351.146 175.863 351.452C175.979 351.758 176.072 352.078 176.141 352.412C176.215 352.741 176.262 353.08 176.28 353.428H176.746V355.209H176.134C175.976 355.895 175.71 356.512 175.334 357.059C174.959 357.611 174.506 358.091 173.978 358.499C173.454 358.907 172.869 359.243 172.225 359.508C171.58 359.772 170.91 359.962 170.214 360.078L169.797 358.339ZM172.955 350.687C172.834 350.687 172.705 350.738 172.565 350.84C172.426 350.942 172.299 351.074 172.183 351.237C172.067 351.394 171.97 351.57 171.891 351.765C171.816 351.96 171.779 352.15 171.779 352.336C171.779 352.53 171.823 352.693 171.912 352.823C172.004 352.952 172.12 353.057 172.259 353.136C172.403 353.214 172.563 353.275 172.739 353.317C172.92 353.354 173.099 353.379 173.275 353.393C173.372 353.402 173.479 353.409 173.595 353.414C173.711 353.414 173.829 353.416 173.95 353.421C174.075 353.426 174.198 353.428 174.319 353.428C174.439 353.428 174.553 353.428 174.659 353.428C174.645 353.256 174.611 353.071 174.555 352.871C174.504 352.667 174.437 352.463 174.353 352.259C174.27 352.055 174.175 351.86 174.068 351.675C173.961 351.485 173.845 351.318 173.72 351.174C173.6 351.026 173.474 350.907 173.345 350.819C173.215 350.731 173.085 350.687 172.955 350.687ZM179.948 352.489C180.101 352.554 180.298 352.635 180.539 352.732C180.78 352.83 181.04 352.927 181.318 353.024C181.596 353.122 181.877 353.21 182.16 353.289C182.447 353.363 182.709 353.409 182.946 353.428C182.9 353.233 182.851 353.031 182.8 352.823C182.753 352.609 182.7 352.403 182.64 352.203C182.58 352.004 182.512 351.816 182.438 351.64C182.364 351.459 182.276 351.301 182.174 351.167C182.076 351.032 181.963 350.926 181.833 350.847C181.703 350.768 181.557 350.729 181.395 350.729C181.209 350.729 181.042 350.789 180.894 350.91C180.75 351.03 180.618 351.181 180.497 351.362C180.381 351.538 180.277 351.728 180.184 351.932C180.096 352.136 180.017 352.322 179.948 352.489ZM182.591 355.188C182.35 355.183 182.067 355.148 181.742 355.083C181.418 355.023 181.086 354.942 180.748 354.84C180.414 354.738 180.091 354.622 179.781 354.492C179.475 354.362 179.215 354.226 179.002 354.082C178.821 354.263 178.644 354.423 178.473 354.562C178.301 354.701 178.123 354.819 177.937 354.917C177.752 355.009 177.55 355.081 177.332 355.132C177.119 355.183 176.875 355.209 176.602 355.209H176.462V353.428H176.602C176.94 353.428 177.223 353.365 177.45 353.24C177.678 353.11 177.872 352.943 178.035 352.739C178.197 352.535 178.338 352.306 178.459 352.05C178.584 351.795 178.712 351.54 178.842 351.285C178.971 351.016 179.12 350.747 179.287 350.478C179.454 350.209 179.642 349.968 179.85 349.755C180.064 349.537 180.302 349.361 180.567 349.226C180.831 349.092 181.128 349.024 181.457 349.024C181.889 349.024 182.25 349.101 182.542 349.254C182.839 349.402 183.085 349.609 183.28 349.873C183.479 350.133 183.637 350.439 183.753 350.791C183.869 351.144 183.966 351.524 184.045 351.932C184.091 352.169 184.135 352.38 184.177 352.565C184.219 352.746 184.265 352.901 184.316 353.031C184.372 353.161 184.43 353.261 184.49 353.33C184.555 353.395 184.632 353.428 184.72 353.428H184.935V355.209H184.671C184.416 355.204 184.189 355.134 183.989 355C183.795 354.861 183.614 354.678 183.447 354.45C183.396 354.497 183.335 354.559 183.266 354.638C183.201 354.717 183.129 354.796 183.05 354.875C182.976 354.949 182.9 355.016 182.821 355.077C182.742 355.137 182.665 355.174 182.591 355.188ZM190.883 351.125C190.716 350.93 190.521 350.754 190.299 350.597C190.113 350.462 189.897 350.341 189.652 350.235C189.406 350.123 189.137 350.068 188.845 350.068C188.608 350.068 188.399 350.105 188.219 350.179C188.038 350.249 187.885 350.346 187.759 350.471C187.634 350.592 187.537 350.733 187.467 350.896C187.398 351.058 187.356 351.232 187.342 351.417C187.337 351.45 187.335 351.482 187.335 351.515C187.335 351.733 187.393 351.946 187.509 352.155C187.625 352.359 187.787 352.542 187.996 352.704C188.205 352.862 188.446 352.983 188.719 353.066C188.942 353.136 189.167 353.17 189.394 353.17C189.445 353.17 189.496 353.168 189.547 353.163C189.816 353.145 190.085 353.117 190.354 353.08C190.628 353.038 190.876 352.999 191.099 352.962L191.843 352.816L192.059 354.548C191.771 354.622 191.449 354.699 191.092 354.777C190.735 354.856 190.324 354.928 189.86 354.993C189.401 355.053 188.879 355.104 188.295 355.146C187.711 355.188 187.048 355.209 186.306 355.209H184.65V353.428H184.956L186.285 353.421C186.034 353.129 185.863 352.83 185.77 352.523C185.682 352.213 185.638 351.872 185.638 351.501C185.638 351.065 185.719 350.652 185.881 350.263C186.044 349.873 186.266 349.532 186.549 349.24C186.837 348.948 187.175 348.716 187.565 348.544C187.959 348.373 188.386 348.287 188.845 348.287C189.072 348.287 189.29 348.308 189.499 348.35C189.712 348.391 189.914 348.447 190.104 348.517C190.294 348.586 190.473 348.665 190.639 348.753C190.811 348.841 190.966 348.929 191.106 349.017C191.268 349.124 191.426 349.238 191.579 349.358C191.732 349.479 191.875 349.606 192.01 349.741L190.883 351.125ZM203.329 359.744C202.531 359.744 201.794 359.645 201.116 359.445C200.439 359.25 199.862 358.954 199.384 358.555C198.907 358.161 198.547 357.664 198.306 357.066C198.111 356.598 198.014 356.067 198.014 355.473C198.014 355.315 198.021 355.153 198.035 354.986C198.063 354.666 198.1 354.339 198.146 354.005C198.197 353.671 198.264 353.321 198.348 352.955C198.436 352.584 198.547 352.192 198.682 351.779C198.816 351.366 198.983 350.921 199.183 350.443L200.616 351.104C200.425 351.577 200.268 352.016 200.143 352.419C200.017 352.818 199.918 353.189 199.843 353.532C199.774 353.875 199.725 354.198 199.697 354.499C199.669 354.801 199.656 355.09 199.656 355.369C199.656 355.703 199.697 356.002 199.781 356.266C199.869 356.53 199.98 356.767 200.115 356.976C200.296 357.221 200.523 357.409 200.796 357.539C201.07 357.674 201.358 357.771 201.659 357.831C201.965 357.892 202.264 357.926 202.556 357.936C202.853 357.95 203.111 357.957 203.329 357.957C203.458 357.957 203.646 357.947 203.892 357.929C204.143 357.91 204.414 357.878 204.706 357.831C205.003 357.785 205.307 357.725 205.617 357.65C205.928 357.576 206.209 357.483 206.459 357.372C206.714 357.261 206.92 357.131 207.078 356.983C207.24 356.834 207.322 356.66 207.322 356.461C207.322 356.428 207.28 356.377 207.196 356.308C207.118 356.243 207.006 356.169 206.863 356.085C206.723 356.002 206.559 355.914 206.369 355.821C206.178 355.733 205.974 355.647 205.756 355.563C205.436 355.457 205.119 355.378 204.803 355.327C204.488 355.276 204.175 355.223 203.864 355.167L204.101 353.428H209.624V355.209H208.323C208.509 355.436 208.632 355.659 208.692 355.877C208.757 356.099 208.792 356.294 208.796 356.461C208.778 356.869 208.674 357.233 208.483 357.553C208.293 357.878 208.047 358.161 207.746 358.402C207.449 358.648 207.111 358.854 206.73 359.021C206.35 359.192 205.96 359.332 205.562 359.438C205.163 359.545 204.769 359.621 204.379 359.668C203.994 359.719 203.644 359.744 203.329 359.744ZM209.645 353.428C209.882 353.428 210.104 353.381 210.313 353.289C210.526 353.191 210.728 353.02 210.918 352.774C211.113 352.523 211.294 352.183 211.461 351.751C211.632 351.32 211.795 350.768 211.948 350.096L213.652 350.576C213.541 350.961 213.441 351.332 213.353 351.689C213.265 352.041 213.216 352.345 213.207 352.6C213.207 352.623 213.207 352.644 213.207 352.663C213.207 352.746 213.214 352.834 213.228 352.927C213.246 353.02 213.277 353.106 213.318 353.184C213.36 353.263 213.416 353.326 213.485 353.372C213.55 353.414 213.622 353.435 213.701 353.435C213.71 353.435 213.719 353.435 213.729 353.435C213.9 353.43 214.063 353.368 214.216 353.247C214.369 353.126 214.51 352.971 214.64 352.781C214.775 352.591 214.895 352.375 215.002 352.134C215.113 351.893 215.21 351.649 215.294 351.403C215.382 351.153 215.456 350.91 215.517 350.673C215.577 350.437 215.623 350.228 215.656 350.047L217.297 350.381C217.237 350.659 217.188 350.917 217.151 351.153C217.114 351.385 217.091 351.619 217.082 351.856C217.077 351.916 217.075 351.976 217.075 352.037C217.075 352.152 217.082 352.289 217.096 352.447C217.114 352.6 217.154 352.751 217.214 352.899C217.274 353.048 217.358 353.17 217.464 353.268C217.576 353.361 217.719 353.407 217.896 353.407C218.095 353.407 218.255 353.33 218.376 353.177C218.501 353.02 218.596 352.82 218.661 352.579C218.726 352.338 218.768 352.071 218.786 351.779C218.809 351.482 218.821 351.195 218.821 350.917C218.821 350.828 218.819 350.759 218.814 350.708C218.814 350.652 218.814 350.601 218.814 350.555C218.814 350.508 218.812 350.457 218.807 350.402C218.807 350.341 218.807 350.26 218.807 350.158L220.567 350.019C220.581 350.172 220.595 350.323 220.609 350.471C220.623 350.615 220.637 350.766 220.65 350.923C220.664 351.077 220.681 351.241 220.699 351.417C220.722 351.589 220.748 351.777 220.776 351.981C220.808 352.222 220.875 352.433 220.977 352.614C221.084 352.795 221.207 352.946 221.346 353.066C221.485 353.187 221.634 353.277 221.791 353.337C221.954 353.398 222.107 353.428 222.25 353.428H222.508V355.209H222.285C222.058 355.209 221.833 355.186 221.61 355.139C221.392 355.093 221.184 355.021 220.984 354.923C220.785 354.826 220.597 354.703 220.421 354.555C220.249 354.402 220.099 354.221 219.969 354.012C219.746 354.374 219.454 354.664 219.092 354.882C218.73 355.1 218.332 355.209 217.896 355.209C217.46 355.209 217.063 355.104 216.706 354.896C216.354 354.687 216.073 354.409 215.864 354.061C215.73 354.232 215.584 354.39 215.426 354.534C215.273 354.673 215.106 354.796 214.925 354.903C214.749 355.005 214.561 355.083 214.362 355.139C214.162 355.199 213.954 355.23 213.736 355.23C213.527 355.23 213.325 355.202 213.13 355.146C212.936 355.095 212.755 355.019 212.588 354.917C212.421 354.814 212.27 354.692 212.136 354.548C212.001 354.399 211.89 354.235 211.802 354.054C211.57 354.462 211.285 354.757 210.946 354.937C210.608 355.118 210.176 355.209 209.652 355.209H209.353V353.428H209.645ZM228.433 353.428V355.209H228.294C227.844 355.209 227.464 355.137 227.153 354.993C226.843 354.849 226.578 354.664 226.36 354.437C226.207 354.631 225.98 354.782 225.678 354.889C225.382 354.991 225.05 355.065 224.684 355.111C224.317 355.162 223.939 355.19 223.55 355.195C223.165 355.204 222.81 355.209 222.485 355.209H222.228V353.428H222.485C223.028 353.428 223.485 353.398 223.856 353.337C224.227 353.272 224.526 353.18 224.753 353.059C224.985 352.939 225.152 352.788 225.254 352.607C225.356 352.421 225.407 352.208 225.407 351.967C225.407 351.809 225.377 351.601 225.317 351.341C225.256 351.077 225.166 350.738 225.045 350.325L226.757 349.845C226.817 350.049 226.863 350.23 226.896 350.388C226.933 350.541 226.961 350.696 226.979 350.854C227.003 351.007 227.021 351.174 227.035 351.355C227.054 351.531 227.072 351.742 227.091 351.988C227.105 352.136 227.139 352.296 227.195 352.468C227.251 352.635 227.327 352.79 227.425 352.934C227.527 353.073 227.65 353.191 227.793 353.289C227.937 353.381 228.104 353.428 228.294 353.428H228.433ZM224.816 357.268L223.633 358.45L222.437 357.261L223.619 356.071L224.816 357.268ZM227.445 357.275L226.263 358.464L225.066 357.268L226.249 356.085L227.445 357.275ZM228.15 353.428H228.658C228.825 353.428 228.98 353.414 229.124 353.386C229.268 353.358 229.395 353.3 229.506 353.212C229.618 353.119 229.708 352.992 229.778 352.83C229.847 352.667 229.891 352.449 229.91 352.176C229.91 352.069 229.912 351.883 229.917 351.619C229.926 351.35 229.933 351.032 229.938 350.666C229.942 350.295 229.947 349.889 229.952 349.449C229.956 349.008 229.959 348.558 229.959 348.099C229.959 347.742 229.956 347.392 229.952 347.049C229.952 346.701 229.947 346.367 229.938 346.047C229.933 345.727 229.922 345.426 229.903 345.143C229.889 344.86 229.868 344.602 229.84 344.37L231.614 344.141C231.647 344.391 231.672 344.674 231.691 344.99C231.709 345.305 231.723 345.641 231.733 345.998C231.746 346.351 231.753 346.722 231.753 347.111C231.758 347.496 231.76 347.886 231.76 348.28C231.76 349.157 231.751 349.919 231.733 350.569C231.719 351.218 231.712 351.793 231.712 352.294C231.712 352.646 231.802 352.925 231.983 353.129C232.164 353.328 232.433 353.428 232.79 353.428H232.943V355.209H232.79C232.762 355.209 232.737 355.209 232.713 355.209C232.533 355.209 232.354 355.192 232.178 355.16C232.006 355.132 231.839 355.088 231.677 355.028C231.519 354.972 231.373 354.905 231.239 354.826C231.104 354.747 230.986 354.666 230.884 354.583C230.749 354.712 230.601 354.819 230.439 354.903C230.281 354.981 230.119 355.044 229.952 355.09C229.785 355.137 229.62 355.167 229.458 355.181C229.295 355.199 229.149 355.209 229.019 355.209H228.15V353.428ZM232.666 353.428H234.829C235.098 353.428 235.339 353.395 235.553 353.33C235.77 353.266 235.954 353.182 236.102 353.08C236.25 352.973 236.364 352.853 236.443 352.718C236.526 352.579 236.568 352.438 236.568 352.294C236.568 352.071 236.524 351.83 236.436 351.57C236.348 351.306 236.23 351.039 236.081 350.77C235.937 350.497 235.766 350.223 235.566 349.95C235.372 349.671 235.165 349.407 234.947 349.157C234.729 348.901 234.504 348.665 234.273 348.447C234.045 348.229 233.827 348.037 233.619 347.87L233.786 345.908L239.873 343.334L240.519 344.927L235.267 347.083C235.624 347.394 235.935 347.703 236.199 348.009C236.468 348.31 236.707 348.614 236.916 348.92C237.129 349.221 237.322 349.525 237.493 349.831C237.665 350.137 237.832 350.446 237.994 350.757C238.11 350.979 238.226 351.197 238.342 351.41C238.458 351.624 238.583 351.842 238.718 352.064V352.057C238.843 352.266 238.975 352.454 239.114 352.621C239.258 352.788 239.411 352.932 239.573 353.052C239.74 353.173 239.921 353.266 240.116 353.33C240.315 353.395 240.533 353.428 240.77 353.428H241.208V355.209H241.006C240.635 355.209 240.299 355.183 239.998 355.132C239.696 355.081 239.416 355 239.156 354.889C238.901 354.777 238.66 354.636 238.433 354.464C238.21 354.288 237.99 354.077 237.772 353.831C237.609 354.072 237.426 354.279 237.222 354.45C237.018 354.617 236.798 354.757 236.561 354.868C236.325 354.974 236.074 355.053 235.81 355.104C235.55 355.16 235.281 355.195 235.003 355.209H232.666V353.428ZM239.657 342.68L233.786 345.073L233.834 344.176L239.316 341.97L239.657 342.68ZM240.931 353.428H242.051C242.269 353.428 242.492 353.416 242.719 353.393C242.951 353.365 243.16 353.312 243.345 353.233C243.531 353.15 243.681 353.031 243.797 352.878C243.918 352.725 243.978 352.521 243.978 352.266C243.978 352.146 243.953 351.976 243.902 351.758C243.851 351.54 243.783 351.299 243.7 351.035C243.616 350.77 243.517 350.497 243.401 350.214C243.289 349.931 243.171 349.667 243.046 349.421L244.653 348.628C244.769 348.892 244.885 349.173 245.001 349.47C245.117 349.766 245.219 350.072 245.307 350.388C245.4 350.699 245.474 351.012 245.529 351.327C245.585 351.642 245.613 351.951 245.613 352.252C245.613 352.772 245.525 353.219 245.349 353.595C245.172 353.966 244.927 354.272 244.611 354.513C244.296 354.75 243.918 354.923 243.477 355.035C243.041 355.151 242.561 355.209 242.037 355.209H240.931V353.428ZM244.486 346.27L243.15 347.605L241.822 346.27L243.15 344.941L244.486 346.27ZM248.829 344.141C248.944 345.027 249.026 345.873 249.072 346.68C249.118 347.482 249.146 348.268 249.155 349.038C249.165 349.692 249.167 350.297 249.162 350.854C249.162 351.41 249.158 351.93 249.149 352.412C249.139 352.89 249.125 353.337 249.107 353.755C249.088 354.168 249.07 354.555 249.051 354.917L247.229 355.195C247.326 353.664 247.375 352.312 247.375 351.139C247.375 350.666 247.368 350.223 247.354 349.81C247.317 348.86 247.275 347.967 247.229 347.132C247.182 346.293 247.12 345.49 247.041 344.725L248.829 344.141Z" fill="black"/>
</svg>
