<svg width="400" height="400" viewBox="0 0 400 400" fill="none" xmlns="http://www.w3.org/2000/svg">
<rect width="400" height="400" fill="white"/>
<path d="M173.047 53.7443C172.25 53.7443 171.512 53.6446 170.835 53.4452C170.158 53.2504 169.581 52.9536 169.103 52.5548C168.625 52.1606 168.266 51.6643 168.025 51.0661C167.83 50.5977 167.733 50.0667 167.733 49.473C167.733 49.3154 167.74 49.153 167.753 48.9861C167.781 48.6661 167.818 48.3391 167.865 48.0052C167.916 47.6713 167.983 47.3212 168.066 46.9548C168.155 46.5838 168.266 46.1919 168.4 45.7791C168.535 45.3664 168.702 44.9212 168.901 44.4435L170.334 45.1043C170.144 45.5774 169.986 46.0157 169.861 46.4191C169.736 46.818 169.636 47.189 169.562 47.5322C169.493 47.8754 169.444 48.1977 169.416 48.4991C169.388 48.8006 169.374 49.0904 169.374 49.3687C169.374 49.7026 169.416 50.0017 169.5 50.2661C169.588 50.5304 169.699 50.767 169.833 50.9757C170.014 51.2214 170.242 51.4093 170.515 51.5391C170.789 51.6736 171.076 51.771 171.378 51.8313C171.684 51.8916 171.983 51.9264 172.275 51.9357C172.572 51.9496 172.829 51.9565 173.047 51.9565C173.177 51.9565 173.365 51.9472 173.611 51.9287C173.861 51.9101 174.133 51.8777 174.425 51.8313C174.722 51.7849 175.025 51.7246 175.336 51.6504C175.647 51.5762 175.927 51.4835 176.178 51.3722C176.433 51.2609 176.639 51.131 176.797 50.9826C176.959 50.8342 177.04 50.6603 177.04 50.4609C177.04 50.4284 176.999 50.3774 176.915 50.3078C176.836 50.2429 176.725 50.1687 176.581 50.0852C176.442 50.0017 176.277 49.9136 176.087 49.8209C175.897 49.7328 175.693 49.647 175.475 49.5635C175.155 49.4568 174.837 49.378 174.522 49.327C174.207 49.2759 173.894 49.2226 173.583 49.167L173.82 47.4278H179.343V49.2087H178.042C178.228 49.4359 178.351 49.6586 178.411 49.8765C178.476 50.0991 178.511 50.2939 178.515 50.4609C178.497 50.869 178.392 51.233 178.202 51.553C178.012 51.8777 177.766 52.1606 177.465 52.4017C177.168 52.6475 176.829 52.8539 176.449 53.0209C176.069 53.1925 175.679 53.3316 175.28 53.4383C174.882 53.5449 174.487 53.6214 174.098 53.6678C173.713 53.7188 173.363 53.7443 173.047 53.7443ZM187.308 49.2087H187.065C186.708 49.2087 186.358 49.1948 186.014 49.167C185.676 49.1391 185.351 49.0881 185.041 49.0139C184.734 48.9443 184.442 48.8493 184.164 48.7287C183.886 48.6081 183.631 48.4528 183.399 48.2626C183.148 48.4388 182.856 48.5872 182.522 48.7078C182.193 48.8284 181.845 48.9258 181.479 49C181.117 49.0696 180.751 49.1206 180.38 49.153C180.009 49.1901 179.656 49.2087 179.322 49.2087H179.072V47.4278H179.315C179.515 47.4278 179.719 47.4209 179.927 47.407C180.141 47.393 180.349 47.3722 180.554 47.3443C180.762 47.3165 180.964 47.2841 181.159 47.247C181.358 47.2099 181.544 47.1658 181.715 47.1148C181.534 46.9339 181.363 46.7623 181.201 46.6C181.038 46.433 180.874 46.2684 180.707 46.1061C180.544 45.9391 180.373 45.7699 180.192 45.5983C180.016 45.422 179.823 45.2365 179.614 45.0417L179.712 43.5948C179.976 43.3629 180.245 43.1681 180.519 43.0104C180.797 42.8528 181.068 42.7252 181.333 42.6278C181.597 42.5258 181.852 42.4493 182.098 42.3983C182.344 42.3426 182.569 42.3055 182.773 42.287C182.981 42.2638 183.192 42.2522 183.406 42.2522C183.661 42.2522 183.974 42.2754 184.345 42.3217C184.716 42.3635 185.098 42.4725 185.493 42.6487C185.757 42.7646 185.97 42.8945 186.133 43.0383C186.3 43.1774 186.429 43.3188 186.522 43.4626C186.62 43.6017 186.687 43.7386 186.724 43.873C186.761 44.0029 186.782 44.1165 186.787 44.2139C186.791 44.2557 186.794 44.2951 186.794 44.3322C186.794 44.5177 186.754 44.731 186.675 44.9722C186.601 45.2087 186.485 45.4614 186.327 45.7304C186.174 45.9994 185.994 46.2614 185.785 46.5165C185.576 46.767 185.356 46.9919 185.124 47.1913C185.407 47.2701 185.713 47.3304 186.042 47.3722C186.372 47.4093 186.717 47.4278 187.079 47.4278H187.308V49.2087ZM181.472 44.4087C181.634 44.6081 181.806 44.8075 181.987 45.007C182.167 45.2017 182.344 45.3872 182.515 45.5635C182.687 45.7351 182.847 45.8951 182.995 46.0435C183.144 46.1872 183.269 46.3101 183.371 46.4122C183.529 46.3101 183.705 46.171 183.9 45.9948C184.099 45.8186 184.289 45.633 184.47 45.4383C184.651 45.2435 184.811 45.0533 184.95 44.8678C185.089 44.6823 185.18 44.5293 185.221 44.4087C185.11 44.3484 184.983 44.2928 184.839 44.2417C184.695 44.1907 184.542 44.149 184.38 44.1165C184.222 44.0794 184.06 44.0516 183.893 44.033C183.73 44.0099 183.573 43.9983 183.42 43.9983C183.276 43.9983 183.118 44.0099 182.947 44.033C182.775 44.0516 182.601 44.0794 182.425 44.1165C182.249 44.149 182.077 44.1907 181.91 44.2417C181.748 44.2928 181.602 44.3484 181.472 44.4087ZM187.192 47.4278C187.679 47.4278 188.147 47.4139 188.597 47.3861C189.047 47.3536 189.457 47.3096 189.828 47.2539C190.199 47.1983 190.519 47.131 190.788 47.0522C191.057 46.9733 191.259 46.8852 191.394 46.7878H190.684C190.276 46.7878 189.886 46.7368 189.515 46.6348C189.149 46.5281 188.827 46.3704 188.548 46.1617C188.27 45.953 188.048 45.6933 187.881 45.3826C187.718 45.0672 187.637 44.7009 187.637 44.2835C187.637 44.0377 187.663 43.7849 187.714 43.5252C187.765 43.2655 187.841 43.0128 187.943 42.767C188.045 42.5212 188.168 42.2893 188.312 42.0713C188.456 41.8533 188.62 41.6632 188.806 41.5009C188.991 41.3339 189.195 41.2041 189.418 41.1113C189.641 41.0139 189.882 40.9652 190.141 40.9652C190.461 40.9652 190.761 41.0325 191.039 41.167C191.317 41.3014 191.57 41.4846 191.797 41.7165C192.024 41.9438 192.226 42.2081 192.402 42.5096C192.579 42.811 192.727 43.1287 192.848 43.4626C192.968 43.7965 193.059 44.1374 193.119 44.4852C193.184 44.8284 193.216 45.1554 193.216 45.4661C193.216 45.9948 193.142 46.4539 192.994 46.8435C192.85 47.233 192.646 47.567 192.381 47.8452C192.122 48.1235 191.809 48.3507 191.442 48.527C191.081 48.7032 190.679 48.8423 190.239 48.9443C189.798 49.0464 189.325 49.1159 188.82 49.153C188.319 49.1901 187.799 49.2087 187.261 49.2087H187.025V47.4278H187.192ZM190.141 42.76C190.118 42.7554 190.095 42.753 190.072 42.753C189.979 42.753 189.872 42.7901 189.752 42.8643C189.631 42.9386 189.515 43.0452 189.404 43.1843C189.293 43.3235 189.202 43.4812 189.133 43.6574C189.063 43.829 189.028 43.9983 189.028 44.1652C189.028 44.1745 189.028 44.1838 189.028 44.193C189.028 44.36 189.066 44.4968 189.14 44.6035C189.214 44.7055 189.314 44.7843 189.439 44.84C189.569 44.8957 189.717 44.9351 189.884 44.9583C190.056 44.9814 190.237 44.9977 190.427 45.007C190.552 45.0116 190.682 45.0139 190.816 45.0139C190.881 45.0139 190.981 45.0139 191.115 45.0139C191.254 45.0093 191.396 45.0023 191.54 44.993C191.498 44.8261 191.438 44.6197 191.359 44.3739C191.285 44.1235 191.19 43.8823 191.074 43.6504C190.962 43.4139 190.828 43.2099 190.67 43.0383C190.517 42.8667 190.341 42.7739 190.141 42.76ZM189.974 38.8713L188.792 40.0539L187.595 38.8643L188.778 37.6748L189.974 38.8713ZM192.604 38.8783L191.421 40.0678L190.225 38.8713L191.408 37.6887L192.604 38.8783ZM197.594 44.5826C197.687 44.8748 197.782 45.1809 197.88 45.5009C197.982 45.8162 198.072 46.1362 198.151 46.4609C198.234 46.7855 198.302 47.1101 198.353 47.4348C198.404 47.7548 198.429 48.0678 198.429 48.3739C198.429 48.7913 198.364 49.1971 198.234 49.5913C198.109 49.9901 197.933 50.3728 197.706 50.7391C197.483 51.1101 197.216 51.4626 196.906 51.7965C196.6 52.1304 196.266 52.4458 195.904 52.7426C195.542 53.0394 195.16 53.3154 194.756 53.5704C194.353 53.8255 193.945 54.0551 193.532 54.2591L192.739 52.6661C193.068 52.5038 193.393 52.3229 193.713 52.1235C194.033 51.9287 194.336 51.72 194.624 51.4974C194.916 51.2748 195.185 51.0406 195.431 50.7948C195.681 50.549 195.895 50.2939 196.071 50.0296C196.252 49.7652 196.393 49.4939 196.495 49.2157C196.597 48.9374 196.648 48.6568 196.648 48.3739C196.648 48.1096 196.618 47.8313 196.558 47.5391C196.498 47.247 196.423 46.9594 196.335 46.6765C196.252 46.389 196.164 46.113 196.071 45.8487C195.983 45.5843 195.909 45.3501 195.848 45.1461L197.594 44.5826ZM208.4 52.8748C208.669 52.9212 208.94 52.9443 209.214 52.9443C209.283 52.9443 209.42 52.9397 209.624 52.9304C209.828 52.9212 210.09 52.8794 210.41 52.8052C210.73 52.731 211.036 52.6313 211.328 52.5061C211.625 52.3809 211.896 52.2371 212.142 52.0748L213.081 53.633C212.812 53.7954 212.534 53.9438 212.247 54.0783C211.964 54.2174 211.669 54.3357 211.363 54.433C211.062 54.5304 210.749 54.6046 210.424 54.6557C210.141 54.702 209.851 54.7252 209.554 54.7252C209.508 54.7252 209.459 54.7252 209.408 54.7252C208.972 54.7159 208.536 54.6696 208.101 54.5861C207.669 54.5026 207.256 54.382 206.862 54.2243C206.473 54.0667 206.109 53.8696 205.77 53.633C205.436 53.4012 205.144 53.1299 204.894 52.8191C204.648 52.513 204.453 52.1675 204.309 51.7826C204.165 51.4023 204.091 50.9803 204.087 50.5165C204.101 50.0203 204.193 49.5565 204.365 49.1252C204.536 48.6986 204.764 48.309 205.047 47.9565C205.334 47.5994 205.663 47.2817 206.034 47.0035C206.41 46.7252 206.807 46.4864 207.224 46.287C207.076 46.1478 206.923 46.011 206.765 45.8765C206.612 45.7374 206.463 45.6075 206.32 45.487C206.176 45.3617 206.041 45.2481 205.916 45.1461C205.791 45.0394 205.687 44.949 205.603 44.8748L205.471 43.3861C206.078 42.8574 206.732 42.4609 207.433 42.1965C208.138 41.9275 208.873 41.793 209.638 41.793C209.865 41.793 210.099 41.8093 210.341 41.8417C210.586 41.8742 210.825 41.9252 211.057 41.9948C211.289 42.0643 211.507 42.1548 211.711 42.2661C211.915 42.3774 212.094 42.5142 212.247 42.6765C212.4 42.8342 212.52 43.0174 212.608 43.2261C212.687 43.4301 212.727 43.6574 212.727 43.9078C212.727 43.9217 212.727 43.9357 212.727 43.9496C212.708 44.302 212.638 44.6174 212.518 44.8957C212.402 45.1739 212.249 45.4243 212.059 45.647C211.869 45.8696 211.648 46.069 211.398 46.2452C211.152 46.4214 210.89 46.5838 210.612 46.7322C210.987 46.9409 211.386 47.1101 211.808 47.24C212.235 47.3652 212.65 47.4278 213.054 47.4278H213.29V49.2087H213.054C212.669 49.2087 212.295 49.1693 211.934 49.0904C211.572 49.0116 211.215 48.9003 210.862 48.7565C210.51 48.6081 210.16 48.4342 209.812 48.2348C209.464 48.0307 209.114 47.8058 208.761 47.56C208.423 47.6945 208.08 47.8522 207.732 48.033C207.384 48.2093 207.066 48.418 206.779 48.6591C206.496 48.8957 206.264 49.1646 206.083 49.4661C205.902 49.7675 205.812 50.1084 205.812 50.4887C205.812 50.702 205.854 50.9061 205.937 51.1009C206.025 51.2957 206.139 51.4765 206.278 51.6435C206.417 51.8151 206.577 51.9704 206.758 52.1096C206.939 52.2533 207.124 52.3762 207.314 52.4783C207.509 52.5849 207.699 52.6707 207.885 52.7357C208.075 52.8052 208.247 52.8516 208.4 52.8748ZM209.645 43.4904C209.459 43.4904 209.265 43.5043 209.061 43.5322C208.856 43.5554 208.655 43.5901 208.455 43.6365C208.256 43.6783 208.063 43.7316 207.878 43.7965C207.697 43.8568 207.537 43.9241 207.398 43.9983C207.495 44.1003 207.604 44.2186 207.725 44.353C207.845 44.4829 207.973 44.6197 208.107 44.7635C208.247 44.9072 208.388 45.051 208.532 45.1948C208.676 45.3339 208.817 45.4638 208.956 45.5843C209.262 45.4545 209.547 45.3223 209.812 45.1878C210.076 45.0533 210.306 44.9165 210.501 44.7774C210.7 44.6336 210.858 44.4852 210.974 44.3322C211.089 44.1791 211.15 44.0214 211.154 43.8591C211.15 43.8406 211.12 43.8128 211.064 43.7757C211.008 43.7386 210.918 43.7014 210.793 43.6643C210.672 43.6226 210.517 43.5855 210.327 43.553C210.141 43.5206 209.914 43.4997 209.645 43.4904ZM213.009 47.4278H214.067L214.115 47.3374C214.194 47.1983 214.306 47.0151 214.449 46.7878C214.598 46.5559 214.783 46.2939 215.006 46.0017C215.048 45.7096 215.082 45.3409 215.11 44.8957C215.138 44.4504 215.154 43.9681 215.159 43.4487C215.159 43.1658 215.154 42.8759 215.145 42.5791C215.136 42.2777 215.117 41.9322 215.089 41.5426C215.061 41.153 215.022 40.6986 214.971 40.1791C214.925 39.6551 214.864 39.0313 214.79 38.3078L216.62 37.8348C216.74 38.7252 216.831 39.6388 216.891 40.5757C216.956 41.5125 216.988 42.44 216.988 43.3583V43.9217C217.239 43.7084 217.499 43.5043 217.768 43.3096C218.041 43.1148 218.324 42.9432 218.616 42.7948C218.913 42.6464 219.221 42.5281 219.541 42.44C219.861 42.3519 220.195 42.3078 220.543 42.3078C220.896 42.3078 221.23 42.3635 221.545 42.4748C221.86 42.5861 222.139 42.7484 222.38 42.9617C222.626 43.1704 222.827 43.4255 222.985 43.727C223.143 44.0284 223.24 44.367 223.277 44.7426C223.282 44.8122 223.284 44.8794 223.284 44.9443C223.284 45.4267 223.203 45.8765 223.041 46.2939C222.883 46.7113 222.649 47.0893 222.338 47.4278H224.3V49.2087H222.449C222.083 49.2087 221.675 49.1925 221.225 49.16C220.775 49.1275 220.277 49.0417 219.729 48.9026C219.335 49.0093 218.934 49.0858 218.526 49.1322C218.122 49.1832 217.717 49.2087 217.308 49.2087H213.009V47.4278ZM216.661 47.4278C216.944 47.4278 217.269 47.4209 217.635 47.407C218.006 47.393 218.387 47.3606 218.776 47.3096C219.166 47.2586 219.544 47.182 219.91 47.08C220.281 46.978 220.61 46.8412 220.898 46.6696C221.186 46.498 221.413 46.2823 221.58 46.0226C221.724 45.8 221.795 45.5357 221.795 45.2296C221.795 45.1878 221.793 45.1438 221.788 45.0974C221.779 44.9583 221.733 44.8284 221.649 44.7078C221.57 44.5872 221.459 44.4852 221.315 44.4017C221.176 44.3136 221.009 44.2441 220.815 44.193C220.648 44.1559 220.467 44.1374 220.272 44.1374C220.235 44.1374 220.195 44.1374 220.154 44.1374C219.922 44.1467 219.646 44.207 219.326 44.3183C219.006 44.4249 218.663 44.6058 218.296 44.8609C217.93 45.1159 217.55 45.4522 217.155 45.8696C216.761 46.287 216.376 46.8064 216.001 47.4278H216.661ZM224.192 47.4278C224.679 47.4278 225.147 47.4139 225.597 47.3861C226.047 47.3536 226.457 47.3096 226.828 47.2539C227.199 47.1983 227.519 47.131 227.788 47.0522C228.057 46.9733 228.259 46.8852 228.394 46.7878H227.684C227.276 46.7878 226.886 46.7368 226.515 46.6348C226.149 46.5281 225.827 46.3704 225.548 46.1617C225.27 45.953 225.048 45.6933 224.881 45.3826C224.718 45.0672 224.637 44.7009 224.637 44.2835C224.637 44.0377 224.663 43.7849 224.714 43.5252C224.765 43.2655 224.841 43.0128 224.943 42.767C225.045 42.5212 225.168 42.2893 225.312 42.0713C225.456 41.8533 225.62 41.6632 225.806 41.5009C225.991 41.3339 226.195 41.2041 226.418 41.1113C226.641 41.0139 226.882 40.9652 227.141 40.9652C227.461 40.9652 227.761 41.0325 228.039 41.167C228.317 41.3014 228.57 41.4846 228.797 41.7165C229.024 41.9438 229.226 42.2081 229.402 42.5096C229.579 42.811 229.727 43.1287 229.848 43.4626C229.968 43.7965 230.059 44.1374 230.119 44.4852C230.184 44.8284 230.216 45.1554 230.216 45.4661C230.216 45.9948 230.142 46.4539 229.994 46.8435C229.85 47.233 229.646 47.567 229.381 47.8452C229.122 48.1235 228.809 48.3507 228.442 48.527C228.081 48.7032 227.679 48.8423 227.239 48.9443C226.798 49.0464 226.325 49.1159 225.82 49.153C225.319 49.1901 224.799 49.2087 224.261 49.2087H224.025V47.4278H224.192ZM227.141 42.76C227.118 42.7554 227.095 42.753 227.072 42.753C226.979 42.753 226.872 42.7901 226.752 42.8643C226.631 42.9386 226.515 43.0452 226.404 43.1843C226.293 43.3235 226.202 43.4812 226.133 43.6574C226.063 43.829 226.028 43.9983 226.028 44.1652C226.028 44.1745 226.028 44.1838 226.028 44.193C226.028 44.36 226.066 44.4968 226.14 44.6035C226.214 44.7055 226.314 44.7843 226.439 44.84C226.569 44.8957 226.717 44.9351 226.884 44.9583C227.056 44.9814 227.237 44.9977 227.427 45.007C227.552 45.0116 227.682 45.0139 227.816 45.0139C227.881 45.0139 227.981 45.0139 228.115 45.0139C228.254 45.0093 228.396 45.0023 228.54 44.993C228.498 44.8261 228.438 44.6197 228.359 44.3739C228.285 44.1235 228.19 43.8823 228.074 43.6504C227.962 43.4139 227.828 43.2099 227.67 43.0383C227.517 42.8667 227.341 42.7739 227.141 42.76ZM226.974 38.8713L225.792 40.0539L224.595 38.8643L225.778 37.6748L226.974 38.8713ZM229.604 38.8783L228.421 40.0678L227.225 38.8713L228.408 37.6887L229.604 38.8783Z" fill="black"/>
<path d="M43.7864 219.172L231.876 103.544L363.87 191.54L176.005 317.718L43.7864 229.572L43.7864 219.172Z" fill="#E7E7E7" stroke="black"/>
<path d="M364.111 180.697L364.114 191.376L176.531 317.364L175.797 306.869L363.755 180.519L364.111 180.697Z" fill="#A3A3A3" stroke="black"/>
<rect x="0.000955552" y="0.556128" width="158.615" height="226.305" transform="matrix(0.83205 0.5547 -0.830139 0.557556 232.355 92.2455)" fill="#E7E7E7" stroke="black"/>
<path d="M176.006 306.718L167.798 301.247L355.663 175.069L363.87 180.54L176.006 306.718Z" fill="#A3A3A3" stroke="black"/>
<path d="M123.031 149.426C123.031 148.069 123.011 146.737 122.97 145.428C122.93 144.113 122.84 142.885 122.701 141.747C122.562 140.608 122.362 139.59 122.102 138.692C121.847 137.791 121.503 137.074 121.069 136.543L122.51 134.476C122.985 135.071 123.378 135.862 123.691 136.85C124.009 137.828 124.252 139.026 124.42 140.444C124.489 141.052 124.544 141.69 124.585 142.359C124.631 143.023 124.666 143.696 124.689 144.376C124.718 145.045 124.735 145.712 124.741 146.376C124.753 147.036 124.759 147.669 124.759 148.274L123.031 149.426ZM133.793 142.303C133.371 142.585 132.983 142.722 132.63 142.713C132.283 142.695 131.987 142.533 131.744 142.229L131.718 142.205C131.469 142.823 131.157 143.389 130.781 143.905C130.41 144.416 129.999 144.822 129.548 145.123C129.044 145.459 128.619 145.631 128.271 145.64C127.93 145.645 127.652 145.538 127.438 145.319C127.224 145.093 127.065 144.778 126.96 144.375C126.856 143.971 126.793 143.527 126.769 143.041C126.758 142.84 126.752 142.639 126.752 142.437C126.752 142.152 126.767 141.809 126.795 141.407C126.83 140.994 126.882 140.57 126.952 140.134C127.056 139.501 127.189 138.842 127.351 138.156C127.519 137.467 127.722 136.73 127.959 135.946C128.202 135.151 128.486 134.294 128.81 133.375C129.14 132.453 129.516 131.447 129.938 130.358L129.617 130.186L130.833 127.915C131.417 128.165 131.99 128.437 132.552 128.731C133.119 129.014 133.649 129.363 134.141 129.779C135.275 130.762 136.097 132.051 136.606 133.645C136.774 134.201 136.858 134.841 136.858 135.564C136.858 136.142 136.795 136.751 136.667 137.392C136.54 138.034 136.349 138.662 136.094 139.277C135.845 139.881 135.527 140.452 135.139 140.989C134.757 141.515 134.311 141.951 133.802 142.297L133.793 142.303ZM132.517 137.269C132.517 137.457 132.523 137.675 132.534 137.925C132.546 138.175 132.566 138.429 132.595 138.688C132.63 138.936 132.676 139.177 132.734 139.409C132.798 139.638 132.876 139.833 132.969 139.994C133.067 140.144 133.183 140.248 133.316 140.305C133.455 140.358 133.617 140.337 133.802 140.242C134.074 140.039 134.297 139.79 134.471 139.493C134.644 139.197 134.78 138.887 134.879 138.564C134.977 138.234 135.044 137.908 135.078 137.586C135.119 137.252 135.139 136.957 135.139 136.7C135.139 136.463 135.125 136.229 135.096 135.998C135.067 135.767 135.02 135.555 134.957 135.361C134.748 134.727 134.497 134.172 134.201 133.694C133.906 133.216 133.591 132.8 133.255 132.446C132.919 132.086 132.575 131.783 132.222 131.539C131.869 131.294 131.53 131.092 131.206 130.932C130.841 131.885 130.52 132.76 130.242 133.557C129.964 134.355 129.721 135.098 129.513 135.786C129.305 136.475 129.128 137.121 128.983 137.725C128.844 138.319 128.729 138.89 128.636 139.439C128.601 139.636 128.567 139.881 128.532 140.176C128.497 140.47 128.474 140.778 128.462 141.099C128.457 141.207 128.454 141.313 128.454 141.418C128.454 141.626 128.462 141.857 128.48 142.11C128.503 142.359 128.552 142.587 128.627 142.794C128.708 142.997 128.821 143.131 128.966 143.194C129.117 143.254 129.31 143.205 129.548 143.047C129.756 142.901 129.936 142.705 130.086 142.458C130.237 142.212 130.364 141.942 130.468 141.65C130.578 141.348 130.668 141.034 130.737 140.709C130.812 140.374 130.873 140.052 130.92 139.742C130.966 139.433 131.003 139.144 131.032 138.874C131.067 138.594 131.096 138.362 131.119 138.18L132.517 137.269Z" fill="black"/>
<path d="M290.664 118.38C290.664 117.024 290.643 115.664 290.603 114.302C290.562 112.932 290.473 111.585 290.334 110.261C290.195 108.937 289.995 107.653 289.735 106.408C289.48 105.167 289.136 103.991 288.702 102.881L290.143 102.736C290.617 103.963 291.011 105.28 291.324 106.685C291.642 108.086 291.885 109.609 292.053 111.251C292.122 111.951 292.177 112.663 292.218 113.385C292.264 114.112 292.299 114.831 292.322 115.542C292.351 116.25 292.368 116.939 292.374 117.611C292.386 118.287 292.391 118.927 292.391 119.532L290.664 118.38ZM300.315 117.072C299.771 116.709 299.238 116.264 298.717 115.736C298.202 115.204 297.751 114.594 297.363 113.904C297.432 114.291 297.49 114.726 297.537 115.209C297.589 115.696 297.629 116.207 297.658 116.741C297.693 117.272 297.719 117.818 297.736 118.379C297.754 118.94 297.765 119.49 297.771 120.03C297.783 120.573 297.788 121.095 297.788 121.596C297.788 122.097 297.788 122.553 297.788 122.963L296.061 121.811C296.061 120.455 296.04 119.095 296 117.733C295.959 116.363 295.87 115.016 295.731 113.692C295.592 112.368 295.392 111.084 295.132 109.839C294.877 108.598 294.533 107.422 294.098 106.312L295.54 106.177C295.742 106.709 295.933 107.253 296.113 107.811C296.292 108.369 296.448 108.915 296.582 109.449C296.709 109.117 296.883 108.85 297.102 108.649C297.328 108.451 297.586 108.324 297.875 108.266C298.165 108.202 298.477 108.209 298.813 108.286C299.154 108.368 299.507 108.52 299.872 108.742L300.02 108.84C300.373 109.076 300.749 109.396 301.148 109.802C301.548 110.207 301.956 110.715 302.373 111.327C302.633 111.703 302.847 112.037 303.015 112.329C303.183 112.622 303.325 112.873 303.441 113.083L302.199 113.695L302.112 113.533C302.048 113.421 301.965 113.278 301.86 113.104C301.762 112.934 301.64 112.742 301.496 112.527C301.357 112.316 301.203 112.106 301.036 111.897C300.868 111.687 300.694 111.492 300.515 111.309C300.381 111.179 300.237 111.062 300.08 110.957C300.023 110.919 299.921 110.858 299.777 110.776C299.638 110.697 299.452 110.643 299.221 110.614C298.995 110.589 298.798 110.621 298.631 110.711C298.468 110.804 298.344 110.955 298.257 111.161C298.194 111.32 298.162 111.515 298.162 111.744C298.162 111.821 298.165 111.899 298.17 111.98C298.228 112.338 298.324 112.67 298.457 112.974C298.59 113.272 298.749 113.545 298.934 113.793C299.125 114.039 299.34 114.262 299.577 114.462C299.756 114.616 299.944 114.759 300.141 114.89L300.315 115.006C300.529 115.142 300.749 115.271 300.975 115.394C301.2 115.509 301.42 115.607 301.635 115.687C301.849 115.768 302.054 115.825 302.251 115.858C302.448 115.892 302.63 115.892 302.798 115.858L303.562 118.058C303.064 118.164 302.543 118.123 301.999 117.934C301.455 117.745 300.894 117.458 300.315 117.072ZM305.627 131.486L304.611 129.964C305.219 129.346 305.537 128.505 305.566 127.439V125.477L307.329 126.652V128.353C307.329 129.139 307.166 129.817 306.842 130.387C306.524 130.968 306.119 131.334 305.627 131.486ZM316.762 120.252C316.762 120.266 316.77 120.341 316.788 120.478C316.805 120.608 316.822 120.779 316.84 120.993C316.857 121.199 316.871 121.431 316.883 121.69C316.889 121.867 316.892 122.047 316.892 122.228V122.499C316.869 124.09 316.553 125.111 315.945 125.562V125.551C315.355 126.013 314.553 125.907 313.54 125.232C313.263 125.046 313.011 124.858 312.785 124.665C312.565 124.47 312.345 124.247 312.125 123.996L312.195 124.616C312.264 125.316 312.319 126.028 312.36 126.75C312.406 127.47 312.441 128.185 312.464 128.896C312.493 129.604 312.51 130.298 312.516 130.976C312.527 131.652 312.533 132.292 312.533 132.898L310.805 131.746C310.805 130.64 310.797 129.535 310.779 128.431C310.762 127.32 310.716 126.225 310.641 125.145C310.565 124.059 310.452 122.996 310.302 121.956C310.157 120.913 309.955 119.909 309.694 118.942C309.573 118.485 309.442 118.04 309.303 117.607C309.165 117.173 309.008 116.718 308.835 116.24L310.285 116.101C310.377 116.344 310.461 116.584 310.536 116.822C310.617 117.057 310.696 117.3 310.771 117.552C310.852 117.801 310.933 118.064 311.014 118.34C311.095 118.617 311.185 118.917 311.283 119.24C311.416 119.697 311.546 120.118 311.674 120.502C311.807 120.883 311.957 121.237 312.125 121.565C312.299 121.896 312.496 122.194 312.716 122.459C312.941 122.721 313.216 122.96 313.54 123.176C314.021 123.496 314.383 123.56 314.626 123.367C314.736 123.288 314.825 123.17 314.895 123.015C314.964 122.852 315.019 122.67 315.06 122.467C315.106 122.268 315.138 122.053 315.155 121.821C315.173 121.589 315.181 121.359 315.181 121.129C315.181 120.83 315.167 120.532 315.138 120.234C315.115 119.94 315.089 119.693 315.06 119.493L316.762 120.252Z" fill="black"/>
<path d="M184.11 189.513C183.351 189.008 182.752 188.415 182.311 187.735C181.877 187.058 181.67 186.299 181.692 185.455L185.472 185.019C185.496 185.383 185.557 185.71 185.656 186C185.76 186.286 185.888 186.541 186.039 186.765C186.189 186.989 186.355 187.184 186.534 187.35C186.719 187.52 186.908 187.669 187.099 187.796C187.255 187.9 187.431 188.006 187.628 188.114C187.831 188.219 188.042 188.313 188.262 188.398C188.487 188.486 188.713 188.559 188.938 188.617C189.164 188.675 189.387 188.707 189.606 188.715C189.918 188.211 190.229 187.681 190.54 187.123C190.863 186.565 191.183 186.006 191.5 185.444C191.823 184.879 192.143 184.319 192.46 183.765C192.777 183.212 193.088 182.685 193.394 182.185L196.986 183.166L192.947 189.713C192.797 189.953 192.67 190.166 192.566 190.352C192.463 190.538 192.405 190.712 192.394 190.874C192.388 191.041 192.435 191.199 192.534 191.35C192.644 191.501 192.829 191.663 193.089 191.836L193.341 192.004L190.604 193.843L190.352 193.675C189.999 193.44 189.71 193.216 189.484 193.003C189.264 192.795 189.09 192.59 188.962 192.389C188.835 192.196 188.745 192.004 188.692 191.815C188.652 191.625 188.631 191.434 188.631 191.241C188.186 191.183 187.769 191.107 187.382 191.011C186.988 190.918 186.609 190.801 186.245 190.659C185.88 190.516 185.525 190.348 185.177 190.156C184.83 189.97 184.474 189.756 184.11 189.513ZM192.997 191.775L193.561 192.151C193.821 192.324 194.082 192.444 194.342 192.509C194.614 192.575 194.883 192.595 195.149 192.572C195.426 192.548 195.695 192.484 195.955 192.379C196.221 192.278 196.478 192.144 196.726 191.977C197.072 191.752 197.488 191.477 197.973 191.151C198.464 190.821 198.987 190.466 199.541 190.086C200.101 189.702 200.676 189.305 201.265 188.894C201.86 188.479 202.434 188.073 202.989 187.678C203.549 187.278 204.077 186.9 204.574 186.543C205.076 186.183 205.512 185.867 205.882 185.595L209.145 187.098L198.854 194.138C198.496 194.378 198.303 194.628 198.275 194.888C198.258 195.147 198.429 195.396 198.788 195.635L198.979 195.763L196.241 197.601L196.05 197.474C195.807 197.319 195.587 197.146 195.39 196.953C195.199 196.763 195.04 196.568 194.912 196.367C194.779 196.17 194.686 195.977 194.634 195.787C194.581 195.598 194.575 195.428 194.616 195.277C194.344 195.297 194.069 195.291 193.792 195.261C193.514 195.23 193.222 195.163 192.915 195.059C192.609 194.963 192.282 194.826 191.935 194.649C191.588 194.472 191.211 194.248 190.806 193.978L190.259 193.613L192.997 191.775ZM198.632 195.532L200.464 196.753C201.402 197.378 202.316 197.914 203.208 198.362C204.11 198.809 204.998 199.196 205.872 199.523C206.746 199.851 207.61 200.134 208.466 200.372C209.334 200.61 210.199 200.835 211.061 201.047C210.777 200.71 210.516 200.355 210.278 199.98C210.046 199.609 209.806 199.24 209.557 198.873C209.313 198.51 209.047 198.162 208.757 197.83C208.473 197.494 208.137 197.196 207.749 196.938C207.483 196.76 207.148 196.633 206.743 196.557C206.344 196.484 205.948 196.44 205.554 196.425C205.161 196.41 204.806 196.417 204.488 196.444C204.176 196.468 203.97 196.49 203.872 196.509L203.157 194.305C203.764 194.192 204.403 194.112 205.073 194.064C205.744 194.017 206.4 194.017 207.042 194.067C207.695 194.116 208.317 194.221 208.907 194.382C209.503 194.548 210.032 194.785 210.495 195.094C210.837 195.321 211.141 195.574 211.407 195.852C211.679 196.126 211.926 196.414 212.146 196.716C212.372 197.021 212.575 197.334 212.755 197.655C212.94 197.972 213.12 198.288 213.294 198.605C213.456 198.907 213.622 199.21 213.79 199.516C213.964 199.817 214.155 200.119 214.364 200.42C214.578 200.717 214.824 201.009 215.102 201.295C215.38 201.581 215.713 201.857 216.101 202.123L213.225 203.764L211.403 203.338C210.657 203.165 209.905 203 209.147 202.843C208.395 202.682 207.64 202.511 206.883 202.33C206.131 202.146 205.37 201.944 204.601 201.725C203.837 201.502 203.074 201.244 202.31 200.951C201.552 200.655 200.791 200.314 200.027 199.928C199.258 199.546 198.491 199.101 197.727 198.592L195.895 197.37L198.632 195.532ZM198.328 205.322L198.324 202.746L202.174 202.739L202.179 205.315L198.328 205.322Z" fill="black"/>
<path d="M217.377 85.1019C217.54 84.7983 217.54 84.4818 217.377 84.3948L214.73 82.9779C214.567 82.8909 214.304 83.0665 214.142 83.3701C213.979 83.6737 213.979 83.9903 214.142 84.0772L216.495 85.3367L214.142 89.7341C213.979 90.0376 213.979 90.3542 214.142 90.4412C214.304 90.5281 214.567 90.3525 214.73 90.0489L217.377 85.1019ZM163 121.5L217.083 85.4445V84.4445L163 120.5V121.5Z" fill="black"/>
<path d="M367.889 166.613C368.051 166.526 368.051 166.209 367.889 165.906L365.241 160.959C365.079 160.655 364.816 160.48 364.653 160.567C364.491 160.653 364.491 160.97 364.653 161.274L367.006 165.671L364.653 166.93C364.491 167.017 364.491 167.334 364.653 167.638C364.816 167.941 365.079 168.117 365.241 168.03L367.889 166.613ZM321 135.5L367.595 166.563V165.563L321 134.5V135.5Z" fill="black"/>
<path d="M235.706 78.4503C235.543 78.5373 235.543 78.8539 235.706 79.1574L238.353 84.1045C238.516 84.408 238.779 84.5836 238.942 84.4967C239.104 84.4097 239.104 84.0932 238.942 83.7896L236.588 79.3922L238.942 78.1327C239.104 78.0458 239.104 77.7292 238.942 77.4256C238.779 77.1221 238.516 76.9464 238.353 77.0334L235.706 78.4503ZM236 79.5L282.595 110.563V109.563L236 78.5V79.5Z" fill="black"/>
<path d="M42.7058 199.898C42.5434 200.202 42.5434 200.518 42.7058 200.605L45.3534 202.022C45.5159 202.109 45.7793 201.933 45.9417 201.63C46.1042 201.326 46.1042 201.01 45.9417 200.923L43.5883 199.663L45.9417 195.266C46.1042 194.962 46.1042 194.646 45.9417 194.559C45.7793 194.472 45.5159 194.648 45.3534 194.951L42.7058 199.898ZM43 200.556L97.0833 164.5V163.5L43 199.556V200.556Z" fill="black"/>
<path d="M165.619 349.01C165.828 348.964 166.041 348.936 166.259 348.927C166.319 348.922 166.38 348.92 166.44 348.92C166.593 348.92 166.76 348.932 166.941 348.955C167.126 348.978 167.321 349.022 167.525 349.087C167.734 349.152 167.933 349.235 168.123 349.337L167.49 351.007C167.249 350.9 166.999 350.828 166.739 350.791C166.628 350.777 166.519 350.77 166.412 350.77C166.259 350.77 166.106 350.784 165.953 350.812C165.795 350.826 165.626 350.872 165.445 350.951C165.264 351.03 165.083 351.132 164.903 351.257C164.726 351.378 164.555 351.519 164.388 351.682C164.225 351.839 164.082 352.009 163.956 352.19C163.831 352.366 163.729 352.549 163.65 352.739C163.576 352.925 163.539 353.106 163.539 353.282C163.539 353.481 163.585 353.639 163.678 353.755C163.776 353.866 163.903 353.959 164.061 354.033C164.223 354.103 164.409 354.161 164.617 354.207C164.826 354.249 165.044 354.3 165.271 354.36C165.549 354.425 165.83 354.499 166.113 354.583C166.396 354.666 166.651 354.782 166.878 354.93C167.105 355.074 167.286 355.264 167.421 355.501C167.537 355.71 167.595 355.967 167.595 356.273C167.595 356.315 167.592 356.359 167.588 356.405C167.56 356.892 167.449 357.321 167.254 357.692C167.059 358.068 166.806 358.392 166.496 358.666C166.185 358.94 165.83 359.167 165.431 359.348C165.032 359.533 164.615 359.682 164.179 359.793C163.743 359.904 163.303 359.983 162.857 360.03C162.412 360.076 161.988 360.099 161.584 360.099C160.768 360.099 160.021 359.99 159.344 359.772C158.672 359.554 158.104 359.23 157.64 358.798C157.176 358.372 156.84 357.838 156.631 357.198C156.492 356.781 156.423 356.319 156.423 355.814C156.423 355.545 156.441 355.267 156.478 354.979C156.515 354.673 156.566 354.362 156.631 354.047C156.696 353.732 156.766 353.428 156.84 353.136C156.914 352.839 156.991 352.558 157.069 352.294C157.148 352.03 157.22 351.798 157.285 351.598C157.35 351.399 157.406 351.237 157.452 351.111C157.498 350.986 157.526 350.914 157.536 350.896L159.066 351.515C158.955 351.863 158.853 352.19 158.76 352.496C158.667 352.797 158.584 353.094 158.509 353.386C158.435 353.678 158.368 353.973 158.308 354.27C158.252 354.562 158.203 354.872 158.162 355.202C158.143 355.355 158.134 355.503 158.134 355.647C158.134 355.976 158.196 356.303 158.322 356.628C158.452 356.957 158.672 357.247 158.983 357.497C159.298 357.752 159.678 357.943 160.123 358.068C160.569 358.193 161.056 358.256 161.584 358.256C162.201 358.256 162.774 358.207 163.303 358.11C163.836 358.017 164.297 357.892 164.687 357.734C165.081 357.576 165.394 357.398 165.626 357.198C165.863 357.003 165.995 356.802 166.023 356.593C166.018 356.551 165.974 356.512 165.89 356.475C165.807 356.438 165.703 356.401 165.577 356.363C165.452 356.331 165.313 356.296 165.16 356.259C165.012 356.227 164.868 356.192 164.729 356.155C164.339 356.057 163.977 355.946 163.643 355.821C163.309 355.7 163.02 355.54 162.774 355.341C162.528 355.141 162.336 354.889 162.196 354.583C162.057 354.277 161.988 353.892 161.988 353.428C162.011 352.918 162.118 352.421 162.308 351.939C162.498 351.457 162.753 351.019 163.073 350.624C163.398 350.226 163.776 349.885 164.207 349.602C164.638 349.319 165.109 349.122 165.619 349.01ZM169.58 352.475C169.756 352.586 169.967 352.7 170.213 352.816C170.464 352.932 170.721 353.036 170.985 353.129C171.254 353.221 171.516 353.298 171.771 353.358C172.031 353.419 172.258 353.449 172.453 353.449C172.532 353.449 172.629 353.446 172.745 353.442C172.861 353.437 172.984 353.428 173.114 353.414C173.244 353.395 173.374 353.37 173.504 353.337C173.634 353.3 173.749 353.252 173.851 353.191C173.958 353.126 174.044 353.048 174.109 352.955C174.174 352.857 174.209 352.739 174.213 352.6C174.213 352.591 174.213 352.584 174.213 352.579C174.213 352.394 174.16 352.185 174.053 351.953C173.951 351.717 173.81 351.471 173.629 351.216C173.448 350.956 173.239 350.696 173.003 350.437C172.766 350.177 172.52 349.929 172.265 349.692C172.01 349.451 171.753 349.231 171.493 349.031C171.238 348.827 170.999 348.656 170.777 348.517L171.813 346.979C172.24 347.271 172.66 347.601 173.072 347.967C173.49 348.333 173.872 348.725 174.22 349.143C174.573 349.555 174.876 349.987 175.131 350.437C175.391 350.886 175.577 351.341 175.688 351.8C175.748 352.064 175.778 352.317 175.778 352.558C175.778 352.79 175.734 353.068 175.646 353.393C175.563 353.718 175.37 354.038 175.069 354.353C174.767 354.664 174.385 354.903 173.921 355.07C173.522 355.213 173.084 355.285 172.606 355.285C172.527 355.285 172.446 355.283 172.363 355.278C172.057 355.278 171.746 355.248 171.431 355.188C171.115 355.132 170.805 355.053 170.498 354.951C170.197 354.849 169.905 354.733 169.622 354.603C169.344 354.469 169.084 354.328 168.843 354.179L169.58 352.475ZM176.68 358.339C177.361 358.205 177.976 358.024 178.523 357.797C179.075 357.574 179.553 357.323 179.956 357.045C180.36 356.767 180.687 356.47 180.937 356.155C181.192 355.839 181.361 355.524 181.445 355.209C181.069 355.209 180.703 355.197 180.346 355.174C179.989 355.151 179.65 355.104 179.33 355.035C179.015 354.97 178.722 354.877 178.454 354.757C178.189 354.631 177.96 354.469 177.765 354.27C177.575 354.066 177.426 353.82 177.32 353.532C177.213 353.245 177.16 352.901 177.16 352.503C177.16 352.248 177.187 351.981 177.243 351.703C177.299 351.424 177.378 351.153 177.48 350.889C177.586 350.62 177.716 350.367 177.869 350.13C178.022 349.889 178.198 349.678 178.398 349.497C178.597 349.312 178.818 349.166 179.059 349.059C179.3 348.952 179.56 348.899 179.838 348.899C180.557 348.899 181.213 349.219 181.807 349.859C182.001 350.077 182.178 350.321 182.335 350.59C182.493 350.859 182.63 351.146 182.746 351.452C182.862 351.758 182.954 352.078 183.024 352.412C183.098 352.741 183.145 353.08 183.163 353.428H183.629V355.209H183.017C182.859 355.895 182.593 356.512 182.217 357.059C181.841 357.611 181.389 358.091 180.86 358.499C180.336 358.907 179.752 359.243 179.107 359.508C178.463 359.772 177.793 359.962 177.097 360.078L176.68 358.339ZM179.838 350.687C179.717 350.687 179.587 350.738 179.448 350.84C179.309 350.942 179.182 351.074 179.066 351.237C178.95 351.394 178.852 351.57 178.774 351.765C178.699 351.96 178.662 352.15 178.662 352.336C178.662 352.53 178.706 352.693 178.794 352.823C178.887 352.952 179.003 353.057 179.142 353.136C179.286 353.214 179.446 353.275 179.622 353.317C179.803 353.354 179.982 353.379 180.158 353.393C180.255 353.402 180.362 353.409 180.478 353.414C180.594 353.414 180.712 353.416 180.833 353.421C180.958 353.426 181.081 353.428 181.201 353.428C181.322 353.428 181.436 353.428 181.542 353.428C181.528 353.256 181.494 353.071 181.438 352.871C181.387 352.667 181.32 352.463 181.236 352.259C181.153 352.055 181.058 351.86 180.951 351.675C180.844 351.485 180.728 351.318 180.603 351.174C180.482 351.026 180.357 350.907 180.227 350.819C180.098 350.731 179.968 350.687 179.838 350.687ZM186.83 352.489C186.984 352.554 187.181 352.635 187.422 352.732C187.663 352.83 187.923 352.927 188.201 353.024C188.479 353.122 188.76 353.21 189.043 353.289C189.33 353.363 189.592 353.409 189.829 353.428C189.782 353.233 189.734 353.031 189.683 352.823C189.636 352.609 189.583 352.403 189.523 352.203C189.462 352.004 189.395 351.816 189.321 351.64C189.247 351.459 189.159 351.301 189.057 351.167C188.959 351.032 188.846 350.926 188.716 350.847C188.586 350.768 188.44 350.729 188.277 350.729C188.092 350.729 187.925 350.789 187.777 350.91C187.633 351.03 187.501 351.181 187.38 351.362C187.264 351.538 187.16 351.728 187.067 351.932C186.979 352.136 186.9 352.322 186.83 352.489ZM189.474 355.188C189.233 355.183 188.95 355.148 188.625 355.083C188.301 355.023 187.969 354.942 187.63 354.84C187.297 354.738 186.974 354.622 186.664 354.492C186.357 354.362 186.098 354.226 185.884 354.082C185.704 354.263 185.527 354.423 185.356 354.562C185.184 354.701 185.006 354.819 184.82 354.917C184.635 355.009 184.433 355.081 184.215 355.132C184.001 355.183 183.758 355.209 183.484 355.209H183.345V353.428H183.484C183.823 353.428 184.106 353.365 184.333 353.24C184.56 353.11 184.755 352.943 184.917 352.739C185.08 352.535 185.221 352.306 185.342 352.05C185.467 351.795 185.595 351.54 185.724 351.285C185.854 351.016 186.003 350.747 186.17 350.478C186.337 350.209 186.524 349.968 186.733 349.755C186.946 349.537 187.185 349.361 187.45 349.226C187.714 349.092 188.011 349.024 188.34 349.024C188.771 349.024 189.133 349.101 189.425 349.254C189.722 349.402 189.968 349.609 190.163 349.873C190.362 350.133 190.52 350.439 190.636 350.791C190.752 351.144 190.849 351.524 190.928 351.932C190.974 352.169 191.018 352.38 191.06 352.565C191.102 352.746 191.148 352.901 191.199 353.031C191.255 353.161 191.313 353.261 191.373 353.33C191.438 353.395 191.515 353.428 191.603 353.428H191.818V355.209H191.554C191.299 355.204 191.072 355.134 190.872 355C190.677 354.861 190.497 354.678 190.33 354.45C190.279 354.497 190.218 354.559 190.149 354.638C190.084 354.717 190.012 354.796 189.933 354.875C189.859 354.949 189.782 355.016 189.704 355.077C189.625 355.137 189.548 355.174 189.474 355.188ZM197.766 351.125C197.599 350.93 197.404 350.754 197.181 350.597C196.996 350.462 196.78 350.341 196.534 350.235C196.289 350.123 196.02 350.068 195.728 350.068C195.491 350.068 195.282 350.105 195.101 350.179C194.921 350.249 194.768 350.346 194.642 350.471C194.517 350.592 194.42 350.733 194.35 350.896C194.281 351.058 194.239 351.232 194.225 351.417C194.22 351.45 194.218 351.482 194.218 351.515C194.218 351.733 194.276 351.946 194.392 352.155C194.508 352.359 194.67 352.542 194.879 352.704C195.088 352.862 195.329 352.983 195.602 353.066C195.825 353.136 196.05 353.17 196.277 353.17C196.328 353.17 196.379 353.168 196.43 353.163C196.699 353.145 196.968 353.117 197.237 353.08C197.511 353.038 197.759 352.999 197.981 352.962L198.726 352.816L198.941 354.548C198.654 354.622 198.332 354.699 197.974 354.777C197.617 354.856 197.207 354.928 196.743 354.993C196.284 355.053 195.762 355.104 195.178 355.146C194.594 355.188 193.93 355.209 193.188 355.209H191.533V353.428H191.839L193.168 353.421C192.917 353.129 192.745 352.83 192.653 352.523C192.565 352.213 192.521 351.872 192.521 351.501C192.521 351.065 192.602 350.652 192.764 350.263C192.926 349.873 193.149 349.532 193.432 349.24C193.719 348.948 194.058 348.716 194.448 348.544C194.842 348.373 195.268 348.287 195.728 348.287C195.955 348.287 196.173 348.308 196.381 348.35C196.595 348.391 196.797 348.447 196.987 348.517C197.177 348.586 197.355 348.665 197.522 348.753C197.694 348.841 197.849 348.929 197.988 349.017C198.151 349.124 198.308 349.238 198.461 349.358C198.614 349.479 198.758 349.606 198.893 349.741L197.766 351.125ZM210.211 359.744C209.414 359.744 208.676 359.645 207.999 359.445C207.322 359.25 206.745 358.954 206.267 358.555C205.789 358.161 205.43 357.664 205.189 357.066C204.994 356.598 204.897 356.067 204.897 355.473C204.897 355.315 204.904 355.153 204.918 354.986C204.945 354.666 204.982 354.339 205.029 354.005C205.08 353.671 205.147 353.321 205.231 352.955C205.319 352.584 205.43 352.192 205.564 351.779C205.699 351.366 205.866 350.921 206.065 350.443L207.498 351.104C207.308 351.577 207.151 352.016 207.025 352.419C206.9 352.818 206.8 353.189 206.726 353.532C206.657 353.875 206.608 354.198 206.58 354.499C206.552 354.801 206.538 355.09 206.538 355.369C206.538 355.703 206.58 356.002 206.664 356.266C206.752 356.53 206.863 356.767 206.997 356.976C207.178 357.221 207.406 357.409 207.679 357.539C207.953 357.674 208.24 357.771 208.542 357.831C208.848 357.892 209.147 357.926 209.439 357.936C209.736 357.95 209.993 357.957 210.211 357.957C210.341 357.957 210.529 357.947 210.775 357.929C211.025 357.91 211.297 357.878 211.589 357.831C211.886 357.785 212.189 357.725 212.5 357.65C212.811 357.576 213.091 357.483 213.342 357.372C213.597 357.261 213.803 357.131 213.961 356.983C214.123 356.834 214.204 356.66 214.204 356.461C214.204 356.428 214.163 356.377 214.079 356.308C214 356.243 213.889 356.169 213.745 356.085C213.606 356.002 213.442 355.914 213.251 355.821C213.061 355.733 212.857 355.647 212.639 355.563C212.319 355.457 212.002 355.378 211.686 355.327C211.371 355.276 211.058 355.223 210.747 355.167L210.984 353.428H216.507V355.209H215.206C215.392 355.436 215.515 355.659 215.575 355.877C215.64 356.099 215.675 356.294 215.679 356.461C215.661 356.869 215.556 357.233 215.366 357.553C215.176 357.878 214.93 358.161 214.629 358.402C214.332 358.648 213.993 358.854 213.613 359.021C213.233 359.192 212.843 359.332 212.444 359.438C212.046 359.545 211.651 359.621 211.262 359.668C210.877 359.719 210.527 359.744 210.211 359.744ZM216.514 353.428C216.769 353.428 216.996 353.372 217.196 353.261C217.4 353.15 217.578 353.001 217.732 352.816C217.889 352.63 218.026 352.419 218.142 352.183C218.263 351.946 218.367 351.703 218.455 351.452C218.543 351.202 218.62 350.956 218.685 350.715C218.749 350.469 218.807 350.249 218.858 350.054L220.598 350.437C220.556 350.566 220.5 350.733 220.431 350.937C220.361 351.137 220.294 351.35 220.229 351.577C220.169 351.8 220.118 352.025 220.076 352.252C220.043 352.424 220.027 352.584 220.027 352.732C220.027 352.779 220.032 352.86 220.041 352.976C220.05 353.092 220.097 353.208 220.18 353.323C220.268 353.435 220.41 353.49 220.605 353.49C220.813 353.49 221.001 353.432 221.168 353.317C221.335 353.196 221.483 353.041 221.613 352.85C221.748 352.656 221.864 352.435 221.961 352.19C222.063 351.944 222.149 351.693 222.218 351.438C222.293 351.179 222.353 350.926 222.399 350.68C222.45 350.434 222.49 350.214 222.518 350.019L224.145 350.332C224.132 350.443 224.111 350.576 224.083 350.729C224.06 350.882 224.034 351.049 224.006 351.23C223.978 351.406 223.951 351.591 223.923 351.786C223.9 351.981 223.881 352.176 223.867 352.37C223.867 352.408 223.867 352.445 223.867 352.482C223.867 352.593 223.879 352.709 223.902 352.83C223.925 352.946 223.974 353.057 224.048 353.163C224.122 353.266 224.22 353.349 224.34 353.414C224.461 353.474 224.609 353.507 224.785 353.511C225.115 353.511 225.384 353.428 225.592 353.261C225.801 353.094 225.905 352.839 225.905 352.496C225.905 352.245 225.871 351.974 225.801 351.682C225.736 351.39 225.655 351.104 225.558 350.826C225.465 350.548 225.365 350.286 225.258 350.04C225.152 349.794 225.059 349.59 224.98 349.428L226.476 348.593C226.504 348.644 226.548 348.737 226.608 348.871C226.673 349.006 226.745 349.173 226.824 349.372C226.907 349.567 226.991 349.787 227.074 350.033C227.158 350.279 227.234 350.539 227.304 350.812C227.378 351.081 227.436 351.357 227.478 351.64C227.524 351.923 227.547 352.201 227.547 352.475C227.547 352.906 227.48 353.296 227.345 353.643C227.216 353.991 227.021 354.288 226.761 354.534C226.506 354.78 226.191 354.968 225.815 355.097C225.453 355.227 225.038 355.292 224.57 355.292C224.556 355.292 224.54 355.292 224.521 355.292C224.503 355.292 224.486 355.292 224.472 355.292C224.254 355.292 224.055 355.262 223.874 355.202C223.693 355.146 223.526 355.067 223.373 354.965C223.225 354.859 223.09 354.738 222.97 354.603C222.854 354.469 222.749 354.332 222.657 354.193C222.55 354.346 222.434 354.49 222.309 354.624C222.184 354.754 222.038 354.868 221.871 354.965C221.708 355.063 221.523 355.139 221.314 355.195C221.11 355.255 220.874 355.288 220.605 355.292C220.591 355.292 220.574 355.292 220.556 355.292C220.347 355.292 220.152 355.264 219.972 355.209C219.795 355.153 219.631 355.077 219.478 354.979C219.329 354.877 219.192 354.759 219.067 354.624C218.947 354.49 218.835 354.348 218.733 354.2C218.645 354.33 218.538 354.455 218.413 354.576C218.293 354.696 218.142 354.805 217.961 354.903C217.785 354.995 217.576 355.07 217.335 355.125C217.094 355.181 216.811 355.209 216.486 355.209H216.236V353.428H216.514ZM231.774 350.583C231.867 350.875 231.962 351.181 232.059 351.501C232.161 351.816 232.252 352.136 232.331 352.461C232.414 352.786 232.481 353.11 232.532 353.435C232.583 353.755 232.609 354.068 232.609 354.374C232.609 354.791 232.544 355.197 232.414 355.591C232.289 355.99 232.113 356.373 231.885 356.739C231.663 357.11 231.396 357.463 231.085 357.797C230.779 358.13 230.445 358.446 230.084 358.743C229.722 359.039 229.339 359.315 228.936 359.57C228.532 359.826 228.124 360.055 227.711 360.259L226.918 358.666C227.248 358.504 227.572 358.323 227.892 358.123C228.212 357.929 228.516 357.72 228.804 357.497C229.096 357.275 229.365 357.041 229.611 356.795C229.861 356.549 230.074 356.294 230.251 356.03C230.431 355.765 230.573 355.494 230.675 355.216C230.777 354.937 230.828 354.657 230.828 354.374C230.828 354.11 230.798 353.831 230.738 353.539C230.677 353.247 230.603 352.959 230.515 352.677C230.431 352.389 230.343 352.113 230.251 351.849C230.162 351.584 230.088 351.35 230.028 351.146L231.774 350.583ZM237.527 355.209H237.249C236.307 355.209 235.593 354.972 235.106 354.499C234.619 354.026 234.373 353.312 234.369 352.357C234.369 352.208 234.373 351.965 234.383 351.626C234.392 351.283 234.396 350.866 234.396 350.374C234.396 350.082 234.394 349.769 234.389 349.435C234.385 349.096 234.378 348.753 234.369 348.405C234.359 348.053 234.345 347.703 234.327 347.355C234.313 347.002 234.294 346.664 234.271 346.339C234.248 346.01 234.22 345.704 234.188 345.421C234.155 345.133 234.118 344.881 234.076 344.663L235.823 344.141C235.874 344.41 235.92 344.739 235.962 345.129C236.003 345.514 236.04 345.926 236.073 346.367C236.105 346.808 236.129 347.257 236.143 347.717C236.161 348.171 236.17 348.6 236.17 349.003C236.17 349.249 236.173 349.511 236.177 349.79C236.182 350.063 236.184 350.304 236.184 350.513C236.184 350.689 236.182 350.856 236.177 351.014C236.177 351.167 236.175 351.315 236.17 351.459C236.17 351.603 236.168 351.744 236.163 351.883C236.163 352.023 236.163 352.164 236.163 352.308C236.163 352.345 236.163 352.382 236.163 352.419C236.163 352.586 236.18 352.734 236.212 352.864C236.249 352.994 236.312 353.103 236.4 353.191C236.488 353.275 236.599 353.335 236.734 353.372C236.873 353.409 237.033 353.428 237.214 353.428H237.527V355.209ZM237.418 353.428C237.905 353.428 238.374 353.414 238.824 353.386C239.274 353.354 239.684 353.31 240.055 353.254C240.426 353.198 240.746 353.131 241.015 353.052C241.284 352.973 241.486 352.885 241.62 352.788H240.911C240.503 352.788 240.113 352.737 239.742 352.635C239.376 352.528 239.053 352.37 238.775 352.162C238.497 351.953 238.274 351.693 238.107 351.383C237.945 351.067 237.864 350.701 237.864 350.283C237.864 350.038 237.889 349.785 237.94 349.525C237.991 349.266 238.068 349.013 238.17 348.767C238.272 348.521 238.395 348.289 238.538 348.071C238.682 347.853 238.847 347.663 239.032 347.501C239.218 347.334 239.422 347.204 239.645 347.111C239.867 347.014 240.108 346.965 240.368 346.965C240.688 346.965 240.987 347.032 241.265 347.167C241.544 347.301 241.796 347.485 242.024 347.717C242.251 347.944 242.453 348.208 242.629 348.51C242.805 348.811 242.954 349.129 243.074 349.463C243.195 349.797 243.285 350.137 243.345 350.485C243.41 350.828 243.443 351.155 243.443 351.466C243.443 351.995 243.369 352.454 243.22 352.843C243.076 353.233 242.872 353.567 242.608 353.845C242.348 354.123 242.035 354.351 241.669 354.527C241.307 354.703 240.906 354.842 240.465 354.944C240.025 355.046 239.552 355.116 239.046 355.153C238.545 355.19 238.026 355.209 237.488 355.209H237.251V353.428H237.418ZM240.368 348.76C240.345 348.755 240.322 348.753 240.298 348.753C240.206 348.753 240.099 348.79 239.978 348.864C239.858 348.939 239.742 349.045 239.631 349.184C239.519 349.323 239.429 349.481 239.359 349.657C239.29 349.829 239.255 349.998 239.255 350.165C239.255 350.174 239.255 350.184 239.255 350.193C239.255 350.36 239.292 350.497 239.366 350.603C239.44 350.706 239.54 350.784 239.665 350.84C239.795 350.896 239.944 350.935 240.111 350.958C240.282 350.981 240.463 350.998 240.653 351.007C240.778 351.012 240.908 351.014 241.043 351.014C241.108 351.014 241.207 351.014 241.342 351.014C241.481 351.009 241.623 351.002 241.766 350.993C241.725 350.826 241.664 350.62 241.585 350.374C241.511 350.123 241.416 349.882 241.3 349.65C241.189 349.414 241.054 349.21 240.897 349.038C240.744 348.867 240.567 348.774 240.368 348.76ZM241.648 344.704L240.312 346.04L238.984 344.704L240.312 343.376L241.648 344.704Z" fill="black"/>
</svg>
