<svg width="400" height="400" viewBox="0 0 400 400" fill="none" xmlns="http://www.w3.org/2000/svg">
<rect width="400" height="400" fill="white"/>
<path d="M174.025 43.0104C174.234 42.9641 174.447 42.9362 174.665 42.927C174.726 42.9223 174.786 42.92 174.846 42.92C174.999 42.92 175.166 42.9316 175.347 42.9548C175.533 42.978 175.727 43.022 175.931 43.087C176.14 43.1519 176.34 43.2354 176.53 43.3374L175.897 45.007C175.655 44.9003 175.405 44.8284 175.145 44.7913C175.034 44.7774 174.925 44.7704 174.818 44.7704C174.665 44.7704 174.512 44.7843 174.359 44.8122C174.202 44.8261 174.032 44.8725 173.851 44.9513C173.671 45.0301 173.49 45.1322 173.309 45.2574C173.133 45.378 172.961 45.5194 172.794 45.6817C172.632 45.8394 172.488 46.0087 172.363 46.1896C172.237 46.3658 172.135 46.549 172.057 46.7391C171.982 46.9246 171.945 47.1055 171.945 47.2817C171.945 47.4812 171.992 47.6388 172.084 47.7548C172.182 47.8661 172.309 47.9588 172.467 48.033C172.629 48.1026 172.815 48.1606 173.024 48.207C173.232 48.2487 173.45 48.2997 173.677 48.36C173.956 48.4249 174.236 48.4991 174.519 48.5826C174.802 48.6661 175.057 48.782 175.284 48.9304C175.512 49.0742 175.693 49.2643 175.827 49.5009C175.943 49.7096 176.001 49.967 176.001 50.273C176.001 50.3148 175.999 50.3588 175.994 50.4052C175.966 50.8922 175.855 51.3212 175.66 51.6922C175.465 52.0678 175.213 52.3925 174.902 52.6661C174.591 52.9397 174.236 53.167 173.837 53.3478C173.439 53.5333 173.021 53.6817 172.585 53.793C172.149 53.9043 171.709 53.9832 171.264 54.0296C170.818 54.0759 170.394 54.0991 169.991 54.0991C169.174 54.0991 168.428 53.9901 167.751 53.7722C167.078 53.5542 166.51 53.2296 166.046 52.7983C165.582 52.3716 165.246 51.8383 165.037 51.1983C164.898 50.7809 164.829 50.3194 164.829 49.8139C164.829 49.5449 164.847 49.2667 164.884 48.9791C164.922 48.673 164.973 48.3623 165.037 48.047C165.102 47.7316 165.172 47.4278 165.246 47.1357C165.32 46.8388 165.397 46.5583 165.476 46.2939C165.555 46.0296 165.626 45.7977 165.691 45.5983C165.756 45.3988 165.812 45.2365 165.858 45.1113C165.905 44.9861 165.933 44.9142 165.942 44.8957L167.472 45.5148C167.361 45.8626 167.259 46.1896 167.166 46.4957C167.073 46.7971 166.99 47.0939 166.916 47.3861C166.842 47.6783 166.774 47.9728 166.714 48.2696C166.658 48.5617 166.61 48.8725 166.568 49.2017C166.549 49.3548 166.54 49.5032 166.54 49.647C166.54 49.9762 166.603 50.3032 166.728 50.6278C166.858 50.9571 167.078 51.247 167.389 51.4974C167.704 51.7525 168.084 51.9426 168.53 52.0678C168.975 52.193 169.462 52.2557 169.991 52.2557C170.607 52.2557 171.18 52.207 171.709 52.1096C172.242 52.0168 172.704 51.8916 173.093 51.7339C173.487 51.5762 173.8 51.3977 174.032 51.1983C174.269 51.0035 174.401 50.8017 174.429 50.593C174.424 50.5513 174.38 50.5119 174.297 50.4748C174.213 50.4377 174.109 50.4006 173.984 50.3635C173.858 50.331 173.719 50.2962 173.566 50.2591C173.418 50.2267 173.274 50.1919 173.135 50.1548C172.745 50.0574 172.384 49.9461 172.05 49.8209C171.716 49.7003 171.426 49.5403 171.18 49.3409C170.934 49.1414 170.742 48.8887 170.603 48.5826C170.464 48.2765 170.394 47.8916 170.394 47.4278C170.417 46.9177 170.524 46.4214 170.714 45.9391C170.904 45.4568 171.159 45.0186 171.479 44.6243C171.804 44.2255 172.182 43.8846 172.613 43.6017C173.044 43.3188 173.515 43.1217 174.025 43.0104ZM183.309 49.2087H183.093C182.972 49.2087 182.819 49.1948 182.634 49.167C182.453 49.1391 182.254 49.0557 182.036 48.9165C181.975 49.5009 181.797 50.0597 181.5 50.593C181.203 51.131 180.83 51.6342 180.38 52.1026C179.935 52.571 179.432 53 178.87 53.3896C178.314 53.7791 177.741 54.12 177.152 54.4122L176.373 52.8052C176.698 52.6383 177.025 52.4574 177.354 52.2626C177.679 52.0678 177.989 51.8591 178.286 51.6365C178.583 51.4139 178.859 51.182 179.114 50.9409C179.374 50.6997 179.596 50.447 179.782 50.1826C179.972 49.9183 180.12 49.647 180.227 49.3687C180.338 49.0904 180.394 48.8052 180.394 48.513C180.394 48.3043 180.364 48.0748 180.303 47.8243C180.243 47.5693 180.167 47.3049 180.074 47.0313C179.981 46.7577 179.881 46.4817 179.775 46.2035C179.668 45.9206 179.571 45.647 179.483 45.3826L181.152 44.687C181.333 45.2296 181.498 45.6794 181.646 46.0365C181.799 46.389 181.948 46.6696 182.091 46.8783C182.24 47.0823 182.393 47.2261 182.55 47.3096C182.713 47.3884 182.896 47.4278 183.1 47.4278H183.316L183.309 49.2087ZM183.033 47.4278H184.514C184.732 47.4278 184.967 47.4162 185.217 47.393C185.472 47.3652 185.706 47.3119 185.92 47.233C186.138 47.1496 186.316 47.0313 186.455 46.8783C186.599 46.7252 186.671 46.5212 186.671 46.2661C186.671 46.1455 186.645 45.9762 186.594 45.7583C186.543 45.5403 186.476 45.2991 186.393 45.0348C186.309 44.7704 186.21 44.4968 186.094 44.2139C185.982 43.931 185.864 43.6667 185.739 43.4209L187.346 42.6278C187.462 42.8922 187.578 43.1728 187.694 43.4696C187.81 43.7664 187.912 44.0725 188 44.3878C188.092 44.6986 188.167 45.0116 188.222 45.327C188.278 45.6423 188.306 45.9507 188.306 46.2522C188.306 46.7901 188.206 47.247 188.007 47.6226C187.807 47.9983 187.534 48.3043 187.186 48.5409C186.843 48.7728 186.439 48.942 185.975 49.0487C185.516 49.1554 185.025 49.2087 184.501 49.2087H183.033V47.4278ZM185.621 51.2678L184.438 52.4504L183.241 51.2609L184.424 50.0713L185.621 51.2678ZM188.25 51.2748L187.068 52.4643L185.871 51.2678L187.054 50.0852L188.25 51.2748ZM193.915 44.5826C194.007 44.8748 194.103 45.1809 194.2 45.5009C194.302 45.8162 194.392 46.1362 194.471 46.4609C194.555 46.7855 194.622 47.1101 194.673 47.4348C194.724 47.7548 194.749 48.0678 194.749 48.3739C194.749 48.7913 194.685 49.1971 194.555 49.5913C194.429 49.9901 194.253 50.3728 194.026 50.7391C193.803 51.1101 193.537 51.4626 193.226 51.7965C192.92 52.1304 192.586 52.4458 192.224 52.7426C191.863 53.0394 191.48 53.3154 191.076 53.5704C190.673 53.8255 190.265 54.0551 189.852 54.2591L189.059 52.6661C189.388 52.5038 189.713 52.3229 190.033 52.1235C190.353 51.9287 190.657 51.72 190.944 51.4974C191.236 51.2748 191.505 51.0406 191.751 50.7948C192.002 50.549 192.215 50.2939 192.391 50.0296C192.572 49.7652 192.714 49.4939 192.816 49.2157C192.918 48.9374 192.969 48.6568 192.969 48.3739C192.969 48.1096 192.938 47.8313 192.878 47.5391C192.818 47.247 192.744 46.9594 192.656 46.6765C192.572 46.389 192.484 46.113 192.391 45.8487C192.303 45.5843 192.229 45.3501 192.169 45.1461L193.915 44.5826ZM194.13 41.6191L192.795 42.9548L191.466 41.6191L192.795 40.2904L194.13 41.6191ZM198.791 44.687C198.67 44.687 198.541 44.738 198.401 44.84C198.262 44.942 198.135 45.0742 198.019 45.2365C197.903 45.3942 197.805 45.5704 197.727 45.7652C197.652 45.96 197.615 46.1501 197.615 46.3357C197.615 46.5304 197.659 46.6928 197.747 46.8226C197.84 46.9478 197.956 47.0499 198.095 47.1287C198.239 47.2075 198.399 47.2678 198.575 47.3096C198.756 47.3467 198.935 47.3745 199.111 47.393C199.208 47.3977 199.315 47.4023 199.431 47.407C199.547 47.4116 199.665 47.4162 199.786 47.4209C199.911 47.4209 200.034 47.4232 200.154 47.4278C200.275 47.4278 200.389 47.4278 200.495 47.4278C200.481 47.2562 200.447 47.0707 200.391 46.8713C200.34 46.6672 200.273 46.4632 200.189 46.2591C200.106 46.0551 200.011 45.8603 199.904 45.6748C199.797 45.4846 199.681 45.3177 199.556 45.1739C199.436 45.0255 199.31 44.9072 199.181 44.8191C199.051 44.731 198.921 44.687 198.791 44.687ZM195.633 52.3391C196.314 52.2046 196.929 52.0238 197.476 51.7965C198.028 51.5739 198.506 51.3235 198.909 51.0452C199.313 50.767 199.64 50.4701 199.89 50.1548C200.145 49.8394 200.314 49.5241 200.398 49.2087C200.022 49.2087 199.656 49.1971 199.299 49.1739C198.942 49.1507 198.603 49.1043 198.283 49.0348C197.968 48.9699 197.676 48.8771 197.407 48.7565C197.142 48.6313 196.913 48.469 196.718 48.2696C196.528 48.0655 196.379 47.8197 196.273 47.5322C196.166 47.2446 196.113 46.9014 196.113 46.5026C196.113 46.2475 196.141 45.9809 196.196 45.7026C196.252 45.4243 196.331 45.153 196.433 44.8887C196.539 44.6197 196.669 44.367 196.822 44.1304C196.975 43.8893 197.152 43.6783 197.351 43.4974C197.55 43.3119 197.771 43.1658 198.012 43.0591C198.253 42.9525 198.513 42.8991 198.791 42.8991C199.51 42.8991 200.166 43.2191 200.76 43.8591C200.973 44.0957 201.163 44.3646 201.33 44.6661C201.502 44.9629 201.645 45.2829 201.761 45.6261C201.882 45.9646 201.972 46.3194 202.033 46.6904C202.098 47.0614 202.13 47.4371 202.13 47.8174C202.13 48.411 202.054 48.9652 201.901 49.48C201.752 49.9994 201.541 50.4771 201.267 50.913C200.999 51.349 200.676 51.7409 200.301 52.0887C199.925 52.4412 199.512 52.7496 199.062 53.0139C198.612 53.2783 198.132 53.4986 197.622 53.6748C197.112 53.8557 196.588 53.9901 196.05 54.0783L195.633 52.3391ZM212.22 52.8748C212.489 52.9212 212.76 52.9443 213.034 52.9443C213.103 52.9443 213.24 52.9397 213.444 52.9304C213.648 52.9212 213.91 52.8794 214.23 52.8052C214.55 52.731 214.856 52.6313 215.149 52.5061C215.445 52.3809 215.717 52.2371 215.963 52.0748L216.902 53.633C216.633 53.7954 216.354 53.9438 216.067 54.0783C215.784 54.2174 215.49 54.3357 215.183 54.433C214.882 54.5304 214.569 54.6046 214.244 54.6557C213.961 54.702 213.672 54.7252 213.375 54.7252C213.328 54.7252 213.28 54.7252 213.229 54.7252C212.793 54.7159 212.357 54.6696 211.921 54.5861C211.49 54.5026 211.077 54.382 210.683 54.2243C210.293 54.0667 209.929 53.8696 209.59 53.633C209.256 53.4012 208.964 53.1299 208.714 52.8191C208.468 52.513 208.273 52.1675 208.13 51.7826C207.986 51.4023 207.912 50.9803 207.907 50.5165C207.921 50.0203 208.014 49.5565 208.185 49.1252C208.357 48.6986 208.584 48.309 208.867 47.9565C209.154 47.5994 209.484 47.2817 209.855 47.0035C210.23 46.7252 210.627 46.4864 211.044 46.287C210.896 46.1478 210.743 46.011 210.585 45.8765C210.432 45.7374 210.284 45.6075 210.14 45.487C209.996 45.3617 209.862 45.2481 209.736 45.1461C209.611 45.0394 209.507 44.949 209.423 44.8748L209.291 43.3861C209.899 42.8574 210.553 42.4609 211.253 42.1965C211.958 41.9275 212.693 41.793 213.458 41.793C213.685 41.793 213.92 41.8093 214.161 41.8417C214.407 41.8742 214.645 41.9252 214.877 41.9948C215.109 42.0643 215.327 42.1548 215.531 42.2661C215.735 42.3774 215.914 42.5142 216.067 42.6765C216.22 42.8342 216.341 43.0174 216.429 43.2261C216.507 43.4301 216.547 43.6574 216.547 43.9078C216.547 43.9217 216.547 43.9357 216.547 43.9496C216.528 44.302 216.459 44.6174 216.338 44.8957C216.222 45.1739 216.069 45.4243 215.879 45.647C215.689 45.8696 215.469 46.069 215.218 46.2452C214.972 46.4214 214.71 46.5838 214.432 46.7322C214.808 46.9409 215.207 47.1101 215.629 47.24C216.055 47.3652 216.47 47.4278 216.874 47.4278H217.11V49.2087H216.874C216.489 49.2087 216.116 49.1693 215.754 49.0904C215.392 49.0116 215.035 48.9003 214.683 48.7565C214.33 48.6081 213.98 48.4342 213.632 48.2348C213.284 48.0307 212.934 47.8058 212.582 47.56C212.243 47.6945 211.9 47.8522 211.552 48.033C211.204 48.2093 210.887 48.418 210.599 48.6591C210.316 48.8957 210.084 49.1646 209.903 49.4661C209.723 49.7675 209.632 50.1084 209.632 50.4887C209.632 50.702 209.674 50.9061 209.757 51.1009C209.845 51.2957 209.959 51.4765 210.098 51.6435C210.237 51.8151 210.397 51.9704 210.578 52.1096C210.759 52.2533 210.945 52.3762 211.135 52.4783C211.33 52.5849 211.52 52.6707 211.705 52.7357C211.895 52.8052 212.067 52.8516 212.22 52.8748ZM213.465 43.4904C213.28 43.4904 213.085 43.5043 212.881 43.5322C212.677 43.5554 212.475 43.5901 212.276 43.6365C212.076 43.6783 211.884 43.7316 211.698 43.7965C211.517 43.8568 211.357 43.9241 211.218 43.9983C211.316 44.1003 211.425 44.2186 211.545 44.353C211.666 44.4829 211.793 44.6197 211.928 44.7635C212.067 44.9072 212.208 45.051 212.352 45.1948C212.496 45.3339 212.637 45.4638 212.776 45.5843C213.083 45.4545 213.368 45.3223 213.632 45.1878C213.896 45.0533 214.126 44.9165 214.321 44.7774C214.52 44.6336 214.678 44.4852 214.794 44.3322C214.91 44.1791 214.97 44.0214 214.975 43.8591C214.97 43.8406 214.94 43.8128 214.884 43.7757C214.829 43.7386 214.738 43.7014 214.613 43.6643C214.492 43.6226 214.337 43.5855 214.147 43.553C213.961 43.5206 213.734 43.4997 213.465 43.4904ZM216.83 47.4278H217.887L217.936 47.3374C218.015 47.1983 218.126 47.0151 218.27 46.7878C218.418 46.5559 218.604 46.2939 218.826 46.0017C218.868 45.7096 218.903 45.3409 218.93 44.8957C218.958 44.4504 218.975 43.9681 218.979 43.4487C218.979 43.1658 218.975 42.8759 218.965 42.5791C218.956 42.2777 218.937 41.9322 218.91 41.5426C218.882 41.153 218.842 40.6986 218.791 40.1791C218.745 39.6551 218.685 39.0313 218.61 38.3078L220.44 37.8348C220.561 38.7252 220.651 39.6388 220.711 40.5757C220.776 41.5125 220.809 42.44 220.809 43.3583V43.9217C221.059 43.7084 221.319 43.5043 221.588 43.3096C221.862 43.1148 222.144 42.9432 222.437 42.7948C222.733 42.6464 223.042 42.5281 223.362 42.44C223.682 42.3519 224.016 42.3078 224.364 42.3078C224.716 42.3078 225.05 42.3635 225.365 42.4748C225.681 42.5861 225.959 42.7484 226.2 42.9617C226.446 43.1704 226.648 43.4255 226.805 43.727C226.963 44.0284 227.06 44.367 227.097 44.7426C227.102 44.8122 227.104 44.8794 227.104 44.9443C227.104 45.4267 227.023 45.8765 226.861 46.2939C226.703 46.7113 226.469 47.0893 226.158 47.4278H228.12V49.2087H226.27C225.903 49.2087 225.495 49.1925 225.045 49.16C224.595 49.1275 224.097 49.0417 223.55 48.9026C223.155 49.0093 222.754 49.0858 222.346 49.1322C221.943 49.1832 221.537 49.2087 221.129 49.2087H216.83V47.4278ZM220.482 47.4278C220.765 47.4278 221.089 47.4209 221.456 47.407C221.827 47.393 222.207 47.3606 222.597 47.3096C222.986 47.2586 223.364 47.182 223.73 47.08C224.102 46.978 224.431 46.8412 224.718 46.6696C225.006 46.498 225.233 46.2823 225.4 46.0226C225.544 45.8 225.616 45.5357 225.616 45.2296C225.616 45.1878 225.613 45.1438 225.609 45.0974C225.599 44.9583 225.553 44.8284 225.47 44.7078C225.391 44.5872 225.279 44.4852 225.136 44.4017C224.997 44.3136 224.83 44.2441 224.635 44.193C224.468 44.1559 224.287 44.1374 224.092 44.1374C224.055 44.1374 224.016 44.1374 223.974 44.1374C223.742 44.1467 223.466 44.207 223.146 44.3183C222.826 44.4249 222.483 44.6058 222.117 44.8609C221.75 45.1159 221.37 45.4522 220.976 45.8696C220.582 46.287 220.197 46.8064 219.821 47.4278H220.482ZM228.012 47.4278C228.499 47.4278 228.968 47.4139 229.417 47.3861C229.867 47.3536 230.278 47.3096 230.649 47.2539C231.02 47.1983 231.34 47.131 231.609 47.0522C231.878 46.9733 232.079 46.8852 232.214 46.7878H231.504C231.096 46.7878 230.707 46.7368 230.336 46.6348C229.969 46.5281 229.647 46.3704 229.369 46.1617C229.09 45.953 228.868 45.6933 228.701 45.3826C228.539 45.0672 228.457 44.7009 228.457 44.2835C228.457 44.0377 228.483 43.7849 228.534 43.5252C228.585 43.2655 228.661 43.0128 228.764 42.767C228.866 42.5212 228.988 42.2893 229.132 42.0713C229.276 41.8533 229.441 41.6632 229.626 41.5009C229.812 41.3339 230.016 41.2041 230.238 41.1113C230.461 41.0139 230.702 40.9652 230.962 40.9652C231.282 40.9652 231.581 41.0325 231.859 41.167C232.137 41.3014 232.39 41.4846 232.617 41.7165C232.845 41.9438 233.046 42.2081 233.223 42.5096C233.399 42.811 233.547 43.1287 233.668 43.4626C233.788 43.7965 233.879 44.1374 233.939 44.4852C234.004 44.8284 234.037 45.1554 234.037 45.4661C234.037 45.9948 233.962 46.4539 233.814 46.8435C233.67 47.233 233.466 47.567 233.202 47.8452C232.942 48.1235 232.629 48.3507 232.263 48.527C231.901 48.7032 231.5 48.8423 231.059 48.9443C230.619 49.0464 230.146 49.1159 229.64 49.153C229.139 49.1901 228.62 49.2087 228.082 49.2087H227.845V47.4278H228.012ZM230.962 42.76C230.939 42.7554 230.915 42.753 230.892 42.753C230.799 42.753 230.693 42.7901 230.572 42.8643C230.452 42.9386 230.336 43.0452 230.224 43.1843C230.113 43.3235 230.023 43.4812 229.953 43.6574C229.884 43.829 229.849 43.9983 229.849 44.1652C229.849 44.1745 229.849 44.1838 229.849 44.193C229.849 44.36 229.886 44.4968 229.96 44.6035C230.034 44.7055 230.134 44.7843 230.259 44.84C230.389 44.8957 230.537 44.9351 230.704 44.9583C230.876 44.9814 231.057 44.9977 231.247 45.007C231.372 45.0116 231.502 45.0139 231.637 45.0139C231.701 45.0139 231.801 45.0139 231.936 45.0139C232.075 45.0093 232.216 45.0023 232.36 44.993C232.318 44.8261 232.258 44.6197 232.179 44.3739C232.105 44.1235 232.01 43.8823 231.894 43.6504C231.783 43.4139 231.648 43.2099 231.49 43.0383C231.337 42.8667 231.161 42.7739 230.962 42.76ZM230.795 38.8713L229.612 40.0539L228.416 38.8643L229.598 37.6748L230.795 38.8713ZM233.424 38.8783L232.242 40.0678L231.045 38.8713L232.228 37.6887L233.424 38.8783Z" fill="black"/>
<path d="M43.7864 219.172L231.876 103.544L363.87 191.54L176.005 317.718L43.7864 229.572L43.7864 219.172Z" fill="#E7E7E7" stroke="black"/>
<path d="M364.111 180.697L364.114 191.376L176.531 317.364L175.797 306.869L363.755 180.519L364.111 180.697Z" fill="#A3A3A3" stroke="black"/>
<rect x="0.000955552" y="0.556128" width="158.615" height="226.305" transform="matrix(0.83205 0.5547 -0.830139 0.557556 232.355 92.2455)" fill="#E7E7E7" stroke="black"/>
<path d="M176.006 306.718L167.798 301.247L355.663 175.069L363.87 180.54L176.006 306.718Z" fill="#A3A3A3" stroke="black"/>
<path d="M121.268 137.074C121.268 137.088 121.277 137.152 121.294 137.266C121.311 137.372 121.329 137.521 121.346 137.711C121.364 137.894 121.378 138.107 121.39 138.35C121.395 138.52 121.398 138.695 121.398 138.876V139.147C121.375 140.77 121.06 142.211 120.452 143.472V143.462C119.862 144.711 119.06 145.673 118.047 146.349C117.769 146.534 117.517 146.681 117.292 146.79C117.072 146.887 116.852 146.958 116.632 147L116.701 147.527C116.771 148.135 116.826 148.773 116.866 149.442C116.912 150.1 116.947 150.769 116.97 151.449C116.999 152.118 117.017 152.788 117.022 153.459C117.034 154.12 117.04 154.752 117.04 155.357L115.312 156.509C115.312 155.403 115.303 154.31 115.286 153.229C115.269 152.142 115.222 151.108 115.147 150.129C115.072 149.142 114.959 148.23 114.808 147.391C114.664 146.541 114.461 145.807 114.201 145.188C114.079 144.893 113.949 144.621 113.81 144.373C113.671 144.125 113.515 143.878 113.341 143.632L114.791 141.559C114.884 141.678 114.968 141.807 115.043 141.944C115.124 142.071 115.202 142.21 115.277 142.362C115.358 142.503 115.439 142.657 115.52 142.826C115.601 142.995 115.691 143.175 115.79 143.367C115.923 143.646 116.053 143.894 116.18 144.108C116.313 144.311 116.464 144.465 116.632 144.569C116.805 144.668 117.002 144.704 117.222 144.676C117.448 144.637 117.723 144.509 118.047 144.293C118.527 143.973 118.889 143.554 119.132 143.037C119.242 142.811 119.332 142.574 119.401 142.326C119.471 142.071 119.526 141.815 119.566 141.558C119.613 141.298 119.644 141.04 119.662 140.785C119.679 140.53 119.688 140.288 119.688 140.058C119.688 139.759 119.673 139.48 119.644 139.221C119.621 138.958 119.595 138.746 119.566 138.584L121.268 137.074ZM133.914 128.529C134.007 129.072 134.073 129.584 134.114 130.065C134.154 130.539 134.183 130.982 134.2 131.395C134.206 131.51 134.209 131.626 134.209 131.744C134.209 132.175 134.169 132.634 134.088 133.119C134.012 133.601 133.873 134.09 133.671 134.587C133.468 135.083 133.202 135.546 132.872 135.975C132.548 136.393 132.157 136.754 131.7 137.059C131.555 137.155 131.402 137.24 131.24 137.313C131.078 137.38 130.913 137.424 130.745 137.445C130.577 137.459 130.412 137.437 130.25 137.378C130.088 137.319 129.935 137.213 129.79 137.059C129.668 137.418 129.524 137.748 129.356 138.048C129.194 138.343 129.017 138.611 128.826 138.849C128.635 139.088 128.433 139.303 128.218 139.495C128.004 139.686 127.784 139.857 127.559 140.007C127.339 140.154 127.148 140.268 126.986 140.348C126.823 140.421 126.653 140.479 126.473 140.522C126.664 141.814 126.777 143.161 126.812 144.564C126.852 145.963 126.873 147.373 126.873 148.792L125.145 149.944C125.156 149.644 125.162 149.341 125.162 149.035C125.168 148.725 125.171 148.431 125.171 148.152C125.171 146.128 125.058 144.287 124.832 142.628C124.607 140.97 124.259 139.574 123.79 138.44C123.657 138.146 123.533 137.898 123.417 137.697C123.307 137.492 123.186 137.309 123.052 137.147L124.624 134.983C124.664 135.039 124.711 135.113 124.763 135.203C124.815 135.287 124.87 135.379 124.928 135.48C124.986 135.58 125.044 135.684 125.101 135.792C125.165 135.895 125.226 135.997 125.284 136.098L125.692 136.88C125.848 137.207 125.984 137.478 126.1 137.693C126.216 137.908 126.337 138.063 126.465 138.159C126.598 138.252 126.748 138.283 126.916 138.255C127.084 138.22 127.298 138.115 127.559 137.941C127.831 137.76 128.048 137.511 128.21 137.194C128.378 136.867 128.508 136.522 128.6 136.162C128.693 135.794 128.754 135.44 128.783 135.101C128.817 134.751 128.838 134.459 128.844 134.226C128.844 134.149 128.841 134.019 128.835 133.835C128.829 133.644 128.82 133.448 128.809 133.247C128.803 133.042 128.794 132.857 128.783 132.69C128.771 132.517 128.762 132.412 128.757 132.374L130.476 130.977C130.482 131.189 130.493 131.387 130.511 131.57C130.534 131.742 130.551 131.915 130.563 132.088C130.574 132.227 130.589 132.408 130.606 132.633C130.629 132.854 130.658 133.089 130.693 133.337C130.733 133.581 130.78 133.825 130.832 134.069C130.89 134.302 130.959 134.502 131.04 134.671C131.121 134.839 131.214 134.958 131.318 135.028C131.428 135.094 131.555 135.079 131.7 134.982C131.891 134.855 132.039 134.687 132.143 134.478C132.253 134.259 132.331 134.033 132.377 133.8C132.429 133.564 132.461 133.334 132.473 133.111C132.484 132.88 132.49 132.685 132.49 132.525C132.49 132.212 132.478 131.851 132.455 131.442C132.438 131.022 132.383 130.541 132.29 129.997L133.914 128.529ZM136.421 145.63L135.405 145.462C136.013 144.034 136.331 142.768 136.36 141.663V139.701L138.123 138.526V140.227C138.123 141.013 137.961 141.908 137.636 142.91C137.318 143.915 136.913 144.822 136.421 145.63ZM147.061 135.458C146.638 135.74 146.25 135.877 145.897 135.869C145.55 135.85 145.255 135.688 145.012 135.384L144.986 135.36C144.737 135.978 144.424 136.545 144.048 137.06C143.678 137.571 143.267 137.977 142.815 138.278C142.312 138.614 141.886 138.786 141.539 138.795C141.197 138.8 140.919 138.693 140.705 138.474C140.491 138.248 140.332 137.934 140.228 137.53C140.124 137.126 140.06 136.682 140.037 136.196C140.025 135.996 140.019 135.794 140.019 135.592C140.019 135.307 140.034 134.964 140.063 134.562C140.098 134.149 140.15 133.725 140.219 133.289C140.323 132.656 140.456 131.997 140.618 131.311C140.786 130.622 140.989 129.885 141.226 129.101C141.469 128.306 141.753 127.449 142.077 126.53C142.407 125.608 142.783 124.602 143.206 123.513L142.885 123.341L144.1 121.07C144.685 121.32 145.258 121.592 145.819 121.886C146.386 122.169 146.916 122.518 147.408 122.935C148.543 123.917 149.364 125.206 149.874 126.8C150.042 127.356 150.126 127.996 150.126 128.719C150.126 129.297 150.062 129.906 149.935 130.548C149.807 131.189 149.616 131.817 149.362 132.432C149.113 133.036 148.794 133.607 148.406 134.144C148.024 134.67 147.579 135.106 147.069 135.452L147.061 135.458ZM145.784 130.424C145.784 130.612 145.79 130.83 145.802 131.08C145.813 131.33 145.834 131.584 145.863 131.843C145.897 132.091 145.944 132.332 146.001 132.564C146.065 132.793 146.143 132.988 146.236 133.149C146.334 133.299 146.45 133.403 146.583 133.46C146.722 133.514 146.884 133.492 147.069 133.397C147.341 133.195 147.564 132.945 147.738 132.648C147.912 132.352 148.048 132.042 148.146 131.719C148.244 131.389 148.311 131.063 148.346 130.741C148.386 130.408 148.406 130.112 148.406 129.855C148.406 129.618 148.392 129.385 148.363 129.153C148.334 128.922 148.288 128.71 148.224 128.516C148.016 127.882 147.764 127.327 147.469 126.849C147.174 126.371 146.858 125.955 146.522 125.601C146.187 125.241 145.842 124.938 145.489 124.694C145.136 124.449 144.798 124.247 144.473 124.087C144.109 125.04 143.788 125.915 143.51 126.713C143.232 127.51 142.989 128.253 142.78 128.941C142.572 129.63 142.395 130.276 142.251 130.881C142.112 131.474 141.996 132.045 141.903 132.594C141.869 132.791 141.834 133.037 141.799 133.331C141.765 133.626 141.741 133.933 141.73 134.254C141.724 134.362 141.721 134.468 141.721 134.573C141.721 134.781 141.73 135.012 141.747 135.265C141.77 135.514 141.82 135.742 141.895 135.949C141.976 136.152 142.089 136.286 142.233 136.349C142.384 136.409 142.578 136.36 142.815 136.202C143.023 136.056 143.203 135.86 143.353 135.613C143.504 135.367 143.631 135.098 143.735 134.806C143.845 134.503 143.935 134.189 144.005 133.864C144.08 133.529 144.141 133.207 144.187 132.898C144.233 132.588 144.271 132.299 144.3 132.029C144.334 131.749 144.363 131.517 144.387 131.335L145.784 130.424Z" fill="black"/>
<path d="M298.411 126.879C298.411 125.522 298.391 124.163 298.35 122.8C298.31 121.43 298.22 120.084 298.081 118.76C297.942 117.436 297.743 116.151 297.482 114.906C297.227 113.665 296.883 112.49 296.449 111.379L297.89 111.234C298.365 112.462 298.758 113.778 299.071 115.183C299.389 116.585 299.632 118.107 299.8 119.749C299.87 120.449 299.925 121.161 299.965 121.883C300.012 122.61 300.046 123.329 300.069 124.04C300.098 124.748 300.116 125.438 300.122 126.109C300.133 126.785 300.139 127.425 300.139 128.031L298.411 126.879ZM306.083 131.962C306.083 130.417 305.958 128.884 305.709 127.362C305.466 125.843 305.145 124.352 304.746 122.89C304.352 121.424 303.906 120 303.409 118.617C302.917 117.232 302.422 115.904 301.924 114.633L303.357 114.513C303.715 115.42 304.045 116.284 304.346 117.103C304.647 117.923 304.925 118.717 305.18 119.485C305.434 120.246 305.666 120.981 305.874 121.691C306.083 122.4 306.274 123.098 306.447 123.784C306.505 124.024 306.557 124.24 306.604 124.431C306.656 124.626 306.702 124.813 306.743 124.993C306.783 125.173 306.824 125.36 306.864 125.554C306.905 125.741 306.945 125.949 306.986 126.178C307.223 125.425 307.486 124.689 307.776 123.971C308.065 123.245 308.357 122.574 308.653 121.957C308.948 121.333 309.237 120.778 309.521 120.292C309.81 119.81 310.071 119.427 310.302 119.144L311.735 121.173C311.469 121.622 311.188 122.092 310.893 122.584C310.598 123.076 310.308 123.6 310.024 124.155C309.741 124.71 309.469 125.304 309.208 125.938C308.948 126.571 308.716 127.255 308.514 127.989C308.311 128.724 308.146 129.515 308.019 130.362C307.892 131.209 307.819 132.125 307.802 133.108L306.083 131.962Z" fill="black"/>
<path d="M184.11 189.513C183.351 189.008 182.752 188.415 182.311 187.735C181.877 187.058 181.67 186.299 181.692 185.455L185.472 185.019C185.496 185.383 185.557 185.71 185.656 186C185.76 186.286 185.888 186.541 186.039 186.765C186.189 186.989 186.355 187.184 186.534 187.35C186.719 187.52 186.908 187.669 187.099 187.796C187.255 187.9 187.431 188.006 187.628 188.114C187.831 188.219 188.042 188.313 188.262 188.398C188.487 188.486 188.713 188.559 188.938 188.617C189.164 188.675 189.387 188.707 189.606 188.715C189.918 188.211 190.229 187.681 190.54 187.123C190.863 186.565 191.183 186.006 191.5 185.444C191.823 184.879 192.143 184.319 192.46 183.765C192.777 183.212 193.088 182.685 193.394 182.185L196.986 183.166L192.947 189.713C192.797 189.953 192.67 190.166 192.566 190.352C192.463 190.538 192.405 190.712 192.394 190.874C192.388 191.041 192.435 191.199 192.534 191.35C192.644 191.501 192.829 191.663 193.089 191.836L193.341 192.004L190.604 193.843L190.352 193.675C189.999 193.44 189.71 193.216 189.484 193.003C189.264 192.795 189.09 192.59 188.962 192.389C188.835 192.196 188.745 192.004 188.692 191.815C188.652 191.625 188.631 191.434 188.631 191.241C188.186 191.183 187.769 191.107 187.382 191.011C186.988 190.918 186.609 190.801 186.245 190.659C185.88 190.516 185.525 190.348 185.177 190.156C184.83 189.97 184.474 189.756 184.11 189.513ZM192.997 191.775L193.561 192.151C193.821 192.324 194.082 192.444 194.342 192.509C194.614 192.575 194.883 192.595 195.149 192.572C195.426 192.548 195.695 192.484 195.955 192.379C196.221 192.278 196.478 192.144 196.726 191.977C197.072 191.752 197.488 191.477 197.973 191.151C198.464 190.821 198.987 190.466 199.541 190.086C200.101 189.702 200.676 189.305 201.265 188.894C201.86 188.479 202.434 188.073 202.989 187.678C203.549 187.278 204.077 186.9 204.574 186.543C205.076 186.183 205.512 185.867 205.882 185.595L209.145 187.098L198.854 194.138C198.496 194.378 198.303 194.628 198.275 194.888C198.258 195.147 198.429 195.396 198.788 195.635L198.979 195.763L196.241 197.601L196.05 197.474C195.807 197.319 195.587 197.146 195.39 196.953C195.199 196.763 195.04 196.568 194.912 196.367C194.779 196.17 194.686 195.977 194.634 195.787C194.581 195.598 194.575 195.428 194.616 195.277C194.344 195.297 194.069 195.291 193.792 195.261C193.514 195.23 193.222 195.163 192.915 195.059C192.609 194.963 192.282 194.826 191.935 194.649C191.588 194.472 191.211 194.248 190.806 193.978L190.259 193.613L192.997 191.775ZM198.632 195.532L200.464 196.753C201.402 197.378 202.316 197.914 203.208 198.362C204.11 198.809 204.998 199.196 205.872 199.523C206.746 199.851 207.61 200.134 208.466 200.372C209.334 200.61 210.199 200.835 211.061 201.047C210.777 200.71 210.516 200.355 210.278 199.98C210.046 199.609 209.806 199.24 209.557 198.873C209.313 198.51 209.047 198.162 208.757 197.83C208.473 197.494 208.137 197.196 207.749 196.938C207.483 196.76 207.148 196.633 206.743 196.557C206.344 196.484 205.948 196.44 205.554 196.425C205.161 196.41 204.806 196.417 204.488 196.444C204.176 196.468 203.97 196.49 203.872 196.509L203.157 194.305C203.764 194.192 204.403 194.112 205.073 194.064C205.744 194.017 206.4 194.017 207.042 194.067C207.695 194.116 208.317 194.221 208.907 194.382C209.503 194.548 210.032 194.785 210.495 195.094C210.837 195.321 211.141 195.574 211.407 195.852C211.679 196.126 211.926 196.414 212.146 196.716C212.372 197.021 212.575 197.334 212.755 197.655C212.94 197.972 213.12 198.288 213.294 198.605C213.456 198.907 213.622 199.21 213.79 199.516C213.964 199.817 214.155 200.119 214.364 200.42C214.578 200.717 214.824 201.009 215.102 201.295C215.38 201.581 215.713 201.857 216.101 202.123L213.225 203.764L211.403 203.338C210.657 203.165 209.905 203 209.147 202.843C208.395 202.682 207.64 202.511 206.883 202.33C206.131 202.146 205.37 201.944 204.601 201.725C203.837 201.502 203.074 201.244 202.31 200.951C201.552 200.655 200.791 200.314 200.027 199.928C199.258 199.546 198.491 199.101 197.727 198.592L195.895 197.37L198.632 195.532ZM198.328 205.322L198.324 202.746L202.174 202.739L202.179 205.315L198.328 205.322Z" fill="black"/>
<path d="M217.377 85.1019C217.54 84.7983 217.54 84.4818 217.377 84.3948L214.73 82.9779C214.567 82.8909 214.304 83.0665 214.142 83.3701C213.979 83.6737 213.979 83.9903 214.142 84.0772L216.495 85.3367L214.142 89.7341C213.979 90.0376 213.979 90.3542 214.142 90.4412C214.304 90.5281 214.567 90.3525 214.73 90.0489L217.377 85.1019ZM163 121.5L217.083 85.4445V84.4445L163 120.5V121.5Z" fill="black"/>
<path d="M364.889 164.613C365.051 164.526 365.051 164.209 364.889 163.906L362.241 158.959C362.079 158.655 361.816 158.48 361.653 158.567C361.491 158.653 361.491 158.97 361.653 159.274L364.006 163.671L361.653 164.93C361.491 165.017 361.491 165.334 361.653 165.638C361.816 165.941 362.079 166.117 362.241 166.03L364.889 164.613ZM318 133.5L364.595 164.563V163.563L318 132.5V133.5Z" fill="black"/>
<path d="M242.706 84.4503C242.543 84.5373 242.543 84.8539 242.706 85.1574L245.353 90.1045C245.516 90.408 245.779 90.5836 245.942 90.4967C246.104 90.4097 246.104 90.0932 245.942 89.7896L243.588 85.3922L245.942 84.1327C246.104 84.0458 246.104 83.7292 245.942 83.4256C245.779 83.1221 245.516 82.9464 245.353 83.0334L242.706 84.4503ZM243 85.5L289.595 116.563V115.563L243 84.5V85.5Z" fill="black"/>
<path d="M42.7058 199.898C42.5434 200.202 42.5434 200.518 42.7058 200.605L45.3534 202.022C45.5159 202.109 45.7793 201.933 45.9417 201.63C46.1042 201.326 46.1042 201.01 45.9417 200.923L43.5883 199.663L45.9417 195.266C46.1042 194.962 46.1042 194.646 45.9417 194.559C45.7793 194.472 45.5159 194.648 45.3534 194.951L42.7058 199.898ZM43 200.556L97.0833 164.5V163.5L43 199.556V200.556Z" fill="black"/>
<path d="M165.619 349.01C165.828 348.964 166.041 348.936 166.259 348.927C166.319 348.922 166.38 348.92 166.44 348.92C166.593 348.92 166.76 348.932 166.941 348.955C167.126 348.978 167.321 349.022 167.525 349.087C167.734 349.152 167.933 349.235 168.123 349.337L167.49 351.007C167.249 350.9 166.999 350.828 166.739 350.791C166.628 350.777 166.519 350.77 166.412 350.77C166.259 350.77 166.106 350.784 165.953 350.812C165.795 350.826 165.626 350.872 165.445 350.951C165.264 351.03 165.083 351.132 164.903 351.257C164.726 351.378 164.555 351.519 164.388 351.682C164.225 351.839 164.082 352.009 163.956 352.19C163.831 352.366 163.729 352.549 163.65 352.739C163.576 352.925 163.539 353.106 163.539 353.282C163.539 353.481 163.585 353.639 163.678 353.755C163.776 353.866 163.903 353.959 164.061 354.033C164.223 354.103 164.409 354.161 164.617 354.207C164.826 354.249 165.044 354.3 165.271 354.36C165.549 354.425 165.83 354.499 166.113 354.583C166.396 354.666 166.651 354.782 166.878 354.93C167.105 355.074 167.286 355.264 167.421 355.501C167.537 355.71 167.595 355.967 167.595 356.273C167.595 356.315 167.592 356.359 167.588 356.405C167.56 356.892 167.449 357.321 167.254 357.692C167.059 358.068 166.806 358.392 166.496 358.666C166.185 358.94 165.83 359.167 165.431 359.348C165.032 359.533 164.615 359.682 164.179 359.793C163.743 359.904 163.303 359.983 162.857 360.03C162.412 360.076 161.988 360.099 161.584 360.099C160.768 360.099 160.021 359.99 159.344 359.772C158.672 359.554 158.104 359.23 157.64 358.798C157.176 358.372 156.84 357.838 156.631 357.198C156.492 356.781 156.423 356.319 156.423 355.814C156.423 355.545 156.441 355.267 156.478 354.979C156.515 354.673 156.566 354.362 156.631 354.047C156.696 353.732 156.766 353.428 156.84 353.136C156.914 352.839 156.991 352.558 157.069 352.294C157.148 352.03 157.22 351.798 157.285 351.598C157.35 351.399 157.406 351.237 157.452 351.111C157.498 350.986 157.526 350.914 157.536 350.896L159.066 351.515C158.955 351.863 158.853 352.19 158.76 352.496C158.667 352.797 158.584 353.094 158.509 353.386C158.435 353.678 158.368 353.973 158.308 354.27C158.252 354.562 158.203 354.872 158.162 355.202C158.143 355.355 158.134 355.503 158.134 355.647C158.134 355.976 158.196 356.303 158.322 356.628C158.452 356.957 158.672 357.247 158.983 357.497C159.298 357.752 159.678 357.943 160.123 358.068C160.569 358.193 161.056 358.256 161.584 358.256C162.201 358.256 162.774 358.207 163.303 358.11C163.836 358.017 164.297 357.892 164.687 357.734C165.081 357.576 165.394 357.398 165.626 357.198C165.863 357.003 165.995 356.802 166.023 356.593C166.018 356.551 165.974 356.512 165.89 356.475C165.807 356.438 165.703 356.401 165.577 356.363C165.452 356.331 165.313 356.296 165.16 356.259C165.012 356.227 164.868 356.192 164.729 356.155C164.339 356.057 163.977 355.946 163.643 355.821C163.309 355.7 163.02 355.54 162.774 355.341C162.528 355.141 162.336 354.889 162.196 354.583C162.057 354.277 161.988 353.892 161.988 353.428C162.011 352.918 162.118 352.421 162.308 351.939C162.498 351.457 162.753 351.019 163.073 350.624C163.398 350.226 163.776 349.885 164.207 349.602C164.638 349.319 165.109 349.122 165.619 349.01ZM169.58 352.475C169.756 352.586 169.967 352.7 170.213 352.816C170.464 352.932 170.721 353.036 170.985 353.129C171.254 353.221 171.516 353.298 171.771 353.358C172.031 353.419 172.258 353.449 172.453 353.449C172.532 353.449 172.629 353.446 172.745 353.442C172.861 353.437 172.984 353.428 173.114 353.414C173.244 353.395 173.374 353.37 173.504 353.337C173.634 353.3 173.749 353.252 173.851 353.191C173.958 353.126 174.044 353.048 174.109 352.955C174.174 352.857 174.209 352.739 174.213 352.6C174.213 352.591 174.213 352.584 174.213 352.579C174.213 352.394 174.16 352.185 174.053 351.953C173.951 351.717 173.81 351.471 173.629 351.216C173.448 350.956 173.239 350.696 173.003 350.437C172.766 350.177 172.52 349.929 172.265 349.692C172.01 349.451 171.753 349.231 171.493 349.031C171.238 348.827 170.999 348.656 170.777 348.517L171.813 346.979C172.24 347.271 172.66 347.601 173.072 347.967C173.49 348.333 173.872 348.725 174.22 349.143C174.573 349.555 174.876 349.987 175.131 350.437C175.391 350.886 175.577 351.341 175.688 351.8C175.748 352.064 175.778 352.317 175.778 352.558C175.778 352.79 175.734 353.068 175.646 353.393C175.563 353.718 175.37 354.038 175.069 354.353C174.767 354.664 174.385 354.903 173.921 355.07C173.522 355.213 173.084 355.285 172.606 355.285C172.527 355.285 172.446 355.283 172.363 355.278C172.057 355.278 171.746 355.248 171.431 355.188C171.115 355.132 170.805 355.053 170.498 354.951C170.197 354.849 169.905 354.733 169.622 354.603C169.344 354.469 169.084 354.328 168.843 354.179L169.58 352.475ZM176.68 358.339C177.361 358.205 177.976 358.024 178.523 357.797C179.075 357.574 179.553 357.323 179.956 357.045C180.36 356.767 180.687 356.47 180.937 356.155C181.192 355.839 181.361 355.524 181.445 355.209C181.069 355.209 180.703 355.197 180.346 355.174C179.989 355.151 179.65 355.104 179.33 355.035C179.015 354.97 178.722 354.877 178.454 354.757C178.189 354.631 177.96 354.469 177.765 354.27C177.575 354.066 177.426 353.82 177.32 353.532C177.213 353.245 177.16 352.901 177.16 352.503C177.16 352.248 177.187 351.981 177.243 351.703C177.299 351.424 177.378 351.153 177.48 350.889C177.586 350.62 177.716 350.367 177.869 350.13C178.022 349.889 178.198 349.678 178.398 349.497C178.597 349.312 178.818 349.166 179.059 349.059C179.3 348.952 179.56 348.899 179.838 348.899C180.557 348.899 181.213 349.219 181.807 349.859C182.001 350.077 182.178 350.321 182.335 350.59C182.493 350.859 182.63 351.146 182.746 351.452C182.862 351.758 182.954 352.078 183.024 352.412C183.098 352.741 183.145 353.08 183.163 353.428H183.629V355.209H183.017C182.859 355.895 182.593 356.512 182.217 357.059C181.841 357.611 181.389 358.091 180.86 358.499C180.336 358.907 179.752 359.243 179.107 359.508C178.463 359.772 177.793 359.962 177.097 360.078L176.68 358.339ZM179.838 350.687C179.717 350.687 179.587 350.738 179.448 350.84C179.309 350.942 179.182 351.074 179.066 351.237C178.95 351.394 178.852 351.57 178.774 351.765C178.699 351.96 178.662 352.15 178.662 352.336C178.662 352.53 178.706 352.693 178.794 352.823C178.887 352.952 179.003 353.057 179.142 353.136C179.286 353.214 179.446 353.275 179.622 353.317C179.803 353.354 179.982 353.379 180.158 353.393C180.255 353.402 180.362 353.409 180.478 353.414C180.594 353.414 180.712 353.416 180.833 353.421C180.958 353.426 181.081 353.428 181.201 353.428C181.322 353.428 181.436 353.428 181.542 353.428C181.528 353.256 181.494 353.071 181.438 352.871C181.387 352.667 181.32 352.463 181.236 352.259C181.153 352.055 181.058 351.86 180.951 351.675C180.844 351.485 180.728 351.318 180.603 351.174C180.482 351.026 180.357 350.907 180.227 350.819C180.098 350.731 179.968 350.687 179.838 350.687ZM186.83 352.489C186.984 352.554 187.181 352.635 187.422 352.732C187.663 352.83 187.923 352.927 188.201 353.024C188.479 353.122 188.76 353.21 189.043 353.289C189.33 353.363 189.592 353.409 189.829 353.428C189.782 353.233 189.734 353.031 189.683 352.823C189.636 352.609 189.583 352.403 189.523 352.203C189.462 352.004 189.395 351.816 189.321 351.64C189.247 351.459 189.159 351.301 189.057 351.167C188.959 351.032 188.846 350.926 188.716 350.847C188.586 350.768 188.44 350.729 188.277 350.729C188.092 350.729 187.925 350.789 187.777 350.91C187.633 351.03 187.501 351.181 187.38 351.362C187.264 351.538 187.16 351.728 187.067 351.932C186.979 352.136 186.9 352.322 186.83 352.489ZM189.474 355.188C189.233 355.183 188.95 355.148 188.625 355.083C188.301 355.023 187.969 354.942 187.63 354.84C187.297 354.738 186.974 354.622 186.664 354.492C186.357 354.362 186.098 354.226 185.884 354.082C185.704 354.263 185.527 354.423 185.356 354.562C185.184 354.701 185.006 354.819 184.82 354.917C184.635 355.009 184.433 355.081 184.215 355.132C184.001 355.183 183.758 355.209 183.484 355.209H183.345V353.428H183.484C183.823 353.428 184.106 353.365 184.333 353.24C184.56 353.11 184.755 352.943 184.917 352.739C185.08 352.535 185.221 352.306 185.342 352.05C185.467 351.795 185.595 351.54 185.724 351.285C185.854 351.016 186.003 350.747 186.17 350.478C186.337 350.209 186.524 349.968 186.733 349.755C186.946 349.537 187.185 349.361 187.45 349.226C187.714 349.092 188.011 349.024 188.34 349.024C188.771 349.024 189.133 349.101 189.425 349.254C189.722 349.402 189.968 349.609 190.163 349.873C190.362 350.133 190.52 350.439 190.636 350.791C190.752 351.144 190.849 351.524 190.928 351.932C190.974 352.169 191.018 352.38 191.06 352.565C191.102 352.746 191.148 352.901 191.199 353.031C191.255 353.161 191.313 353.261 191.373 353.33C191.438 353.395 191.515 353.428 191.603 353.428H191.818V355.209H191.554C191.299 355.204 191.072 355.134 190.872 355C190.677 354.861 190.497 354.678 190.33 354.45C190.279 354.497 190.218 354.559 190.149 354.638C190.084 354.717 190.012 354.796 189.933 354.875C189.859 354.949 189.782 355.016 189.704 355.077C189.625 355.137 189.548 355.174 189.474 355.188ZM197.766 351.125C197.599 350.93 197.404 350.754 197.181 350.597C196.996 350.462 196.78 350.341 196.534 350.235C196.289 350.123 196.02 350.068 195.728 350.068C195.491 350.068 195.282 350.105 195.101 350.179C194.921 350.249 194.768 350.346 194.642 350.471C194.517 350.592 194.42 350.733 194.35 350.896C194.281 351.058 194.239 351.232 194.225 351.417C194.22 351.45 194.218 351.482 194.218 351.515C194.218 351.733 194.276 351.946 194.392 352.155C194.508 352.359 194.67 352.542 194.879 352.704C195.088 352.862 195.329 352.983 195.602 353.066C195.825 353.136 196.05 353.17 196.277 353.17C196.328 353.17 196.379 353.168 196.43 353.163C196.699 353.145 196.968 353.117 197.237 353.08C197.511 353.038 197.759 352.999 197.981 352.962L198.726 352.816L198.941 354.548C198.654 354.622 198.332 354.699 197.974 354.777C197.617 354.856 197.207 354.928 196.743 354.993C196.284 355.053 195.762 355.104 195.178 355.146C194.594 355.188 193.93 355.209 193.188 355.209H191.533V353.428H191.839L193.168 353.421C192.917 353.129 192.745 352.83 192.653 352.523C192.565 352.213 192.521 351.872 192.521 351.501C192.521 351.065 192.602 350.652 192.764 350.263C192.926 349.873 193.149 349.532 193.432 349.24C193.719 348.948 194.058 348.716 194.448 348.544C194.842 348.373 195.268 348.287 195.728 348.287C195.955 348.287 196.173 348.308 196.381 348.35C196.595 348.391 196.797 348.447 196.987 348.517C197.177 348.586 197.355 348.665 197.522 348.753C197.694 348.841 197.849 348.929 197.988 349.017C198.151 349.124 198.308 349.238 198.461 349.358C198.614 349.479 198.758 349.606 198.893 349.741L197.766 351.125ZM210.211 359.744C209.414 359.744 208.676 359.645 207.999 359.445C207.322 359.25 206.745 358.954 206.267 358.555C205.789 358.161 205.43 357.664 205.189 357.066C204.994 356.598 204.897 356.067 204.897 355.473C204.897 355.315 204.904 355.153 204.918 354.986C204.945 354.666 204.982 354.339 205.029 354.005C205.08 353.671 205.147 353.321 205.231 352.955C205.319 352.584 205.43 352.192 205.564 351.779C205.699 351.366 205.866 350.921 206.065 350.443L207.498 351.104C207.308 351.577 207.151 352.016 207.025 352.419C206.9 352.818 206.8 353.189 206.726 353.532C206.657 353.875 206.608 354.198 206.58 354.499C206.552 354.801 206.538 355.09 206.538 355.369C206.538 355.703 206.58 356.002 206.664 356.266C206.752 356.53 206.863 356.767 206.997 356.976C207.178 357.221 207.406 357.409 207.679 357.539C207.953 357.674 208.24 357.771 208.542 357.831C208.848 357.892 209.147 357.926 209.439 357.936C209.736 357.95 209.993 357.957 210.211 357.957C210.341 357.957 210.529 357.947 210.775 357.929C211.025 357.91 211.297 357.878 211.589 357.831C211.886 357.785 212.189 357.725 212.5 357.65C212.811 357.576 213.091 357.483 213.342 357.372C213.597 357.261 213.803 357.131 213.961 356.983C214.123 356.834 214.204 356.66 214.204 356.461C214.204 356.428 214.163 356.377 214.079 356.308C214 356.243 213.889 356.169 213.745 356.085C213.606 356.002 213.442 355.914 213.251 355.821C213.061 355.733 212.857 355.647 212.639 355.563C212.319 355.457 212.002 355.378 211.686 355.327C211.371 355.276 211.058 355.223 210.747 355.167L210.984 353.428H216.507V355.209H215.206C215.392 355.436 215.515 355.659 215.575 355.877C215.64 356.099 215.675 356.294 215.679 356.461C215.661 356.869 215.556 357.233 215.366 357.553C215.176 357.878 214.93 358.161 214.629 358.402C214.332 358.648 213.993 358.854 213.613 359.021C213.233 359.192 212.843 359.332 212.444 359.438C212.046 359.545 211.651 359.621 211.262 359.668C210.877 359.719 210.527 359.744 210.211 359.744ZM216.514 353.428C216.769 353.428 216.996 353.372 217.196 353.261C217.4 353.15 217.578 353.001 217.732 352.816C217.889 352.63 218.026 352.419 218.142 352.183C218.263 351.946 218.367 351.703 218.455 351.452C218.543 351.202 218.62 350.956 218.685 350.715C218.749 350.469 218.807 350.249 218.858 350.054L220.598 350.437C220.556 350.566 220.5 350.733 220.431 350.937C220.361 351.137 220.294 351.35 220.229 351.577C220.169 351.8 220.118 352.025 220.076 352.252C220.043 352.424 220.027 352.584 220.027 352.732C220.027 352.779 220.032 352.86 220.041 352.976C220.05 353.092 220.097 353.208 220.18 353.323C220.268 353.435 220.41 353.49 220.605 353.49C220.813 353.49 221.001 353.432 221.168 353.317C221.335 353.196 221.483 353.041 221.613 352.85C221.748 352.656 221.864 352.435 221.961 352.19C222.063 351.944 222.149 351.693 222.218 351.438C222.293 351.179 222.353 350.926 222.399 350.68C222.45 350.434 222.49 350.214 222.518 350.019L224.145 350.332C224.132 350.443 224.111 350.576 224.083 350.729C224.06 350.882 224.034 351.049 224.006 351.23C223.978 351.406 223.951 351.591 223.923 351.786C223.9 351.981 223.881 352.176 223.867 352.37C223.867 352.408 223.867 352.445 223.867 352.482C223.867 352.593 223.879 352.709 223.902 352.83C223.925 352.946 223.974 353.057 224.048 353.163C224.122 353.266 224.22 353.349 224.34 353.414C224.461 353.474 224.609 353.507 224.785 353.511C225.115 353.511 225.384 353.428 225.592 353.261C225.801 353.094 225.905 352.839 225.905 352.496C225.905 352.245 225.871 351.974 225.801 351.682C225.736 351.39 225.655 351.104 225.558 350.826C225.465 350.548 225.365 350.286 225.258 350.04C225.152 349.794 225.059 349.59 224.98 349.428L226.476 348.593C226.504 348.644 226.548 348.737 226.608 348.871C226.673 349.006 226.745 349.173 226.824 349.372C226.907 349.567 226.991 349.787 227.074 350.033C227.158 350.279 227.234 350.539 227.304 350.812C227.378 351.081 227.436 351.357 227.478 351.64C227.524 351.923 227.547 352.201 227.547 352.475C227.547 352.906 227.48 353.296 227.345 353.643C227.216 353.991 227.021 354.288 226.761 354.534C226.506 354.78 226.191 354.968 225.815 355.097C225.453 355.227 225.038 355.292 224.57 355.292C224.556 355.292 224.54 355.292 224.521 355.292C224.503 355.292 224.486 355.292 224.472 355.292C224.254 355.292 224.055 355.262 223.874 355.202C223.693 355.146 223.526 355.067 223.373 354.965C223.225 354.859 223.09 354.738 222.97 354.603C222.854 354.469 222.749 354.332 222.657 354.193C222.55 354.346 222.434 354.49 222.309 354.624C222.184 354.754 222.038 354.868 221.871 354.965C221.708 355.063 221.523 355.139 221.314 355.195C221.11 355.255 220.874 355.288 220.605 355.292C220.591 355.292 220.574 355.292 220.556 355.292C220.347 355.292 220.152 355.264 219.972 355.209C219.795 355.153 219.631 355.077 219.478 354.979C219.329 354.877 219.192 354.759 219.067 354.624C218.947 354.49 218.835 354.348 218.733 354.2C218.645 354.33 218.538 354.455 218.413 354.576C218.293 354.696 218.142 354.805 217.961 354.903C217.785 354.995 217.576 355.07 217.335 355.125C217.094 355.181 216.811 355.209 216.486 355.209H216.236V353.428H216.514ZM231.774 350.583C231.867 350.875 231.962 351.181 232.059 351.501C232.161 351.816 232.252 352.136 232.331 352.461C232.414 352.786 232.481 353.11 232.532 353.435C232.583 353.755 232.609 354.068 232.609 354.374C232.609 354.791 232.544 355.197 232.414 355.591C232.289 355.99 232.113 356.373 231.885 356.739C231.663 357.11 231.396 357.463 231.085 357.797C230.779 358.13 230.445 358.446 230.084 358.743C229.722 359.039 229.339 359.315 228.936 359.57C228.532 359.826 228.124 360.055 227.711 360.259L226.918 358.666C227.248 358.504 227.572 358.323 227.892 358.123C228.212 357.929 228.516 357.72 228.804 357.497C229.096 357.275 229.365 357.041 229.611 356.795C229.861 356.549 230.074 356.294 230.251 356.03C230.431 355.765 230.573 355.494 230.675 355.216C230.777 354.937 230.828 354.657 230.828 354.374C230.828 354.11 230.798 353.831 230.738 353.539C230.677 353.247 230.603 352.959 230.515 352.677C230.431 352.389 230.343 352.113 230.251 351.849C230.162 351.584 230.088 351.35 230.028 351.146L231.774 350.583ZM237.527 355.209H237.249C236.307 355.209 235.593 354.972 235.106 354.499C234.619 354.026 234.373 353.312 234.369 352.357C234.369 352.208 234.373 351.965 234.383 351.626C234.392 351.283 234.396 350.866 234.396 350.374C234.396 350.082 234.394 349.769 234.389 349.435C234.385 349.096 234.378 348.753 234.369 348.405C234.359 348.053 234.345 347.703 234.327 347.355C234.313 347.002 234.294 346.664 234.271 346.339C234.248 346.01 234.22 345.704 234.188 345.421C234.155 345.133 234.118 344.881 234.076 344.663L235.823 344.141C235.874 344.41 235.92 344.739 235.962 345.129C236.003 345.514 236.04 345.926 236.073 346.367C236.105 346.808 236.129 347.257 236.143 347.717C236.161 348.171 236.17 348.6 236.17 349.003C236.17 349.249 236.173 349.511 236.177 349.79C236.182 350.063 236.184 350.304 236.184 350.513C236.184 350.689 236.182 350.856 236.177 351.014C236.177 351.167 236.175 351.315 236.17 351.459C236.17 351.603 236.168 351.744 236.163 351.883C236.163 352.023 236.163 352.164 236.163 352.308C236.163 352.345 236.163 352.382 236.163 352.419C236.163 352.586 236.18 352.734 236.212 352.864C236.249 352.994 236.312 353.103 236.4 353.191C236.488 353.275 236.599 353.335 236.734 353.372C236.873 353.409 237.033 353.428 237.214 353.428H237.527V355.209ZM237.418 353.428C237.905 353.428 238.374 353.414 238.824 353.386C239.274 353.354 239.684 353.31 240.055 353.254C240.426 353.198 240.746 353.131 241.015 353.052C241.284 352.973 241.486 352.885 241.62 352.788H240.911C240.503 352.788 240.113 352.737 239.742 352.635C239.376 352.528 239.053 352.37 238.775 352.162C238.497 351.953 238.274 351.693 238.107 351.383C237.945 351.067 237.864 350.701 237.864 350.283C237.864 350.038 237.889 349.785 237.94 349.525C237.991 349.266 238.068 349.013 238.17 348.767C238.272 348.521 238.395 348.289 238.538 348.071C238.682 347.853 238.847 347.663 239.032 347.501C239.218 347.334 239.422 347.204 239.645 347.111C239.867 347.014 240.108 346.965 240.368 346.965C240.688 346.965 240.987 347.032 241.265 347.167C241.544 347.301 241.796 347.485 242.024 347.717C242.251 347.944 242.453 348.208 242.629 348.51C242.805 348.811 242.954 349.129 243.074 349.463C243.195 349.797 243.285 350.137 243.345 350.485C243.41 350.828 243.443 351.155 243.443 351.466C243.443 351.995 243.369 352.454 243.22 352.843C243.076 353.233 242.872 353.567 242.608 353.845C242.348 354.123 242.035 354.351 241.669 354.527C241.307 354.703 240.906 354.842 240.465 354.944C240.025 355.046 239.552 355.116 239.046 355.153C238.545 355.19 238.026 355.209 237.488 355.209H237.251V353.428H237.418ZM240.368 348.76C240.345 348.755 240.322 348.753 240.298 348.753C240.206 348.753 240.099 348.79 239.978 348.864C239.858 348.939 239.742 349.045 239.631 349.184C239.519 349.323 239.429 349.481 239.359 349.657C239.29 349.829 239.255 349.998 239.255 350.165C239.255 350.174 239.255 350.184 239.255 350.193C239.255 350.36 239.292 350.497 239.366 350.603C239.44 350.706 239.54 350.784 239.665 350.84C239.795 350.896 239.944 350.935 240.111 350.958C240.282 350.981 240.463 350.998 240.653 351.007C240.778 351.012 240.908 351.014 241.043 351.014C241.108 351.014 241.207 351.014 241.342 351.014C241.481 351.009 241.623 351.002 241.766 350.993C241.725 350.826 241.664 350.62 241.585 350.374C241.511 350.123 241.416 349.882 241.3 349.65C241.189 349.414 241.054 349.21 240.897 349.038C240.744 348.867 240.567 348.774 240.368 348.76ZM241.648 344.704L240.312 346.04L238.984 344.704L240.312 343.376L241.648 344.704Z" fill="black"/>
</svg>
