<svg width="400" height="400" viewBox="0 0 400 400" fill="none" xmlns="http://www.w3.org/2000/svg">
<rect width="400" height="400" fill="white"/>
<path d="M166.797 53.7443C166 53.7443 165.262 53.6446 164.585 53.4452C163.908 53.2504 163.331 52.9536 162.853 52.5548C162.375 52.1606 162.016 51.6643 161.775 51.0661C161.58 50.5977 161.483 50.0667 161.483 49.473C161.483 49.3154 161.49 49.153 161.503 48.9861C161.531 48.6661 161.568 48.3391 161.615 48.0052C161.666 47.6713 161.733 47.3212 161.816 46.9548C161.905 46.5838 162.016 46.1919 162.15 45.7791C162.285 45.3664 162.452 44.9212 162.651 44.4435L164.084 45.1043C163.894 45.5774 163.736 46.0157 163.611 46.4191C163.486 46.818 163.386 47.189 163.312 47.5322C163.243 47.8754 163.194 48.1977 163.166 48.4991C163.138 48.8006 163.124 49.0904 163.124 49.3687C163.124 49.7026 163.166 50.0017 163.25 50.2661C163.338 50.5304 163.449 50.767 163.583 50.9757C163.764 51.2214 163.992 51.4093 164.265 51.5391C164.539 51.6736 164.826 51.771 165.128 51.8313C165.434 51.8916 165.733 51.9264 166.025 51.9357C166.322 51.9496 166.579 51.9565 166.797 51.9565C166.927 51.9565 167.115 51.9472 167.361 51.9287C167.611 51.9101 167.883 51.8777 168.175 51.8313C168.472 51.7849 168.775 51.7246 169.086 51.6504C169.397 51.5762 169.677 51.4835 169.928 51.3722C170.183 51.2609 170.389 51.131 170.547 50.9826C170.709 50.8342 170.79 50.6603 170.79 50.4609C170.79 50.4284 170.749 50.3774 170.665 50.3078C170.586 50.2429 170.475 50.1687 170.331 50.0852C170.192 50.0017 170.027 49.9136 169.837 49.8209C169.647 49.7328 169.443 49.647 169.225 49.5635C168.905 49.4568 168.587 49.378 168.272 49.327C167.957 49.2759 167.644 49.2226 167.333 49.167L167.57 47.4278H173.093V49.2087H171.792C171.978 49.4359 172.101 49.6586 172.161 49.8765C172.226 50.0991 172.261 50.2939 172.265 50.4609C172.247 50.869 172.142 51.233 171.952 51.553C171.762 51.8777 171.516 52.1606 171.215 52.4017C170.918 52.6475 170.579 52.8539 170.199 53.0209C169.819 53.1925 169.429 53.3316 169.03 53.4383C168.632 53.5449 168.237 53.6214 167.848 53.6678C167.463 53.7188 167.113 53.7443 166.797 53.7443ZM172.822 47.4278H174.304C174.522 47.4278 174.756 47.4162 175.006 47.393C175.261 47.3652 175.495 47.3119 175.709 47.233C175.927 47.1496 176.105 47.0313 176.244 46.8783C176.388 46.7252 176.46 46.5212 176.46 46.2661C176.46 46.1455 176.435 45.9762 176.384 45.7583C176.333 45.5403 176.265 45.2991 176.182 45.0348C176.098 44.7704 175.999 44.4968 175.883 44.2139C175.771 43.931 175.653 43.6667 175.528 43.4209L177.135 42.6278C177.251 42.8922 177.367 43.1728 177.483 43.4696C177.599 43.7664 177.701 44.0725 177.789 44.3878C177.882 44.6986 177.956 45.0116 178.011 45.327C178.067 45.6423 178.095 45.9507 178.095 46.2522C178.095 46.7901 177.995 47.247 177.796 47.6226C177.596 47.9983 177.323 48.3043 176.975 48.5409C176.632 48.7728 176.228 48.942 175.764 49.0487C175.305 49.1554 174.814 49.2087 174.29 49.2087H172.822V47.4278ZM175.41 51.2678L174.227 52.4504L173.031 51.2609L174.213 50.0713L175.41 51.2678ZM178.039 51.2748L176.857 52.4643L175.66 51.2678L176.843 50.0852L178.039 51.2748ZM179.234 52.3391C179.916 52.2046 180.531 52.0238 181.078 51.7965C181.63 51.5739 182.107 51.3235 182.511 51.0452C182.914 50.767 183.241 50.4701 183.492 50.1548C183.747 49.8394 183.916 49.5241 183.999 49.2087C183.624 49.2087 183.257 49.1971 182.9 49.1739C182.543 49.1507 182.205 49.1043 181.885 49.0348C181.569 48.9699 181.277 48.8771 181.008 48.7565C180.744 48.6313 180.514 48.469 180.319 48.2696C180.129 48.0655 179.981 47.8197 179.874 47.5322C179.768 47.2446 179.714 46.9014 179.714 46.5026C179.714 46.2475 179.742 45.9809 179.798 45.7026C179.853 45.4243 179.932 45.153 180.034 44.8887C180.141 44.6197 180.271 44.367 180.424 44.1304C180.577 43.8893 180.753 43.6783 180.953 43.4974C181.152 43.3119 181.372 43.1658 181.613 43.0591C181.855 42.9525 182.114 42.8991 182.393 42.8991C183.111 42.8991 183.768 43.2191 184.361 43.8591C184.556 44.0771 184.732 44.3206 184.89 44.5896C185.048 44.8586 185.184 45.1461 185.3 45.4522C185.416 45.7583 185.509 46.0783 185.579 46.4122C185.653 46.7414 185.699 47.08 185.718 47.4278H186.184V49.2087H185.572C185.414 49.8951 185.147 50.5119 184.772 51.0591C184.396 51.611 183.944 52.091 183.415 52.4991C182.891 52.9072 182.307 53.2435 181.662 53.5078C181.017 53.7722 180.347 53.9623 179.652 54.0783L179.234 52.3391ZM182.393 44.687C182.272 44.687 182.142 44.738 182.003 44.84C181.864 44.942 181.736 45.0742 181.62 45.2365C181.504 45.3942 181.407 45.5704 181.328 45.7652C181.254 45.96 181.217 46.1501 181.217 46.3357C181.217 46.5304 181.261 46.6928 181.349 46.8226C181.442 46.9525 181.558 47.0568 181.697 47.1357C181.841 47.2145 182.001 47.2748 182.177 47.3165C182.358 47.3536 182.536 47.3791 182.713 47.393C182.81 47.4023 182.917 47.4093 183.033 47.4139C183.148 47.4139 183.267 47.4162 183.387 47.4209C183.513 47.4255 183.635 47.4278 183.756 47.4278C183.877 47.4278 183.99 47.4278 184.097 47.4278C184.083 47.2562 184.048 47.0707 183.993 46.8713C183.942 46.6672 183.874 46.4632 183.791 46.2591C183.707 46.0551 183.612 45.8603 183.506 45.6748C183.399 45.4846 183.283 45.3177 183.158 45.1739C183.037 45.0255 182.912 44.9072 182.782 44.8191C182.652 44.731 182.522 44.687 182.393 44.687ZM192.105 47.4278V49.2087H191.966C191.516 49.2087 191.136 49.1368 190.825 48.993C190.514 48.8493 190.25 48.6638 190.032 48.4365C189.879 48.6313 189.652 48.782 189.35 48.8887C189.054 48.9907 188.722 49.0649 188.356 49.1113C187.989 49.1623 187.611 49.1901 187.222 49.1948C186.837 49.2041 186.482 49.2087 186.157 49.2087H185.9V47.4278H186.157C186.7 47.4278 187.157 47.3977 187.528 47.3374C187.899 47.2725 188.198 47.1797 188.425 47.0591C188.657 46.9386 188.824 46.7878 188.926 46.607C189.028 46.4214 189.079 46.2081 189.079 45.967C189.079 45.8093 189.049 45.6006 188.989 45.3409C188.928 45.0765 188.838 44.738 188.717 44.3252L190.429 43.8452C190.489 44.0493 190.535 44.2301 190.568 44.3878C190.605 44.5409 190.633 44.6962 190.651 44.8539C190.674 45.007 190.693 45.1739 190.707 45.3548C190.725 45.531 190.744 45.742 190.763 45.9878C190.776 46.1362 190.811 46.2962 190.867 46.4678C190.923 46.6348 190.999 46.7901 191.096 46.9339C191.198 47.073 191.321 47.1913 191.465 47.2887C191.609 47.3814 191.776 47.4278 191.966 47.4278H192.105ZM189.016 41.2643L187.834 42.447L186.637 41.2574L187.82 40.0678L189.016 41.2643ZM191.646 41.2713L190.463 42.4609L189.267 41.2643L190.449 40.0817L191.646 41.2713ZM191.822 47.4278H192.351C192.606 47.4278 192.817 47.4 192.984 47.3443C193.151 47.2841 193.28 47.1913 193.373 47.0661C193.466 46.9409 193.528 46.7809 193.561 46.5861C193.598 46.3867 193.617 46.1478 193.617 45.8696C193.617 45.7629 193.617 45.6354 193.617 45.487C193.621 45.3386 193.621 45.1391 193.617 44.8887C193.617 44.6336 193.607 44.3136 193.589 43.9287C193.57 43.5391 193.54 43.0522 193.498 42.4678C193.48 41.9716 193.459 41.4962 193.436 41.0417C193.413 40.5872 193.389 40.1814 193.366 39.8243C193.348 39.4672 193.329 39.1728 193.311 38.9409C193.297 38.709 193.287 38.5675 193.283 38.5165L195.036 38.1409C195.087 38.6881 195.133 39.3258 195.175 40.0539C195.221 40.782 195.263 41.5658 195.3 42.4052C195.319 43.0359 195.335 43.5554 195.349 43.9635C195.363 44.367 195.374 44.7032 195.384 44.9722C195.397 45.2365 195.407 45.4545 195.411 45.6261C195.416 45.793 195.418 45.9554 195.418 46.113C195.418 46.5907 195.358 47.022 195.237 47.407C195.117 47.7872 194.931 48.1119 194.681 48.3809C194.431 48.6452 194.113 48.8493 193.728 48.993C193.343 49.1368 192.884 49.2087 192.351 49.2087H191.822V47.4278ZM200.394 49.2087H200.116C199.174 49.2087 198.46 48.9722 197.973 48.4991C197.486 48.0261 197.24 47.3119 197.236 46.3565C197.236 46.2081 197.24 45.9646 197.25 45.6261C197.259 45.2829 197.264 44.8655 197.264 44.3739C197.264 44.0817 197.261 43.7687 197.257 43.4348C197.252 43.0962 197.245 42.753 197.236 42.4052C197.227 42.0528 197.213 41.7026 197.194 41.3548C197.18 41.0023 197.162 40.6638 197.138 40.3391C197.115 40.0099 197.087 39.7038 197.055 39.4209C197.022 39.1333 196.985 38.8806 196.944 38.6626L198.69 38.1409C198.741 38.4099 198.787 38.7391 198.829 39.1287C198.871 39.5136 198.908 39.9264 198.94 40.367C198.973 40.8075 198.996 41.2574 199.01 41.7165C199.028 42.171 199.038 42.6 199.038 43.0035C199.038 43.2493 199.04 43.5113 199.044 43.7896C199.049 44.0632 199.051 44.3043 199.051 44.513C199.051 44.6893 199.049 44.8562 199.044 45.0139C199.044 45.167 199.042 45.3154 199.038 45.4591C199.038 45.6029 199.035 45.7443 199.031 45.8835C199.031 46.0226 199.031 46.1641 199.031 46.3078C199.031 46.3449 199.031 46.382 199.031 46.4191C199.031 46.5861 199.047 46.7345 199.079 46.8643C199.116 46.9942 199.179 47.1032 199.267 47.1913C199.355 47.2748 199.467 47.3351 199.601 47.3722C199.74 47.4093 199.9 47.4278 200.081 47.4278H200.394V49.2087ZM200.119 47.4278H201.6C201.818 47.4278 202.053 47.4162 202.303 47.393C202.558 47.3652 202.792 47.3119 203.006 47.233C203.224 47.1496 203.402 47.0313 203.541 46.8783C203.685 46.7252 203.757 46.5212 203.757 46.2661C203.757 46.1455 203.731 45.9762 203.68 45.7583C203.629 45.5403 203.562 45.2991 203.479 45.0348C203.395 44.7704 203.295 44.4968 203.18 44.2139C203.068 43.931 202.95 43.6667 202.825 43.4209L204.432 42.6278C204.548 42.8922 204.664 43.1728 204.78 43.4696C204.895 43.7664 204.998 44.0725 205.086 44.3878C205.178 44.6986 205.253 45.0116 205.308 45.327C205.364 45.6423 205.392 45.9507 205.392 46.2522C205.392 46.7901 205.292 47.247 205.093 47.6226C204.893 47.9983 204.62 48.3043 204.272 48.5409C203.929 48.7728 203.525 48.942 203.061 49.0487C202.602 49.1554 202.111 49.2087 201.587 49.2087H200.119V47.4278ZM203.047 51.5809L204.23 50.3983L205.427 51.5878L204.244 52.7774L203.047 51.5809ZM200.418 51.5739L201.6 50.3843L202.797 51.5809L201.614 52.7635L200.418 51.5739ZM204.007 53.5913L202.922 54.6765L201.83 53.5843L202.922 52.4991L204.007 53.5913ZM215.65 52.8748C215.919 52.9212 216.19 52.9443 216.464 52.9443C216.533 52.9443 216.67 52.9397 216.874 52.9304C217.078 52.9212 217.34 52.8794 217.66 52.8052C217.98 52.731 218.286 52.6313 218.578 52.5061C218.875 52.3809 219.146 52.2371 219.392 52.0748L220.331 53.633C220.062 53.7954 219.784 53.9438 219.497 54.0783C219.214 54.2174 218.919 54.3357 218.613 54.433C218.312 54.5304 217.999 54.6046 217.674 54.6557C217.391 54.702 217.101 54.7252 216.804 54.7252C216.758 54.7252 216.709 54.7252 216.658 54.7252C216.222 54.7159 215.786 54.6696 215.351 54.5861C214.919 54.5026 214.506 54.382 214.112 54.2243C213.723 54.0667 213.359 53.8696 213.02 53.633C212.686 53.4012 212.394 53.1299 212.144 52.8191C211.898 52.513 211.703 52.1675 211.559 51.7826C211.415 51.4023 211.341 50.9803 211.337 50.5165C211.351 50.0203 211.443 49.5565 211.615 49.1252C211.786 48.6986 212.014 48.309 212.297 47.9565C212.584 47.5994 212.913 47.2817 213.284 47.0035C213.66 46.7252 214.057 46.4864 214.474 46.287C214.326 46.1478 214.173 46.011 214.015 45.8765C213.862 45.7374 213.713 45.6075 213.57 45.487C213.426 45.3617 213.291 45.2481 213.166 45.1461C213.041 45.0394 212.937 44.949 212.853 44.8748L212.721 43.3861C213.328 42.8574 213.982 42.4609 214.683 42.1965C215.388 41.9275 216.123 41.793 216.888 41.793C217.115 41.793 217.349 41.8093 217.591 41.8417C217.836 41.8742 218.075 41.9252 218.307 41.9948C218.539 42.0643 218.757 42.1548 218.961 42.2661C219.165 42.3774 219.344 42.5142 219.497 42.6765C219.65 42.8342 219.77 43.0174 219.858 43.2261C219.937 43.4301 219.977 43.6574 219.977 43.9078C219.977 43.9217 219.977 43.9357 219.977 43.9496C219.958 44.302 219.888 44.6174 219.768 44.8957C219.652 45.1739 219.499 45.4243 219.309 45.647C219.119 45.8696 218.898 46.069 218.648 46.2452C218.402 46.4214 218.14 46.5838 217.862 46.7322C218.237 46.9409 218.636 47.1101 219.058 47.24C219.485 47.3652 219.9 47.4278 220.304 47.4278H220.54V49.2087H220.304C219.919 49.2087 219.545 49.1693 219.184 49.0904C218.822 49.0116 218.465 48.9003 218.112 48.7565C217.76 48.6081 217.41 48.4342 217.062 48.2348C216.714 48.0307 216.364 47.8058 216.011 47.56C215.673 47.6945 215.33 47.8522 214.982 48.033C214.634 48.2093 214.316 48.418 214.029 48.6591C213.746 48.8957 213.514 49.1646 213.333 49.4661C213.152 49.7675 213.062 50.1084 213.062 50.4887C213.062 50.702 213.104 50.9061 213.187 51.1009C213.275 51.2957 213.389 51.4765 213.528 51.6435C213.667 51.8151 213.827 51.9704 214.008 52.1096C214.189 52.2533 214.374 52.3762 214.564 52.4783C214.759 52.5849 214.949 52.6707 215.135 52.7357C215.325 52.8052 215.497 52.8516 215.65 52.8748ZM216.895 43.4904C216.709 43.4904 216.515 43.5043 216.311 43.5322C216.106 43.5554 215.905 43.5901 215.705 43.6365C215.506 43.6783 215.313 43.7316 215.128 43.7965C214.947 43.8568 214.787 43.9241 214.648 43.9983C214.745 44.1003 214.854 44.2186 214.975 44.353C215.095 44.4829 215.223 44.6197 215.357 44.7635C215.497 44.9072 215.638 45.051 215.782 45.1948C215.926 45.3339 216.067 45.4638 216.206 45.5843C216.512 45.4545 216.797 45.3223 217.062 45.1878C217.326 45.0533 217.556 44.9165 217.751 44.7774C217.95 44.6336 218.108 44.4852 218.224 44.3322C218.339 44.1791 218.4 44.0214 218.404 43.8591C218.4 43.8406 218.37 43.8128 218.314 43.7757C218.258 43.7386 218.168 43.7014 218.043 43.6643C217.922 43.6226 217.767 43.5855 217.577 43.553C217.391 43.5206 217.164 43.4997 216.895 43.4904ZM220.259 47.4278H221.317L221.365 47.3374C221.444 47.1983 221.556 47.0151 221.699 46.7878C221.848 46.5559 222.033 46.2939 222.256 46.0017C222.298 45.7096 222.332 45.3409 222.36 44.8957C222.388 44.4504 222.404 43.9681 222.409 43.4487C222.409 43.1658 222.404 42.8759 222.395 42.5791C222.386 42.2777 222.367 41.9322 222.339 41.5426C222.311 41.153 222.272 40.6986 222.221 40.1791C222.175 39.6551 222.114 39.0313 222.04 38.3078L223.87 37.8348C223.99 38.7252 224.081 39.6388 224.141 40.5757C224.206 41.5125 224.238 42.44 224.238 43.3583V43.9217C224.489 43.7084 224.749 43.5043 225.018 43.3096C225.291 43.1148 225.574 42.9432 225.866 42.7948C226.163 42.6464 226.471 42.5281 226.791 42.44C227.111 42.3519 227.445 42.3078 227.793 42.3078C228.146 42.3078 228.48 42.3635 228.795 42.4748C229.11 42.5861 229.389 42.7484 229.63 42.9617C229.876 43.1704 230.077 43.4255 230.235 43.727C230.393 44.0284 230.49 44.367 230.527 44.7426C230.532 44.8122 230.534 44.8794 230.534 44.9443C230.534 45.4267 230.453 45.8765 230.291 46.2939C230.133 46.7113 229.899 47.0893 229.588 47.4278H231.55V49.2087H229.699C229.333 49.2087 228.925 49.1925 228.475 49.16C228.025 49.1275 227.527 49.0417 226.979 48.9026C226.585 49.0093 226.184 49.0858 225.776 49.1322C225.372 49.1832 224.967 49.2087 224.558 49.2087H220.259V47.4278ZM223.911 47.4278C224.194 47.4278 224.519 47.4209 224.885 47.407C225.256 47.393 225.637 47.3606 226.026 47.3096C226.416 47.2586 226.794 47.182 227.16 47.08C227.531 46.978 227.86 46.8412 228.148 46.6696C228.436 46.498 228.663 46.2823 228.83 46.0226C228.974 45.8 229.045 45.5357 229.045 45.2296C229.045 45.1878 229.043 45.1438 229.038 45.0974C229.029 44.9583 228.983 44.8284 228.899 44.7078C228.82 44.5872 228.709 44.4852 228.565 44.4017C228.426 44.3136 228.259 44.2441 228.065 44.193C227.898 44.1559 227.717 44.1374 227.522 44.1374C227.485 44.1374 227.445 44.1374 227.404 44.1374C227.172 44.1467 226.896 44.207 226.576 44.3183C226.256 44.4249 225.913 44.6058 225.546 44.8609C225.18 45.1159 224.8 45.4522 224.405 45.8696C224.011 46.287 223.626 46.8064 223.251 47.4278H223.911ZM231.442 47.4278C231.929 47.4278 232.397 47.4139 232.847 47.3861C233.297 47.3536 233.707 47.3096 234.078 47.2539C234.449 47.1983 234.769 47.131 235.038 47.0522C235.307 46.9733 235.509 46.8852 235.644 46.7878H234.934C234.526 46.7878 234.136 46.7368 233.765 46.6348C233.399 46.5281 233.077 46.3704 232.798 46.1617C232.52 45.953 232.298 45.6933 232.131 45.3826C231.968 45.0672 231.887 44.7009 231.887 44.2835C231.887 44.0377 231.913 43.7849 231.964 43.5252C232.015 43.2655 232.091 43.0128 232.193 42.767C232.295 42.5212 232.418 42.2893 232.562 42.0713C232.706 41.8533 232.87 41.6632 233.056 41.5009C233.241 41.3339 233.445 41.2041 233.668 41.1113C233.891 41.0139 234.132 40.9652 234.391 40.9652C234.711 40.9652 235.011 41.0325 235.289 41.167C235.567 41.3014 235.82 41.4846 236.047 41.7165C236.274 41.9438 236.476 42.2081 236.652 42.5096C236.829 42.811 236.977 43.1287 237.098 43.4626C237.218 43.7965 237.309 44.1374 237.369 44.4852C237.434 44.8284 237.466 45.1554 237.466 45.4661C237.466 45.9948 237.392 46.4539 237.244 46.8435C237.1 47.233 236.896 47.567 236.631 47.8452C236.372 48.1235 236.059 48.3507 235.692 48.527C235.331 48.7032 234.929 48.8423 234.489 48.9443C234.048 49.0464 233.575 49.1159 233.07 49.153C232.569 49.1901 232.049 49.2087 231.511 49.2087H231.275V47.4278H231.442ZM234.391 42.76C234.368 42.7554 234.345 42.753 234.322 42.753C234.229 42.753 234.122 42.7901 234.002 42.8643C233.881 42.9386 233.765 43.0452 233.654 43.1843C233.543 43.3235 233.452 43.4812 233.383 43.6574C233.313 43.829 233.278 43.9983 233.278 44.1652C233.278 44.1745 233.278 44.1838 233.278 44.193C233.278 44.36 233.316 44.4968 233.39 44.6035C233.464 44.7055 233.564 44.7843 233.689 44.84C233.819 44.8957 233.967 44.9351 234.134 44.9583C234.306 44.9814 234.487 44.9977 234.677 45.007C234.802 45.0116 234.932 45.0139 235.066 45.0139C235.131 45.0139 235.231 45.0139 235.365 45.0139C235.504 45.0093 235.646 45.0023 235.79 44.993C235.748 44.8261 235.688 44.6197 235.609 44.3739C235.535 44.1235 235.44 43.8823 235.324 43.6504C235.212 43.4139 235.078 43.2099 234.92 43.0383C234.767 42.8667 234.591 42.7739 234.391 42.76ZM234.224 38.8713L233.042 40.0539L231.845 38.8643L233.028 37.6748L234.224 38.8713ZM236.854 38.8783L235.671 40.0678L234.475 38.8713L235.658 37.6887L236.854 38.8783Z" fill="black"/>
<path d="M279.588 130.47C279.588 130.484 279.597 130.559 279.615 130.696C279.632 130.826 279.649 130.997 279.667 131.211C279.684 131.417 279.698 131.649 279.71 131.908C279.716 132.085 279.719 132.265 279.719 132.446V132.717C279.696 134.308 279.38 135.329 278.772 135.78V135.769C278.182 136.231 277.38 136.125 276.367 135.45C276.09 135.264 275.838 135.076 275.612 134.883C275.392 134.688 275.172 134.465 274.952 134.214L275.022 134.834C275.091 135.534 275.146 136.246 275.187 136.968C275.233 137.688 275.268 138.403 275.291 139.114C275.32 139.822 275.337 140.516 275.343 141.194C275.354 141.87 275.36 142.51 275.36 143.115L273.632 141.964C273.632 140.858 273.624 139.753 273.606 138.649C273.589 137.538 273.543 136.443 273.467 135.363C273.392 134.277 273.279 133.213 273.129 132.174C272.984 131.131 272.782 130.127 272.521 129.16C272.4 128.703 272.269 128.258 272.13 127.825C271.991 127.391 271.835 126.936 271.662 126.458L273.111 126.319C273.204 126.562 273.288 126.802 273.363 127.04C273.444 127.275 273.522 127.518 273.598 127.77C273.679 128.019 273.76 128.282 273.841 128.558C273.922 128.835 274.012 129.135 274.11 129.458C274.243 129.915 274.373 130.336 274.501 130.72C274.634 131.101 274.784 131.455 274.952 131.783C275.126 132.114 275.323 132.412 275.543 132.677C275.768 132.939 276.043 133.178 276.367 133.394C276.848 133.714 277.21 133.778 277.453 133.585C277.563 133.506 277.652 133.388 277.722 133.232C277.791 133.07 277.846 132.888 277.887 132.685C277.933 132.486 277.965 132.271 277.982 132.039C278 131.807 278.008 131.577 278.008 131.347C278.008 131.048 277.994 130.75 277.965 130.452C277.942 130.158 277.916 129.911 277.887 129.711L279.588 130.47ZM283.952 148.906C283.952 147.549 283.931 146.19 283.891 144.827C283.85 143.457 283.76 142.11 283.622 140.787C283.483 139.463 283.283 138.178 283.023 136.933C282.768 135.692 282.423 134.516 281.989 133.406L283.431 133.261C283.905 134.489 284.299 135.805 284.611 137.21C284.93 138.612 285.173 140.134 285.341 141.776C285.41 142.476 285.465 143.188 285.506 143.91C285.552 144.637 285.587 145.356 285.61 146.067C285.639 146.775 285.656 147.465 285.662 148.136C285.673 148.812 285.679 149.452 285.679 150.057L283.952 148.906Z" fill="black"/>
<path d="M99.1413 130.352C99.1413 128.996 99.121 127.663 99.0805 126.355C99.04 125.039 98.9503 123.812 98.8114 122.673C98.6724 121.534 98.4727 120.516 98.2123 119.619C97.9576 118.717 97.6132 118.001 97.1791 117.469L98.6203 115.402C99.095 115.997 99.4886 116.789 99.8011 117.777C100.119 118.754 100.363 119.952 100.53 121.371C100.6 121.978 100.655 122.616 100.695 123.285C100.742 123.95 100.776 124.622 100.8 125.302C100.829 125.972 100.846 126.639 100.852 127.302C100.863 127.963 100.869 128.595 100.869 129.2L99.1413 130.352ZM104.894 126.517C104.894 125.161 104.874 123.828 104.833 122.519C104.793 121.204 104.703 119.977 104.564 118.838C104.425 117.699 104.226 116.681 103.965 115.783C103.71 114.882 103.366 114.165 102.932 113.634L104.373 111.567C104.848 112.162 105.241 112.953 105.554 113.942C105.872 114.919 106.115 116.117 106.283 117.535C106.353 118.143 106.408 118.781 106.448 119.45C106.495 120.114 106.529 120.787 106.552 121.467C106.581 122.137 106.599 122.803 106.605 123.467C106.616 124.127 106.622 124.76 106.622 125.365L104.894 126.517Z" fill="black"/>
<path d="M361.95 217.165L361.95 223.956L228.197 314.064L40.6004 190.834L40.6004 184.662L175.329 94.1729L361.95 217.165Z" fill="#E7E7E7" stroke="black"/>
<path d="M362.614 216.95L362.614 223.338L228.789 313.546L228.789 306.662L362.614 216.95Z" fill="#A3A3A3" stroke="black"/>
<path d="M40.5388 184.496L175.706 94.0533L362.558 216.382L228.237 306.598L40.5388 184.496Z" fill="#E7E7E7" stroke="black"/>
<path d="M354.219 210.818L362.646 216.436L228.229 306.716L220.422 301.511L354.219 210.818Z" fill="#A3A3A3" stroke="black"/>
<path d="M181.312 185.513C180.553 185.008 179.954 184.415 179.513 183.735C179.079 183.058 178.872 182.299 178.894 181.455L182.674 181.019C182.698 181.383 182.759 181.71 182.858 182C182.963 182.286 183.09 182.541 183.241 182.765C183.392 182.989 183.557 183.184 183.736 183.35C183.922 183.52 184.11 183.669 184.301 183.796C184.457 183.9 184.633 184.006 184.83 184.114C185.033 184.219 185.244 184.313 185.464 184.398C185.689 184.486 185.915 184.559 186.141 184.617C186.366 184.675 186.589 184.707 186.809 184.715C187.12 184.211 187.431 183.681 187.742 183.123C188.065 182.565 188.385 182.006 188.702 181.444C189.025 180.879 189.345 180.319 189.662 179.765C189.979 179.212 190.29 178.685 190.596 178.185L194.188 179.166L190.149 185.713C189.999 185.953 189.872 186.166 189.769 186.352C189.665 186.538 189.607 186.712 189.596 186.874C189.591 187.041 189.637 187.199 189.736 187.35C189.846 187.501 190.031 187.663 190.292 187.836L190.543 188.004L187.806 189.843L187.554 189.675C187.201 189.44 186.912 189.216 186.686 189.003C186.466 188.795 186.292 188.59 186.164 188.389C186.037 188.196 185.947 188.004 185.895 187.815C185.854 187.625 185.833 187.434 185.833 187.241C185.388 187.183 184.971 187.107 184.584 187.011C184.19 186.918 183.812 186.801 183.447 186.659C183.083 186.516 182.727 186.348 182.379 186.156C182.032 185.97 181.676 185.756 181.312 185.513ZM190.199 187.775L190.763 188.151C191.023 188.324 191.284 188.444 191.544 188.509C191.816 188.575 192.085 188.595 192.351 188.572C192.628 188.548 192.897 188.484 193.157 188.379C193.423 188.278 193.68 188.144 193.928 187.977C194.275 187.752 194.69 187.477 195.176 187.151C195.666 186.821 196.189 186.466 196.743 186.086C197.304 185.702 197.878 185.305 198.467 184.894C199.062 184.479 199.636 184.073 200.191 183.678C200.751 183.278 201.279 182.9 201.776 182.543C202.278 182.183 202.714 181.867 203.084 181.595L206.347 183.098L196.057 190.138C195.699 190.378 195.505 190.628 195.477 190.888C195.46 191.147 195.631 191.396 195.99 191.635L196.181 191.763L193.443 193.601L193.252 193.474C193.009 193.319 192.789 193.146 192.592 192.953C192.401 192.763 192.242 192.568 192.114 192.367C191.981 192.17 191.888 191.977 191.836 191.787C191.784 191.598 191.778 191.428 191.818 191.277C191.546 191.297 191.271 191.291 190.994 191.261C190.716 191.23 190.424 191.163 190.118 191.059C189.811 190.963 189.484 190.826 189.137 190.649C188.79 190.472 188.414 190.248 188.008 189.978L187.461 189.613L190.199 187.775ZM195.835 191.532L197.666 192.753C198.604 193.378 199.519 193.914 200.41 194.362C201.312 194.809 202.201 195.196 203.074 195.523C203.948 195.851 204.812 196.134 205.669 196.372C206.536 196.61 207.401 196.835 208.263 197.047C207.979 196.71 207.718 196.355 207.48 195.98C207.249 195.609 207.008 195.24 206.759 194.873C206.515 194.51 206.249 194.162 205.959 193.83C205.675 193.494 205.339 193.196 204.952 192.938C204.685 192.76 204.35 192.633 203.945 192.557C203.546 192.484 203.15 192.44 202.757 192.425C202.363 192.41 202.008 192.417 201.69 192.444C201.378 192.468 201.173 192.49 201.074 192.509L200.359 190.305C200.966 190.192 201.605 190.112 202.276 190.064C202.946 190.017 203.602 190.017 204.244 190.067C204.898 190.116 205.519 190.221 206.109 190.382C206.705 190.548 207.234 190.785 207.697 191.094C208.039 191.321 208.343 191.574 208.609 191.852C208.882 192.126 209.128 192.414 209.348 192.716C209.574 193.021 209.777 193.334 209.957 193.655C210.142 193.972 210.322 194.288 210.496 194.605C210.658 194.907 210.824 195.21 210.992 195.516C211.166 195.817 211.357 196.119 211.566 196.42C211.78 196.717 212.026 197.009 212.304 197.295C212.582 197.581 212.915 197.857 213.303 198.123L210.427 199.764L208.605 199.338C207.859 199.165 207.107 199 206.349 198.843C205.597 198.682 204.843 198.511 204.085 198.33C203.333 198.146 202.572 197.944 201.803 197.725C201.039 197.502 200.276 197.244 199.512 196.951C198.754 196.655 197.993 196.314 197.23 195.928C196.46 195.546 195.693 195.101 194.929 194.592L193.097 193.37L195.835 191.532ZM195.53 201.322L195.526 198.746L199.377 198.739L199.381 201.315L195.53 201.322Z" fill="black"/>
<path d="M190.706 85.1575C190.543 84.8539 190.543 84.5373 190.706 84.4504L193.353 83.0334C193.516 82.9465 193.779 83.1221 193.941 83.4257C194.104 83.7292 194.104 84.0458 193.941 84.1328L191.588 85.3923L193.941 89.7896C194.104 90.0932 194.104 90.4098 193.941 90.4967C193.779 90.5837 193.516 90.4081 193.353 90.1045L190.706 85.1575ZM245.083 121.556L191 85.5V84.5L245.083 120.556V121.556Z" fill="black"/>
<path d="M40.7057 164.613C40.5433 164.526 40.5433 164.209 40.7057 163.906L43.3533 158.959C43.5158 158.655 43.7792 158.48 43.9416 158.567C44.1041 158.653 44.1041 158.97 43.9416 159.274L41.5883 163.671L43.9416 164.93C44.1041 165.017 44.1041 165.334 43.9416 165.638C43.7792 165.941 43.5158 166.117 43.3533 166.03L40.7057 164.613ZM87.5947 133.5L40.9999 164.563V163.563L87.5947 132.5V133.5Z" fill="black"/>
<path d="M162.889 84.4503C163.051 84.5373 163.051 84.8539 162.889 85.1574L160.241 90.1045C160.079 90.408 159.815 90.5836 159.653 90.4967C159.491 90.4097 159.491 90.0932 159.653 89.7896L162.006 85.3922L159.653 84.1327C159.491 84.0458 159.491 83.7292 159.653 83.4256C159.815 83.1221 160.079 82.9464 160.241 83.0334L162.889 84.4503ZM162.595 85.5L116 116.563V115.563L162.595 84.5V85.5Z" fill="black"/>
<path d="M365.377 199.954C365.54 200.257 365.54 200.574 365.377 200.661L362.73 202.078C362.567 202.165 362.304 201.989 362.141 201.685C361.979 201.382 361.979 201.065 362.141 200.978L364.495 199.719L362.141 195.321C361.979 195.018 361.979 194.701 362.141 194.614C362.304 194.527 362.567 194.703 362.73 195.007L365.377 199.954ZM365.083 200.611L311 164.556V163.556L365.083 199.611V200.611Z" fill="black"/>
<path d="M168.993 359.744C168.195 359.744 167.458 359.645 166.78 359.445C166.103 359.25 165.526 358.954 165.048 358.555C164.571 358.161 164.211 357.664 163.97 357.066C163.775 356.598 163.678 356.067 163.678 355.473C163.678 355.315 163.685 355.153 163.699 354.986C163.727 354.666 163.764 354.339 163.81 354.005C163.861 353.671 163.928 353.321 164.012 352.955C164.1 352.584 164.211 352.192 164.346 351.779C164.48 351.366 164.647 350.921 164.847 350.443L166.28 351.104C166.089 351.577 165.932 352.016 165.807 352.419C165.681 352.818 165.582 353.189 165.507 353.532C165.438 353.875 165.389 354.198 165.361 354.499C165.334 354.801 165.32 355.09 165.32 355.369C165.32 355.703 165.361 356.002 165.445 356.266C165.533 356.53 165.644 356.767 165.779 356.976C165.96 357.221 166.187 357.409 166.46 357.539C166.734 357.674 167.022 357.771 167.323 357.831C167.629 357.892 167.928 357.926 168.22 357.936C168.517 357.95 168.775 357.957 168.993 357.957C169.123 357.957 169.31 357.947 169.556 357.929C169.807 357.91 170.078 357.878 170.37 357.831C170.667 357.785 170.971 357.725 171.281 357.65C171.592 357.576 171.873 357.483 172.123 357.372C172.378 357.261 172.585 357.131 172.742 356.983C172.905 356.834 172.986 356.66 172.986 356.461C172.986 356.428 172.944 356.377 172.86 356.308C172.782 356.243 172.67 356.169 172.527 356.085C172.387 356.002 172.223 355.914 172.033 355.821C171.843 355.733 171.638 355.647 171.42 355.563C171.1 355.457 170.783 355.378 170.467 355.327C170.152 355.276 169.839 355.223 169.528 355.167L169.765 353.428H175.288V355.209H173.987C174.173 355.436 174.296 355.659 174.356 355.877C174.421 356.099 174.456 356.294 174.46 356.461C174.442 356.869 174.338 357.233 174.147 357.553C173.957 357.878 173.712 358.161 173.41 358.402C173.113 358.648 172.775 358.854 172.394 359.021C172.014 359.192 171.625 359.332 171.226 359.438C170.827 359.545 170.433 359.621 170.043 359.668C169.658 359.719 169.308 359.744 168.993 359.744ZM175.017 353.428H175.156C175.458 353.428 175.757 353.428 176.054 353.428C176.355 353.428 176.61 353.416 176.819 353.393C176.726 353.333 176.624 353.247 176.513 353.136C176.401 353.02 176.297 352.885 176.2 352.732C176.107 352.574 176.026 352.398 175.956 352.203C175.891 352.004 175.857 351.786 175.852 351.55C175.847 351.489 175.845 351.429 175.845 351.369C175.845 351.179 175.87 350.968 175.921 350.736C175.977 350.499 176.065 350.258 176.186 350.012C176.311 349.766 176.462 349.537 176.638 349.323C176.814 349.106 177.009 348.918 177.222 348.76C177.436 348.598 177.665 348.472 177.911 348.384C178.129 348.306 178.354 348.266 178.586 348.266C178.614 348.266 178.639 348.266 178.662 348.266C179.038 348.28 179.386 348.377 179.706 348.558C180.03 348.734 180.311 348.964 180.548 349.247C180.784 349.53 180.97 349.852 181.104 350.214C181.239 350.571 181.306 350.937 181.306 351.313C181.306 351.675 181.239 352.025 181.104 352.363C180.974 352.697 180.805 353.01 180.596 353.303C180.819 353.34 181.06 353.37 181.32 353.393C181.584 353.416 181.835 353.428 182.071 353.428H182.259V355.209H182.12C181.763 355.209 181.417 355.202 181.083 355.188C180.754 355.179 180.443 355.153 180.151 355.111C179.859 355.07 179.585 355.012 179.33 354.937C179.08 354.859 178.857 354.752 178.662 354.617C178.523 354.719 178.324 354.808 178.064 354.882C177.809 354.956 177.521 355.016 177.201 355.063C176.881 355.114 176.543 355.151 176.186 355.174C175.833 355.197 175.49 355.209 175.156 355.209H175.017V353.428ZM178.641 350.026C178.521 350.049 178.382 350.098 178.224 350.172C178.071 350.242 177.925 350.341 177.786 350.471C177.651 350.597 177.535 350.752 177.438 350.937C177.345 351.123 177.299 351.343 177.299 351.598C177.299 351.682 177.338 351.791 177.417 351.925C177.496 352.055 177.6 352.187 177.73 352.322C177.86 352.452 178.008 352.574 178.175 352.69C178.342 352.802 178.514 352.881 178.69 352.927C178.829 352.857 178.964 352.767 179.094 352.656C179.228 352.544 179.346 352.424 179.448 352.294C179.55 352.159 179.632 352.023 179.692 351.883C179.757 351.74 179.789 351.603 179.789 351.473C179.789 351.292 179.75 351.121 179.671 350.958C179.597 350.791 179.502 350.643 179.386 350.513C179.27 350.383 179.145 350.277 179.01 350.193C178.88 350.105 178.757 350.049 178.641 350.026ZM178.468 346.04L177.285 347.223L176.088 346.033L177.271 344.843L178.468 346.04ZM181.097 346.047L179.915 347.237L178.718 346.04L179.901 344.857L181.097 346.047ZM182.153 353.428C182.64 353.428 183.108 353.414 183.558 353.386C184.008 353.354 184.418 353.31 184.789 353.254C185.16 353.198 185.48 353.131 185.749 353.052C186.018 352.973 186.22 352.885 186.355 352.788H185.645C185.237 352.788 184.847 352.737 184.476 352.635C184.11 352.528 183.788 352.37 183.509 352.162C183.231 351.953 183.008 351.693 182.842 351.383C182.679 351.067 182.598 350.701 182.598 350.283C182.598 350.038 182.624 349.785 182.675 349.525C182.726 349.266 182.802 349.013 182.904 348.767C183.006 348.521 183.129 348.289 183.273 348.071C183.417 347.853 183.581 347.663 183.767 347.501C183.952 347.334 184.156 347.204 184.379 347.111C184.602 347.014 184.843 346.965 185.102 346.965C185.422 346.965 185.722 347.032 186 347.167C186.278 347.301 186.531 347.485 186.758 347.717C186.985 347.944 187.187 348.208 187.363 348.51C187.539 348.811 187.688 349.129 187.808 349.463C187.929 349.797 188.019 350.137 188.08 350.485C188.145 350.828 188.177 351.155 188.177 351.466C188.177 351.995 188.103 352.454 187.955 352.843C187.811 353.233 187.607 353.567 187.342 353.845C187.083 354.123 186.77 354.351 186.403 354.527C186.042 354.703 185.64 354.842 185.2 354.944C184.759 355.046 184.286 355.116 183.781 355.153C183.28 355.19 182.76 355.209 182.222 355.209H181.986V353.428H182.153ZM185.102 348.76C185.079 348.755 185.056 348.753 185.033 348.753C184.94 348.753 184.833 348.79 184.713 348.864C184.592 348.939 184.476 349.045 184.365 349.184C184.254 349.323 184.163 349.481 184.094 349.657C184.024 349.829 183.989 349.998 183.989 350.165C183.989 350.174 183.989 350.184 183.989 350.193C183.989 350.36 184.026 350.497 184.101 350.603C184.175 350.706 184.275 350.784 184.4 350.84C184.53 350.896 184.678 350.935 184.845 350.958C185.017 350.981 185.197 350.998 185.388 351.007C185.513 351.012 185.643 351.014 185.777 351.014C185.842 351.014 185.942 351.014 186.076 351.014C186.215 351.009 186.357 351.002 186.501 350.993C186.459 350.826 186.399 350.62 186.32 350.374C186.246 350.123 186.151 349.882 186.035 349.65C185.923 349.414 185.789 349.21 185.631 349.038C185.478 348.867 185.302 348.774 185.102 348.76ZM186.382 344.704L185.047 346.04L183.718 344.704L185.047 343.376L186.382 344.704ZM191.414 344.141C191.53 345.027 191.612 345.873 191.658 346.68C191.704 347.482 191.732 348.268 191.741 349.038C191.751 349.692 191.753 350.297 191.748 350.854C191.748 351.41 191.744 351.93 191.734 352.412C191.725 352.89 191.711 353.337 191.693 353.755C191.674 354.168 191.656 354.555 191.637 354.917L189.814 355.195C189.912 353.664 189.961 352.312 189.961 351.139C189.961 350.666 189.954 350.223 189.94 349.81C189.903 348.86 189.861 347.967 189.814 347.132C189.768 346.293 189.705 345.49 189.627 344.725L191.414 344.141ZM203.04 359.744C202.242 359.744 201.504 359.645 200.827 359.445C200.15 359.25 199.573 358.954 199.095 358.555C198.618 358.161 198.258 357.664 198.017 357.066C197.822 356.598 197.725 356.067 197.725 355.473C197.725 355.315 197.732 355.153 197.746 354.986C197.773 354.666 197.811 354.339 197.857 354.005C197.908 353.671 197.975 353.321 198.059 352.955C198.147 352.584 198.258 352.192 198.393 351.779C198.527 351.366 198.694 350.921 198.893 350.443L200.326 351.104C200.136 351.577 199.979 352.016 199.853 352.419C199.728 352.818 199.629 353.189 199.554 353.532C199.485 353.875 199.436 354.198 199.408 354.499C199.38 354.801 199.366 355.09 199.366 355.369C199.366 355.703 199.408 356.002 199.492 356.266C199.58 356.53 199.691 356.767 199.826 356.976C200.006 357.221 200.234 357.409 200.507 357.539C200.781 357.674 201.069 357.771 201.37 357.831C201.676 357.892 201.975 357.926 202.267 357.936C202.564 357.95 202.822 357.957 203.04 357.957C203.169 357.957 203.357 357.947 203.603 357.929C203.853 357.91 204.125 357.878 204.417 357.831C204.714 357.785 205.018 357.725 205.328 357.65C205.639 357.576 205.92 357.483 206.17 357.372C206.425 357.261 206.631 357.131 206.789 356.983C206.951 356.834 207.033 356.66 207.033 356.461C207.033 356.428 206.991 356.377 206.907 356.308C206.829 356.243 206.717 356.169 206.573 356.085C206.434 356.002 206.27 355.914 206.08 355.821C205.889 355.733 205.685 355.647 205.467 355.563C205.147 355.457 204.83 355.378 204.514 355.327C204.199 355.276 203.886 355.223 203.575 355.167L203.812 353.428H209.335V355.209H208.034C208.22 355.436 208.343 355.659 208.403 355.877C208.468 356.099 208.503 356.294 208.507 356.461C208.489 356.869 208.384 357.233 208.194 357.553C208.004 357.878 207.758 358.161 207.457 358.402C207.16 358.648 206.822 358.854 206.441 359.021C206.061 359.192 205.671 359.332 205.273 359.438C204.874 359.545 204.48 359.621 204.09 359.668C203.705 359.719 203.355 359.744 203.04 359.744ZM209.342 353.428C209.597 353.428 209.825 353.372 210.024 353.261C210.228 353.15 210.407 353.001 210.56 352.816C210.717 352.63 210.854 352.419 210.97 352.183C211.091 351.946 211.195 351.703 211.283 351.452C211.371 351.202 211.448 350.956 211.513 350.715C211.578 350.469 211.636 350.249 211.687 350.054L213.426 350.437C213.384 350.566 213.328 350.733 213.259 350.937C213.189 351.137 213.122 351.35 213.057 351.577C212.997 351.8 212.946 352.025 212.904 352.252C212.872 352.424 212.855 352.584 212.855 352.732C212.855 352.779 212.86 352.86 212.869 352.976C212.878 353.092 212.925 353.208 213.008 353.323C213.096 353.435 213.238 353.49 213.433 353.49C213.641 353.49 213.829 353.432 213.996 353.317C214.163 353.196 214.312 353.041 214.441 352.85C214.576 352.656 214.692 352.435 214.789 352.19C214.891 351.944 214.977 351.693 215.047 351.438C215.121 351.179 215.181 350.926 215.227 350.68C215.278 350.434 215.318 350.214 215.346 350.019L216.974 350.332C216.96 350.443 216.939 350.576 216.911 350.729C216.888 350.882 216.862 351.049 216.834 351.23C216.807 351.406 216.779 351.591 216.751 351.786C216.728 351.981 216.709 352.176 216.695 352.37C216.695 352.408 216.695 352.445 216.695 352.482C216.695 352.593 216.707 352.709 216.73 352.83C216.753 352.946 216.802 353.057 216.876 353.163C216.95 353.266 217.048 353.349 217.168 353.414C217.289 353.474 217.437 353.507 217.614 353.511C217.943 353.511 218.212 353.428 218.421 353.261C218.629 353.094 218.734 352.839 218.734 352.496C218.734 352.245 218.699 351.974 218.629 351.682C218.564 351.39 218.483 351.104 218.386 350.826C218.293 350.548 218.193 350.286 218.087 350.04C217.98 349.794 217.887 349.59 217.808 349.428L219.304 348.593C219.332 348.644 219.376 348.737 219.436 348.871C219.501 349.006 219.573 349.173 219.652 349.372C219.735 349.567 219.819 349.787 219.902 350.033C219.986 350.279 220.062 350.539 220.132 350.812C220.206 351.081 220.264 351.357 220.306 351.64C220.352 351.923 220.375 352.201 220.375 352.475C220.375 352.906 220.308 353.296 220.174 353.643C220.044 353.991 219.849 354.288 219.589 354.534C219.334 354.78 219.019 354.968 218.643 355.097C218.281 355.227 217.866 355.292 217.398 355.292C217.384 355.292 217.368 355.292 217.349 355.292C217.331 355.292 217.314 355.292 217.301 355.292C217.083 355.292 216.883 355.262 216.702 355.202C216.521 355.146 216.354 355.067 216.201 354.965C216.053 354.859 215.918 354.738 215.798 354.603C215.682 354.469 215.578 354.332 215.485 354.193C215.378 354.346 215.262 354.49 215.137 354.624C215.012 354.754 214.866 354.868 214.699 354.965C214.536 355.063 214.351 355.139 214.142 355.195C213.938 355.255 213.702 355.288 213.433 355.292C213.419 355.292 213.403 355.292 213.384 355.292C213.175 355.292 212.981 355.264 212.8 355.209C212.623 355.153 212.459 355.077 212.306 354.979C212.157 354.877 212.021 354.759 211.895 354.624C211.775 354.49 211.663 354.348 211.561 354.2C211.473 354.33 211.367 354.455 211.241 354.576C211.121 354.696 210.97 354.805 210.789 354.903C210.613 354.995 210.404 355.07 210.163 355.125C209.922 355.181 209.639 355.209 209.314 355.209H209.064V353.428H209.342ZM224.602 350.583C224.695 350.875 224.79 351.181 224.887 351.501C224.989 351.816 225.08 352.136 225.159 352.461C225.242 352.786 225.309 353.11 225.36 353.435C225.411 353.755 225.437 354.068 225.437 354.374C225.437 354.791 225.372 355.197 225.242 355.591C225.117 355.99 224.941 356.373 224.714 356.739C224.491 357.11 224.224 357.463 223.914 357.797C223.607 358.13 223.274 358.446 222.912 358.743C222.55 359.039 222.167 359.315 221.764 359.57C221.36 359.826 220.952 360.055 220.54 360.259L219.747 358.666C220.076 358.504 220.4 358.323 220.72 358.123C221.04 357.929 221.344 357.72 221.632 357.497C221.924 357.275 222.193 357.041 222.439 356.795C222.689 356.549 222.902 356.294 223.079 356.03C223.26 355.765 223.401 355.494 223.503 355.216C223.605 354.937 223.656 354.657 223.656 354.374C223.656 354.11 223.626 353.831 223.566 353.539C223.505 353.247 223.431 352.959 223.343 352.677C223.26 352.389 223.171 352.113 223.079 351.849C222.991 351.584 222.916 351.35 222.856 351.146L224.602 350.583ZM230.355 355.209H230.077C229.135 355.209 228.421 354.972 227.934 354.499C227.447 354.026 227.201 353.312 227.197 352.357C227.197 352.208 227.201 351.965 227.211 351.626C227.22 351.283 227.225 350.866 227.225 350.374C227.225 350.082 227.222 349.769 227.218 349.435C227.213 349.096 227.206 348.753 227.197 348.405C227.187 348.053 227.174 347.703 227.155 347.355C227.141 347.002 227.123 346.664 227.099 346.339C227.076 346.01 227.048 345.704 227.016 345.421C226.983 345.133 226.946 344.881 226.905 344.663L228.651 344.141C228.702 344.41 228.748 344.739 228.79 345.129C228.832 345.514 228.869 345.926 228.901 346.367C228.934 346.808 228.957 347.257 228.971 347.717C228.989 348.171 228.998 348.6 228.998 349.003C228.998 349.249 229.001 349.511 229.005 349.79C229.01 350.063 229.012 350.304 229.012 350.513C229.012 350.689 229.01 350.856 229.005 351.014C229.005 351.167 229.003 351.315 228.998 351.459C228.998 351.603 228.996 351.744 228.992 351.883C228.992 352.023 228.992 352.164 228.992 352.308C228.992 352.345 228.992 352.382 228.992 352.419C228.992 352.586 229.008 352.734 229.04 352.864C229.077 352.994 229.14 353.103 229.228 353.191C229.316 353.275 229.427 353.335 229.562 353.372C229.701 353.409 229.861 353.428 230.042 353.428H230.355V355.209ZM230.247 353.428C230.734 353.428 231.202 353.414 231.652 353.386C232.102 353.354 232.512 353.31 232.883 353.254C233.254 353.198 233.574 353.131 233.843 353.052C234.112 352.973 234.314 352.885 234.448 352.788H233.739C233.331 352.788 232.941 352.737 232.57 352.635C232.204 352.528 231.881 352.37 231.603 352.162C231.325 351.953 231.102 351.693 230.935 351.383C230.773 351.067 230.692 350.701 230.692 350.283C230.692 350.038 230.717 349.785 230.768 349.525C230.819 349.266 230.896 349.013 230.998 348.767C231.1 348.521 231.223 348.289 231.367 348.071C231.51 347.853 231.675 347.663 231.86 347.501C232.046 347.334 232.25 347.204 232.473 347.111C232.695 347.014 232.936 346.965 233.196 346.965C233.516 346.965 233.815 347.032 234.094 347.167C234.372 347.301 234.625 347.485 234.852 347.717C235.079 347.944 235.281 348.208 235.457 348.51C235.633 348.811 235.782 349.129 235.902 349.463C236.023 349.797 236.113 350.137 236.174 350.485C236.238 350.828 236.271 351.155 236.271 351.466C236.271 351.995 236.197 352.454 236.048 352.843C235.905 353.233 235.7 353.567 235.436 353.845C235.176 354.123 234.863 354.351 234.497 354.527C234.135 354.703 233.734 354.842 233.294 354.944C232.853 355.046 232.38 355.116 231.874 355.153C231.374 355.19 230.854 355.209 230.316 355.209H230.08V353.428H230.247ZM233.196 348.76C233.173 348.755 233.15 348.753 233.127 348.753C233.034 348.753 232.927 348.79 232.807 348.864C232.686 348.939 232.57 349.045 232.459 349.184C232.347 349.323 232.257 349.481 232.187 349.657C232.118 349.829 232.083 349.998 232.083 350.165C232.083 350.174 232.083 350.184 232.083 350.193C232.083 350.36 232.12 350.497 232.194 350.603C232.269 350.706 232.368 350.784 232.494 350.84C232.623 350.896 232.772 350.935 232.939 350.958C233.11 350.981 233.291 350.998 233.481 351.007C233.607 351.012 233.736 351.014 233.871 351.014C233.936 351.014 234.036 351.014 234.17 351.014C234.309 351.009 234.451 351.002 234.594 350.993C234.553 350.826 234.492 350.62 234.414 350.374C234.339 350.123 234.244 349.882 234.128 349.65C234.017 349.414 233.883 349.21 233.725 349.038C233.572 348.867 233.396 348.774 233.196 348.76ZM234.476 344.704L233.14 346.04L231.812 344.704L233.14 343.376L234.476 344.704Z" fill="black"/>
</svg>
