<svg width="400" height="400" viewBox="0 0 400 400" fill="none" xmlns="http://www.w3.org/2000/svg">
<rect width="400" height="400" fill="white"/>
<path d="M174.024 53.7443C173.226 53.7443 172.489 53.6446 171.812 53.4452C171.135 53.2504 170.557 52.9536 170.08 52.5548C169.602 52.1606 169.242 51.6643 169.001 51.0661C168.807 50.5977 168.709 50.0667 168.709 49.473C168.709 49.3154 168.716 49.153 168.73 48.9861C168.758 48.6661 168.795 48.3391 168.841 48.0052C168.892 47.6713 168.96 47.3212 169.043 46.9548C169.131 46.5838 169.242 46.1919 169.377 45.7791C169.511 45.3664 169.678 44.9212 169.878 44.4435L171.311 45.1043C171.121 45.5774 170.963 46.0157 170.838 46.4191C170.713 46.818 170.613 47.189 170.539 47.5322C170.469 47.8754 170.42 48.1977 170.393 48.4991C170.365 48.8006 170.351 49.0904 170.351 49.3687C170.351 49.7026 170.393 50.0017 170.476 50.2661C170.564 50.5304 170.676 50.767 170.81 50.9757C170.991 51.2214 171.218 51.4093 171.492 51.5391C171.765 51.6736 172.053 51.771 172.354 51.8313C172.66 51.8916 172.96 51.9264 173.252 51.9357C173.549 51.9496 173.806 51.9565 174.024 51.9565C174.154 51.9565 174.342 51.9472 174.587 51.9287C174.838 51.9101 175.109 51.8777 175.401 51.8313C175.698 51.7849 176.002 51.7246 176.313 51.6504C176.623 51.5762 176.904 51.4835 177.154 51.3722C177.409 51.2609 177.616 51.131 177.773 50.9826C177.936 50.8342 178.017 50.6603 178.017 50.4609C178.017 50.4284 177.975 50.3774 177.892 50.3078C177.813 50.2429 177.702 50.1687 177.558 50.0852C177.419 50.0017 177.254 49.9136 177.064 49.8209C176.874 49.7328 176.67 49.647 176.452 49.5635C176.132 49.4568 175.814 49.378 175.499 49.327C175.183 49.2759 174.87 49.2226 174.56 49.167L174.796 47.4278H180.32V49.2087H179.019C179.204 49.4359 179.327 49.6586 179.387 49.8765C179.452 50.0991 179.487 50.2939 179.492 50.4609C179.473 50.869 179.369 51.233 179.179 51.553C178.989 51.8777 178.743 52.1606 178.441 52.4017C178.144 52.6475 177.806 52.8539 177.426 53.0209C177.045 53.1925 176.656 53.3316 176.257 53.4383C175.858 53.5449 175.464 53.6214 175.074 53.6678C174.689 53.7188 174.339 53.7443 174.024 53.7443ZM180.048 47.4278H180.556C180.723 47.4278 180.879 47.4139 181.022 47.3861C181.166 47.3583 181.294 47.3003 181.405 47.2122C181.516 47.1194 181.607 46.9919 181.676 46.8296C181.746 46.6672 181.79 46.4493 181.808 46.1757C181.808 46.069 181.811 45.8835 181.815 45.6191C181.825 45.3501 181.832 45.0325 181.836 44.6661C181.841 44.2951 181.845 43.8893 181.85 43.4487C181.855 43.0081 181.857 42.5583 181.857 42.0991C181.857 41.742 181.855 41.3919 181.85 41.0487C181.85 40.7009 181.845 40.367 181.836 40.047C181.832 39.727 181.82 39.4255 181.801 39.1426C181.788 38.8597 181.767 38.6023 181.739 38.3704L183.513 38.1409C183.545 38.3913 183.571 38.6742 183.589 38.9896C183.608 39.3049 183.622 39.6412 183.631 39.9983C183.645 40.3507 183.652 40.7217 183.652 41.1113C183.656 41.4962 183.659 41.8858 183.659 42.28C183.659 43.1565 183.65 43.9194 183.631 44.5687C183.617 45.218 183.61 45.793 183.61 46.2939C183.61 46.6464 183.701 46.9246 183.881 47.1287C184.062 47.3281 184.331 47.4278 184.688 47.4278H184.841V49.2087H184.688C184.661 49.2087 184.635 49.2087 184.612 49.2087C184.431 49.2087 184.252 49.1925 184.076 49.16C183.905 49.1322 183.738 49.0881 183.575 49.0278C183.418 48.9722 183.272 48.9049 183.137 48.8261C183.003 48.7472 182.884 48.6661 182.782 48.5826C182.648 48.7125 182.499 48.8191 182.337 48.9026C182.179 48.9814 182.017 49.0441 181.85 49.0904C181.683 49.1368 181.519 49.167 181.356 49.1809C181.194 49.1994 181.048 49.2087 180.918 49.2087H180.048V47.4278ZM184.564 47.4278H186.074C186.649 47.4278 187.233 47.3745 187.827 47.2678C188.425 47.1565 189.018 47.0128 189.607 46.8365C190.196 46.6557 190.772 46.4493 191.333 46.2174C191.894 45.9855 192.425 45.7467 192.926 45.5009C192.527 45.4128 192.156 45.2968 191.813 45.153C191.47 45.0046 191.145 44.8609 190.839 44.7217C190.533 44.5826 190.238 44.462 189.955 44.36C189.672 44.258 189.392 44.207 189.114 44.207C188.951 44.207 188.798 44.2371 188.654 44.2974C188.515 44.353 188.385 44.4249 188.265 44.513C188.144 44.6012 188.035 44.6986 187.938 44.8052C187.845 44.9119 187.762 45.0162 187.687 45.1183C187.618 45.2157 187.56 45.3038 187.514 45.3826C187.467 45.4614 187.435 45.5171 187.416 45.5496L185.969 44.6104C186.127 44.3322 186.315 44.0632 186.533 43.8035C186.751 43.5391 186.992 43.3049 187.256 43.1009C187.525 42.8922 187.815 42.7275 188.126 42.607C188.436 42.4817 188.766 42.4191 189.114 42.4191C189.471 42.4191 189.825 42.4678 190.178 42.5652C190.53 42.658 190.878 42.7786 191.221 42.927C191.569 43.0707 191.917 43.2261 192.265 43.393C192.613 43.56 192.963 43.7177 193.315 43.8661C193.672 44.0099 194.032 44.1328 194.394 44.2348C194.755 44.3322 195.126 44.3832 195.507 44.3878L195.361 46.1826C194.711 46.4933 194.034 46.8226 193.329 47.1704C192.624 47.5183 191.887 47.8406 191.117 48.1374C190.347 48.4296 189.543 48.6777 188.703 48.8817C187.868 49.0812 186.992 49.1901 186.074 49.2087H184.564V47.4278ZM199.618 44.5826C199.711 44.8748 199.806 45.1809 199.903 45.5009C200.005 45.8162 200.096 46.1362 200.174 46.4609C200.258 46.7855 200.325 47.1101 200.376 47.4348C200.427 47.7548 200.453 48.0678 200.453 48.3739C200.453 48.7913 200.388 49.1971 200.258 49.5913C200.133 49.9901 199.956 50.3728 199.729 50.7391C199.507 51.1101 199.24 51.4626 198.929 51.7965C198.623 52.1304 198.289 52.4458 197.927 52.7426C197.566 53.0394 197.183 53.3154 196.78 53.5704C196.376 53.8255 195.968 54.0551 195.555 54.2591L194.762 52.6661C195.091 52.5038 195.416 52.3229 195.736 52.1235C196.056 51.9287 196.36 51.72 196.647 51.4974C196.94 51.2748 197.209 51.0406 197.454 50.7948C197.705 50.549 197.918 50.2939 198.094 50.0296C198.275 49.7652 198.417 49.4939 198.519 49.2157C198.621 48.9374 198.672 48.6568 198.672 48.3739C198.672 48.1096 198.642 47.8313 198.581 47.5391C198.521 47.247 198.447 46.9594 198.359 46.6765C198.275 46.389 198.187 46.113 198.094 45.8487C198.006 45.5843 197.932 45.3501 197.872 45.1461L199.618 44.5826ZM210.423 52.8748C210.692 52.9212 210.963 52.9443 211.237 52.9443C211.307 52.9443 211.443 52.9397 211.647 52.9304C211.851 52.9212 212.114 52.8794 212.434 52.8052C212.754 52.731 213.06 52.6313 213.352 52.5061C213.649 52.3809 213.92 52.2371 214.166 52.0748L215.105 53.633C214.836 53.7954 214.558 53.9438 214.27 54.0783C213.987 54.2174 213.693 54.3357 213.387 54.433C213.085 54.5304 212.772 54.6046 212.447 54.6557C212.165 54.702 211.875 54.7252 211.578 54.7252C211.531 54.7252 211.483 54.7252 211.432 54.7252C210.996 54.7159 210.56 54.6696 210.124 54.5861C209.693 54.5026 209.28 54.382 208.886 54.2243C208.496 54.0667 208.132 53.8696 207.794 53.633C207.46 53.4012 207.167 53.1299 206.917 52.8191C206.671 52.513 206.476 52.1675 206.333 51.7826C206.189 51.4023 206.115 50.9803 206.11 50.5165C206.124 50.0203 206.217 49.5565 206.388 49.1252C206.56 48.6986 206.787 48.309 207.07 47.9565C207.358 47.5994 207.687 47.2817 208.058 47.0035C208.434 46.7252 208.83 46.4864 209.247 46.287C209.099 46.1478 208.946 46.011 208.788 45.8765C208.635 45.7374 208.487 45.6075 208.343 45.487C208.199 45.3617 208.065 45.2481 207.94 45.1461C207.814 45.0394 207.71 44.949 207.627 44.8748L207.494 43.3861C208.102 42.8574 208.756 42.4609 209.456 42.1965C210.161 41.9275 210.896 41.793 211.661 41.793C211.889 41.793 212.123 41.8093 212.364 41.8417C212.61 41.8742 212.849 41.9252 213.08 41.9948C213.312 42.0643 213.53 42.1548 213.734 42.2661C213.938 42.3774 214.117 42.5142 214.27 42.6765C214.423 42.8342 214.544 43.0174 214.632 43.2261C214.711 43.4301 214.75 43.6574 214.75 43.9078C214.75 43.9217 214.75 43.9357 214.75 43.9496C214.731 44.302 214.662 44.6174 214.541 44.8957C214.425 45.1739 214.272 45.4243 214.082 45.647C213.892 45.8696 213.672 46.069 213.421 46.2452C213.176 46.4214 212.914 46.5838 212.635 46.7322C213.011 46.9409 213.41 47.1101 213.832 47.24C214.258 47.3652 214.674 47.4278 215.077 47.4278H215.314V49.2087H215.077C214.692 49.2087 214.319 49.1693 213.957 49.0904C213.595 49.0116 213.238 48.9003 212.886 48.7565C212.533 48.6081 212.183 48.4342 211.835 48.2348C211.487 48.0307 211.137 47.8058 210.785 47.56C210.446 47.6945 210.103 47.8522 209.755 48.033C209.407 48.2093 209.09 48.418 208.802 48.6591C208.519 48.8957 208.287 49.1646 208.107 49.4661C207.926 49.7675 207.835 50.1084 207.835 50.4887C207.835 50.702 207.877 50.9061 207.96 51.1009C208.049 51.2957 208.162 51.4765 208.301 51.6435C208.44 51.8151 208.6 51.9704 208.781 52.1096C208.962 52.2533 209.148 52.3762 209.338 52.4783C209.533 52.5849 209.723 52.6707 209.908 52.7357C210.098 52.8052 210.27 52.8516 210.423 52.8748ZM211.668 43.4904C211.483 43.4904 211.288 43.5043 211.084 43.5322C210.88 43.5554 210.678 43.5901 210.479 43.6365C210.279 43.6783 210.087 43.7316 209.901 43.7965C209.72 43.8568 209.56 43.9241 209.421 43.9983C209.519 44.1003 209.628 44.2186 209.748 44.353C209.869 44.4829 209.996 44.6197 210.131 44.7635C210.27 44.9072 210.411 45.051 210.555 45.1948C210.699 45.3339 210.84 45.4638 210.98 45.5843C211.286 45.4545 211.571 45.3223 211.835 45.1878C212.1 45.0533 212.329 44.9165 212.524 44.7774C212.723 44.6336 212.881 44.4852 212.997 44.3322C213.113 44.1791 213.173 44.0214 213.178 43.8591C213.173 43.8406 213.143 43.8128 213.087 43.7757C213.032 43.7386 212.941 43.7014 212.816 43.6643C212.696 43.6226 212.54 43.5855 212.35 43.553C212.165 43.5206 211.937 43.4997 211.668 43.4904ZM215.033 47.4278H216.09L216.139 47.3374C216.218 47.1983 216.329 47.0151 216.473 46.7878C216.621 46.5559 216.807 46.2939 217.029 46.0017C217.071 45.7096 217.106 45.3409 217.134 44.8957C217.161 44.4504 217.178 43.9681 217.182 43.4487C217.182 43.1658 217.178 42.8759 217.168 42.5791C217.159 42.2777 217.141 41.9322 217.113 41.5426C217.085 41.153 217.045 40.6986 216.994 40.1791C216.948 39.6551 216.888 39.0313 216.814 38.3078L218.643 37.8348C218.764 38.7252 218.854 39.6388 218.914 40.5757C218.979 41.5125 219.012 42.44 219.012 43.3583V43.9217C219.262 43.7084 219.522 43.5043 219.791 43.3096C220.065 43.1148 220.348 42.9432 220.64 42.7948C220.937 42.6464 221.245 42.5281 221.565 42.44C221.885 42.3519 222.219 42.3078 222.567 42.3078C222.919 42.3078 223.253 42.3635 223.568 42.4748C223.884 42.5861 224.162 42.7484 224.403 42.9617C224.649 43.1704 224.851 43.4255 225.008 43.727C225.166 44.0284 225.263 44.367 225.301 44.7426C225.305 44.8122 225.308 44.8794 225.308 44.9443C225.308 45.4267 225.226 45.8765 225.064 46.2939C224.906 46.7113 224.672 47.0893 224.361 47.4278H226.323V49.2087H224.473C224.106 49.2087 223.698 49.1925 223.248 49.16C222.799 49.1275 222.3 49.0417 221.753 48.9026C221.359 49.0093 220.957 49.0858 220.549 49.1322C220.146 49.1832 219.74 49.2087 219.332 49.2087H215.033V47.4278ZM218.685 47.4278C218.968 47.4278 219.292 47.4209 219.659 47.407C220.03 47.393 220.41 47.3606 220.8 47.3096C221.189 47.2586 221.567 47.182 221.934 47.08C222.305 46.978 222.634 46.8412 222.921 46.6696C223.209 46.498 223.436 46.2823 223.603 46.0226C223.747 45.8 223.819 45.5357 223.819 45.2296C223.819 45.1878 223.817 45.1438 223.812 45.0974C223.803 44.9583 223.756 44.8284 223.673 44.7078C223.594 44.5872 223.483 44.4852 223.339 44.4017C223.2 44.3136 223.033 44.2441 222.838 44.193C222.671 44.1559 222.49 44.1374 222.295 44.1374C222.258 44.1374 222.219 44.1374 222.177 44.1374C221.945 44.1467 221.669 44.207 221.349 44.3183C221.029 44.4249 220.686 44.6058 220.32 44.8609C219.953 45.1159 219.573 45.4522 219.179 45.8696C218.785 46.287 218.4 46.8064 218.024 47.4278H218.685ZM226.215 47.4278C226.702 47.4278 227.171 47.4139 227.621 47.3861C228.07 47.3536 228.481 47.3096 228.852 47.2539C229.223 47.1983 229.543 47.131 229.812 47.0522C230.081 46.9733 230.283 46.8852 230.417 46.7878H229.707C229.299 46.7878 228.91 46.7368 228.539 46.6348C228.172 46.5281 227.85 46.3704 227.572 46.1617C227.294 45.953 227.071 45.6933 226.904 45.3826C226.742 45.0672 226.661 44.7009 226.661 44.2835C226.661 44.0377 226.686 43.7849 226.737 43.5252C226.788 43.2655 226.865 43.0128 226.967 42.767C227.069 42.5212 227.192 42.2893 227.335 42.0713C227.479 41.8533 227.644 41.6632 227.829 41.5009C228.015 41.3339 228.219 41.2041 228.441 41.1113C228.664 41.0139 228.905 40.9652 229.165 40.9652C229.485 40.9652 229.784 41.0325 230.062 41.167C230.341 41.3014 230.593 41.4846 230.821 41.7165C231.048 41.9438 231.25 42.2081 231.426 42.5096C231.602 42.811 231.75 43.1287 231.871 43.4626C231.992 43.7965 232.082 44.1374 232.142 44.4852C232.207 44.8284 232.24 45.1554 232.24 45.4661C232.24 45.9948 232.165 46.4539 232.017 46.8435C231.873 47.233 231.669 47.567 231.405 47.8452C231.145 48.1235 230.832 48.3507 230.466 48.527C230.104 48.7032 229.703 48.8423 229.262 48.9443C228.822 49.0464 228.349 49.1159 227.843 49.153C227.342 49.1901 226.823 49.2087 226.285 49.2087H226.048V47.4278H226.215ZM229.165 42.76C229.142 42.7554 229.119 42.753 229.095 42.753C229.003 42.753 228.896 42.7901 228.775 42.8643C228.655 42.9386 228.539 43.0452 228.428 43.1843C228.316 43.3235 228.226 43.4812 228.156 43.6574C228.087 43.829 228.052 43.9983 228.052 44.1652C228.052 44.1745 228.052 44.1838 228.052 44.193C228.052 44.36 228.089 44.4968 228.163 44.6035C228.237 44.7055 228.337 44.7843 228.462 44.84C228.592 44.8957 228.741 44.9351 228.908 44.9583C229.079 44.9814 229.26 44.9977 229.45 45.007C229.575 45.0116 229.705 45.0139 229.84 45.0139C229.905 45.0139 230.004 45.0139 230.139 45.0139C230.278 45.0093 230.419 45.0023 230.563 44.993C230.521 44.8261 230.461 44.6197 230.382 44.3739C230.308 44.1235 230.213 43.8823 230.097 43.6504C229.986 43.4139 229.851 43.2099 229.694 43.0383C229.541 42.8667 229.364 42.7739 229.165 42.76ZM228.998 38.8713L227.815 40.0539L226.619 38.8643L227.801 37.6748L228.998 38.8713ZM231.628 38.8783L230.445 40.0678L229.248 38.8713L230.431 37.6887L231.628 38.8783Z" fill="black"/>
<path d="M278.165 129.521C278.165 129.535 278.174 129.61 278.191 129.747C278.208 129.877 278.226 130.048 278.243 130.262C278.26 130.468 278.275 130.7 278.286 130.958C278.292 131.136 278.295 131.316 278.295 131.496V131.768C278.272 133.359 277.957 134.38 277.349 134.831V134.82C276.758 135.282 275.957 135.176 274.944 134.5C274.666 134.315 274.414 134.127 274.188 133.934C273.968 133.739 273.748 133.516 273.529 133.265L273.598 133.885C273.667 134.585 273.722 135.297 273.763 136.019C273.809 136.739 273.844 137.454 273.867 138.165C273.896 138.873 273.913 139.567 273.919 140.245C273.931 140.921 273.937 141.561 273.937 142.166L272.209 141.015C272.209 139.909 272.2 138.804 272.183 137.7C272.165 136.589 272.119 135.494 272.044 134.414C271.969 133.327 271.856 132.264 271.705 131.225C271.561 130.182 271.358 129.178 271.098 128.211C270.976 127.754 270.846 127.309 270.707 126.876C270.568 126.442 270.412 125.987 270.238 125.509L271.688 125.37C271.781 125.613 271.864 125.853 271.94 126.091C272.021 126.326 272.099 126.569 272.174 126.821C272.255 127.07 272.336 127.333 272.417 127.609C272.498 127.886 272.588 128.186 272.686 128.509C272.819 128.966 272.95 129.387 273.077 129.771C273.21 130.152 273.361 130.506 273.529 130.834C273.702 131.165 273.899 131.463 274.119 131.728C274.345 131.99 274.62 132.229 274.944 132.445C275.424 132.765 275.786 132.829 276.029 132.636C276.139 132.556 276.229 132.439 276.298 132.283C276.368 132.121 276.423 131.939 276.463 131.736C276.509 131.537 276.541 131.322 276.559 131.09C276.576 130.858 276.585 130.627 276.585 130.398C276.585 130.099 276.57 129.8 276.541 129.503C276.518 129.209 276.492 128.962 276.463 128.762L278.165 129.521ZM280.991 141.005C280.991 140.518 281.066 140.113 281.217 139.789C281.373 139.462 281.584 139.227 281.851 139.084C282.117 138.935 282.427 138.884 282.78 138.931C283.139 138.983 283.523 139.146 283.934 139.419C284.34 139.69 284.719 140.036 285.072 140.459C285.431 140.887 285.743 141.352 286.01 141.857C286.282 142.358 286.496 142.877 286.652 143.412C286.808 143.941 286.886 144.448 286.886 144.935C286.886 145.429 286.808 145.84 286.652 146.167C286.496 146.487 286.282 146.716 286.01 146.855C285.743 146.998 285.431 147.043 285.072 146.992C284.719 146.937 284.34 146.775 283.934 146.505C283.523 146.231 283.139 145.884 282.78 145.464C282.427 145.04 282.117 144.58 281.851 144.082C281.584 143.585 281.373 143.072 281.217 142.543C281.066 142.012 280.991 141.499 280.991 141.005ZM282.406 141.949C282.406 142.199 282.447 142.463 282.528 142.739C282.609 143.016 282.719 143.284 282.858 143.543C282.997 143.803 283.159 144.043 283.344 144.264C283.529 144.485 283.726 144.665 283.934 144.804C284.143 144.943 284.34 145.025 284.525 145.051C284.716 145.081 284.881 145.059 285.02 144.985C285.159 144.91 285.269 144.789 285.35 144.62C285.431 144.452 285.471 144.242 285.471 143.992C285.471 143.741 285.431 143.478 285.35 143.201C285.269 142.918 285.159 142.646 285.02 142.386C284.881 142.127 284.716 141.885 284.525 141.66C284.34 141.439 284.143 141.259 283.934 141.12C283.726 140.981 283.529 140.899 283.344 140.873C283.159 140.847 282.997 140.871 282.858 140.945C282.719 141.02 282.609 141.145 282.528 141.32C282.447 141.489 282.406 141.698 282.406 141.949Z" fill="black"/>
<path d="M89.6637 136.671C89.6637 135.314 89.6434 133.982 89.6029 132.673C89.5624 131.357 89.4727 130.13 89.3338 128.992C89.1949 127.853 88.9952 126.835 88.7347 125.937C88.48 125.035 88.1356 124.319 87.7015 123.788L89.1428 121.721C89.6174 122.315 90.011 123.107 90.3236 124.095C90.6419 125.072 90.885 126.27 91.0529 127.689C91.1223 128.297 91.1773 128.935 91.2178 129.603C91.2641 130.268 91.2989 130.941 91.322 131.621C91.351 132.29 91.3683 132.957 91.3741 133.621C91.3857 134.281 91.3915 134.914 91.3915 135.519L89.6637 136.671ZM99.3149 122.494C98.7708 122.857 98.2383 123.121 97.7174 123.288C97.2022 123.443 96.7507 123.435 96.3629 123.262C96.4324 123.557 96.4903 123.914 96.5366 124.336C96.5887 124.753 96.6292 125.21 96.6581 125.705C96.6928 126.19 96.7189 126.701 96.7363 127.239C96.7536 127.777 96.7652 128.312 96.771 128.844C96.7826 129.372 96.7884 129.886 96.7884 130.387C96.7884 130.888 96.7884 131.344 96.7884 131.754L95.0606 132.906C95.0606 131.549 95.0403 130.217 94.9998 128.908C94.9593 127.592 94.8696 126.365 94.7307 125.227C94.5917 124.088 94.392 123.07 94.1316 122.172C93.8769 121.271 93.5325 120.554 93.0984 120.023L94.5396 117.966C94.7422 118.228 94.9332 118.518 95.1127 118.836C95.2921 119.155 95.4484 119.493 95.5815 119.849C95.7089 119.347 95.8825 118.848 96.1025 118.354C96.3282 117.856 96.5858 117.385 96.8752 116.941C97.1646 116.491 97.4771 116.081 97.8129 115.711C98.1544 115.337 98.5074 115.018 98.8721 114.754L99.0197 114.656C99.3728 114.421 99.749 114.239 100.148 114.112C100.548 113.985 100.956 113.95 101.373 114.006C101.633 114.034 101.847 114.082 102.015 114.151C102.183 114.22 102.325 114.282 102.441 114.337L101.199 116.605L101.112 116.558C101.048 116.531 100.965 116.5 100.86 116.465C100.762 116.427 100.64 116.396 100.496 116.375C100.357 116.349 100.203 116.343 100.036 116.358C99.8677 116.372 99.694 116.408 99.5146 116.465C99.3815 116.512 99.2368 116.588 99.0805 116.692C99.0226 116.731 98.9213 116.805 98.7766 116.915C98.6377 117.022 98.4525 117.215 98.2209 117.495C97.9952 117.77 97.7984 118.065 97.6305 118.379C97.4685 118.688 97.344 119.004 97.2572 119.327C97.1935 119.571 97.1617 119.808 97.1617 120.037C97.1617 120.114 97.1646 120.188 97.1704 120.261C97.2283 120.542 97.3238 120.747 97.4569 120.874C97.59 120.993 97.7492 121.054 97.9344 121.056C98.1254 121.047 98.3396 120.984 98.5769 120.868C98.7563 120.783 98.9445 120.675 99.1412 120.544L99.3149 120.428C99.5291 120.278 99.749 120.114 99.9747 119.936C100.2 119.751 100.42 119.555 100.635 119.35C100.849 119.144 101.054 118.927 101.251 118.699C101.448 118.47 101.63 118.227 101.798 117.969L102.562 119.15C102.064 119.92 101.543 120.574 100.999 121.11C100.455 121.647 99.8937 122.108 99.3149 122.494ZM104.627 129.826L103.611 129.658C104.219 128.23 104.537 126.964 104.566 125.859V123.898L106.329 122.723V124.423C106.329 125.21 106.166 126.104 105.842 127.106C105.524 128.111 105.119 129.018 104.627 129.826ZM115.762 103.745C115.762 103.759 115.77 103.823 115.788 103.937C115.805 104.043 115.822 104.192 115.84 104.382C115.857 104.565 115.871 104.778 115.883 105.021C115.889 105.191 115.892 105.366 115.892 105.547V105.818C115.869 107.441 115.553 108.882 114.945 110.143V110.133C114.355 111.382 113.553 112.344 112.54 113.02C112.263 113.205 112.011 113.352 111.785 113.461C111.565 113.558 111.345 113.629 111.125 113.671L111.195 114.198C111.264 114.806 111.319 115.444 111.36 116.113C111.406 116.771 111.441 117.44 111.464 118.12C111.493 118.789 111.51 119.459 111.516 120.13C111.527 120.791 111.533 121.423 111.533 122.028L109.805 123.18C109.805 122.074 109.797 120.981 109.779 119.9C109.762 118.813 109.716 117.779 109.641 116.8C109.565 115.813 109.452 114.901 109.302 114.062C109.157 113.212 108.955 112.478 108.694 111.859C108.573 111.564 108.442 111.292 108.303 111.044C108.165 110.796 108.008 110.549 107.835 110.303L109.285 108.23C109.377 108.349 109.461 108.478 109.536 108.615C109.617 108.742 109.696 108.881 109.771 109.033C109.852 109.174 109.933 109.328 110.014 109.497C110.095 109.666 110.185 109.846 110.283 110.038C110.416 110.318 110.546 110.565 110.674 110.779C110.807 110.982 110.957 111.136 111.125 111.24C111.299 111.339 111.496 111.375 111.716 111.347C111.941 111.308 112.216 111.18 112.54 110.964C113.021 110.644 113.383 110.225 113.626 109.708C113.736 109.482 113.825 109.245 113.895 108.997C113.964 108.742 114.019 108.486 114.06 108.229C114.106 107.969 114.138 107.711 114.155 107.456C114.173 107.201 114.181 106.959 114.181 106.729C114.181 106.43 114.167 106.151 114.138 105.892C114.115 105.629 114.089 105.417 114.06 105.255L115.762 103.745Z" fill="black"/>
<path d="M361.95 217.165L361.95 223.956L228.197 314.064L40.6004 190.834L40.6004 184.662L175.329 94.1729L361.95 217.165Z" fill="#E7E7E7" stroke="black"/>
<path d="M362.614 216.95L362.614 223.338L228.789 313.546L228.789 306.662L362.614 216.95Z" fill="#A3A3A3" stroke="black"/>
<path d="M40.5388 184.496L175.706 94.0533L362.558 216.382L228.237 306.598L40.5388 184.496Z" fill="#E7E7E7" stroke="black"/>
<path d="M354.219 210.818L362.646 216.436L228.229 306.716L220.422 301.511L354.219 210.818Z" fill="#A3A3A3" stroke="black"/>
<path d="M181.312 185.513C180.553 185.008 179.954 184.415 179.513 183.735C179.079 183.058 178.872 182.299 178.894 181.455L182.674 181.019C182.698 181.383 182.759 181.71 182.858 182C182.963 182.286 183.09 182.541 183.241 182.765C183.392 182.989 183.557 183.184 183.736 183.35C183.922 183.52 184.11 183.669 184.301 183.796C184.457 183.9 184.633 184.006 184.83 184.114C185.033 184.219 185.244 184.313 185.464 184.398C185.689 184.486 185.915 184.559 186.141 184.617C186.366 184.675 186.589 184.707 186.809 184.715C187.12 184.211 187.431 183.681 187.742 183.123C188.065 182.565 188.385 182.006 188.702 181.444C189.025 180.879 189.345 180.319 189.662 179.765C189.979 179.212 190.29 178.685 190.596 178.185L194.188 179.166L190.149 185.713C189.999 185.953 189.872 186.166 189.769 186.352C189.665 186.538 189.607 186.712 189.596 186.874C189.591 187.041 189.637 187.199 189.736 187.35C189.846 187.501 190.031 187.663 190.292 187.836L190.543 188.004L187.806 189.843L187.554 189.675C187.201 189.44 186.912 189.216 186.686 189.003C186.466 188.795 186.292 188.59 186.164 188.389C186.037 188.196 185.947 188.004 185.895 187.815C185.854 187.625 185.833 187.434 185.833 187.241C185.388 187.183 184.971 187.107 184.584 187.011C184.19 186.918 183.812 186.801 183.447 186.659C183.083 186.516 182.727 186.348 182.379 186.156C182.032 185.97 181.676 185.756 181.312 185.513ZM190.199 187.775L190.763 188.151C191.023 188.324 191.284 188.444 191.544 188.509C191.816 188.575 192.085 188.595 192.351 188.572C192.628 188.548 192.897 188.484 193.157 188.379C193.423 188.278 193.68 188.144 193.928 187.977C194.275 187.752 194.69 187.477 195.176 187.151C195.666 186.821 196.189 186.466 196.743 186.086C197.304 185.702 197.878 185.305 198.467 184.894C199.062 184.479 199.636 184.073 200.191 183.678C200.751 183.278 201.279 182.9 201.776 182.543C202.278 182.183 202.714 181.867 203.084 181.595L206.347 183.098L196.057 190.138C195.699 190.378 195.505 190.628 195.477 190.888C195.46 191.147 195.631 191.396 195.99 191.635L196.181 191.763L193.443 193.601L193.252 193.474C193.009 193.319 192.789 193.146 192.592 192.953C192.401 192.763 192.242 192.568 192.114 192.367C191.981 192.17 191.888 191.977 191.836 191.787C191.784 191.598 191.778 191.428 191.818 191.277C191.546 191.297 191.271 191.291 190.994 191.261C190.716 191.23 190.424 191.163 190.118 191.059C189.811 190.963 189.484 190.826 189.137 190.649C188.79 190.472 188.414 190.248 188.008 189.978L187.461 189.613L190.199 187.775ZM195.835 191.532L197.666 192.753C198.604 193.378 199.519 193.914 200.41 194.362C201.312 194.809 202.201 195.196 203.074 195.523C203.948 195.851 204.812 196.134 205.669 196.372C206.536 196.61 207.401 196.835 208.263 197.047C207.979 196.71 207.718 196.355 207.48 195.98C207.249 195.609 207.008 195.24 206.759 194.873C206.515 194.51 206.249 194.162 205.959 193.83C205.675 193.494 205.339 193.196 204.952 192.938C204.685 192.76 204.35 192.633 203.945 192.557C203.546 192.484 203.15 192.44 202.757 192.425C202.363 192.41 202.008 192.417 201.69 192.444C201.378 192.468 201.173 192.49 201.074 192.509L200.359 190.305C200.966 190.192 201.605 190.112 202.276 190.064C202.946 190.017 203.602 190.017 204.244 190.067C204.898 190.116 205.519 190.221 206.109 190.382C206.705 190.548 207.234 190.785 207.697 191.094C208.039 191.321 208.343 191.574 208.609 191.852C208.882 192.126 209.128 192.414 209.348 192.716C209.574 193.021 209.777 193.334 209.957 193.655C210.142 193.972 210.322 194.288 210.496 194.605C210.658 194.907 210.824 195.21 210.992 195.516C211.166 195.817 211.357 196.119 211.566 196.42C211.78 196.717 212.026 197.009 212.304 197.295C212.582 197.581 212.915 197.857 213.303 198.123L210.427 199.764L208.605 199.338C207.859 199.165 207.107 199 206.349 198.843C205.597 198.682 204.843 198.511 204.085 198.33C203.333 198.146 202.572 197.944 201.803 197.725C201.039 197.502 200.276 197.244 199.512 196.951C198.754 196.655 197.993 196.314 197.23 195.928C196.46 195.546 195.693 195.101 194.929 194.592L193.097 193.37L195.835 191.532ZM195.53 201.322L195.526 198.746L199.377 198.739L199.381 201.315L195.53 201.322Z" fill="black"/>
<path d="M190.706 85.1575C190.543 84.8539 190.543 84.5373 190.706 84.4504L193.353 83.0334C193.516 82.9465 193.779 83.1221 193.941 83.4257C194.104 83.7292 194.104 84.0458 193.941 84.1328L191.588 85.3923L193.941 89.7896C194.104 90.0932 194.104 90.4098 193.941 90.4967C193.779 90.5837 193.516 90.4081 193.353 90.1045L190.706 85.1575ZM245.083 121.556L191 85.5V84.5L245.083 120.556V121.556Z" fill="black"/>
<path d="M36.7057 170.613C36.5433 170.526 36.5433 170.209 36.7057 169.906L39.3533 164.959C39.5158 164.655 39.7792 164.48 39.9416 164.567C40.1041 164.653 40.1041 164.97 39.9416 165.274L37.5883 169.671L39.9416 170.93C40.1041 171.017 40.1041 171.334 39.9416 171.638C39.7792 171.941 39.5158 172.117 39.3533 172.03L36.7057 170.613ZM83.5947 139.5L36.9999 170.563V169.563L83.5947 138.5V139.5Z" fill="black"/>
<path d="M171.889 80.4503C172.051 80.5373 172.051 80.8539 171.889 81.1574L169.241 86.1045C169.079 86.408 168.815 86.5836 168.653 86.4967C168.491 86.4097 168.491 86.0932 168.653 85.7896L171.006 81.3922L168.653 80.1327C168.491 80.0458 168.491 79.7292 168.653 79.4256C168.815 79.1221 169.079 78.9464 169.241 79.0334L171.889 80.4503ZM171.595 81.5L125 112.563V111.563L171.595 80.5V81.5Z" fill="black"/>
<path d="M365.377 199.954C365.54 200.257 365.54 200.574 365.377 200.661L362.73 202.078C362.567 202.165 362.304 201.989 362.141 201.685C361.979 201.382 361.979 201.065 362.141 200.978L364.495 199.719L362.141 195.321C361.979 195.018 361.979 194.701 362.141 194.614C362.304 194.527 362.567 194.703 362.73 195.007L365.377 199.954ZM365.083 200.611L311 164.556V163.556L365.083 199.611V200.611Z" fill="black"/>
<path d="M168.993 359.744C168.195 359.744 167.458 359.645 166.78 359.445C166.103 359.25 165.526 358.954 165.048 358.555C164.571 358.161 164.211 357.664 163.97 357.066C163.775 356.598 163.678 356.067 163.678 355.473C163.678 355.315 163.685 355.153 163.699 354.986C163.727 354.666 163.764 354.339 163.81 354.005C163.861 353.671 163.928 353.321 164.012 352.955C164.1 352.584 164.211 352.192 164.346 351.779C164.48 351.366 164.647 350.921 164.847 350.443L166.28 351.104C166.089 351.577 165.932 352.016 165.807 352.419C165.681 352.818 165.582 353.189 165.507 353.532C165.438 353.875 165.389 354.198 165.361 354.499C165.334 354.801 165.32 355.09 165.32 355.369C165.32 355.703 165.361 356.002 165.445 356.266C165.533 356.53 165.644 356.767 165.779 356.976C165.96 357.221 166.187 357.409 166.46 357.539C166.734 357.674 167.022 357.771 167.323 357.831C167.629 357.892 167.928 357.926 168.22 357.936C168.517 357.95 168.775 357.957 168.993 357.957C169.123 357.957 169.31 357.947 169.556 357.929C169.807 357.91 170.078 357.878 170.37 357.831C170.667 357.785 170.971 357.725 171.281 357.65C171.592 357.576 171.873 357.483 172.123 357.372C172.378 357.261 172.585 357.131 172.742 356.983C172.905 356.834 172.986 356.66 172.986 356.461C172.986 356.428 172.944 356.377 172.86 356.308C172.782 356.243 172.67 356.169 172.527 356.085C172.387 356.002 172.223 355.914 172.033 355.821C171.843 355.733 171.638 355.647 171.42 355.563C171.1 355.457 170.783 355.378 170.467 355.327C170.152 355.276 169.839 355.223 169.528 355.167L169.765 353.428H175.288V355.209H173.987C174.173 355.436 174.296 355.659 174.356 355.877C174.421 356.099 174.456 356.294 174.46 356.461C174.442 356.869 174.338 357.233 174.147 357.553C173.957 357.878 173.712 358.161 173.41 358.402C173.113 358.648 172.775 358.854 172.394 359.021C172.014 359.192 171.625 359.332 171.226 359.438C170.827 359.545 170.433 359.621 170.043 359.668C169.658 359.719 169.308 359.744 168.993 359.744ZM175.017 353.428H175.156C175.458 353.428 175.757 353.428 176.054 353.428C176.355 353.428 176.61 353.416 176.819 353.393C176.726 353.333 176.624 353.247 176.513 353.136C176.401 353.02 176.297 352.885 176.2 352.732C176.107 352.574 176.026 352.398 175.956 352.203C175.891 352.004 175.857 351.786 175.852 351.55C175.847 351.489 175.845 351.429 175.845 351.369C175.845 351.179 175.87 350.968 175.921 350.736C175.977 350.499 176.065 350.258 176.186 350.012C176.311 349.766 176.462 349.537 176.638 349.323C176.814 349.106 177.009 348.918 177.222 348.76C177.436 348.598 177.665 348.472 177.911 348.384C178.129 348.306 178.354 348.266 178.586 348.266C178.614 348.266 178.639 348.266 178.662 348.266C179.038 348.28 179.386 348.377 179.706 348.558C180.03 348.734 180.311 348.964 180.548 349.247C180.784 349.53 180.97 349.852 181.104 350.214C181.239 350.571 181.306 350.937 181.306 351.313C181.306 351.675 181.239 352.025 181.104 352.363C180.974 352.697 180.805 353.01 180.596 353.303C180.819 353.34 181.06 353.37 181.32 353.393C181.584 353.416 181.835 353.428 182.071 353.428H182.259V355.209H182.12C181.763 355.209 181.417 355.202 181.083 355.188C180.754 355.179 180.443 355.153 180.151 355.111C179.859 355.07 179.585 355.012 179.33 354.937C179.08 354.859 178.857 354.752 178.662 354.617C178.523 354.719 178.324 354.808 178.064 354.882C177.809 354.956 177.521 355.016 177.201 355.063C176.881 355.114 176.543 355.151 176.186 355.174C175.833 355.197 175.49 355.209 175.156 355.209H175.017V353.428ZM178.641 350.026C178.521 350.049 178.382 350.098 178.224 350.172C178.071 350.242 177.925 350.341 177.786 350.471C177.651 350.597 177.535 350.752 177.438 350.937C177.345 351.123 177.299 351.343 177.299 351.598C177.299 351.682 177.338 351.791 177.417 351.925C177.496 352.055 177.6 352.187 177.73 352.322C177.86 352.452 178.008 352.574 178.175 352.69C178.342 352.802 178.514 352.881 178.69 352.927C178.829 352.857 178.964 352.767 179.094 352.656C179.228 352.544 179.346 352.424 179.448 352.294C179.55 352.159 179.632 352.023 179.692 351.883C179.757 351.74 179.789 351.603 179.789 351.473C179.789 351.292 179.75 351.121 179.671 350.958C179.597 350.791 179.502 350.643 179.386 350.513C179.27 350.383 179.145 350.277 179.01 350.193C178.88 350.105 178.757 350.049 178.641 350.026ZM178.468 346.04L177.285 347.223L176.088 346.033L177.271 344.843L178.468 346.04ZM181.097 346.047L179.915 347.237L178.718 346.04L179.901 344.857L181.097 346.047ZM182.153 353.428C182.64 353.428 183.108 353.414 183.558 353.386C184.008 353.354 184.418 353.31 184.789 353.254C185.16 353.198 185.48 353.131 185.749 353.052C186.018 352.973 186.22 352.885 186.355 352.788H185.645C185.237 352.788 184.847 352.737 184.476 352.635C184.11 352.528 183.788 352.37 183.509 352.162C183.231 351.953 183.008 351.693 182.842 351.383C182.679 351.067 182.598 350.701 182.598 350.283C182.598 350.038 182.624 349.785 182.675 349.525C182.726 349.266 182.802 349.013 182.904 348.767C183.006 348.521 183.129 348.289 183.273 348.071C183.417 347.853 183.581 347.663 183.767 347.501C183.952 347.334 184.156 347.204 184.379 347.111C184.602 347.014 184.843 346.965 185.102 346.965C185.422 346.965 185.722 347.032 186 347.167C186.278 347.301 186.531 347.485 186.758 347.717C186.985 347.944 187.187 348.208 187.363 348.51C187.539 348.811 187.688 349.129 187.808 349.463C187.929 349.797 188.019 350.137 188.08 350.485C188.145 350.828 188.177 351.155 188.177 351.466C188.177 351.995 188.103 352.454 187.955 352.843C187.811 353.233 187.607 353.567 187.342 353.845C187.083 354.123 186.77 354.351 186.403 354.527C186.042 354.703 185.64 354.842 185.2 354.944C184.759 355.046 184.286 355.116 183.781 355.153C183.28 355.19 182.76 355.209 182.222 355.209H181.986V353.428H182.153ZM185.102 348.76C185.079 348.755 185.056 348.753 185.033 348.753C184.94 348.753 184.833 348.79 184.713 348.864C184.592 348.939 184.476 349.045 184.365 349.184C184.254 349.323 184.163 349.481 184.094 349.657C184.024 349.829 183.989 349.998 183.989 350.165C183.989 350.174 183.989 350.184 183.989 350.193C183.989 350.36 184.026 350.497 184.101 350.603C184.175 350.706 184.275 350.784 184.4 350.84C184.53 350.896 184.678 350.935 184.845 350.958C185.017 350.981 185.197 350.998 185.388 351.007C185.513 351.012 185.643 351.014 185.777 351.014C185.842 351.014 185.942 351.014 186.076 351.014C186.215 351.009 186.357 351.002 186.501 350.993C186.459 350.826 186.399 350.62 186.32 350.374C186.246 350.123 186.151 349.882 186.035 349.65C185.923 349.414 185.789 349.21 185.631 349.038C185.478 348.867 185.302 348.774 185.102 348.76ZM186.382 344.704L185.047 346.04L183.718 344.704L185.047 343.376L186.382 344.704ZM191.414 344.141C191.53 345.027 191.612 345.873 191.658 346.68C191.704 347.482 191.732 348.268 191.741 349.038C191.751 349.692 191.753 350.297 191.748 350.854C191.748 351.41 191.744 351.93 191.734 352.412C191.725 352.89 191.711 353.337 191.693 353.755C191.674 354.168 191.656 354.555 191.637 354.917L189.814 355.195C189.912 353.664 189.961 352.312 189.961 351.139C189.961 350.666 189.954 350.223 189.94 349.81C189.903 348.86 189.861 347.967 189.814 347.132C189.768 346.293 189.705 345.49 189.627 344.725L191.414 344.141ZM203.04 359.744C202.242 359.744 201.504 359.645 200.827 359.445C200.15 359.25 199.573 358.954 199.095 358.555C198.618 358.161 198.258 357.664 198.017 357.066C197.822 356.598 197.725 356.067 197.725 355.473C197.725 355.315 197.732 355.153 197.746 354.986C197.773 354.666 197.811 354.339 197.857 354.005C197.908 353.671 197.975 353.321 198.059 352.955C198.147 352.584 198.258 352.192 198.393 351.779C198.527 351.366 198.694 350.921 198.893 350.443L200.326 351.104C200.136 351.577 199.979 352.016 199.853 352.419C199.728 352.818 199.629 353.189 199.554 353.532C199.485 353.875 199.436 354.198 199.408 354.499C199.38 354.801 199.366 355.09 199.366 355.369C199.366 355.703 199.408 356.002 199.492 356.266C199.58 356.53 199.691 356.767 199.826 356.976C200.006 357.221 200.234 357.409 200.507 357.539C200.781 357.674 201.069 357.771 201.37 357.831C201.676 357.892 201.975 357.926 202.267 357.936C202.564 357.95 202.822 357.957 203.04 357.957C203.169 357.957 203.357 357.947 203.603 357.929C203.853 357.91 204.125 357.878 204.417 357.831C204.714 357.785 205.018 357.725 205.328 357.65C205.639 357.576 205.92 357.483 206.17 357.372C206.425 357.261 206.631 357.131 206.789 356.983C206.951 356.834 207.033 356.66 207.033 356.461C207.033 356.428 206.991 356.377 206.907 356.308C206.829 356.243 206.717 356.169 206.573 356.085C206.434 356.002 206.27 355.914 206.08 355.821C205.889 355.733 205.685 355.647 205.467 355.563C205.147 355.457 204.83 355.378 204.514 355.327C204.199 355.276 203.886 355.223 203.575 355.167L203.812 353.428H209.335V355.209H208.034C208.22 355.436 208.343 355.659 208.403 355.877C208.468 356.099 208.503 356.294 208.507 356.461C208.489 356.869 208.384 357.233 208.194 357.553C208.004 357.878 207.758 358.161 207.457 358.402C207.16 358.648 206.822 358.854 206.441 359.021C206.061 359.192 205.671 359.332 205.273 359.438C204.874 359.545 204.48 359.621 204.09 359.668C203.705 359.719 203.355 359.744 203.04 359.744ZM209.342 353.428C209.597 353.428 209.825 353.372 210.024 353.261C210.228 353.15 210.407 353.001 210.56 352.816C210.717 352.63 210.854 352.419 210.97 352.183C211.091 351.946 211.195 351.703 211.283 351.452C211.371 351.202 211.448 350.956 211.513 350.715C211.578 350.469 211.636 350.249 211.687 350.054L213.426 350.437C213.384 350.566 213.328 350.733 213.259 350.937C213.189 351.137 213.122 351.35 213.057 351.577C212.997 351.8 212.946 352.025 212.904 352.252C212.872 352.424 212.855 352.584 212.855 352.732C212.855 352.779 212.86 352.86 212.869 352.976C212.878 353.092 212.925 353.208 213.008 353.323C213.096 353.435 213.238 353.49 213.433 353.49C213.641 353.49 213.829 353.432 213.996 353.317C214.163 353.196 214.312 353.041 214.441 352.85C214.576 352.656 214.692 352.435 214.789 352.19C214.891 351.944 214.977 351.693 215.047 351.438C215.121 351.179 215.181 350.926 215.227 350.68C215.278 350.434 215.318 350.214 215.346 350.019L216.974 350.332C216.96 350.443 216.939 350.576 216.911 350.729C216.888 350.882 216.862 351.049 216.834 351.23C216.807 351.406 216.779 351.591 216.751 351.786C216.728 351.981 216.709 352.176 216.695 352.37C216.695 352.408 216.695 352.445 216.695 352.482C216.695 352.593 216.707 352.709 216.73 352.83C216.753 352.946 216.802 353.057 216.876 353.163C216.95 353.266 217.048 353.349 217.168 353.414C217.289 353.474 217.437 353.507 217.614 353.511C217.943 353.511 218.212 353.428 218.421 353.261C218.629 353.094 218.734 352.839 218.734 352.496C218.734 352.245 218.699 351.974 218.629 351.682C218.564 351.39 218.483 351.104 218.386 350.826C218.293 350.548 218.193 350.286 218.087 350.04C217.98 349.794 217.887 349.59 217.808 349.428L219.304 348.593C219.332 348.644 219.376 348.737 219.436 348.871C219.501 349.006 219.573 349.173 219.652 349.372C219.735 349.567 219.819 349.787 219.902 350.033C219.986 350.279 220.062 350.539 220.132 350.812C220.206 351.081 220.264 351.357 220.306 351.64C220.352 351.923 220.375 352.201 220.375 352.475C220.375 352.906 220.308 353.296 220.174 353.643C220.044 353.991 219.849 354.288 219.589 354.534C219.334 354.78 219.019 354.968 218.643 355.097C218.281 355.227 217.866 355.292 217.398 355.292C217.384 355.292 217.368 355.292 217.349 355.292C217.331 355.292 217.314 355.292 217.301 355.292C217.083 355.292 216.883 355.262 216.702 355.202C216.521 355.146 216.354 355.067 216.201 354.965C216.053 354.859 215.918 354.738 215.798 354.603C215.682 354.469 215.578 354.332 215.485 354.193C215.378 354.346 215.262 354.49 215.137 354.624C215.012 354.754 214.866 354.868 214.699 354.965C214.536 355.063 214.351 355.139 214.142 355.195C213.938 355.255 213.702 355.288 213.433 355.292C213.419 355.292 213.403 355.292 213.384 355.292C213.175 355.292 212.981 355.264 212.8 355.209C212.623 355.153 212.459 355.077 212.306 354.979C212.157 354.877 212.021 354.759 211.895 354.624C211.775 354.49 211.663 354.348 211.561 354.2C211.473 354.33 211.367 354.455 211.241 354.576C211.121 354.696 210.97 354.805 210.789 354.903C210.613 354.995 210.404 355.07 210.163 355.125C209.922 355.181 209.639 355.209 209.314 355.209H209.064V353.428H209.342ZM224.602 350.583C224.695 350.875 224.79 351.181 224.887 351.501C224.989 351.816 225.08 352.136 225.159 352.461C225.242 352.786 225.309 353.11 225.36 353.435C225.411 353.755 225.437 354.068 225.437 354.374C225.437 354.791 225.372 355.197 225.242 355.591C225.117 355.99 224.941 356.373 224.714 356.739C224.491 357.11 224.224 357.463 223.914 357.797C223.607 358.13 223.274 358.446 222.912 358.743C222.55 359.039 222.167 359.315 221.764 359.57C221.36 359.826 220.952 360.055 220.54 360.259L219.747 358.666C220.076 358.504 220.4 358.323 220.72 358.123C221.04 357.929 221.344 357.72 221.632 357.497C221.924 357.275 222.193 357.041 222.439 356.795C222.689 356.549 222.902 356.294 223.079 356.03C223.26 355.765 223.401 355.494 223.503 355.216C223.605 354.937 223.656 354.657 223.656 354.374C223.656 354.11 223.626 353.831 223.566 353.539C223.505 353.247 223.431 352.959 223.343 352.677C223.26 352.389 223.171 352.113 223.079 351.849C222.991 351.584 222.916 351.35 222.856 351.146L224.602 350.583ZM230.355 355.209H230.077C229.135 355.209 228.421 354.972 227.934 354.499C227.447 354.026 227.201 353.312 227.197 352.357C227.197 352.208 227.201 351.965 227.211 351.626C227.22 351.283 227.225 350.866 227.225 350.374C227.225 350.082 227.222 349.769 227.218 349.435C227.213 349.096 227.206 348.753 227.197 348.405C227.187 348.053 227.174 347.703 227.155 347.355C227.141 347.002 227.123 346.664 227.099 346.339C227.076 346.01 227.048 345.704 227.016 345.421C226.983 345.133 226.946 344.881 226.905 344.663L228.651 344.141C228.702 344.41 228.748 344.739 228.79 345.129C228.832 345.514 228.869 345.926 228.901 346.367C228.934 346.808 228.957 347.257 228.971 347.717C228.989 348.171 228.998 348.6 228.998 349.003C228.998 349.249 229.001 349.511 229.005 349.79C229.01 350.063 229.012 350.304 229.012 350.513C229.012 350.689 229.01 350.856 229.005 351.014C229.005 351.167 229.003 351.315 228.998 351.459C228.998 351.603 228.996 351.744 228.992 351.883C228.992 352.023 228.992 352.164 228.992 352.308C228.992 352.345 228.992 352.382 228.992 352.419C228.992 352.586 229.008 352.734 229.04 352.864C229.077 352.994 229.14 353.103 229.228 353.191C229.316 353.275 229.427 353.335 229.562 353.372C229.701 353.409 229.861 353.428 230.042 353.428H230.355V355.209ZM230.247 353.428C230.734 353.428 231.202 353.414 231.652 353.386C232.102 353.354 232.512 353.31 232.883 353.254C233.254 353.198 233.574 353.131 233.843 353.052C234.112 352.973 234.314 352.885 234.448 352.788H233.739C233.331 352.788 232.941 352.737 232.57 352.635C232.204 352.528 231.881 352.37 231.603 352.162C231.325 351.953 231.102 351.693 230.935 351.383C230.773 351.067 230.692 350.701 230.692 350.283C230.692 350.038 230.717 349.785 230.768 349.525C230.819 349.266 230.896 349.013 230.998 348.767C231.1 348.521 231.223 348.289 231.367 348.071C231.51 347.853 231.675 347.663 231.86 347.501C232.046 347.334 232.25 347.204 232.473 347.111C232.695 347.014 232.936 346.965 233.196 346.965C233.516 346.965 233.815 347.032 234.094 347.167C234.372 347.301 234.625 347.485 234.852 347.717C235.079 347.944 235.281 348.208 235.457 348.51C235.633 348.811 235.782 349.129 235.902 349.463C236.023 349.797 236.113 350.137 236.174 350.485C236.238 350.828 236.271 351.155 236.271 351.466C236.271 351.995 236.197 352.454 236.048 352.843C235.905 353.233 235.7 353.567 235.436 353.845C235.176 354.123 234.863 354.351 234.497 354.527C234.135 354.703 233.734 354.842 233.294 354.944C232.853 355.046 232.38 355.116 231.874 355.153C231.374 355.19 230.854 355.209 230.316 355.209H230.08V353.428H230.247ZM233.196 348.76C233.173 348.755 233.15 348.753 233.127 348.753C233.034 348.753 232.927 348.79 232.807 348.864C232.686 348.939 232.57 349.045 232.459 349.184C232.347 349.323 232.257 349.481 232.187 349.657C232.118 349.829 232.083 349.998 232.083 350.165C232.083 350.174 232.083 350.184 232.083 350.193C232.083 350.36 232.12 350.497 232.194 350.603C232.269 350.706 232.368 350.784 232.494 350.84C232.623 350.896 232.772 350.935 232.939 350.958C233.11 350.981 233.291 350.998 233.481 351.007C233.607 351.012 233.736 351.014 233.871 351.014C233.936 351.014 234.036 351.014 234.17 351.014C234.309 351.009 234.451 351.002 234.594 350.993C234.553 350.826 234.492 350.62 234.414 350.374C234.339 350.123 234.244 349.882 234.128 349.65C234.017 349.414 233.883 349.21 233.725 349.038C233.572 348.867 233.396 348.774 233.196 348.76ZM234.476 344.704L233.14 346.04L231.812 344.704L233.14 343.376L234.476 344.704Z" fill="black"/>
</svg>
