<svg width="400" height="400" viewBox="0 0 400 400" fill="none" xmlns="http://www.w3.org/2000/svg">
<rect width="400" height="400" fill="white"/>
<path d="M173.047 53.7443C172.25 53.7443 171.512 53.6446 170.835 53.4452C170.158 53.2504 169.581 52.9536 169.103 52.5548C168.625 52.1606 168.266 51.6643 168.025 51.0661C167.83 50.5977 167.733 50.0667 167.733 49.473C167.733 49.3154 167.74 49.153 167.753 48.9861C167.781 48.6661 167.818 48.3391 167.865 48.0052C167.916 47.6713 167.983 47.3212 168.066 46.9548C168.155 46.5838 168.266 46.1919 168.4 45.7791C168.535 45.3664 168.702 44.9212 168.901 44.4435L170.334 45.1043C170.144 45.5774 169.986 46.0157 169.861 46.4191C169.736 46.818 169.636 47.189 169.562 47.5322C169.493 47.8754 169.444 48.1977 169.416 48.4991C169.388 48.8006 169.374 49.0904 169.374 49.3687C169.374 49.7026 169.416 50.0017 169.5 50.2661C169.588 50.5304 169.699 50.767 169.833 50.9757C170.014 51.2214 170.242 51.4093 170.515 51.5391C170.789 51.6736 171.076 51.771 171.378 51.8313C171.684 51.8916 171.983 51.9264 172.275 51.9357C172.572 51.9496 172.829 51.9565 173.047 51.9565C173.177 51.9565 173.365 51.9472 173.611 51.9287C173.861 51.9101 174.133 51.8777 174.425 51.8313C174.722 51.7849 175.025 51.7246 175.336 51.6504C175.647 51.5762 175.927 51.4835 176.178 51.3722C176.433 51.2609 176.639 51.131 176.797 50.9826C176.959 50.8342 177.04 50.6603 177.04 50.4609C177.04 50.4284 176.999 50.3774 176.915 50.3078C176.836 50.2429 176.725 50.1687 176.581 50.0852C176.442 50.0017 176.277 49.9136 176.087 49.8209C175.897 49.7328 175.693 49.647 175.475 49.5635C175.155 49.4568 174.837 49.378 174.522 49.327C174.207 49.2759 173.894 49.2226 173.583 49.167L173.82 47.4278H179.343V49.2087H178.042C178.228 49.4359 178.351 49.6586 178.411 49.8765C178.476 50.0991 178.511 50.2939 178.515 50.4609C178.497 50.869 178.392 51.233 178.202 51.553C178.012 51.8777 177.766 52.1606 177.465 52.4017C177.168 52.6475 176.829 52.8539 176.449 53.0209C176.069 53.1925 175.679 53.3316 175.28 53.4383C174.882 53.5449 174.487 53.6214 174.098 53.6678C173.713 53.7188 173.363 53.7443 173.047 53.7443ZM187.308 49.2087H187.065C186.708 49.2087 186.358 49.1948 186.014 49.167C185.676 49.1391 185.351 49.0881 185.041 49.0139C184.734 48.9443 184.442 48.8493 184.164 48.7287C183.886 48.6081 183.631 48.4528 183.399 48.2626C183.148 48.4388 182.856 48.5872 182.522 48.7078C182.193 48.8284 181.845 48.9258 181.479 49C181.117 49.0696 180.751 49.1206 180.38 49.153C180.009 49.1901 179.656 49.2087 179.322 49.2087H179.072V47.4278H179.315C179.515 47.4278 179.719 47.4209 179.927 47.407C180.141 47.393 180.349 47.3722 180.554 47.3443C180.762 47.3165 180.964 47.2841 181.159 47.247C181.358 47.2099 181.544 47.1658 181.715 47.1148C181.534 46.9339 181.363 46.7623 181.201 46.6C181.038 46.433 180.874 46.2684 180.707 46.1061C180.544 45.9391 180.373 45.7699 180.192 45.5983C180.016 45.422 179.823 45.2365 179.614 45.0417L179.712 43.5948C179.976 43.3629 180.245 43.1681 180.519 43.0104C180.797 42.8528 181.068 42.7252 181.333 42.6278C181.597 42.5258 181.852 42.4493 182.098 42.3983C182.344 42.3426 182.569 42.3055 182.773 42.287C182.981 42.2638 183.192 42.2522 183.406 42.2522C183.661 42.2522 183.974 42.2754 184.345 42.3217C184.716 42.3635 185.098 42.4725 185.493 42.6487C185.757 42.7646 185.97 42.8945 186.133 43.0383C186.3 43.1774 186.429 43.3188 186.522 43.4626C186.62 43.6017 186.687 43.7386 186.724 43.873C186.761 44.0029 186.782 44.1165 186.787 44.2139C186.791 44.2557 186.794 44.2951 186.794 44.3322C186.794 44.5177 186.754 44.731 186.675 44.9722C186.601 45.2087 186.485 45.4614 186.327 45.7304C186.174 45.9994 185.994 46.2614 185.785 46.5165C185.576 46.767 185.356 46.9919 185.124 47.1913C185.407 47.2701 185.713 47.3304 186.042 47.3722C186.372 47.4093 186.717 47.4278 187.079 47.4278H187.308V49.2087ZM181.472 44.4087C181.634 44.6081 181.806 44.8075 181.987 45.007C182.167 45.2017 182.344 45.3872 182.515 45.5635C182.687 45.7351 182.847 45.8951 182.995 46.0435C183.144 46.1872 183.269 46.3101 183.371 46.4122C183.529 46.3101 183.705 46.171 183.9 45.9948C184.099 45.8186 184.289 45.633 184.47 45.4383C184.651 45.2435 184.811 45.0533 184.95 44.8678C185.089 44.6823 185.18 44.5293 185.221 44.4087C185.11 44.3484 184.983 44.2928 184.839 44.2417C184.695 44.1907 184.542 44.149 184.38 44.1165C184.222 44.0794 184.06 44.0516 183.893 44.033C183.73 44.0099 183.573 43.9983 183.42 43.9983C183.276 43.9983 183.118 44.0099 182.947 44.033C182.775 44.0516 182.601 44.0794 182.425 44.1165C182.249 44.149 182.077 44.1907 181.91 44.2417C181.748 44.2928 181.602 44.3484 181.472 44.4087ZM187.192 47.4278C187.679 47.4278 188.147 47.4139 188.597 47.3861C189.047 47.3536 189.457 47.3096 189.828 47.2539C190.199 47.1983 190.519 47.131 190.788 47.0522C191.057 46.9733 191.259 46.8852 191.394 46.7878H190.684C190.276 46.7878 189.886 46.7368 189.515 46.6348C189.149 46.5281 188.827 46.3704 188.548 46.1617C188.27 45.953 188.048 45.6933 187.881 45.3826C187.718 45.0672 187.637 44.7009 187.637 44.2835C187.637 44.0377 187.663 43.7849 187.714 43.5252C187.765 43.2655 187.841 43.0128 187.943 42.767C188.045 42.5212 188.168 42.2893 188.312 42.0713C188.456 41.8533 188.62 41.6632 188.806 41.5009C188.991 41.3339 189.195 41.2041 189.418 41.1113C189.641 41.0139 189.882 40.9652 190.141 40.9652C190.461 40.9652 190.761 41.0325 191.039 41.167C191.317 41.3014 191.57 41.4846 191.797 41.7165C192.024 41.9438 192.226 42.2081 192.402 42.5096C192.579 42.811 192.727 43.1287 192.848 43.4626C192.968 43.7965 193.059 44.1374 193.119 44.4852C193.184 44.8284 193.216 45.1554 193.216 45.4661C193.216 45.9948 193.142 46.4539 192.994 46.8435C192.85 47.233 192.646 47.567 192.381 47.8452C192.122 48.1235 191.809 48.3507 191.442 48.527C191.081 48.7032 190.679 48.8423 190.239 48.9443C189.798 49.0464 189.325 49.1159 188.82 49.153C188.319 49.1901 187.799 49.2087 187.261 49.2087H187.025V47.4278H187.192ZM190.141 42.76C190.118 42.7554 190.095 42.753 190.072 42.753C189.979 42.753 189.872 42.7901 189.752 42.8643C189.631 42.9386 189.515 43.0452 189.404 43.1843C189.293 43.3235 189.202 43.4812 189.133 43.6574C189.063 43.829 189.028 43.9983 189.028 44.1652C189.028 44.1745 189.028 44.1838 189.028 44.193C189.028 44.36 189.066 44.4968 189.14 44.6035C189.214 44.7055 189.314 44.7843 189.439 44.84C189.569 44.8957 189.717 44.9351 189.884 44.9583C190.056 44.9814 190.237 44.9977 190.427 45.007C190.552 45.0116 190.682 45.0139 190.816 45.0139C190.881 45.0139 190.981 45.0139 191.115 45.0139C191.254 45.0093 191.396 45.0023 191.54 44.993C191.498 44.8261 191.438 44.6197 191.359 44.3739C191.285 44.1235 191.19 43.8823 191.074 43.6504C190.962 43.4139 190.828 43.2099 190.67 43.0383C190.517 42.8667 190.341 42.7739 190.141 42.76ZM189.974 38.8713L188.792 40.0539L187.595 38.8643L188.778 37.6748L189.974 38.8713ZM192.604 38.8783L191.421 40.0678L190.225 38.8713L191.408 37.6887L192.604 38.8783ZM197.594 44.5826C197.687 44.8748 197.782 45.1809 197.88 45.5009C197.982 45.8162 198.072 46.1362 198.151 46.4609C198.234 46.7855 198.302 47.1101 198.353 47.4348C198.404 47.7548 198.429 48.0678 198.429 48.3739C198.429 48.7913 198.364 49.1971 198.234 49.5913C198.109 49.9901 197.933 50.3728 197.706 50.7391C197.483 51.1101 197.216 51.4626 196.906 51.7965C196.6 52.1304 196.266 52.4458 195.904 52.7426C195.542 53.0394 195.16 53.3154 194.756 53.5704C194.353 53.8255 193.945 54.0551 193.532 54.2591L192.739 52.6661C193.068 52.5038 193.393 52.3229 193.713 52.1235C194.033 51.9287 194.336 51.72 194.624 51.4974C194.916 51.2748 195.185 51.0406 195.431 50.7948C195.681 50.549 195.895 50.2939 196.071 50.0296C196.252 49.7652 196.393 49.4939 196.495 49.2157C196.597 48.9374 196.648 48.6568 196.648 48.3739C196.648 48.1096 196.618 47.8313 196.558 47.5391C196.498 47.247 196.423 46.9594 196.335 46.6765C196.252 46.389 196.164 46.113 196.071 45.8487C195.983 45.5843 195.909 45.3501 195.848 45.1461L197.594 44.5826ZM208.4 52.8748C208.669 52.9212 208.94 52.9443 209.214 52.9443C209.283 52.9443 209.42 52.9397 209.624 52.9304C209.828 52.9212 210.09 52.8794 210.41 52.8052C210.73 52.731 211.036 52.6313 211.328 52.5061C211.625 52.3809 211.896 52.2371 212.142 52.0748L213.081 53.633C212.812 53.7954 212.534 53.9438 212.247 54.0783C211.964 54.2174 211.669 54.3357 211.363 54.433C211.062 54.5304 210.749 54.6046 210.424 54.6557C210.141 54.702 209.851 54.7252 209.554 54.7252C209.508 54.7252 209.459 54.7252 209.408 54.7252C208.972 54.7159 208.536 54.6696 208.101 54.5861C207.669 54.5026 207.256 54.382 206.862 54.2243C206.473 54.0667 206.109 53.8696 205.77 53.633C205.436 53.4012 205.144 53.1299 204.894 52.8191C204.648 52.513 204.453 52.1675 204.309 51.7826C204.165 51.4023 204.091 50.9803 204.087 50.5165C204.101 50.0203 204.193 49.5565 204.365 49.1252C204.536 48.6986 204.764 48.309 205.047 47.9565C205.334 47.5994 205.663 47.2817 206.034 47.0035C206.41 46.7252 206.807 46.4864 207.224 46.287C207.076 46.1478 206.923 46.011 206.765 45.8765C206.612 45.7374 206.463 45.6075 206.32 45.487C206.176 45.3617 206.041 45.2481 205.916 45.1461C205.791 45.0394 205.687 44.949 205.603 44.8748L205.471 43.3861C206.078 42.8574 206.732 42.4609 207.433 42.1965C208.138 41.9275 208.873 41.793 209.638 41.793C209.865 41.793 210.099 41.8093 210.341 41.8417C210.586 41.8742 210.825 41.9252 211.057 41.9948C211.289 42.0643 211.507 42.1548 211.711 42.2661C211.915 42.3774 212.094 42.5142 212.247 42.6765C212.4 42.8342 212.52 43.0174 212.608 43.2261C212.687 43.4301 212.727 43.6574 212.727 43.9078C212.727 43.9217 212.727 43.9357 212.727 43.9496C212.708 44.302 212.638 44.6174 212.518 44.8957C212.402 45.1739 212.249 45.4243 212.059 45.647C211.869 45.8696 211.648 46.069 211.398 46.2452C211.152 46.4214 210.89 46.5838 210.612 46.7322C210.987 46.9409 211.386 47.1101 211.808 47.24C212.235 47.3652 212.65 47.4278 213.054 47.4278H213.29V49.2087H213.054C212.669 49.2087 212.295 49.1693 211.934 49.0904C211.572 49.0116 211.215 48.9003 210.862 48.7565C210.51 48.6081 210.16 48.4342 209.812 48.2348C209.464 48.0307 209.114 47.8058 208.761 47.56C208.423 47.6945 208.08 47.8522 207.732 48.033C207.384 48.2093 207.066 48.418 206.779 48.6591C206.496 48.8957 206.264 49.1646 206.083 49.4661C205.902 49.7675 205.812 50.1084 205.812 50.4887C205.812 50.702 205.854 50.9061 205.937 51.1009C206.025 51.2957 206.139 51.4765 206.278 51.6435C206.417 51.8151 206.577 51.9704 206.758 52.1096C206.939 52.2533 207.124 52.3762 207.314 52.4783C207.509 52.5849 207.699 52.6707 207.885 52.7357C208.075 52.8052 208.247 52.8516 208.4 52.8748ZM209.645 43.4904C209.459 43.4904 209.265 43.5043 209.061 43.5322C208.856 43.5554 208.655 43.5901 208.455 43.6365C208.256 43.6783 208.063 43.7316 207.878 43.7965C207.697 43.8568 207.537 43.9241 207.398 43.9983C207.495 44.1003 207.604 44.2186 207.725 44.353C207.845 44.4829 207.973 44.6197 208.107 44.7635C208.247 44.9072 208.388 45.051 208.532 45.1948C208.676 45.3339 208.817 45.4638 208.956 45.5843C209.262 45.4545 209.547 45.3223 209.812 45.1878C210.076 45.0533 210.306 44.9165 210.501 44.7774C210.7 44.6336 210.858 44.4852 210.974 44.3322C211.089 44.1791 211.15 44.0214 211.154 43.8591C211.15 43.8406 211.12 43.8128 211.064 43.7757C211.008 43.7386 210.918 43.7014 210.793 43.6643C210.672 43.6226 210.517 43.5855 210.327 43.553C210.141 43.5206 209.914 43.4997 209.645 43.4904ZM213.009 47.4278H214.067L214.115 47.3374C214.194 47.1983 214.306 47.0151 214.449 46.7878C214.598 46.5559 214.783 46.2939 215.006 46.0017C215.048 45.7096 215.082 45.3409 215.11 44.8957C215.138 44.4504 215.154 43.9681 215.159 43.4487C215.159 43.1658 215.154 42.8759 215.145 42.5791C215.136 42.2777 215.117 41.9322 215.089 41.5426C215.061 41.153 215.022 40.6986 214.971 40.1791C214.925 39.6551 214.864 39.0313 214.79 38.3078L216.62 37.8348C216.74 38.7252 216.831 39.6388 216.891 40.5757C216.956 41.5125 216.988 42.44 216.988 43.3583V43.9217C217.239 43.7084 217.499 43.5043 217.768 43.3096C218.041 43.1148 218.324 42.9432 218.616 42.7948C218.913 42.6464 219.221 42.5281 219.541 42.44C219.861 42.3519 220.195 42.3078 220.543 42.3078C220.896 42.3078 221.23 42.3635 221.545 42.4748C221.86 42.5861 222.139 42.7484 222.38 42.9617C222.626 43.1704 222.827 43.4255 222.985 43.727C223.143 44.0284 223.24 44.367 223.277 44.7426C223.282 44.8122 223.284 44.8794 223.284 44.9443C223.284 45.4267 223.203 45.8765 223.041 46.2939C222.883 46.7113 222.649 47.0893 222.338 47.4278H224.3V49.2087H222.449C222.083 49.2087 221.675 49.1925 221.225 49.16C220.775 49.1275 220.277 49.0417 219.729 48.9026C219.335 49.0093 218.934 49.0858 218.526 49.1322C218.122 49.1832 217.717 49.2087 217.308 49.2087H213.009V47.4278ZM216.661 47.4278C216.944 47.4278 217.269 47.4209 217.635 47.407C218.006 47.393 218.387 47.3606 218.776 47.3096C219.166 47.2586 219.544 47.182 219.91 47.08C220.281 46.978 220.61 46.8412 220.898 46.6696C221.186 46.498 221.413 46.2823 221.58 46.0226C221.724 45.8 221.795 45.5357 221.795 45.2296C221.795 45.1878 221.793 45.1438 221.788 45.0974C221.779 44.9583 221.733 44.8284 221.649 44.7078C221.57 44.5872 221.459 44.4852 221.315 44.4017C221.176 44.3136 221.009 44.2441 220.815 44.193C220.648 44.1559 220.467 44.1374 220.272 44.1374C220.235 44.1374 220.195 44.1374 220.154 44.1374C219.922 44.1467 219.646 44.207 219.326 44.3183C219.006 44.4249 218.663 44.6058 218.296 44.8609C217.93 45.1159 217.55 45.4522 217.155 45.8696C216.761 46.287 216.376 46.8064 216.001 47.4278H216.661ZM224.192 47.4278C224.679 47.4278 225.147 47.4139 225.597 47.3861C226.047 47.3536 226.457 47.3096 226.828 47.2539C227.199 47.1983 227.519 47.131 227.788 47.0522C228.057 46.9733 228.259 46.8852 228.394 46.7878H227.684C227.276 46.7878 226.886 46.7368 226.515 46.6348C226.149 46.5281 225.827 46.3704 225.548 46.1617C225.27 45.953 225.048 45.6933 224.881 45.3826C224.718 45.0672 224.637 44.7009 224.637 44.2835C224.637 44.0377 224.663 43.7849 224.714 43.5252C224.765 43.2655 224.841 43.0128 224.943 42.767C225.045 42.5212 225.168 42.2893 225.312 42.0713C225.456 41.8533 225.62 41.6632 225.806 41.5009C225.991 41.3339 226.195 41.2041 226.418 41.1113C226.641 41.0139 226.882 40.9652 227.141 40.9652C227.461 40.9652 227.761 41.0325 228.039 41.167C228.317 41.3014 228.57 41.4846 228.797 41.7165C229.024 41.9438 229.226 42.2081 229.402 42.5096C229.579 42.811 229.727 43.1287 229.848 43.4626C229.968 43.7965 230.059 44.1374 230.119 44.4852C230.184 44.8284 230.216 45.1554 230.216 45.4661C230.216 45.9948 230.142 46.4539 229.994 46.8435C229.85 47.233 229.646 47.567 229.381 47.8452C229.122 48.1235 228.809 48.3507 228.442 48.527C228.081 48.7032 227.679 48.8423 227.239 48.9443C226.798 49.0464 226.325 49.1159 225.82 49.153C225.319 49.1901 224.799 49.2087 224.261 49.2087H224.025V47.4278H224.192ZM227.141 42.76C227.118 42.7554 227.095 42.753 227.072 42.753C226.979 42.753 226.872 42.7901 226.752 42.8643C226.631 42.9386 226.515 43.0452 226.404 43.1843C226.293 43.3235 226.202 43.4812 226.133 43.6574C226.063 43.829 226.028 43.9983 226.028 44.1652C226.028 44.1745 226.028 44.1838 226.028 44.193C226.028 44.36 226.066 44.4968 226.14 44.6035C226.214 44.7055 226.314 44.7843 226.439 44.84C226.569 44.8957 226.717 44.9351 226.884 44.9583C227.056 44.9814 227.237 44.9977 227.427 45.007C227.552 45.0116 227.682 45.0139 227.816 45.0139C227.881 45.0139 227.981 45.0139 228.115 45.0139C228.254 45.0093 228.396 45.0023 228.54 44.993C228.498 44.8261 228.438 44.6197 228.359 44.3739C228.285 44.1235 228.19 43.8823 228.074 43.6504C227.962 43.4139 227.828 43.2099 227.67 43.0383C227.517 42.8667 227.341 42.7739 227.141 42.76ZM226.974 38.8713L225.792 40.0539L224.595 38.8643L225.778 37.6748L226.974 38.8713ZM229.604 38.8783L228.421 40.0678L227.225 38.8713L228.408 37.6887L229.604 38.8783Z" fill="black"/>
<path d="M273.031 141.625C273.031 140.269 273.011 138.909 272.97 137.546C272.93 136.177 272.84 134.83 272.701 133.506C272.562 132.182 272.362 130.898 272.102 129.653C271.847 128.412 271.503 127.236 271.069 126.126L272.51 125.981C272.985 127.208 273.378 128.525 273.691 129.929C274.009 131.331 274.252 132.853 274.42 134.496C274.489 135.196 274.544 135.907 274.585 136.63C274.631 137.357 274.666 138.075 274.689 138.786C274.718 139.494 274.735 140.184 274.741 140.856C274.753 141.531 274.759 142.172 274.759 142.777L273.031 141.625ZM283.793 148.852C283.371 148.571 282.983 148.19 282.63 147.712C282.283 147.23 281.987 146.675 281.744 146.046L281.718 145.987C281.469 146.274 281.157 146.423 280.781 146.437C280.41 146.454 279.999 146.313 279.548 146.012C279.044 145.676 278.619 145.281 278.271 144.827C277.93 144.376 277.652 143.899 277.438 143.395C277.224 142.883 277.065 142.356 276.96 141.814C276.856 141.271 276.793 140.742 276.769 140.225C276.758 140.009 276.752 139.8 276.752 139.598C276.752 139.313 276.767 138.989 276.795 138.625C276.83 138.259 276.882 137.904 276.952 137.561C277.056 137.067 277.189 136.585 277.351 136.116C277.519 135.65 277.722 135.184 277.959 134.716C278.202 134.245 278.486 133.766 278.81 133.28C279.14 132.797 279.516 132.293 279.938 131.768L279.617 131.167L280.833 130.517C281.417 131.547 281.99 132.583 282.552 133.625C283.119 134.664 283.649 135.719 284.141 136.792C285.275 139.287 286.097 141.672 286.606 143.945C286.774 144.725 286.858 145.476 286.858 146.2C286.858 146.777 286.795 147.302 286.667 147.773C286.54 148.245 286.349 148.619 286.094 148.894C285.845 149.166 285.527 149.312 285.139 149.332C284.757 149.349 284.311 149.191 283.802 148.858L283.793 148.852ZM282.517 142.116C282.517 142.304 282.523 142.531 282.534 142.796C282.546 143.061 282.566 143.342 282.595 143.64C282.63 143.934 282.676 144.236 282.734 144.546C282.798 144.86 282.876 145.159 282.969 145.443C283.067 145.725 283.183 145.983 283.316 146.218C283.455 146.456 283.617 146.651 283.802 146.803C284.074 146.963 284.297 147.011 284.471 146.946C284.644 146.88 284.78 146.752 284.879 146.56C284.977 146.362 285.044 146.124 285.078 145.848C285.119 145.569 285.139 145.301 285.139 145.043C285.139 144.807 285.125 144.554 285.096 144.284C285.067 144.014 285.02 143.74 284.957 143.461C284.748 142.55 284.497 141.659 284.201 140.787C283.906 139.915 283.591 139.079 283.255 138.278C282.919 137.47 282.575 136.708 282.222 135.993C281.869 135.277 281.53 134.624 281.206 134.032C280.841 134.498 280.52 134.945 280.242 135.372C279.964 135.799 279.721 136.218 279.513 136.628C279.305 137.039 279.128 137.45 278.983 137.861C278.844 138.27 278.729 138.686 278.636 139.112C278.601 139.262 278.567 139.462 278.532 139.71C278.497 139.958 278.474 140.235 278.462 140.54C278.457 140.641 278.454 140.743 278.454 140.847C278.454 141.056 278.462 141.298 278.48 141.574C278.503 141.854 278.552 142.148 278.627 142.455C278.708 142.767 278.821 143.051 278.966 143.307C279.117 143.568 279.31 143.777 279.548 143.935C279.756 144.067 279.936 144.11 280.086 144.064C280.237 144.019 280.364 143.919 280.468 143.766C280.578 143.61 280.668 143.416 280.737 143.184C280.812 142.949 280.873 142.707 280.92 142.46C280.966 142.213 281.003 141.973 281.032 141.742C281.067 141.508 281.096 141.315 281.119 141.164L282.517 142.116Z" fill="black"/>
<path d="M95.6637 131.671C95.6637 130.314 95.6434 128.982 95.6029 127.673C95.5624 126.357 95.4727 125.13 95.3338 123.992C95.1949 122.853 94.9952 121.835 94.7347 120.937C94.48 120.035 94.1356 119.319 93.7015 118.788L95.1428 116.721C95.6174 117.315 96.011 118.107 96.3236 119.095C96.6419 120.072 96.885 121.27 97.0529 122.689C97.1223 123.297 97.1773 123.935 97.2178 124.603C97.2641 125.268 97.2989 125.941 97.322 126.621C97.351 127.29 97.3683 127.957 97.3741 128.621C97.3857 129.281 97.3915 129.914 97.3915 130.519L95.6637 131.671ZM105.315 117.494C104.771 117.857 104.238 118.121 103.717 118.288C103.202 118.443 102.751 118.435 102.363 118.262C102.432 118.557 102.49 118.914 102.537 119.336C102.589 119.753 102.629 120.21 102.658 120.705C102.693 121.19 102.719 121.701 102.736 122.239C102.754 122.777 102.765 123.312 102.771 123.844C102.783 124.372 102.788 124.886 102.788 125.387C102.788 125.888 102.788 126.344 102.788 126.754L101.061 127.906C101.061 126.549 101.04 125.217 101 123.908C100.959 122.592 100.87 121.365 100.731 120.227C100.592 119.088 100.392 118.07 100.132 117.172C99.8769 116.271 99.5325 115.554 99.0984 115.023L100.54 112.966C100.742 113.228 100.933 113.518 101.113 113.836C101.292 114.155 101.448 114.493 101.582 114.849C101.709 114.347 101.883 113.848 102.102 113.354C102.328 112.856 102.586 112.385 102.875 111.941C103.165 111.491 103.477 111.081 103.813 110.711C104.154 110.337 104.507 110.018 104.872 109.754L105.02 109.656C105.373 109.421 105.749 109.239 106.148 109.112C106.548 108.985 106.956 108.95 107.373 109.006C107.633 109.034 107.847 109.082 108.015 109.151C108.183 109.22 108.325 109.282 108.441 109.337L107.199 111.605L107.112 111.558C107.048 111.531 106.965 111.5 106.86 111.465C106.762 111.427 106.64 111.396 106.496 111.375C106.357 111.349 106.203 111.343 106.036 111.358C105.868 111.372 105.694 111.408 105.515 111.465C105.381 111.512 105.237 111.588 105.08 111.692C105.023 111.731 104.921 111.805 104.777 111.915C104.638 112.022 104.452 112.215 104.221 112.495C103.995 112.77 103.798 113.065 103.631 113.379C103.468 113.688 103.344 114.004 103.257 114.327C103.194 114.571 103.162 114.808 103.162 115.037C103.162 115.114 103.165 115.188 103.17 115.261C103.228 115.542 103.324 115.747 103.457 115.874C103.59 115.993 103.749 116.054 103.934 116.056C104.125 116.047 104.34 115.984 104.577 115.868C104.756 115.783 104.944 115.675 105.141 115.544L105.315 115.428C105.529 115.278 105.749 115.114 105.975 114.936C106.2 114.751 106.42 114.555 106.635 114.35C106.849 114.144 107.054 113.927 107.251 113.699C107.448 113.47 107.63 113.227 107.798 112.969L108.562 114.15C108.064 114.92 107.543 115.574 106.999 116.11C106.455 116.647 105.894 117.108 105.315 117.494ZM110.627 124.826L109.611 124.658C110.219 123.23 110.537 121.964 110.566 120.859V118.898L112.329 117.723V119.423C112.329 120.21 112.166 121.104 111.842 122.106C111.524 123.111 111.119 124.018 110.627 124.826ZM121.762 98.7452C121.762 98.7591 121.77 98.8229 121.788 98.9366C121.805 99.0432 121.822 99.1917 121.84 99.3818C121.857 99.565 121.871 99.778 121.883 100.021C121.889 100.191 121.892 100.366 121.892 100.547V100.818C121.869 102.441 121.553 103.882 120.945 105.143V105.133C120.355 106.382 119.553 107.344 118.54 108.02C118.263 108.205 118.011 108.352 117.785 108.461C117.565 108.558 117.345 108.629 117.125 108.671L117.195 109.198C117.264 109.806 117.319 110.444 117.36 111.113C117.406 111.771 117.441 112.44 117.464 113.12C117.493 113.789 117.51 114.459 117.516 115.13C117.527 115.791 117.533 116.423 117.533 117.028L115.805 118.18C115.805 117.074 115.797 115.981 115.779 114.9C115.762 113.813 115.716 112.779 115.641 111.8C115.565 110.813 115.452 109.901 115.302 109.062C115.157 108.212 114.955 107.478 114.694 106.859C114.573 106.564 114.442 106.292 114.303 106.044C114.165 105.796 114.008 105.549 113.835 105.303L115.285 103.23C115.377 103.349 115.461 103.478 115.536 103.615C115.617 103.742 115.696 103.881 115.771 104.033C115.852 104.174 115.933 104.328 116.014 104.497C116.095 104.666 116.185 104.846 116.283 105.038C116.416 105.318 116.546 105.565 116.674 105.779C116.807 105.982 116.957 106.136 117.125 106.24C117.299 106.339 117.496 106.375 117.716 106.347C117.941 106.308 118.216 106.18 118.54 105.964C119.021 105.644 119.383 105.225 119.626 104.708C119.736 104.482 119.825 104.245 119.895 103.997C119.964 103.742 120.019 103.486 120.06 103.229C120.106 102.969 120.138 102.711 120.155 102.456C120.173 102.201 120.181 101.959 120.181 101.729C120.181 101.43 120.167 101.151 120.138 100.892C120.115 100.629 120.089 100.417 120.06 100.255L121.762 98.7452Z" fill="black"/>
<path d="M361.95 217.165L361.95 223.956L228.197 314.064L40.6004 190.834L40.6004 184.662L175.329 94.1729L361.95 217.165Z" fill="#E7E7E7" stroke="black"/>
<path d="M362.614 216.95L362.614 223.338L228.789 313.546L228.789 306.662L362.614 216.95Z" fill="#A3A3A3" stroke="black"/>
<path d="M40.5388 184.496L175.706 94.0533L362.558 216.382L228.237 306.598L40.5388 184.496Z" fill="#E7E7E7" stroke="black"/>
<path d="M354.219 210.818L362.646 216.436L228.229 306.716L220.422 301.511L354.219 210.818Z" fill="#A3A3A3" stroke="black"/>
<path d="M181.312 185.513C180.553 185.008 179.954 184.415 179.513 183.735C179.079 183.058 178.872 182.299 178.894 181.455L182.674 181.019C182.698 181.383 182.759 181.71 182.858 182C182.963 182.286 183.09 182.541 183.241 182.765C183.392 182.989 183.557 183.184 183.736 183.35C183.922 183.52 184.11 183.669 184.301 183.796C184.457 183.9 184.633 184.006 184.83 184.114C185.033 184.219 185.244 184.313 185.464 184.398C185.689 184.486 185.915 184.559 186.141 184.617C186.366 184.675 186.589 184.707 186.809 184.715C187.12 184.211 187.431 183.681 187.742 183.123C188.065 182.565 188.385 182.006 188.702 181.444C189.025 180.879 189.345 180.319 189.662 179.765C189.979 179.212 190.29 178.685 190.596 178.185L194.188 179.166L190.149 185.713C189.999 185.953 189.872 186.166 189.769 186.352C189.665 186.538 189.607 186.712 189.596 186.874C189.591 187.041 189.637 187.199 189.736 187.35C189.846 187.501 190.031 187.663 190.292 187.836L190.543 188.004L187.806 189.843L187.554 189.675C187.201 189.44 186.912 189.216 186.686 189.003C186.466 188.795 186.292 188.59 186.164 188.389C186.037 188.196 185.947 188.004 185.895 187.815C185.854 187.625 185.833 187.434 185.833 187.241C185.388 187.183 184.971 187.107 184.584 187.011C184.19 186.918 183.812 186.801 183.447 186.659C183.083 186.516 182.727 186.348 182.379 186.156C182.032 185.97 181.676 185.756 181.312 185.513ZM190.199 187.775L190.763 188.151C191.023 188.324 191.284 188.444 191.544 188.509C191.816 188.575 192.085 188.595 192.351 188.572C192.628 188.548 192.897 188.484 193.157 188.379C193.423 188.278 193.68 188.144 193.928 187.977C194.275 187.752 194.69 187.477 195.176 187.151C195.666 186.821 196.189 186.466 196.743 186.086C197.304 185.702 197.878 185.305 198.467 184.894C199.062 184.479 199.636 184.073 200.191 183.678C200.751 183.278 201.279 182.9 201.776 182.543C202.278 182.183 202.714 181.867 203.084 181.595L206.347 183.098L196.057 190.138C195.699 190.378 195.505 190.628 195.477 190.888C195.46 191.147 195.631 191.396 195.99 191.635L196.181 191.763L193.443 193.601L193.252 193.474C193.009 193.319 192.789 193.146 192.592 192.953C192.401 192.763 192.242 192.568 192.114 192.367C191.981 192.17 191.888 191.977 191.836 191.787C191.784 191.598 191.778 191.428 191.818 191.277C191.546 191.297 191.271 191.291 190.994 191.261C190.716 191.23 190.424 191.163 190.118 191.059C189.811 190.963 189.484 190.826 189.137 190.649C188.79 190.472 188.414 190.248 188.008 189.978L187.461 189.613L190.199 187.775ZM195.835 191.532L197.666 192.753C198.604 193.378 199.519 193.914 200.41 194.362C201.312 194.809 202.201 195.196 203.074 195.523C203.948 195.851 204.812 196.134 205.669 196.372C206.536 196.61 207.401 196.835 208.263 197.047C207.979 196.71 207.718 196.355 207.48 195.98C207.249 195.609 207.008 195.24 206.759 194.873C206.515 194.51 206.249 194.162 205.959 193.83C205.675 193.494 205.339 193.196 204.952 192.938C204.685 192.76 204.35 192.633 203.945 192.557C203.546 192.484 203.15 192.44 202.757 192.425C202.363 192.41 202.008 192.417 201.69 192.444C201.378 192.468 201.173 192.49 201.074 192.509L200.359 190.305C200.966 190.192 201.605 190.112 202.276 190.064C202.946 190.017 203.602 190.017 204.244 190.067C204.898 190.116 205.519 190.221 206.109 190.382C206.705 190.548 207.234 190.785 207.697 191.094C208.039 191.321 208.343 191.574 208.609 191.852C208.882 192.126 209.128 192.414 209.348 192.716C209.574 193.021 209.777 193.334 209.957 193.655C210.142 193.972 210.322 194.288 210.496 194.605C210.658 194.907 210.824 195.21 210.992 195.516C211.166 195.817 211.357 196.119 211.566 196.42C211.78 196.717 212.026 197.009 212.304 197.295C212.582 197.581 212.915 197.857 213.303 198.123L210.427 199.764L208.605 199.338C207.859 199.165 207.107 199 206.349 198.843C205.597 198.682 204.843 198.511 204.085 198.33C203.333 198.146 202.572 197.944 201.803 197.725C201.039 197.502 200.276 197.244 199.512 196.951C198.754 196.655 197.993 196.314 197.23 195.928C196.46 195.546 195.693 195.101 194.929 194.592L193.097 193.37L195.835 191.532ZM195.53 201.322L195.526 198.746L199.377 198.739L199.381 201.315L195.53 201.322Z" fill="black"/>
<path d="M190.706 85.1575C190.543 84.8539 190.543 84.5373 190.706 84.4504L193.353 83.0334C193.516 82.9465 193.779 83.1221 193.941 83.4257C194.104 83.7292 194.104 84.0458 193.941 84.1328L191.588 85.3923L193.941 89.7896C194.104 90.0932 194.104 90.4098 193.941 90.4967C193.779 90.5837 193.516 90.4081 193.353 90.1045L190.706 85.1575ZM245.083 121.556L191 85.5V84.5L245.083 120.556V121.556Z" fill="black"/>
<path d="M42.7057 164.613C42.5433 164.526 42.5433 164.209 42.7057 163.906L45.3533 158.959C45.5158 158.655 45.7792 158.48 45.9416 158.567C46.1041 158.653 46.1041 158.97 45.9416 159.274L43.5883 163.671L45.9416 164.93C46.1041 165.017 46.1041 165.334 45.9416 165.638C45.7792 165.941 45.5158 166.117 45.3533 166.03L42.7057 164.613ZM89.5947 133.5L42.9999 164.563V163.563L89.5947 132.5V133.5Z" fill="black"/>
<path d="M171.889 80.4503C172.051 80.5373 172.051 80.8539 171.889 81.1574L169.241 86.1045C169.079 86.408 168.815 86.5836 168.653 86.4967C168.491 86.4097 168.491 86.0932 168.653 85.7896L171.006 81.3922L168.653 80.1327C168.491 80.0458 168.491 79.7292 168.653 79.4256C168.815 79.1221 169.079 78.9464 169.241 79.0334L171.889 80.4503ZM171.595 81.5L125 112.563V111.563L171.595 80.5V81.5Z" fill="black"/>
<path d="M365.377 199.954C365.54 200.257 365.54 200.574 365.377 200.661L362.73 202.078C362.567 202.165 362.304 201.989 362.141 201.685C361.979 201.382 361.979 201.065 362.141 200.978L364.495 199.719L362.141 195.321C361.979 195.018 361.979 194.701 362.141 194.614C362.304 194.527 362.567 194.703 362.73 195.007L365.377 199.954ZM365.083 200.611L311 164.556V163.556L365.083 199.611V200.611Z" fill="black"/>
<path d="M168.993 359.744C168.195 359.744 167.458 359.645 166.78 359.445C166.103 359.25 165.526 358.954 165.048 358.555C164.571 358.161 164.211 357.664 163.97 357.066C163.775 356.598 163.678 356.067 163.678 355.473C163.678 355.315 163.685 355.153 163.699 354.986C163.727 354.666 163.764 354.339 163.81 354.005C163.861 353.671 163.928 353.321 164.012 352.955C164.1 352.584 164.211 352.192 164.346 351.779C164.48 351.366 164.647 350.921 164.847 350.443L166.28 351.104C166.089 351.577 165.932 352.016 165.807 352.419C165.681 352.818 165.582 353.189 165.507 353.532C165.438 353.875 165.389 354.198 165.361 354.499C165.334 354.801 165.32 355.09 165.32 355.369C165.32 355.703 165.361 356.002 165.445 356.266C165.533 356.53 165.644 356.767 165.779 356.976C165.96 357.221 166.187 357.409 166.46 357.539C166.734 357.674 167.022 357.771 167.323 357.831C167.629 357.892 167.928 357.926 168.22 357.936C168.517 357.95 168.775 357.957 168.993 357.957C169.123 357.957 169.31 357.947 169.556 357.929C169.807 357.91 170.078 357.878 170.37 357.831C170.667 357.785 170.971 357.725 171.281 357.65C171.592 357.576 171.873 357.483 172.123 357.372C172.378 357.261 172.585 357.131 172.742 356.983C172.905 356.834 172.986 356.66 172.986 356.461C172.986 356.428 172.944 356.377 172.86 356.308C172.782 356.243 172.67 356.169 172.527 356.085C172.387 356.002 172.223 355.914 172.033 355.821C171.843 355.733 171.638 355.647 171.42 355.563C171.1 355.457 170.783 355.378 170.467 355.327C170.152 355.276 169.839 355.223 169.528 355.167L169.765 353.428H175.288V355.209H173.987C174.173 355.436 174.296 355.659 174.356 355.877C174.421 356.099 174.456 356.294 174.46 356.461C174.442 356.869 174.338 357.233 174.147 357.553C173.957 357.878 173.712 358.161 173.41 358.402C173.113 358.648 172.775 358.854 172.394 359.021C172.014 359.192 171.625 359.332 171.226 359.438C170.827 359.545 170.433 359.621 170.043 359.668C169.658 359.719 169.308 359.744 168.993 359.744ZM175.017 353.428H175.156C175.458 353.428 175.757 353.428 176.054 353.428C176.355 353.428 176.61 353.416 176.819 353.393C176.726 353.333 176.624 353.247 176.513 353.136C176.401 353.02 176.297 352.885 176.2 352.732C176.107 352.574 176.026 352.398 175.956 352.203C175.891 352.004 175.857 351.786 175.852 351.55C175.847 351.489 175.845 351.429 175.845 351.369C175.845 351.179 175.87 350.968 175.921 350.736C175.977 350.499 176.065 350.258 176.186 350.012C176.311 349.766 176.462 349.537 176.638 349.323C176.814 349.106 177.009 348.918 177.222 348.76C177.436 348.598 177.665 348.472 177.911 348.384C178.129 348.306 178.354 348.266 178.586 348.266C178.614 348.266 178.639 348.266 178.662 348.266C179.038 348.28 179.386 348.377 179.706 348.558C180.03 348.734 180.311 348.964 180.548 349.247C180.784 349.53 180.97 349.852 181.104 350.214C181.239 350.571 181.306 350.937 181.306 351.313C181.306 351.675 181.239 352.025 181.104 352.363C180.974 352.697 180.805 353.01 180.596 353.303C180.819 353.34 181.06 353.37 181.32 353.393C181.584 353.416 181.835 353.428 182.071 353.428H182.259V355.209H182.12C181.763 355.209 181.417 355.202 181.083 355.188C180.754 355.179 180.443 355.153 180.151 355.111C179.859 355.07 179.585 355.012 179.33 354.937C179.08 354.859 178.857 354.752 178.662 354.617C178.523 354.719 178.324 354.808 178.064 354.882C177.809 354.956 177.521 355.016 177.201 355.063C176.881 355.114 176.543 355.151 176.186 355.174C175.833 355.197 175.49 355.209 175.156 355.209H175.017V353.428ZM178.641 350.026C178.521 350.049 178.382 350.098 178.224 350.172C178.071 350.242 177.925 350.341 177.786 350.471C177.651 350.597 177.535 350.752 177.438 350.937C177.345 351.123 177.299 351.343 177.299 351.598C177.299 351.682 177.338 351.791 177.417 351.925C177.496 352.055 177.6 352.187 177.73 352.322C177.86 352.452 178.008 352.574 178.175 352.69C178.342 352.802 178.514 352.881 178.69 352.927C178.829 352.857 178.964 352.767 179.094 352.656C179.228 352.544 179.346 352.424 179.448 352.294C179.55 352.159 179.632 352.023 179.692 351.883C179.757 351.74 179.789 351.603 179.789 351.473C179.789 351.292 179.75 351.121 179.671 350.958C179.597 350.791 179.502 350.643 179.386 350.513C179.27 350.383 179.145 350.277 179.01 350.193C178.88 350.105 178.757 350.049 178.641 350.026ZM178.468 346.04L177.285 347.223L176.088 346.033L177.271 344.843L178.468 346.04ZM181.097 346.047L179.915 347.237L178.718 346.04L179.901 344.857L181.097 346.047ZM182.153 353.428C182.64 353.428 183.108 353.414 183.558 353.386C184.008 353.354 184.418 353.31 184.789 353.254C185.16 353.198 185.48 353.131 185.749 353.052C186.018 352.973 186.22 352.885 186.355 352.788H185.645C185.237 352.788 184.847 352.737 184.476 352.635C184.11 352.528 183.788 352.37 183.509 352.162C183.231 351.953 183.008 351.693 182.842 351.383C182.679 351.067 182.598 350.701 182.598 350.283C182.598 350.038 182.624 349.785 182.675 349.525C182.726 349.266 182.802 349.013 182.904 348.767C183.006 348.521 183.129 348.289 183.273 348.071C183.417 347.853 183.581 347.663 183.767 347.501C183.952 347.334 184.156 347.204 184.379 347.111C184.602 347.014 184.843 346.965 185.102 346.965C185.422 346.965 185.722 347.032 186 347.167C186.278 347.301 186.531 347.485 186.758 347.717C186.985 347.944 187.187 348.208 187.363 348.51C187.539 348.811 187.688 349.129 187.808 349.463C187.929 349.797 188.019 350.137 188.08 350.485C188.145 350.828 188.177 351.155 188.177 351.466C188.177 351.995 188.103 352.454 187.955 352.843C187.811 353.233 187.607 353.567 187.342 353.845C187.083 354.123 186.77 354.351 186.403 354.527C186.042 354.703 185.64 354.842 185.2 354.944C184.759 355.046 184.286 355.116 183.781 355.153C183.28 355.19 182.76 355.209 182.222 355.209H181.986V353.428H182.153ZM185.102 348.76C185.079 348.755 185.056 348.753 185.033 348.753C184.94 348.753 184.833 348.79 184.713 348.864C184.592 348.939 184.476 349.045 184.365 349.184C184.254 349.323 184.163 349.481 184.094 349.657C184.024 349.829 183.989 349.998 183.989 350.165C183.989 350.174 183.989 350.184 183.989 350.193C183.989 350.36 184.026 350.497 184.101 350.603C184.175 350.706 184.275 350.784 184.4 350.84C184.53 350.896 184.678 350.935 184.845 350.958C185.017 350.981 185.197 350.998 185.388 351.007C185.513 351.012 185.643 351.014 185.777 351.014C185.842 351.014 185.942 351.014 186.076 351.014C186.215 351.009 186.357 351.002 186.501 350.993C186.459 350.826 186.399 350.62 186.32 350.374C186.246 350.123 186.151 349.882 186.035 349.65C185.923 349.414 185.789 349.21 185.631 349.038C185.478 348.867 185.302 348.774 185.102 348.76ZM186.382 344.704L185.047 346.04L183.718 344.704L185.047 343.376L186.382 344.704ZM191.414 344.141C191.53 345.027 191.612 345.873 191.658 346.68C191.704 347.482 191.732 348.268 191.741 349.038C191.751 349.692 191.753 350.297 191.748 350.854C191.748 351.41 191.744 351.93 191.734 352.412C191.725 352.89 191.711 353.337 191.693 353.755C191.674 354.168 191.656 354.555 191.637 354.917L189.814 355.195C189.912 353.664 189.961 352.312 189.961 351.139C189.961 350.666 189.954 350.223 189.94 349.81C189.903 348.86 189.861 347.967 189.814 347.132C189.768 346.293 189.705 345.49 189.627 344.725L191.414 344.141ZM203.04 359.744C202.242 359.744 201.504 359.645 200.827 359.445C200.15 359.25 199.573 358.954 199.095 358.555C198.618 358.161 198.258 357.664 198.017 357.066C197.822 356.598 197.725 356.067 197.725 355.473C197.725 355.315 197.732 355.153 197.746 354.986C197.773 354.666 197.811 354.339 197.857 354.005C197.908 353.671 197.975 353.321 198.059 352.955C198.147 352.584 198.258 352.192 198.393 351.779C198.527 351.366 198.694 350.921 198.893 350.443L200.326 351.104C200.136 351.577 199.979 352.016 199.853 352.419C199.728 352.818 199.629 353.189 199.554 353.532C199.485 353.875 199.436 354.198 199.408 354.499C199.38 354.801 199.366 355.09 199.366 355.369C199.366 355.703 199.408 356.002 199.492 356.266C199.58 356.53 199.691 356.767 199.826 356.976C200.006 357.221 200.234 357.409 200.507 357.539C200.781 357.674 201.069 357.771 201.37 357.831C201.676 357.892 201.975 357.926 202.267 357.936C202.564 357.95 202.822 357.957 203.04 357.957C203.169 357.957 203.357 357.947 203.603 357.929C203.853 357.91 204.125 357.878 204.417 357.831C204.714 357.785 205.018 357.725 205.328 357.65C205.639 357.576 205.92 357.483 206.17 357.372C206.425 357.261 206.631 357.131 206.789 356.983C206.951 356.834 207.033 356.66 207.033 356.461C207.033 356.428 206.991 356.377 206.907 356.308C206.829 356.243 206.717 356.169 206.573 356.085C206.434 356.002 206.27 355.914 206.08 355.821C205.889 355.733 205.685 355.647 205.467 355.563C205.147 355.457 204.83 355.378 204.514 355.327C204.199 355.276 203.886 355.223 203.575 355.167L203.812 353.428H209.335V355.209H208.034C208.22 355.436 208.343 355.659 208.403 355.877C208.468 356.099 208.503 356.294 208.507 356.461C208.489 356.869 208.384 357.233 208.194 357.553C208.004 357.878 207.758 358.161 207.457 358.402C207.16 358.648 206.822 358.854 206.441 359.021C206.061 359.192 205.671 359.332 205.273 359.438C204.874 359.545 204.48 359.621 204.09 359.668C203.705 359.719 203.355 359.744 203.04 359.744ZM209.342 353.428C209.597 353.428 209.825 353.372 210.024 353.261C210.228 353.15 210.407 353.001 210.56 352.816C210.717 352.63 210.854 352.419 210.97 352.183C211.091 351.946 211.195 351.703 211.283 351.452C211.371 351.202 211.448 350.956 211.513 350.715C211.578 350.469 211.636 350.249 211.687 350.054L213.426 350.437C213.384 350.566 213.328 350.733 213.259 350.937C213.189 351.137 213.122 351.35 213.057 351.577C212.997 351.8 212.946 352.025 212.904 352.252C212.872 352.424 212.855 352.584 212.855 352.732C212.855 352.779 212.86 352.86 212.869 352.976C212.878 353.092 212.925 353.208 213.008 353.323C213.096 353.435 213.238 353.49 213.433 353.49C213.641 353.49 213.829 353.432 213.996 353.317C214.163 353.196 214.312 353.041 214.441 352.85C214.576 352.656 214.692 352.435 214.789 352.19C214.891 351.944 214.977 351.693 215.047 351.438C215.121 351.179 215.181 350.926 215.227 350.68C215.278 350.434 215.318 350.214 215.346 350.019L216.974 350.332C216.96 350.443 216.939 350.576 216.911 350.729C216.888 350.882 216.862 351.049 216.834 351.23C216.807 351.406 216.779 351.591 216.751 351.786C216.728 351.981 216.709 352.176 216.695 352.37C216.695 352.408 216.695 352.445 216.695 352.482C216.695 352.593 216.707 352.709 216.73 352.83C216.753 352.946 216.802 353.057 216.876 353.163C216.95 353.266 217.048 353.349 217.168 353.414C217.289 353.474 217.437 353.507 217.614 353.511C217.943 353.511 218.212 353.428 218.421 353.261C218.629 353.094 218.734 352.839 218.734 352.496C218.734 352.245 218.699 351.974 218.629 351.682C218.564 351.39 218.483 351.104 218.386 350.826C218.293 350.548 218.193 350.286 218.087 350.04C217.98 349.794 217.887 349.59 217.808 349.428L219.304 348.593C219.332 348.644 219.376 348.737 219.436 348.871C219.501 349.006 219.573 349.173 219.652 349.372C219.735 349.567 219.819 349.787 219.902 350.033C219.986 350.279 220.062 350.539 220.132 350.812C220.206 351.081 220.264 351.357 220.306 351.64C220.352 351.923 220.375 352.201 220.375 352.475C220.375 352.906 220.308 353.296 220.174 353.643C220.044 353.991 219.849 354.288 219.589 354.534C219.334 354.78 219.019 354.968 218.643 355.097C218.281 355.227 217.866 355.292 217.398 355.292C217.384 355.292 217.368 355.292 217.349 355.292C217.331 355.292 217.314 355.292 217.301 355.292C217.083 355.292 216.883 355.262 216.702 355.202C216.521 355.146 216.354 355.067 216.201 354.965C216.053 354.859 215.918 354.738 215.798 354.603C215.682 354.469 215.578 354.332 215.485 354.193C215.378 354.346 215.262 354.49 215.137 354.624C215.012 354.754 214.866 354.868 214.699 354.965C214.536 355.063 214.351 355.139 214.142 355.195C213.938 355.255 213.702 355.288 213.433 355.292C213.419 355.292 213.403 355.292 213.384 355.292C213.175 355.292 212.981 355.264 212.8 355.209C212.623 355.153 212.459 355.077 212.306 354.979C212.157 354.877 212.021 354.759 211.895 354.624C211.775 354.49 211.663 354.348 211.561 354.2C211.473 354.33 211.367 354.455 211.241 354.576C211.121 354.696 210.97 354.805 210.789 354.903C210.613 354.995 210.404 355.07 210.163 355.125C209.922 355.181 209.639 355.209 209.314 355.209H209.064V353.428H209.342ZM224.602 350.583C224.695 350.875 224.79 351.181 224.887 351.501C224.989 351.816 225.08 352.136 225.159 352.461C225.242 352.786 225.309 353.11 225.36 353.435C225.411 353.755 225.437 354.068 225.437 354.374C225.437 354.791 225.372 355.197 225.242 355.591C225.117 355.99 224.941 356.373 224.714 356.739C224.491 357.11 224.224 357.463 223.914 357.797C223.607 358.13 223.274 358.446 222.912 358.743C222.55 359.039 222.167 359.315 221.764 359.57C221.36 359.826 220.952 360.055 220.54 360.259L219.747 358.666C220.076 358.504 220.4 358.323 220.72 358.123C221.04 357.929 221.344 357.72 221.632 357.497C221.924 357.275 222.193 357.041 222.439 356.795C222.689 356.549 222.902 356.294 223.079 356.03C223.26 355.765 223.401 355.494 223.503 355.216C223.605 354.937 223.656 354.657 223.656 354.374C223.656 354.11 223.626 353.831 223.566 353.539C223.505 353.247 223.431 352.959 223.343 352.677C223.26 352.389 223.171 352.113 223.079 351.849C222.991 351.584 222.916 351.35 222.856 351.146L224.602 350.583ZM230.355 355.209H230.077C229.135 355.209 228.421 354.972 227.934 354.499C227.447 354.026 227.201 353.312 227.197 352.357C227.197 352.208 227.201 351.965 227.211 351.626C227.22 351.283 227.225 350.866 227.225 350.374C227.225 350.082 227.222 349.769 227.218 349.435C227.213 349.096 227.206 348.753 227.197 348.405C227.187 348.053 227.174 347.703 227.155 347.355C227.141 347.002 227.123 346.664 227.099 346.339C227.076 346.01 227.048 345.704 227.016 345.421C226.983 345.133 226.946 344.881 226.905 344.663L228.651 344.141C228.702 344.41 228.748 344.739 228.79 345.129C228.832 345.514 228.869 345.926 228.901 346.367C228.934 346.808 228.957 347.257 228.971 347.717C228.989 348.171 228.998 348.6 228.998 349.003C228.998 349.249 229.001 349.511 229.005 349.79C229.01 350.063 229.012 350.304 229.012 350.513C229.012 350.689 229.01 350.856 229.005 351.014C229.005 351.167 229.003 351.315 228.998 351.459C228.998 351.603 228.996 351.744 228.992 351.883C228.992 352.023 228.992 352.164 228.992 352.308C228.992 352.345 228.992 352.382 228.992 352.419C228.992 352.586 229.008 352.734 229.04 352.864C229.077 352.994 229.14 353.103 229.228 353.191C229.316 353.275 229.427 353.335 229.562 353.372C229.701 353.409 229.861 353.428 230.042 353.428H230.355V355.209ZM230.247 353.428C230.734 353.428 231.202 353.414 231.652 353.386C232.102 353.354 232.512 353.31 232.883 353.254C233.254 353.198 233.574 353.131 233.843 353.052C234.112 352.973 234.314 352.885 234.448 352.788H233.739C233.331 352.788 232.941 352.737 232.57 352.635C232.204 352.528 231.881 352.37 231.603 352.162C231.325 351.953 231.102 351.693 230.935 351.383C230.773 351.067 230.692 350.701 230.692 350.283C230.692 350.038 230.717 349.785 230.768 349.525C230.819 349.266 230.896 349.013 230.998 348.767C231.1 348.521 231.223 348.289 231.367 348.071C231.51 347.853 231.675 347.663 231.86 347.501C232.046 347.334 232.25 347.204 232.473 347.111C232.695 347.014 232.936 346.965 233.196 346.965C233.516 346.965 233.815 347.032 234.094 347.167C234.372 347.301 234.625 347.485 234.852 347.717C235.079 347.944 235.281 348.208 235.457 348.51C235.633 348.811 235.782 349.129 235.902 349.463C236.023 349.797 236.113 350.137 236.174 350.485C236.238 350.828 236.271 351.155 236.271 351.466C236.271 351.995 236.197 352.454 236.048 352.843C235.905 353.233 235.7 353.567 235.436 353.845C235.176 354.123 234.863 354.351 234.497 354.527C234.135 354.703 233.734 354.842 233.294 354.944C232.853 355.046 232.38 355.116 231.874 355.153C231.374 355.19 230.854 355.209 230.316 355.209H230.08V353.428H230.247ZM233.196 348.76C233.173 348.755 233.15 348.753 233.127 348.753C233.034 348.753 232.927 348.79 232.807 348.864C232.686 348.939 232.57 349.045 232.459 349.184C232.347 349.323 232.257 349.481 232.187 349.657C232.118 349.829 232.083 349.998 232.083 350.165C232.083 350.174 232.083 350.184 232.083 350.193C232.083 350.36 232.12 350.497 232.194 350.603C232.269 350.706 232.368 350.784 232.494 350.84C232.623 350.896 232.772 350.935 232.939 350.958C233.11 350.981 233.291 350.998 233.481 351.007C233.607 351.012 233.736 351.014 233.871 351.014C233.936 351.014 234.036 351.014 234.17 351.014C234.309 351.009 234.451 351.002 234.594 350.993C234.553 350.826 234.492 350.62 234.414 350.374C234.339 350.123 234.244 349.882 234.128 349.65C234.017 349.414 233.883 349.21 233.725 349.038C233.572 348.867 233.396 348.774 233.196 348.76ZM234.476 344.704L233.14 346.04L231.812 344.704L233.14 343.376L234.476 344.704Z" fill="black"/>
</svg>
